<?xml version="1.0" encoding="UTF-8" standalone="no"?>
<!DOCTYPE svg PUBLIC "-//W3C//DTD SVG 1.1//EN"
 "http://www.w3.org/Graphics/SVG/1.1/DTD/svg11.dtd">
<!-- Generated by graphviz version 14.0.2 (20251019.1705)
 -->
<!-- Title: G Pages: 1 -->
<svg width="1931pt" height="229pt"
 viewBox="0.00 0.00 1931.00 229.00" xmlns="http://www.w3.org/2000/svg" xmlns:xlink="http://www.w3.org/1999/xlink">
<g id="graph0" class="graph" transform="scale(1 1) rotate(0) translate(4 224.95)">
<title>G</title>
<polygon fill="#fffafa" stroke="none" points="-4,4 -4,-224.95 1926.93,-224.95 1926.93,4 -4,4"/>
<!-- 0 -->
<g id="node1" class="node">
<title>0</title>
<path fill="#cd5c5c" stroke="#000000" d="M348,-127C348,-127 448.77,-127 448.77,-127 454.77,-127 460.77,-133 460.77,-139 460.77,-139 460.77,-181 460.77,-181 460.77,-187 454.77,-193 448.77,-193 448.77,-193 348,-193 348,-193 342,-193 336,-187 336,-181 336,-181 336,-139 336,-139 336,-133 342,-127 348,-127"/>
<text xml:space="preserve" text-anchor="middle" x="398.39" y="-177.8" font-family="Times,serif" font-size="14.00">phys idx = 0</text>
<polyline fill="none" stroke="#000000" points="336,-171 460.77,-171"/>
<text xml:space="preserve" text-anchor="middle" x="398.39" y="-155.8" font-family="Times,serif" font-size="14.00">elem = &#45;6666.00</text>
<polyline fill="none" stroke="#000000" points="336,-149 460.77,-149"/>
<text xml:space="preserve" text-anchor="middle" x="367.39" y="-133.8" font-family="Times,serif" font-size="14.00">prev = 8</text>
<polyline fill="none" stroke="#000000" points="398.77,-127 398.77,-149"/>
<text xml:space="preserve" text-anchor="middle" x="429.77" y="-133.8" font-family="Times,serif" font-size="14.00">next = 1</text>
</g>
<!-- 1 -->
<g id="node2" class="node">
<title>1</title>
<path fill="#98fb98" stroke="#000000" d="M530.77,-127C530.77,-127 631.54,-127 631.54,-127 637.54,-127 643.54,-133 643.54,-139 643.54,-139 643.54,-181 643.54,-181 643.54,-187 637.54,-193 631.54,-193 631.54,-193 530.77,-193 530.77,-193 524.77,-193 518.77,-187 518.77,-181 518.77,-181 518.77,-139 518.77,-139 518.77,-133 524.77,-127 530.77,-127"/>
<text xml:space="preserve" text-anchor="middle" x="581.16" y="-177.8" font-family="Times,serif" font-size="14.00">phys idx = 1</text>
<polyline fill="none" stroke="#000000" points="518.77,-171 643.54,-171"/>
<text xml:space="preserve" text-anchor="middle" x="581.16" y="-155.8" font-family="Times,serif" font-size="14.00">elem = 11.00</text>
<polyline fill="none" stroke="#000000" points="518.77,-149 643.54,-149"/>
<text xml:space="preserve" text-anchor="middle" x="550.16" y="-133.8" font-family="Times,serif" font-size="14.00">prev = 0</text>
<polyline fill="none" stroke="#000000" points="581.54,-127 581.54,-149"/>
<text xml:space="preserve" text-anchor="middle" x="612.54" y="-133.8" font-family="Times,serif" font-size="14.00">next = 2</text>
</g>
<!-- 0&#45;&gt;1 -->
<!-- 0&#45;&gt;1 -->
<g id="edge14" class="edge">
<title>0&#45;&gt;1</title>
<path fill="none" stroke="#000000" d="M470.78,-168.09C483.21,-168.3 496.14,-168.3 508.57,-168.09"/>
<polygon fill="#000000" stroke="#000000" points="471.17,-165.12 462.6,-167.9 471.04,-171.07 471.17,-165.12"/>
<polygon fill="#000000" stroke="#000000" points="508.48,-171.07 516.91,-167.9 508.34,-165.12 508.48,-171.07"/>
</g>
<!-- 2 -->
<g id="node3" class="node">
<title>2</title>
<path fill="#98fb98" stroke="#000000" d="M713.54,-127C713.54,-127 814.31,-127 814.31,-127 820.31,-127 826.31,-133 826.31,-139 826.31,-139 826.31,-181 826.31,-181 826.31,-187 820.31,-193 814.31,-193 814.31,-193 713.54,-193 713.54,-193 707.54,-193 701.54,-187 701.54,-181 701.54,-181 701.54,-139 701.54,-139 701.54,-133 707.54,-127 713.54,-127"/>
<text xml:space="preserve" text-anchor="middle" x="763.93" y="-177.8" font-family="Times,serif" font-size="14.00">phys idx = 2</text>
<polyline fill="none" stroke="#000000" points="701.54,-171 826.31,-171"/>
<text xml:space="preserve" text-anchor="middle" x="763.93" y="-155.8" font-family="Times,serif" font-size="14.00">elem = 20.00</text>
<polyline fill="none" stroke="#000000" points="701.54,-149 826.31,-149"/>
<text xml:space="preserve" text-anchor="middle" x="732.93" y="-133.8" font-family="Times,serif" font-size="14.00">prev = 1</text>
<polyline fill="none" stroke="#000000" points="764.31,-127 764.31,-149"/>
<text xml:space="preserve" text-anchor="middle" x="795.31" y="-133.8" font-family="Times,serif" font-size="14.00">next = 3</text>
</g>
<!-- 1&#45;&gt;2 -->
<!-- 1&#45;&gt;2 -->
<g id="edge15" class="edge">
<title>1&#45;&gt;2</title>
<path fill="none" stroke="#000000" d="M653.55,-168.09C665.98,-168.3 678.91,-168.3 691.35,-168.09"/>
<polygon fill="#000000" stroke="#000000" points="653.94,-165.12 645.37,-167.9 653.81,-171.07 653.94,-165.12"/>
<polygon fill="#000000" stroke="#000000" points="691.25,-171.07 699.68,-167.9 691.11,-165.12 691.25,-171.07"/>
</g>
<!-- 3 -->
<g id="node4" class="node">
<title>3</title>
<path fill="#98fb98" stroke="#000000" d="M896.31,-127C896.31,-127 997.08,-127 997.08,-127 1003.08,-127 1009.08,-133 1009.08,-139 1009.08,-139 1009.08,-181 1009.08,-181 1009.08,-187 1003.08,-193 997.08,-193 997.08,-193 896.31,-193 896.31,-193 890.31,-193 884.31,-187 884.31,-181 884.31,-181 884.31,-139 884.31,-139 884.31,-133 890.31,-127 896.31,-127"/>
<text xml:space="preserve" text-anchor="middle" x="946.7" y="-177.8" font-family="Times,serif" font-size="14.00">phys idx = 3</text>
<polyline fill="none" stroke="#000000" points="884.31,-171 1009.08,-171"/>
<text xml:space="preserve" text-anchor="middle" x="946.7" y="-155.8" font-family="Times,serif" font-size="14.00">elem = 30.00</text>
<polyline fill="none" stroke="#000000" points="884.31,-149 1009.08,-149"/>
<text xml:space="preserve" text-anchor="middle" x="915.7" y="-133.8" font-family="Times,serif" font-size="14.00">prev = 2</text>
<polyline fill="none" stroke="#000000" points="947.08,-127 947.08,-149"/>
<text xml:space="preserve" text-anchor="middle" x="978.08" y="-133.8" font-family="Times,serif" font-size="14.00">next = 4</text>
</g>
<!-- 2&#45;&gt;3 -->
<!-- 2&#45;&gt;3 -->
<g id="edge16" class="edge">
<title>2&#45;&gt;3</title>
<path fill="none" stroke="#000000" d="M836.32,-168.09C848.75,-168.3 861.68,-168.3 874.12,-168.09"/>
<polygon fill="#000000" stroke="#000000" points="836.71,-165.12 828.14,-167.9 836.58,-171.07 836.71,-165.12"/>
<polygon fill="#000000" stroke="#000000" points="874.02,-171.07 882.45,-167.9 873.89,-165.12 874.02,-171.07"/>
</g>
<!-- 4 -->
<g id="node5" class="node">
<title>4</title>
<path fill="#98fb98" stroke="#000000" d="M1079.08,-127C1079.08,-127 1179.85,-127 1179.85,-127 1185.85,-127 1191.85,-133 1191.85,-139 1191.85,-139 1191.85,-181 1191.85,-181 1191.85,-187 1185.85,-193 1179.85,-193 1179.85,-193 1079.08,-193 1079.08,-193 1073.08,-193 1067.08,-187 1067.08,-181 1067.08,-181 1067.08,-139 1067.08,-139 1067.08,-133 1073.08,-127 1079.08,-127"/>
<text xml:space="preserve" text-anchor="middle" x="1129.47" y="-177.8" font-family="Times,serif" font-size="14.00">phys idx = 4</text>
<polyline fill="none" stroke="#000000" points="1067.08,-171 1191.85,-171"/>
<text xml:space="preserve" text-anchor="middle" x="1129.47" y="-155.8" font-family="Times,serif" font-size="14.00">elem = 32.00</text>
<polyline fill="none" stroke="#000000" points="1067.08,-149 1191.85,-149"/>
<text xml:space="preserve" text-anchor="middle" x="1098.47" y="-133.8" font-family="Times,serif" font-size="14.00">prev = 3</text>
<polyline fill="none" stroke="#000000" points="1129.85,-127 1129.85,-149"/>
<text xml:space="preserve" text-anchor="middle" x="1160.85" y="-133.8" font-family="Times,serif" font-size="14.00">next = 5</text>
</g>
<!-- 3&#45;&gt;4 -->
<!-- 3&#45;&gt;4 -->
<g id="edge17" class="edge">
<title>3&#45;&gt;4</title>
<path fill="none" stroke="#000000" d="M1019.09,-168.09C1031.52,-168.3 1044.45,-168.3 1056.89,-168.09"/>
<polygon fill="#000000" stroke="#000000" points="1019.48,-165.12 1010.92,-167.9 1019.35,-171.07 1019.48,-165.12"/>
<polygon fill="#000000" stroke="#000000" points="1056.79,-171.07 1065.22,-167.9 1056.66,-165.12 1056.79,-171.07"/>
</g>
<!-- 5 -->
<g id="node6" class="node">
<title>5</title>
<path fill="#98fb98" stroke="#000000" d="M1261.85,-127C1261.85,-127 1362.62,-127 1362.62,-127 1368.62,-127 1374.62,-133 1374.62,-139 1374.62,-139 1374.62,-181 1374.62,-181 1374.62,-187 1368.62,-193 1362.62,-193 1362.62,-193 1261.85,-193 1261.85,-193 1255.85,-193 1249.85,-187 1249.85,-181 1249.85,-181 1249.85,-139 1249.85,-139 1249.85,-133 1255.85,-127 1261.85,-127"/>
<text xml:space="preserve" text-anchor="middle" x="1312.24" y="-177.8" font-family="Times,serif" font-size="14.00">phys idx = 5</text>
<polyline fill="none" stroke="#000000" points="1249.85,-171 1374.62,-171"/>
<text xml:space="preserve" text-anchor="middle" x="1312.24" y="-155.8" font-family="Times,serif" font-size="14.00">elem = 36.00</text>
<polyline fill="none" stroke="#000000" points="1249.85,-149 1374.62,-149"/>
<text xml:space="preserve" text-anchor="middle" x="1281.24" y="-133.8" font-family="Times,serif" font-size="14.00">prev = 4</text>
<polyline fill="none" stroke="#000000" points="1312.62,-127 1312.62,-149"/>
<text xml:space="preserve" text-anchor="middle" x="1343.62" y="-133.8" font-family="Times,serif" font-size="14.00">next = 3</text>
</g>
<!-- 4&#45;&gt;5 -->
<!-- 4&#45;&gt;5 -->
<g id="edge18" class="edge">
<title>4&#45;&gt;5</title>
<path fill="none" stroke="#000000" d="M1201.86,-168.09C1214.29,-168.3 1227.22,-168.3 1239.66,-168.09"/>
<polygon fill="#000000" stroke="#000000" points="1202.25,-165.12 1193.69,-167.9 1202.12,-171.07 1202.25,-165.12"/>
<polygon fill="#000000" stroke="#000000" points="1239.56,-171.07 1247.99,-167.9 1239.43,-165.12 1239.56,-171.07"/>
</g>
<!-- 5&#45;&gt;3 -->
<g id="edge19" class="edge">
<title>5&#45;&gt;3</title>
<path fill="none" stroke="#0000ff" stroke-width="2" d="M1249.51,-132.55C1231.3,-125.75 1211.1,-119.43 1191.85,-116 1137.26,-106.26 1121.67,-106.26 1067.08,-116 1052.05,-118.68 1036.42,-123.13 1021.63,-128.18"/>
<polygon fill="#0000ff" stroke="#0000ff" stroke-width="2" points="1020.51,-124.86 1012.28,-131.53 1022.87,-131.46 1020.51,-124.86"/>
</g>
<!-- 6 -->
<g id="node7" class="node">
<title>6</title>
<path fill="#98fb98" stroke="#000000" d="M1444.62,-127C1444.62,-127 1545.39,-127 1545.39,-127 1551.39,-127 1557.39,-133 1557.39,-139 1557.39,-139 1557.39,-181 1557.39,-181 1557.39,-187 1551.39,-193 1545.39,-193 1545.39,-193 1444.62,-193 1444.62,-193 1438.62,-193 1432.62,-187 1432.62,-181 1432.62,-181 1432.62,-139 1432.62,-139 1432.62,-133 1438.62,-127 1444.62,-127"/>
<text xml:space="preserve" text-anchor="middle" x="1495.01" y="-177.8" font-family="Times,serif" font-size="14.00">phys idx = 6</text>
<polyline fill="none" stroke="#000000" points="1432.62,-171 1557.39,-171"/>
<text xml:space="preserve" text-anchor="middle" x="1495.01" y="-155.8" font-family="Times,serif" font-size="14.00">elem = 50.00</text>
<polyline fill="none" stroke="#000000" points="1432.62,-149 1557.39,-149"/>
<text xml:space="preserve" text-anchor="middle" x="1464.01" y="-133.8" font-family="Times,serif" font-size="14.00">prev = 5</text>
<polyline fill="none" stroke="#000000" points="1495.39,-127 1495.39,-149"/>
<text xml:space="preserve" text-anchor="middle" x="1526.39" y="-133.8" font-family="Times,serif" font-size="14.00">next = 7</text>
</g>
<!-- 5&#45;&gt;6 -->
<!-- 5&#45;&gt;6 -->
<g id="edge20" class="edge">
<title>5&#45;&gt;6</title>
<path fill="none" stroke="#ff4f00" stroke-width="2" d="M1387.76,-168.14C1402.56,-168.35 1417.95,-168.26 1432.27,-167.87"/>
<polygon fill="#ff4f00" stroke="#ff4f00" stroke-width="2" points="1388.04,-164.64 1377.97,-167.93 1387.89,-171.64 1388.04,-164.64"/>
</g>
<!-- 7 -->
<g id="node8" class="node">
<title>7</title>
<path fill="#98fb98" stroke="#000000" d="M1627.39,-127C1627.39,-127 1728.16,-127 1728.16,-127 1734.16,-127 1740.16,-133 1740.16,-139 1740.16,-139 1740.16,-181 1740.16,-181 1740.16,-187 1734.16,-193 1728.16,-193 1728.16,-193 1627.39,-193 1627.39,-193 1621.39,-193 1615.39,-187 1615.39,-181 1615.39,-181 1615.39,-139 1615.39,-139 1615.39,-133 1621.39,-127 1627.39,-127"/>
<text xml:space="preserve" text-anchor="middle" x="1677.78" y="-177.8" font-family="Times,serif" font-size="14.00">phys idx = 7</text>
<polyline fill="none" stroke="#000000" points="1615.39,-171 1740.16,-171"/>
<text xml:space="preserve" text-anchor="middle" x="1677.78" y="-155.8" font-family="Times,serif" font-size="14.00">elem = 66.00</text>
<polyline fill="none" stroke="#000000" points="1615.39,-149 1740.16,-149"/>
<text xml:space="preserve" text-anchor="middle" x="1646.78" y="-133.8" font-family="Times,serif" font-size="14.00">prev = 6</text>
<polyline fill="none" stroke="#000000" points="1678.17,-127 1678.17,-149"/>
<text xml:space="preserve" text-anchor="middle" x="1709.16" y="-133.8" font-family="Times,serif" font-size="14.00">next = 8</text>
</g>
<!-- 6&#45;&gt;7 -->
<!-- 8 -->
<g id="node9" class="node">
<title>8</title>
<path fill="#98fb98" stroke="#000000" d="M1810.16,-127C1810.16,-127 1910.93,-127 1910.93,-127 1916.93,-127 1922.93,-133 1922.93,-139 1922.93,-139 1922.93,-181 1922.93,-181 1922.93,-187 1916.93,-193 1910.93,-193 1910.93,-193 1810.16,-193 1810.16,-193 1804.16,-193 1798.16,-187 1798.16,-181 1798.16,-181 1798.16,-139 1798.16,-139 1798.16,-133 1804.16,-127 1810.16,-127"/>
<text xml:space="preserve" text-anchor="middle" x="1860.55" y="-177.8" font-family="Times,serif" font-size="14.00">phys idx = 8</text>
<polyline fill="none" stroke="#000000" points="1798.16,-171 1922.93,-171"/>
<text xml:space="preserve" text-anchor="middle" x="1860.55" y="-155.8" font-family="Times,serif" font-size="14.00">elem = 70.00</text>
<polyline fill="none" stroke="#000000" points="1798.16,-149 1922.93,-149"/>
<text xml:space="preserve" text-anchor="middle" x="1829.55" y="-133.8" font-family="Times,serif" font-size="14.00">prev = 7</text>
<polyline fill="none" stroke="#000000" points="1860.94,-127 1860.94,-149"/>
<text xml:space="preserve" text-anchor="middle" x="1891.94" y="-133.8" font-family="Times,serif" font-size="14.00">next = 0</text>
</g>
<!-- 7&#45;&gt;8 -->
<!-- 7&#45;&gt;8 -->
<g id="edge21" class="edge">
<title>7&#45;&gt;8</title>
<path fill="none" stroke="#000000" d="M1750.17,-168.09C1762.6,-168.3 1775.53,-168.3 1787.97,-168.09"/>
<polygon fill="#000000" stroke="#000000" points="1750.56,-165.12 1742,-167.9 1750.43,-171.07 1750.56,-165.12"/>
<polygon fill="#000000" stroke="#000000" points="1787.87,-171.07 1796.3,-167.9 1787.74,-165.12 1787.87,-171.07"/>
</g>
<!-- 8&#45;&gt;0 -->
<g id="edge22" class="edge">
<title>8&#45;&gt;0</title>
<path fill="none" stroke="#000000" d="M1788.66,-129.52C1772.97,-124.01 1756.22,-119.05 1740.16,-116 1206.84,-14.82 1052.1,-14.82 518.77,-116 502.72,-119.05 485.97,-124.01 470.27,-129.52"/>
<polygon fill="#000000" stroke="#000000" points="1787.34,-132.21 1796.35,-132.3 1789.37,-126.61 1787.34,-132.21"/>
<polygon fill="#000000" stroke="#000000" points="469.57,-126.61 462.59,-132.3 471.59,-132.21 469.57,-126.61"/>
</g>
<!-- head_label -->
<g id="node10" class="node">
<title>head_label</title>
<path fill="#20b2aa" stroke="#000000" d="M12,-142C12,-142 42,-142 42,-142 48,-142 54,-148 54,-154 54,-154 54,-166 54,-166 54,-172 48,-178 42,-178 42,-178 12,-178 12,-178 6,-178 0,-172 0,-166 0,-166 0,-154 0,-154 0,-148 6,-142 12,-142"/>
<text xml:space="preserve" text-anchor="middle" x="27" y="-156.4" font-family="Times,serif" font-size="12.00" fill="#000000">HEAD</text>
</g>
<!-- head_label&#45;&gt;1 -->
<g id="edge3" class="edge">
<title>head_label&#45;&gt;1</title>
<path fill="none" stroke="#20b2aa" d="M54.32,-171.52C70.61,-178.11 92.14,-185.87 112,-190 263.91,-221.58 308.13,-232.81 460.77,-205 476.89,-202.06 493.67,-197.06 509.37,-191.44"/>
<polygon fill="#20b2aa" stroke="#20b2aa" points="510.12,-194.34 517.06,-188.6 508.05,-188.76 510.12,-194.34"/>
</g>
<!-- tail_label -->
<g id="node11" class="node">
<title>tail_label</title>
<path fill="#20b2aa" stroke="#000000" d="M124,-142C124,-142 154,-142 154,-142 160,-142 166,-148 166,-154 166,-154 166,-166 166,-166 166,-172 160,-178 154,-178 154,-178 124,-178 124,-178 118,-178 112,-172 112,-166 112,-166 112,-154 112,-154 112,-148 118,-142 124,-142"/>
<text xml:space="preserve" text-anchor="middle" x="139" y="-156.4" font-family="Times,serif" font-size="12.00" fill="#000000">TAIL</text>
</g>
<!-- head_label&#45;&gt;tail_label -->
<!-- tail_label&#45;&gt;8 -->
<g id="edge4" class="edge">
<title>tail_label&#45;&gt;8</title>
<path fill="none" stroke="#20b2aa" d="M155.34,-141.65C192.29,-99.62 291.1,0 397.39,0 397.39,0 397.39,0 1496.01,0 1615.78,0 1740.38,-73.65 1808.11,-121.01"/>
<polygon fill="#20b2aa" stroke="#20b2aa" points="1806.2,-123.3 1814.85,-125.78 1809.63,-118.44 1806.2,-123.3"/>
</g>
<!-- free_label -->
<g id="node12" class="node">
<title>free_label</title>
<path fill="#20b2aa" stroke="#000000" d="M236,-142C236,-142 266,-142 266,-142 272,-142 278,-148 278,-154 278,-154 278,-166 278,-166 278,-172 272,-178 266,-178 266,-178 236,-178 236,-178 230,-178 224,-172 224,-166 224,-166 224,-154 224,-154 224,-148 230,-142 236,-142"/>
<text xml:space="preserve" text-anchor="middle" x="251" y="-156.4" font-family="Times,serif" font-size="12.00" fill="#000000">FREE</text>
</g>
<!-- tail_label&#45;&gt;free_label -->
<!-- free_label&#45;&gt;0 -->
<g id="edge5" class="edge">
<title>free_label&#45;&gt;0</title>
<path fill="none" stroke="#20b2aa" d="M278.33,-160C291.74,-160 308.75,-160 325.7,-160"/>
<polygon fill="#20b2aa" stroke="#20b2aa" points="325.63,-162.98 334.13,-160 325.63,-157.03 325.63,-162.98"/>
</g>
</g>
</svg>
