<?xml version="1.0" encoding="UTF-8" standalone="no"?>
<!DOCTYPE svg PUBLIC "-//W3C//DTD SVG 1.1//EN"
 "http://www.w3.org/Graphics/SVG/1.1/DTD/svg11.dtd">
<!-- Generated by graphviz version 14.0.2 (20251019.1705)
 -->
<!-- Title: G Pages: 1 -->
<svg width="1771pt" height="240pt"
 viewBox="0.00 0.00 1771.00 240.00" xmlns="http://www.w3.org/2000/svg" xmlns:xlink="http://www.w3.org/1999/xlink">
<g id="graph0" class="graph" transform="scale(1 1) rotate(0) translate(4 235.5)">
<title>G</title>
<polygon fill="#fffafa" stroke="none" points="-4,4 -4,-235.5 1766.8,-235.5 1766.8,4 -4,4"/>
<!-- 0 -->
<g id="node1" class="node">
<title>0</title>
<path fill="#cd5c5c" stroke="#000000" d="M12,-18.5C12,-18.5 119.77,-18.5 119.77,-18.5 125.77,-18.5 131.77,-24.5 131.77,-30.5 131.77,-30.5 131.77,-72.5 131.77,-72.5 131.77,-78.5 125.77,-84.5 119.77,-84.5 119.77,-84.5 12,-84.5 12,-84.5 6,-84.5 0,-78.5 0,-72.5 0,-72.5 0,-30.5 0,-30.5 0,-24.5 6,-18.5 12,-18.5"/>
<text xml:space="preserve" text-anchor="middle" x="65.89" y="-69.3" font-family="Times,serif" font-size="14.00">phys idx = 0</text>
<polyline fill="none" stroke="#000000" points="0,-62.5 131.77,-62.5"/>
<text xml:space="preserve" text-anchor="middle" x="65.89" y="-47.3" font-family="Times,serif" font-size="14.00">elem = &#45;6666.00</text>
<polyline fill="none" stroke="#000000" points="0,-40.5 131.77,-40.5"/>
<text xml:space="preserve" text-anchor="middle" x="34.89" y="-25.3" font-family="Times,serif" font-size="14.00">prev = 10</text>
<polyline fill="none" stroke="#000000" points="69.77,-18.5 69.77,-40.5"/>
<text xml:space="preserve" text-anchor="middle" x="100.77" y="-25.3" font-family="Times,serif" font-size="14.00">next = 1</text>
</g>
<!-- 1 -->
<g id="node2" class="node">
<title>1</title>
<path fill="#98fb98" stroke="#000000" d="M179.77,-18.5C179.77,-18.5 280.54,-18.5 280.54,-18.5 286.54,-18.5 292.54,-24.5 292.54,-30.5 292.54,-30.5 292.54,-72.5 292.54,-72.5 292.54,-78.5 286.54,-84.5 280.54,-84.5 280.54,-84.5 179.77,-84.5 179.77,-84.5 173.77,-84.5 167.77,-78.5 167.77,-72.5 167.77,-72.5 167.77,-30.5 167.77,-30.5 167.77,-24.5 173.77,-18.5 179.77,-18.5"/>
<text xml:space="preserve" text-anchor="middle" x="230.16" y="-69.3" font-family="Times,serif" font-size="14.00">phys idx = 1</text>
<polyline fill="none" stroke="#000000" points="167.77,-62.5 292.54,-62.5"/>
<text xml:space="preserve" text-anchor="middle" x="230.16" y="-47.3" font-family="Times,serif" font-size="14.00">elem = 11.00</text>
<polyline fill="none" stroke="#000000" points="167.77,-40.5 292.54,-40.5"/>
<text xml:space="preserve" text-anchor="middle" x="199.16" y="-25.3" font-family="Times,serif" font-size="14.00">prev = 0</text>
<polyline fill="none" stroke="#000000" points="230.54,-18.5 230.54,-40.5"/>
<text xml:space="preserve" text-anchor="middle" x="261.54" y="-25.3" font-family="Times,serif" font-size="14.00">next = 2</text>
</g>
<!-- 0&#45;&gt;1 -->
<!-- 0&#45;&gt;1 -->
<g id="edge11" class="edge">
<title>0&#45;&gt;1</title>
<path fill="none" stroke="#6a7075" d="M142.24,-62.67C142.24,-62.67 157.28,-62.67 157.28,-62.67"/>
<polygon fill="#6a7075" stroke="#6a7075" points="142.24,-59.69 133.74,-62.67 142.24,-65.64 142.24,-59.69"/>
<polygon fill="#6a7075" stroke="#6a7075" points="157.28,-65.64 165.78,-62.67 157.28,-59.69 157.28,-65.64"/>
</g>
<!-- 2 -->
<g id="node3" class="node">
<title>2</title>
<path fill="#98fb98" stroke="#000000" d="M340.54,-18.5C340.54,-18.5 441.31,-18.5 441.31,-18.5 447.31,-18.5 453.31,-24.5 453.31,-30.5 453.31,-30.5 453.31,-72.5 453.31,-72.5 453.31,-78.5 447.31,-84.5 441.31,-84.5 441.31,-84.5 340.54,-84.5 340.54,-84.5 334.54,-84.5 328.54,-78.5 328.54,-72.5 328.54,-72.5 328.54,-30.5 328.54,-30.5 328.54,-24.5 334.54,-18.5 340.54,-18.5"/>
<text xml:space="preserve" text-anchor="middle" x="390.93" y="-69.3" font-family="Times,serif" font-size="14.00">phys idx = 2</text>
<polyline fill="none" stroke="#000000" points="328.54,-62.5 453.31,-62.5"/>
<text xml:space="preserve" text-anchor="middle" x="390.93" y="-47.3" font-family="Times,serif" font-size="14.00">elem = 21.00</text>
<polyline fill="none" stroke="#000000" points="328.54,-40.5 453.31,-40.5"/>
<text xml:space="preserve" text-anchor="middle" x="359.93" y="-25.3" font-family="Times,serif" font-size="14.00">prev = 1</text>
<polyline fill="none" stroke="#000000" points="391.31,-18.5 391.31,-40.5"/>
<text xml:space="preserve" text-anchor="middle" x="422.31" y="-25.3" font-family="Times,serif" font-size="14.00">next = 3</text>
</g>
<!-- 1&#45;&gt;2 -->
<!-- 1&#45;&gt;2 -->
<g id="edge12" class="edge">
<title>1&#45;&gt;2</title>
<path fill="none" stroke="#6a7075" d="M302.79,-62.67C302.79,-62.67 318.2,-62.67 318.2,-62.67"/>
<polygon fill="#6a7075" stroke="#6a7075" points="302.79,-59.69 294.29,-62.67 302.79,-65.64 302.79,-59.69"/>
<polygon fill="#6a7075" stroke="#6a7075" points="318.2,-65.64 326.7,-62.67 318.2,-59.69 318.2,-65.64"/>
</g>
<!-- 3 -->
<g id="node4" class="node">
<title>3</title>
<path fill="#98fb98" stroke="#000000" d="M501.31,-18.5C501.31,-18.5 602.08,-18.5 602.08,-18.5 608.08,-18.5 614.08,-24.5 614.08,-30.5 614.08,-30.5 614.08,-72.5 614.08,-72.5 614.08,-78.5 608.08,-84.5 602.08,-84.5 602.08,-84.5 501.31,-84.5 501.31,-84.5 495.31,-84.5 489.31,-78.5 489.31,-72.5 489.31,-72.5 489.31,-30.5 489.31,-30.5 489.31,-24.5 495.31,-18.5 501.31,-18.5"/>
<text xml:space="preserve" text-anchor="middle" x="551.7" y="-69.3" font-family="Times,serif" font-size="14.00">phys idx = 3</text>
<polyline fill="none" stroke="#000000" points="489.31,-62.5 614.08,-62.5"/>
<text xml:space="preserve" text-anchor="middle" x="551.7" y="-47.3" font-family="Times,serif" font-size="14.00">elem = 31.00</text>
<polyline fill="none" stroke="#000000" points="489.31,-40.5 614.08,-40.5"/>
<text xml:space="preserve" text-anchor="middle" x="520.7" y="-25.3" font-family="Times,serif" font-size="14.00">prev = 2</text>
<polyline fill="none" stroke="#000000" points="552.08,-18.5 552.08,-40.5"/>
<text xml:space="preserve" text-anchor="middle" x="583.08" y="-25.3" font-family="Times,serif" font-size="14.00">next = 9</text>
</g>
<!-- 2&#45;&gt;3 -->
<!-- 2&#45;&gt;3 -->
<g id="edge13" class="edge">
<title>2&#45;&gt;3</title>
<path fill="none" stroke="#6a7075" d="M463.56,-62.67C463.56,-62.67 478.97,-62.67 478.97,-62.67"/>
<polygon fill="#6a7075" stroke="#6a7075" points="463.56,-59.69 455.06,-62.67 463.56,-65.64 463.56,-59.69"/>
<polygon fill="#6a7075" stroke="#6a7075" points="478.97,-65.64 487.47,-62.67 478.97,-59.69 478.97,-65.64"/>
</g>
<!-- 5 -->
<g id="node5" class="node">
<title>5</title>
<path fill="#bb0d12" stroke="#45322e" stroke-width="2" d="M662.08,-18.5C662.08,-18.5 769.85,-18.5 769.85,-18.5 775.85,-18.5 781.85,-24.5 781.85,-30.5 781.85,-30.5 781.85,-72.5 781.85,-72.5 781.85,-78.5 775.85,-84.5 769.85,-84.5 769.85,-84.5 662.08,-84.5 662.08,-84.5 656.08,-84.5 650.08,-78.5 650.08,-72.5 650.08,-72.5 650.08,-30.5 650.08,-30.5 650.08,-24.5 656.08,-18.5 662.08,-18.5"/>
<text xml:space="preserve" text-anchor="middle" x="715.97" y="-69.3" font-family="Times,serif" font-size="14.00">phys idx = 5</text>
<polyline fill="none" stroke="#45322e" stroke-width="2" points="650.08,-62.5 781.85,-62.5"/>
<text xml:space="preserve" text-anchor="middle" x="715.97" y="-47.3" font-family="Times,serif" font-size="14.00">elem = 51.00</text>
<polyline fill="none" stroke="#45322e" stroke-width="2" points="650.08,-40.5 781.85,-40.5"/>
<text xml:space="preserve" text-anchor="middle" x="681.47" y="-25.3" font-family="Times,serif" font-size="14.00">prev = 8</text>
<polyline fill="none" stroke="#45322e" stroke-width="2" points="712.85,-18.5 712.85,-40.5"/>
<text xml:space="preserve" text-anchor="middle" x="747.35" y="-25.3" font-family="Times,serif" font-size="14.00">next = 57</text>
</g>
<!-- 3&#45;&gt;5 -->
<!-- 9 -->
<g id="node9" class="node">
<title>9</title>
<path fill="#98fb98" stroke="#000000" d="M1158.39,-18.5C1158.39,-18.5 1259.16,-18.5 1259.16,-18.5 1265.16,-18.5 1271.16,-24.5 1271.16,-30.5 1271.16,-30.5 1271.16,-72.5 1271.16,-72.5 1271.16,-78.5 1265.16,-84.5 1259.16,-84.5 1259.16,-84.5 1158.39,-84.5 1158.39,-84.5 1152.39,-84.5 1146.39,-78.5 1146.39,-72.5 1146.39,-72.5 1146.39,-30.5 1146.39,-30.5 1146.39,-24.5 1152.39,-18.5 1158.39,-18.5"/>
<text xml:space="preserve" text-anchor="middle" x="1208.78" y="-69.3" font-family="Times,serif" font-size="14.00">phys idx = 9</text>
<polyline fill="none" stroke="#000000" points="1146.39,-62.5 1271.16,-62.5"/>
<text xml:space="preserve" text-anchor="middle" x="1208.78" y="-47.3" font-family="Times,serif" font-size="14.00">elem = 32.00</text>
<polyline fill="none" stroke="#000000" points="1146.39,-40.5 1271.16,-40.5"/>
<text xml:space="preserve" text-anchor="middle" x="1177.78" y="-25.3" font-family="Times,serif" font-size="14.00">prev = 3</text>
<polyline fill="none" stroke="#000000" points="1209.17,-18.5 1209.17,-40.5"/>
<text xml:space="preserve" text-anchor="middle" x="1240.16" y="-25.3" font-family="Times,serif" font-size="14.00">next = 8</text>
</g>
<!-- 3&#45;&gt;9 -->
<g id="edge14" class="edge">
<title>3&#45;&gt;9</title>
<path fill="none" stroke="#6a7075" d="M551.8,-94.7C551.8,-94.7 551.8,-106.9 551.8,-106.9 551.8,-106.9 1208.8,-106.9 1208.8,-106.9 1208.8,-106.9 1208.8,-94.7 1208.8,-94.7"/>
<polygon fill="#6a7075" stroke="#6a7075" points="554.77,-94.7 551.8,-86.2 548.82,-94.7 554.77,-94.7"/>
<polygon fill="#6a7075" stroke="#6a7075" points="1211.77,-94.7 1208.8,-86.2 1205.82,-94.7 1211.77,-94.7"/>
</g>
<!-- 57 -->
<g id="node6" class="node">
<title>57</title>
<polygon fill="#bb0d12" stroke="#000000" stroke-width="2" points="1075.01,-169.04 1075.01,-183.96 1059.19,-194.5 1036.82,-194.5 1021.01,-183.96 1021.01,-169.04 1036.82,-158.5 1059.19,-158.5 1075.01,-169.04"/>
<text xml:space="preserve" text-anchor="middle" x="1048.01" y="-172.3" font-family="Times,serif" font-size="14.00">57</text>
</g>
<!-- 5&#45;&gt;57 -->
<g id="edge16" class="edge">
<title>5&#45;&gt;57</title>
<path fill="none" stroke="#ff4f00" stroke-width="2" d="M693.8,-85.33C693.8,-122.35 693.8,-176.5 693.8,-176.5 693.8,-176.5 1007.19,-176.5 1007.19,-176.5"/>
<polygon fill="#ff4f00" stroke="#ff4f00" stroke-width="2" points="1007.19,-180 1017.19,-176.5 1007.19,-173 1007.19,-180"/>
</g>
<!-- 6 -->
<g id="node7" class="node">
<title>6</title>
<path fill="#bb0d12" stroke="#45322e" stroke-width="2" d="M829.85,-18.5C829.85,-18.5 937.62,-18.5 937.62,-18.5 943.62,-18.5 949.62,-24.5 949.62,-30.5 949.62,-30.5 949.62,-72.5 949.62,-72.5 949.62,-78.5 943.62,-84.5 937.62,-84.5 937.62,-84.5 829.85,-84.5 829.85,-84.5 823.85,-84.5 817.85,-78.5 817.85,-72.5 817.85,-72.5 817.85,-30.5 817.85,-30.5 817.85,-24.5 823.85,-18.5 829.85,-18.5"/>
<text xml:space="preserve" text-anchor="middle" x="883.74" y="-69.3" font-family="Times,serif" font-size="14.00">phys idx = 6</text>
<polyline fill="none" stroke="#45322e" stroke-width="2" points="817.85,-62.5 949.62,-62.5"/>
<text xml:space="preserve" text-anchor="middle" x="883.74" y="-47.3" font-family="Times,serif" font-size="14.00">elem = 66.00</text>
<polyline fill="none" stroke="#45322e" stroke-width="2" points="817.85,-40.5 949.62,-40.5"/>
<text xml:space="preserve" text-anchor="middle" x="849.24" y="-25.3" font-family="Times,serif" font-size="14.00">prev = 5</text>
<polyline fill="none" stroke="#45322e" stroke-width="2" points="880.62,-18.5 880.62,-40.5"/>
<text xml:space="preserve" text-anchor="middle" x="915.12" y="-25.3" font-family="Times,serif" font-size="14.00">next = 10</text>
</g>
<!-- 5&#45;&gt;6 -->
<!-- 5&#45;&gt;6 -->
<g id="edge18" class="edge">
<title>5&#45;&gt;6</title>
<path fill="none" stroke="#ff4f00" stroke-width="1.5" d="M795.03,-62.67C795.03,-62.67 816.9,-62.67 816.9,-62.67"/>
<polygon fill="#ff4f00" stroke="#ff4f00" stroke-width="1.5" points="795.03,-59.17 785.03,-62.67 795.03,-66.17 795.03,-59.17"/>
</g>
<!-- 8 -->
<g id="node8" class="node">
<title>8</title>
<path fill="#98fb98" stroke="#000000" d="M997.62,-18.5C997.62,-18.5 1098.39,-18.5 1098.39,-18.5 1104.39,-18.5 1110.39,-24.5 1110.39,-30.5 1110.39,-30.5 1110.39,-72.5 1110.39,-72.5 1110.39,-78.5 1104.39,-84.5 1098.39,-84.5 1098.39,-84.5 997.62,-84.5 997.62,-84.5 991.62,-84.5 985.62,-78.5 985.62,-72.5 985.62,-72.5 985.62,-30.5 985.62,-30.5 985.62,-24.5 991.62,-18.5 997.62,-18.5"/>
<text xml:space="preserve" text-anchor="middle" x="1048.01" y="-69.3" font-family="Times,serif" font-size="14.00">phys idx = 8</text>
<polyline fill="none" stroke="#000000" points="985.62,-62.5 1110.39,-62.5"/>
<text xml:space="preserve" text-anchor="middle" x="1048.01" y="-47.3" font-family="Times,serif" font-size="14.00">elem = 36.00</text>
<polyline fill="none" stroke="#000000" points="985.62,-40.5 1110.39,-40.5"/>
<text xml:space="preserve" text-anchor="middle" x="1017.01" y="-25.3" font-family="Times,serif" font-size="14.00">prev = 9</text>
<polyline fill="none" stroke="#000000" points="1048.39,-18.5 1048.39,-40.5"/>
<text xml:space="preserve" text-anchor="middle" x="1079.39" y="-25.3" font-family="Times,serif" font-size="14.00">next = 5</text>
</g>
<!-- 6&#45;&gt;8 -->
<!-- 10 -->
<g id="node10" class="node">
<title>10</title>
<path fill="#98fb98" stroke="#000000" d="M1319.16,-18.5C1319.16,-18.5 1419.93,-18.5 1419.93,-18.5 1425.93,-18.5 1431.93,-24.5 1431.93,-30.5 1431.93,-30.5 1431.93,-72.5 1431.93,-72.5 1431.93,-78.5 1425.93,-84.5 1419.93,-84.5 1419.93,-84.5 1319.16,-84.5 1319.16,-84.5 1313.16,-84.5 1307.16,-78.5 1307.16,-72.5 1307.16,-72.5 1307.16,-30.5 1307.16,-30.5 1307.16,-24.5 1313.16,-18.5 1319.16,-18.5"/>
<text xml:space="preserve" text-anchor="middle" x="1369.55" y="-69.3" font-family="Times,serif" font-size="14.00">phys idx = 10</text>
<polyline fill="none" stroke="#000000" points="1307.16,-62.5 1431.93,-62.5"/>
<text xml:space="preserve" text-anchor="middle" x="1369.55" y="-47.3" font-family="Times,serif" font-size="14.00">elem = 70.00</text>
<polyline fill="none" stroke="#000000" points="1307.16,-40.5 1431.93,-40.5"/>
<text xml:space="preserve" text-anchor="middle" x="1338.55" y="-25.3" font-family="Times,serif" font-size="14.00">prev = 6</text>
<polyline fill="none" stroke="#000000" points="1369.94,-18.5 1369.94,-40.5"/>
<text xml:space="preserve" text-anchor="middle" x="1400.94" y="-25.3" font-family="Times,serif" font-size="14.00">next = 0</text>
</g>
<!-- 6&#45;&gt;10 -->
<g id="edge19" class="edge">
<title>6&#45;&gt;10</title>
<path fill="none" stroke="#6a7075" d="M883.8,-91.59C883.8,-91.59 883.8,-92.3 883.8,-92.3 883.8,-92.3 1330.8,-92.3 1330.8,-92.3 1330.8,-92.3 1330.8,-91.55 1330.8,-91.55"/>
<polygon fill="#6a7075" stroke="#6a7075" points="886.77,-95.21 883.8,-86.71 880.82,-95.21 886.77,-95.21"/>
<polygon fill="#6a7075" stroke="#6a7075" points="1333.77,-94.83 1330.8,-86.33 1327.82,-94.83 1333.77,-94.83"/>
</g>
<!-- 8&#45;&gt;5 -->
<g id="edge17" class="edge">
<title>8&#45;&gt;5</title>
<path fill="none" stroke="#0000ff" stroke-width="1.5" d="M1003.8,-84.91C1003.8,-93.11 1003.8,-99.6 1003.8,-99.6 1003.8,-99.6 737.8,-99.6 737.8,-99.6 737.8,-99.6 737.8,-97.7 737.8,-97.7"/>
<polygon fill="#0000ff" stroke="#0000ff" stroke-width="1.5" points="741.3,-97.7 737.8,-87.7 734.3,-97.7 741.3,-97.7"/>
</g>
<!-- 8&#45;&gt;9 -->
<!-- 9&#45;&gt;8 -->
<g id="edge21" class="edge">
<title>9&#45;&gt;8</title>
<path fill="none" stroke="#6a7075" d="M1136.15,-40.33C1136.15,-40.33 1120.73,-40.33 1120.73,-40.33"/>
<polygon fill="#6a7075" stroke="#6a7075" points="1136.15,-43.31 1144.65,-40.33 1136.15,-37.36 1136.15,-43.31"/>
<polygon fill="#6a7075" stroke="#6a7075" points="1120.73,-37.36 1112.23,-40.33 1120.73,-43.31 1120.73,-37.36"/>
</g>
<!-- 9&#45;&gt;10 -->
<!-- 10&#45;&gt;0 -->
<g id="edge22" class="edge">
<title>10&#45;&gt;0</title>
<path fill="none" stroke="#6a7075" d="M1318.8,-94.7C1318.8,-94.7 1318.8,-114.2 1318.8,-114.2 1318.8,-114.2 65.8,-114.2 65.8,-114.2 65.8,-114.2 65.8,-94.7 65.8,-94.7"/>
<polygon fill="#6a7075" stroke="#6a7075" points="1321.77,-94.7 1318.8,-86.2 1315.82,-94.7 1321.77,-94.7"/>
<polygon fill="#6a7075" stroke="#6a7075" points="68.77,-94.7 65.8,-86.2 62.82,-94.7 68.77,-94.7"/>
</g>
<!-- 4 -->
<g id="node11" class="node">
<title>4</title>
<path fill="#82898f" stroke="#000000" d="M1479.93,-18.5C1479.93,-18.5 1585.37,-18.5 1585.37,-18.5 1591.37,-18.5 1597.37,-24.5 1597.37,-30.5 1597.37,-30.5 1597.37,-72.5 1597.37,-72.5 1597.37,-78.5 1591.37,-84.5 1585.37,-84.5 1585.37,-84.5 1479.93,-84.5 1479.93,-84.5 1473.93,-84.5 1467.93,-78.5 1467.93,-72.5 1467.93,-72.5 1467.93,-30.5 1467.93,-30.5 1467.93,-24.5 1473.93,-18.5 1479.93,-18.5"/>
<text xml:space="preserve" text-anchor="middle" x="1532.65" y="-69.3" font-family="Times,serif" font-size="14.00">phys idx = 4</text>
<polyline fill="none" stroke="#000000" points="1467.93,-62.5 1597.37,-62.5"/>
<text xml:space="preserve" text-anchor="middle" x="1532.65" y="-47.3" font-family="Times,serif" font-size="14.00">elem = &#45;6666.00</text>
<polyline fill="none" stroke="#000000" points="1467.93,-40.5 1597.37,-40.5"/>
<text xml:space="preserve" text-anchor="middle" x="1501.65" y="-25.3" font-family="Times,serif" font-size="14.00">prev = &#45;1</text>
<polyline fill="none" stroke="#000000" points="1535.37,-18.5 1535.37,-40.5"/>
<text xml:space="preserve" text-anchor="middle" x="1566.37" y="-25.3" font-family="Times,serif" font-size="14.00">next = 0</text>
</g>
<!-- 10&#45;&gt;4 -->
<!-- 4&#45;&gt;0 -->
<g id="edge15" class="edge">
<title>4&#45;&gt;0</title>
<path fill="none" stroke="#44944a" d="M1532.8,-18.01C1532.8,-8.18 1532.8,0 1532.8,0 1532.8,0 65.8,0 65.8,0 65.8,0 65.8,-8 65.8,-8"/>
<polygon fill="#44944a" stroke="#44944a" points="62.82,-8 65.8,-16.5 68.77,-8 62.82,-8"/>
</g>
<!-- 7 -->
<g id="node12" class="node">
<title>7</title>
<path fill="#82898f" stroke="#000000" d="M1645.37,-18.5C1645.37,-18.5 1750.8,-18.5 1750.8,-18.5 1756.8,-18.5 1762.8,-24.5 1762.8,-30.5 1762.8,-30.5 1762.8,-72.5 1762.8,-72.5 1762.8,-78.5 1756.8,-84.5 1750.8,-84.5 1750.8,-84.5 1645.37,-84.5 1645.37,-84.5 1639.37,-84.5 1633.37,-78.5 1633.37,-72.5 1633.37,-72.5 1633.37,-30.5 1633.37,-30.5 1633.37,-24.5 1639.37,-18.5 1645.37,-18.5"/>
<text xml:space="preserve" text-anchor="middle" x="1698.08" y="-69.3" font-family="Times,serif" font-size="14.00">phys idx = 7</text>
<polyline fill="none" stroke="#000000" points="1633.37,-62.5 1762.8,-62.5"/>
<text xml:space="preserve" text-anchor="middle" x="1698.08" y="-47.3" font-family="Times,serif" font-size="14.00">elem = &#45;6666.00</text>
<polyline fill="none" stroke="#000000" points="1633.37,-40.5 1762.8,-40.5"/>
<text xml:space="preserve" text-anchor="middle" x="1667.08" y="-25.3" font-family="Times,serif" font-size="14.00">prev = &#45;1</text>
<polyline fill="none" stroke="#000000" points="1700.8,-18.5 1700.8,-40.5"/>
<text xml:space="preserve" text-anchor="middle" x="1731.8" y="-25.3" font-family="Times,serif" font-size="14.00">next = 4</text>
</g>
<!-- 4&#45;&gt;7 -->
<!-- 7&#45;&gt;4 -->
<g id="edge20" class="edge">
<title>7&#45;&gt;4</title>
<path fill="none" stroke="#44944a" d="M1633.17,-62.67C1633.17,-62.67 1607.66,-62.67 1607.66,-62.67"/>
<polygon fill="#44944a" stroke="#44944a" points="1607.66,-59.69 1599.16,-62.67 1607.66,-65.64 1607.66,-59.69"/>
</g>
<!-- head_label -->
<g id="node13" class="node">
<title>head_label</title>
<polygon fill="#879eac" stroke="#fff4cc" points="257.16,-231.5 203.16,-231.5 203.16,-195.5 257.16,-195.5 257.16,-231.5"/>
<text xml:space="preserve" text-anchor="middle" x="230.16" y="-209.9" font-family="Times,serif" font-size="12.00" fill="#fff4cc">HEAD</text>
</g>
<!-- head_label&#45;&gt;1 -->
<g id="edge23" class="edge">
<title>head_label&#45;&gt;1</title>
<path fill="none" stroke="#fff4cc" d="M229.8,-195.23C229.8,-195.23 229.8,-94.88 229.8,-94.88"/>
<polygon fill="#fff4cc" stroke="#fff4cc" points="232.77,-94.88 229.8,-86.38 226.82,-94.88 232.77,-94.88"/>
</g>
<!-- tail_label -->
<g id="node14" class="node">
<title>tail_label</title>
<polygon fill="#879eac" stroke="#fff4cc" points="1396.55,-175.5 1342.55,-175.5 1342.55,-139.5 1396.55,-139.5 1396.55,-175.5"/>
<text xml:space="preserve" text-anchor="middle" x="1369.55" y="-153.9" font-family="Times,serif" font-size="12.00" fill="#fff4cc">TAIL</text>
</g>
<!-- tail_label&#45;&gt;10 -->
<g id="edge24" class="edge">
<title>tail_label&#45;&gt;10</title>
<path fill="none" stroke="#fff4cc" d="M1369.8,-139.04C1369.8,-139.04 1369.8,-94.74 1369.8,-94.74"/>
<polygon fill="#fff4cc" stroke="#fff4cc" points="1372.77,-94.74 1369.8,-86.24 1366.82,-94.74 1372.77,-94.74"/>
</g>
<!-- free_label -->
<g id="node15" class="node">
<title>free_label</title>
<polygon fill="#879eac" stroke="#fff4cc" points="1725.08,-157.5 1671.08,-157.5 1671.08,-121.5 1725.08,-121.5 1725.08,-157.5"/>
<text xml:space="preserve" text-anchor="middle" x="1698.08" y="-135.9" font-family="Times,serif" font-size="12.00" fill="#fff4cc">FREE</text>
</g>
<!-- free_label&#45;&gt;7 -->
<g id="edge25" class="edge">
<title>free_label&#45;&gt;7</title>
<path fill="none" stroke="#fff4cc" d="M1697.8,-121.27C1697.8,-121.27 1697.8,-94.66 1697.8,-94.66"/>
<polygon fill="#fff4cc" stroke="#fff4cc" points="1700.77,-94.66 1697.8,-86.16 1694.82,-94.66 1700.77,-94.66"/>
</g>
</g>
</svg>
