<?xml version="1.0" encoding="UTF-8" standalone="no"?>
<!DOCTYPE svg PUBLIC "-//W3C//DTD SVG 1.1//EN"
 "http://www.w3.org/Graphics/SVG/1.1/DTD/svg11.dtd">
<!-- Generated by graphviz version 14.0.2 (20251019.1705)
 -->
<!-- Title: G Pages: 1 -->
<svg width="1745pt" height="172pt"
 viewBox="0.00 0.00 1745.00 172.00" xmlns="http://www.w3.org/2000/svg" xmlns:xlink="http://www.w3.org/1999/xlink">
<g id="graph0" class="graph" transform="scale(1 1) rotate(0) translate(4 167.5)">
<title>G</title>
<polygon fill="#fffafa" stroke="none" points="-4,4 -4,-167.5 1741.14,-167.5 1741.14,4 -4,4"/>
<!-- 0 -->
<g id="node1" class="node">
<title>0</title>
<path fill="#cd5c5c" stroke="#000000" d="M12,-24.5C12,-24.5 112.77,-24.5 112.77,-24.5 118.77,-24.5 124.77,-30.5 124.77,-36.5 124.77,-36.5 124.77,-78.5 124.77,-78.5 124.77,-84.5 118.77,-90.5 112.77,-90.5 112.77,-90.5 12,-90.5 12,-90.5 6,-90.5 0,-84.5 0,-78.5 0,-78.5 0,-36.5 0,-36.5 0,-30.5 6,-24.5 12,-24.5"/>
<text xml:space="preserve" text-anchor="middle" x="62.39" y="-75.3" font-family="Times,serif" font-size="14.00">phys idx = 0</text>
<polyline fill="none" stroke="#000000" points="0,-68.5 124.77,-68.5"/>
<text xml:space="preserve" text-anchor="middle" x="62.39" y="-53.3" font-family="Times,serif" font-size="14.00">elem = &#45;6666.00</text>
<polyline fill="none" stroke="#000000" points="0,-46.5 124.77,-46.5"/>
<text xml:space="preserve" text-anchor="middle" x="31.39" y="-31.3" font-family="Times,serif" font-size="14.00">prev = 6</text>
<polyline fill="none" stroke="#000000" points="62.77,-24.5 62.77,-46.5"/>
<text xml:space="preserve" text-anchor="middle" x="93.77" y="-31.3" font-family="Times,serif" font-size="14.00">next = 1</text>
</g>
<!-- 1 -->
<g id="node2" class="node">
<title>1</title>
<path fill="#98fb98" stroke="#000000" d="M172.77,-24.5C172.77,-24.5 273.54,-24.5 273.54,-24.5 279.54,-24.5 285.54,-30.5 285.54,-36.5 285.54,-36.5 285.54,-78.5 285.54,-78.5 285.54,-84.5 279.54,-90.5 273.54,-90.5 273.54,-90.5 172.77,-90.5 172.77,-90.5 166.77,-90.5 160.77,-84.5 160.77,-78.5 160.77,-78.5 160.77,-36.5 160.77,-36.5 160.77,-30.5 166.77,-24.5 172.77,-24.5"/>
<text xml:space="preserve" text-anchor="middle" x="223.16" y="-75.3" font-family="Times,serif" font-size="14.00">phys idx = 1</text>
<polyline fill="none" stroke="#000000" points="160.77,-68.5 285.54,-68.5"/>
<text xml:space="preserve" text-anchor="middle" x="223.16" y="-53.3" font-family="Times,serif" font-size="14.00">elem = 11.00</text>
<polyline fill="none" stroke="#000000" points="160.77,-46.5 285.54,-46.5"/>
<text xml:space="preserve" text-anchor="middle" x="192.16" y="-31.3" font-family="Times,serif" font-size="14.00">prev = 0</text>
<polyline fill="none" stroke="#000000" points="223.54,-24.5 223.54,-46.5"/>
<text xml:space="preserve" text-anchor="middle" x="254.54" y="-31.3" font-family="Times,serif" font-size="14.00">next = 2</text>
</g>
<!-- 0&#45;&gt;1 -->
<!-- 0&#45;&gt;1 -->
<g id="edge11" class="edge">
<title>0&#45;&gt;1</title>
<path fill="none" stroke="#6a7075" d="M135.02,-68.67C135.02,-68.67 150.43,-68.67 150.43,-68.67"/>
<polygon fill="#6a7075" stroke="#6a7075" points="135.02,-65.69 126.52,-68.67 135.02,-71.64 135.02,-65.69"/>
<polygon fill="#6a7075" stroke="#6a7075" points="150.43,-71.64 158.93,-68.67 150.43,-65.69 150.43,-71.64"/>
</g>
<!-- 2 -->
<g id="node3" class="node">
<title>2</title>
<path fill="#98fb98" stroke="#000000" d="M333.54,-24.5C333.54,-24.5 434.31,-24.5 434.31,-24.5 440.31,-24.5 446.31,-30.5 446.31,-36.5 446.31,-36.5 446.31,-78.5 446.31,-78.5 446.31,-84.5 440.31,-90.5 434.31,-90.5 434.31,-90.5 333.54,-90.5 333.54,-90.5 327.54,-90.5 321.54,-84.5 321.54,-78.5 321.54,-78.5 321.54,-36.5 321.54,-36.5 321.54,-30.5 327.54,-24.5 333.54,-24.5"/>
<text xml:space="preserve" text-anchor="middle" x="383.93" y="-75.3" font-family="Times,serif" font-size="14.00">phys idx = 2</text>
<polyline fill="none" stroke="#000000" points="321.54,-68.5 446.31,-68.5"/>
<text xml:space="preserve" text-anchor="middle" x="383.93" y="-53.3" font-family="Times,serif" font-size="14.00">elem = 21.00</text>
<polyline fill="none" stroke="#000000" points="321.54,-46.5 446.31,-46.5"/>
<text xml:space="preserve" text-anchor="middle" x="352.93" y="-31.3" font-family="Times,serif" font-size="14.00">prev = 1</text>
<polyline fill="none" stroke="#000000" points="384.31,-24.5 384.31,-46.5"/>
<text xml:space="preserve" text-anchor="middle" x="415.31" y="-31.3" font-family="Times,serif" font-size="14.00">next = 3</text>
</g>
<!-- 1&#45;&gt;2 -->
<!-- 1&#45;&gt;2 -->
<g id="edge12" class="edge">
<title>1&#45;&gt;2</title>
<path fill="none" stroke="#6a7075" d="M295.79,-46.33C295.79,-46.33 311.2,-46.33 311.2,-46.33"/>
<polygon fill="#6a7075" stroke="#6a7075" points="295.79,-43.36 287.29,-46.33 295.79,-49.31 295.79,-43.36"/>
<polygon fill="#6a7075" stroke="#6a7075" points="311.2,-49.31 319.7,-46.33 311.2,-43.36 311.2,-49.31"/>
</g>
<!-- 3 -->
<g id="node4" class="node">
<title>3</title>
<path fill="#98fb98" stroke="#000000" d="M494.31,-24.5C494.31,-24.5 595.08,-24.5 595.08,-24.5 601.08,-24.5 607.08,-30.5 607.08,-36.5 607.08,-36.5 607.08,-78.5 607.08,-78.5 607.08,-84.5 601.08,-90.5 595.08,-90.5 595.08,-90.5 494.31,-90.5 494.31,-90.5 488.31,-90.5 482.31,-84.5 482.31,-78.5 482.31,-78.5 482.31,-36.5 482.31,-36.5 482.31,-30.5 488.31,-24.5 494.31,-24.5"/>
<text xml:space="preserve" text-anchor="middle" x="544.7" y="-75.3" font-family="Times,serif" font-size="14.00">phys idx = 3</text>
<polyline fill="none" stroke="#000000" points="482.31,-68.5 607.08,-68.5"/>
<text xml:space="preserve" text-anchor="middle" x="544.7" y="-53.3" font-family="Times,serif" font-size="14.00">elem = 31.00</text>
<polyline fill="none" stroke="#000000" points="482.31,-46.5 607.08,-46.5"/>
<text xml:space="preserve" text-anchor="middle" x="513.7" y="-31.3" font-family="Times,serif" font-size="14.00">prev = 2</text>
<polyline fill="none" stroke="#000000" points="545.08,-24.5 545.08,-46.5"/>
<text xml:space="preserve" text-anchor="middle" x="576.08" y="-31.3" font-family="Times,serif" font-size="14.00">next = 9</text>
</g>
<!-- 2&#45;&gt;3 -->
<!-- 2&#45;&gt;3 -->
<g id="edge13" class="edge">
<title>2&#45;&gt;3</title>
<path fill="none" stroke="#6a7075" d="M456.56,-68.67C456.56,-68.67 471.97,-68.67 471.97,-68.67"/>
<polygon fill="#6a7075" stroke="#6a7075" points="456.56,-65.69 448.06,-68.67 456.56,-71.64 456.56,-65.69"/>
<polygon fill="#6a7075" stroke="#6a7075" points="471.97,-71.64 480.47,-68.67 471.97,-65.69 471.97,-71.64"/>
</g>
<!-- 4 -->
<g id="node5" class="node">
<title>4</title>
<path fill="#98fb98" stroke="#000000" d="M655.08,-24.5C655.08,-24.5 755.85,-24.5 755.85,-24.5 761.85,-24.5 767.85,-30.5 767.85,-36.5 767.85,-36.5 767.85,-78.5 767.85,-78.5 767.85,-84.5 761.85,-90.5 755.85,-90.5 755.85,-90.5 655.08,-90.5 655.08,-90.5 649.08,-90.5 643.08,-84.5 643.08,-78.5 643.08,-78.5 643.08,-36.5 643.08,-36.5 643.08,-30.5 649.08,-24.5 655.08,-24.5"/>
<text xml:space="preserve" text-anchor="middle" x="705.47" y="-75.3" font-family="Times,serif" font-size="14.00">phys idx = 4</text>
<polyline fill="none" stroke="#000000" points="643.08,-68.5 767.85,-68.5"/>
<text xml:space="preserve" text-anchor="middle" x="705.47" y="-53.3" font-family="Times,serif" font-size="14.00">elem = 41.00</text>
<polyline fill="none" stroke="#000000" points="643.08,-46.5 767.85,-46.5"/>
<text xml:space="preserve" text-anchor="middle" x="674.47" y="-31.3" font-family="Times,serif" font-size="14.00">prev = 8</text>
<polyline fill="none" stroke="#000000" points="705.85,-24.5 705.85,-46.5"/>
<text xml:space="preserve" text-anchor="middle" x="736.85" y="-31.3" font-family="Times,serif" font-size="14.00">next = 5</text>
</g>
<!-- 3&#45;&gt;4 -->
<!-- 9 -->
<g id="node10" class="node">
<title>9</title>
<path fill="#98fb98" stroke="#000000" d="M1458.93,-24.5C1458.93,-24.5 1559.71,-24.5 1559.71,-24.5 1565.71,-24.5 1571.71,-30.5 1571.71,-36.5 1571.71,-36.5 1571.71,-78.5 1571.71,-78.5 1571.71,-84.5 1565.71,-90.5 1559.71,-90.5 1559.71,-90.5 1458.93,-90.5 1458.93,-90.5 1452.93,-90.5 1446.93,-84.5 1446.93,-78.5 1446.93,-78.5 1446.93,-36.5 1446.93,-36.5 1446.93,-30.5 1452.93,-24.5 1458.93,-24.5"/>
<text xml:space="preserve" text-anchor="middle" x="1509.32" y="-75.3" font-family="Times,serif" font-size="14.00">phys idx = 9</text>
<polyline fill="none" stroke="#000000" points="1446.93,-68.5 1571.71,-68.5"/>
<text xml:space="preserve" text-anchor="middle" x="1509.32" y="-53.3" font-family="Times,serif" font-size="14.00">elem = 32.00</text>
<polyline fill="none" stroke="#000000" points="1446.93,-46.5 1571.71,-46.5"/>
<text xml:space="preserve" text-anchor="middle" x="1478.32" y="-31.3" font-family="Times,serif" font-size="14.00">prev = 3</text>
<polyline fill="none" stroke="#000000" points="1509.71,-24.5 1509.71,-46.5"/>
<text xml:space="preserve" text-anchor="middle" x="1540.71" y="-31.3" font-family="Times,serif" font-size="14.00">next = 7</text>
</g>
<!-- 3&#45;&gt;9 -->
<g id="edge14" class="edge">
<title>3&#45;&gt;9</title>
<path fill="none" stroke="#6a7075" d="M545.14,-14.04C545.14,-14.04 545.14,0 545.14,0 545.14,0 1488.14,0 1488.14,0 1488.14,0 1488.14,-14.04 1488.14,-14.04"/>
<polygon fill="#6a7075" stroke="#6a7075" points="542.16,-14.04 545.14,-22.54 548.11,-14.04 542.16,-14.04"/>
<polygon fill="#6a7075" stroke="#6a7075" points="1485.16,-14.04 1488.14,-22.54 1491.11,-14.04 1485.16,-14.04"/>
</g>
<!-- 5 -->
<g id="node6" class="node">
<title>5</title>
<path fill="#98fb98" stroke="#000000" d="M815.85,-24.5C815.85,-24.5 916.62,-24.5 916.62,-24.5 922.62,-24.5 928.62,-30.5 928.62,-36.5 928.62,-36.5 928.62,-78.5 928.62,-78.5 928.62,-84.5 922.62,-90.5 916.62,-90.5 916.62,-90.5 815.85,-90.5 815.85,-90.5 809.85,-90.5 803.85,-84.5 803.85,-78.5 803.85,-78.5 803.85,-36.5 803.85,-36.5 803.85,-30.5 809.85,-24.5 815.85,-24.5"/>
<text xml:space="preserve" text-anchor="middle" x="866.24" y="-75.3" font-family="Times,serif" font-size="14.00">phys idx = 5</text>
<polyline fill="none" stroke="#000000" points="803.85,-68.5 928.62,-68.5"/>
<text xml:space="preserve" text-anchor="middle" x="866.24" y="-53.3" font-family="Times,serif" font-size="14.00">elem = 51.00</text>
<polyline fill="none" stroke="#000000" points="803.85,-46.5 928.62,-46.5"/>
<text xml:space="preserve" text-anchor="middle" x="835.24" y="-31.3" font-family="Times,serif" font-size="14.00">prev = 4</text>
<polyline fill="none" stroke="#000000" points="866.62,-24.5 866.62,-46.5"/>
<text xml:space="preserve" text-anchor="middle" x="897.62" y="-31.3" font-family="Times,serif" font-size="14.00">next = 6</text>
</g>
<!-- 4&#45;&gt;5 -->
<!-- 4&#45;&gt;5 -->
<g id="edge15" class="edge">
<title>4&#45;&gt;5</title>
<path fill="none" stroke="#6a7075" d="M778.1,-68.67C778.1,-68.67 793.51,-68.67 793.51,-68.67"/>
<polygon fill="#6a7075" stroke="#6a7075" points="778.1,-65.69 769.6,-68.67 778.1,-71.64 778.1,-65.69"/>
<polygon fill="#6a7075" stroke="#6a7075" points="793.51,-71.64 802.01,-68.67 793.51,-65.69 793.51,-71.64"/>
</g>
<!-- 6 -->
<g id="node7" class="node">
<title>6</title>
<path fill="#98fb98" stroke="#000000" d="M976.62,-24.5C976.62,-24.5 1077.39,-24.5 1077.39,-24.5 1083.39,-24.5 1089.39,-30.5 1089.39,-36.5 1089.39,-36.5 1089.39,-78.5 1089.39,-78.5 1089.39,-84.5 1083.39,-90.5 1077.39,-90.5 1077.39,-90.5 976.62,-90.5 976.62,-90.5 970.62,-90.5 964.62,-84.5 964.62,-78.5 964.62,-78.5 964.62,-36.5 964.62,-36.5 964.62,-30.5 970.62,-24.5 976.62,-24.5"/>
<text xml:space="preserve" text-anchor="middle" x="1027.01" y="-75.3" font-family="Times,serif" font-size="14.00">phys idx = 6</text>
<polyline fill="none" stroke="#000000" points="964.62,-68.5 1089.39,-68.5"/>
<text xml:space="preserve" text-anchor="middle" x="1027.01" y="-53.3" font-family="Times,serif" font-size="14.00">elem = 61.00</text>
<polyline fill="none" stroke="#000000" points="964.62,-46.5 1089.39,-46.5"/>
<text xml:space="preserve" text-anchor="middle" x="996.01" y="-31.3" font-family="Times,serif" font-size="14.00">prev = 5</text>
<polyline fill="none" stroke="#000000" points="1027.39,-24.5 1027.39,-46.5"/>
<text xml:space="preserve" text-anchor="middle" x="1058.39" y="-31.3" font-family="Times,serif" font-size="14.00">next = 0</text>
</g>
<!-- 5&#45;&gt;6 -->
<!-- 5&#45;&gt;6 -->
<g id="edge16" class="edge">
<title>5&#45;&gt;6</title>
<path fill="none" stroke="#6a7075" d="M938.87,-68.67C938.87,-68.67 954.28,-68.67 954.28,-68.67"/>
<polygon fill="#6a7075" stroke="#6a7075" points="938.87,-65.69 930.37,-68.67 938.87,-71.64 938.87,-65.69"/>
<polygon fill="#6a7075" stroke="#6a7075" points="954.28,-71.64 962.78,-68.67 954.28,-65.69 954.28,-71.64"/>
</g>
<!-- 6&#45;&gt;0 -->
<g id="edge17" class="edge">
<title>6&#45;&gt;0</title>
<path fill="none" stroke="#6a7075" d="M982.14,-99.18C982.14,-99.18 982.14,-100.12 982.14,-100.12 982.14,-100.12 83.14,-100.12 83.14,-100.12 83.14,-100.12 83.14,-99.18 83.14,-99.18"/>
<polygon fill="#6a7075" stroke="#6a7075" points="985.11,-100.68 982.14,-92.18 979.16,-100.68 985.11,-100.68"/>
<polygon fill="#6a7075" stroke="#6a7075" points="86.11,-100.68 83.14,-92.18 80.16,-100.68 86.11,-100.68"/>
</g>
<!-- 7 -->
<g id="node8" class="node">
<title>7</title>
<path fill="#98fb98" stroke="#000000" d="M1137.39,-24.5C1137.39,-24.5 1238.16,-24.5 1238.16,-24.5 1244.16,-24.5 1250.16,-30.5 1250.16,-36.5 1250.16,-36.5 1250.16,-78.5 1250.16,-78.5 1250.16,-84.5 1244.16,-90.5 1238.16,-90.5 1238.16,-90.5 1137.39,-90.5 1137.39,-90.5 1131.39,-90.5 1125.39,-84.5 1125.39,-78.5 1125.39,-78.5 1125.39,-36.5 1125.39,-36.5 1125.39,-30.5 1131.39,-24.5 1137.39,-24.5"/>
<text xml:space="preserve" text-anchor="middle" x="1187.78" y="-75.3" font-family="Times,serif" font-size="14.00">phys idx = 7</text>
<polyline fill="none" stroke="#000000" points="1125.39,-68.5 1250.16,-68.5"/>
<text xml:space="preserve" text-anchor="middle" x="1187.78" y="-53.3" font-family="Times,serif" font-size="14.00">elem = 35.00</text>
<polyline fill="none" stroke="#000000" points="1125.39,-46.5 1250.16,-46.5"/>
<text xml:space="preserve" text-anchor="middle" x="1156.78" y="-31.3" font-family="Times,serif" font-size="14.00">prev = 9</text>
<polyline fill="none" stroke="#000000" points="1188.17,-24.5 1188.17,-46.5"/>
<text xml:space="preserve" text-anchor="middle" x="1219.16" y="-31.3" font-family="Times,serif" font-size="14.00">next = 8</text>
</g>
<!-- 6&#45;&gt;7 -->
<!-- 8 -->
<g id="node9" class="node">
<title>8</title>
<path fill="#98fb98" stroke="#000000" d="M1298.16,-24.5C1298.16,-24.5 1398.93,-24.5 1398.93,-24.5 1404.93,-24.5 1410.93,-30.5 1410.93,-36.5 1410.93,-36.5 1410.93,-78.5 1410.93,-78.5 1410.93,-84.5 1404.93,-90.5 1398.93,-90.5 1398.93,-90.5 1298.16,-90.5 1298.16,-90.5 1292.16,-90.5 1286.16,-84.5 1286.16,-78.5 1286.16,-78.5 1286.16,-36.5 1286.16,-36.5 1286.16,-30.5 1292.16,-24.5 1298.16,-24.5"/>
<text xml:space="preserve" text-anchor="middle" x="1348.55" y="-75.3" font-family="Times,serif" font-size="14.00">phys idx = 8</text>
<polyline fill="none" stroke="#000000" points="1286.16,-68.5 1410.93,-68.5"/>
<text xml:space="preserve" text-anchor="middle" x="1348.55" y="-53.3" font-family="Times,serif" font-size="14.00">elem = 36.00</text>
<polyline fill="none" stroke="#000000" points="1286.16,-46.5 1410.93,-46.5"/>
<text xml:space="preserve" text-anchor="middle" x="1317.55" y="-31.3" font-family="Times,serif" font-size="14.00">prev = 7</text>
<polyline fill="none" stroke="#000000" points="1348.94,-24.5 1348.94,-46.5"/>
<text xml:space="preserve" text-anchor="middle" x="1379.94" y="-31.3" font-family="Times,serif" font-size="14.00">next = 4</text>
</g>
<!-- 7&#45;&gt;8 -->
<!-- 7&#45;&gt;8 -->
<g id="edge18" class="edge">
<title>7&#45;&gt;8</title>
<path fill="none" stroke="#6a7075" d="M1260.41,-68.67C1260.41,-68.67 1275.82,-68.67 1275.82,-68.67"/>
<polygon fill="#6a7075" stroke="#6a7075" points="1260.41,-65.69 1251.91,-68.67 1260.41,-71.64 1260.41,-65.69"/>
<polygon fill="#6a7075" stroke="#6a7075" points="1275.82,-71.64 1284.32,-68.67 1275.82,-65.69 1275.82,-71.64"/>
</g>
<!-- 8&#45;&gt;4 -->
<g id="edge19" class="edge">
<title>8&#45;&gt;4</title>
<path fill="none" stroke="#6a7075" d="M1348.14,-100.87C1348.14,-100.87 1348.14,-109.25 1348.14,-109.25 1348.14,-109.25 705.14,-109.25 705.14,-109.25 705.14,-109.25 705.14,-100.87 705.14,-100.87"/>
<polygon fill="#6a7075" stroke="#6a7075" points="1351.11,-100.87 1348.14,-92.37 1345.16,-100.87 1351.11,-100.87"/>
<polygon fill="#6a7075" stroke="#6a7075" points="708.11,-100.87 705.14,-92.37 702.16,-100.87 708.11,-100.87"/>
</g>
<!-- 8&#45;&gt;9 -->
<!-- 9&#45;&gt;7 -->
<g id="edge20" class="edge">
<title>9&#45;&gt;7</title>
<path fill="none" stroke="#6a7075" d="M1530.14,-14.42C1530.14,-14.42 1530.14,-12 1530.14,-12 1530.14,-12 1188.14,-12 1188.14,-12 1188.14,-12 1188.14,-14.42 1188.14,-14.42"/>
<polygon fill="#6a7075" stroke="#6a7075" points="1527.16,-14.42 1530.14,-22.92 1533.11,-14.42 1527.16,-14.42"/>
<polygon fill="#6a7075" stroke="#6a7075" points="1185.16,-14.42 1188.14,-22.92 1191.11,-14.42 1185.16,-14.42"/>
</g>
<!-- 10 -->
<g id="node11" class="node">
<title>10</title>
<path fill="#82898f" stroke="#000000" d="M1619.71,-24.5C1619.71,-24.5 1725.14,-24.5 1725.14,-24.5 1731.14,-24.5 1737.14,-30.5 1737.14,-36.5 1737.14,-36.5 1737.14,-78.5 1737.14,-78.5 1737.14,-84.5 1731.14,-90.5 1725.14,-90.5 1725.14,-90.5 1619.71,-90.5 1619.71,-90.5 1613.71,-90.5 1607.71,-84.5 1607.71,-78.5 1607.71,-78.5 1607.71,-36.5 1607.71,-36.5 1607.71,-30.5 1613.71,-24.5 1619.71,-24.5"/>
<text xml:space="preserve" text-anchor="middle" x="1672.42" y="-75.3" font-family="Times,serif" font-size="14.00">phys idx = 10</text>
<polyline fill="none" stroke="#000000" points="1607.71,-68.5 1737.14,-68.5"/>
<text xml:space="preserve" text-anchor="middle" x="1672.42" y="-53.3" font-family="Times,serif" font-size="14.00">elem = &#45;6666.00</text>
<polyline fill="none" stroke="#000000" points="1607.71,-46.5 1737.14,-46.5"/>
<text xml:space="preserve" text-anchor="middle" x="1641.42" y="-31.3" font-family="Times,serif" font-size="14.00">prev = &#45;1</text>
<polyline fill="none" stroke="#000000" points="1675.14,-24.5 1675.14,-46.5"/>
<text xml:space="preserve" text-anchor="middle" x="1706.14" y="-31.3" font-family="Times,serif" font-size="14.00">next = 0</text>
</g>
<!-- 9&#45;&gt;10 -->
<!-- 10&#45;&gt;0 -->
<g id="edge21" class="edge">
<title>10&#45;&gt;0</title>
<path fill="none" stroke="#44944a" d="M1626.14,-90.79C1626.14,-105 1626.14,-118.38 1626.14,-118.38 1626.14,-118.38 41.14,-118.38 41.14,-118.38 41.14,-118.38 41.14,-100.8 41.14,-100.8"/>
<polygon fill="#44944a" stroke="#44944a" points="44.11,-100.8 41.14,-92.3 38.16,-100.8 44.11,-100.8"/>
</g>
<!-- head_label -->
<g id="node12" class="node">
<title>head_label</title>
<polygon fill="#879eac" stroke="#fff4cc" points="250.16,-163.5 196.16,-163.5 196.16,-127.5 250.16,-127.5 250.16,-163.5"/>
<text xml:space="preserve" text-anchor="middle" x="223.16" y="-141.9" font-family="Times,serif" font-size="12.00" fill="#fff4cc">HEAD</text>
</g>
<!-- head_label&#45;&gt;1 -->
<g id="edge22" class="edge">
<title>head_label&#45;&gt;1</title>
<path fill="none" stroke="#fff4cc" d="M223.14,-127.27C223.14,-127.27 223.14,-100.66 223.14,-100.66"/>
<polygon fill="#fff4cc" stroke="#fff4cc" points="226.11,-100.66 223.14,-92.16 220.16,-100.66 226.11,-100.66"/>
</g>
<!-- tail_label -->
<g id="node13" class="node">
<title>tail_label</title>
<polygon fill="#879eac" stroke="#fff4cc" points="1054.01,-163.5 1000.01,-163.5 1000.01,-127.5 1054.01,-127.5 1054.01,-163.5"/>
<text xml:space="preserve" text-anchor="middle" x="1027.01" y="-141.9" font-family="Times,serif" font-size="12.00" fill="#fff4cc">TAIL</text>
</g>
<!-- tail_label&#45;&gt;6 -->
<g id="edge23" class="edge">
<title>tail_label&#45;&gt;6</title>
<path fill="none" stroke="#fff4cc" d="M1027.14,-127.27C1027.14,-127.27 1027.14,-100.66 1027.14,-100.66"/>
<polygon fill="#fff4cc" stroke="#fff4cc" points="1030.11,-100.66 1027.14,-92.16 1024.16,-100.66 1030.11,-100.66"/>
</g>
<!-- free_label -->
<g id="node14" class="node">
<title>free_label</title>
<polygon fill="#879eac" stroke="#fff4cc" points="1699.42,-163.5 1645.42,-163.5 1645.42,-127.5 1699.42,-127.5 1699.42,-163.5"/>
<text xml:space="preserve" text-anchor="middle" x="1672.42" y="-141.9" font-family="Times,serif" font-size="12.00" fill="#fff4cc">FREE</text>
</g>
<!-- free_label&#45;&gt;10 -->
<g id="edge24" class="edge">
<title>free_label&#45;&gt;10</title>
<path fill="none" stroke="#fff4cc" d="M1672.14,-127.27C1672.14,-127.27 1672.14,-100.66 1672.14,-100.66"/>
<polygon fill="#fff4cc" stroke="#fff4cc" points="1675.11,-100.66 1672.14,-92.16 1669.16,-100.66 1675.11,-100.66"/>
</g>
</g>
</svg>
