<?xml version="1.0" encoding="UTF-8" standalone="no"?>
<!DOCTYPE svg PUBLIC "-//W3C//DTD SVG 1.1//EN"
 "http://www.w3.org/Graphics/SVG/1.1/DTD/svg11.dtd">
<!-- Generated by graphviz version 14.0.2 (20251019.1705)
 -->
<!-- Title: G Pages: 1 -->
<svg width="1687pt" height="117pt"
 viewBox="0.00 0.00 1687.00 117.00" xmlns="http://www.w3.org/2000/svg" xmlns:xlink="http://www.w3.org/1999/xlink">
<g id="graph0" class="graph" transform="scale(1 1) rotate(0) translate(4 113)">
<title>G</title>
<polygon fill="#1e2a36" stroke="none" points="-4,4 -4,-113 1683.01,-113 1683.01,4 -4,4"/>
<!-- info -->
<g id="node1" class="node">
<title>info</title>
<polygon fill="#4a5257" stroke="#fff4cc" stroke-width="2" points="0,-24.5 0,-90.5 66.65,-90.5 66.65,-24.5 0,-24.5"/>
<text xml:space="preserve" text-anchor="middle" x="33.32" y="-75.3" font-family="Times,serif" font-size="14.00">head = 1</text>
<polyline fill="none" stroke="#fff4cc" stroke-width="2" points="0,-68.5 66.65,-68.5"/>
<text xml:space="preserve" text-anchor="middle" x="33.32" y="-53.3" font-family="Times,serif" font-size="14.00">tail = 6</text>
<polyline fill="none" stroke="#fff4cc" stroke-width="2" points="0,-46.5 66.65,-46.5"/>
<text xml:space="preserve" text-anchor="middle" x="33.32" y="-31.3" font-family="Times,serif" font-size="14.00">free = 10</text>
</g>
<!-- 1 -->
<g id="node2" class="node">
<title>1</title>
<polygon fill="#82898f" stroke="#ffffff" stroke-width="2" points="102.65,-24.5 102.65,-90.5 227.42,-90.5 227.42,-24.5 102.65,-24.5"/>
<text xml:space="preserve" text-anchor="middle" x="165.03" y="-75.3" font-family="Times,serif" font-size="14.00">phys idx = 1</text>
<polyline fill="none" stroke="#ffffff" stroke-width="2" points="102.65,-68.5 227.42,-68.5"/>
<text xml:space="preserve" text-anchor="middle" x="165.03" y="-53.3" font-family="Times,serif" font-size="14.00">elem = 11.00</text>
<polyline fill="none" stroke="#ffffff" stroke-width="2" points="102.65,-46.5 227.42,-46.5"/>
<text xml:space="preserve" text-anchor="middle" x="134.03" y="-31.3" font-family="Times,serif" font-size="14.00">prev = 0</text>
<polyline fill="none" stroke="#ffffff" stroke-width="2" points="165.42,-24.5 165.42,-46.5"/>
<text xml:space="preserve" text-anchor="middle" x="196.42" y="-31.3" font-family="Times,serif" font-size="14.00">next = 2</text>
</g>
<!-- info&#45;&gt;1 -->
<!-- 2 -->
<g id="node3" class="node">
<title>2</title>
<polygon fill="#82898f" stroke="#ffffff" stroke-width="2" points="263.42,-24.5 263.42,-90.5 388.19,-90.5 388.19,-24.5 263.42,-24.5"/>
<text xml:space="preserve" text-anchor="middle" x="325.8" y="-75.3" font-family="Times,serif" font-size="14.00">phys idx = 2</text>
<polyline fill="none" stroke="#ffffff" stroke-width="2" points="263.42,-68.5 388.19,-68.5"/>
<text xml:space="preserve" text-anchor="middle" x="325.8" y="-53.3" font-family="Times,serif" font-size="14.00">elem = 20.00</text>
<polyline fill="none" stroke="#ffffff" stroke-width="2" points="263.42,-46.5 388.19,-46.5"/>
<text xml:space="preserve" text-anchor="middle" x="294.8" y="-31.3" font-family="Times,serif" font-size="14.00">prev = 1</text>
<polyline fill="none" stroke="#ffffff" stroke-width="2" points="326.19,-24.5 326.19,-46.5"/>
<text xml:space="preserve" text-anchor="middle" x="357.19" y="-31.3" font-family="Times,serif" font-size="14.00">next = 3</text>
</g>
<!-- 1&#45;&gt;2 -->
<!-- 1&#45;&gt;2 -->
<g id="edge11" class="edge">
<title>1&#45;&gt;2</title>
<path fill="none" stroke="#d4a798" d="M228.11,-68.67C228.11,-68.67 252.63,-68.67 252.63,-68.67"/>
<polygon fill="#d4a798" stroke="#d4a798" points="252.63,-71.64 261.13,-68.67 252.63,-65.69 252.63,-71.64"/>
</g>
<!-- 3 -->
<g id="node4" class="node">
<title>3</title>
<polygon fill="#82898f" stroke="#ffffff" stroke-width="2" points="424.19,-24.5 424.19,-90.5 548.96,-90.5 548.96,-24.5 424.19,-24.5"/>
<text xml:space="preserve" text-anchor="middle" x="486.57" y="-75.3" font-family="Times,serif" font-size="14.00">phys idx = 3</text>
<polyline fill="none" stroke="#ffffff" stroke-width="2" points="424.19,-68.5 548.96,-68.5"/>
<text xml:space="preserve" text-anchor="middle" x="486.57" y="-53.3" font-family="Times,serif" font-size="14.00">elem = 30.00</text>
<polyline fill="none" stroke="#ffffff" stroke-width="2" points="424.19,-46.5 548.96,-46.5"/>
<text xml:space="preserve" text-anchor="middle" x="455.57" y="-31.3" font-family="Times,serif" font-size="14.00">prev = 2</text>
<polyline fill="none" stroke="#ffffff" stroke-width="2" points="486.96,-24.5 486.96,-46.5"/>
<text xml:space="preserve" text-anchor="middle" x="517.96" y="-31.3" font-family="Times,serif" font-size="14.00">next = 9</text>
</g>
<!-- 2&#45;&gt;3 -->
<!-- 2&#45;&gt;3 -->
<g id="edge12" class="edge">
<title>2&#45;&gt;3</title>
<path fill="none" stroke="#d4a798" d="M388.88,-68.67C388.88,-68.67 413.4,-68.67 413.4,-68.67"/>
<polygon fill="#d4a798" stroke="#d4a798" points="413.4,-71.64 421.9,-68.67 413.4,-65.69 413.4,-71.64"/>
</g>
<!-- 4 -->
<g id="node5" class="node">
<title>4</title>
<polygon fill="#82898f" stroke="#ffffff" stroke-width="2" points="584.96,-24.5 584.96,-90.5 709.73,-90.5 709.73,-24.5 584.96,-24.5"/>
<text xml:space="preserve" text-anchor="middle" x="647.34" y="-75.3" font-family="Times,serif" font-size="14.00">phys idx = 4</text>
<polyline fill="none" stroke="#ffffff" stroke-width="2" points="584.96,-68.5 709.73,-68.5"/>
<text xml:space="preserve" text-anchor="middle" x="647.34" y="-53.3" font-family="Times,serif" font-size="14.00">elem = 40.00</text>
<polyline fill="none" stroke="#ffffff" stroke-width="2" points="584.96,-46.5 709.73,-46.5"/>
<text xml:space="preserve" text-anchor="middle" x="616.34" y="-31.3" font-family="Times,serif" font-size="14.00">prev = 8</text>
<polyline fill="none" stroke="#ffffff" stroke-width="2" points="647.73,-24.5 647.73,-46.5"/>
<text xml:space="preserve" text-anchor="middle" x="678.73" y="-31.3" font-family="Times,serif" font-size="14.00">next = 5</text>
</g>
<!-- 3&#45;&gt;4 -->
<!-- 9 -->
<g id="node10" class="node">
<title>9</title>
<polygon fill="#82898f" stroke="#ffffff" stroke-width="2" points="1388.81,-24.5 1388.81,-90.5 1513.58,-90.5 1513.58,-24.5 1388.81,-24.5"/>
<text xml:space="preserve" text-anchor="middle" x="1451.2" y="-75.3" font-family="Times,serif" font-size="14.00">phys idx = 9</text>
<polyline fill="none" stroke="#ffffff" stroke-width="2" points="1388.81,-68.5 1513.58,-68.5"/>
<text xml:space="preserve" text-anchor="middle" x="1451.2" y="-53.3" font-family="Times,serif" font-size="14.00">elem = 32.00</text>
<polyline fill="none" stroke="#ffffff" stroke-width="2" points="1388.81,-46.5 1513.58,-46.5"/>
<text xml:space="preserve" text-anchor="middle" x="1420.2" y="-31.3" font-family="Times,serif" font-size="14.00">prev = 3</text>
<polyline fill="none" stroke="#ffffff" stroke-width="2" points="1451.58,-24.5 1451.58,-46.5"/>
<text xml:space="preserve" text-anchor="middle" x="1482.58" y="-31.3" font-family="Times,serif" font-size="14.00">next = 7</text>
</g>
<!-- 3&#45;&gt;9 -->
<g id="edge13" class="edge">
<title>3&#45;&gt;9</title>
<path fill="none" stroke="#d4a798" d="M487.01,-91.28C487.01,-100.98 487.01,-109 487.01,-109 487.01,-109 1451.01,-109 1451.01,-109 1451.01,-109 1451.01,-101.29 1451.01,-101.29"/>
<polygon fill="#d4a798" stroke="#d4a798" points="1453.99,-101.29 1451.01,-92.79 1448.04,-101.29 1453.99,-101.29"/>
</g>
<!-- 5 -->
<g id="node6" class="node">
<title>5</title>
<polygon fill="#82898f" stroke="#ffffff" stroke-width="2" points="745.73,-24.5 745.73,-90.5 870.5,-90.5 870.5,-24.5 745.73,-24.5"/>
<text xml:space="preserve" text-anchor="middle" x="808.11" y="-75.3" font-family="Times,serif" font-size="14.00">phys idx = 5</text>
<polyline fill="none" stroke="#ffffff" stroke-width="2" points="745.73,-68.5 870.5,-68.5"/>
<text xml:space="preserve" text-anchor="middle" x="808.11" y="-53.3" font-family="Times,serif" font-size="14.00">elem = 50.00</text>
<polyline fill="none" stroke="#ffffff" stroke-width="2" points="745.73,-46.5 870.5,-46.5"/>
<text xml:space="preserve" text-anchor="middle" x="777.12" y="-31.3" font-family="Times,serif" font-size="14.00">prev = 4</text>
<polyline fill="none" stroke="#ffffff" stroke-width="2" points="808.5,-24.5 808.5,-46.5"/>
<text xml:space="preserve" text-anchor="middle" x="839.5" y="-31.3" font-family="Times,serif" font-size="14.00">next = 6</text>
</g>
<!-- 4&#45;&gt;5 -->
<!-- 4&#45;&gt;5 -->
<g id="edge14" class="edge">
<title>4&#45;&gt;5</title>
<path fill="none" stroke="#d4a798" d="M710.42,-68.67C710.42,-68.67 734.94,-68.67 734.94,-68.67"/>
<polygon fill="#d4a798" stroke="#d4a798" points="734.94,-71.64 743.44,-68.67 734.94,-65.69 734.94,-71.64"/>
</g>
<!-- 6 -->
<g id="node7" class="node">
<title>6</title>
<polygon fill="#82898f" stroke="#ffffff" stroke-width="2" points="906.5,-24.5 906.5,-90.5 1031.27,-90.5 1031.27,-24.5 906.5,-24.5"/>
<text xml:space="preserve" text-anchor="middle" x="968.89" y="-75.3" font-family="Times,serif" font-size="14.00">phys idx = 6</text>
<polyline fill="none" stroke="#ffffff" stroke-width="2" points="906.5,-68.5 1031.27,-68.5"/>
<text xml:space="preserve" text-anchor="middle" x="968.89" y="-53.3" font-family="Times,serif" font-size="14.00">elem = 66.00</text>
<polyline fill="none" stroke="#ffffff" stroke-width="2" points="906.5,-46.5 1031.27,-46.5"/>
<text xml:space="preserve" text-anchor="middle" x="937.89" y="-31.3" font-family="Times,serif" font-size="14.00">prev = 5</text>
<polyline fill="none" stroke="#ffffff" stroke-width="2" points="969.27,-24.5 969.27,-46.5"/>
<text xml:space="preserve" text-anchor="middle" x="1000.27" y="-31.3" font-family="Times,serif" font-size="14.00">next = 0</text>
</g>
<!-- 5&#45;&gt;6 -->
<!-- 5&#45;&gt;6 -->
<g id="edge15" class="edge">
<title>5&#45;&gt;6</title>
<path fill="none" stroke="#d4a798" d="M871.19,-68.67C871.19,-68.67 895.71,-68.67 895.71,-68.67"/>
<polygon fill="#d4a798" stroke="#d4a798" points="895.71,-71.64 904.21,-68.67 895.71,-65.69 895.71,-71.64"/>
</g>
<!-- 7 -->
<g id="node8" class="node">
<title>7</title>
<polygon fill="#82898f" stroke="#ffffff" stroke-width="2" points="1067.27,-24.5 1067.27,-90.5 1192.04,-90.5 1192.04,-24.5 1067.27,-24.5"/>
<text xml:space="preserve" text-anchor="middle" x="1129.66" y="-75.3" font-family="Times,serif" font-size="14.00">phys idx = 7</text>
<polyline fill="none" stroke="#ffffff" stroke-width="2" points="1067.27,-68.5 1192.04,-68.5"/>
<text xml:space="preserve" text-anchor="middle" x="1129.66" y="-53.3" font-family="Times,serif" font-size="14.00">elem = 35.00</text>
<polyline fill="none" stroke="#ffffff" stroke-width="2" points="1067.27,-46.5 1192.04,-46.5"/>
<text xml:space="preserve" text-anchor="middle" x="1098.66" y="-31.3" font-family="Times,serif" font-size="14.00">prev = 9</text>
<polyline fill="none" stroke="#ffffff" stroke-width="2" points="1130.04,-24.5 1130.04,-46.5"/>
<text xml:space="preserve" text-anchor="middle" x="1161.04" y="-31.3" font-family="Times,serif" font-size="14.00">next = 8</text>
</g>
<!-- 6&#45;&gt;7 -->
<!-- 8 -->
<g id="node9" class="node">
<title>8</title>
<polygon fill="#82898f" stroke="#ffffff" stroke-width="2" points="1228.04,-24.5 1228.04,-90.5 1352.81,-90.5 1352.81,-24.5 1228.04,-24.5"/>
<text xml:space="preserve" text-anchor="middle" x="1290.43" y="-75.3" font-family="Times,serif" font-size="14.00">phys idx = 8</text>
<polyline fill="none" stroke="#ffffff" stroke-width="2" points="1228.04,-68.5 1352.81,-68.5"/>
<text xml:space="preserve" text-anchor="middle" x="1290.43" y="-53.3" font-family="Times,serif" font-size="14.00">elem = 36.00</text>
<polyline fill="none" stroke="#ffffff" stroke-width="2" points="1228.04,-46.5 1352.81,-46.5"/>
<text xml:space="preserve" text-anchor="middle" x="1259.43" y="-31.3" font-family="Times,serif" font-size="14.00">prev = 7</text>
<polyline fill="none" stroke="#ffffff" stroke-width="2" points="1290.81,-24.5 1290.81,-46.5"/>
<text xml:space="preserve" text-anchor="middle" x="1321.81" y="-31.3" font-family="Times,serif" font-size="14.00">next = 4</text>
</g>
<!-- 7&#45;&gt;8 -->
<!-- 7&#45;&gt;8 -->
<g id="edge16" class="edge">
<title>7&#45;&gt;8</title>
<path fill="none" stroke="#d4a798" d="M1192.74,-68.67C1192.74,-68.67 1217.25,-68.67 1217.25,-68.67"/>
<polygon fill="#d4a798" stroke="#d4a798" points="1217.25,-71.64 1225.75,-68.67 1217.25,-65.69 1217.25,-71.64"/>
</g>
<!-- 8&#45;&gt;4 -->
<g id="edge17" class="edge">
<title>8&#45;&gt;4</title>
<path fill="none" stroke="#d4a798" d="M1290.01,-23.72C1290.01,-11.2 1290.01,0 1290.01,0 1290.01,0 647.01,0 647.01,0 647.01,0 647.01,-13.71 647.01,-13.71"/>
<polygon fill="#d4a798" stroke="#d4a798" points="644.04,-13.71 647.01,-22.21 649.99,-13.71 644.04,-13.71"/>
</g>
<!-- 8&#45;&gt;9 -->
<!-- 9&#45;&gt;7 -->
<g id="edge18" class="edge">
<title>9&#45;&gt;7</title>
<path fill="none" stroke="#d4a798" d="M1451.01,-23.95C1451.01,-17.13 1451.01,-12 1451.01,-12 1451.01,-12 1130.01,-12 1130.01,-12 1130.01,-12 1130.01,-13.94 1130.01,-13.94"/>
<polygon fill="#d4a798" stroke="#d4a798" points="1127.04,-13.94 1130.01,-22.44 1132.99,-13.94 1127.04,-13.94"/>
</g>
<!-- 10 -->
<g id="node11" class="node">
<title>10</title>
<polygon fill="#5c646b" stroke="#ffe766" stroke-width="2" points="1549.58,-24.5 1549.58,-90.5 1679.01,-90.5 1679.01,-24.5 1549.58,-24.5"/>
<text xml:space="preserve" text-anchor="middle" x="1614.3" y="-75.3" font-family="Times,serif" font-size="14.00">phys idx = 10</text>
<polyline fill="none" stroke="#ffe766" stroke-width="2" points="1549.58,-68.5 1679.01,-68.5"/>
<text xml:space="preserve" text-anchor="middle" x="1614.3" y="-53.3" font-family="Times,serif" font-size="14.00">elem = PZN</text>
<polyline fill="none" stroke="#ffe766" stroke-width="2" points="1549.58,-46.5 1679.01,-46.5"/>
<text xml:space="preserve" text-anchor="middle" x="1583.3" y="-31.3" font-family="Times,serif" font-size="14.00">prev = &#45;1</text>
<polyline fill="none" stroke="#ffe766" stroke-width="2" points="1617.02,-24.5 1617.02,-46.5"/>
<text xml:space="preserve" text-anchor="middle" x="1648.02" y="-31.3" font-family="Times,serif" font-size="14.00">next = 0</text>
</g>
<!-- 9&#45;&gt;10 -->
</g>
</svg>
