<?xml version="1.0" encoding="UTF-8" standalone="no"?>
<!DOCTYPE svg PUBLIC "-//W3C//DTD SVG 1.1//EN"
 "http://www.w3.org/Graphics/SVG/1.1/DTD/svg11.dtd">
<!-- Generated by graphviz version 14.0.2 (20251019.1705)
 -->
<!-- Title: G Pages: 1 -->
<svg width="3733pt" height="513pt"
 viewBox="0.00 0.00 3733.00 513.00" xmlns="http://www.w3.org/2000/svg" xmlns:xlink="http://www.w3.org/1999/xlink">
<g id="graph0" class="graph" transform="scale(1 1) rotate(0) translate(4 509.18)">
<title>G</title>
<polygon fill="#fffafa" stroke="none" points="-4,4 -4,-509.18 3729.18,-509.18 3729.18,4 -4,4"/>
<!-- 0 -->
<g id="node1" class="node">
<title>0</title>
<path fill="#cd5c5c" stroke="#000000" d="M12,-220.18C12,-220.18 119.77,-220.18 119.77,-220.18 125.77,-220.18 131.77,-226.18 131.77,-232.18 131.77,-232.18 131.77,-274.18 131.77,-274.18 131.77,-280.18 125.77,-286.18 119.77,-286.18 119.77,-286.18 12,-286.18 12,-286.18 6,-286.18 0,-280.18 0,-274.18 0,-274.18 0,-232.18 0,-232.18 0,-226.18 6,-220.18 12,-220.18"/>
<text xml:space="preserve" text-anchor="middle" x="65.89" y="-270.98" font-family="Times,serif" font-size="14.00">phys idx = 0</text>
<polyline fill="none" stroke="#000000" points="0,-264.18 131.77,-264.18"/>
<text xml:space="preserve" text-anchor="middle" x="65.89" y="-248.98" font-family="Times,serif" font-size="14.00">elem = &#45;6666.00</text>
<polyline fill="none" stroke="#000000" points="0,-242.18 131.77,-242.18"/>
<text xml:space="preserve" text-anchor="middle" x="34.89" y="-226.98" font-family="Times,serif" font-size="14.00">prev = 10</text>
<polyline fill="none" stroke="#000000" points="69.77,-220.18 69.77,-242.18"/>
<text xml:space="preserve" text-anchor="middle" x="100.77" y="-226.98" font-family="Times,serif" font-size="14.00">next = 1</text>
</g>
<!-- 1 -->
<g id="node2" class="node">
<title>1</title>
<path fill="#98fb98" stroke="#000000" d="M201.77,-220.18C201.77,-220.18 302.54,-220.18 302.54,-220.18 308.54,-220.18 314.54,-226.18 314.54,-232.18 314.54,-232.18 314.54,-274.18 314.54,-274.18 314.54,-280.18 308.54,-286.18 302.54,-286.18 302.54,-286.18 201.77,-286.18 201.77,-286.18 195.77,-286.18 189.77,-280.18 189.77,-274.18 189.77,-274.18 189.77,-232.18 189.77,-232.18 189.77,-226.18 195.77,-220.18 201.77,-220.18"/>
<text xml:space="preserve" text-anchor="middle" x="252.16" y="-270.98" font-family="Times,serif" font-size="14.00">phys idx = 1</text>
<polyline fill="none" stroke="#000000" points="189.77,-264.18 314.54,-264.18"/>
<text xml:space="preserve" text-anchor="middle" x="252.16" y="-248.98" font-family="Times,serif" font-size="14.00">elem = 11.00</text>
<polyline fill="none" stroke="#000000" points="189.77,-242.18 314.54,-242.18"/>
<text xml:space="preserve" text-anchor="middle" x="221.16" y="-226.98" font-family="Times,serif" font-size="14.00">prev = 0</text>
<polyline fill="none" stroke="#000000" points="252.54,-220.18 252.54,-242.18"/>
<text xml:space="preserve" text-anchor="middle" x="283.54" y="-226.98" font-family="Times,serif" font-size="14.00">next = 2</text>
</g>
<!-- 0&#45;&gt;1 -->
<!-- 0&#45;&gt;1 -->
<g id="edge25" class="edge">
<title>0&#45;&gt;1</title>
<path fill="none" stroke="#000000" d="M141.85,-261.3C154.32,-261.49 167.23,-261.47 179.61,-261.24"/>
<polygon fill="#000000" stroke="#000000" points="142.18,-258.33 133.62,-261.13 142.06,-264.28 142.18,-258.33"/>
<polygon fill="#000000" stroke="#000000" points="179.47,-264.22 187.9,-261.05 179.33,-258.27 179.47,-264.22"/>
</g>
<!-- 2 -->
<g id="node3" class="node">
<title>2</title>
<path fill="#98fb98" stroke="#000000" d="M384.54,-220.18C384.54,-220.18 485.31,-220.18 485.31,-220.18 491.31,-220.18 497.31,-226.18 497.31,-232.18 497.31,-232.18 497.31,-274.18 497.31,-274.18 497.31,-280.18 491.31,-286.18 485.31,-286.18 485.31,-286.18 384.54,-286.18 384.54,-286.18 378.54,-286.18 372.54,-280.18 372.54,-274.18 372.54,-274.18 372.54,-232.18 372.54,-232.18 372.54,-226.18 378.54,-220.18 384.54,-220.18"/>
<text xml:space="preserve" text-anchor="middle" x="434.93" y="-270.98" font-family="Times,serif" font-size="14.00">phys idx = 2</text>
<polyline fill="none" stroke="#000000" points="372.54,-264.18 497.31,-264.18"/>
<text xml:space="preserve" text-anchor="middle" x="434.93" y="-248.98" font-family="Times,serif" font-size="14.00">elem = 21.00</text>
<polyline fill="none" stroke="#000000" points="372.54,-242.18 497.31,-242.18"/>
<text xml:space="preserve" text-anchor="middle" x="403.93" y="-226.98" font-family="Times,serif" font-size="14.00">prev = 1</text>
<polyline fill="none" stroke="#000000" points="435.31,-220.18 435.31,-242.18"/>
<text xml:space="preserve" text-anchor="middle" x="466.31" y="-226.98" font-family="Times,serif" font-size="14.00">next = 3</text>
</g>
<!-- 1&#45;&gt;2 -->
<!-- 1&#45;&gt;2 -->
<g id="edge26" class="edge">
<title>1&#45;&gt;2</title>
<path fill="none" stroke="#000000" d="M324.55,-261.26C336.98,-261.48 349.91,-261.48 362.35,-261.26"/>
<polygon fill="#000000" stroke="#000000" points="324.94,-258.29 316.37,-261.08 324.81,-264.24 324.94,-258.29"/>
<polygon fill="#000000" stroke="#000000" points="362.25,-264.24 370.68,-261.08 362.11,-258.29 362.25,-264.24"/>
</g>
<!-- 3 -->
<g id="node4" class="node">
<title>3</title>
<path fill="#98fb98" stroke="#000000" d="M567.31,-220.18C567.31,-220.18 668.08,-220.18 668.08,-220.18 674.08,-220.18 680.08,-226.18 680.08,-232.18 680.08,-232.18 680.08,-274.18 680.08,-274.18 680.08,-280.18 674.08,-286.18 668.08,-286.18 668.08,-286.18 567.31,-286.18 567.31,-286.18 561.31,-286.18 555.31,-280.18 555.31,-274.18 555.31,-274.18 555.31,-232.18 555.31,-232.18 555.31,-226.18 561.31,-220.18 567.31,-220.18"/>
<text xml:space="preserve" text-anchor="middle" x="617.7" y="-270.98" font-family="Times,serif" font-size="14.00">phys idx = 3</text>
<polyline fill="none" stroke="#000000" points="555.31,-264.18 680.08,-264.18"/>
<text xml:space="preserve" text-anchor="middle" x="617.7" y="-248.98" font-family="Times,serif" font-size="14.00">elem = 31.00</text>
<polyline fill="none" stroke="#000000" points="555.31,-242.18 680.08,-242.18"/>
<text xml:space="preserve" text-anchor="middle" x="586.7" y="-226.98" font-family="Times,serif" font-size="14.00">prev = 2</text>
<polyline fill="none" stroke="#000000" points="618.08,-220.18 618.08,-242.18"/>
<text xml:space="preserve" text-anchor="middle" x="649.08" y="-226.98" font-family="Times,serif" font-size="14.00">next = 9</text>
</g>
<!-- 2&#45;&gt;3 -->
<!-- 2&#45;&gt;3 -->
<g id="edge27" class="edge">
<title>2&#45;&gt;3</title>
<path fill="none" stroke="#000000" d="M507.32,-261.26C519.75,-261.48 532.68,-261.48 545.12,-261.26"/>
<polygon fill="#000000" stroke="#000000" points="507.71,-258.29 499.14,-261.08 507.58,-264.24 507.71,-258.29"/>
<polygon fill="#000000" stroke="#000000" points="545.02,-264.24 553.45,-261.08 544.89,-258.29 545.02,-264.24"/>
</g>
<!-- 4 -->
<g id="node5" class="node">
<title>4</title>
<path fill="#82898f" stroke="#000000" d="M750.08,-220.18C750.08,-220.18 862,-220.18 862,-220.18 868,-220.18 874,-226.18 874,-232.18 874,-232.18 874,-274.18 874,-274.18 874,-280.18 868,-286.18 862,-286.18 862,-286.18 750.08,-286.18 750.08,-286.18 744.08,-286.18 738.08,-280.18 738.08,-274.18 738.08,-274.18 738.08,-232.18 738.08,-232.18 738.08,-226.18 744.08,-220.18 750.08,-220.18"/>
<text xml:space="preserve" text-anchor="middle" x="806.04" y="-270.98" font-family="Times,serif" font-size="14.00">phys idx = 4</text>
<polyline fill="none" stroke="#000000" points="738.08,-264.18 874,-264.18"/>
<text xml:space="preserve" text-anchor="middle" x="806.04" y="-248.98" font-family="Times,serif" font-size="14.00">elem = &#45;6666.00</text>
<polyline fill="none" stroke="#000000" points="738.08,-242.18 874,-242.18"/>
<text xml:space="preserve" text-anchor="middle" x="771.8" y="-226.98" font-family="Times,serif" font-size="14.00">prev = &#45;1</text>
<polyline fill="none" stroke="#000000" points="805.52,-220.18 805.52,-242.18"/>
<text xml:space="preserve" text-anchor="middle" x="839.76" y="-226.98" font-family="Times,serif" font-size="14.00">next = 11</text>
</g>
<!-- 3&#45;&gt;4 -->
<!-- 9 -->
<g id="node10" class="node">
<title>9</title>
<path fill="#98fb98" stroke="#000000" d="M1686.75,-220.18C1686.75,-220.18 1787.52,-220.18 1787.52,-220.18 1793.52,-220.18 1799.52,-226.18 1799.52,-232.18 1799.52,-232.18 1799.52,-274.18 1799.52,-274.18 1799.52,-280.18 1793.52,-286.18 1787.52,-286.18 1787.52,-286.18 1686.75,-286.18 1686.75,-286.18 1680.75,-286.18 1674.75,-280.18 1674.75,-274.18 1674.75,-274.18 1674.75,-232.18 1674.75,-232.18 1674.75,-226.18 1680.75,-220.18 1686.75,-220.18"/>
<text xml:space="preserve" text-anchor="middle" x="1737.13" y="-270.98" font-family="Times,serif" font-size="14.00">phys idx = 9</text>
<polyline fill="none" stroke="#000000" points="1674.75,-264.18 1799.52,-264.18"/>
<text xml:space="preserve" text-anchor="middle" x="1737.13" y="-248.98" font-family="Times,serif" font-size="14.00">elem = 32.00</text>
<polyline fill="none" stroke="#000000" points="1674.75,-242.18 1799.52,-242.18"/>
<text xml:space="preserve" text-anchor="middle" x="1706.13" y="-226.98" font-family="Times,serif" font-size="14.00">prev = 3</text>
<polyline fill="none" stroke="#000000" points="1737.52,-220.18 1737.52,-242.18"/>
<text xml:space="preserve" text-anchor="middle" x="1768.52" y="-226.98" font-family="Times,serif" font-size="14.00">next = 8</text>
</g>
<!-- 3&#45;&gt;9 -->
<g id="edge28" class="edge">
<title>3&#45;&gt;9</title>
<path fill="none" stroke="#000000" d="M689.64,-281.61C705.45,-287.47 722.23,-293.33 738.08,-298.18 822.79,-324.07 844.63,-329.58 932,-344.18 1232.85,-394.44 1322.44,-378.3 1616.75,-298.18 1632.65,-293.85 1649.39,-288.23 1665.14,-282.45"/>
<polygon fill="#000000" stroke="#000000" points="690.87,-278.9 681.87,-278.7 688.78,-284.47 690.87,-278.9"/>
<polygon fill="#000000" stroke="#000000" points="1665.95,-285.32 1672.87,-279.56 1663.86,-279.75 1665.95,-285.32"/>
</g>
<!-- 5 -->
<g id="node6" class="node">
<title>5</title>
<path fill="#98fb98" stroke="#000000" d="M944,-220.18C944,-220.18 1044.77,-220.18 1044.77,-220.18 1050.77,-220.18 1056.77,-226.18 1056.77,-232.18 1056.77,-232.18 1056.77,-274.18 1056.77,-274.18 1056.77,-280.18 1050.77,-286.18 1044.77,-286.18 1044.77,-286.18 944,-286.18 944,-286.18 938,-286.18 932,-280.18 932,-274.18 932,-274.18 932,-232.18 932,-232.18 932,-226.18 938,-220.18 944,-220.18"/>
<text xml:space="preserve" text-anchor="middle" x="994.39" y="-270.98" font-family="Times,serif" font-size="14.00">phys idx = 5</text>
<polyline fill="none" stroke="#000000" points="932,-264.18 1056.77,-264.18"/>
<text xml:space="preserve" text-anchor="middle" x="994.39" y="-248.98" font-family="Times,serif" font-size="14.00">elem = 51.00</text>
<polyline fill="none" stroke="#000000" points="932,-242.18 1056.77,-242.18"/>
<text xml:space="preserve" text-anchor="middle" x="963.39" y="-226.98" font-family="Times,serif" font-size="14.00">prev = 8</text>
<polyline fill="none" stroke="#000000" points="994.77,-220.18 994.77,-242.18"/>
<text xml:space="preserve" text-anchor="middle" x="1025.77" y="-226.98" font-family="Times,serif" font-size="14.00">next = 6</text>
</g>
<!-- 4&#45;&gt;5 -->
<!-- 11 -->
<g id="node12" class="node">
<title>11</title>
<path fill="#82898f" stroke="#000000" d="M2052.29,-220.18C2052.29,-220.18 2164.72,-220.18 2164.72,-220.18 2170.72,-220.18 2176.72,-226.18 2176.72,-232.18 2176.72,-232.18 2176.72,-274.18 2176.72,-274.18 2176.72,-280.18 2170.72,-286.18 2164.72,-286.18 2164.72,-286.18 2052.29,-286.18 2052.29,-286.18 2046.29,-286.18 2040.29,-280.18 2040.29,-274.18 2040.29,-274.18 2040.29,-232.18 2040.29,-232.18 2040.29,-226.18 2046.29,-220.18 2052.29,-220.18"/>
<text xml:space="preserve" text-anchor="middle" x="2108.5" y="-270.98" font-family="Times,serif" font-size="14.00">phys idx = 11</text>
<polyline fill="none" stroke="#000000" points="2040.29,-264.18 2176.72,-264.18"/>
<text xml:space="preserve" text-anchor="middle" x="2108.5" y="-248.98" font-family="Times,serif" font-size="14.00">elem = &#45;6666.00</text>
<polyline fill="none" stroke="#000000" points="2040.29,-242.18 2176.72,-242.18"/>
<text xml:space="preserve" text-anchor="middle" x="2074" y="-226.98" font-family="Times,serif" font-size="14.00">prev = &#45;1</text>
<polyline fill="none" stroke="#000000" points="2107.72,-220.18 2107.72,-242.18"/>
<text xml:space="preserve" text-anchor="middle" x="2142.22" y="-226.98" font-family="Times,serif" font-size="14.00">next = 12</text>
</g>
<!-- 4&#45;&gt;11 -->
<g id="edge29" class="edge">
<title>4&#45;&gt;11</title>
<path fill="none" stroke="#ff8c00" d="M874.28,-226.19C892.73,-219.69 912.92,-213.42 932,-209.18 1308.52,-125.46 1415.76,-146.37 1799.52,-185.18 1881.03,-193.42 1902.6,-190.16 1982.29,-209.18 1998.21,-212.98 2014.94,-218.06 2030.81,-223.41"/>
<polygon fill="#ff8c00" stroke="#ff8c00" points="2029.6,-226.14 2038.6,-226.1 2031.54,-220.52 2029.6,-226.14"/>
</g>
<!-- 6 -->
<g id="node7" class="node">
<title>6</title>
<path fill="#98fb98" stroke="#000000" d="M1126.77,-220.18C1126.77,-220.18 1234.54,-220.18 1234.54,-220.18 1240.54,-220.18 1246.54,-226.18 1246.54,-232.18 1246.54,-232.18 1246.54,-274.18 1246.54,-274.18 1246.54,-280.18 1240.54,-286.18 1234.54,-286.18 1234.54,-286.18 1126.77,-286.18 1126.77,-286.18 1120.77,-286.18 1114.77,-280.18 1114.77,-274.18 1114.77,-274.18 1114.77,-232.18 1114.77,-232.18 1114.77,-226.18 1120.77,-220.18 1126.77,-220.18"/>
<text xml:space="preserve" text-anchor="middle" x="1180.66" y="-270.98" font-family="Times,serif" font-size="14.00">phys idx = 6</text>
<polyline fill="none" stroke="#000000" points="1114.77,-264.18 1246.54,-264.18"/>
<text xml:space="preserve" text-anchor="middle" x="1180.66" y="-248.98" font-family="Times,serif" font-size="14.00">elem = 66.00</text>
<polyline fill="none" stroke="#000000" points="1114.77,-242.18 1246.54,-242.18"/>
<text xml:space="preserve" text-anchor="middle" x="1146.16" y="-226.98" font-family="Times,serif" font-size="14.00">prev = 5</text>
<polyline fill="none" stroke="#000000" points="1177.54,-220.18 1177.54,-242.18"/>
<text xml:space="preserve" text-anchor="middle" x="1212.04" y="-226.98" font-family="Times,serif" font-size="14.00">next = 10</text>
</g>
<!-- 5&#45;&gt;6 -->
<!-- 5&#45;&gt;6 -->
<g id="edge30" class="edge">
<title>5&#45;&gt;6</title>
<path fill="none" stroke="#000000" d="M1066.89,-261.24C1079.26,-261.47 1092.14,-261.49 1104.6,-261.3"/>
<polygon fill="#000000" stroke="#000000" points="1067.34,-258.27 1058.77,-261.05 1067.2,-264.22 1067.34,-258.27"/>
<polygon fill="#000000" stroke="#000000" points="1104.53,-264.28 1112.97,-261.13 1104.41,-258.33 1104.53,-264.28"/>
</g>
<!-- 7 -->
<g id="node8" class="node">
<title>7</title>
<path fill="#82898f" stroke="#000000" d="M1316.54,-220.18C1316.54,-220.18 1421.98,-220.18 1421.98,-220.18 1427.98,-220.18 1433.98,-226.18 1433.98,-232.18 1433.98,-232.18 1433.98,-274.18 1433.98,-274.18 1433.98,-280.18 1427.98,-286.18 1421.98,-286.18 1421.98,-286.18 1316.54,-286.18 1316.54,-286.18 1310.54,-286.18 1304.54,-280.18 1304.54,-274.18 1304.54,-274.18 1304.54,-232.18 1304.54,-232.18 1304.54,-226.18 1310.54,-220.18 1316.54,-220.18"/>
<text xml:space="preserve" text-anchor="middle" x="1369.26" y="-270.98" font-family="Times,serif" font-size="14.00">phys idx = 7</text>
<polyline fill="none" stroke="#000000" points="1304.54,-264.18 1433.98,-264.18"/>
<text xml:space="preserve" text-anchor="middle" x="1369.26" y="-248.98" font-family="Times,serif" font-size="14.00">elem = &#45;6666.00</text>
<polyline fill="none" stroke="#000000" points="1304.54,-242.18 1433.98,-242.18"/>
<text xml:space="preserve" text-anchor="middle" x="1338.26" y="-226.98" font-family="Times,serif" font-size="14.00">prev = &#45;1</text>
<polyline fill="none" stroke="#000000" points="1371.98,-220.18 1371.98,-242.18"/>
<text xml:space="preserve" text-anchor="middle" x="1402.98" y="-226.98" font-family="Times,serif" font-size="14.00">next = 4</text>
</g>
<!-- 6&#45;&gt;7 -->
<!-- 10 -->
<g id="node11" class="node">
<title>10</title>
<path fill="#98fb98" stroke="#000000" d="M1869.52,-220.18C1869.52,-220.18 1970.29,-220.18 1970.29,-220.18 1976.29,-220.18 1982.29,-226.18 1982.29,-232.18 1982.29,-232.18 1982.29,-274.18 1982.29,-274.18 1982.29,-280.18 1976.29,-286.18 1970.29,-286.18 1970.29,-286.18 1869.52,-286.18 1869.52,-286.18 1863.52,-286.18 1857.52,-280.18 1857.52,-274.18 1857.52,-274.18 1857.52,-232.18 1857.52,-232.18 1857.52,-226.18 1863.52,-220.18 1869.52,-220.18"/>
<text xml:space="preserve" text-anchor="middle" x="1919.9" y="-270.98" font-family="Times,serif" font-size="14.00">phys idx = 10</text>
<polyline fill="none" stroke="#000000" points="1857.52,-264.18 1982.29,-264.18"/>
<text xml:space="preserve" text-anchor="middle" x="1919.9" y="-248.98" font-family="Times,serif" font-size="14.00">elem = 70.00</text>
<polyline fill="none" stroke="#000000" points="1857.52,-242.18 1982.29,-242.18"/>
<text xml:space="preserve" text-anchor="middle" x="1888.9" y="-226.98" font-family="Times,serif" font-size="14.00">prev = 6</text>
<polyline fill="none" stroke="#000000" points="1920.29,-220.18 1920.29,-242.18"/>
<text xml:space="preserve" text-anchor="middle" x="1951.29" y="-226.98" font-family="Times,serif" font-size="14.00">next = 0</text>
</g>
<!-- 6&#45;&gt;10 -->
<g id="edge31" class="edge">
<title>6&#45;&gt;10</title>
<path fill="none" stroke="#000000" d="M1239.96,-214.92C1259.65,-204.06 1282.3,-193.7 1304.54,-188.18 1393.89,-166 1648.55,-177.75 1799.52,-209.18 1815.52,-212.51 1832.24,-217.59 1847.93,-223.13"/>
<polygon fill="#000000" stroke="#000000" points="1238.67,-212.23 1232.74,-219.01 1241.6,-217.41 1238.67,-212.23"/>
<polygon fill="#000000" stroke="#000000" points="1846.61,-225.81 1855.61,-225.92 1848.64,-220.22 1846.61,-225.81"/>
</g>
<!-- 7&#45;&gt;4 -->
<g id="edge32" class="edge">
<title>7&#45;&gt;4</title>
<path fill="none" stroke="#ff8c00" d="M1333.1,-286.5C1310.34,-305.69 1279,-327.97 1246.54,-338.18 1122.19,-377.3 972.11,-328.66 883.4,-290.47"/>
<polygon fill="#ff8c00" stroke="#ff8c00" points="884.85,-287.86 875.87,-287.18 882.47,-293.31 884.85,-287.86"/>
</g>
<!-- 8 -->
<g id="node9" class="node">
<title>8</title>
<path fill="#98fb98" stroke="#000000" d="M1503.98,-220.18C1503.98,-220.18 1604.75,-220.18 1604.75,-220.18 1610.75,-220.18 1616.75,-226.18 1616.75,-232.18 1616.75,-232.18 1616.75,-274.18 1616.75,-274.18 1616.75,-280.18 1610.75,-286.18 1604.75,-286.18 1604.75,-286.18 1503.98,-286.18 1503.98,-286.18 1497.98,-286.18 1491.98,-280.18 1491.98,-274.18 1491.98,-274.18 1491.98,-232.18 1491.98,-232.18 1491.98,-226.18 1497.98,-220.18 1503.98,-220.18"/>
<text xml:space="preserve" text-anchor="middle" x="1554.36" y="-270.98" font-family="Times,serif" font-size="14.00">phys idx = 8</text>
<polyline fill="none" stroke="#000000" points="1491.98,-264.18 1616.75,-264.18"/>
<text xml:space="preserve" text-anchor="middle" x="1554.36" y="-248.98" font-family="Times,serif" font-size="14.00">elem = 36.00</text>
<polyline fill="none" stroke="#000000" points="1491.98,-242.18 1616.75,-242.18"/>
<text xml:space="preserve" text-anchor="middle" x="1523.36" y="-226.98" font-family="Times,serif" font-size="14.00">prev = 9</text>
<polyline fill="none" stroke="#000000" points="1554.75,-220.18 1554.75,-242.18"/>
<text xml:space="preserve" text-anchor="middle" x="1585.75" y="-226.98" font-family="Times,serif" font-size="14.00">next = 5</text>
</g>
<!-- 7&#45;&gt;8 -->
<!-- 8&#45;&gt;5 -->
<g id="edge33" class="edge">
<title>8&#45;&gt;5</title>
<path fill="none" stroke="#000000" d="M1482.35,-217.31C1430.32,-196.39 1359.48,-179.4 1304.54,-209.18 1263.03,-231.67 1288.05,-275.68 1246.54,-298.18 1195.05,-326.08 1172.39,-308.67 1114.77,-298.18 1098.65,-295.24 1081.88,-290.24 1066.17,-284.62"/>
<polygon fill="#000000" stroke="#000000" points="1481.13,-220.02 1490.12,-220.53 1483.41,-214.53 1481.13,-220.02"/>
<polygon fill="#000000" stroke="#000000" points="1067.49,-281.93 1058.48,-281.77 1065.42,-287.51 1067.49,-281.93"/>
</g>
<!-- 8&#45;&gt;9 -->
<!-- 9&#45;&gt;8 -->
<g id="edge34" class="edge">
<title>9&#45;&gt;8</title>
<path fill="none" stroke="#000000" d="M1664.55,-261.26C1652.11,-261.48 1639.18,-261.48 1626.75,-261.26"/>
<polygon fill="#000000" stroke="#000000" points="1664.45,-264.24 1672.88,-261.08 1664.32,-258.29 1664.45,-264.24"/>
<polygon fill="#000000" stroke="#000000" points="1627.14,-258.29 1618.58,-261.08 1627.01,-264.24 1627.14,-258.29"/>
</g>
<!-- 9&#45;&gt;10 -->
<!-- 10&#45;&gt;0 -->
<g id="edge35" class="edge">
<title>10&#45;&gt;0</title>
<path fill="none" stroke="#000000" d="M1862.46,-214.71C1843.26,-203.38 1821.17,-192.16 1799.52,-185.18 1644.02,-135.02 1597.13,-154.85 1433.98,-146.18 881.07,-116.76 732.06,-97.42 189.77,-209.18 173.81,-212.46 157.13,-217.37 141.38,-222.74"/>
<polygon fill="#000000" stroke="#000000" points="1860.67,-217.1 1869.48,-218.95 1863.75,-212.01 1860.67,-217.1"/>
<polygon fill="#000000" stroke="#000000" points="140.7,-219.82 133.66,-225.44 142.67,-225.44 140.7,-219.82"/>
</g>
<!-- 10&#45;&gt;11 -->
<!-- 12 -->
<g id="node13" class="node">
<title>12</title>
<path fill="#82898f" stroke="#000000" d="M2246.72,-220.18C2246.72,-220.18 2359.15,-220.18 2359.15,-220.18 2365.15,-220.18 2371.15,-226.18 2371.15,-232.18 2371.15,-232.18 2371.15,-274.18 2371.15,-274.18 2371.15,-280.18 2365.15,-286.18 2359.15,-286.18 2359.15,-286.18 2246.72,-286.18 2246.72,-286.18 2240.72,-286.18 2234.72,-280.18 2234.72,-274.18 2234.72,-274.18 2234.72,-232.18 2234.72,-232.18 2234.72,-226.18 2240.72,-220.18 2246.72,-220.18"/>
<text xml:space="preserve" text-anchor="middle" x="2302.94" y="-270.98" font-family="Times,serif" font-size="14.00">phys idx = 12</text>
<polyline fill="none" stroke="#000000" points="2234.72,-264.18 2371.15,-264.18"/>
<text xml:space="preserve" text-anchor="middle" x="2302.94" y="-248.98" font-family="Times,serif" font-size="14.00">elem = &#45;6666.00</text>
<polyline fill="none" stroke="#000000" points="2234.72,-242.18 2371.15,-242.18"/>
<text xml:space="preserve" text-anchor="middle" x="2268.44" y="-226.98" font-family="Times,serif" font-size="14.00">prev = &#45;1</text>
<polyline fill="none" stroke="#000000" points="2302.15,-220.18 2302.15,-242.18"/>
<text xml:space="preserve" text-anchor="middle" x="2336.65" y="-226.98" font-family="Times,serif" font-size="14.00">next = 13</text>
</g>
<!-- 11&#45;&gt;12 -->
<!-- 11&#45;&gt;12 -->
<g id="edge36" class="edge">
<title>11&#45;&gt;12</title>
<path fill="none" stroke="#ff8c00" d="M2177.08,-261.09C2192.5,-261.46 2209.01,-261.52 2224.8,-261.28"/>
<polygon fill="#ff8c00" stroke="#ff8c00" points="2224.57,-264.26 2233.01,-261.12 2224.45,-258.31 2224.57,-264.26"/>
</g>
<!-- 13 -->
<g id="node14" class="node">
<title>13</title>
<path fill="#82898f" stroke="#000000" d="M2441.15,-220.18C2441.15,-220.18 2553.58,-220.18 2553.58,-220.18 2559.58,-220.18 2565.58,-226.18 2565.58,-232.18 2565.58,-232.18 2565.58,-274.18 2565.58,-274.18 2565.58,-280.18 2559.58,-286.18 2553.58,-286.18 2553.58,-286.18 2441.15,-286.18 2441.15,-286.18 2435.15,-286.18 2429.15,-280.18 2429.15,-274.18 2429.15,-274.18 2429.15,-232.18 2429.15,-232.18 2429.15,-226.18 2435.15,-220.18 2441.15,-220.18"/>
<text xml:space="preserve" text-anchor="middle" x="2497.37" y="-270.98" font-family="Times,serif" font-size="14.00">phys idx = 13</text>
<polyline fill="none" stroke="#000000" points="2429.15,-264.18 2565.58,-264.18"/>
<text xml:space="preserve" text-anchor="middle" x="2497.37" y="-248.98" font-family="Times,serif" font-size="14.00">elem = &#45;6666.00</text>
<polyline fill="none" stroke="#000000" points="2429.15,-242.18 2565.58,-242.18"/>
<text xml:space="preserve" text-anchor="middle" x="2462.87" y="-226.98" font-family="Times,serif" font-size="14.00">prev = &#45;1</text>
<polyline fill="none" stroke="#000000" points="2496.59,-220.18 2496.59,-242.18"/>
<text xml:space="preserve" text-anchor="middle" x="2531.09" y="-226.98" font-family="Times,serif" font-size="14.00">next = 14</text>
</g>
<!-- 12&#45;&gt;13 -->
<!-- 12&#45;&gt;13 -->
<g id="edge37" class="edge">
<title>12&#45;&gt;13</title>
<path fill="none" stroke="#ff8c00" d="M2371.51,-261.09C2386.94,-261.46 2403.44,-261.52 2419.23,-261.28"/>
<polygon fill="#ff8c00" stroke="#ff8c00" points="2419,-264.26 2427.44,-261.12 2418.89,-258.31 2419,-264.26"/>
</g>
<!-- 14 -->
<g id="node15" class="node">
<title>14</title>
<path fill="#82898f" stroke="#000000" d="M2635.58,-220.18C2635.58,-220.18 2748.02,-220.18 2748.02,-220.18 2754.02,-220.18 2760.02,-226.18 2760.02,-232.18 2760.02,-232.18 2760.02,-274.18 2760.02,-274.18 2760.02,-280.18 2754.02,-286.18 2748.02,-286.18 2748.02,-286.18 2635.58,-286.18 2635.58,-286.18 2629.58,-286.18 2623.58,-280.18 2623.58,-274.18 2623.58,-274.18 2623.58,-232.18 2623.58,-232.18 2623.58,-226.18 2629.58,-220.18 2635.58,-220.18"/>
<text xml:space="preserve" text-anchor="middle" x="2691.8" y="-270.98" font-family="Times,serif" font-size="14.00">phys idx = 14</text>
<polyline fill="none" stroke="#000000" points="2623.58,-264.18 2760.02,-264.18"/>
<text xml:space="preserve" text-anchor="middle" x="2691.8" y="-248.98" font-family="Times,serif" font-size="14.00">elem = &#45;6666.00</text>
<polyline fill="none" stroke="#000000" points="2623.58,-242.18 2760.02,-242.18"/>
<text xml:space="preserve" text-anchor="middle" x="2657.3" y="-226.98" font-family="Times,serif" font-size="14.00">prev = &#45;1</text>
<polyline fill="none" stroke="#000000" points="2691.02,-220.18 2691.02,-242.18"/>
<text xml:space="preserve" text-anchor="middle" x="2725.52" y="-226.98" font-family="Times,serif" font-size="14.00">next = 15</text>
</g>
<!-- 13&#45;&gt;14 -->
<!-- 13&#45;&gt;14 -->
<g id="edge38" class="edge">
<title>13&#45;&gt;14</title>
<path fill="none" stroke="#ff8c00" d="M2565.94,-261.09C2581.37,-261.46 2597.87,-261.52 2613.67,-261.28"/>
<polygon fill="#ff8c00" stroke="#ff8c00" points="2613.44,-264.26 2621.88,-261.12 2613.32,-258.31 2613.44,-264.26"/>
</g>
<!-- 15 -->
<g id="node16" class="node">
<title>15</title>
<path fill="#82898f" stroke="#000000" d="M2830.02,-220.18C2830.02,-220.18 2942.45,-220.18 2942.45,-220.18 2948.45,-220.18 2954.45,-226.18 2954.45,-232.18 2954.45,-232.18 2954.45,-274.18 2954.45,-274.18 2954.45,-280.18 2948.45,-286.18 2942.45,-286.18 2942.45,-286.18 2830.02,-286.18 2830.02,-286.18 2824.02,-286.18 2818.02,-280.18 2818.02,-274.18 2818.02,-274.18 2818.02,-232.18 2818.02,-232.18 2818.02,-226.18 2824.02,-220.18 2830.02,-220.18"/>
<text xml:space="preserve" text-anchor="middle" x="2886.23" y="-270.98" font-family="Times,serif" font-size="14.00">phys idx = 15</text>
<polyline fill="none" stroke="#000000" points="2818.02,-264.18 2954.45,-264.18"/>
<text xml:space="preserve" text-anchor="middle" x="2886.23" y="-248.98" font-family="Times,serif" font-size="14.00">elem = &#45;6666.00</text>
<polyline fill="none" stroke="#000000" points="2818.02,-242.18 2954.45,-242.18"/>
<text xml:space="preserve" text-anchor="middle" x="2851.73" y="-226.98" font-family="Times,serif" font-size="14.00">prev = &#45;1</text>
<polyline fill="none" stroke="#000000" points="2885.45,-220.18 2885.45,-242.18"/>
<text xml:space="preserve" text-anchor="middle" x="2919.95" y="-226.98" font-family="Times,serif" font-size="14.00">next = 16</text>
</g>
<!-- 14&#45;&gt;15 -->
<!-- 14&#45;&gt;15 -->
<g id="edge39" class="edge">
<title>14&#45;&gt;15</title>
<path fill="none" stroke="#ff8c00" d="M2760.38,-261.09C2775.8,-261.46 2792.31,-261.52 2808.1,-261.28"/>
<polygon fill="#ff8c00" stroke="#ff8c00" points="2807.87,-264.26 2816.31,-261.12 2807.75,-258.31 2807.87,-264.26"/>
</g>
<!-- 16 -->
<g id="node17" class="node">
<title>16</title>
<path fill="#82898f" stroke="#000000" d="M3024.45,-220.18C3024.45,-220.18 3136.88,-220.18 3136.88,-220.18 3142.88,-220.18 3148.88,-226.18 3148.88,-232.18 3148.88,-232.18 3148.88,-274.18 3148.88,-274.18 3148.88,-280.18 3142.88,-286.18 3136.88,-286.18 3136.88,-286.18 3024.45,-286.18 3024.45,-286.18 3018.45,-286.18 3012.45,-280.18 3012.45,-274.18 3012.45,-274.18 3012.45,-232.18 3012.45,-232.18 3012.45,-226.18 3018.45,-220.18 3024.45,-220.18"/>
<text xml:space="preserve" text-anchor="middle" x="3080.67" y="-270.98" font-family="Times,serif" font-size="14.00">phys idx = 16</text>
<polyline fill="none" stroke="#000000" points="3012.45,-264.18 3148.88,-264.18"/>
<text xml:space="preserve" text-anchor="middle" x="3080.67" y="-248.98" font-family="Times,serif" font-size="14.00">elem = &#45;6666.00</text>
<polyline fill="none" stroke="#000000" points="3012.45,-242.18 3148.88,-242.18"/>
<text xml:space="preserve" text-anchor="middle" x="3046.17" y="-226.98" font-family="Times,serif" font-size="14.00">prev = &#45;1</text>
<polyline fill="none" stroke="#000000" points="3079.88,-220.18 3079.88,-242.18"/>
<text xml:space="preserve" text-anchor="middle" x="3114.38" y="-226.98" font-family="Times,serif" font-size="14.00">next = 17</text>
</g>
<!-- 15&#45;&gt;16 -->
<!-- 15&#45;&gt;16 -->
<g id="edge40" class="edge">
<title>15&#45;&gt;16</title>
<path fill="none" stroke="#ff8c00" d="M2954.81,-261.09C2970.23,-261.46 2986.74,-261.52 3002.53,-261.28"/>
<polygon fill="#ff8c00" stroke="#ff8c00" points="3002.3,-264.26 3010.74,-261.12 3002.18,-258.31 3002.3,-264.26"/>
</g>
<!-- 17 -->
<g id="node18" class="node">
<title>17</title>
<path fill="#82898f" stroke="#000000" d="M3218.88,-220.18C3218.88,-220.18 3331.32,-220.18 3331.32,-220.18 3337.32,-220.18 3343.32,-226.18 3343.32,-232.18 3343.32,-232.18 3343.32,-274.18 3343.32,-274.18 3343.32,-280.18 3337.32,-286.18 3331.32,-286.18 3331.32,-286.18 3218.88,-286.18 3218.88,-286.18 3212.88,-286.18 3206.88,-280.18 3206.88,-274.18 3206.88,-274.18 3206.88,-232.18 3206.88,-232.18 3206.88,-226.18 3212.88,-220.18 3218.88,-220.18"/>
<text xml:space="preserve" text-anchor="middle" x="3275.1" y="-270.98" font-family="Times,serif" font-size="14.00">phys idx = 17</text>
<polyline fill="none" stroke="#000000" points="3206.88,-264.18 3343.32,-264.18"/>
<text xml:space="preserve" text-anchor="middle" x="3275.1" y="-248.98" font-family="Times,serif" font-size="14.00">elem = &#45;6666.00</text>
<polyline fill="none" stroke="#000000" points="3206.88,-242.18 3343.32,-242.18"/>
<text xml:space="preserve" text-anchor="middle" x="3240.6" y="-226.98" font-family="Times,serif" font-size="14.00">prev = &#45;1</text>
<polyline fill="none" stroke="#000000" points="3274.32,-220.18 3274.32,-242.18"/>
<text xml:space="preserve" text-anchor="middle" x="3308.82" y="-226.98" font-family="Times,serif" font-size="14.00">next = 18</text>
</g>
<!-- 16&#45;&gt;17 -->
<!-- 16&#45;&gt;17 -->
<g id="edge41" class="edge">
<title>16&#45;&gt;17</title>
<path fill="none" stroke="#ff8c00" d="M3149.24,-261.09C3164.67,-261.46 3181.17,-261.52 3196.96,-261.28"/>
<polygon fill="#ff8c00" stroke="#ff8c00" points="3196.73,-264.26 3205.17,-261.12 3196.62,-258.31 3196.73,-264.26"/>
</g>
<!-- 18 -->
<g id="node19" class="node">
<title>18</title>
<path fill="#82898f" stroke="#000000" d="M3413.32,-220.18C3413.32,-220.18 3525.75,-220.18 3525.75,-220.18 3531.75,-220.18 3537.75,-226.18 3537.75,-232.18 3537.75,-232.18 3537.75,-274.18 3537.75,-274.18 3537.75,-280.18 3531.75,-286.18 3525.75,-286.18 3525.75,-286.18 3413.32,-286.18 3413.32,-286.18 3407.32,-286.18 3401.32,-280.18 3401.32,-274.18 3401.32,-274.18 3401.32,-232.18 3401.32,-232.18 3401.32,-226.18 3407.32,-220.18 3413.32,-220.18"/>
<text xml:space="preserve" text-anchor="middle" x="3469.53" y="-270.98" font-family="Times,serif" font-size="14.00">phys idx = 18</text>
<polyline fill="none" stroke="#000000" points="3401.32,-264.18 3537.75,-264.18"/>
<text xml:space="preserve" text-anchor="middle" x="3469.53" y="-248.98" font-family="Times,serif" font-size="14.00">elem = &#45;6666.00</text>
<polyline fill="none" stroke="#000000" points="3401.32,-242.18 3537.75,-242.18"/>
<text xml:space="preserve" text-anchor="middle" x="3435.03" y="-226.98" font-family="Times,serif" font-size="14.00">prev = &#45;1</text>
<polyline fill="none" stroke="#000000" points="3468.75,-220.18 3468.75,-242.18"/>
<text xml:space="preserve" text-anchor="middle" x="3503.25" y="-226.98" font-family="Times,serif" font-size="14.00">next = 19</text>
</g>
<!-- 17&#45;&gt;18 -->
<!-- 17&#45;&gt;18 -->
<g id="edge42" class="edge">
<title>17&#45;&gt;18</title>
<path fill="none" stroke="#ff8c00" d="M3343.67,-261.09C3359.1,-261.46 3375.6,-261.52 3391.4,-261.28"/>
<polygon fill="#ff8c00" stroke="#ff8c00" points="3391.17,-264.26 3399.61,-261.12 3391.05,-258.31 3391.17,-264.26"/>
</g>
<!-- 19 -->
<g id="node20" class="node">
<title>19</title>
<path fill="#82898f" stroke="#000000" d="M3607.75,-220.18C3607.75,-220.18 3713.18,-220.18 3713.18,-220.18 3719.18,-220.18 3725.18,-226.18 3725.18,-232.18 3725.18,-232.18 3725.18,-274.18 3725.18,-274.18 3725.18,-280.18 3719.18,-286.18 3713.18,-286.18 3713.18,-286.18 3607.75,-286.18 3607.75,-286.18 3601.75,-286.18 3595.75,-280.18 3595.75,-274.18 3595.75,-274.18 3595.75,-232.18 3595.75,-232.18 3595.75,-226.18 3601.75,-220.18 3607.75,-220.18"/>
<text xml:space="preserve" text-anchor="middle" x="3660.46" y="-270.98" font-family="Times,serif" font-size="14.00">phys idx = 19</text>
<polyline fill="none" stroke="#000000" points="3595.75,-264.18 3725.18,-264.18"/>
<text xml:space="preserve" text-anchor="middle" x="3660.46" y="-248.98" font-family="Times,serif" font-size="14.00">elem = &#45;6666.00</text>
<polyline fill="none" stroke="#000000" points="3595.75,-242.18 3725.18,-242.18"/>
<text xml:space="preserve" text-anchor="middle" x="3629.46" y="-226.98" font-family="Times,serif" font-size="14.00">prev = &#45;1</text>
<polyline fill="none" stroke="#000000" points="3663.18,-220.18 3663.18,-242.18"/>
<text xml:space="preserve" text-anchor="middle" x="3694.18" y="-226.98" font-family="Times,serif" font-size="14.00">next = 0</text>
</g>
<!-- 18&#45;&gt;19 -->
<!-- 18&#45;&gt;19 -->
<g id="edge43" class="edge">
<title>18&#45;&gt;19</title>
<path fill="none" stroke="#ff8c00" d="M3538.21,-261.12C3553.64,-261.48 3570.11,-261.52 3585.78,-261.25"/>
<polygon fill="#ff8c00" stroke="#ff8c00" points="3585.47,-264.23 3593.9,-261.07 3585.34,-258.28 3585.47,-264.23"/>
</g>
<!-- 19&#45;&gt;0 -->
<g id="edge44" class="edge">
<title>19&#45;&gt;0</title>
<path fill="none" stroke="#ff8c00" d="M3595.32,-226.48C3577.01,-219.83 3556.84,-213.39 3537.75,-209.18 2511.28,17.63 2232.88,-1.18 1181.66,-1.18 993.39,-1.18 993.39,-1.18 993.39,-1.18 627.57,-1.18 529.49,-43.48 189.77,-179.18 166.6,-188.43 142.74,-201.78 122.28,-214.59"/>
<polygon fill="#ff8c00" stroke="#ff8c00" points="120.88,-211.96 115.31,-219.04 124.08,-216.98 120.88,-211.96"/>
</g>
<!-- head_label -->
<g id="node21" class="node">
<title>head_label</title>
<path fill="#20b2aa" stroke="#000000" d="M50.89,-434.18C50.89,-434.18 80.89,-434.18 80.89,-434.18 86.89,-434.18 92.89,-440.18 92.89,-446.18 92.89,-446.18 92.89,-458.18 92.89,-458.18 92.89,-464.18 86.89,-470.18 80.89,-470.18 80.89,-470.18 50.89,-470.18 50.89,-470.18 44.89,-470.18 38.89,-464.18 38.89,-458.18 38.89,-458.18 38.89,-446.18 38.89,-446.18 38.89,-440.18 44.89,-434.18 50.89,-434.18"/>
<text xml:space="preserve" text-anchor="middle" x="65.89" y="-448.58" font-family="Times,serif" font-size="12.00" fill="#000000">HEAD</text>
</g>
<!-- head_label&#45;&gt;1 -->
<g id="edge3" class="edge">
<title>head_label&#45;&gt;1</title>
<path fill="none" stroke="#20b2aa" d="M83.89,-433.81C113.2,-402.16 173.9,-336.61 213.55,-293.79"/>
<polygon fill="#20b2aa" stroke="#20b2aa" points="215.59,-295.96 219.18,-287.71 211.22,-291.92 215.59,-295.96"/>
</g>
<!-- tail_label -->
<g id="node22" class="node">
<title>tail_label</title>
<path fill="#20b2aa" stroke="#000000" d="M237.16,-434.18C237.16,-434.18 267.16,-434.18 267.16,-434.18 273.16,-434.18 279.16,-440.18 279.16,-446.18 279.16,-446.18 279.16,-458.18 279.16,-458.18 279.16,-464.18 273.16,-470.18 267.16,-470.18 267.16,-470.18 237.16,-470.18 237.16,-470.18 231.16,-470.18 225.16,-464.18 225.16,-458.18 225.16,-458.18 225.16,-446.18 225.16,-446.18 225.16,-440.18 231.16,-434.18 237.16,-434.18"/>
<text xml:space="preserve" text-anchor="middle" x="252.16" y="-448.58" font-family="Times,serif" font-size="12.00" fill="#000000">TAIL</text>
</g>
<!-- head_label&#45;&gt;tail_label -->
<!-- tail_label&#45;&gt;10 -->
<g id="edge4" class="edge">
<title>tail_label&#45;&gt;10</title>
<path fill="none" stroke="#20b2aa" d="M279.46,-460.02C303.49,-466.88 340.1,-476.61 372.54,-482.18 479.96,-500.62 507.7,-505.18 616.7,-505.18 616.7,-505.18 616.7,-505.18 1555.36,-505.18 1701.7,-505.18 1831.61,-365.55 1888.47,-294.16"/>
<polygon fill="#20b2aa" stroke="#20b2aa" points="1890.53,-296.35 1893.45,-287.83 1885.86,-292.67 1890.53,-296.35"/>
</g>
<!-- free_label -->
<g id="node23" class="node">
<title>free_label</title>
<path fill="#20b2aa" stroke="#000000" d="M419.93,-434.18C419.93,-434.18 449.93,-434.18 449.93,-434.18 455.93,-434.18 461.93,-440.18 461.93,-446.18 461.93,-446.18 461.93,-458.18 461.93,-458.18 461.93,-464.18 455.93,-470.18 449.93,-470.18 449.93,-470.18 419.93,-470.18 419.93,-470.18 413.93,-470.18 407.93,-464.18 407.93,-458.18 407.93,-458.18 407.93,-446.18 407.93,-446.18 407.93,-440.18 413.93,-434.18 419.93,-434.18"/>
<text xml:space="preserve" text-anchor="middle" x="434.93" y="-448.58" font-family="Times,serif" font-size="12.00" fill="#000000">FREE</text>
</g>
<!-- tail_label&#45;&gt;free_label -->
<!-- free_label&#45;&gt;7 -->
<g id="edge5" class="edge">
<title>free_label&#45;&gt;7</title>
<path fill="none" stroke="#20b2aa" d="M462.33,-453.02C522.9,-454.88 676.53,-459.18 805.04,-459.18 805.04,-459.18 805.04,-459.18 995.39,-459.18 1115.05,-459.18 1144.5,-424.66 1246.54,-362.18 1277.56,-343.18 1308.05,-315.86 1330.75,-293.33"/>
<polygon fill="#20b2aa" stroke="#20b2aa" points="1332.58,-295.7 1336.47,-287.58 1328.37,-291.51 1332.58,-295.7"/>
</g>
</g>
</svg>
