<?xml version="1.0" encoding="UTF-8" standalone="no"?>
<!DOCTYPE svg PUBLIC "-//W3C//DTD SVG 1.1//EN"
 "http://www.w3.org/Graphics/SVG/1.1/DTD/svg11.dtd">
<!-- Generated by graphviz version 14.0.2 (20251019.1705)
 -->
<!-- Title: G Pages: 1 -->
<svg width="1696pt" height="117pt"
 viewBox="0.00 0.00 1696.00 117.00" xmlns="http://www.w3.org/2000/svg" xmlns:xlink="http://www.w3.org/1999/xlink">
<g id="graph0" class="graph" transform="scale(1 1) rotate(0) translate(4 113)">
<title>G</title>
<polygon fill="#1e2a36" stroke="none" points="-4,4 -4,-113 1692.35,-113 1692.35,4 -4,4"/>
<!-- info -->
<g id="node1" class="node">
<title>info</title>
<polygon fill="#4a5257" stroke="#fff4cc" stroke-width="2" points="0,-24.5 0,-90.5 64.32,-90.5 64.32,-24.5 0,-24.5"/>
<text xml:space="preserve" text-anchor="middle" x="32.16" y="-75.3" font-family="Times,serif" font-size="14.00">head = 1</text>
<polyline fill="none" stroke="#fff4cc" stroke-width="2" points="0,-68.5 64.32,-68.5"/>
<text xml:space="preserve" text-anchor="middle" x="32.16" y="-53.3" font-family="Times,serif" font-size="14.00">tail = 5</text>
<polyline fill="none" stroke="#fff4cc" stroke-width="2" points="0,-46.5 64.32,-46.5"/>
<text xml:space="preserve" text-anchor="middle" x="32.16" y="-31.3" font-family="Times,serif" font-size="14.00">free = 6</text>
</g>
<!-- 1 -->
<g id="node2" class="node">
<title>1</title>
<polygon fill="#82898f" stroke="#ffffff" stroke-width="2" points="100.32,-24.5 100.32,-90.5 225.09,-90.5 225.09,-24.5 100.32,-24.5"/>
<text xml:space="preserve" text-anchor="middle" x="162.71" y="-75.3" font-family="Times,serif" font-size="14.00">phys idx = 1</text>
<polyline fill="none" stroke="#ffffff" stroke-width="2" points="100.32,-68.5 225.09,-68.5"/>
<text xml:space="preserve" text-anchor="middle" x="162.71" y="-53.3" font-family="Times,serif" font-size="14.00">elem = 10.00</text>
<polyline fill="none" stroke="#ffffff" stroke-width="2" points="100.32,-46.5 225.09,-46.5"/>
<text xml:space="preserve" text-anchor="middle" x="131.71" y="-31.3" font-family="Times,serif" font-size="14.00">prev = 0</text>
<polyline fill="none" stroke="#ffffff" stroke-width="2" points="163.09,-24.5 163.09,-46.5"/>
<text xml:space="preserve" text-anchor="middle" x="194.09" y="-31.3" font-family="Times,serif" font-size="14.00">next = 2</text>
</g>
<!-- info&#45;&gt;1 -->
<!-- 2 -->
<g id="node3" class="node">
<title>2</title>
<polygon fill="#82898f" stroke="#ffffff" stroke-width="2" points="261.09,-24.5 261.09,-90.5 385.86,-90.5 385.86,-24.5 261.09,-24.5"/>
<text xml:space="preserve" text-anchor="middle" x="323.48" y="-75.3" font-family="Times,serif" font-size="14.00">phys idx = 2</text>
<polyline fill="none" stroke="#ffffff" stroke-width="2" points="261.09,-68.5 385.86,-68.5"/>
<text xml:space="preserve" text-anchor="middle" x="323.48" y="-53.3" font-family="Times,serif" font-size="14.00">elem = 20.00</text>
<polyline fill="none" stroke="#ffffff" stroke-width="2" points="261.09,-46.5 385.86,-46.5"/>
<text xml:space="preserve" text-anchor="middle" x="292.48" y="-31.3" font-family="Times,serif" font-size="14.00">prev = 1</text>
<polyline fill="none" stroke="#ffffff" stroke-width="2" points="323.87,-24.5 323.87,-46.5"/>
<text xml:space="preserve" text-anchor="middle" x="354.86" y="-31.3" font-family="Times,serif" font-size="14.00">next = 3</text>
</g>
<!-- 1&#45;&gt;2 -->
<!-- 1&#45;&gt;2 -->
<g id="edge11" class="edge">
<title>1&#45;&gt;2</title>
<path fill="none" stroke="#d4a798" d="M225.79,-68.67C225.79,-68.67 250.3,-68.67 250.3,-68.67"/>
<polygon fill="#d4a798" stroke="#d4a798" points="250.3,-71.64 258.8,-68.67 250.3,-65.69 250.3,-71.64"/>
</g>
<!-- 3 -->
<g id="node4" class="node">
<title>3</title>
<polygon fill="#82898f" stroke="#ffffff" stroke-width="2" points="421.86,-24.5 421.86,-90.5 546.63,-90.5 546.63,-24.5 421.86,-24.5"/>
<text xml:space="preserve" text-anchor="middle" x="484.25" y="-75.3" font-family="Times,serif" font-size="14.00">phys idx = 3</text>
<polyline fill="none" stroke="#ffffff" stroke-width="2" points="421.86,-68.5 546.63,-68.5"/>
<text xml:space="preserve" text-anchor="middle" x="484.25" y="-53.3" font-family="Times,serif" font-size="14.00">elem = 30.00</text>
<polyline fill="none" stroke="#ffffff" stroke-width="2" points="421.86,-46.5 546.63,-46.5"/>
<text xml:space="preserve" text-anchor="middle" x="453.25" y="-31.3" font-family="Times,serif" font-size="14.00">prev = 2</text>
<polyline fill="none" stroke="#ffffff" stroke-width="2" points="484.64,-24.5 484.64,-46.5"/>
<text xml:space="preserve" text-anchor="middle" x="515.64" y="-31.3" font-family="Times,serif" font-size="14.00">next = 9</text>
</g>
<!-- 2&#45;&gt;3 -->
<!-- 2&#45;&gt;3 -->
<g id="edge12" class="edge">
<title>2&#45;&gt;3</title>
<path fill="none" stroke="#d4a798" d="M386.56,-68.67C386.56,-68.67 411.07,-68.67 411.07,-68.67"/>
<polygon fill="#d4a798" stroke="#d4a798" points="411.07,-71.64 419.57,-68.67 411.07,-65.69 411.07,-71.64"/>
</g>
<!-- 4 -->
<g id="node5" class="node">
<title>4</title>
<polygon fill="#82898f" stroke="#ffffff" stroke-width="2" points="582.63,-24.5 582.63,-90.5 707.41,-90.5 707.41,-24.5 582.63,-24.5"/>
<text xml:space="preserve" text-anchor="middle" x="645.02" y="-75.3" font-family="Times,serif" font-size="14.00">phys idx = 4</text>
<polyline fill="none" stroke="#ffffff" stroke-width="2" points="582.63,-68.5 707.41,-68.5"/>
<text xml:space="preserve" text-anchor="middle" x="645.02" y="-53.3" font-family="Times,serif" font-size="14.00">elem = 40.00</text>
<polyline fill="none" stroke="#ffffff" stroke-width="2" points="582.63,-46.5 707.41,-46.5"/>
<text xml:space="preserve" text-anchor="middle" x="614.02" y="-31.3" font-family="Times,serif" font-size="14.00">prev = 8</text>
<polyline fill="none" stroke="#ffffff" stroke-width="2" points="645.41,-24.5 645.41,-46.5"/>
<text xml:space="preserve" text-anchor="middle" x="676.41" y="-31.3" font-family="Times,serif" font-size="14.00">next = 5</text>
</g>
<!-- 3&#45;&gt;4 -->
<!-- 9 -->
<g id="node9" class="node">
<title>9</title>
<polygon fill="#82898f" stroke="#ffffff" stroke-width="2" points="1225.72,-24.5 1225.72,-90.5 1350.49,-90.5 1350.49,-24.5 1225.72,-24.5"/>
<text xml:space="preserve" text-anchor="middle" x="1288.1" y="-75.3" font-family="Times,serif" font-size="14.00">phys idx = 9</text>
<polyline fill="none" stroke="#ffffff" stroke-width="2" points="1225.72,-68.5 1350.49,-68.5"/>
<text xml:space="preserve" text-anchor="middle" x="1288.1" y="-53.3" font-family="Times,serif" font-size="14.00">elem = 32.00</text>
<polyline fill="none" stroke="#ffffff" stroke-width="2" points="1225.72,-46.5 1350.49,-46.5"/>
<text xml:space="preserve" text-anchor="middle" x="1257.1" y="-31.3" font-family="Times,serif" font-size="14.00">prev = 3</text>
<polyline fill="none" stroke="#ffffff" stroke-width="2" points="1288.49,-24.5 1288.49,-46.5"/>
<text xml:space="preserve" text-anchor="middle" x="1319.49" y="-31.3" font-family="Times,serif" font-size="14.00">next = 7</text>
</g>
<!-- 3&#45;&gt;9 -->
<g id="edge13" class="edge">
<title>3&#45;&gt;9</title>
<path fill="none" stroke="#d4a798" d="M484.35,-23.72C484.35,-11.2 484.35,0 484.35,0 484.35,0 1267.35,0 1267.35,0 1267.35,0 1267.35,-13.71 1267.35,-13.71"/>
<polygon fill="#d4a798" stroke="#d4a798" points="1264.38,-13.71 1267.35,-22.21 1270.33,-13.71 1264.38,-13.71"/>
</g>
<!-- 5 -->
<g id="node6" class="node">
<title>5</title>
<polygon fill="#82898f" stroke="#ffffff" stroke-width="2" points="743.41,-24.5 743.41,-90.5 868.18,-90.5 868.18,-24.5 743.41,-24.5"/>
<text xml:space="preserve" text-anchor="middle" x="805.79" y="-75.3" font-family="Times,serif" font-size="14.00">phys idx = 5</text>
<polyline fill="none" stroke="#ffffff" stroke-width="2" points="743.41,-68.5 868.18,-68.5"/>
<text xml:space="preserve" text-anchor="middle" x="805.79" y="-53.3" font-family="Times,serif" font-size="14.00">elem = 50.00</text>
<polyline fill="none" stroke="#ffffff" stroke-width="2" points="743.41,-46.5 868.18,-46.5"/>
<text xml:space="preserve" text-anchor="middle" x="774.79" y="-31.3" font-family="Times,serif" font-size="14.00">prev = 4</text>
<polyline fill="none" stroke="#ffffff" stroke-width="2" points="806.18,-24.5 806.18,-46.5"/>
<text xml:space="preserve" text-anchor="middle" x="837.18" y="-31.3" font-family="Times,serif" font-size="14.00">next = 0</text>
</g>
<!-- 4&#45;&gt;5 -->
<!-- 4&#45;&gt;5 -->
<g id="edge14" class="edge">
<title>4&#45;&gt;5</title>
<path fill="none" stroke="#d4a798" d="M708.1,-68.67C708.1,-68.67 732.62,-68.67 732.62,-68.67"/>
<polygon fill="#d4a798" stroke="#d4a798" points="732.62,-71.64 741.12,-68.67 732.62,-65.69 732.62,-71.64"/>
</g>
<!-- 7 -->
<g id="node7" class="node">
<title>7</title>
<polygon fill="#82898f" stroke="#ffffff" stroke-width="2" points="904.18,-24.5 904.18,-90.5 1028.95,-90.5 1028.95,-24.5 904.18,-24.5"/>
<text xml:space="preserve" text-anchor="middle" x="966.56" y="-75.3" font-family="Times,serif" font-size="14.00">phys idx = 7</text>
<polyline fill="none" stroke="#ffffff" stroke-width="2" points="904.18,-68.5 1028.95,-68.5"/>
<text xml:space="preserve" text-anchor="middle" x="966.56" y="-53.3" font-family="Times,serif" font-size="14.00">elem = 35.00</text>
<polyline fill="none" stroke="#ffffff" stroke-width="2" points="904.18,-46.5 1028.95,-46.5"/>
<text xml:space="preserve" text-anchor="middle" x="935.56" y="-31.3" font-family="Times,serif" font-size="14.00">prev = 9</text>
<polyline fill="none" stroke="#ffffff" stroke-width="2" points="966.95,-24.5 966.95,-46.5"/>
<text xml:space="preserve" text-anchor="middle" x="997.95" y="-31.3" font-family="Times,serif" font-size="14.00">next = 8</text>
</g>
<!-- 5&#45;&gt;7 -->
<!-- 8 -->
<g id="node8" class="node">
<title>8</title>
<polygon fill="#82898f" stroke="#ffffff" stroke-width="2" points="1064.95,-24.5 1064.95,-90.5 1189.72,-90.5 1189.72,-24.5 1064.95,-24.5"/>
<text xml:space="preserve" text-anchor="middle" x="1127.33" y="-75.3" font-family="Times,serif" font-size="14.00">phys idx = 8</text>
<polyline fill="none" stroke="#ffffff" stroke-width="2" points="1064.95,-68.5 1189.72,-68.5"/>
<text xml:space="preserve" text-anchor="middle" x="1127.33" y="-53.3" font-family="Times,serif" font-size="14.00">elem = 36.00</text>
<polyline fill="none" stroke="#ffffff" stroke-width="2" points="1064.95,-46.5 1189.72,-46.5"/>
<text xml:space="preserve" text-anchor="middle" x="1096.33" y="-31.3" font-family="Times,serif" font-size="14.00">prev = 7</text>
<polyline fill="none" stroke="#ffffff" stroke-width="2" points="1127.72,-24.5 1127.72,-46.5"/>
<text xml:space="preserve" text-anchor="middle" x="1158.72" y="-31.3" font-family="Times,serif" font-size="14.00">next = 4</text>
</g>
<!-- 7&#45;&gt;8 -->
<!-- 7&#45;&gt;8 -->
<g id="edge15" class="edge">
<title>7&#45;&gt;8</title>
<path fill="none" stroke="#d4a798" d="M1029.64,-68.67C1029.64,-68.67 1054.16,-68.67 1054.16,-68.67"/>
<polygon fill="#d4a798" stroke="#d4a798" points="1054.16,-71.64 1062.66,-68.67 1054.16,-65.69 1054.16,-71.64"/>
</g>
<!-- 8&#45;&gt;4 -->
<g id="edge16" class="edge">
<title>8&#45;&gt;4</title>
<path fill="none" stroke="#d4a798" d="M1127.35,-91.28C1127.35,-100.98 1127.35,-109 1127.35,-109 1127.35,-109 645.35,-109 645.35,-109 645.35,-109 645.35,-101.29 645.35,-101.29"/>
<polygon fill="#d4a798" stroke="#d4a798" points="648.33,-101.29 645.35,-92.79 642.38,-101.29 648.33,-101.29"/>
</g>
<!-- 8&#45;&gt;9 -->
<!-- 9&#45;&gt;7 -->
<g id="edge17" class="edge">
<title>9&#45;&gt;7</title>
<path fill="none" stroke="#d4a798" d="M1309.35,-23.95C1309.35,-17.13 1309.35,-12 1309.35,-12 1309.35,-12 966.35,-12 966.35,-12 966.35,-12 966.35,-13.94 966.35,-13.94"/>
<polygon fill="#d4a798" stroke="#d4a798" points="963.38,-13.94 966.35,-22.44 969.33,-13.94 963.38,-13.94"/>
</g>
<!-- 6 -->
<g id="node10" class="node">
<title>6</title>
<polygon fill="#5c646b" stroke="#ffe766" stroke-width="2" points="1386.49,-24.5 1386.49,-90.5 1522.92,-90.5 1522.92,-24.5 1386.49,-24.5"/>
<text xml:space="preserve" text-anchor="middle" x="1454.7" y="-75.3" font-family="Times,serif" font-size="14.00">phys idx = 6</text>
<polyline fill="none" stroke="#ffe766" stroke-width="2" points="1386.49,-68.5 1522.92,-68.5"/>
<text xml:space="preserve" text-anchor="middle" x="1454.7" y="-53.3" font-family="Times,serif" font-size="14.00">elem = PZN</text>
<polyline fill="none" stroke="#ffe766" stroke-width="2" points="1386.49,-46.5 1522.92,-46.5"/>
<text xml:space="preserve" text-anchor="middle" x="1420.2" y="-31.3" font-family="Times,serif" font-size="14.00">prev = &#45;1</text>
<polyline fill="none" stroke="#ffe766" stroke-width="2" points="1453.92,-24.5 1453.92,-46.5"/>
<text xml:space="preserve" text-anchor="middle" x="1488.42" y="-31.3" font-family="Times,serif" font-size="14.00">next = 10</text>
</g>
<!-- 9&#45;&gt;6 -->
<!-- 10 -->
<g id="node11" class="node">
<title>10</title>
<polygon fill="#5c646b" stroke="#ffe766" stroke-width="2" points="1558.92,-24.5 1558.92,-90.5 1688.35,-90.5 1688.35,-24.5 1558.92,-24.5"/>
<text xml:space="preserve" text-anchor="middle" x="1623.64" y="-75.3" font-family="Times,serif" font-size="14.00">phys idx = 10</text>
<polyline fill="none" stroke="#ffe766" stroke-width="2" points="1558.92,-68.5 1688.35,-68.5"/>
<text xml:space="preserve" text-anchor="middle" x="1623.64" y="-53.3" font-family="Times,serif" font-size="14.00">elem = PZN</text>
<polyline fill="none" stroke="#ffe766" stroke-width="2" points="1558.92,-46.5 1688.35,-46.5"/>
<text xml:space="preserve" text-anchor="middle" x="1592.64" y="-31.3" font-family="Times,serif" font-size="14.00">prev = &#45;1</text>
<polyline fill="none" stroke="#ffe766" stroke-width="2" points="1626.35,-24.5 1626.35,-46.5"/>
<text xml:space="preserve" text-anchor="middle" x="1657.35" y="-31.3" font-family="Times,serif" font-size="14.00">next = 0</text>
</g>
<!-- 6&#45;&gt;10 -->
</g>
</svg>
