<?xml version="1.0" encoding="UTF-8" standalone="no"?>
<!DOCTYPE svg PUBLIC "-//W3C//DTD SVG 1.1//EN"
 "http://www.w3.org/Graphics/SVG/1.1/DTD/svg11.dtd">
<!-- Generated by graphviz version 14.0.2 (20251019.1705)
 -->
<!-- Title: G Pages: 1 -->
<svg width="2114pt" height="223pt"
 viewBox="0.00 0.00 2114.00 223.00" xmlns="http://www.w3.org/2000/svg" xmlns:xlink="http://www.w3.org/1999/xlink">
<g id="graph0" class="graph" transform="scale(1 1) rotate(0) translate(4 218.86)">
<title>G</title>
<polygon fill="#fffafa" stroke="none" points="-4,4 -4,-218.86 2109.71,-218.86 2109.71,4 -4,4"/>
<!-- 0 -->
<g id="node1" class="node">
<title>0</title>
<path fill="#cd5c5c" stroke="#000000" d="M348,-81C348,-81 448.77,-81 448.77,-81 454.77,-81 460.77,-87 460.77,-93 460.77,-93 460.77,-135 460.77,-135 460.77,-141 454.77,-147 448.77,-147 448.77,-147 348,-147 348,-147 342,-147 336,-141 336,-135 336,-135 336,-93 336,-93 336,-87 342,-81 348,-81"/>
<text xml:space="preserve" text-anchor="middle" x="398.39" y="-131.8" font-family="Times,serif" font-size="14.00">phys idx = 0</text>
<polyline fill="none" stroke="#000000" points="336,-125 460.77,-125"/>
<text xml:space="preserve" text-anchor="middle" x="398.39" y="-109.8" font-family="Times,serif" font-size="14.00">elem = &#45;6666.00</text>
<polyline fill="none" stroke="#000000" points="336,-103 460.77,-103"/>
<text xml:space="preserve" text-anchor="middle" x="367.39" y="-87.8" font-family="Times,serif" font-size="14.00">prev = 6</text>
<polyline fill="none" stroke="#000000" points="398.77,-81 398.77,-103"/>
<text xml:space="preserve" text-anchor="middle" x="429.77" y="-87.8" font-family="Times,serif" font-size="14.00">next = 1</text>
</g>
<!-- 1 -->
<g id="node2" class="node">
<title>1</title>
<path fill="#98fb98" stroke="#000000" d="M530.77,-81C530.77,-81 631.54,-81 631.54,-81 637.54,-81 643.54,-87 643.54,-93 643.54,-93 643.54,-135 643.54,-135 643.54,-141 637.54,-147 631.54,-147 631.54,-147 530.77,-147 530.77,-147 524.77,-147 518.77,-141 518.77,-135 518.77,-135 518.77,-93 518.77,-93 518.77,-87 524.77,-81 530.77,-81"/>
<text xml:space="preserve" text-anchor="middle" x="581.16" y="-131.8" font-family="Times,serif" font-size="14.00">phys idx = 1</text>
<polyline fill="none" stroke="#000000" points="518.77,-125 643.54,-125"/>
<text xml:space="preserve" text-anchor="middle" x="581.16" y="-109.8" font-family="Times,serif" font-size="14.00">elem = 11.00</text>
<polyline fill="none" stroke="#000000" points="518.77,-103 643.54,-103"/>
<text xml:space="preserve" text-anchor="middle" x="550.16" y="-87.8" font-family="Times,serif" font-size="14.00">prev = 0</text>
<polyline fill="none" stroke="#000000" points="581.54,-81 581.54,-103"/>
<text xml:space="preserve" text-anchor="middle" x="612.54" y="-87.8" font-family="Times,serif" font-size="14.00">next = 2</text>
</g>
<!-- 0&#45;&gt;1 -->
<!-- 0&#45;&gt;1 -->
<g id="edge15" class="edge">
<title>0&#45;&gt;1</title>
<path fill="none" stroke="#000000" d="M470.78,-122.09C483.21,-122.3 496.14,-122.3 508.57,-122.09"/>
<polygon fill="#000000" stroke="#000000" points="471.17,-119.12 462.6,-121.9 471.04,-125.07 471.17,-119.12"/>
<polygon fill="#000000" stroke="#000000" points="508.48,-125.07 516.91,-121.9 508.34,-119.12 508.48,-125.07"/>
</g>
<!-- 2 -->
<g id="node3" class="node">
<title>2</title>
<path fill="#98fb98" stroke="#000000" d="M713.54,-81C713.54,-81 814.31,-81 814.31,-81 820.31,-81 826.31,-87 826.31,-93 826.31,-93 826.31,-135 826.31,-135 826.31,-141 820.31,-147 814.31,-147 814.31,-147 713.54,-147 713.54,-147 707.54,-147 701.54,-141 701.54,-135 701.54,-135 701.54,-93 701.54,-93 701.54,-87 707.54,-81 713.54,-81"/>
<text xml:space="preserve" text-anchor="middle" x="763.93" y="-131.8" font-family="Times,serif" font-size="14.00">phys idx = 2</text>
<polyline fill="none" stroke="#000000" points="701.54,-125 826.31,-125"/>
<text xml:space="preserve" text-anchor="middle" x="763.93" y="-109.8" font-family="Times,serif" font-size="14.00">elem = 20.00</text>
<polyline fill="none" stroke="#000000" points="701.54,-103 826.31,-103"/>
<text xml:space="preserve" text-anchor="middle" x="732.93" y="-87.8" font-family="Times,serif" font-size="14.00">prev = 1</text>
<polyline fill="none" stroke="#000000" points="764.31,-81 764.31,-103"/>
<text xml:space="preserve" text-anchor="middle" x="795.31" y="-87.8" font-family="Times,serif" font-size="14.00">next = 3</text>
</g>
<!-- 1&#45;&gt;2 -->
<!-- 1&#45;&gt;2 -->
<g id="edge16" class="edge">
<title>1&#45;&gt;2</title>
<path fill="none" stroke="#000000" d="M653.55,-122.09C665.98,-122.3 678.91,-122.3 691.35,-122.09"/>
<polygon fill="#000000" stroke="#000000" points="653.94,-119.12 645.37,-121.9 653.81,-125.07 653.94,-119.12"/>
<polygon fill="#000000" stroke="#000000" points="691.25,-125.07 699.68,-121.9 691.11,-119.12 691.25,-125.07"/>
</g>
<!-- 3 -->
<g id="node4" class="node">
<title>3</title>
<path fill="#98fb98" stroke="#000000" d="M896.31,-81C896.31,-81 997.08,-81 997.08,-81 1003.08,-81 1009.08,-87 1009.08,-93 1009.08,-93 1009.08,-135 1009.08,-135 1009.08,-141 1003.08,-147 997.08,-147 997.08,-147 896.31,-147 896.31,-147 890.31,-147 884.31,-141 884.31,-135 884.31,-135 884.31,-93 884.31,-93 884.31,-87 890.31,-81 896.31,-81"/>
<text xml:space="preserve" text-anchor="middle" x="946.7" y="-131.8" font-family="Times,serif" font-size="14.00">phys idx = 3</text>
<polyline fill="none" stroke="#000000" points="884.31,-125 1009.08,-125"/>
<text xml:space="preserve" text-anchor="middle" x="946.7" y="-109.8" font-family="Times,serif" font-size="14.00">elem = 30.00</text>
<polyline fill="none" stroke="#000000" points="884.31,-103 1009.08,-103"/>
<text xml:space="preserve" text-anchor="middle" x="915.7" y="-87.8" font-family="Times,serif" font-size="14.00">prev = 2</text>
<polyline fill="none" stroke="#000000" points="947.08,-81 947.08,-103"/>
<text xml:space="preserve" text-anchor="middle" x="978.08" y="-87.8" font-family="Times,serif" font-size="14.00">next = 9</text>
</g>
<!-- 2&#45;&gt;3 -->
<!-- 2&#45;&gt;3 -->
<g id="edge17" class="edge">
<title>2&#45;&gt;3</title>
<path fill="none" stroke="#000000" d="M836.32,-122.09C848.75,-122.3 861.68,-122.3 874.12,-122.09"/>
<polygon fill="#000000" stroke="#000000" points="836.71,-119.12 828.14,-121.9 836.58,-125.07 836.71,-119.12"/>
<polygon fill="#000000" stroke="#000000" points="874.02,-125.07 882.45,-121.9 873.89,-119.12 874.02,-125.07"/>
</g>
<!-- 4 -->
<g id="node5" class="node">
<title>4</title>
<path fill="#98fb98" stroke="#000000" d="M1079.08,-81C1079.08,-81 1179.85,-81 1179.85,-81 1185.85,-81 1191.85,-87 1191.85,-93 1191.85,-93 1191.85,-135 1191.85,-135 1191.85,-141 1185.85,-147 1179.85,-147 1179.85,-147 1079.08,-147 1079.08,-147 1073.08,-147 1067.08,-141 1067.08,-135 1067.08,-135 1067.08,-93 1067.08,-93 1067.08,-87 1073.08,-81 1079.08,-81"/>
<text xml:space="preserve" text-anchor="middle" x="1129.47" y="-131.8" font-family="Times,serif" font-size="14.00">phys idx = 4</text>
<polyline fill="none" stroke="#000000" points="1067.08,-125 1191.85,-125"/>
<text xml:space="preserve" text-anchor="middle" x="1129.47" y="-109.8" font-family="Times,serif" font-size="14.00">elem = 40.00</text>
<polyline fill="none" stroke="#000000" points="1067.08,-103 1191.85,-103"/>
<text xml:space="preserve" text-anchor="middle" x="1098.47" y="-87.8" font-family="Times,serif" font-size="14.00">prev = 8</text>
<polyline fill="none" stroke="#000000" points="1129.85,-81 1129.85,-103"/>
<text xml:space="preserve" text-anchor="middle" x="1160.85" y="-87.8" font-family="Times,serif" font-size="14.00">next = 5</text>
</g>
<!-- 3&#45;&gt;4 -->
<!-- 9 -->
<g id="node10" class="node">
<title>9</title>
<path fill="#98fb98" stroke="#000000" d="M1992.93,-81C1992.93,-81 2093.71,-81 2093.71,-81 2099.71,-81 2105.71,-87 2105.71,-93 2105.71,-93 2105.71,-135 2105.71,-135 2105.71,-141 2099.71,-147 2093.71,-147 2093.71,-147 1992.93,-147 1992.93,-147 1986.93,-147 1980.93,-141 1980.93,-135 1980.93,-135 1980.93,-93 1980.93,-93 1980.93,-87 1986.93,-81 1992.93,-81"/>
<text xml:space="preserve" text-anchor="middle" x="2043.32" y="-131.8" font-family="Times,serif" font-size="14.00">phys idx = 9</text>
<polyline fill="none" stroke="#000000" points="1980.93,-125 2105.71,-125"/>
<text xml:space="preserve" text-anchor="middle" x="2043.32" y="-109.8" font-family="Times,serif" font-size="14.00">elem = 32.00</text>
<polyline fill="none" stroke="#000000" points="1980.93,-103 2105.71,-103"/>
<text xml:space="preserve" text-anchor="middle" x="2012.32" y="-87.8" font-family="Times,serif" font-size="14.00">prev = 3</text>
<polyline fill="none" stroke="#000000" points="2043.71,-81 2043.71,-103"/>
<text xml:space="preserve" text-anchor="middle" x="2074.71" y="-87.8" font-family="Times,serif" font-size="14.00">next = 7</text>
</g>
<!-- 3&#45;&gt;9 -->
<g id="edge18" class="edge">
<title>3&#45;&gt;9</title>
<path fill="none" stroke="#000000" d="M1018.61,-143.57C1034.37,-149.33 1051.13,-154.87 1067.08,-159 1146.57,-179.6 1168.35,-175.97 1249.85,-186 1547,-222.56 1633.12,-234.1 1922.93,-159 1938.89,-154.87 1955.65,-149.33 1971.41,-143.57"/>
<polygon fill="#000000" stroke="#000000" points="1019.89,-140.87 1010.88,-140.68 1017.8,-146.44 1019.89,-140.87"/>
<polygon fill="#000000" stroke="#000000" points="1972.21,-146.44 1979.13,-140.68 1970.13,-140.87 1972.21,-146.44"/>
</g>
<!-- 5 -->
<g id="node6" class="node">
<title>5</title>
<path fill="#98fb98" stroke="#000000" d="M1261.85,-81C1261.85,-81 1362.62,-81 1362.62,-81 1368.62,-81 1374.62,-87 1374.62,-93 1374.62,-93 1374.62,-135 1374.62,-135 1374.62,-141 1368.62,-147 1362.62,-147 1362.62,-147 1261.85,-147 1261.85,-147 1255.85,-147 1249.85,-141 1249.85,-135 1249.85,-135 1249.85,-93 1249.85,-93 1249.85,-87 1255.85,-81 1261.85,-81"/>
<text xml:space="preserve" text-anchor="middle" x="1312.24" y="-131.8" font-family="Times,serif" font-size="14.00">phys idx = 5</text>
<polyline fill="none" stroke="#000000" points="1249.85,-125 1374.62,-125"/>
<text xml:space="preserve" text-anchor="middle" x="1312.24" y="-109.8" font-family="Times,serif" font-size="14.00">elem = 50.00</text>
<polyline fill="none" stroke="#000000" points="1249.85,-103 1374.62,-103"/>
<text xml:space="preserve" text-anchor="middle" x="1281.24" y="-87.8" font-family="Times,serif" font-size="14.00">prev = 4</text>
<polyline fill="none" stroke="#000000" points="1312.62,-81 1312.62,-103"/>
<text xml:space="preserve" text-anchor="middle" x="1343.62" y="-87.8" font-family="Times,serif" font-size="14.00">next = 6</text>
</g>
<!-- 4&#45;&gt;5 -->
<!-- 4&#45;&gt;5 -->
<g id="edge19" class="edge">
<title>4&#45;&gt;5</title>
<path fill="none" stroke="#000000" d="M1201.86,-122.09C1214.29,-122.3 1227.22,-122.3 1239.66,-122.09"/>
<polygon fill="#000000" stroke="#000000" points="1202.25,-119.12 1193.69,-121.9 1202.12,-125.07 1202.25,-119.12"/>
<polygon fill="#000000" stroke="#000000" points="1239.56,-125.07 1247.99,-121.9 1239.43,-119.12 1239.56,-125.07"/>
</g>
<!-- 6 -->
<g id="node7" class="node">
<title>6</title>
<path fill="#98fb98" stroke="#000000" d="M1444.62,-81C1444.62,-81 1545.39,-81 1545.39,-81 1551.39,-81 1557.39,-87 1557.39,-93 1557.39,-93 1557.39,-135 1557.39,-135 1557.39,-141 1551.39,-147 1545.39,-147 1545.39,-147 1444.62,-147 1444.62,-147 1438.62,-147 1432.62,-141 1432.62,-135 1432.62,-135 1432.62,-93 1432.62,-93 1432.62,-87 1438.62,-81 1444.62,-81"/>
<text xml:space="preserve" text-anchor="middle" x="1495.01" y="-131.8" font-family="Times,serif" font-size="14.00">phys idx = 6</text>
<polyline fill="none" stroke="#000000" points="1432.62,-125 1557.39,-125"/>
<text xml:space="preserve" text-anchor="middle" x="1495.01" y="-109.8" font-family="Times,serif" font-size="14.00">elem = 66.00</text>
<polyline fill="none" stroke="#000000" points="1432.62,-103 1557.39,-103"/>
<text xml:space="preserve" text-anchor="middle" x="1464.01" y="-87.8" font-family="Times,serif" font-size="14.00">prev = 5</text>
<polyline fill="none" stroke="#000000" points="1495.39,-81 1495.39,-103"/>
<text xml:space="preserve" text-anchor="middle" x="1526.39" y="-87.8" font-family="Times,serif" font-size="14.00">next = 0</text>
</g>
<!-- 5&#45;&gt;6 -->
<!-- 5&#45;&gt;6 -->
<g id="edge20" class="edge">
<title>5&#45;&gt;6</title>
<path fill="none" stroke="#000000" d="M1384.63,-122.09C1397.06,-122.3 1409.99,-122.3 1422.43,-122.09"/>
<polygon fill="#000000" stroke="#000000" points="1385.02,-119.12 1376.46,-121.9 1384.89,-125.07 1385.02,-119.12"/>
<polygon fill="#000000" stroke="#000000" points="1422.33,-125.07 1430.76,-121.9 1422.2,-119.12 1422.33,-125.07"/>
</g>
<!-- 6&#45;&gt;0 -->
<g id="edge21" class="edge">
<title>6&#45;&gt;0</title>
<path fill="none" stroke="#000000" d="M1423.19,-84.54C1407.43,-78.93 1390.64,-73.68 1374.62,-70 1268.35,-45.62 1239.5,-46 1130.47,-46 762.93,-46 762.93,-46 762.93,-46 653.89,-46 625.05,-45.62 518.77,-70 502.75,-73.68 485.96,-78.93 470.2,-84.54"/>
<polygon fill="#000000" stroke="#000000" points="1421.91,-87.24 1430.92,-87.35 1423.95,-81.65 1421.91,-87.24"/>
<polygon fill="#000000" stroke="#000000" points="469.44,-81.65 462.47,-87.35 471.48,-87.24 469.44,-81.65"/>
</g>
<!-- 7 -->
<g id="node8" class="node">
<title>7</title>
<path fill="#98fb98" stroke="#000000" d="M1627.39,-81C1627.39,-81 1728.16,-81 1728.16,-81 1734.16,-81 1740.16,-87 1740.16,-93 1740.16,-93 1740.16,-135 1740.16,-135 1740.16,-141 1734.16,-147 1728.16,-147 1728.16,-147 1627.39,-147 1627.39,-147 1621.39,-147 1615.39,-141 1615.39,-135 1615.39,-135 1615.39,-93 1615.39,-93 1615.39,-87 1621.39,-81 1627.39,-81"/>
<text xml:space="preserve" text-anchor="middle" x="1677.78" y="-131.8" font-family="Times,serif" font-size="14.00">phys idx = 7</text>
<polyline fill="none" stroke="#000000" points="1615.39,-125 1740.16,-125"/>
<text xml:space="preserve" text-anchor="middle" x="1677.78" y="-109.8" font-family="Times,serif" font-size="14.00">elem = 35.00</text>
<polyline fill="none" stroke="#000000" points="1615.39,-103 1740.16,-103"/>
<text xml:space="preserve" text-anchor="middle" x="1646.78" y="-87.8" font-family="Times,serif" font-size="14.00">prev = 9</text>
<polyline fill="none" stroke="#000000" points="1678.17,-81 1678.17,-103"/>
<text xml:space="preserve" text-anchor="middle" x="1709.16" y="-87.8" font-family="Times,serif" font-size="14.00">next = 8</text>
</g>
<!-- 6&#45;&gt;7 -->
<!-- 8 -->
<g id="node9" class="node">
<title>8</title>
<path fill="#98fb98" stroke="#000000" d="M1810.16,-81C1810.16,-81 1910.93,-81 1910.93,-81 1916.93,-81 1922.93,-87 1922.93,-93 1922.93,-93 1922.93,-135 1922.93,-135 1922.93,-141 1916.93,-147 1910.93,-147 1910.93,-147 1810.16,-147 1810.16,-147 1804.16,-147 1798.16,-141 1798.16,-135 1798.16,-135 1798.16,-93 1798.16,-93 1798.16,-87 1804.16,-81 1810.16,-81"/>
<text xml:space="preserve" text-anchor="middle" x="1860.55" y="-131.8" font-family="Times,serif" font-size="14.00">phys idx = 8</text>
<polyline fill="none" stroke="#000000" points="1798.16,-125 1922.93,-125"/>
<text xml:space="preserve" text-anchor="middle" x="1860.55" y="-109.8" font-family="Times,serif" font-size="14.00">elem = 36.00</text>
<polyline fill="none" stroke="#000000" points="1798.16,-103 1922.93,-103"/>
<text xml:space="preserve" text-anchor="middle" x="1829.55" y="-87.8" font-family="Times,serif" font-size="14.00">prev = 7</text>
<polyline fill="none" stroke="#000000" points="1860.94,-81 1860.94,-103"/>
<text xml:space="preserve" text-anchor="middle" x="1891.94" y="-87.8" font-family="Times,serif" font-size="14.00">next = 4</text>
</g>
<!-- 7&#45;&gt;8 -->
<!-- 7&#45;&gt;8 -->
<g id="edge22" class="edge">
<title>7&#45;&gt;8</title>
<path fill="none" stroke="#000000" d="M1750.17,-122.09C1762.6,-122.3 1775.53,-122.3 1787.97,-122.09"/>
<polygon fill="#000000" stroke="#000000" points="1750.56,-119.12 1742,-121.9 1750.43,-125.07 1750.56,-119.12"/>
<polygon fill="#000000" stroke="#000000" points="1787.87,-125.07 1796.3,-121.9 1787.74,-119.12 1787.87,-125.07"/>
</g>
<!-- 8&#45;&gt;4 -->
<g id="edge23" class="edge">
<title>8&#45;&gt;4</title>
<path fill="none" stroke="#000000" d="M1788.76,-145.44C1773.06,-151.06 1756.29,-156.06 1740.16,-159 1525.78,-198.06 1464.24,-198.06 1249.85,-159 1233.73,-156.06 1216.96,-151.06 1201.25,-145.44"/>
<polygon fill="#000000" stroke="#000000" points="1789.51,-148.34 1796.45,-142.6 1787.45,-142.76 1789.51,-148.34"/>
<polygon fill="#000000" stroke="#000000" points="1202.57,-142.76 1193.57,-142.6 1200.5,-148.34 1202.57,-142.76"/>
</g>
<!-- 8&#45;&gt;9 -->
<!-- 9&#45;&gt;7 -->
<g id="edge24" class="edge">
<title>9&#45;&gt;7</title>
<path fill="none" stroke="#000000" d="M1971.48,-83.25C1955.78,-77.76 1939.02,-72.87 1922.93,-70 1868.34,-60.26 1852.76,-60.26 1798.16,-70 1782.08,-72.87 1765.32,-77.76 1749.62,-83.25"/>
<polygon fill="#000000" stroke="#000000" points="1970.16,-85.94 1979.17,-86.03 1972.19,-80.34 1970.16,-85.94"/>
<polygon fill="#000000" stroke="#000000" points="1748.91,-80.34 1741.93,-86.03 1750.94,-85.94 1748.91,-80.34"/>
</g>
<!-- head_label -->
<g id="node11" class="node">
<title>head_label</title>
<path fill="#20b2aa" stroke="#000000" d="M12,-96C12,-96 42,-96 42,-96 48,-96 54,-102 54,-108 54,-108 54,-120 54,-120 54,-126 48,-132 42,-132 42,-132 12,-132 12,-132 6,-132 0,-126 0,-120 0,-120 0,-108 0,-108 0,-102 6,-96 12,-96"/>
<text xml:space="preserve" text-anchor="middle" x="27" y="-110.4" font-family="Times,serif" font-size="12.00" fill="#000000">HEAD</text>
</g>
<!-- head_label&#45;&gt;1 -->
<g id="edge3" class="edge">
<title>head_label&#45;&gt;1</title>
<path fill="none" stroke="#20b2aa" d="M54.32,-125.52C70.61,-132.11 92.14,-139.87 112,-144 263.91,-175.58 308.13,-186.81 460.77,-159 476.89,-156.06 493.67,-151.06 509.37,-145.44"/>
<polygon fill="#20b2aa" stroke="#20b2aa" points="510.12,-148.34 517.06,-142.6 508.05,-142.76 510.12,-148.34"/>
</g>
<!-- tail_label -->
<g id="node12" class="node">
<title>tail_label</title>
<path fill="#20b2aa" stroke="#000000" d="M124,-96C124,-96 154,-96 154,-96 160,-96 166,-102 166,-108 166,-108 166,-120 166,-120 166,-126 160,-132 154,-132 154,-132 124,-132 124,-132 118,-132 112,-126 112,-120 112,-120 112,-108 112,-108 112,-102 118,-96 124,-96"/>
<text xml:space="preserve" text-anchor="middle" x="139" y="-110.4" font-family="Times,serif" font-size="12.00" fill="#000000">TAIL</text>
</g>
<!-- head_label&#45;&gt;tail_label -->
<!-- tail_label&#45;&gt;6 -->
<g id="edge4" class="edge">
<title>tail_label&#45;&gt;6</title>
<path fill="none" stroke="#20b2aa" d="M163.3,-95.68C206.71,-63.46 304.04,0 397.39,0 397.39,0 397.39,0 1130.47,0 1240.73,0 1271.21,-5.75 1374.62,-44 1396.22,-51.99 1418.37,-63.8 1437.64,-75.46"/>
<polygon fill="#20b2aa" stroke="#20b2aa" points="1435.91,-77.89 1444.71,-79.82 1439.03,-72.82 1435.91,-77.89"/>
</g>
<!-- free_label -->
<g id="node13" class="node">
<title>free_label</title>
<path fill="#20b2aa" stroke="#000000" d="M236,-96C236,-96 266,-96 266,-96 272,-96 278,-102 278,-108 278,-108 278,-120 278,-120 278,-126 272,-132 266,-132 266,-132 236,-132 236,-132 230,-132 224,-126 224,-120 224,-120 224,-108 224,-108 224,-102 230,-96 236,-96"/>
<text xml:space="preserve" text-anchor="middle" x="251" y="-110.4" font-family="Times,serif" font-size="12.00" fill="#000000">FREE</text>
</g>
<!-- tail_label&#45;&gt;free_label -->
<!-- free_label&#45;&gt;0 -->
<g id="edge5" class="edge">
<title>free_label&#45;&gt;0</title>
<path fill="none" stroke="#20b2aa" d="M278.33,-114C291.74,-114 308.75,-114 325.7,-114"/>
<polygon fill="#20b2aa" stroke="#20b2aa" points="325.63,-116.98 334.13,-114 325.63,-111.03 325.63,-116.98"/>
</g>
</g>
</svg>
