<?xml version="1.0" encoding="UTF-8" standalone="no"?>
<!DOCTYPE svg PUBLIC "-//W3C//DTD SVG 1.1//EN"
 "http://www.w3.org/Graphics/SVG/1.1/DTD/svg11.dtd">
<!-- Generated by graphviz version 14.0.2 (20251019.1705)
 -->
<!-- Title: G Pages: 1 -->
<svg width="1761pt" height="166pt"
 viewBox="0.00 0.00 1761.00 166.00" xmlns="http://www.w3.org/2000/svg" xmlns:xlink="http://www.w3.org/1999/xlink">
<g id="graph0" class="graph" transform="scale(1 1) rotate(0) translate(4 161.5)">
<title>G</title>
<polygon fill="#fffafa" stroke="none" points="-4,4 -4,-161.5 1757.46,-161.5 1757.46,4 -4,4"/>
<!-- 0 -->
<g id="node1" class="node">
<title>0</title>
<path fill="#cd5c5c" stroke="#000000" d="M12,-18.5C12,-18.5 112.77,-18.5 112.77,-18.5 118.77,-18.5 124.77,-24.5 124.77,-30.5 124.77,-30.5 124.77,-72.5 124.77,-72.5 124.77,-78.5 118.77,-84.5 112.77,-84.5 112.77,-84.5 12,-84.5 12,-84.5 6,-84.5 0,-78.5 0,-72.5 0,-72.5 0,-30.5 0,-30.5 0,-24.5 6,-18.5 12,-18.5"/>
<text xml:space="preserve" text-anchor="middle" x="62.39" y="-69.3" font-family="Times,serif" font-size="14.00">phys idx = 0</text>
<polyline fill="none" stroke="#000000" points="0,-62.5 124.77,-62.5"/>
<text xml:space="preserve" text-anchor="middle" x="62.39" y="-47.3" font-family="Times,serif" font-size="14.00">elem = &#45;6666.00</text>
<polyline fill="none" stroke="#000000" points="0,-40.5 124.77,-40.5"/>
<text xml:space="preserve" text-anchor="middle" x="31.39" y="-25.3" font-family="Times,serif" font-size="14.00">prev = 5</text>
<polyline fill="none" stroke="#000000" points="62.77,-18.5 62.77,-40.5"/>
<text xml:space="preserve" text-anchor="middle" x="93.77" y="-25.3" font-family="Times,serif" font-size="14.00">next = 2</text>
</g>
<!-- 2 -->
<g id="node2" class="node">
<title>2</title>
<path fill="#98fb98" stroke="#000000" d="M172.77,-18.5C172.77,-18.5 273.54,-18.5 273.54,-18.5 279.54,-18.5 285.54,-24.5 285.54,-30.5 285.54,-30.5 285.54,-72.5 285.54,-72.5 285.54,-78.5 279.54,-84.5 273.54,-84.5 273.54,-84.5 172.77,-84.5 172.77,-84.5 166.77,-84.5 160.77,-78.5 160.77,-72.5 160.77,-72.5 160.77,-30.5 160.77,-30.5 160.77,-24.5 166.77,-18.5 172.77,-18.5"/>
<text xml:space="preserve" text-anchor="middle" x="223.16" y="-69.3" font-family="Times,serif" font-size="14.00">phys idx = 2</text>
<polyline fill="none" stroke="#000000" points="160.77,-62.5 285.54,-62.5"/>
<text xml:space="preserve" text-anchor="middle" x="223.16" y="-47.3" font-family="Times,serif" font-size="14.00">elem = 20.00</text>
<polyline fill="none" stroke="#000000" points="160.77,-40.5 285.54,-40.5"/>
<text xml:space="preserve" text-anchor="middle" x="192.16" y="-25.3" font-family="Times,serif" font-size="14.00">prev = 0</text>
<polyline fill="none" stroke="#000000" points="223.54,-18.5 223.54,-40.5"/>
<text xml:space="preserve" text-anchor="middle" x="254.54" y="-25.3" font-family="Times,serif" font-size="14.00">next = 3</text>
</g>
<!-- 0&#45;&gt;2 -->
<!-- 0&#45;&gt;2 -->
<g id="edge11" class="edge">
<title>0&#45;&gt;2</title>
<path fill="none" stroke="#6a7075" d="M135.02,-62.67C135.02,-62.67 150.43,-62.67 150.43,-62.67"/>
<polygon fill="#6a7075" stroke="#6a7075" points="135.02,-59.69 126.52,-62.67 135.02,-65.64 135.02,-59.69"/>
<polygon fill="#6a7075" stroke="#6a7075" points="150.43,-65.64 158.93,-62.67 150.43,-59.69 150.43,-65.64"/>
</g>
<!-- 3 -->
<g id="node3" class="node">
<title>3</title>
<path fill="#98fb98" stroke="#000000" d="M333.54,-18.5C333.54,-18.5 434.31,-18.5 434.31,-18.5 440.31,-18.5 446.31,-24.5 446.31,-30.5 446.31,-30.5 446.31,-72.5 446.31,-72.5 446.31,-78.5 440.31,-84.5 434.31,-84.5 434.31,-84.5 333.54,-84.5 333.54,-84.5 327.54,-84.5 321.54,-78.5 321.54,-72.5 321.54,-72.5 321.54,-30.5 321.54,-30.5 321.54,-24.5 327.54,-18.5 333.54,-18.5"/>
<text xml:space="preserve" text-anchor="middle" x="383.93" y="-69.3" font-family="Times,serif" font-size="14.00">phys idx = 3</text>
<polyline fill="none" stroke="#000000" points="321.54,-62.5 446.31,-62.5"/>
<text xml:space="preserve" text-anchor="middle" x="383.93" y="-47.3" font-family="Times,serif" font-size="14.00">elem = 30.00</text>
<polyline fill="none" stroke="#000000" points="321.54,-40.5 446.31,-40.5"/>
<text xml:space="preserve" text-anchor="middle" x="352.93" y="-25.3" font-family="Times,serif" font-size="14.00">prev = 2</text>
<polyline fill="none" stroke="#000000" points="384.31,-18.5 384.31,-40.5"/>
<text xml:space="preserve" text-anchor="middle" x="415.31" y="-25.3" font-family="Times,serif" font-size="14.00">next = 9</text>
</g>
<!-- 2&#45;&gt;3 -->
<!-- 2&#45;&gt;3 -->
<g id="edge13" class="edge">
<title>2&#45;&gt;3</title>
<path fill="none" stroke="#6a7075" d="M295.79,-40.33C295.79,-40.33 311.2,-40.33 311.2,-40.33"/>
<polygon fill="#6a7075" stroke="#6a7075" points="295.79,-37.36 287.29,-40.33 295.79,-43.31 295.79,-37.36"/>
<polygon fill="#6a7075" stroke="#6a7075" points="311.2,-43.31 319.7,-40.33 311.2,-37.36 311.2,-43.31"/>
</g>
<!-- 4 -->
<g id="node4" class="node">
<title>4</title>
<path fill="#98fb98" stroke="#000000" d="M494.31,-18.5C494.31,-18.5 595.08,-18.5 595.08,-18.5 601.08,-18.5 607.08,-24.5 607.08,-30.5 607.08,-30.5 607.08,-72.5 607.08,-72.5 607.08,-78.5 601.08,-84.5 595.08,-84.5 595.08,-84.5 494.31,-84.5 494.31,-84.5 488.31,-84.5 482.31,-78.5 482.31,-72.5 482.31,-72.5 482.31,-30.5 482.31,-30.5 482.31,-24.5 488.31,-18.5 494.31,-18.5"/>
<text xml:space="preserve" text-anchor="middle" x="544.7" y="-69.3" font-family="Times,serif" font-size="14.00">phys idx = 4</text>
<polyline fill="none" stroke="#000000" points="482.31,-62.5 607.08,-62.5"/>
<text xml:space="preserve" text-anchor="middle" x="544.7" y="-47.3" font-family="Times,serif" font-size="14.00">elem = 40.00</text>
<polyline fill="none" stroke="#000000" points="482.31,-40.5 607.08,-40.5"/>
<text xml:space="preserve" text-anchor="middle" x="513.7" y="-25.3" font-family="Times,serif" font-size="14.00">prev = 8</text>
<polyline fill="none" stroke="#000000" points="545.08,-18.5 545.08,-40.5"/>
<text xml:space="preserve" text-anchor="middle" x="576.08" y="-25.3" font-family="Times,serif" font-size="14.00">next = 5</text>
</g>
<!-- 3&#45;&gt;4 -->
<!-- 9 -->
<g id="node8" class="node">
<title>9</title>
<path fill="#98fb98" stroke="#000000" d="M1137.39,-18.5C1137.39,-18.5 1238.16,-18.5 1238.16,-18.5 1244.16,-18.5 1250.16,-24.5 1250.16,-30.5 1250.16,-30.5 1250.16,-72.5 1250.16,-72.5 1250.16,-78.5 1244.16,-84.5 1238.16,-84.5 1238.16,-84.5 1137.39,-84.5 1137.39,-84.5 1131.39,-84.5 1125.39,-78.5 1125.39,-72.5 1125.39,-72.5 1125.39,-30.5 1125.39,-30.5 1125.39,-24.5 1131.39,-18.5 1137.39,-18.5"/>
<text xml:space="preserve" text-anchor="middle" x="1187.78" y="-69.3" font-family="Times,serif" font-size="14.00">phys idx = 9</text>
<polyline fill="none" stroke="#000000" points="1125.39,-62.5 1250.16,-62.5"/>
<text xml:space="preserve" text-anchor="middle" x="1187.78" y="-47.3" font-family="Times,serif" font-size="14.00">elem = 32.00</text>
<polyline fill="none" stroke="#000000" points="1125.39,-40.5 1250.16,-40.5"/>
<text xml:space="preserve" text-anchor="middle" x="1156.78" y="-25.3" font-family="Times,serif" font-size="14.00">prev = 3</text>
<polyline fill="none" stroke="#000000" points="1188.17,-18.5 1188.17,-40.5"/>
<text xml:space="preserve" text-anchor="middle" x="1219.16" y="-25.3" font-family="Times,serif" font-size="14.00">next = 7</text>
</g>
<!-- 3&#45;&gt;9 -->
<g id="edge14" class="edge">
<title>3&#45;&gt;9</title>
<path fill="none" stroke="#6a7075" d="M383.46,-94.7C383.46,-94.7 383.46,-106.9 383.46,-106.9 383.46,-106.9 1167.46,-106.9 1167.46,-106.9 1167.46,-106.9 1167.46,-94.7 1167.46,-94.7"/>
<polygon fill="#6a7075" stroke="#6a7075" points="386.44,-94.7 383.46,-86.2 380.49,-94.7 386.44,-94.7"/>
<polygon fill="#6a7075" stroke="#6a7075" points="1170.44,-94.7 1167.46,-86.2 1164.49,-94.7 1170.44,-94.7"/>
</g>
<!-- 5 -->
<g id="node5" class="node">
<title>5</title>
<path fill="#98fb98" stroke="#000000" d="M655.08,-18.5C655.08,-18.5 755.85,-18.5 755.85,-18.5 761.85,-18.5 767.85,-24.5 767.85,-30.5 767.85,-30.5 767.85,-72.5 767.85,-72.5 767.85,-78.5 761.85,-84.5 755.85,-84.5 755.85,-84.5 655.08,-84.5 655.08,-84.5 649.08,-84.5 643.08,-78.5 643.08,-72.5 643.08,-72.5 643.08,-30.5 643.08,-30.5 643.08,-24.5 649.08,-18.5 655.08,-18.5"/>
<text xml:space="preserve" text-anchor="middle" x="705.47" y="-69.3" font-family="Times,serif" font-size="14.00">phys idx = 5</text>
<polyline fill="none" stroke="#000000" points="643.08,-62.5 767.85,-62.5"/>
<text xml:space="preserve" text-anchor="middle" x="705.47" y="-47.3" font-family="Times,serif" font-size="14.00">elem = 50.00</text>
<polyline fill="none" stroke="#000000" points="643.08,-40.5 767.85,-40.5"/>
<text xml:space="preserve" text-anchor="middle" x="674.47" y="-25.3" font-family="Times,serif" font-size="14.00">prev = 4</text>
<polyline fill="none" stroke="#000000" points="705.85,-18.5 705.85,-40.5"/>
<text xml:space="preserve" text-anchor="middle" x="736.85" y="-25.3" font-family="Times,serif" font-size="14.00">next = 0</text>
</g>
<!-- 4&#45;&gt;5 -->
<!-- 4&#45;&gt;5 -->
<g id="edge15" class="edge">
<title>4&#45;&gt;5</title>
<path fill="none" stroke="#6a7075" d="M617.33,-62.67C617.33,-62.67 632.74,-62.67 632.74,-62.67"/>
<polygon fill="#6a7075" stroke="#6a7075" points="617.33,-59.69 608.83,-62.67 617.33,-65.64 617.33,-59.69"/>
<polygon fill="#6a7075" stroke="#6a7075" points="632.74,-65.64 641.24,-62.67 632.74,-59.69 632.74,-65.64"/>
</g>
<!-- 5&#45;&gt;0 -->
<g id="edge16" class="edge">
<title>5&#45;&gt;0</title>
<path fill="none" stroke="#6a7075" d="M660.46,-91.55C660.46,-91.55 660.46,-92.3 660.46,-92.3 660.46,-92.3 83.46,-92.3 83.46,-92.3 83.46,-92.3 83.46,-91.55 83.46,-91.55"/>
<polygon fill="#6a7075" stroke="#6a7075" points="663.44,-94.83 660.46,-86.33 657.49,-94.83 663.44,-94.83"/>
<polygon fill="#6a7075" stroke="#6a7075" points="86.44,-94.83 83.46,-86.33 80.49,-94.83 86.44,-94.83"/>
</g>
<!-- 7 -->
<g id="node6" class="node">
<title>7</title>
<path fill="#98fb98" stroke="#000000" d="M815.85,-18.5C815.85,-18.5 916.62,-18.5 916.62,-18.5 922.62,-18.5 928.62,-24.5 928.62,-30.5 928.62,-30.5 928.62,-72.5 928.62,-72.5 928.62,-78.5 922.62,-84.5 916.62,-84.5 916.62,-84.5 815.85,-84.5 815.85,-84.5 809.85,-84.5 803.85,-78.5 803.85,-72.5 803.85,-72.5 803.85,-30.5 803.85,-30.5 803.85,-24.5 809.85,-18.5 815.85,-18.5"/>
<text xml:space="preserve" text-anchor="middle" x="866.24" y="-69.3" font-family="Times,serif" font-size="14.00">phys idx = 7</text>
<polyline fill="none" stroke="#000000" points="803.85,-62.5 928.62,-62.5"/>
<text xml:space="preserve" text-anchor="middle" x="866.24" y="-47.3" font-family="Times,serif" font-size="14.00">elem = 35.00</text>
<polyline fill="none" stroke="#000000" points="803.85,-40.5 928.62,-40.5"/>
<text xml:space="preserve" text-anchor="middle" x="835.24" y="-25.3" font-family="Times,serif" font-size="14.00">prev = 9</text>
<polyline fill="none" stroke="#000000" points="866.62,-18.5 866.62,-40.5"/>
<text xml:space="preserve" text-anchor="middle" x="897.62" y="-25.3" font-family="Times,serif" font-size="14.00">next = 8</text>
</g>
<!-- 5&#45;&gt;7 -->
<!-- 8 -->
<g id="node7" class="node">
<title>8</title>
<path fill="#98fb98" stroke="#000000" d="M976.62,-18.5C976.62,-18.5 1077.39,-18.5 1077.39,-18.5 1083.39,-18.5 1089.39,-24.5 1089.39,-30.5 1089.39,-30.5 1089.39,-72.5 1089.39,-72.5 1089.39,-78.5 1083.39,-84.5 1077.39,-84.5 1077.39,-84.5 976.62,-84.5 976.62,-84.5 970.62,-84.5 964.62,-78.5 964.62,-72.5 964.62,-72.5 964.62,-30.5 964.62,-30.5 964.62,-24.5 970.62,-18.5 976.62,-18.5"/>
<text xml:space="preserve" text-anchor="middle" x="1027.01" y="-69.3" font-family="Times,serif" font-size="14.00">phys idx = 8</text>
<polyline fill="none" stroke="#000000" points="964.62,-62.5 1089.39,-62.5"/>
<text xml:space="preserve" text-anchor="middle" x="1027.01" y="-47.3" font-family="Times,serif" font-size="14.00">elem = 36.00</text>
<polyline fill="none" stroke="#000000" points="964.62,-40.5 1089.39,-40.5"/>
<text xml:space="preserve" text-anchor="middle" x="996.01" y="-25.3" font-family="Times,serif" font-size="14.00">prev = 7</text>
<polyline fill="none" stroke="#000000" points="1027.39,-18.5 1027.39,-40.5"/>
<text xml:space="preserve" text-anchor="middle" x="1058.39" y="-25.3" font-family="Times,serif" font-size="14.00">next = 4</text>
</g>
<!-- 7&#45;&gt;8 -->
<!-- 7&#45;&gt;8 -->
<g id="edge18" class="edge">
<title>7&#45;&gt;8</title>
<path fill="none" stroke="#6a7075" d="M938.87,-62.67C938.87,-62.67 954.28,-62.67 954.28,-62.67"/>
<polygon fill="#6a7075" stroke="#6a7075" points="938.87,-59.69 930.37,-62.67 938.87,-65.64 938.87,-59.69"/>
<polygon fill="#6a7075" stroke="#6a7075" points="954.28,-65.64 962.78,-62.67 954.28,-59.69 954.28,-65.64"/>
</g>
<!-- 8&#45;&gt;4 -->
<g id="edge19" class="edge">
<title>8&#45;&gt;4</title>
<path fill="none" stroke="#6a7075" d="M1027.46,-8C1027.46,-8 1027.46,0 1027.46,0 1027.46,0 544.46,0 544.46,0 544.46,0 544.46,-8 544.46,-8"/>
<polygon fill="#6a7075" stroke="#6a7075" points="1024.49,-8 1027.46,-16.5 1030.44,-8 1024.49,-8"/>
<polygon fill="#6a7075" stroke="#6a7075" points="541.49,-8 544.46,-16.5 547.44,-8 541.49,-8"/>
</g>
<!-- 8&#45;&gt;9 -->
<!-- 9&#45;&gt;7 -->
<g id="edge20" class="edge">
<title>9&#45;&gt;7</title>
<path fill="none" stroke="#6a7075" d="M1208.46,-94.92C1208.46,-94.92 1208.46,-99.6 1208.46,-99.6 1208.46,-99.6 866.46,-99.6 866.46,-99.6 866.46,-99.6 866.46,-94.92 866.46,-94.92"/>
<polygon fill="#6a7075" stroke="#6a7075" points="1211.44,-94.92 1208.46,-86.42 1205.49,-94.92 1211.44,-94.92"/>
<polygon fill="#6a7075" stroke="#6a7075" points="869.44,-94.92 866.46,-86.42 863.49,-94.92 869.44,-94.92"/>
</g>
<!-- 1 -->
<g id="node9" class="node">
<title>1</title>
<path fill="#82898f" stroke="#000000" d="M1298.16,-18.5C1298.16,-18.5 1403.6,-18.5 1403.6,-18.5 1409.6,-18.5 1415.6,-24.5 1415.6,-30.5 1415.6,-30.5 1415.6,-72.5 1415.6,-72.5 1415.6,-78.5 1409.6,-84.5 1403.6,-84.5 1403.6,-84.5 1298.16,-84.5 1298.16,-84.5 1292.16,-84.5 1286.16,-78.5 1286.16,-72.5 1286.16,-72.5 1286.16,-30.5 1286.16,-30.5 1286.16,-24.5 1292.16,-18.5 1298.16,-18.5"/>
<text xml:space="preserve" text-anchor="middle" x="1350.88" y="-69.3" font-family="Times,serif" font-size="14.00">phys idx = 1</text>
<polyline fill="none" stroke="#000000" points="1286.16,-62.5 1415.6,-62.5"/>
<text xml:space="preserve" text-anchor="middle" x="1350.88" y="-47.3" font-family="Times,serif" font-size="14.00">elem = &#45;6666.00</text>
<polyline fill="none" stroke="#000000" points="1286.16,-40.5 1415.6,-40.5"/>
<text xml:space="preserve" text-anchor="middle" x="1319.88" y="-25.3" font-family="Times,serif" font-size="14.00">prev = &#45;1</text>
<polyline fill="none" stroke="#000000" points="1353.6,-18.5 1353.6,-40.5"/>
<text xml:space="preserve" text-anchor="middle" x="1384.6" y="-25.3" font-family="Times,serif" font-size="14.00">next = 6</text>
</g>
<!-- 9&#45;&gt;1 -->
<!-- 6 -->
<g id="node10" class="node">
<title>6</title>
<path fill="#82898f" stroke="#000000" d="M1463.6,-18.5C1463.6,-18.5 1576.03,-18.5 1576.03,-18.5 1582.03,-18.5 1588.03,-24.5 1588.03,-30.5 1588.03,-30.5 1588.03,-72.5 1588.03,-72.5 1588.03,-78.5 1582.03,-84.5 1576.03,-84.5 1576.03,-84.5 1463.6,-84.5 1463.6,-84.5 1457.6,-84.5 1451.6,-78.5 1451.6,-72.5 1451.6,-72.5 1451.6,-30.5 1451.6,-30.5 1451.6,-24.5 1457.6,-18.5 1463.6,-18.5"/>
<text xml:space="preserve" text-anchor="middle" x="1519.81" y="-69.3" font-family="Times,serif" font-size="14.00">phys idx = 6</text>
<polyline fill="none" stroke="#000000" points="1451.6,-62.5 1588.03,-62.5"/>
<text xml:space="preserve" text-anchor="middle" x="1519.81" y="-47.3" font-family="Times,serif" font-size="14.00">elem = &#45;6666.00</text>
<polyline fill="none" stroke="#000000" points="1451.6,-40.5 1588.03,-40.5"/>
<text xml:space="preserve" text-anchor="middle" x="1485.31" y="-25.3" font-family="Times,serif" font-size="14.00">prev = &#45;1</text>
<polyline fill="none" stroke="#000000" points="1519.03,-18.5 1519.03,-40.5"/>
<text xml:space="preserve" text-anchor="middle" x="1553.53" y="-25.3" font-family="Times,serif" font-size="14.00">next = 10</text>
</g>
<!-- 1&#45;&gt;6 -->
<!-- 1&#45;&gt;6 -->
<g id="edge12" class="edge">
<title>1&#45;&gt;6</title>
<path fill="none" stroke="#44944a" d="M1415.71,-62.67C1415.71,-62.67 1441.22,-62.67 1441.22,-62.67"/>
<polygon fill="#44944a" stroke="#44944a" points="1441.22,-65.64 1449.72,-62.67 1441.22,-59.69 1441.22,-65.64"/>
</g>
<!-- 10 -->
<g id="node11" class="node">
<title>10</title>
<path fill="#82898f" stroke="#000000" d="M1636.03,-18.5C1636.03,-18.5 1741.46,-18.5 1741.46,-18.5 1747.46,-18.5 1753.46,-24.5 1753.46,-30.5 1753.46,-30.5 1753.46,-72.5 1753.46,-72.5 1753.46,-78.5 1747.46,-84.5 1741.46,-84.5 1741.46,-84.5 1636.03,-84.5 1636.03,-84.5 1630.03,-84.5 1624.03,-78.5 1624.03,-72.5 1624.03,-72.5 1624.03,-30.5 1624.03,-30.5 1624.03,-24.5 1630.03,-18.5 1636.03,-18.5"/>
<text xml:space="preserve" text-anchor="middle" x="1688.75" y="-69.3" font-family="Times,serif" font-size="14.00">phys idx = 10</text>
<polyline fill="none" stroke="#000000" points="1624.03,-62.5 1753.46,-62.5"/>
<text xml:space="preserve" text-anchor="middle" x="1688.75" y="-47.3" font-family="Times,serif" font-size="14.00">elem = &#45;6666.00</text>
<polyline fill="none" stroke="#000000" points="1624.03,-40.5 1753.46,-40.5"/>
<text xml:space="preserve" text-anchor="middle" x="1657.75" y="-25.3" font-family="Times,serif" font-size="14.00">prev = &#45;1</text>
<polyline fill="none" stroke="#000000" points="1691.46,-18.5 1691.46,-40.5"/>
<text xml:space="preserve" text-anchor="middle" x="1722.46" y="-25.3" font-family="Times,serif" font-size="14.00">next = 0</text>
</g>
<!-- 6&#45;&gt;10 -->
<!-- 6&#45;&gt;10 -->
<g id="edge17" class="edge">
<title>6&#45;&gt;10</title>
<path fill="none" stroke="#44944a" d="M1588.52,-40.33C1588.52,-40.33 1613.63,-40.33 1613.63,-40.33"/>
<polygon fill="#44944a" stroke="#44944a" points="1613.63,-43.31 1622.13,-40.33 1613.63,-37.36 1613.63,-43.31"/>
</g>
<!-- 10&#45;&gt;0 -->
<g id="edge21" class="edge">
<title>10&#45;&gt;0</title>
<path fill="none" stroke="#44944a" d="M1688.46,-84.69C1688.46,-99.73 1688.46,-114.2 1688.46,-114.2 1688.46,-114.2 41.46,-114.2 41.46,-114.2 41.46,-114.2 41.46,-94.7 41.46,-94.7"/>
<polygon fill="#44944a" stroke="#44944a" points="44.44,-94.7 41.46,-86.2 38.49,-94.7 44.44,-94.7"/>
</g>
<!-- head_label -->
<g id="node12" class="node">
<title>head_label</title>
<polygon fill="#879eac" stroke="#fff4cc" points="250.16,-157.5 196.16,-157.5 196.16,-121.5 250.16,-121.5 250.16,-157.5"/>
<text xml:space="preserve" text-anchor="middle" x="223.16" y="-135.9" font-family="Times,serif" font-size="12.00" fill="#fff4cc">HEAD</text>
</g>
<!-- head_label&#45;&gt;2 -->
<g id="edge22" class="edge">
<title>head_label&#45;&gt;2</title>
<path fill="none" stroke="#fff4cc" d="M223.46,-121.27C223.46,-121.27 223.46,-94.66 223.46,-94.66"/>
<polygon fill="#fff4cc" stroke="#fff4cc" points="226.44,-94.66 223.46,-86.16 220.49,-94.66 226.44,-94.66"/>
</g>
<!-- tail_label -->
<g id="node13" class="node">
<title>tail_label</title>
<polygon fill="#879eac" stroke="#fff4cc" points="732.47,-157.5 678.47,-157.5 678.47,-121.5 732.47,-121.5 732.47,-157.5"/>
<text xml:space="preserve" text-anchor="middle" x="705.47" y="-135.9" font-family="Times,serif" font-size="12.00" fill="#fff4cc">TAIL</text>
</g>
<!-- tail_label&#45;&gt;5 -->
<g id="edge23" class="edge">
<title>tail_label&#45;&gt;5</title>
<path fill="none" stroke="#fff4cc" d="M705.46,-121.27C705.46,-121.27 705.46,-94.66 705.46,-94.66"/>
<polygon fill="#fff4cc" stroke="#fff4cc" points="708.44,-94.66 705.46,-86.16 702.49,-94.66 708.44,-94.66"/>
</g>
<!-- free_label -->
<g id="node14" class="node">
<title>free_label</title>
<polygon fill="#879eac" stroke="#fff4cc" points="1377.88,-157.5 1323.88,-157.5 1323.88,-121.5 1377.88,-121.5 1377.88,-157.5"/>
<text xml:space="preserve" text-anchor="middle" x="1350.88" y="-135.9" font-family="Times,serif" font-size="12.00" fill="#fff4cc">FREE</text>
</g>
<!-- free_label&#45;&gt;1 -->
<g id="edge24" class="edge">
<title>free_label&#45;&gt;1</title>
<path fill="none" stroke="#fff4cc" d="M1350.46,-121.27C1350.46,-121.27 1350.46,-94.66 1350.46,-94.66"/>
<polygon fill="#fff4cc" stroke="#fff4cc" points="1353.44,-94.66 1350.46,-86.16 1347.49,-94.66 1353.44,-94.66"/>
</g>
</g>
</svg>
