<?xml version="1.0" encoding="UTF-8" standalone="no"?>
<!DOCTYPE svg PUBLIC "-//W3C//DTD SVG 1.1//EN"
 "http://www.w3.org/Graphics/SVG/1.1/DTD/svg11.dtd">
<!-- Generated by graphviz version 14.0.2 (20251019.1705)
 -->
<!-- Title: G Pages: 1 -->
<svg width="1782pt" height="319pt"
 viewBox="0.00 0.00 1782.00 319.00" xmlns="http://www.w3.org/2000/svg" xmlns:xlink="http://www.w3.org/1999/xlink">
<g id="graph0" class="graph" transform="scale(1 1) rotate(0) translate(4 314.59)">
<title>G</title>
<polygon fill="#fffafa" stroke="none" points="-4,4 -4,-314.59 1778.37,-314.59 1778.37,4 -4,4"/>
<!-- 0 -->
<g id="node1" class="node">
<title>0</title>
<path fill="#cd5c5c" stroke="#000000" d="M12,-152.5C12,-152.5 112.77,-152.5 112.77,-152.5 118.77,-152.5 124.77,-158.5 124.77,-164.5 124.77,-164.5 124.77,-206.5 124.77,-206.5 124.77,-212.5 118.77,-218.5 112.77,-218.5 112.77,-218.5 12,-218.5 12,-218.5 6,-218.5 0,-212.5 0,-206.5 0,-206.5 0,-164.5 0,-164.5 0,-158.5 6,-152.5 12,-152.5"/>
<text xml:space="preserve" text-anchor="middle" x="62.39" y="-203.3" font-family="Times,serif" font-size="14.00">phys idx = 0</text>
<polyline fill="none" stroke="#000000" points="0,-196.5 124.77,-196.5"/>
<text xml:space="preserve" text-anchor="middle" x="62.39" y="-181.3" font-family="Times,serif" font-size="14.00">elem = &#45;6666.00</text>
<polyline fill="none" stroke="#000000" points="0,-174.5 124.77,-174.5"/>
<text xml:space="preserve" text-anchor="middle" x="31.39" y="-159.3" font-family="Times,serif" font-size="14.00">prev = 6</text>
<polyline fill="none" stroke="#000000" points="62.77,-152.5 62.77,-174.5"/>
<text xml:space="preserve" text-anchor="middle" x="93.77" y="-159.3" font-family="Times,serif" font-size="14.00">next = 1</text>
</g>
<!-- 1 -->
<g id="node2" class="node">
<title>1</title>
<path fill="#98fb98" stroke="#000000" d="M194.77,-152.5C194.77,-152.5 295.54,-152.5 295.54,-152.5 301.54,-152.5 307.54,-158.5 307.54,-164.5 307.54,-164.5 307.54,-206.5 307.54,-206.5 307.54,-212.5 301.54,-218.5 295.54,-218.5 295.54,-218.5 194.77,-218.5 194.77,-218.5 188.77,-218.5 182.77,-212.5 182.77,-206.5 182.77,-206.5 182.77,-164.5 182.77,-164.5 182.77,-158.5 188.77,-152.5 194.77,-152.5"/>
<text xml:space="preserve" text-anchor="middle" x="245.16" y="-203.3" font-family="Times,serif" font-size="14.00">phys idx = 1</text>
<polyline fill="none" stroke="#000000" points="182.77,-196.5 307.54,-196.5"/>
<text xml:space="preserve" text-anchor="middle" x="245.16" y="-181.3" font-family="Times,serif" font-size="14.00">elem = 10.00</text>
<polyline fill="none" stroke="#000000" points="182.77,-174.5 307.54,-174.5"/>
<text xml:space="preserve" text-anchor="middle" x="214.16" y="-159.3" font-family="Times,serif" font-size="14.00">prev = 0</text>
<polyline fill="none" stroke="#000000" points="245.54,-152.5 245.54,-174.5"/>
<text xml:space="preserve" text-anchor="middle" x="276.54" y="-159.3" font-family="Times,serif" font-size="14.00">next = 2</text>
</g>
<!-- 0&#45;&gt;1 -->
<!-- 0&#45;&gt;1 -->
<g id="edge15" class="edge">
<title>0&#45;&gt;1</title>
<path fill="none" stroke="#000000" d="M134.78,-193.59C147.21,-193.8 160.14,-193.8 172.57,-193.59"/>
<polygon fill="#000000" stroke="#000000" points="135.17,-190.62 126.6,-193.4 135.04,-196.57 135.17,-190.62"/>
<polygon fill="#000000" stroke="#000000" points="172.48,-196.57 180.91,-193.4 172.34,-190.62 172.48,-196.57"/>
</g>
<!-- 2 -->
<g id="node3" class="node">
<title>2</title>
<path fill="#98fb98" stroke="#000000" d="M377.54,-152.5C377.54,-152.5 478.31,-152.5 478.31,-152.5 484.31,-152.5 490.31,-158.5 490.31,-164.5 490.31,-164.5 490.31,-206.5 490.31,-206.5 490.31,-212.5 484.31,-218.5 478.31,-218.5 478.31,-218.5 377.54,-218.5 377.54,-218.5 371.54,-218.5 365.54,-212.5 365.54,-206.5 365.54,-206.5 365.54,-164.5 365.54,-164.5 365.54,-158.5 371.54,-152.5 377.54,-152.5"/>
<text xml:space="preserve" text-anchor="middle" x="427.93" y="-203.3" font-family="Times,serif" font-size="14.00">phys idx = 2</text>
<polyline fill="none" stroke="#000000" points="365.54,-196.5 490.31,-196.5"/>
<text xml:space="preserve" text-anchor="middle" x="427.93" y="-181.3" font-family="Times,serif" font-size="14.00">elem = 20.00</text>
<polyline fill="none" stroke="#000000" points="365.54,-174.5 490.31,-174.5"/>
<text xml:space="preserve" text-anchor="middle" x="396.93" y="-159.3" font-family="Times,serif" font-size="14.00">prev = 1</text>
<polyline fill="none" stroke="#000000" points="428.31,-152.5 428.31,-174.5"/>
<text xml:space="preserve" text-anchor="middle" x="459.31" y="-159.3" font-family="Times,serif" font-size="14.00">next = 3</text>
</g>
<!-- 1&#45;&gt;2 -->
<!-- 1&#45;&gt;2 -->
<g id="edge16" class="edge">
<title>1&#45;&gt;2</title>
<path fill="none" stroke="#000000" d="M317.55,-193.59C329.98,-193.8 342.91,-193.8 355.35,-193.59"/>
<polygon fill="#000000" stroke="#000000" points="317.94,-190.62 309.37,-193.4 317.81,-196.57 317.94,-190.62"/>
<polygon fill="#000000" stroke="#000000" points="355.25,-196.57 363.68,-193.4 355.11,-190.62 355.25,-196.57"/>
</g>
<!-- 3 -->
<g id="node4" class="node">
<title>3</title>
<path fill="#98fb98" stroke="#000000" d="M560.31,-152.5C560.31,-152.5 661.08,-152.5 661.08,-152.5 667.08,-152.5 673.08,-158.5 673.08,-164.5 673.08,-164.5 673.08,-206.5 673.08,-206.5 673.08,-212.5 667.08,-218.5 661.08,-218.5 661.08,-218.5 560.31,-218.5 560.31,-218.5 554.31,-218.5 548.31,-212.5 548.31,-206.5 548.31,-206.5 548.31,-164.5 548.31,-164.5 548.31,-158.5 554.31,-152.5 560.31,-152.5"/>
<text xml:space="preserve" text-anchor="middle" x="610.7" y="-203.3" font-family="Times,serif" font-size="14.00">phys idx = 3</text>
<polyline fill="none" stroke="#000000" points="548.31,-196.5 673.08,-196.5"/>
<text xml:space="preserve" text-anchor="middle" x="610.7" y="-181.3" font-family="Times,serif" font-size="14.00">elem = 30.00</text>
<polyline fill="none" stroke="#000000" points="548.31,-174.5 673.08,-174.5"/>
<text xml:space="preserve" text-anchor="middle" x="579.7" y="-159.3" font-family="Times,serif" font-size="14.00">prev = 2</text>
<polyline fill="none" stroke="#000000" points="611.08,-152.5 611.08,-174.5"/>
<text xml:space="preserve" text-anchor="middle" x="642.08" y="-159.3" font-family="Times,serif" font-size="14.00">next = 7</text>
</g>
<!-- 2&#45;&gt;3 -->
<!-- 2&#45;&gt;3 -->
<g id="edge17" class="edge">
<title>2&#45;&gt;3</title>
<path fill="none" stroke="#000000" d="M500.32,-193.59C512.75,-193.8 525.68,-193.8 538.12,-193.59"/>
<polygon fill="#000000" stroke="#000000" points="500.71,-190.62 492.14,-193.4 500.58,-196.57 500.71,-190.62"/>
<polygon fill="#000000" stroke="#000000" points="538.02,-196.57 546.45,-193.4 537.89,-190.62 538.02,-196.57"/>
</g>
<!-- 4 -->
<g id="node5" class="node">
<title>4</title>
<path fill="#98fb98" stroke="#000000" d="M743.08,-152.5C743.08,-152.5 843.85,-152.5 843.85,-152.5 849.85,-152.5 855.85,-158.5 855.85,-164.5 855.85,-164.5 855.85,-206.5 855.85,-206.5 855.85,-212.5 849.85,-218.5 843.85,-218.5 843.85,-218.5 743.08,-218.5 743.08,-218.5 737.08,-218.5 731.08,-212.5 731.08,-206.5 731.08,-206.5 731.08,-164.5 731.08,-164.5 731.08,-158.5 737.08,-152.5 743.08,-152.5"/>
<text xml:space="preserve" text-anchor="middle" x="793.47" y="-203.3" font-family="Times,serif" font-size="14.00">phys idx = 4</text>
<polyline fill="none" stroke="#000000" points="731.08,-196.5 855.85,-196.5"/>
<text xml:space="preserve" text-anchor="middle" x="793.47" y="-181.3" font-family="Times,serif" font-size="14.00">elem = 40.00</text>
<polyline fill="none" stroke="#000000" points="731.08,-174.5 855.85,-174.5"/>
<text xml:space="preserve" text-anchor="middle" x="762.47" y="-159.3" font-family="Times,serif" font-size="14.00">prev = 8</text>
<polyline fill="none" stroke="#000000" points="793.85,-152.5 793.85,-174.5"/>
<text xml:space="preserve" text-anchor="middle" x="824.85" y="-159.3" font-family="Times,serif" font-size="14.00">next = 5</text>
</g>
<!-- 3&#45;&gt;4 -->
<!-- 7 -->
<g id="node8" class="node">
<title>7</title>
<path fill="#98fb98" stroke="#000000" d="M1291.39,-152.5C1291.39,-152.5 1392.16,-152.5 1392.16,-152.5 1398.16,-152.5 1404.16,-158.5 1404.16,-164.5 1404.16,-164.5 1404.16,-206.5 1404.16,-206.5 1404.16,-212.5 1398.16,-218.5 1392.16,-218.5 1392.16,-218.5 1291.39,-218.5 1291.39,-218.5 1285.39,-218.5 1279.39,-212.5 1279.39,-206.5 1279.39,-206.5 1279.39,-164.5 1279.39,-164.5 1279.39,-158.5 1285.39,-152.5 1291.39,-152.5"/>
<text xml:space="preserve" text-anchor="middle" x="1341.78" y="-203.3" font-family="Times,serif" font-size="14.00">phys idx = 7</text>
<polyline fill="none" stroke="#000000" points="1279.39,-196.5 1404.16,-196.5"/>
<text xml:space="preserve" text-anchor="middle" x="1341.78" y="-181.3" font-family="Times,serif" font-size="14.00">elem = 35.00</text>
<polyline fill="none" stroke="#000000" points="1279.39,-174.5 1404.16,-174.5"/>
<text xml:space="preserve" text-anchor="middle" x="1310.78" y="-159.3" font-family="Times,serif" font-size="14.00">prev = 3</text>
<polyline fill="none" stroke="#000000" points="1342.17,-152.5 1342.17,-174.5"/>
<text xml:space="preserve" text-anchor="middle" x="1373.16" y="-159.3" font-family="Times,serif" font-size="14.00">next = 8</text>
</g>
<!-- 3&#45;&gt;7 -->
<g id="edge18" class="edge">
<title>3&#45;&gt;7</title>
<path fill="none" stroke="#000000" d="M682.48,-216.94C698.19,-222.56 714.96,-227.56 731.08,-230.5 945.47,-269.56 1007.01,-269.56 1221.39,-230.5 1237.51,-227.56 1254.29,-222.56 1269.99,-216.94"/>
<polygon fill="#000000" stroke="#000000" points="683.8,-214.26 674.79,-214.1 681.73,-219.84 683.8,-214.26"/>
<polygon fill="#000000" stroke="#000000" points="1270.74,-219.84 1277.68,-214.1 1268.68,-214.26 1270.74,-219.84"/>
</g>
<!-- 5 -->
<g id="node6" class="node">
<title>5</title>
<path fill="#98fb98" stroke="#000000" d="M925.85,-152.5C925.85,-152.5 1026.62,-152.5 1026.62,-152.5 1032.62,-152.5 1038.62,-158.5 1038.62,-164.5 1038.62,-164.5 1038.62,-206.5 1038.62,-206.5 1038.62,-212.5 1032.62,-218.5 1026.62,-218.5 1026.62,-218.5 925.85,-218.5 925.85,-218.5 919.85,-218.5 913.85,-212.5 913.85,-206.5 913.85,-206.5 913.85,-164.5 913.85,-164.5 913.85,-158.5 919.85,-152.5 925.85,-152.5"/>
<text xml:space="preserve" text-anchor="middle" x="976.24" y="-203.3" font-family="Times,serif" font-size="14.00">phys idx = 5</text>
<polyline fill="none" stroke="#000000" points="913.85,-196.5 1038.62,-196.5"/>
<text xml:space="preserve" text-anchor="middle" x="976.24" y="-181.3" font-family="Times,serif" font-size="14.00">elem = 50.00</text>
<polyline fill="none" stroke="#000000" points="913.85,-174.5 1038.62,-174.5"/>
<text xml:space="preserve" text-anchor="middle" x="945.24" y="-159.3" font-family="Times,serif" font-size="14.00">prev = 4</text>
<polyline fill="none" stroke="#000000" points="976.62,-152.5 976.62,-174.5"/>
<text xml:space="preserve" text-anchor="middle" x="1007.62" y="-159.3" font-family="Times,serif" font-size="14.00">next = 6</text>
</g>
<!-- 4&#45;&gt;5 -->
<!-- 4&#45;&gt;5 -->
<g id="edge19" class="edge">
<title>4&#45;&gt;5</title>
<path fill="none" stroke="#000000" d="M865.86,-193.59C878.29,-193.8 891.22,-193.8 903.66,-193.59"/>
<polygon fill="#000000" stroke="#000000" points="866.25,-190.62 857.69,-193.4 866.12,-196.57 866.25,-190.62"/>
<polygon fill="#000000" stroke="#000000" points="903.56,-196.57 911.99,-193.4 903.43,-190.62 903.56,-196.57"/>
</g>
<!-- 6 -->
<g id="node7" class="node">
<title>6</title>
<path fill="#98fb98" stroke="#000000" d="M1108.62,-152.5C1108.62,-152.5 1209.39,-152.5 1209.39,-152.5 1215.39,-152.5 1221.39,-158.5 1221.39,-164.5 1221.39,-164.5 1221.39,-206.5 1221.39,-206.5 1221.39,-212.5 1215.39,-218.5 1209.39,-218.5 1209.39,-218.5 1108.62,-218.5 1108.62,-218.5 1102.62,-218.5 1096.62,-212.5 1096.62,-206.5 1096.62,-206.5 1096.62,-164.5 1096.62,-164.5 1096.62,-158.5 1102.62,-152.5 1108.62,-152.5"/>
<text xml:space="preserve" text-anchor="middle" x="1159.01" y="-203.3" font-family="Times,serif" font-size="14.00">phys idx = 6</text>
<polyline fill="none" stroke="#000000" points="1096.62,-196.5 1221.39,-196.5"/>
<text xml:space="preserve" text-anchor="middle" x="1159.01" y="-181.3" font-family="Times,serif" font-size="14.00">elem = 60.00</text>
<polyline fill="none" stroke="#000000" points="1096.62,-174.5 1221.39,-174.5"/>
<text xml:space="preserve" text-anchor="middle" x="1128.01" y="-159.3" font-family="Times,serif" font-size="14.00">prev = 5</text>
<polyline fill="none" stroke="#000000" points="1159.39,-152.5 1159.39,-174.5"/>
<text xml:space="preserve" text-anchor="middle" x="1190.39" y="-159.3" font-family="Times,serif" font-size="14.00">next = 0</text>
</g>
<!-- 5&#45;&gt;6 -->
<!-- 5&#45;&gt;6 -->
<g id="edge20" class="edge">
<title>5&#45;&gt;6</title>
<path fill="none" stroke="#000000" d="M1048.63,-193.59C1061.06,-193.8 1073.99,-193.8 1086.43,-193.59"/>
<polygon fill="#000000" stroke="#000000" points="1049.02,-190.62 1040.46,-193.4 1048.89,-196.57 1049.02,-190.62"/>
<polygon fill="#000000" stroke="#000000" points="1086.33,-196.57 1094.76,-193.4 1086.2,-190.62 1086.33,-196.57"/>
</g>
<!-- 6&#45;&gt;0 -->
<g id="edge21" class="edge">
<title>6&#45;&gt;0</title>
<path fill="none" stroke="#000000" d="M1087.19,-156.04C1071.43,-150.43 1054.64,-145.18 1038.62,-141.5 932.35,-117.12 903.5,-117.5 794.47,-117.5 609.7,-117.5 609.7,-117.5 609.7,-117.5 419.65,-117.5 368.85,-102.88 182.77,-141.5 166.77,-144.82 150.05,-149.9 134.35,-155.44"/>
<polygon fill="#000000" stroke="#000000" points="1085.91,-158.74 1094.92,-158.85 1087.95,-153.15 1085.91,-158.74"/>
<polygon fill="#000000" stroke="#000000" points="133.65,-152.53 126.67,-158.23 135.68,-158.12 133.65,-152.53"/>
</g>
<!-- 6&#45;&gt;7 -->
<!-- 8 -->
<g id="node9" class="node">
<title>8</title>
<path fill="#98fb98" stroke="#000000" d="M1474.16,-152.5C1474.16,-152.5 1574.93,-152.5 1574.93,-152.5 1580.93,-152.5 1586.93,-158.5 1586.93,-164.5 1586.93,-164.5 1586.93,-206.5 1586.93,-206.5 1586.93,-212.5 1580.93,-218.5 1574.93,-218.5 1574.93,-218.5 1474.16,-218.5 1474.16,-218.5 1468.16,-218.5 1462.16,-212.5 1462.16,-206.5 1462.16,-206.5 1462.16,-164.5 1462.16,-164.5 1462.16,-158.5 1468.16,-152.5 1474.16,-152.5"/>
<text xml:space="preserve" text-anchor="middle" x="1524.55" y="-203.3" font-family="Times,serif" font-size="14.00">phys idx = 8</text>
<polyline fill="none" stroke="#000000" points="1462.16,-196.5 1586.93,-196.5"/>
<text xml:space="preserve" text-anchor="middle" x="1524.55" y="-181.3" font-family="Times,serif" font-size="14.00">elem = 36.00</text>
<polyline fill="none" stroke="#000000" points="1462.16,-174.5 1586.93,-174.5"/>
<text xml:space="preserve" text-anchor="middle" x="1493.55" y="-159.3" font-family="Times,serif" font-size="14.00">prev = 7</text>
<polyline fill="none" stroke="#000000" points="1524.94,-152.5 1524.94,-174.5"/>
<text xml:space="preserve" text-anchor="middle" x="1555.94" y="-159.3" font-family="Times,serif" font-size="14.00">next = 4</text>
</g>
<!-- 7&#45;&gt;8 -->
<!-- 7&#45;&gt;8 -->
<g id="edge22" class="edge">
<title>7&#45;&gt;8</title>
<path fill="none" stroke="#000000" d="M1414.17,-193.59C1426.6,-193.8 1439.53,-193.8 1451.97,-193.59"/>
<polygon fill="#000000" stroke="#000000" points="1414.56,-190.62 1406,-193.4 1414.43,-196.57 1414.56,-190.62"/>
<polygon fill="#000000" stroke="#000000" points="1451.87,-196.57 1460.3,-193.4 1451.74,-190.62 1451.87,-196.57"/>
</g>
<!-- 8&#45;&gt;4 -->
<g id="edge23" class="edge">
<title>8&#45;&gt;4</title>
<path fill="none" stroke="#000000" d="M1452.76,-216.94C1437.06,-222.56 1420.29,-227.56 1404.16,-230.5 1189.78,-269.56 1128.24,-269.56 913.85,-230.5 897.73,-227.56 880.96,-222.56 865.25,-216.94"/>
<polygon fill="#000000" stroke="#000000" points="1453.51,-219.84 1460.45,-214.1 1451.45,-214.26 1453.51,-219.84"/>
<polygon fill="#000000" stroke="#000000" points="866.57,-214.26 857.57,-214.1 864.5,-219.84 866.57,-214.26"/>
</g>
<!-- 9 -->
<g id="node10" class="node">
<title>9</title>
<path fill="#82898f" stroke="#000000" d="M1656.93,-152.5C1656.93,-152.5 1762.37,-152.5 1762.37,-152.5 1768.37,-152.5 1774.37,-158.5 1774.37,-164.5 1774.37,-164.5 1774.37,-206.5 1774.37,-206.5 1774.37,-212.5 1768.37,-218.5 1762.37,-218.5 1762.37,-218.5 1656.93,-218.5 1656.93,-218.5 1650.93,-218.5 1644.93,-212.5 1644.93,-206.5 1644.93,-206.5 1644.93,-164.5 1644.93,-164.5 1644.93,-158.5 1650.93,-152.5 1656.93,-152.5"/>
<text xml:space="preserve" text-anchor="middle" x="1709.65" y="-203.3" font-family="Times,serif" font-size="14.00">phys idx = 9</text>
<polyline fill="none" stroke="#000000" points="1644.93,-196.5 1774.37,-196.5"/>
<text xml:space="preserve" text-anchor="middle" x="1709.65" y="-181.3" font-family="Times,serif" font-size="14.00">elem = &#45;6666.00</text>
<polyline fill="none" stroke="#000000" points="1644.93,-174.5 1774.37,-174.5"/>
<text xml:space="preserve" text-anchor="middle" x="1678.65" y="-159.3" font-family="Times,serif" font-size="14.00">prev = &#45;1</text>
<polyline fill="none" stroke="#000000" points="1712.37,-152.5 1712.37,-174.5"/>
<text xml:space="preserve" text-anchor="middle" x="1743.37" y="-159.3" font-family="Times,serif" font-size="14.00">next = 0</text>
</g>
<!-- 8&#45;&gt;9 -->
<!-- 9&#45;&gt;0 -->
<g id="edge24" class="edge">
<title>9&#45;&gt;0</title>
<path fill="none" stroke="#ff8c00" d="M1644.69,-211.97C1626.3,-218.81 1606.03,-225.62 1586.93,-230.5 1507.38,-250.85 1485.66,-247.47 1404.16,-257.5 865.25,-323.8 714.39,-340.94 182.77,-230.5 166.73,-227.17 149.99,-222 134.29,-216.34"/>
<polygon fill="#ff8c00" stroke="#ff8c00" points="135.61,-213.66 126.6,-213.49 133.54,-219.24 135.61,-213.66"/>
</g>
<!-- head_label -->
<g id="node11" class="node">
<title>head_label</title>
<path fill="#20b2aa" stroke="#000000" d="M47.39,-0.5C47.39,-0.5 77.39,-0.5 77.39,-0.5 83.39,-0.5 89.39,-6.5 89.39,-12.5 89.39,-12.5 89.39,-24.5 89.39,-24.5 89.39,-30.5 83.39,-36.5 77.39,-36.5 77.39,-36.5 47.39,-36.5 47.39,-36.5 41.39,-36.5 35.39,-30.5 35.39,-24.5 35.39,-24.5 35.39,-12.5 35.39,-12.5 35.39,-6.5 41.39,-0.5 47.39,-0.5"/>
<text xml:space="preserve" text-anchor="middle" x="62.39" y="-14.9" font-family="Times,serif" font-size="12.00" fill="#000000">HEAD</text>
</g>
<!-- head_label&#45;&gt;1 -->
<g id="edge3" class="edge">
<title>head_label&#45;&gt;1</title>
<path fill="none" stroke="#20b2aa" d="M83.07,-36.69C111.13,-62.61 163.34,-110.84 200.72,-145.37"/>
<polygon fill="#20b2aa" stroke="#20b2aa" points="198.61,-147.47 206.87,-151.06 202.65,-143.1 198.61,-147.47"/>
</g>
<!-- tail_label -->
<g id="node12" class="node">
<title>tail_label</title>
<path fill="#20b2aa" stroke="#000000" d="M230.16,-0.5C230.16,-0.5 260.16,-0.5 260.16,-0.5 266.16,-0.5 272.16,-6.5 272.16,-12.5 272.16,-12.5 272.16,-24.5 272.16,-24.5 272.16,-30.5 266.16,-36.5 260.16,-36.5 260.16,-36.5 230.16,-36.5 230.16,-36.5 224.16,-36.5 218.16,-30.5 218.16,-24.5 218.16,-24.5 218.16,-12.5 218.16,-12.5 218.16,-6.5 224.16,-0.5 230.16,-0.5"/>
<text xml:space="preserve" text-anchor="middle" x="245.16" y="-14.9" font-family="Times,serif" font-size="12.00" fill="#000000">TAIL</text>
</g>
<!-- head_label&#45;&gt;tail_label -->
<!-- tail_label&#45;&gt;6 -->
<g id="edge4" class="edge">
<title>tail_label&#45;&gt;6</title>
<path fill="none" stroke="#20b2aa" d="M272.46,-26.34C296.49,-33.21 333.1,-42.93 365.54,-48.5 472.96,-66.95 500.7,-71.5 609.7,-71.5 609.7,-71.5 609.7,-71.5 794.47,-71.5 903.74,-71.5 936.68,-61.14 1038.62,-100.5 1065.79,-110.99 1092.52,-129.09 1113.79,-145.89"/>
<polygon fill="#20b2aa" stroke="#20b2aa" points="1111.7,-148.04 1120.18,-151.06 1115.44,-143.41 1111.7,-148.04"/>
</g>
<!-- free_label -->
<g id="node13" class="node">
<title>free_label</title>
<path fill="#20b2aa" stroke="#000000" d="M412.93,-0.5C412.93,-0.5 442.93,-0.5 442.93,-0.5 448.93,-0.5 454.93,-6.5 454.93,-12.5 454.93,-12.5 454.93,-24.5 454.93,-24.5 454.93,-30.5 448.93,-36.5 442.93,-36.5 442.93,-36.5 412.93,-36.5 412.93,-36.5 406.93,-36.5 400.93,-30.5 400.93,-24.5 400.93,-24.5 400.93,-12.5 400.93,-12.5 400.93,-6.5 406.93,-0.5 412.93,-0.5"/>
<text xml:space="preserve" text-anchor="middle" x="427.93" y="-14.9" font-family="Times,serif" font-size="12.00" fill="#000000">FREE</text>
</g>
<!-- tail_label&#45;&gt;free_label -->
<!-- free_label&#45;&gt;9 -->
<g id="edge5" class="edge">
<title>free_label&#45;&gt;9</title>
<path fill="none" stroke="#20b2aa" d="M455.38,-18.99C515.35,-20.06 666.23,-22.5 792.47,-22.5 792.47,-22.5 792.47,-22.5 1342.78,-22.5 1464.06,-22.5 1589.91,-98.16 1657.81,-146.38"/>
<polygon fill="#20b2aa" stroke="#20b2aa" points="1655.93,-148.7 1664.57,-151.24 1659.4,-143.86 1655.93,-148.7"/>
</g>
</g>
</svg>
