<?xml version="1.0" encoding="UTF-8" standalone="no"?>
<!DOCTYPE svg PUBLIC "-//W3C//DTD SVG 1.1//EN"
 "http://www.w3.org/Graphics/SVG/1.1/DTD/svg11.dtd">
<!-- Generated by graphviz version 14.0.2 (20251019.1705)
 -->
<!-- Title: G Pages: 1 -->
<svg width="1757pt" height="249pt"
 viewBox="0.00 0.00 1757.00 249.00" xmlns="http://www.w3.org/2000/svg" xmlns:xlink="http://www.w3.org/1999/xlink">
<g id="graph0" class="graph" transform="scale(1 1) rotate(0) translate(4 244.5)">
<title>G</title>
<polygon fill="#fffafa" stroke="none" points="-4,4 -4,-244.5 1752.8,-244.5 1752.8,4 -4,4"/>
<!-- 0 -->
<g id="node1" class="node">
<title>0</title>
<path fill="#cd5c5c" stroke="#000000" d="M12,-27.5C12,-27.5 112.77,-27.5 112.77,-27.5 118.77,-27.5 124.77,-33.5 124.77,-39.5 124.77,-39.5 124.77,-81.5 124.77,-81.5 124.77,-87.5 118.77,-93.5 112.77,-93.5 112.77,-93.5 12,-93.5 12,-93.5 6,-93.5 0,-87.5 0,-81.5 0,-81.5 0,-39.5 0,-39.5 0,-33.5 6,-27.5 12,-27.5"/>
<text xml:space="preserve" text-anchor="middle" x="62.39" y="-78.3" font-family="Times,serif" font-size="14.00">phys idx = 0</text>
<polyline fill="none" stroke="#000000" points="0,-71.5 124.77,-71.5"/>
<text xml:space="preserve" text-anchor="middle" x="62.39" y="-56.3" font-family="Times,serif" font-size="14.00">elem = &#45;6666.00</text>
<polyline fill="none" stroke="#000000" points="0,-49.5 124.77,-49.5"/>
<text xml:space="preserve" text-anchor="middle" x="31.39" y="-34.3" font-family="Times,serif" font-size="14.00">prev = 5</text>
<polyline fill="none" stroke="#000000" points="62.77,-27.5 62.77,-49.5"/>
<text xml:space="preserve" text-anchor="middle" x="93.77" y="-34.3" font-family="Times,serif" font-size="14.00">next = 1</text>
</g>
<!-- 1 -->
<g id="node2" class="node">
<title>1</title>
<path fill="#98fb98" stroke="#000000" d="M172.77,-27.5C172.77,-27.5 273.54,-27.5 273.54,-27.5 279.54,-27.5 285.54,-33.5 285.54,-39.5 285.54,-39.5 285.54,-81.5 285.54,-81.5 285.54,-87.5 279.54,-93.5 273.54,-93.5 273.54,-93.5 172.77,-93.5 172.77,-93.5 166.77,-93.5 160.77,-87.5 160.77,-81.5 160.77,-81.5 160.77,-39.5 160.77,-39.5 160.77,-33.5 166.77,-27.5 172.77,-27.5"/>
<text xml:space="preserve" text-anchor="middle" x="223.16" y="-78.3" font-family="Times,serif" font-size="14.00">phys idx = 1</text>
<polyline fill="none" stroke="#000000" points="160.77,-71.5 285.54,-71.5"/>
<text xml:space="preserve" text-anchor="middle" x="223.16" y="-56.3" font-family="Times,serif" font-size="14.00">elem = 11.00</text>
<polyline fill="none" stroke="#000000" points="160.77,-49.5 285.54,-49.5"/>
<text xml:space="preserve" text-anchor="middle" x="192.16" y="-34.3" font-family="Times,serif" font-size="14.00">prev = 0</text>
<polyline fill="none" stroke="#000000" points="223.54,-27.5 223.54,-49.5"/>
<text xml:space="preserve" text-anchor="middle" x="254.54" y="-34.3" font-family="Times,serif" font-size="14.00">next = 2</text>
</g>
<!-- 0&#45;&gt;1 -->
<!-- 0&#45;&gt;1 -->
<g id="edge11" class="edge">
<title>0&#45;&gt;1</title>
<path fill="none" stroke="#6a7075" d="M135.02,-71.67C135.02,-71.67 150.43,-71.67 150.43,-71.67"/>
<polygon fill="#6a7075" stroke="#6a7075" points="135.02,-68.69 126.52,-71.67 135.02,-74.64 135.02,-68.69"/>
<polygon fill="#6a7075" stroke="#6a7075" points="150.43,-74.64 158.93,-71.67 150.43,-68.69 150.43,-74.64"/>
</g>
<!-- 2 -->
<g id="node3" class="node">
<title>2</title>
<path fill="#98fb98" stroke="#000000" d="M333.54,-27.5C333.54,-27.5 434.31,-27.5 434.31,-27.5 440.31,-27.5 446.31,-33.5 446.31,-39.5 446.31,-39.5 446.31,-81.5 446.31,-81.5 446.31,-87.5 440.31,-93.5 434.31,-93.5 434.31,-93.5 333.54,-93.5 333.54,-93.5 327.54,-93.5 321.54,-87.5 321.54,-81.5 321.54,-81.5 321.54,-39.5 321.54,-39.5 321.54,-33.5 327.54,-27.5 333.54,-27.5"/>
<text xml:space="preserve" text-anchor="middle" x="383.93" y="-78.3" font-family="Times,serif" font-size="14.00">phys idx = 2</text>
<polyline fill="none" stroke="#000000" points="321.54,-71.5 446.31,-71.5"/>
<text xml:space="preserve" text-anchor="middle" x="383.93" y="-56.3" font-family="Times,serif" font-size="14.00">elem = 20.00</text>
<polyline fill="none" stroke="#000000" points="321.54,-49.5 446.31,-49.5"/>
<text xml:space="preserve" text-anchor="middle" x="352.93" y="-34.3" font-family="Times,serif" font-size="14.00">prev = 1</text>
<polyline fill="none" stroke="#000000" points="384.31,-27.5 384.31,-49.5"/>
<text xml:space="preserve" text-anchor="middle" x="415.31" y="-34.3" font-family="Times,serif" font-size="14.00">next = 3</text>
</g>
<!-- 1&#45;&gt;2 -->
<!-- 1&#45;&gt;2 -->
<g id="edge12" class="edge">
<title>1&#45;&gt;2</title>
<path fill="none" stroke="#6a7075" d="M295.79,-71.67C295.79,-71.67 311.2,-71.67 311.2,-71.67"/>
<polygon fill="#6a7075" stroke="#6a7075" points="295.79,-68.69 287.29,-71.67 295.79,-74.64 295.79,-68.69"/>
<polygon fill="#6a7075" stroke="#6a7075" points="311.2,-74.64 319.7,-71.67 311.2,-68.69 311.2,-74.64"/>
</g>
<!-- 3 -->
<g id="node4" class="node">
<title>3</title>
<path fill="#98fb98" stroke="#000000" d="M494.31,-27.5C494.31,-27.5 595.08,-27.5 595.08,-27.5 601.08,-27.5 607.08,-33.5 607.08,-39.5 607.08,-39.5 607.08,-81.5 607.08,-81.5 607.08,-87.5 601.08,-93.5 595.08,-93.5 595.08,-93.5 494.31,-93.5 494.31,-93.5 488.31,-93.5 482.31,-87.5 482.31,-81.5 482.31,-81.5 482.31,-39.5 482.31,-39.5 482.31,-33.5 488.31,-27.5 494.31,-27.5"/>
<text xml:space="preserve" text-anchor="middle" x="544.7" y="-78.3" font-family="Times,serif" font-size="14.00">phys idx = 3</text>
<polyline fill="none" stroke="#000000" points="482.31,-71.5 607.08,-71.5"/>
<text xml:space="preserve" text-anchor="middle" x="544.7" y="-56.3" font-family="Times,serif" font-size="14.00">elem = 30.00</text>
<polyline fill="none" stroke="#000000" points="482.31,-49.5 607.08,-49.5"/>
<text xml:space="preserve" text-anchor="middle" x="513.7" y="-34.3" font-family="Times,serif" font-size="14.00">prev = 2</text>
<polyline fill="none" stroke="#000000" points="545.08,-27.5 545.08,-49.5"/>
<text xml:space="preserve" text-anchor="middle" x="576.08" y="-34.3" font-family="Times,serif" font-size="14.00">next = 9</text>
</g>
<!-- 2&#45;&gt;3 -->
<!-- 2&#45;&gt;3 -->
<g id="edge13" class="edge">
<title>2&#45;&gt;3</title>
<path fill="none" stroke="#6a7075" d="M456.56,-71.67C456.56,-71.67 471.97,-71.67 471.97,-71.67"/>
<polygon fill="#6a7075" stroke="#6a7075" points="456.56,-68.69 448.06,-71.67 456.56,-74.64 456.56,-68.69"/>
<polygon fill="#6a7075" stroke="#6a7075" points="471.97,-74.64 480.47,-71.67 471.97,-68.69 471.97,-74.64"/>
</g>
<!-- 4 -->
<g id="node5" class="node">
<title>4</title>
<path fill="#98fb98" stroke="#000000" d="M655.08,-27.5C655.08,-27.5 755.85,-27.5 755.85,-27.5 761.85,-27.5 767.85,-33.5 767.85,-39.5 767.85,-39.5 767.85,-81.5 767.85,-81.5 767.85,-87.5 761.85,-93.5 755.85,-93.5 755.85,-93.5 655.08,-93.5 655.08,-93.5 649.08,-93.5 643.08,-87.5 643.08,-81.5 643.08,-81.5 643.08,-39.5 643.08,-39.5 643.08,-33.5 649.08,-27.5 655.08,-27.5"/>
<text xml:space="preserve" text-anchor="middle" x="705.47" y="-78.3" font-family="Times,serif" font-size="14.00">phys idx = 4</text>
<polyline fill="none" stroke="#000000" points="643.08,-71.5 767.85,-71.5"/>
<text xml:space="preserve" text-anchor="middle" x="705.47" y="-56.3" font-family="Times,serif" font-size="14.00">elem = 40.00</text>
<polyline fill="none" stroke="#000000" points="643.08,-49.5 767.85,-49.5"/>
<text xml:space="preserve" text-anchor="middle" x="674.47" y="-34.3" font-family="Times,serif" font-size="14.00">prev = 8</text>
<polyline fill="none" stroke="#000000" points="705.85,-27.5 705.85,-49.5"/>
<text xml:space="preserve" text-anchor="middle" x="736.85" y="-34.3" font-family="Times,serif" font-size="14.00">next = 5</text>
</g>
<!-- 3&#45;&gt;4 -->
<!-- 9 -->
<g id="node9" class="node">
<title>9</title>
<path fill="#98fb98" stroke="#000000" d="M1298.16,-27.5C1298.16,-27.5 1398.93,-27.5 1398.93,-27.5 1404.93,-27.5 1410.93,-33.5 1410.93,-39.5 1410.93,-39.5 1410.93,-81.5 1410.93,-81.5 1410.93,-87.5 1404.93,-93.5 1398.93,-93.5 1398.93,-93.5 1298.16,-93.5 1298.16,-93.5 1292.16,-93.5 1286.16,-87.5 1286.16,-81.5 1286.16,-81.5 1286.16,-39.5 1286.16,-39.5 1286.16,-33.5 1292.16,-27.5 1298.16,-27.5"/>
<text xml:space="preserve" text-anchor="middle" x="1348.55" y="-78.3" font-family="Times,serif" font-size="14.00">phys idx = 9</text>
<polyline fill="none" stroke="#000000" points="1286.16,-71.5 1410.93,-71.5"/>
<text xml:space="preserve" text-anchor="middle" x="1348.55" y="-56.3" font-family="Times,serif" font-size="14.00">elem = 32.00</text>
<polyline fill="none" stroke="#000000" points="1286.16,-49.5 1410.93,-49.5"/>
<text xml:space="preserve" text-anchor="middle" x="1317.55" y="-34.3" font-family="Times,serif" font-size="14.00">prev = 3</text>
<polyline fill="none" stroke="#000000" points="1348.94,-27.5 1348.94,-49.5"/>
<text xml:space="preserve" text-anchor="middle" x="1379.94" y="-34.3" font-family="Times,serif" font-size="14.00">next = 7</text>
</g>
<!-- 3&#45;&gt;9 -->
<g id="edge14" class="edge">
<title>3&#45;&gt;9</title>
<path fill="none" stroke="#6a7075" d="M544.8,-103.7C544.8,-103.7 544.8,-106.17 544.8,-106.17 544.8,-106.17 1348.8,-106.17 1348.8,-106.17 1348.8,-106.17 1348.8,-103.7 1348.8,-103.7"/>
<polygon fill="#6a7075" stroke="#6a7075" points="547.77,-103.7 544.8,-95.2 541.82,-103.7 547.77,-103.7"/>
<polygon fill="#6a7075" stroke="#6a7075" points="1351.77,-103.7 1348.8,-95.2 1345.82,-103.7 1351.77,-103.7"/>
</g>
<!-- 5 -->
<g id="node6" class="node">
<title>5</title>
<path fill="#98fb98" stroke="#000000" d="M815.85,-27.5C815.85,-27.5 916.62,-27.5 916.62,-27.5 922.62,-27.5 928.62,-33.5 928.62,-39.5 928.62,-39.5 928.62,-81.5 928.62,-81.5 928.62,-87.5 922.62,-93.5 916.62,-93.5 916.62,-93.5 815.85,-93.5 815.85,-93.5 809.85,-93.5 803.85,-87.5 803.85,-81.5 803.85,-81.5 803.85,-39.5 803.85,-39.5 803.85,-33.5 809.85,-27.5 815.85,-27.5"/>
<text xml:space="preserve" text-anchor="middle" x="866.24" y="-78.3" font-family="Times,serif" font-size="14.00">phys idx = 5</text>
<polyline fill="none" stroke="#000000" points="803.85,-71.5 928.62,-71.5"/>
<text xml:space="preserve" text-anchor="middle" x="866.24" y="-56.3" font-family="Times,serif" font-size="14.00">elem = 50.00</text>
<polyline fill="none" stroke="#000000" points="803.85,-49.5 928.62,-49.5"/>
<text xml:space="preserve" text-anchor="middle" x="835.24" y="-34.3" font-family="Times,serif" font-size="14.00">prev = 4</text>
<polyline fill="none" stroke="#000000" points="866.62,-27.5 866.62,-49.5"/>
<text xml:space="preserve" text-anchor="middle" x="897.62" y="-34.3" font-family="Times,serif" font-size="14.00">next = 0</text>
</g>
<!-- 4&#45;&gt;5 -->
<!-- 4&#45;&gt;5 -->
<g id="edge15" class="edge">
<title>4&#45;&gt;5</title>
<path fill="none" stroke="#6a7075" d="M778.1,-71.67C778.1,-71.67 793.51,-71.67 793.51,-71.67"/>
<polygon fill="#6a7075" stroke="#6a7075" points="778.1,-68.69 769.6,-71.67 778.1,-74.64 778.1,-68.69"/>
<polygon fill="#6a7075" stroke="#6a7075" points="793.51,-74.64 802.01,-71.67 793.51,-68.69 793.51,-74.64"/>
</g>
<!-- 5&#45;&gt;0 -->
<g id="edge16" class="edge">
<title>5&#45;&gt;0</title>
<path fill="none" stroke="#6a7075" d="M821.8,-103.82C821.8,-103.82 821.8,-118.33 821.8,-118.33 821.8,-118.33 62.8,-118.33 62.8,-118.33 62.8,-118.33 62.8,-103.82 62.8,-103.82"/>
<polygon fill="#6a7075" stroke="#6a7075" points="824.77,-103.82 821.8,-95.32 818.82,-103.82 824.77,-103.82"/>
<polygon fill="#6a7075" stroke="#6a7075" points="65.77,-103.82 62.8,-95.32 59.82,-103.82 65.77,-103.82"/>
</g>
<!-- 7 -->
<g id="node7" class="node">
<title>7</title>
<path fill="#98fb98" stroke="#000000" d="M976.62,-27.5C976.62,-27.5 1077.39,-27.5 1077.39,-27.5 1083.39,-27.5 1089.39,-33.5 1089.39,-39.5 1089.39,-39.5 1089.39,-81.5 1089.39,-81.5 1089.39,-87.5 1083.39,-93.5 1077.39,-93.5 1077.39,-93.5 976.62,-93.5 976.62,-93.5 970.62,-93.5 964.62,-87.5 964.62,-81.5 964.62,-81.5 964.62,-39.5 964.62,-39.5 964.62,-33.5 970.62,-27.5 976.62,-27.5"/>
<text xml:space="preserve" text-anchor="middle" x="1027.01" y="-78.3" font-family="Times,serif" font-size="14.00">phys idx = 7</text>
<polyline fill="none" stroke="#000000" points="964.62,-71.5 1089.39,-71.5"/>
<text xml:space="preserve" text-anchor="middle" x="1027.01" y="-56.3" font-family="Times,serif" font-size="14.00">elem = 35.00</text>
<polyline fill="none" stroke="#000000" points="964.62,-49.5 1089.39,-49.5"/>
<text xml:space="preserve" text-anchor="middle" x="996.01" y="-34.3" font-family="Times,serif" font-size="14.00">prev = 9</text>
<polyline fill="none" stroke="#000000" points="1027.39,-27.5 1027.39,-49.5"/>
<text xml:space="preserve" text-anchor="middle" x="1058.39" y="-34.3" font-family="Times,serif" font-size="14.00">next = 8</text>
</g>
<!-- 5&#45;&gt;7 -->
<!-- 8 -->
<g id="node8" class="node">
<title>8</title>
<path fill="#98fb98" stroke="#000000" d="M1137.39,-27.5C1137.39,-27.5 1238.16,-27.5 1238.16,-27.5 1244.16,-27.5 1250.16,-33.5 1250.16,-39.5 1250.16,-39.5 1250.16,-81.5 1250.16,-81.5 1250.16,-87.5 1244.16,-93.5 1238.16,-93.5 1238.16,-93.5 1137.39,-93.5 1137.39,-93.5 1131.39,-93.5 1125.39,-87.5 1125.39,-81.5 1125.39,-81.5 1125.39,-39.5 1125.39,-39.5 1125.39,-33.5 1131.39,-27.5 1137.39,-27.5"/>
<text xml:space="preserve" text-anchor="middle" x="1187.78" y="-78.3" font-family="Times,serif" font-size="14.00">phys idx = 8</text>
<polyline fill="none" stroke="#000000" points="1125.39,-71.5 1250.16,-71.5"/>
<text xml:space="preserve" text-anchor="middle" x="1187.78" y="-56.3" font-family="Times,serif" font-size="14.00">elem = 36.00</text>
<polyline fill="none" stroke="#000000" points="1125.39,-49.5 1250.16,-49.5"/>
<text xml:space="preserve" text-anchor="middle" x="1156.78" y="-34.3" font-family="Times,serif" font-size="14.00">prev = 7</text>
<polyline fill="none" stroke="#000000" points="1188.17,-27.5 1188.17,-49.5"/>
<text xml:space="preserve" text-anchor="middle" x="1219.16" y="-34.3" font-family="Times,serif" font-size="14.00">next = 4</text>
</g>
<!-- 7&#45;&gt;8 -->
<!-- 7&#45;&gt;8 -->
<g id="edge18" class="edge">
<title>7&#45;&gt;8</title>
<path fill="none" stroke="#6a7075" d="M1099.64,-71.67C1099.64,-71.67 1115.05,-71.67 1115.05,-71.67"/>
<polygon fill="#6a7075" stroke="#6a7075" points="1099.64,-68.69 1091.14,-71.67 1099.64,-74.64 1099.64,-68.69"/>
<polygon fill="#6a7075" stroke="#6a7075" points="1115.05,-74.64 1123.55,-71.67 1115.05,-68.69 1115.05,-74.64"/>
</g>
<!-- 8&#45;&gt;4 -->
<g id="edge19" class="edge">
<title>8&#45;&gt;4</title>
<path fill="none" stroke="#6a7075" d="M1187.8,-17C1187.8,-17 1187.8,-9 1187.8,-9 1187.8,-9 705.8,-9 705.8,-9 705.8,-9 705.8,-17 705.8,-17"/>
<polygon fill="#6a7075" stroke="#6a7075" points="1184.82,-17 1187.8,-25.5 1190.77,-17 1184.82,-17"/>
<polygon fill="#6a7075" stroke="#6a7075" points="702.82,-17 705.8,-25.5 708.77,-17 702.82,-17"/>
</g>
<!-- 8&#45;&gt;9 -->
<!-- 9&#45;&gt;7 -->
<g id="edge20" class="edge">
<title>9&#45;&gt;7</title>
<path fill="none" stroke="#6a7075" d="M1348.8,-18.9C1348.8,-18.9 1348.8,-18 1348.8,-18 1348.8,-18 1026.8,-18 1026.8,-18 1026.8,-18 1026.8,-18.9 1026.8,-18.9"/>
<polygon fill="#6a7075" stroke="#6a7075" points="1345.82,-17 1348.8,-25.5 1351.77,-17 1345.82,-17"/>
<polygon fill="#6a7075" stroke="#6a7075" points="1023.82,-17 1026.8,-25.5 1029.77,-17 1023.82,-17"/>
</g>
<!-- 6 -->
<g id="node10" class="node">
<title>6</title>
<path fill="#82898f" stroke="#000000" d="M1458.93,-27.5C1458.93,-27.5 1571.37,-27.5 1571.37,-27.5 1577.37,-27.5 1583.37,-33.5 1583.37,-39.5 1583.37,-39.5 1583.37,-81.5 1583.37,-81.5 1583.37,-87.5 1577.37,-93.5 1571.37,-93.5 1571.37,-93.5 1458.93,-93.5 1458.93,-93.5 1452.93,-93.5 1446.93,-87.5 1446.93,-81.5 1446.93,-81.5 1446.93,-39.5 1446.93,-39.5 1446.93,-33.5 1452.93,-27.5 1458.93,-27.5"/>
<text xml:space="preserve" text-anchor="middle" x="1515.15" y="-78.3" font-family="Times,serif" font-size="14.00">phys idx = 6</text>
<polyline fill="none" stroke="#000000" points="1446.93,-71.5 1583.37,-71.5"/>
<text xml:space="preserve" text-anchor="middle" x="1515.15" y="-56.3" font-family="Times,serif" font-size="14.00">elem = &#45;6666.00</text>
<polyline fill="none" stroke="#000000" points="1446.93,-49.5 1583.37,-49.5"/>
<text xml:space="preserve" text-anchor="middle" x="1480.65" y="-34.3" font-family="Times,serif" font-size="14.00">prev = &#45;1</text>
<polyline fill="none" stroke="#000000" points="1514.37,-27.5 1514.37,-49.5"/>
<text xml:space="preserve" text-anchor="middle" x="1548.87" y="-34.3" font-family="Times,serif" font-size="14.00">next = 10</text>
</g>
<!-- 9&#45;&gt;6 -->
<!-- 10 -->
<g id="node11" class="node">
<title>10</title>
<path fill="#82898f" stroke="#000000" d="M1631.37,-27.5C1631.37,-27.5 1736.8,-27.5 1736.8,-27.5 1742.8,-27.5 1748.8,-33.5 1748.8,-39.5 1748.8,-39.5 1748.8,-81.5 1748.8,-81.5 1748.8,-87.5 1742.8,-93.5 1736.8,-93.5 1736.8,-93.5 1631.37,-93.5 1631.37,-93.5 1625.37,-93.5 1619.37,-87.5 1619.37,-81.5 1619.37,-81.5 1619.37,-39.5 1619.37,-39.5 1619.37,-33.5 1625.37,-27.5 1631.37,-27.5"/>
<text xml:space="preserve" text-anchor="middle" x="1684.08" y="-78.3" font-family="Times,serif" font-size="14.00">phys idx = 10</text>
<polyline fill="none" stroke="#000000" points="1619.37,-71.5 1748.8,-71.5"/>
<text xml:space="preserve" text-anchor="middle" x="1684.08" y="-56.3" font-family="Times,serif" font-size="14.00">elem = &#45;6666.00</text>
<polyline fill="none" stroke="#000000" points="1619.37,-49.5 1748.8,-49.5"/>
<text xml:space="preserve" text-anchor="middle" x="1653.08" y="-34.3" font-family="Times,serif" font-size="14.00">prev = &#45;1</text>
<polyline fill="none" stroke="#000000" points="1686.8,-27.5 1686.8,-49.5"/>
<text xml:space="preserve" text-anchor="middle" x="1717.8" y="-34.3" font-family="Times,serif" font-size="14.00">next = 0</text>
</g>
<!-- 6&#45;&gt;10 -->
<!-- 6&#45;&gt;10 -->
<g id="edge17" class="edge">
<title>6&#45;&gt;10</title>
<path fill="none" stroke="#44944a" d="M1583.86,-49.33C1583.86,-49.33 1608.97,-49.33 1608.97,-49.33"/>
<polygon fill="#44944a" stroke="#44944a" points="1608.97,-52.31 1617.47,-49.33 1608.97,-46.36 1608.97,-52.31"/>
</g>
<!-- 10&#45;&gt;0 -->
<g id="edge21" class="edge">
<title>10&#45;&gt;0</title>
<path fill="none" stroke="#44944a" d="M1683.8,-27.06C1683.8,-13.07 1683.8,0 1683.8,0 1683.8,0 62.8,0 62.8,0 62.8,0 62.8,-17.05 62.8,-17.05"/>
<polygon fill="#44944a" stroke="#44944a" points="59.82,-17.05 62.8,-25.55 65.77,-17.05 59.82,-17.05"/>
</g>
<!-- head_label -->
<g id="node12" class="node">
<title>head_label</title>
<polygon fill="#879eac" stroke="#fff4cc" points="250.16,-166.5 196.16,-166.5 196.16,-130.5 250.16,-130.5 250.16,-166.5"/>
<text xml:space="preserve" text-anchor="middle" x="223.16" y="-144.9" font-family="Times,serif" font-size="12.00" fill="#fff4cc">HEAD</text>
</g>
<!-- head_label&#45;&gt;1 -->
<g id="edge22" class="edge">
<title>head_label&#45;&gt;1</title>
<path fill="none" stroke="#fff4cc" d="M222.8,-130.27C222.8,-130.27 222.8,-103.66 222.8,-103.66"/>
<polygon fill="#fff4cc" stroke="#fff4cc" points="225.77,-103.66 222.8,-95.16 219.82,-103.66 225.77,-103.66"/>
</g>
<!-- tail_label -->
<g id="node13" class="node">
<title>tail_label</title>
<polygon fill="#879eac" stroke="#fff4cc" points="893.24,-166.5 839.24,-166.5 839.24,-130.5 893.24,-130.5 893.24,-166.5"/>
<text xml:space="preserve" text-anchor="middle" x="866.24" y="-144.9" font-family="Times,serif" font-size="12.00" fill="#fff4cc">TAIL</text>
</g>
<!-- tail_label&#45;&gt;5 -->
<g id="edge23" class="edge">
<title>tail_label&#45;&gt;5</title>
<path fill="none" stroke="#fff4cc" d="M865.8,-130.27C865.8,-130.27 865.8,-103.66 865.8,-103.66"/>
<polygon fill="#fff4cc" stroke="#fff4cc" points="868.77,-103.66 865.8,-95.16 862.82,-103.66 868.77,-103.66"/>
</g>
<!-- free_label -->
<g id="node14" class="node">
<title>free_label</title>
<polygon fill="#879eac" stroke="#fff4cc" points="1542.15,-240.5 1488.15,-240.5 1488.15,-204.5 1542.15,-204.5 1542.15,-240.5"/>
<text xml:space="preserve" text-anchor="middle" x="1515.15" y="-218.9" font-family="Times,serif" font-size="12.00" fill="#fff4cc">FREE</text>
</g>
<!-- free_label&#45;&gt;6 -->
<g id="edge24" class="edge">
<title>free_label&#45;&gt;6</title>
<path fill="none" stroke="#fff4cc" d="M1514.8,-204.23C1514.8,-204.23 1514.8,-103.88 1514.8,-103.88"/>
<polygon fill="#fff4cc" stroke="#fff4cc" points="1517.77,-103.88 1514.8,-95.38 1511.82,-103.88 1517.77,-103.88"/>
</g>
</g>
</svg>
