<?xml version="1.0" encoding="UTF-8" standalone="no"?>
<!DOCTYPE svg PUBLIC "-//W3C//DTD SVG 1.1//EN"
 "http://www.w3.org/Graphics/SVG/1.1/DTD/svg11.dtd">
<!-- Generated by graphviz version 14.0.2 (20251019.1705)
 -->
<!-- Title: G Pages: 1 -->
<svg width="3717pt" height="446pt"
 viewBox="0.00 0.00 3717.00 446.00" xmlns="http://www.w3.org/2000/svg" xmlns:xlink="http://www.w3.org/1999/xlink">
<g id="graph0" class="graph" transform="scale(1 1) rotate(0) translate(4 442.35)">
<title>G</title>
<polygon fill="#fffafa" stroke="none" points="-4,4 -4,-442.35 3713.37,-442.35 3713.37,4 -4,4"/>
<!-- 0 -->
<g id="node1" class="node">
<title>0</title>
<path fill="#cd5c5c" stroke="#000000" d="M12,-198.5C12,-198.5 119.77,-198.5 119.77,-198.5 125.77,-198.5 131.77,-204.5 131.77,-210.5 131.77,-210.5 131.77,-252.5 131.77,-252.5 131.77,-258.5 125.77,-264.5 119.77,-264.5 119.77,-264.5 12,-264.5 12,-264.5 6,-264.5 0,-258.5 0,-252.5 0,-252.5 0,-210.5 0,-210.5 0,-204.5 6,-198.5 12,-198.5"/>
<text xml:space="preserve" text-anchor="middle" x="65.89" y="-249.3" font-family="Times,serif" font-size="14.00">phys idx = 0</text>
<polyline fill="none" stroke="#000000" points="0,-242.5 131.77,-242.5"/>
<text xml:space="preserve" text-anchor="middle" x="65.89" y="-227.3" font-family="Times,serif" font-size="14.00">elem = &#45;6666.00</text>
<polyline fill="none" stroke="#000000" points="0,-220.5 131.77,-220.5"/>
<text xml:space="preserve" text-anchor="middle" x="34.89" y="-205.3" font-family="Times,serif" font-size="14.00">prev = 10</text>
<polyline fill="none" stroke="#000000" points="69.77,-198.5 69.77,-220.5"/>
<text xml:space="preserve" text-anchor="middle" x="100.77" y="-205.3" font-family="Times,serif" font-size="14.00">next = 1</text>
</g>
<!-- 1 -->
<g id="node2" class="node">
<title>1</title>
<path fill="#98fb98" stroke="#000000" d="M201.77,-198.5C201.77,-198.5 302.54,-198.5 302.54,-198.5 308.54,-198.5 314.54,-204.5 314.54,-210.5 314.54,-210.5 314.54,-252.5 314.54,-252.5 314.54,-258.5 308.54,-264.5 302.54,-264.5 302.54,-264.5 201.77,-264.5 201.77,-264.5 195.77,-264.5 189.77,-258.5 189.77,-252.5 189.77,-252.5 189.77,-210.5 189.77,-210.5 189.77,-204.5 195.77,-198.5 201.77,-198.5"/>
<text xml:space="preserve" text-anchor="middle" x="252.16" y="-249.3" font-family="Times,serif" font-size="14.00">phys idx = 1</text>
<polyline fill="none" stroke="#000000" points="189.77,-242.5 314.54,-242.5"/>
<text xml:space="preserve" text-anchor="middle" x="252.16" y="-227.3" font-family="Times,serif" font-size="14.00">elem = 11.00</text>
<polyline fill="none" stroke="#000000" points="189.77,-220.5 314.54,-220.5"/>
<text xml:space="preserve" text-anchor="middle" x="221.16" y="-205.3" font-family="Times,serif" font-size="14.00">prev = 0</text>
<polyline fill="none" stroke="#000000" points="252.54,-198.5 252.54,-220.5"/>
<text xml:space="preserve" text-anchor="middle" x="283.54" y="-205.3" font-family="Times,serif" font-size="14.00">next = 2</text>
</g>
<!-- 0&#45;&gt;1 -->
<!-- 0&#45;&gt;1 -->
<g id="edge25" class="edge">
<title>0&#45;&gt;1</title>
<path fill="none" stroke="#000000" d="M141.85,-239.62C154.32,-239.81 167.23,-239.79 179.61,-239.56"/>
<polygon fill="#000000" stroke="#000000" points="142.18,-236.65 133.62,-239.46 142.06,-242.6 142.18,-236.65"/>
<polygon fill="#000000" stroke="#000000" points="179.47,-242.54 187.9,-239.37 179.33,-236.59 179.47,-242.54"/>
</g>
<!-- 2 -->
<g id="node3" class="node">
<title>2</title>
<path fill="#98fb98" stroke="#000000" d="M384.54,-198.5C384.54,-198.5 485.31,-198.5 485.31,-198.5 491.31,-198.5 497.31,-204.5 497.31,-210.5 497.31,-210.5 497.31,-252.5 497.31,-252.5 497.31,-258.5 491.31,-264.5 485.31,-264.5 485.31,-264.5 384.54,-264.5 384.54,-264.5 378.54,-264.5 372.54,-258.5 372.54,-252.5 372.54,-252.5 372.54,-210.5 372.54,-210.5 372.54,-204.5 378.54,-198.5 384.54,-198.5"/>
<text xml:space="preserve" text-anchor="middle" x="434.93" y="-249.3" font-family="Times,serif" font-size="14.00">phys idx = 2</text>
<polyline fill="none" stroke="#000000" points="372.54,-242.5 497.31,-242.5"/>
<text xml:space="preserve" text-anchor="middle" x="434.93" y="-227.3" font-family="Times,serif" font-size="14.00">elem = 20.00</text>
<polyline fill="none" stroke="#000000" points="372.54,-220.5 497.31,-220.5"/>
<text xml:space="preserve" text-anchor="middle" x="403.93" y="-205.3" font-family="Times,serif" font-size="14.00">prev = 1</text>
<polyline fill="none" stroke="#000000" points="435.31,-198.5 435.31,-220.5"/>
<text xml:space="preserve" text-anchor="middle" x="466.31" y="-205.3" font-family="Times,serif" font-size="14.00">next = 3</text>
</g>
<!-- 1&#45;&gt;2 -->
<!-- 1&#45;&gt;2 -->
<g id="edge26" class="edge">
<title>1&#45;&gt;2</title>
<path fill="none" stroke="#000000" d="M324.55,-239.59C336.98,-239.8 349.91,-239.8 362.35,-239.59"/>
<polygon fill="#000000" stroke="#000000" points="324.94,-236.62 316.37,-239.4 324.81,-242.57 324.94,-236.62"/>
<polygon fill="#000000" stroke="#000000" points="362.25,-242.57 370.68,-239.4 362.11,-236.62 362.25,-242.57"/>
</g>
<!-- 3 -->
<g id="node4" class="node">
<title>3</title>
<path fill="#98fb98" stroke="#000000" d="M567.31,-198.5C567.31,-198.5 668.08,-198.5 668.08,-198.5 674.08,-198.5 680.08,-204.5 680.08,-210.5 680.08,-210.5 680.08,-252.5 680.08,-252.5 680.08,-258.5 674.08,-264.5 668.08,-264.5 668.08,-264.5 567.31,-264.5 567.31,-264.5 561.31,-264.5 555.31,-258.5 555.31,-252.5 555.31,-252.5 555.31,-210.5 555.31,-210.5 555.31,-204.5 561.31,-198.5 567.31,-198.5"/>
<text xml:space="preserve" text-anchor="middle" x="617.7" y="-249.3" font-family="Times,serif" font-size="14.00">phys idx = 3</text>
<polyline fill="none" stroke="#000000" points="555.31,-242.5 680.08,-242.5"/>
<text xml:space="preserve" text-anchor="middle" x="617.7" y="-227.3" font-family="Times,serif" font-size="14.00">elem = 30.00</text>
<polyline fill="none" stroke="#000000" points="555.31,-220.5 680.08,-220.5"/>
<text xml:space="preserve" text-anchor="middle" x="586.7" y="-205.3" font-family="Times,serif" font-size="14.00">prev = 2</text>
<polyline fill="none" stroke="#000000" points="618.08,-198.5 618.08,-220.5"/>
<text xml:space="preserve" text-anchor="middle" x="649.08" y="-205.3" font-family="Times,serif" font-size="14.00">next = 9</text>
</g>
<!-- 2&#45;&gt;3 -->
<!-- 2&#45;&gt;3 -->
<g id="edge27" class="edge">
<title>2&#45;&gt;3</title>
<path fill="none" stroke="#000000" d="M507.32,-239.59C519.75,-239.8 532.68,-239.8 545.12,-239.59"/>
<polygon fill="#000000" stroke="#000000" points="507.71,-236.62 499.14,-239.4 507.58,-242.57 507.71,-236.62"/>
<polygon fill="#000000" stroke="#000000" points="545.02,-242.57 553.45,-239.4 544.89,-236.62 545.02,-242.57"/>
</g>
<!-- 4 -->
<g id="node5" class="node">
<title>4</title>
<path fill="#98fb98" stroke="#000000" d="M750.08,-198.5C750.08,-198.5 850.85,-198.5 850.85,-198.5 856.85,-198.5 862.85,-204.5 862.85,-210.5 862.85,-210.5 862.85,-252.5 862.85,-252.5 862.85,-258.5 856.85,-264.5 850.85,-264.5 850.85,-264.5 750.08,-264.5 750.08,-264.5 744.08,-264.5 738.08,-258.5 738.08,-252.5 738.08,-252.5 738.08,-210.5 738.08,-210.5 738.08,-204.5 744.08,-198.5 750.08,-198.5"/>
<text xml:space="preserve" text-anchor="middle" x="800.47" y="-249.3" font-family="Times,serif" font-size="14.00">phys idx = 4</text>
<polyline fill="none" stroke="#000000" points="738.08,-242.5 862.85,-242.5"/>
<text xml:space="preserve" text-anchor="middle" x="800.47" y="-227.3" font-family="Times,serif" font-size="14.00">elem = 40.00</text>
<polyline fill="none" stroke="#000000" points="738.08,-220.5 862.85,-220.5"/>
<text xml:space="preserve" text-anchor="middle" x="769.47" y="-205.3" font-family="Times,serif" font-size="14.00">prev = 8</text>
<polyline fill="none" stroke="#000000" points="800.85,-198.5 800.85,-220.5"/>
<text xml:space="preserve" text-anchor="middle" x="831.85" y="-205.3" font-family="Times,serif" font-size="14.00">next = 5</text>
</g>
<!-- 3&#45;&gt;4 -->
<!-- 9 -->
<g id="node10" class="node">
<title>9</title>
<path fill="#98fb98" stroke="#000000" d="M1670.93,-198.5C1670.93,-198.5 1771.71,-198.5 1771.71,-198.5 1777.71,-198.5 1783.71,-204.5 1783.71,-210.5 1783.71,-210.5 1783.71,-252.5 1783.71,-252.5 1783.71,-258.5 1777.71,-264.5 1771.71,-264.5 1771.71,-264.5 1670.93,-264.5 1670.93,-264.5 1664.93,-264.5 1658.93,-258.5 1658.93,-252.5 1658.93,-252.5 1658.93,-210.5 1658.93,-210.5 1658.93,-204.5 1664.93,-198.5 1670.93,-198.5"/>
<text xml:space="preserve" text-anchor="middle" x="1721.32" y="-249.3" font-family="Times,serif" font-size="14.00">phys idx = 9</text>
<polyline fill="none" stroke="#000000" points="1658.93,-242.5 1783.71,-242.5"/>
<text xml:space="preserve" text-anchor="middle" x="1721.32" y="-227.3" font-family="Times,serif" font-size="14.00">elem = 32.00</text>
<polyline fill="none" stroke="#000000" points="1658.93,-220.5 1783.71,-220.5"/>
<text xml:space="preserve" text-anchor="middle" x="1690.32" y="-205.3" font-family="Times,serif" font-size="14.00">prev = 3</text>
<polyline fill="none" stroke="#000000" points="1721.71,-198.5 1721.71,-220.5"/>
<text xml:space="preserve" text-anchor="middle" x="1752.71" y="-205.3" font-family="Times,serif" font-size="14.00">next = 7</text>
</g>
<!-- 3&#45;&gt;9 -->
<g id="edge28" class="edge">
<title>3&#45;&gt;9</title>
<path fill="none" stroke="#000000" d="M689.65,-260.92C705.4,-266.7 722.16,-272.27 738.08,-276.5 925.33,-326.25 974.77,-345.5 1168.51,-345.5 1168.51,-345.5 1168.51,-345.5 1356.78,-345.5 1462.39,-345.5 1577.69,-301.15 1649.5,-267.78"/>
<polygon fill="#000000" stroke="#000000" points="690.92,-258.22 681.92,-258.03 688.84,-263.79 690.92,-258.22"/>
<polygon fill="#000000" stroke="#000000" points="1650.67,-270.51 1657.1,-264.2 1648.14,-265.13 1650.67,-270.51"/>
</g>
<!-- 5 -->
<g id="node6" class="node">
<title>5</title>
<path fill="#98fb98" stroke="#000000" d="M932.85,-198.5C932.85,-198.5 1033.62,-198.5 1033.62,-198.5 1039.62,-198.5 1045.62,-204.5 1045.62,-210.5 1045.62,-210.5 1045.62,-252.5 1045.62,-252.5 1045.62,-258.5 1039.62,-264.5 1033.62,-264.5 1033.62,-264.5 932.85,-264.5 932.85,-264.5 926.85,-264.5 920.85,-258.5 920.85,-252.5 920.85,-252.5 920.85,-210.5 920.85,-210.5 920.85,-204.5 926.85,-198.5 932.85,-198.5"/>
<text xml:space="preserve" text-anchor="middle" x="983.24" y="-249.3" font-family="Times,serif" font-size="14.00">phys idx = 5</text>
<polyline fill="none" stroke="#000000" points="920.85,-242.5 1045.62,-242.5"/>
<text xml:space="preserve" text-anchor="middle" x="983.24" y="-227.3" font-family="Times,serif" font-size="14.00">elem = 50.00</text>
<polyline fill="none" stroke="#000000" points="920.85,-220.5 1045.62,-220.5"/>
<text xml:space="preserve" text-anchor="middle" x="952.24" y="-205.3" font-family="Times,serif" font-size="14.00">prev = 4</text>
<polyline fill="none" stroke="#000000" points="983.62,-198.5 983.62,-220.5"/>
<text xml:space="preserve" text-anchor="middle" x="1014.62" y="-205.3" font-family="Times,serif" font-size="14.00">next = 6</text>
</g>
<!-- 4&#45;&gt;5 -->
<!-- 4&#45;&gt;5 -->
<g id="edge29" class="edge">
<title>4&#45;&gt;5</title>
<path fill="none" stroke="#000000" d="M872.86,-239.59C885.29,-239.8 898.22,-239.8 910.66,-239.59"/>
<polygon fill="#000000" stroke="#000000" points="873.25,-236.62 864.69,-239.4 873.12,-242.57 873.25,-236.62"/>
<polygon fill="#000000" stroke="#000000" points="910.56,-242.57 918.99,-239.4 910.43,-236.62 910.56,-242.57"/>
</g>
<!-- 6 -->
<g id="node7" class="node">
<title>6</title>
<path fill="#98fb98" stroke="#000000" d="M1115.62,-198.5C1115.62,-198.5 1223.39,-198.5 1223.39,-198.5 1229.39,-198.5 1235.39,-204.5 1235.39,-210.5 1235.39,-210.5 1235.39,-252.5 1235.39,-252.5 1235.39,-258.5 1229.39,-264.5 1223.39,-264.5 1223.39,-264.5 1115.62,-264.5 1115.62,-264.5 1109.62,-264.5 1103.62,-258.5 1103.62,-252.5 1103.62,-252.5 1103.62,-210.5 1103.62,-210.5 1103.62,-204.5 1109.62,-198.5 1115.62,-198.5"/>
<text xml:space="preserve" text-anchor="middle" x="1169.51" y="-249.3" font-family="Times,serif" font-size="14.00">phys idx = 6</text>
<polyline fill="none" stroke="#000000" points="1103.62,-242.5 1235.39,-242.5"/>
<text xml:space="preserve" text-anchor="middle" x="1169.51" y="-227.3" font-family="Times,serif" font-size="14.00">elem = 66.00</text>
<polyline fill="none" stroke="#000000" points="1103.62,-220.5 1235.39,-220.5"/>
<text xml:space="preserve" text-anchor="middle" x="1135.01" y="-205.3" font-family="Times,serif" font-size="14.00">prev = 5</text>
<polyline fill="none" stroke="#000000" points="1166.39,-198.5 1166.39,-220.5"/>
<text xml:space="preserve" text-anchor="middle" x="1200.89" y="-205.3" font-family="Times,serif" font-size="14.00">next = 10</text>
</g>
<!-- 5&#45;&gt;6 -->
<!-- 5&#45;&gt;6 -->
<g id="edge30" class="edge">
<title>5&#45;&gt;6</title>
<path fill="none" stroke="#000000" d="M1055.74,-239.56C1068.11,-239.79 1081,-239.81 1093.45,-239.62"/>
<polygon fill="#000000" stroke="#000000" points="1056.19,-236.6 1047.62,-239.38 1056.05,-242.55 1056.19,-236.6"/>
<polygon fill="#000000" stroke="#000000" points="1093.38,-242.6 1101.82,-239.46 1093.26,-236.65 1093.38,-242.6"/>
</g>
<!-- 7 -->
<g id="node8" class="node">
<title>7</title>
<path fill="#98fb98" stroke="#000000" d="M1305.39,-198.5C1305.39,-198.5 1406.16,-198.5 1406.16,-198.5 1412.16,-198.5 1418.16,-204.5 1418.16,-210.5 1418.16,-210.5 1418.16,-252.5 1418.16,-252.5 1418.16,-258.5 1412.16,-264.5 1406.16,-264.5 1406.16,-264.5 1305.39,-264.5 1305.39,-264.5 1299.39,-264.5 1293.39,-258.5 1293.39,-252.5 1293.39,-252.5 1293.39,-210.5 1293.39,-210.5 1293.39,-204.5 1299.39,-198.5 1305.39,-198.5"/>
<text xml:space="preserve" text-anchor="middle" x="1355.78" y="-249.3" font-family="Times,serif" font-size="14.00">phys idx = 7</text>
<polyline fill="none" stroke="#000000" points="1293.39,-242.5 1418.16,-242.5"/>
<text xml:space="preserve" text-anchor="middle" x="1355.78" y="-227.3" font-family="Times,serif" font-size="14.00">elem = 35.00</text>
<polyline fill="none" stroke="#000000" points="1293.39,-220.5 1418.16,-220.5"/>
<text xml:space="preserve" text-anchor="middle" x="1324.78" y="-205.3" font-family="Times,serif" font-size="14.00">prev = 9</text>
<polyline fill="none" stroke="#000000" points="1356.17,-198.5 1356.17,-220.5"/>
<text xml:space="preserve" text-anchor="middle" x="1387.16" y="-205.3" font-family="Times,serif" font-size="14.00">next = 8</text>
</g>
<!-- 6&#45;&gt;7 -->
<!-- 10 -->
<g id="node11" class="node">
<title>10</title>
<path fill="#98fb98" stroke="#000000" d="M1853.71,-198.5C1853.71,-198.5 1954.48,-198.5 1954.48,-198.5 1960.48,-198.5 1966.48,-204.5 1966.48,-210.5 1966.48,-210.5 1966.48,-252.5 1966.48,-252.5 1966.48,-258.5 1960.48,-264.5 1954.48,-264.5 1954.48,-264.5 1853.71,-264.5 1853.71,-264.5 1847.71,-264.5 1841.71,-258.5 1841.71,-252.5 1841.71,-252.5 1841.71,-210.5 1841.71,-210.5 1841.71,-204.5 1847.71,-198.5 1853.71,-198.5"/>
<text xml:space="preserve" text-anchor="middle" x="1904.09" y="-249.3" font-family="Times,serif" font-size="14.00">phys idx = 10</text>
<polyline fill="none" stroke="#000000" points="1841.71,-242.5 1966.48,-242.5"/>
<text xml:space="preserve" text-anchor="middle" x="1904.09" y="-227.3" font-family="Times,serif" font-size="14.00">elem = 70.00</text>
<polyline fill="none" stroke="#000000" points="1841.71,-220.5 1966.48,-220.5"/>
<text xml:space="preserve" text-anchor="middle" x="1873.09" y="-205.3" font-family="Times,serif" font-size="14.00">prev = 6</text>
<polyline fill="none" stroke="#000000" points="1904.48,-198.5 1904.48,-220.5"/>
<text xml:space="preserve" text-anchor="middle" x="1935.48" y="-205.3" font-family="Times,serif" font-size="14.00">next = 0</text>
</g>
<!-- 6&#45;&gt;10 -->
<g id="edge31" class="edge">
<title>6&#45;&gt;10</title>
<path fill="none" stroke="#000000" d="M1245.01,-201.1C1260.76,-195.73 1277.44,-190.81 1293.39,-187.5 1506.76,-143.2 1570.55,-142.21 1783.71,-187.5 1799.78,-190.92 1816.6,-196.06 1832.36,-201.64"/>
<polygon fill="#000000" stroke="#000000" points="1244.33,-198.19 1237.29,-203.8 1246.3,-203.8 1244.33,-198.19"/>
<polygon fill="#000000" stroke="#000000" points="1831.08,-204.34 1840.09,-204.45 1833.12,-198.75 1831.08,-204.34"/>
</g>
<!-- 8 -->
<g id="node9" class="node">
<title>8</title>
<path fill="#98fb98" stroke="#000000" d="M1488.16,-198.5C1488.16,-198.5 1588.93,-198.5 1588.93,-198.5 1594.93,-198.5 1600.93,-204.5 1600.93,-210.5 1600.93,-210.5 1600.93,-252.5 1600.93,-252.5 1600.93,-258.5 1594.93,-264.5 1588.93,-264.5 1588.93,-264.5 1488.16,-264.5 1488.16,-264.5 1482.16,-264.5 1476.16,-258.5 1476.16,-252.5 1476.16,-252.5 1476.16,-210.5 1476.16,-210.5 1476.16,-204.5 1482.16,-198.5 1488.16,-198.5"/>
<text xml:space="preserve" text-anchor="middle" x="1538.55" y="-249.3" font-family="Times,serif" font-size="14.00">phys idx = 8</text>
<polyline fill="none" stroke="#000000" points="1476.16,-242.5 1600.93,-242.5"/>
<text xml:space="preserve" text-anchor="middle" x="1538.55" y="-227.3" font-family="Times,serif" font-size="14.00">elem = 36.00</text>
<polyline fill="none" stroke="#000000" points="1476.16,-220.5 1600.93,-220.5"/>
<text xml:space="preserve" text-anchor="middle" x="1507.55" y="-205.3" font-family="Times,serif" font-size="14.00">prev = 7</text>
<polyline fill="none" stroke="#000000" points="1538.94,-198.5 1538.94,-220.5"/>
<text xml:space="preserve" text-anchor="middle" x="1569.94" y="-205.3" font-family="Times,serif" font-size="14.00">next = 4</text>
</g>
<!-- 7&#45;&gt;8 -->
<!-- 7&#45;&gt;8 -->
<g id="edge32" class="edge">
<title>7&#45;&gt;8</title>
<path fill="none" stroke="#000000" d="M1428.17,-239.59C1440.6,-239.8 1453.53,-239.8 1465.97,-239.59"/>
<polygon fill="#000000" stroke="#000000" points="1428.56,-236.62 1420,-239.4 1428.43,-242.57 1428.56,-236.62"/>
<polygon fill="#000000" stroke="#000000" points="1465.87,-242.57 1474.3,-239.4 1465.74,-236.62 1465.87,-242.57"/>
</g>
<!-- 8&#45;&gt;4 -->
<g id="edge33" class="edge">
<title>8&#45;&gt;4</title>
<path fill="none" stroke="#000000" d="M1466.76,-262.94C1451.06,-268.56 1434.29,-273.56 1418.16,-276.5 1200.72,-316.12 1138.3,-316.12 920.85,-276.5 904.73,-273.56 887.96,-268.56 872.25,-262.94"/>
<polygon fill="#000000" stroke="#000000" points="1467.51,-265.84 1474.45,-260.1 1465.45,-260.26 1467.51,-265.84"/>
<polygon fill="#000000" stroke="#000000" points="873.57,-260.26 864.57,-260.1 871.5,-265.84 873.57,-260.26"/>
</g>
<!-- 8&#45;&gt;9 -->
<!-- 9&#45;&gt;7 -->
<g id="edge34" class="edge">
<title>9&#45;&gt;7</title>
<path fill="none" stroke="#000000" d="M1649.48,-200.75C1633.78,-195.26 1617.02,-190.37 1600.93,-187.5 1546.34,-177.76 1530.76,-177.76 1476.16,-187.5 1460.08,-190.37 1443.32,-195.26 1427.62,-200.75"/>
<polygon fill="#000000" stroke="#000000" points="1648.16,-203.44 1657.17,-203.53 1650.19,-197.84 1648.16,-203.44"/>
<polygon fill="#000000" stroke="#000000" points="1426.91,-197.84 1419.93,-203.53 1428.94,-203.44 1426.91,-197.84"/>
</g>
<!-- 9&#45;&gt;10 -->
<!-- 10&#45;&gt;0 -->
<g id="edge35" class="edge">
<title>10&#45;&gt;0</title>
<path fill="none" stroke="#000000" d="M1832.31,-266.33C1729.97,-313.4 1533.54,-391.5 1356.78,-391.5 1168.51,-391.5 1168.51,-391.5 1168.51,-391.5 949.63,-391.5 897.46,-354.04 680.08,-328.5 462.44,-302.93 403.22,-326.11 189.77,-276.5 173.77,-272.78 157,-267.57 141.18,-262.01"/>
<polygon fill="#000000" stroke="#000000" points="1833.48,-269.07 1839.94,-262.8 1830.98,-263.67 1833.48,-269.07"/>
<polygon fill="#000000" stroke="#000000" points="142.42,-259.3 133.41,-259.22 140.4,-264.9 142.42,-259.3"/>
</g>
<!-- 11 -->
<g id="node12" class="node">
<title>11</title>
<path fill="#82898f" stroke="#000000" d="M2036.48,-198.5C2036.48,-198.5 2148.91,-198.5 2148.91,-198.5 2154.91,-198.5 2160.91,-204.5 2160.91,-210.5 2160.91,-210.5 2160.91,-252.5 2160.91,-252.5 2160.91,-258.5 2154.91,-264.5 2148.91,-264.5 2148.91,-264.5 2036.48,-264.5 2036.48,-264.5 2030.48,-264.5 2024.48,-258.5 2024.48,-252.5 2024.48,-252.5 2024.48,-210.5 2024.48,-210.5 2024.48,-204.5 2030.48,-198.5 2036.48,-198.5"/>
<text xml:space="preserve" text-anchor="middle" x="2092.69" y="-249.3" font-family="Times,serif" font-size="14.00">phys idx = 11</text>
<polyline fill="none" stroke="#000000" points="2024.48,-242.5 2160.91,-242.5"/>
<text xml:space="preserve" text-anchor="middle" x="2092.69" y="-227.3" font-family="Times,serif" font-size="14.00">elem = &#45;6666.00</text>
<polyline fill="none" stroke="#000000" points="2024.48,-220.5 2160.91,-220.5"/>
<text xml:space="preserve" text-anchor="middle" x="2058.19" y="-205.3" font-family="Times,serif" font-size="14.00">prev = &#45;1</text>
<polyline fill="none" stroke="#000000" points="2091.91,-198.5 2091.91,-220.5"/>
<text xml:space="preserve" text-anchor="middle" x="2126.41" y="-205.3" font-family="Times,serif" font-size="14.00">next = 12</text>
</g>
<!-- 10&#45;&gt;11 -->
<!-- 12 -->
<g id="node13" class="node">
<title>12</title>
<path fill="#82898f" stroke="#000000" d="M2230.91,-198.5C2230.91,-198.5 2343.34,-198.5 2343.34,-198.5 2349.34,-198.5 2355.34,-204.5 2355.34,-210.5 2355.34,-210.5 2355.34,-252.5 2355.34,-252.5 2355.34,-258.5 2349.34,-264.5 2343.34,-264.5 2343.34,-264.5 2230.91,-264.5 2230.91,-264.5 2224.91,-264.5 2218.91,-258.5 2218.91,-252.5 2218.91,-252.5 2218.91,-210.5 2218.91,-210.5 2218.91,-204.5 2224.91,-198.5 2230.91,-198.5"/>
<text xml:space="preserve" text-anchor="middle" x="2287.12" y="-249.3" font-family="Times,serif" font-size="14.00">phys idx = 12</text>
<polyline fill="none" stroke="#000000" points="2218.91,-242.5 2355.34,-242.5"/>
<text xml:space="preserve" text-anchor="middle" x="2287.12" y="-227.3" font-family="Times,serif" font-size="14.00">elem = &#45;6666.00</text>
<polyline fill="none" stroke="#000000" points="2218.91,-220.5 2355.34,-220.5"/>
<text xml:space="preserve" text-anchor="middle" x="2252.62" y="-205.3" font-family="Times,serif" font-size="14.00">prev = &#45;1</text>
<polyline fill="none" stroke="#000000" points="2286.34,-198.5 2286.34,-220.5"/>
<text xml:space="preserve" text-anchor="middle" x="2320.84" y="-205.3" font-family="Times,serif" font-size="14.00">next = 13</text>
</g>
<!-- 11&#45;&gt;12 -->
<!-- 11&#45;&gt;12 -->
<g id="edge36" class="edge">
<title>11&#45;&gt;12</title>
<path fill="none" stroke="#ff8c00" d="M2161.27,-239.42C2176.69,-239.79 2193.2,-239.85 2208.99,-239.6"/>
<polygon fill="#ff8c00" stroke="#ff8c00" points="2208.76,-242.58 2217.2,-239.44 2208.64,-236.64 2208.76,-242.58"/>
</g>
<!-- 13 -->
<g id="node14" class="node">
<title>13</title>
<path fill="#82898f" stroke="#000000" d="M2425.34,-198.5C2425.34,-198.5 2537.77,-198.5 2537.77,-198.5 2543.77,-198.5 2549.77,-204.5 2549.77,-210.5 2549.77,-210.5 2549.77,-252.5 2549.77,-252.5 2549.77,-258.5 2543.77,-264.5 2537.77,-264.5 2537.77,-264.5 2425.34,-264.5 2425.34,-264.5 2419.34,-264.5 2413.34,-258.5 2413.34,-252.5 2413.34,-252.5 2413.34,-210.5 2413.34,-210.5 2413.34,-204.5 2419.34,-198.5 2425.34,-198.5"/>
<text xml:space="preserve" text-anchor="middle" x="2481.56" y="-249.3" font-family="Times,serif" font-size="14.00">phys idx = 13</text>
<polyline fill="none" stroke="#000000" points="2413.34,-242.5 2549.77,-242.5"/>
<text xml:space="preserve" text-anchor="middle" x="2481.56" y="-227.3" font-family="Times,serif" font-size="14.00">elem = &#45;6666.00</text>
<polyline fill="none" stroke="#000000" points="2413.34,-220.5 2549.77,-220.5"/>
<text xml:space="preserve" text-anchor="middle" x="2447.06" y="-205.3" font-family="Times,serif" font-size="14.00">prev = &#45;1</text>
<polyline fill="none" stroke="#000000" points="2480.77,-198.5 2480.77,-220.5"/>
<text xml:space="preserve" text-anchor="middle" x="2515.27" y="-205.3" font-family="Times,serif" font-size="14.00">next = 14</text>
</g>
<!-- 12&#45;&gt;13 -->
<!-- 12&#45;&gt;13 -->
<g id="edge37" class="edge">
<title>12&#45;&gt;13</title>
<path fill="none" stroke="#ff8c00" d="M2355.7,-239.42C2371.12,-239.79 2387.63,-239.85 2403.42,-239.6"/>
<polygon fill="#ff8c00" stroke="#ff8c00" points="2403.19,-242.58 2411.63,-239.44 2403.08,-236.64 2403.19,-242.58"/>
</g>
<!-- 14 -->
<g id="node15" class="node">
<title>14</title>
<path fill="#82898f" stroke="#000000" d="M2619.77,-198.5C2619.77,-198.5 2732.21,-198.5 2732.21,-198.5 2738.21,-198.5 2744.21,-204.5 2744.21,-210.5 2744.21,-210.5 2744.21,-252.5 2744.21,-252.5 2744.21,-258.5 2738.21,-264.5 2732.21,-264.5 2732.21,-264.5 2619.77,-264.5 2619.77,-264.5 2613.77,-264.5 2607.77,-258.5 2607.77,-252.5 2607.77,-252.5 2607.77,-210.5 2607.77,-210.5 2607.77,-204.5 2613.77,-198.5 2619.77,-198.5"/>
<text xml:space="preserve" text-anchor="middle" x="2675.99" y="-249.3" font-family="Times,serif" font-size="14.00">phys idx = 14</text>
<polyline fill="none" stroke="#000000" points="2607.77,-242.5 2744.21,-242.5"/>
<text xml:space="preserve" text-anchor="middle" x="2675.99" y="-227.3" font-family="Times,serif" font-size="14.00">elem = &#45;6666.00</text>
<polyline fill="none" stroke="#000000" points="2607.77,-220.5 2744.21,-220.5"/>
<text xml:space="preserve" text-anchor="middle" x="2641.49" y="-205.3" font-family="Times,serif" font-size="14.00">prev = &#45;1</text>
<polyline fill="none" stroke="#000000" points="2675.21,-198.5 2675.21,-220.5"/>
<text xml:space="preserve" text-anchor="middle" x="2709.71" y="-205.3" font-family="Times,serif" font-size="14.00">next = 15</text>
</g>
<!-- 13&#45;&gt;14 -->
<!-- 13&#45;&gt;14 -->
<g id="edge38" class="edge">
<title>13&#45;&gt;14</title>
<path fill="none" stroke="#ff8c00" d="M2550.13,-239.42C2565.56,-239.79 2582.06,-239.85 2597.85,-239.6"/>
<polygon fill="#ff8c00" stroke="#ff8c00" points="2597.63,-242.58 2606.07,-239.44 2597.51,-236.64 2597.63,-242.58"/>
</g>
<!-- 15 -->
<g id="node16" class="node">
<title>15</title>
<path fill="#82898f" stroke="#000000" d="M2814.21,-198.5C2814.21,-198.5 2926.64,-198.5 2926.64,-198.5 2932.64,-198.5 2938.64,-204.5 2938.64,-210.5 2938.64,-210.5 2938.64,-252.5 2938.64,-252.5 2938.64,-258.5 2932.64,-264.5 2926.64,-264.5 2926.64,-264.5 2814.21,-264.5 2814.21,-264.5 2808.21,-264.5 2802.21,-258.5 2802.21,-252.5 2802.21,-252.5 2802.21,-210.5 2802.21,-210.5 2802.21,-204.5 2808.21,-198.5 2814.21,-198.5"/>
<text xml:space="preserve" text-anchor="middle" x="2870.42" y="-249.3" font-family="Times,serif" font-size="14.00">phys idx = 15</text>
<polyline fill="none" stroke="#000000" points="2802.21,-242.5 2938.64,-242.5"/>
<text xml:space="preserve" text-anchor="middle" x="2870.42" y="-227.3" font-family="Times,serif" font-size="14.00">elem = &#45;6666.00</text>
<polyline fill="none" stroke="#000000" points="2802.21,-220.5 2938.64,-220.5"/>
<text xml:space="preserve" text-anchor="middle" x="2835.92" y="-205.3" font-family="Times,serif" font-size="14.00">prev = &#45;1</text>
<polyline fill="none" stroke="#000000" points="2869.64,-198.5 2869.64,-220.5"/>
<text xml:space="preserve" text-anchor="middle" x="2904.14" y="-205.3" font-family="Times,serif" font-size="14.00">next = 16</text>
</g>
<!-- 14&#45;&gt;15 -->
<!-- 14&#45;&gt;15 -->
<g id="edge39" class="edge">
<title>14&#45;&gt;15</title>
<path fill="none" stroke="#ff8c00" d="M2744.56,-239.42C2759.99,-239.79 2776.5,-239.85 2792.29,-239.6"/>
<polygon fill="#ff8c00" stroke="#ff8c00" points="2792.06,-242.58 2800.5,-239.44 2791.94,-236.64 2792.06,-242.58"/>
</g>
<!-- 16 -->
<g id="node17" class="node">
<title>16</title>
<path fill="#82898f" stroke="#000000" d="M3008.64,-198.5C3008.64,-198.5 3121.07,-198.5 3121.07,-198.5 3127.07,-198.5 3133.07,-204.5 3133.07,-210.5 3133.07,-210.5 3133.07,-252.5 3133.07,-252.5 3133.07,-258.5 3127.07,-264.5 3121.07,-264.5 3121.07,-264.5 3008.64,-264.5 3008.64,-264.5 3002.64,-264.5 2996.64,-258.5 2996.64,-252.5 2996.64,-252.5 2996.64,-210.5 2996.64,-210.5 2996.64,-204.5 3002.64,-198.5 3008.64,-198.5"/>
<text xml:space="preserve" text-anchor="middle" x="3064.85" y="-249.3" font-family="Times,serif" font-size="14.00">phys idx = 16</text>
<polyline fill="none" stroke="#000000" points="2996.64,-242.5 3133.07,-242.5"/>
<text xml:space="preserve" text-anchor="middle" x="3064.85" y="-227.3" font-family="Times,serif" font-size="14.00">elem = &#45;6666.00</text>
<polyline fill="none" stroke="#000000" points="2996.64,-220.5 3133.07,-220.5"/>
<text xml:space="preserve" text-anchor="middle" x="3030.36" y="-205.3" font-family="Times,serif" font-size="14.00">prev = &#45;1</text>
<polyline fill="none" stroke="#000000" points="3064.07,-198.5 3064.07,-220.5"/>
<text xml:space="preserve" text-anchor="middle" x="3098.57" y="-205.3" font-family="Times,serif" font-size="14.00">next = 17</text>
</g>
<!-- 15&#45;&gt;16 -->
<!-- 15&#45;&gt;16 -->
<g id="edge40" class="edge">
<title>15&#45;&gt;16</title>
<path fill="none" stroke="#ff8c00" d="M2939,-239.42C2954.42,-239.79 2970.93,-239.85 2986.72,-239.6"/>
<polygon fill="#ff8c00" stroke="#ff8c00" points="2986.49,-242.58 2994.93,-239.44 2986.37,-236.64 2986.49,-242.58"/>
</g>
<!-- 17 -->
<g id="node18" class="node">
<title>17</title>
<path fill="#82898f" stroke="#000000" d="M3203.07,-198.5C3203.07,-198.5 3315.5,-198.5 3315.5,-198.5 3321.5,-198.5 3327.5,-204.5 3327.5,-210.5 3327.5,-210.5 3327.5,-252.5 3327.5,-252.5 3327.5,-258.5 3321.5,-264.5 3315.5,-264.5 3315.5,-264.5 3203.07,-264.5 3203.07,-264.5 3197.07,-264.5 3191.07,-258.5 3191.07,-252.5 3191.07,-252.5 3191.07,-210.5 3191.07,-210.5 3191.07,-204.5 3197.07,-198.5 3203.07,-198.5"/>
<text xml:space="preserve" text-anchor="middle" x="3259.29" y="-249.3" font-family="Times,serif" font-size="14.00">phys idx = 17</text>
<polyline fill="none" stroke="#000000" points="3191.07,-242.5 3327.5,-242.5"/>
<text xml:space="preserve" text-anchor="middle" x="3259.29" y="-227.3" font-family="Times,serif" font-size="14.00">elem = &#45;6666.00</text>
<polyline fill="none" stroke="#000000" points="3191.07,-220.5 3327.5,-220.5"/>
<text xml:space="preserve" text-anchor="middle" x="3224.79" y="-205.3" font-family="Times,serif" font-size="14.00">prev = &#45;1</text>
<polyline fill="none" stroke="#000000" points="3258.5,-198.5 3258.5,-220.5"/>
<text xml:space="preserve" text-anchor="middle" x="3293" y="-205.3" font-family="Times,serif" font-size="14.00">next = 18</text>
</g>
<!-- 16&#45;&gt;17 -->
<!-- 16&#45;&gt;17 -->
<g id="edge41" class="edge">
<title>16&#45;&gt;17</title>
<path fill="none" stroke="#ff8c00" d="M3133.43,-239.42C3148.85,-239.79 3165.36,-239.85 3181.15,-239.6"/>
<polygon fill="#ff8c00" stroke="#ff8c00" points="3180.92,-242.58 3189.36,-239.44 3180.81,-236.64 3180.92,-242.58"/>
</g>
<!-- 18 -->
<g id="node19" class="node">
<title>18</title>
<path fill="#82898f" stroke="#000000" d="M3397.5,-198.5C3397.5,-198.5 3509.94,-198.5 3509.94,-198.5 3515.94,-198.5 3521.94,-204.5 3521.94,-210.5 3521.94,-210.5 3521.94,-252.5 3521.94,-252.5 3521.94,-258.5 3515.94,-264.5 3509.94,-264.5 3509.94,-264.5 3397.5,-264.5 3397.5,-264.5 3391.5,-264.5 3385.5,-258.5 3385.5,-252.5 3385.5,-252.5 3385.5,-210.5 3385.5,-210.5 3385.5,-204.5 3391.5,-198.5 3397.5,-198.5"/>
<text xml:space="preserve" text-anchor="middle" x="3453.72" y="-249.3" font-family="Times,serif" font-size="14.00">phys idx = 18</text>
<polyline fill="none" stroke="#000000" points="3385.5,-242.5 3521.94,-242.5"/>
<text xml:space="preserve" text-anchor="middle" x="3453.72" y="-227.3" font-family="Times,serif" font-size="14.00">elem = &#45;6666.00</text>
<polyline fill="none" stroke="#000000" points="3385.5,-220.5 3521.94,-220.5"/>
<text xml:space="preserve" text-anchor="middle" x="3419.22" y="-205.3" font-family="Times,serif" font-size="14.00">prev = &#45;1</text>
<polyline fill="none" stroke="#000000" points="3452.94,-198.5 3452.94,-220.5"/>
<text xml:space="preserve" text-anchor="middle" x="3487.44" y="-205.3" font-family="Times,serif" font-size="14.00">next = 19</text>
</g>
<!-- 17&#45;&gt;18 -->
<!-- 17&#45;&gt;18 -->
<g id="edge42" class="edge">
<title>17&#45;&gt;18</title>
<path fill="none" stroke="#ff8c00" d="M3327.86,-239.42C3343.29,-239.79 3359.79,-239.85 3375.58,-239.6"/>
<polygon fill="#ff8c00" stroke="#ff8c00" points="3375.36,-242.58 3383.8,-239.44 3375.24,-236.64 3375.36,-242.58"/>
</g>
<!-- 19 -->
<g id="node20" class="node">
<title>19</title>
<path fill="#82898f" stroke="#000000" d="M3591.94,-198.5C3591.94,-198.5 3697.37,-198.5 3697.37,-198.5 3703.37,-198.5 3709.37,-204.5 3709.37,-210.5 3709.37,-210.5 3709.37,-252.5 3709.37,-252.5 3709.37,-258.5 3703.37,-264.5 3697.37,-264.5 3697.37,-264.5 3591.94,-264.5 3591.94,-264.5 3585.94,-264.5 3579.94,-258.5 3579.94,-252.5 3579.94,-252.5 3579.94,-210.5 3579.94,-210.5 3579.94,-204.5 3585.94,-198.5 3591.94,-198.5"/>
<text xml:space="preserve" text-anchor="middle" x="3644.65" y="-249.3" font-family="Times,serif" font-size="14.00">phys idx = 19</text>
<polyline fill="none" stroke="#000000" points="3579.94,-242.5 3709.37,-242.5"/>
<text xml:space="preserve" text-anchor="middle" x="3644.65" y="-227.3" font-family="Times,serif" font-size="14.00">elem = &#45;6666.00</text>
<polyline fill="none" stroke="#000000" points="3579.94,-220.5 3709.37,-220.5"/>
<text xml:space="preserve" text-anchor="middle" x="3613.65" y="-205.3" font-family="Times,serif" font-size="14.00">prev = &#45;1</text>
<polyline fill="none" stroke="#000000" points="3647.37,-198.5 3647.37,-220.5"/>
<text xml:space="preserve" text-anchor="middle" x="3678.37" y="-205.3" font-family="Times,serif" font-size="14.00">next = 0</text>
</g>
<!-- 18&#45;&gt;19 -->
<!-- 18&#45;&gt;19 -->
<g id="edge43" class="edge">
<title>18&#45;&gt;19</title>
<path fill="none" stroke="#ff8c00" d="M3522.4,-239.45C3537.83,-239.8 3554.3,-239.85 3569.97,-239.57"/>
<polygon fill="#ff8c00" stroke="#ff8c00" points="3569.66,-242.55 3578.09,-239.39 3569.53,-236.6 3569.66,-242.55"/>
</g>
<!-- 19&#45;&gt;0 -->
<g id="edge44" class="edge">
<title>19&#45;&gt;0</title>
<path fill="none" stroke="#ff8c00" d="M3579.56,-258.83C3561.24,-265.63 3541.06,-272.21 3521.94,-276.5 3408.04,-302.08 3377.02,-299.5 3260.29,-299.5 2286.12,-299.5 2286.12,-299.5 2286.12,-299.5 1868.55,-299.5 1774.35,-437.5 1356.78,-437.5 1168.51,-437.5 1168.51,-437.5 1168.51,-437.5 729.58,-437.5 603.86,-451.07 189.77,-305.5 165.71,-297.04 141.24,-283.51 120.54,-270.32"/>
<polygon fill="#ff8c00" stroke="#ff8c00" points="122.22,-267.87 113.47,-265.73 118.98,-272.85 122.22,-267.87"/>
</g>
<!-- head_label -->
<g id="node21" class="node">
<title>head_label</title>
<path fill="#20b2aa" stroke="#000000" d="M50.89,-0.5C50.89,-0.5 80.89,-0.5 80.89,-0.5 86.89,-0.5 92.89,-6.5 92.89,-12.5 92.89,-12.5 92.89,-24.5 92.89,-24.5 92.89,-30.5 86.89,-36.5 80.89,-36.5 80.89,-36.5 50.89,-36.5 50.89,-36.5 44.89,-36.5 38.89,-30.5 38.89,-24.5 38.89,-24.5 38.89,-12.5 38.89,-12.5 38.89,-6.5 44.89,-0.5 50.89,-0.5"/>
<text xml:space="preserve" text-anchor="middle" x="65.89" y="-14.9" font-family="Times,serif" font-size="12.00" fill="#000000">HEAD</text>
</g>
<!-- head_label&#45;&gt;1 -->
<g id="edge3" class="edge">
<title>head_label&#45;&gt;1</title>
<path fill="none" stroke="#20b2aa" d="M82.6,-36.66C111.95,-70.59 175.76,-144.35 215.9,-190.75"/>
<polygon fill="#20b2aa" stroke="#20b2aa" points="213.57,-192.61 221.39,-197.09 218.07,-188.71 213.57,-192.61"/>
</g>
<!-- tail_label -->
<g id="node22" class="node">
<title>tail_label</title>
<path fill="#20b2aa" stroke="#000000" d="M237.16,-0.5C237.16,-0.5 267.16,-0.5 267.16,-0.5 273.16,-0.5 279.16,-6.5 279.16,-12.5 279.16,-12.5 279.16,-24.5 279.16,-24.5 279.16,-30.5 273.16,-36.5 267.16,-36.5 267.16,-36.5 237.16,-36.5 237.16,-36.5 231.16,-36.5 225.16,-30.5 225.16,-24.5 225.16,-24.5 225.16,-12.5 225.16,-12.5 225.16,-6.5 231.16,-0.5 237.16,-0.5"/>
<text xml:space="preserve" text-anchor="middle" x="252.16" y="-14.9" font-family="Times,serif" font-size="12.00" fill="#000000">TAIL</text>
</g>
<!-- head_label&#45;&gt;tail_label -->
<!-- tail_label&#45;&gt;10 -->
<g id="edge4" class="edge">
<title>tail_label&#45;&gt;10</title>
<path fill="none" stroke="#20b2aa" d="M279.49,-26.02C303.53,-32.63 340.16,-42 372.54,-47.5 480.04,-65.75 507.66,-71.5 616.7,-71.5 616.7,-71.5 616.7,-71.5 1539.55,-71.5 1659.32,-71.5 1783.92,-145.15 1851.66,-192.51"/>
<polygon fill="#20b2aa" stroke="#20b2aa" points="1849.74,-194.8 1858.4,-197.28 1853.17,-189.94 1849.74,-194.8"/>
</g>
<!-- free_label -->
<g id="node23" class="node">
<title>free_label</title>
<path fill="#20b2aa" stroke="#000000" d="M419.93,-0.5C419.93,-0.5 449.93,-0.5 449.93,-0.5 455.93,-0.5 461.93,-6.5 461.93,-12.5 461.93,-12.5 461.93,-24.5 461.93,-24.5 461.93,-30.5 455.93,-36.5 449.93,-36.5 449.93,-36.5 419.93,-36.5 419.93,-36.5 413.93,-36.5 407.93,-30.5 407.93,-24.5 407.93,-24.5 407.93,-12.5 407.93,-12.5 407.93,-6.5 413.93,-0.5 419.93,-0.5"/>
<text xml:space="preserve" text-anchor="middle" x="434.93" y="-14.9" font-family="Times,serif" font-size="12.00" fill="#000000">FREE</text>
</g>
<!-- tail_label&#45;&gt;free_label -->
<!-- free_label&#45;&gt;11 -->
<g id="edge5" class="edge">
<title>free_label&#45;&gt;11</title>
<path fill="none" stroke="#20b2aa" d="M462.38,-18.99C522.35,-20.06 673.23,-22.5 799.47,-22.5 799.47,-22.5 799.47,-22.5 1722.32,-22.5 1858.18,-22.5 1989.96,-130.93 2053.05,-191.59"/>
<polygon fill="#20b2aa" stroke="#20b2aa" points="2050.78,-193.54 2058.95,-197.33 2054.93,-189.27 2050.78,-193.54"/>
</g>
</g>
</svg>
