<?xml version="1.0" encoding="UTF-8" standalone="no"?>
<!DOCTYPE svg PUBLIC "-//W3C//DTD SVG 1.1//EN"
 "http://www.w3.org/Graphics/SVG/1.1/DTD/svg11.dtd">
<!-- Generated by graphviz version 14.0.2 (20251019.1705)
 -->
<!-- Title: G Pages: 1 -->
<svg width="2011pt" height="387pt"
 viewBox="0.00 0.00 2011.00 387.00" xmlns="http://www.w3.org/2000/svg" xmlns:xlink="http://www.w3.org/1999/xlink">
<g id="graph0" class="graph" transform="scale(1 1) rotate(0) translate(4 382.56)">
<title>G</title>
<polygon fill="#fffafa" stroke="none" points="-4,4 -4,-382.56 2007.03,-382.56 2007.03,4 -4,4"/>
<!-- 0 -->
<g id="node1" class="node">
<title>0</title>
<path fill="#cd5c5c" stroke="#000000" d="M236,-139.56C236,-139.56 336.77,-139.56 336.77,-139.56 342.77,-139.56 348.77,-145.56 348.77,-151.56 348.77,-151.56 348.77,-193.56 348.77,-193.56 348.77,-199.56 342.77,-205.56 336.77,-205.56 336.77,-205.56 236,-205.56 236,-205.56 230,-205.56 224,-199.56 224,-193.56 224,-193.56 224,-151.56 224,-151.56 224,-145.56 230,-139.56 236,-139.56"/>
<text xml:space="preserve" text-anchor="middle" x="286.39" y="-190.36" font-family="Times,serif" font-size="14.00">phys idx = 0</text>
<polyline fill="none" stroke="#000000" points="224,-183.56 348.77,-183.56"/>
<text xml:space="preserve" text-anchor="middle" x="286.39" y="-168.36" font-family="Times,serif" font-size="14.00">elem = &#45;6666.00</text>
<polyline fill="none" stroke="#000000" points="224,-161.56 348.77,-161.56"/>
<text xml:space="preserve" text-anchor="middle" x="255.39" y="-146.36" font-family="Times,serif" font-size="14.00">prev = 5</text>
<polyline fill="none" stroke="#000000" points="286.77,-139.56 286.77,-161.56"/>
<text xml:space="preserve" text-anchor="middle" x="317.77" y="-146.36" font-family="Times,serif" font-size="14.00">next = 2</text>
</g>
<!-- 1 -->
<g id="node2" class="node">
<title>1</title>
<path fill="#82898f" stroke="#000000" d="M418.77,-139.56C418.77,-139.56 524.2,-139.56 524.2,-139.56 530.2,-139.56 536.2,-145.56 536.2,-151.56 536.2,-151.56 536.2,-193.56 536.2,-193.56 536.2,-199.56 530.2,-205.56 524.2,-205.56 524.2,-205.56 418.77,-205.56 418.77,-205.56 412.77,-205.56 406.77,-199.56 406.77,-193.56 406.77,-193.56 406.77,-151.56 406.77,-151.56 406.77,-145.56 412.77,-139.56 418.77,-139.56"/>
<text xml:space="preserve" text-anchor="middle" x="471.49" y="-190.36" font-family="Times,serif" font-size="14.00">phys idx = 1</text>
<polyline fill="none" stroke="#000000" points="406.77,-183.56 536.2,-183.56"/>
<text xml:space="preserve" text-anchor="middle" x="471.49" y="-168.36" font-family="Times,serif" font-size="14.00">elem = &#45;6666.00</text>
<polyline fill="none" stroke="#000000" points="406.77,-161.56 536.2,-161.56"/>
<text xml:space="preserve" text-anchor="middle" x="440.49" y="-146.36" font-family="Times,serif" font-size="14.00">prev = &#45;1</text>
<polyline fill="none" stroke="#000000" points="474.2,-139.56 474.2,-161.56"/>
<text xml:space="preserve" text-anchor="middle" x="505.2" y="-146.36" font-family="Times,serif" font-size="14.00">next = 6</text>
</g>
<!-- 0&#45;&gt;1 -->
<!-- 2 -->
<g id="node3" class="node">
<title>2</title>
<path fill="#98fb98" stroke="#000000" d="M606.2,-139.56C606.2,-139.56 706.97,-139.56 706.97,-139.56 712.97,-139.56 718.97,-145.56 718.97,-151.56 718.97,-151.56 718.97,-193.56 718.97,-193.56 718.97,-199.56 712.97,-205.56 706.97,-205.56 706.97,-205.56 606.2,-205.56 606.2,-205.56 600.2,-205.56 594.2,-199.56 594.2,-193.56 594.2,-193.56 594.2,-151.56 594.2,-151.56 594.2,-145.56 600.2,-139.56 606.2,-139.56"/>
<text xml:space="preserve" text-anchor="middle" x="656.59" y="-190.36" font-family="Times,serif" font-size="14.00">phys idx = 2</text>
<polyline fill="none" stroke="#000000" points="594.2,-183.56 718.97,-183.56"/>
<text xml:space="preserve" text-anchor="middle" x="656.59" y="-168.36" font-family="Times,serif" font-size="14.00">elem = 21.00</text>
<polyline fill="none" stroke="#000000" points="594.2,-161.56 718.97,-161.56"/>
<text xml:space="preserve" text-anchor="middle" x="625.59" y="-146.36" font-family="Times,serif" font-size="14.00">prev = 0</text>
<polyline fill="none" stroke="#000000" points="656.97,-139.56 656.97,-161.56"/>
<text xml:space="preserve" text-anchor="middle" x="687.97" y="-146.36" font-family="Times,serif" font-size="14.00">next = 3</text>
</g>
<!-- 0&#45;&gt;2 -->
<g id="edge15" class="edge">
<title>0&#45;&gt;2</title>
<path fill="none" stroke="#000000" d="M358.17,-204C373.88,-209.62 390.65,-214.62 406.77,-217.56 463.36,-227.87 479.61,-227.87 536.2,-217.56 552.32,-214.62 569.1,-209.62 584.8,-204"/>
<polygon fill="#000000" stroke="#000000" points="359.49,-201.32 350.48,-201.16 357.42,-206.9 359.49,-201.32"/>
<polygon fill="#000000" stroke="#000000" points="585.55,-206.9 592.49,-201.16 583.49,-201.32 585.55,-206.9"/>
</g>
<!-- 1&#45;&gt;2 -->
<!-- 6 -->
<g id="node7" class="node">
<title>6</title>
<path fill="#82898f" stroke="#000000" d="M1337.29,-139.56C1337.29,-139.56 1442.72,-139.56 1442.72,-139.56 1448.72,-139.56 1454.72,-145.56 1454.72,-151.56 1454.72,-151.56 1454.72,-193.56 1454.72,-193.56 1454.72,-199.56 1448.72,-205.56 1442.72,-205.56 1442.72,-205.56 1337.29,-205.56 1337.29,-205.56 1331.29,-205.56 1325.29,-199.56 1325.29,-193.56 1325.29,-193.56 1325.29,-151.56 1325.29,-151.56 1325.29,-145.56 1331.29,-139.56 1337.29,-139.56"/>
<text xml:space="preserve" text-anchor="middle" x="1390" y="-190.36" font-family="Times,serif" font-size="14.00">phys idx = 6</text>
<polyline fill="none" stroke="#000000" points="1325.29,-183.56 1454.72,-183.56"/>
<text xml:space="preserve" text-anchor="middle" x="1390" y="-168.36" font-family="Times,serif" font-size="14.00">elem = &#45;6666.00</text>
<polyline fill="none" stroke="#000000" points="1325.29,-161.56 1454.72,-161.56"/>
<text xml:space="preserve" text-anchor="middle" x="1359" y="-146.36" font-family="Times,serif" font-size="14.00">prev = &#45;1</text>
<polyline fill="none" stroke="#000000" points="1392.72,-139.56 1392.72,-161.56"/>
<text xml:space="preserve" text-anchor="middle" x="1423.72" y="-146.36" font-family="Times,serif" font-size="14.00">next = 0</text>
</g>
<!-- 1&#45;&gt;6 -->
<g id="edge16" class="edge">
<title>1&#45;&gt;6</title>
<path fill="none" stroke="#ff8c00" d="M535.73,-139.17C674.26,-70.84 1012.49,69.5 1267.29,-41.56 1308.95,-59.72 1342.77,-99.96 1364.09,-131.08"/>
<polygon fill="#ff8c00" stroke="#ff8c00" points="1361.47,-132.51 1368.66,-137.93 1366.42,-129.2 1361.47,-132.51"/>
</g>
<!-- 3 -->
<g id="node4" class="node">
<title>3</title>
<path fill="#98fb98" stroke="#000000" d="M788.97,-139.56C788.97,-139.56 889.74,-139.56 889.74,-139.56 895.74,-139.56 901.74,-145.56 901.74,-151.56 901.74,-151.56 901.74,-193.56 901.74,-193.56 901.74,-199.56 895.74,-205.56 889.74,-205.56 889.74,-205.56 788.97,-205.56 788.97,-205.56 782.97,-205.56 776.97,-199.56 776.97,-193.56 776.97,-193.56 776.97,-151.56 776.97,-151.56 776.97,-145.56 782.97,-139.56 788.97,-139.56"/>
<text xml:space="preserve" text-anchor="middle" x="839.36" y="-190.36" font-family="Times,serif" font-size="14.00">phys idx = 3</text>
<polyline fill="none" stroke="#000000" points="776.97,-183.56 901.74,-183.56"/>
<text xml:space="preserve" text-anchor="middle" x="839.36" y="-168.36" font-family="Times,serif" font-size="14.00">elem = 31.00</text>
<polyline fill="none" stroke="#000000" points="776.97,-161.56 901.74,-161.56"/>
<text xml:space="preserve" text-anchor="middle" x="808.36" y="-146.36" font-family="Times,serif" font-size="14.00">prev = 2</text>
<polyline fill="none" stroke="#000000" points="839.75,-139.56 839.75,-161.56"/>
<text xml:space="preserve" text-anchor="middle" x="870.74" y="-146.36" font-family="Times,serif" font-size="14.00">next = 9</text>
</g>
<!-- 2&#45;&gt;3 -->
<!-- 2&#45;&gt;3 -->
<g id="edge17" class="edge">
<title>2&#45;&gt;3</title>
<path fill="none" stroke="#000000" d="M728.98,-180.64C741.41,-180.86 754.34,-180.86 766.78,-180.65"/>
<polygon fill="#000000" stroke="#000000" points="729.37,-177.68 720.81,-180.46 729.24,-183.63 729.37,-177.68"/>
<polygon fill="#000000" stroke="#000000" points="766.68,-183.63 775.11,-180.46 766.55,-177.68 766.68,-183.63"/>
</g>
<!-- 4 -->
<g id="node5" class="node">
<title>4</title>
<path fill="#98fb98" stroke="#000000" d="M971.74,-139.56C971.74,-139.56 1072.51,-139.56 1072.51,-139.56 1078.51,-139.56 1084.51,-145.56 1084.51,-151.56 1084.51,-151.56 1084.51,-193.56 1084.51,-193.56 1084.51,-199.56 1078.51,-205.56 1072.51,-205.56 1072.51,-205.56 971.74,-205.56 971.74,-205.56 965.74,-205.56 959.74,-199.56 959.74,-193.56 959.74,-193.56 959.74,-151.56 959.74,-151.56 959.74,-145.56 965.74,-139.56 971.74,-139.56"/>
<text xml:space="preserve" text-anchor="middle" x="1022.13" y="-190.36" font-family="Times,serif" font-size="14.00">phys idx = 4</text>
<polyline fill="none" stroke="#000000" points="959.74,-183.56 1084.51,-183.56"/>
<text xml:space="preserve" text-anchor="middle" x="1022.13" y="-168.36" font-family="Times,serif" font-size="14.00">elem = 41.00</text>
<polyline fill="none" stroke="#000000" points="959.74,-161.56 1084.51,-161.56"/>
<text xml:space="preserve" text-anchor="middle" x="991.13" y="-146.36" font-family="Times,serif" font-size="14.00">prev = 8</text>
<polyline fill="none" stroke="#000000" points="1022.52,-139.56 1022.52,-161.56"/>
<text xml:space="preserve" text-anchor="middle" x="1053.52" y="-146.36" font-family="Times,serif" font-size="14.00">next = 5</text>
</g>
<!-- 3&#45;&gt;4 -->
<!-- 9 -->
<g id="node10" class="node">
<title>9</title>
<path fill="#98fb98" stroke="#000000" d="M1890.26,-139.56C1890.26,-139.56 1991.03,-139.56 1991.03,-139.56 1997.03,-139.56 2003.03,-145.56 2003.03,-151.56 2003.03,-151.56 2003.03,-193.56 2003.03,-193.56 2003.03,-199.56 1997.03,-205.56 1991.03,-205.56 1991.03,-205.56 1890.26,-205.56 1890.26,-205.56 1884.26,-205.56 1878.26,-199.56 1878.26,-193.56 1878.26,-193.56 1878.26,-151.56 1878.26,-151.56 1878.26,-145.56 1884.26,-139.56 1890.26,-139.56"/>
<text xml:space="preserve" text-anchor="middle" x="1940.64" y="-190.36" font-family="Times,serif" font-size="14.00">phys idx = 9</text>
<polyline fill="none" stroke="#000000" points="1878.26,-183.56 2003.03,-183.56"/>
<text xml:space="preserve" text-anchor="middle" x="1940.64" y="-168.36" font-family="Times,serif" font-size="14.00">elem = 32.00</text>
<polyline fill="none" stroke="#000000" points="1878.26,-161.56 2003.03,-161.56"/>
<text xml:space="preserve" text-anchor="middle" x="1909.64" y="-146.36" font-family="Times,serif" font-size="14.00">prev = 3</text>
<polyline fill="none" stroke="#000000" points="1941.03,-139.56 1941.03,-161.56"/>
<text xml:space="preserve" text-anchor="middle" x="1972.03" y="-146.36" font-family="Times,serif" font-size="14.00">next = 7</text>
</g>
<!-- 3&#45;&gt;9 -->
<g id="edge18" class="edge">
<title>3&#45;&gt;9</title>
<path fill="none" stroke="#000000" d="M873.5,-132.09C895.38,-108.31 926.13,-79.98 959.74,-64.56 1034.15,-30.41 1060.8,-46.68 1142.51,-41.56 1444.98,-22.6 1529.57,-30.86 1820.26,-116.56 1836.41,-121.32 1853.14,-127.97 1868.78,-135.03"/>
<polygon fill="#000000" stroke="#000000" points="871.49,-129.87 868.01,-138.18 875.91,-133.85 871.49,-129.87"/>
<polygon fill="#000000" stroke="#000000" points="1867.51,-137.72 1876.47,-138.59 1870.01,-132.32 1867.51,-137.72"/>
</g>
<!-- 5 -->
<g id="node6" class="node">
<title>5</title>
<path fill="#98fb98" stroke="#000000" d="M1154.51,-139.56C1154.51,-139.56 1255.29,-139.56 1255.29,-139.56 1261.29,-139.56 1267.29,-145.56 1267.29,-151.56 1267.29,-151.56 1267.29,-193.56 1267.29,-193.56 1267.29,-199.56 1261.29,-205.56 1255.29,-205.56 1255.29,-205.56 1154.51,-205.56 1154.51,-205.56 1148.51,-205.56 1142.51,-199.56 1142.51,-193.56 1142.51,-193.56 1142.51,-151.56 1142.51,-151.56 1142.51,-145.56 1148.51,-139.56 1154.51,-139.56"/>
<text xml:space="preserve" text-anchor="middle" x="1204.9" y="-190.36" font-family="Times,serif" font-size="14.00">phys idx = 5</text>
<polyline fill="none" stroke="#000000" points="1142.51,-183.56 1267.29,-183.56"/>
<text xml:space="preserve" text-anchor="middle" x="1204.9" y="-168.36" font-family="Times,serif" font-size="14.00">elem = 51.00</text>
<polyline fill="none" stroke="#000000" points="1142.51,-161.56 1267.29,-161.56"/>
<text xml:space="preserve" text-anchor="middle" x="1173.9" y="-146.36" font-family="Times,serif" font-size="14.00">prev = 4</text>
<polyline fill="none" stroke="#000000" points="1205.29,-139.56 1205.29,-161.56"/>
<text xml:space="preserve" text-anchor="middle" x="1236.29" y="-146.36" font-family="Times,serif" font-size="14.00">next = 0</text>
</g>
<!-- 4&#45;&gt;5 -->
<!-- 4&#45;&gt;5 -->
<g id="edge19" class="edge">
<title>4&#45;&gt;5</title>
<path fill="none" stroke="#000000" d="M1094.52,-180.64C1106.95,-180.86 1119.88,-180.86 1132.32,-180.65"/>
<polygon fill="#000000" stroke="#000000" points="1094.91,-177.68 1086.35,-180.46 1094.78,-183.63 1094.91,-177.68"/>
<polygon fill="#000000" stroke="#000000" points="1132.22,-183.63 1140.65,-180.46 1132.09,-177.68 1132.22,-183.63"/>
</g>
<!-- 5&#45;&gt;0 -->
<g id="edge20" class="edge">
<title>5&#45;&gt;0</title>
<path fill="none" stroke="#000000" d="M1133.23,-208.8C1073.34,-237.49 984.28,-275.48 901.74,-292.56 653.32,-343.97 461.11,-327.56 406.77,-303.56 365.56,-285.36 332.43,-245.12 311.63,-214.02"/>
<polygon fill="#000000" stroke="#000000" points="1134.5,-211.49 1140.86,-205.12 1131.91,-206.14 1134.5,-211.49"/>
<polygon fill="#000000" stroke="#000000" points="314.31,-212.68 307.18,-207.18 309.33,-215.93 314.31,-212.68"/>
</g>
<!-- 5&#45;&gt;6 -->
<!-- 6&#45;&gt;0 -->
<g id="edge21" class="edge">
<title>6&#45;&gt;0</title>
<path fill="none" stroke="#ff8c00" d="M1339.75,-139.15C1318.44,-126.62 1292.62,-113.9 1267.29,-107.56 1213.49,-94.1 1197.88,-104.39 1142.51,-107.56 1060.88,-112.23 1029.29,-85.56 959.74,-128.56 919.59,-153.39 942.59,-193.88 901.74,-217.56 760.95,-299.17 698.87,-233.89 536.2,-238.56 478.7,-240.21 462.47,-252.93 406.77,-238.56 384.7,-232.86 362.34,-222.12 343.04,-210.93"/>
<polygon fill="#ff8c00" stroke="#ff8c00" points="344.81,-208.52 335.99,-206.72 341.76,-213.63 344.81,-208.52"/>
</g>
<!-- 7 -->
<g id="node8" class="node">
<title>7</title>
<path fill="#98fb98" stroke="#000000" d="M1524.72,-139.56C1524.72,-139.56 1625.49,-139.56 1625.49,-139.56 1631.49,-139.56 1637.49,-145.56 1637.49,-151.56 1637.49,-151.56 1637.49,-193.56 1637.49,-193.56 1637.49,-199.56 1631.49,-205.56 1625.49,-205.56 1625.49,-205.56 1524.72,-205.56 1524.72,-205.56 1518.72,-205.56 1512.72,-199.56 1512.72,-193.56 1512.72,-193.56 1512.72,-151.56 1512.72,-151.56 1512.72,-145.56 1518.72,-139.56 1524.72,-139.56"/>
<text xml:space="preserve" text-anchor="middle" x="1575.1" y="-190.36" font-family="Times,serif" font-size="14.00">phys idx = 7</text>
<polyline fill="none" stroke="#000000" points="1512.72,-183.56 1637.49,-183.56"/>
<text xml:space="preserve" text-anchor="middle" x="1575.1" y="-168.36" font-family="Times,serif" font-size="14.00">elem = 35.00</text>
<polyline fill="none" stroke="#000000" points="1512.72,-161.56 1637.49,-161.56"/>
<text xml:space="preserve" text-anchor="middle" x="1544.1" y="-146.36" font-family="Times,serif" font-size="14.00">prev = 9</text>
<polyline fill="none" stroke="#000000" points="1575.49,-139.56 1575.49,-161.56"/>
<text xml:space="preserve" text-anchor="middle" x="1606.49" y="-146.36" font-family="Times,serif" font-size="14.00">next = 8</text>
</g>
<!-- 6&#45;&gt;7 -->
<!-- 8 -->
<g id="node9" class="node">
<title>8</title>
<path fill="#98fb98" stroke="#000000" d="M1707.49,-139.56C1707.49,-139.56 1808.26,-139.56 1808.26,-139.56 1814.26,-139.56 1820.26,-145.56 1820.26,-151.56 1820.26,-151.56 1820.26,-193.56 1820.26,-193.56 1820.26,-199.56 1814.26,-205.56 1808.26,-205.56 1808.26,-205.56 1707.49,-205.56 1707.49,-205.56 1701.49,-205.56 1695.49,-199.56 1695.49,-193.56 1695.49,-193.56 1695.49,-151.56 1695.49,-151.56 1695.49,-145.56 1701.49,-139.56 1707.49,-139.56"/>
<text xml:space="preserve" text-anchor="middle" x="1757.87" y="-190.36" font-family="Times,serif" font-size="14.00">phys idx = 8</text>
<polyline fill="none" stroke="#000000" points="1695.49,-183.56 1820.26,-183.56"/>
<text xml:space="preserve" text-anchor="middle" x="1757.87" y="-168.36" font-family="Times,serif" font-size="14.00">elem = 36.00</text>
<polyline fill="none" stroke="#000000" points="1695.49,-161.56 1820.26,-161.56"/>
<text xml:space="preserve" text-anchor="middle" x="1726.87" y="-146.36" font-family="Times,serif" font-size="14.00">prev = 7</text>
<polyline fill="none" stroke="#000000" points="1758.26,-139.56 1758.26,-161.56"/>
<text xml:space="preserve" text-anchor="middle" x="1789.26" y="-146.36" font-family="Times,serif" font-size="14.00">next = 4</text>
</g>
<!-- 7&#45;&gt;8 -->
<!-- 7&#45;&gt;8 -->
<g id="edge22" class="edge">
<title>7&#45;&gt;8</title>
<path fill="none" stroke="#000000" d="M1647.49,-180.64C1659.92,-180.86 1672.86,-180.86 1685.29,-180.65"/>
<polygon fill="#000000" stroke="#000000" points="1647.89,-177.68 1639.32,-180.46 1647.75,-183.63 1647.89,-177.68"/>
<polygon fill="#000000" stroke="#000000" points="1685.19,-183.63 1693.63,-180.46 1685.06,-177.68 1685.19,-183.63"/>
</g>
<!-- 8&#45;&gt;4 -->
<g id="edge23" class="edge">
<title>8&#45;&gt;4</title>
<path fill="none" stroke="#000000" d="M1685.76,-203.48C1596.03,-237.45 1439.63,-279.53 1325.29,-217.56 1283.77,-195.06 1308.8,-151.05 1267.29,-128.56 1213.7,-99.52 1144.76,-116.03 1093.8,-136.6"/>
<polygon fill="#000000" stroke="#000000" points="1686.76,-206.28 1693.62,-200.45 1684.62,-200.73 1686.76,-206.28"/>
<polygon fill="#000000" stroke="#000000" points="1092.93,-133.74 1086.23,-139.76 1095.22,-139.24 1092.93,-133.74"/>
</g>
<!-- 8&#45;&gt;9 -->
<!-- 9&#45;&gt;7 -->
<g id="edge24" class="edge">
<title>9&#45;&gt;7</title>
<path fill="none" stroke="#000000" d="M1868.81,-141.81C1853.11,-136.32 1836.35,-131.43 1820.26,-128.56 1765.67,-118.82 1750.08,-118.82 1695.49,-128.56 1679.4,-131.43 1662.64,-136.32 1646.94,-141.81"/>
<polygon fill="#000000" stroke="#000000" points="1867.49,-144.5 1876.49,-144.59 1869.51,-138.9 1867.49,-144.5"/>
<polygon fill="#000000" stroke="#000000" points="1646.24,-138.9 1639.26,-144.59 1648.26,-144.5 1646.24,-138.9"/>
</g>
<!-- head_label -->
<g id="node11" class="node">
<title>head_label</title>
<path fill="#20b2aa" stroke="#000000" d="M12,-80.56C12,-80.56 42,-80.56 42,-80.56 48,-80.56 54,-86.56 54,-92.56 54,-92.56 54,-104.56 54,-104.56 54,-110.56 48,-116.56 42,-116.56 42,-116.56 12,-116.56 12,-116.56 6,-116.56 0,-110.56 0,-104.56 0,-104.56 0,-92.56 0,-92.56 0,-86.56 6,-80.56 12,-80.56"/>
<text xml:space="preserve" text-anchor="middle" x="27" y="-94.96" font-family="Times,serif" font-size="12.00" fill="#000000">HEAD</text>
</g>
<!-- head_label&#45;&gt;2 -->
<g id="edge3" class="edge">
<title>head_label&#45;&gt;2</title>
<path fill="none" stroke="#20b2aa" d="M54.23,-86.56C70.48,-79.8 92.01,-72.02 112,-68.56 299.62,-36.06 356.16,-66.6 536.2,-128.56 551.92,-133.97 568.71,-140 584.58,-145.82"/>
<polygon fill="#20b2aa" stroke="#20b2aa" points="583.38,-148.54 592.39,-148.69 585.44,-142.96 583.38,-148.54"/>
</g>
<!-- tail_label -->
<g id="node12" class="node">
<title>tail_label</title>
<path fill="#20b2aa" stroke="#000000" d="M124,-80.56C124,-80.56 154,-80.56 154,-80.56 160,-80.56 166,-86.56 166,-92.56 166,-92.56 166,-104.56 166,-104.56 166,-110.56 160,-116.56 154,-116.56 154,-116.56 124,-116.56 124,-116.56 118,-116.56 112,-110.56 112,-104.56 112,-104.56 112,-92.56 112,-92.56 112,-86.56 118,-80.56 124,-80.56"/>
<text xml:space="preserve" text-anchor="middle" x="139" y="-94.96" font-family="Times,serif" font-size="12.00" fill="#000000">TAIL</text>
</g>
<!-- head_label&#45;&gt;tail_label -->
<!-- tail_label&#45;&gt;5 -->
<g id="edge4" class="edge">
<title>tail_label&#45;&gt;5</title>
<path fill="none" stroke="#20b2aa" d="M149.79,-116.93C184.45,-179.22 308.05,-378.56 470.49,-378.56 470.49,-378.56 470.49,-378.56 840.36,-378.56 973.77,-378.56 1103.12,-272.24 1165.39,-212.36"/>
<polygon fill="#20b2aa" stroke="#20b2aa" points="1167.18,-214.77 1171.2,-206.71 1163.04,-210.51 1167.18,-214.77"/>
</g>
<!-- free_label -->
<g id="node13" class="node">
<title>free_label</title>
<path fill="#20b2aa" stroke="#000000" d="M271.39,-80.56C271.39,-80.56 301.39,-80.56 301.39,-80.56 307.39,-80.56 313.39,-86.56 313.39,-92.56 313.39,-92.56 313.39,-104.56 313.39,-104.56 313.39,-110.56 307.39,-116.56 301.39,-116.56 301.39,-116.56 271.39,-116.56 271.39,-116.56 265.39,-116.56 259.39,-110.56 259.39,-104.56 259.39,-104.56 259.39,-92.56 259.39,-92.56 259.39,-86.56 265.39,-80.56 271.39,-80.56"/>
<text xml:space="preserve" text-anchor="middle" x="286.39" y="-94.96" font-family="Times,serif" font-size="12.00" fill="#000000">FREE</text>
</g>
<!-- tail_label&#45;&gt;free_label -->
<!-- free_label&#45;&gt;1 -->
<g id="edge5" class="edge">
<title>free_label&#45;&gt;1</title>
<path fill="none" stroke="#20b2aa" d="M313.62,-109.16C335.49,-118 367.72,-131.03 397.3,-142.98"/>
<polygon fill="#20b2aa" stroke="#20b2aa" points="395.98,-145.65 404.97,-146.08 398.21,-140.14 395.98,-145.65"/>
</g>
</g>
</svg>
