<?xml version="1.0" encoding="UTF-8" standalone="no"?>
<!DOCTYPE svg PUBLIC "-//W3C//DTD SVG 1.1//EN"
 "http://www.w3.org/Graphics/SVG/1.1/DTD/svg11.dtd">
<!-- Generated by graphviz version 14.0.2 (20251019.1705)
 -->
<!-- Title: G Pages: 1 -->
<svg width="1200pt" height="183pt"
 viewBox="0.00 0.00 1200.00 183.00" xmlns="http://www.w3.org/2000/svg" xmlns:xlink="http://www.w3.org/1999/xlink">
<g id="graph0" class="graph" transform="scale(1 1) rotate(0) translate(4 178.95)">
<title>G</title>
<polygon fill="#fffafa" stroke="none" points="-4,4 -4,-178.95 1195.85,-178.95 1195.85,4 -4,4"/>
<!-- 0 -->
<g id="node1" class="node">
<title>0</title>
<path fill="#cd5c5c" stroke="#000000" d="M348,-81C348,-81 448.77,-81 448.77,-81 454.77,-81 460.77,-87 460.77,-93 460.77,-93 460.77,-135 460.77,-135 460.77,-141 454.77,-147 448.77,-147 448.77,-147 348,-147 348,-147 342,-147 336,-141 336,-135 336,-135 336,-93 336,-93 336,-87 342,-81 348,-81"/>
<text xml:space="preserve" text-anchor="middle" x="398.39" y="-131.8" font-family="Times,serif" font-size="14.00">phys idx = 0</text>
<polyline fill="none" stroke="#000000" points="336,-125 460.77,-125"/>
<text xml:space="preserve" text-anchor="middle" x="398.39" y="-109.8" font-family="Times,serif" font-size="14.00">elem = &#45;6666.00</text>
<polyline fill="none" stroke="#000000" points="336,-103 460.77,-103"/>
<text xml:space="preserve" text-anchor="middle" x="367.39" y="-87.8" font-family="Times,serif" font-size="14.00">prev = 4</text>
<polyline fill="none" stroke="#000000" points="398.77,-81 398.77,-103"/>
<text xml:space="preserve" text-anchor="middle" x="429.77" y="-87.8" font-family="Times,serif" font-size="14.00">next = 1</text>
</g>
<!-- 1 -->
<g id="node2" class="node">
<title>1</title>
<path fill="#98fb98" stroke="#000000" d="M530.77,-81C530.77,-81 631.54,-81 631.54,-81 637.54,-81 643.54,-87 643.54,-93 643.54,-93 643.54,-135 643.54,-135 643.54,-141 637.54,-147 631.54,-147 631.54,-147 530.77,-147 530.77,-147 524.77,-147 518.77,-141 518.77,-135 518.77,-135 518.77,-93 518.77,-93 518.77,-87 524.77,-81 530.77,-81"/>
<text xml:space="preserve" text-anchor="middle" x="581.16" y="-131.8" font-family="Times,serif" font-size="14.00">phys idx = 1</text>
<polyline fill="none" stroke="#000000" points="518.77,-125 643.54,-125"/>
<text xml:space="preserve" text-anchor="middle" x="581.16" y="-109.8" font-family="Times,serif" font-size="14.00">elem = 11.00</text>
<polyline fill="none" stroke="#000000" points="518.77,-103 643.54,-103"/>
<text xml:space="preserve" text-anchor="middle" x="550.16" y="-87.8" font-family="Times,serif" font-size="14.00">prev = 0</text>
<polyline fill="none" stroke="#000000" points="581.54,-81 581.54,-103"/>
<text xml:space="preserve" text-anchor="middle" x="612.54" y="-87.8" font-family="Times,serif" font-size="14.00">next = 2</text>
</g>
<!-- 0&#45;&gt;1 -->
<!-- 0&#45;&gt;1 -->
<g id="edge10" class="edge">
<title>0&#45;&gt;1</title>
<path fill="none" stroke="#000000" d="M470.78,-122.09C483.21,-122.3 496.14,-122.3 508.57,-122.09"/>
<polygon fill="#000000" stroke="#000000" points="471.17,-119.12 462.6,-121.9 471.04,-125.07 471.17,-119.12"/>
<polygon fill="#000000" stroke="#000000" points="508.48,-125.07 516.91,-121.9 508.34,-119.12 508.48,-125.07"/>
</g>
<!-- 2 -->
<g id="node3" class="node">
<title>2</title>
<path fill="#98fb98" stroke="#000000" d="M713.54,-81C713.54,-81 814.31,-81 814.31,-81 820.31,-81 826.31,-87 826.31,-93 826.31,-93 826.31,-135 826.31,-135 826.31,-141 820.31,-147 814.31,-147 814.31,-147 713.54,-147 713.54,-147 707.54,-147 701.54,-141 701.54,-135 701.54,-135 701.54,-93 701.54,-93 701.54,-87 707.54,-81 713.54,-81"/>
<text xml:space="preserve" text-anchor="middle" x="763.93" y="-131.8" font-family="Times,serif" font-size="14.00">phys idx = 2</text>
<polyline fill="none" stroke="#000000" points="701.54,-125 826.31,-125"/>
<text xml:space="preserve" text-anchor="middle" x="763.93" y="-109.8" font-family="Times,serif" font-size="14.00">elem = 21.00</text>
<polyline fill="none" stroke="#000000" points="701.54,-103 826.31,-103"/>
<text xml:space="preserve" text-anchor="middle" x="732.93" y="-87.8" font-family="Times,serif" font-size="14.00">prev = 1</text>
<polyline fill="none" stroke="#000000" points="764.31,-81 764.31,-103"/>
<text xml:space="preserve" text-anchor="middle" x="795.31" y="-87.8" font-family="Times,serif" font-size="14.00">next = 3</text>
</g>
<!-- 1&#45;&gt;2 -->
<!-- 1&#45;&gt;2 -->
<g id="edge11" class="edge">
<title>1&#45;&gt;2</title>
<path fill="none" stroke="#000000" d="M653.55,-122.09C665.98,-122.3 678.91,-122.3 691.35,-122.09"/>
<polygon fill="#000000" stroke="#000000" points="653.94,-119.12 645.37,-121.9 653.81,-125.07 653.94,-119.12"/>
<polygon fill="#000000" stroke="#000000" points="691.25,-125.07 699.68,-121.9 691.11,-119.12 691.25,-125.07"/>
</g>
<!-- 3 -->
<g id="node4" class="node">
<title>3</title>
<path fill="#98fb98" stroke="#000000" d="M896.31,-81C896.31,-81 997.08,-81 997.08,-81 1003.08,-81 1009.08,-87 1009.08,-93 1009.08,-93 1009.08,-135 1009.08,-135 1009.08,-141 1003.08,-147 997.08,-147 997.08,-147 896.31,-147 896.31,-147 890.31,-147 884.31,-141 884.31,-135 884.31,-135 884.31,-93 884.31,-93 884.31,-87 890.31,-81 896.31,-81"/>
<text xml:space="preserve" text-anchor="middle" x="946.7" y="-131.8" font-family="Times,serif" font-size="14.00">phys idx = 3</text>
<polyline fill="none" stroke="#000000" points="884.31,-125 1009.08,-125"/>
<text xml:space="preserve" text-anchor="middle" x="946.7" y="-109.8" font-family="Times,serif" font-size="14.00">elem = 31.00</text>
<polyline fill="none" stroke="#000000" points="884.31,-103 1009.08,-103"/>
<text xml:space="preserve" text-anchor="middle" x="915.7" y="-87.8" font-family="Times,serif" font-size="14.00">prev = 2</text>
<polyline fill="none" stroke="#000000" points="947.08,-81 947.08,-103"/>
<text xml:space="preserve" text-anchor="middle" x="978.08" y="-87.8" font-family="Times,serif" font-size="14.00">next = 4</text>
</g>
<!-- 2&#45;&gt;3 -->
<!-- 2&#45;&gt;3 -->
<g id="edge12" class="edge">
<title>2&#45;&gt;3</title>
<path fill="none" stroke="#000000" d="M836.32,-122.09C848.75,-122.3 861.68,-122.3 874.12,-122.09"/>
<polygon fill="#000000" stroke="#000000" points="836.71,-119.12 828.14,-121.9 836.58,-125.07 836.71,-119.12"/>
<polygon fill="#000000" stroke="#000000" points="874.02,-125.07 882.45,-121.9 873.89,-119.12 874.02,-125.07"/>
</g>
<!-- 4 -->
<g id="node5" class="node">
<title>4</title>
<path fill="#98fb98" stroke="#000000" d="M1079.08,-81C1079.08,-81 1179.85,-81 1179.85,-81 1185.85,-81 1191.85,-87 1191.85,-93 1191.85,-93 1191.85,-135 1191.85,-135 1191.85,-141 1185.85,-147 1179.85,-147 1179.85,-147 1079.08,-147 1079.08,-147 1073.08,-147 1067.08,-141 1067.08,-135 1067.08,-135 1067.08,-93 1067.08,-93 1067.08,-87 1073.08,-81 1079.08,-81"/>
<text xml:space="preserve" text-anchor="middle" x="1129.47" y="-131.8" font-family="Times,serif" font-size="14.00">phys idx = 4</text>
<polyline fill="none" stroke="#000000" points="1067.08,-125 1191.85,-125"/>
<text xml:space="preserve" text-anchor="middle" x="1129.47" y="-109.8" font-family="Times,serif" font-size="14.00">elem = 41.00</text>
<polyline fill="none" stroke="#000000" points="1067.08,-103 1191.85,-103"/>
<text xml:space="preserve" text-anchor="middle" x="1098.47" y="-87.8" font-family="Times,serif" font-size="14.00">prev = 3</text>
<polyline fill="none" stroke="#000000" points="1129.85,-81 1129.85,-103"/>
<text xml:space="preserve" text-anchor="middle" x="1160.85" y="-87.8" font-family="Times,serif" font-size="14.00">next = 0</text>
</g>
<!-- 3&#45;&gt;4 -->
<!-- 3&#45;&gt;4 -->
<g id="edge13" class="edge">
<title>3&#45;&gt;4</title>
<path fill="none" stroke="#000000" d="M1019.09,-122.09C1031.52,-122.3 1044.45,-122.3 1056.89,-122.09"/>
<polygon fill="#000000" stroke="#000000" points="1019.48,-119.12 1010.92,-121.9 1019.35,-125.07 1019.48,-119.12"/>
<polygon fill="#000000" stroke="#000000" points="1056.79,-125.07 1065.22,-121.9 1056.66,-119.12 1056.79,-125.07"/>
</g>
<!-- 4&#45;&gt;0 -->
<g id="edge14" class="edge">
<title>4&#45;&gt;0</title>
<path fill="none" stroke="#000000" d="M1057.63,-83.25C1041.93,-77.76 1025.17,-72.87 1009.08,-70 794.55,-31.73 733.3,-31.73 518.77,-70 502.68,-72.87 485.92,-77.76 470.22,-83.25"/>
<polygon fill="#000000" stroke="#000000" points="1056.31,-85.94 1065.31,-86.03 1058.33,-80.34 1056.31,-85.94"/>
<polygon fill="#000000" stroke="#000000" points="469.52,-80.34 462.54,-86.03 471.54,-85.94 469.52,-80.34"/>
</g>
<!-- head_label -->
<g id="node6" class="node">
<title>head_label</title>
<path fill="#20b2aa" stroke="#000000" d="M12,-96C12,-96 42,-96 42,-96 48,-96 54,-102 54,-108 54,-108 54,-120 54,-120 54,-126 48,-132 42,-132 42,-132 12,-132 12,-132 6,-132 0,-126 0,-120 0,-120 0,-108 0,-108 0,-102 6,-96 12,-96"/>
<text xml:space="preserve" text-anchor="middle" x="27" y="-110.4" font-family="Times,serif" font-size="12.00" fill="#000000">HEAD</text>
</g>
<!-- head_label&#45;&gt;1 -->
<g id="edge3" class="edge">
<title>head_label&#45;&gt;1</title>
<path fill="none" stroke="#20b2aa" d="M54.32,-125.52C70.61,-132.11 92.14,-139.87 112,-144 263.91,-175.58 308.13,-186.81 460.77,-159 476.89,-156.06 493.67,-151.06 509.37,-145.44"/>
<polygon fill="#20b2aa" stroke="#20b2aa" points="510.12,-148.34 517.06,-142.6 508.05,-142.76 510.12,-148.34"/>
</g>
<!-- tail_label -->
<g id="node7" class="node">
<title>tail_label</title>
<path fill="#20b2aa" stroke="#000000" d="M124,-96C124,-96 154,-96 154,-96 160,-96 166,-102 166,-108 166,-108 166,-120 166,-120 166,-126 160,-132 154,-132 154,-132 124,-132 124,-132 118,-132 112,-126 112,-120 112,-120 112,-108 112,-108 112,-102 118,-96 124,-96"/>
<text xml:space="preserve" text-anchor="middle" x="139" y="-110.4" font-family="Times,serif" font-size="12.00" fill="#000000">TAIL</text>
</g>
<!-- head_label&#45;&gt;tail_label -->
<!-- tail_label&#45;&gt;4 -->
<g id="edge4" class="edge">
<title>tail_label&#45;&gt;4</title>
<path fill="none" stroke="#20b2aa" d="M163.3,-95.68C206.71,-63.46 304.04,0 397.39,0 397.39,0 397.39,0 764.93,0 875.27,0 905.55,-6.84 1009.08,-45 1030.22,-52.79 1051.94,-64.18 1070.97,-75.46"/>
<polygon fill="#20b2aa" stroke="#20b2aa" points="1069.4,-77.99 1078.22,-79.84 1072.48,-72.9 1069.4,-77.99"/>
</g>
<!-- free_label -->
<g id="node8" class="node">
<title>free_label</title>
<path fill="#20b2aa" stroke="#000000" d="M236,-96C236,-96 266,-96 266,-96 272,-96 278,-102 278,-108 278,-108 278,-120 278,-120 278,-126 272,-132 266,-132 266,-132 236,-132 236,-132 230,-132 224,-126 224,-120 224,-120 224,-108 224,-108 224,-102 230,-96 236,-96"/>
<text xml:space="preserve" text-anchor="middle" x="251" y="-110.4" font-family="Times,serif" font-size="12.00" fill="#000000">FREE</text>
</g>
<!-- tail_label&#45;&gt;free_label -->
<!-- free_label&#45;&gt;0 -->
<g id="edge5" class="edge">
<title>free_label&#45;&gt;0</title>
<path fill="none" stroke="#20b2aa" d="M278.33,-114C291.74,-114 308.75,-114 325.7,-114"/>
<polygon fill="#20b2aa" stroke="#20b2aa" points="325.63,-116.98 334.13,-114 325.63,-111.03 325.63,-116.98"/>
</g>
</g>
</svg>
