<?xml version="1.0" encoding="UTF-8" standalone="no"?>
<!DOCTYPE svg PUBLIC "-//W3C//DTD SVG 1.1//EN"
 "http://www.w3.org/Graphics/SVG/1.1/DTD/svg11.dtd">
<!-- Generated by graphviz version 14.0.2 (20251019.1705)
 -->
<!-- Title: G Pages: 1 -->
<svg width="1687pt" height="123pt"
 viewBox="0.00 0.00 1687.00 123.00" xmlns="http://www.w3.org/2000/svg" xmlns:xlink="http://www.w3.org/1999/xlink">
<g id="graph0" class="graph" transform="scale(1 1) rotate(0) translate(4 119)">
<title>G</title>
<polygon fill="#1e2a36" stroke="none" points="-4,4 -4,-119 1683.03,-119 1683.03,4 -4,4"/>
<!-- info -->
<g id="node1" class="node">
<title>info</title>
<polygon fill="#4a5257" stroke="#fff4cc" stroke-width="2" points="0,-24.5 0,-90.5 64.32,-90.5 64.32,-24.5 0,-24.5"/>
<text xml:space="preserve" text-anchor="middle" x="32.16" y="-75.3" font-family="Times,serif" font-size="14.00">head = 1</text>
<polyline fill="none" stroke="#fff4cc" stroke-width="2" points="0,-68.5 64.32,-68.5"/>
<text xml:space="preserve" text-anchor="middle" x="32.16" y="-53.3" font-family="Times,serif" font-size="14.00">tail = 10</text>
<polyline fill="none" stroke="#fff4cc" stroke-width="2" points="0,-46.5 64.32,-46.5"/>
<text xml:space="preserve" text-anchor="middle" x="32.16" y="-31.3" font-family="Times,serif" font-size="14.00">free = 0</text>
</g>
<!-- 1 -->
<g id="node2" class="node">
<title>1</title>
<polygon fill="#82898f" stroke="#ffffff" stroke-width="2" points="100.32,-24.5 100.32,-90.5 225.09,-90.5 225.09,-24.5 100.32,-24.5"/>
<text xml:space="preserve" text-anchor="middle" x="162.71" y="-75.3" font-family="Times,serif" font-size="14.00">phys idx = 1</text>
<polyline fill="none" stroke="#ffffff" stroke-width="2" points="100.32,-68.5 225.09,-68.5"/>
<text xml:space="preserve" text-anchor="middle" x="162.71" y="-53.3" font-family="Times,serif" font-size="14.00">elem = 11.00</text>
<polyline fill="none" stroke="#ffffff" stroke-width="2" points="100.32,-46.5 225.09,-46.5"/>
<text xml:space="preserve" text-anchor="middle" x="131.71" y="-31.3" font-family="Times,serif" font-size="14.00">prev = 0</text>
<polyline fill="none" stroke="#ffffff" stroke-width="2" points="163.09,-24.5 163.09,-46.5"/>
<text xml:space="preserve" text-anchor="middle" x="194.09" y="-31.3" font-family="Times,serif" font-size="14.00">next = 2</text>
</g>
<!-- info&#45;&gt;1 -->
<!-- 2 -->
<g id="node3" class="node">
<title>2</title>
<polygon fill="#82898f" stroke="#ffffff" stroke-width="2" points="261.09,-24.5 261.09,-90.5 385.86,-90.5 385.86,-24.5 261.09,-24.5"/>
<text xml:space="preserve" text-anchor="middle" x="323.48" y="-75.3" font-family="Times,serif" font-size="14.00">phys idx = 2</text>
<polyline fill="none" stroke="#ffffff" stroke-width="2" points="261.09,-68.5 385.86,-68.5"/>
<text xml:space="preserve" text-anchor="middle" x="323.48" y="-53.3" font-family="Times,serif" font-size="14.00">elem = 20.00</text>
<polyline fill="none" stroke="#ffffff" stroke-width="2" points="261.09,-46.5 385.86,-46.5"/>
<text xml:space="preserve" text-anchor="middle" x="292.48" y="-31.3" font-family="Times,serif" font-size="14.00">prev = 1</text>
<polyline fill="none" stroke="#ffffff" stroke-width="2" points="323.87,-24.5 323.87,-46.5"/>
<text xml:space="preserve" text-anchor="middle" x="354.86" y="-31.3" font-family="Times,serif" font-size="14.00">next = 3</text>
</g>
<!-- 1&#45;&gt;2 -->
<!-- 1&#45;&gt;2 -->
<g id="edge11" class="edge">
<title>1&#45;&gt;2</title>
<path fill="none" stroke="#d4a798" d="M225.79,-68.67C225.79,-68.67 250.3,-68.67 250.3,-68.67"/>
<polygon fill="#d4a798" stroke="#d4a798" points="250.3,-71.64 258.8,-68.67 250.3,-65.69 250.3,-71.64"/>
</g>
<!-- 3 -->
<g id="node4" class="node">
<title>3</title>
<polygon fill="#82898f" stroke="#ffffff" stroke-width="2" points="421.86,-24.5 421.86,-90.5 546.63,-90.5 546.63,-24.5 421.86,-24.5"/>
<text xml:space="preserve" text-anchor="middle" x="484.25" y="-75.3" font-family="Times,serif" font-size="14.00">phys idx = 3</text>
<polyline fill="none" stroke="#ffffff" stroke-width="2" points="421.86,-68.5 546.63,-68.5"/>
<text xml:space="preserve" text-anchor="middle" x="484.25" y="-53.3" font-family="Times,serif" font-size="14.00">elem = 30.00</text>
<polyline fill="none" stroke="#ffffff" stroke-width="2" points="421.86,-46.5 546.63,-46.5"/>
<text xml:space="preserve" text-anchor="middle" x="453.25" y="-31.3" font-family="Times,serif" font-size="14.00">prev = 2</text>
<polyline fill="none" stroke="#ffffff" stroke-width="2" points="484.64,-24.5 484.64,-46.5"/>
<text xml:space="preserve" text-anchor="middle" x="515.64" y="-31.3" font-family="Times,serif" font-size="14.00">next = 9</text>
</g>
<!-- 2&#45;&gt;3 -->
<!-- 2&#45;&gt;3 -->
<g id="edge12" class="edge">
<title>2&#45;&gt;3</title>
<path fill="none" stroke="#d4a798" d="M386.56,-68.67C386.56,-68.67 411.07,-68.67 411.07,-68.67"/>
<polygon fill="#d4a798" stroke="#d4a798" points="411.07,-71.64 419.57,-68.67 411.07,-65.69 411.07,-71.64"/>
</g>
<!-- 4 -->
<g id="node5" class="node">
<title>4</title>
<polygon fill="#82898f" stroke="#ffffff" stroke-width="2" points="582.63,-24.5 582.63,-90.5 707.41,-90.5 707.41,-24.5 582.63,-24.5"/>
<text xml:space="preserve" text-anchor="middle" x="645.02" y="-75.3" font-family="Times,serif" font-size="14.00">phys idx = 4</text>
<polyline fill="none" stroke="#ffffff" stroke-width="2" points="582.63,-68.5 707.41,-68.5"/>
<text xml:space="preserve" text-anchor="middle" x="645.02" y="-53.3" font-family="Times,serif" font-size="14.00">elem = 40.00</text>
<polyline fill="none" stroke="#ffffff" stroke-width="2" points="582.63,-46.5 707.41,-46.5"/>
<text xml:space="preserve" text-anchor="middle" x="614.02" y="-31.3" font-family="Times,serif" font-size="14.00">prev = 8</text>
<polyline fill="none" stroke="#ffffff" stroke-width="2" points="645.41,-24.5 645.41,-46.5"/>
<text xml:space="preserve" text-anchor="middle" x="676.41" y="-31.3" font-family="Times,serif" font-size="14.00">next = 5</text>
</g>
<!-- 3&#45;&gt;4 -->
<!-- 9 -->
<g id="node10" class="node">
<title>9</title>
<polygon fill="#82898f" stroke="#ffffff" stroke-width="2" points="1393.49,-24.5 1393.49,-90.5 1518.26,-90.5 1518.26,-24.5 1393.49,-24.5"/>
<text xml:space="preserve" text-anchor="middle" x="1455.87" y="-75.3" font-family="Times,serif" font-size="14.00">phys idx = 9</text>
<polyline fill="none" stroke="#ffffff" stroke-width="2" points="1393.49,-68.5 1518.26,-68.5"/>
<text xml:space="preserve" text-anchor="middle" x="1455.87" y="-53.3" font-family="Times,serif" font-size="14.00">elem = 32.00</text>
<polyline fill="none" stroke="#ffffff" stroke-width="2" points="1393.49,-46.5 1518.26,-46.5"/>
<text xml:space="preserve" text-anchor="middle" x="1424.87" y="-31.3" font-family="Times,serif" font-size="14.00">prev = 3</text>
<polyline fill="none" stroke="#ffffff" stroke-width="2" points="1456.26,-24.5 1456.26,-46.5"/>
<text xml:space="preserve" text-anchor="middle" x="1487.26" y="-31.3" font-family="Times,serif" font-size="14.00">next = 7</text>
</g>
<!-- 3&#45;&gt;9 -->
<g id="edge13" class="edge">
<title>3&#45;&gt;9</title>
<path fill="none" stroke="#d4a798" d="M484.03,-91.05C484.03,-97.87 484.03,-103 484.03,-103 484.03,-103 1456.03,-103 1456.03,-103 1456.03,-103 1456.03,-101.06 1456.03,-101.06"/>
<polygon fill="#d4a798" stroke="#d4a798" points="1459,-101.06 1456.03,-92.56 1453.05,-101.06 1459,-101.06"/>
</g>
<!-- 5 -->
<g id="node6" class="node">
<title>5</title>
<polygon fill="#82898f" stroke="#ffffff" stroke-width="2" points="743.41,-24.5 743.41,-90.5 868.18,-90.5 868.18,-24.5 743.41,-24.5"/>
<text xml:space="preserve" text-anchor="middle" x="805.79" y="-75.3" font-family="Times,serif" font-size="14.00">phys idx = 5</text>
<polyline fill="none" stroke="#ffffff" stroke-width="2" points="743.41,-68.5 868.18,-68.5"/>
<text xml:space="preserve" text-anchor="middle" x="805.79" y="-53.3" font-family="Times,serif" font-size="14.00">elem = 50.00</text>
<polyline fill="none" stroke="#ffffff" stroke-width="2" points="743.41,-46.5 868.18,-46.5"/>
<text xml:space="preserve" text-anchor="middle" x="774.79" y="-31.3" font-family="Times,serif" font-size="14.00">prev = 4</text>
<polyline fill="none" stroke="#ffffff" stroke-width="2" points="806.18,-24.5 806.18,-46.5"/>
<text xml:space="preserve" text-anchor="middle" x="837.18" y="-31.3" font-family="Times,serif" font-size="14.00">next = 6</text>
</g>
<!-- 4&#45;&gt;5 -->
<!-- 4&#45;&gt;5 -->
<g id="edge14" class="edge">
<title>4&#45;&gt;5</title>
<path fill="none" stroke="#d4a798" d="M708.1,-68.67C708.1,-68.67 732.62,-68.67 732.62,-68.67"/>
<polygon fill="#d4a798" stroke="#d4a798" points="732.62,-71.64 741.12,-68.67 732.62,-65.69 732.62,-71.64"/>
</g>
<!-- 6 -->
<g id="node7" class="node">
<title>6</title>
<polygon fill="#82898f" stroke="#ffffff" stroke-width="2" points="904.18,-24.5 904.18,-90.5 1035.95,-90.5 1035.95,-24.5 904.18,-24.5"/>
<text xml:space="preserve" text-anchor="middle" x="970.06" y="-75.3" font-family="Times,serif" font-size="14.00">phys idx = 6</text>
<polyline fill="none" stroke="#ffffff" stroke-width="2" points="904.18,-68.5 1035.95,-68.5"/>
<text xml:space="preserve" text-anchor="middle" x="970.06" y="-53.3" font-family="Times,serif" font-size="14.00">elem = 66.00</text>
<polyline fill="none" stroke="#ffffff" stroke-width="2" points="904.18,-46.5 1035.95,-46.5"/>
<text xml:space="preserve" text-anchor="middle" x="935.56" y="-31.3" font-family="Times,serif" font-size="14.00">prev = 5</text>
<polyline fill="none" stroke="#ffffff" stroke-width="2" points="966.95,-24.5 966.95,-46.5"/>
<text xml:space="preserve" text-anchor="middle" x="1001.45" y="-31.3" font-family="Times,serif" font-size="14.00">next = 10</text>
</g>
<!-- 5&#45;&gt;6 -->
<!-- 5&#45;&gt;6 -->
<g id="edge15" class="edge">
<title>5&#45;&gt;6</title>
<path fill="none" stroke="#d4a798" d="M868.83,-68.67C868.83,-68.67 893.36,-68.67 893.36,-68.67"/>
<polygon fill="#d4a798" stroke="#d4a798" points="893.36,-71.64 901.86,-68.67 893.36,-65.69 893.36,-71.64"/>
</g>
<!-- 7 -->
<g id="node8" class="node">
<title>7</title>
<polygon fill="#82898f" stroke="#ffffff" stroke-width="2" points="1071.95,-24.5 1071.95,-90.5 1196.72,-90.5 1196.72,-24.5 1071.95,-24.5"/>
<text xml:space="preserve" text-anchor="middle" x="1134.33" y="-75.3" font-family="Times,serif" font-size="14.00">phys idx = 7</text>
<polyline fill="none" stroke="#ffffff" stroke-width="2" points="1071.95,-68.5 1196.72,-68.5"/>
<text xml:space="preserve" text-anchor="middle" x="1134.33" y="-53.3" font-family="Times,serif" font-size="14.00">elem = 35.00</text>
<polyline fill="none" stroke="#ffffff" stroke-width="2" points="1071.95,-46.5 1196.72,-46.5"/>
<text xml:space="preserve" text-anchor="middle" x="1103.33" y="-31.3" font-family="Times,serif" font-size="14.00">prev = 9</text>
<polyline fill="none" stroke="#ffffff" stroke-width="2" points="1134.72,-24.5 1134.72,-46.5"/>
<text xml:space="preserve" text-anchor="middle" x="1165.72" y="-31.3" font-family="Times,serif" font-size="14.00">next = 8</text>
</g>
<!-- 6&#45;&gt;7 -->
<!-- 10 -->
<g id="node11" class="node">
<title>10</title>
<polygon fill="#82898f" stroke="#ffffff" stroke-width="2" points="1554.26,-24.5 1554.26,-90.5 1679.03,-90.5 1679.03,-24.5 1554.26,-24.5"/>
<text xml:space="preserve" text-anchor="middle" x="1616.64" y="-75.3" font-family="Times,serif" font-size="14.00">phys idx = 10</text>
<polyline fill="none" stroke="#ffffff" stroke-width="2" points="1554.26,-68.5 1679.03,-68.5"/>
<text xml:space="preserve" text-anchor="middle" x="1616.64" y="-53.3" font-family="Times,serif" font-size="14.00">elem = 70.00</text>
<polyline fill="none" stroke="#ffffff" stroke-width="2" points="1554.26,-46.5 1679.03,-46.5"/>
<text xml:space="preserve" text-anchor="middle" x="1585.64" y="-31.3" font-family="Times,serif" font-size="14.00">prev = 6</text>
<polyline fill="none" stroke="#ffffff" stroke-width="2" points="1617.03,-24.5 1617.03,-46.5"/>
<text xml:space="preserve" text-anchor="middle" x="1648.03" y="-31.3" font-family="Times,serif" font-size="14.00">next = 0</text>
</g>
<!-- 6&#45;&gt;10 -->
<g id="edge16" class="edge">
<title>6&#45;&gt;10</title>
<path fill="none" stroke="#d4a798" d="M970.03,-91.28C970.03,-103.8 970.03,-115 970.03,-115 970.03,-115 1617.03,-115 1617.03,-115 1617.03,-115 1617.03,-101.29 1617.03,-101.29"/>
<polygon fill="#d4a798" stroke="#d4a798" points="1620,-101.29 1617.03,-92.79 1614.05,-101.29 1620,-101.29"/>
</g>
<!-- 8 -->
<g id="node9" class="node">
<title>8</title>
<polygon fill="#82898f" stroke="#ffffff" stroke-width="2" points="1232.72,-24.5 1232.72,-90.5 1357.49,-90.5 1357.49,-24.5 1232.72,-24.5"/>
<text xml:space="preserve" text-anchor="middle" x="1295.1" y="-75.3" font-family="Times,serif" font-size="14.00">phys idx = 8</text>
<polyline fill="none" stroke="#ffffff" stroke-width="2" points="1232.72,-68.5 1357.49,-68.5"/>
<text xml:space="preserve" text-anchor="middle" x="1295.1" y="-53.3" font-family="Times,serif" font-size="14.00">elem = 36.00</text>
<polyline fill="none" stroke="#ffffff" stroke-width="2" points="1232.72,-46.5 1357.49,-46.5"/>
<text xml:space="preserve" text-anchor="middle" x="1264.1" y="-31.3" font-family="Times,serif" font-size="14.00">prev = 7</text>
<polyline fill="none" stroke="#ffffff" stroke-width="2" points="1295.49,-24.5 1295.49,-46.5"/>
<text xml:space="preserve" text-anchor="middle" x="1326.49" y="-31.3" font-family="Times,serif" font-size="14.00">next = 4</text>
</g>
<!-- 7&#45;&gt;8 -->
<!-- 7&#45;&gt;8 -->
<g id="edge17" class="edge">
<title>7&#45;&gt;8</title>
<path fill="none" stroke="#d4a798" d="M1197.41,-68.67C1197.41,-68.67 1221.93,-68.67 1221.93,-68.67"/>
<polygon fill="#d4a798" stroke="#d4a798" points="1221.93,-71.64 1230.43,-68.67 1221.93,-65.69 1221.93,-71.64"/>
</g>
<!-- 8&#45;&gt;4 -->
<g id="edge18" class="edge">
<title>8&#45;&gt;4</title>
<path fill="none" stroke="#d4a798" d="M1295.03,-23.72C1295.03,-11.2 1295.03,0 1295.03,0 1295.03,0 645.03,0 645.03,0 645.03,0 645.03,-13.71 645.03,-13.71"/>
<polygon fill="#d4a798" stroke="#d4a798" points="642.05,-13.71 645.03,-22.21 648,-13.71 642.05,-13.71"/>
</g>
<!-- 8&#45;&gt;9 -->
<!-- 9&#45;&gt;7 -->
<g id="edge19" class="edge">
<title>9&#45;&gt;7</title>
<path fill="none" stroke="#d4a798" d="M1456.03,-23.95C1456.03,-17.13 1456.03,-12 1456.03,-12 1456.03,-12 1134.03,-12 1134.03,-12 1134.03,-12 1134.03,-13.94 1134.03,-13.94"/>
<polygon fill="#d4a798" stroke="#d4a798" points="1131.05,-13.94 1134.03,-22.44 1137,-13.94 1131.05,-13.94"/>
</g>
<!-- 9&#45;&gt;10 -->
</g>
</svg>
