<?xml version="1.0" encoding="UTF-8" standalone="no"?>
<!DOCTYPE svg PUBLIC "-//W3C//DTD SVG 1.1//EN"
 "http://www.w3.org/Graphics/SVG/1.1/DTD/svg11.dtd">
<!-- Generated by graphviz version 14.0.2 (20251019.1705)
 -->
<!-- Title: G Pages: 1 -->
<svg width="781pt" height="296pt"
 viewBox="0.00 0.00 781.00 296.00" xmlns="http://www.w3.org/2000/svg" xmlns:xlink="http://www.w3.org/1999/xlink">
<g id="graph0" class="graph" transform="scale(1 1) rotate(0) translate(4 291.5)">
<title>G</title>
<polygon fill="#fffafa" stroke="none" points="-4,4 -4,-291.5 776.51,-291.5 776.51,4 -4,4"/>
<!-- 0 -->
<g id="node1" class="node">
<title>0</title>
<path fill="#cd5c5c" stroke="#000000" d="M12,-221C12,-221 112.77,-221 112.77,-221 118.77,-221 124.77,-227 124.77,-233 124.77,-233 124.77,-275 124.77,-275 124.77,-281 118.77,-287 112.77,-287 112.77,-287 12,-287 12,-287 6,-287 0,-281 0,-275 0,-275 0,-233 0,-233 0,-227 6,-221 12,-221"/>
<text xml:space="preserve" text-anchor="middle" x="62.39" y="-271.8" font-family="Times,serif" font-size="14.00">phys idx = 0</text>
<polyline fill="none" stroke="#000000" points="0,-265 124.77,-265"/>
<text xml:space="preserve" text-anchor="middle" x="62.39" y="-249.8" font-family="Times,serif" font-size="14.00">elem = &#45;6666.00</text>
<polyline fill="none" stroke="#000000" points="0,-243 124.77,-243"/>
<text xml:space="preserve" text-anchor="middle" x="31.39" y="-227.8" font-family="Times,serif" font-size="14.00">prev = 3</text>
<polyline fill="none" stroke="#000000" points="62.77,-221 62.77,-243"/>
<text xml:space="preserve" text-anchor="middle" x="93.77" y="-227.8" font-family="Times,serif" font-size="14.00">next = 1</text>
</g>
<!-- 1 -->
<g id="node2" class="node">
<title>1</title>
<path fill="#98fb98" stroke="#000000" d="M172.77,-221C172.77,-221 273.54,-221 273.54,-221 279.54,-221 285.54,-227 285.54,-233 285.54,-233 285.54,-275 285.54,-275 285.54,-281 279.54,-287 273.54,-287 273.54,-287 172.77,-287 172.77,-287 166.77,-287 160.77,-281 160.77,-275 160.77,-275 160.77,-233 160.77,-233 160.77,-227 166.77,-221 172.77,-221"/>
<text xml:space="preserve" text-anchor="middle" x="223.16" y="-271.8" font-family="Times,serif" font-size="14.00">phys idx = 1</text>
<polyline fill="none" stroke="#000000" points="160.77,-265 285.54,-265"/>
<text xml:space="preserve" text-anchor="middle" x="223.16" y="-249.8" font-family="Times,serif" font-size="14.00">elem = 11.00</text>
<polyline fill="none" stroke="#000000" points="160.77,-243 285.54,-243"/>
<text xml:space="preserve" text-anchor="middle" x="192.16" y="-227.8" font-family="Times,serif" font-size="14.00">prev = 0</text>
<polyline fill="none" stroke="#000000" points="223.54,-221 223.54,-243"/>
<text xml:space="preserve" text-anchor="middle" x="254.54" y="-227.8" font-family="Times,serif" font-size="14.00">next = 2</text>
</g>
<!-- 0&#45;&gt;1 -->
<!-- 0&#45;&gt;1 -->
<g id="edge5" class="edge">
<title>0&#45;&gt;1</title>
<path fill="none" stroke="#6a7075" d="M135.02,-242.83C135.02,-242.83 150.43,-242.83 150.43,-242.83"/>
<polygon fill="#6a7075" stroke="#6a7075" points="135.02,-239.86 126.52,-242.83 135.02,-245.81 135.02,-239.86"/>
<polygon fill="#6a7075" stroke="#6a7075" points="150.43,-245.81 158.93,-242.83 150.43,-239.86 150.43,-245.81"/>
</g>
<!-- 2 -->
<g id="node3" class="node">
<title>2</title>
<path fill="#98fb98" stroke="#000000" d="M333.54,-221C333.54,-221 434.31,-221 434.31,-221 440.31,-221 446.31,-227 446.31,-233 446.31,-233 446.31,-275 446.31,-275 446.31,-281 440.31,-287 434.31,-287 434.31,-287 333.54,-287 333.54,-287 327.54,-287 321.54,-281 321.54,-275 321.54,-275 321.54,-233 321.54,-233 321.54,-227 327.54,-221 333.54,-221"/>
<text xml:space="preserve" text-anchor="middle" x="383.93" y="-271.8" font-family="Times,serif" font-size="14.00">phys idx = 2</text>
<polyline fill="none" stroke="#000000" points="321.54,-265 446.31,-265"/>
<text xml:space="preserve" text-anchor="middle" x="383.93" y="-249.8" font-family="Times,serif" font-size="14.00">elem = 21.00</text>
<polyline fill="none" stroke="#000000" points="321.54,-243 446.31,-243"/>
<text xml:space="preserve" text-anchor="middle" x="352.93" y="-227.8" font-family="Times,serif" font-size="14.00">prev = 1</text>
<polyline fill="none" stroke="#000000" points="384.31,-221 384.31,-243"/>
<text xml:space="preserve" text-anchor="middle" x="415.31" y="-227.8" font-family="Times,serif" font-size="14.00">next = 3</text>
</g>
<!-- 1&#45;&gt;2 -->
<!-- 1&#45;&gt;2 -->
<g id="edge6" class="edge">
<title>1&#45;&gt;2</title>
<path fill="none" stroke="#6a7075" d="M295.79,-265.17C295.79,-265.17 311.2,-265.17 311.2,-265.17"/>
<polygon fill="#6a7075" stroke="#6a7075" points="295.79,-262.19 287.29,-265.17 295.79,-268.14 295.79,-262.19"/>
<polygon fill="#6a7075" stroke="#6a7075" points="311.2,-268.14 319.7,-265.17 311.2,-262.19 311.2,-268.14"/>
</g>
<!-- 3 -->
<g id="node4" class="node">
<title>3</title>
<path fill="#98fb98" stroke="#000000" d="M494.31,-221C494.31,-221 595.08,-221 595.08,-221 601.08,-221 607.08,-227 607.08,-233 607.08,-233 607.08,-275 607.08,-275 607.08,-281 601.08,-287 595.08,-287 595.08,-287 494.31,-287 494.31,-287 488.31,-287 482.31,-281 482.31,-275 482.31,-275 482.31,-233 482.31,-233 482.31,-227 488.31,-221 494.31,-221"/>
<text xml:space="preserve" text-anchor="middle" x="544.7" y="-271.8" font-family="Times,serif" font-size="14.00">phys idx = 3</text>
<polyline fill="none" stroke="#000000" points="482.31,-265 607.08,-265"/>
<text xml:space="preserve" text-anchor="middle" x="544.7" y="-249.8" font-family="Times,serif" font-size="14.00">elem = 31.00</text>
<polyline fill="none" stroke="#000000" points="482.31,-243 607.08,-243"/>
<text xml:space="preserve" text-anchor="middle" x="513.7" y="-227.8" font-family="Times,serif" font-size="14.00">prev = 2</text>
<polyline fill="none" stroke="#000000" points="545.08,-221 545.08,-243"/>
<text xml:space="preserve" text-anchor="middle" x="576.08" y="-227.8" font-family="Times,serif" font-size="14.00">next = 0</text>
</g>
<!-- 2&#45;&gt;3 -->
<!-- 2&#45;&gt;3 -->
<g id="edge7" class="edge">
<title>2&#45;&gt;3</title>
<path fill="none" stroke="#6a7075" d="M456.56,-265.17C456.56,-265.17 471.97,-265.17 471.97,-265.17"/>
<polygon fill="#6a7075" stroke="#6a7075" points="456.56,-262.19 448.06,-265.17 456.56,-268.14 456.56,-262.19"/>
<polygon fill="#6a7075" stroke="#6a7075" points="471.97,-268.14 480.47,-265.17 471.97,-262.19 471.97,-268.14"/>
</g>
<!-- 3&#45;&gt;0 -->
<g id="edge8" class="edge">
<title>3&#45;&gt;0</title>
<path fill="none" stroke="#6a7075" d="M499.51,-210.8C499.51,-210.8 499.51,-208.33 499.51,-208.33 499.51,-208.33 83.51,-208.33 83.51,-208.33 83.51,-208.33 83.51,-210.8 83.51,-210.8"/>
<polygon fill="#6a7075" stroke="#6a7075" points="496.54,-210.8 499.51,-219.3 502.49,-210.8 496.54,-210.8"/>
<polygon fill="#6a7075" stroke="#6a7075" points="80.54,-210.8 83.51,-219.3 86.49,-210.8 80.54,-210.8"/>
</g>
<!-- 4 -->
<g id="node5" class="node">
<title>4</title>
<path fill="#82898f" stroke="#000000" d="M655.08,-221C655.08,-221 760.51,-221 760.51,-221 766.51,-221 772.51,-227 772.51,-233 772.51,-233 772.51,-275 772.51,-275 772.51,-281 766.51,-287 760.51,-287 760.51,-287 655.08,-287 655.08,-287 649.08,-287 643.08,-281 643.08,-275 643.08,-275 643.08,-233 643.08,-233 643.08,-227 649.08,-221 655.08,-221"/>
<text xml:space="preserve" text-anchor="middle" x="707.8" y="-271.8" font-family="Times,serif" font-size="14.00">phys idx = 4</text>
<polyline fill="none" stroke="#000000" points="643.08,-265 772.51,-265"/>
<text xml:space="preserve" text-anchor="middle" x="707.8" y="-249.8" font-family="Times,serif" font-size="14.00">elem = &#45;6666.00</text>
<polyline fill="none" stroke="#000000" points="643.08,-243 772.51,-243"/>
<text xml:space="preserve" text-anchor="middle" x="676.8" y="-227.8" font-family="Times,serif" font-size="14.00">prev = &#45;1</text>
<polyline fill="none" stroke="#000000" points="710.52,-221 710.52,-243"/>
<text xml:space="preserve" text-anchor="middle" x="741.52" y="-227.8" font-family="Times,serif" font-size="14.00">next = 0</text>
</g>
<!-- 3&#45;&gt;4 -->
<!-- 4&#45;&gt;0 -->
<g id="edge9" class="edge">
<title>4&#45;&gt;0</title>
<path fill="none" stroke="#44944a" d="M661.51,-220.69C661.51,-207.84 661.51,-196.17 661.51,-196.17 661.51,-196.17 41.51,-196.17 41.51,-196.17 41.51,-196.17 41.51,-210.68 41.51,-210.68"/>
<polygon fill="#44944a" stroke="#44944a" points="38.54,-210.68 41.51,-219.18 44.49,-210.68 38.54,-210.68"/>
</g>
<!-- head_label -->
<g id="node6" class="node">
<title>head_label</title>
<polygon fill="#879eac" stroke="#fff4cc" points="250.16,-36 196.16,-36 196.16,0 250.16,0 250.16,-36"/>
<text xml:space="preserve" text-anchor="middle" x="223.16" y="-14.4" font-family="Times,serif" font-size="12.00" fill="#fff4cc">HEAD</text>
</g>
<!-- head_label&#45;&gt;1 -->
<g id="edge10" class="edge">
<title>head_label&#45;&gt;1</title>
<path fill="none" stroke="#fff4cc" d="M223.51,-36.13C223.51,-36.13 223.51,-210.58 223.51,-210.58"/>
<polygon fill="#fff4cc" stroke="#fff4cc" points="220.54,-210.58 223.51,-219.08 226.49,-210.58 220.54,-210.58"/>
</g>
<!-- tail_label -->
<g id="node7" class="node">
<title>tail_label</title>
<polygon fill="#879eac" stroke="#fff4cc" points="571.7,-73 517.7,-73 517.7,-37 571.7,-37 571.7,-73"/>
<text xml:space="preserve" text-anchor="middle" x="544.7" y="-51.4" font-family="Times,serif" font-size="12.00" fill="#fff4cc">TAIL</text>
</g>
<!-- tail_label&#45;&gt;3 -->
<g id="edge11" class="edge">
<title>tail_label&#45;&gt;3</title>
<path fill="none" stroke="#fff4cc" d="M544.51,-73.36C544.51,-73.36 544.51,-210.57 544.51,-210.57"/>
<polygon fill="#fff4cc" stroke="#fff4cc" points="541.54,-210.57 544.51,-219.07 547.49,-210.57 541.54,-210.57"/>
</g>
<!-- free_label -->
<g id="node8" class="node">
<title>free_label</title>
<polygon fill="#879eac" stroke="#fff4cc" points="734.8,-184 680.8,-184 680.8,-148 734.8,-148 734.8,-184"/>
<text xml:space="preserve" text-anchor="middle" x="707.8" y="-162.4" font-family="Times,serif" font-size="12.00" fill="#fff4cc">FREE</text>
</g>
<!-- free_label&#45;&gt;4 -->
<g id="edge12" class="edge">
<title>free_label&#45;&gt;4</title>
<path fill="none" stroke="#fff4cc" d="M707.51,-184.23C707.51,-184.23 707.51,-210.84 707.51,-210.84"/>
<polygon fill="#fff4cc" stroke="#fff4cc" points="704.54,-210.84 707.51,-219.34 710.49,-210.84 704.54,-210.84"/>
</g>
</g>
</svg>
