<?xml version="1.0" encoding="UTF-8" standalone="no"?>
<!DOCTYPE svg PUBLIC "-//W3C//DTD SVG 1.1//EN"
 "http://www.w3.org/Graphics/SVG/1.1/DTD/svg11.dtd">
<!-- Generated by graphviz version 14.0.2 (20251019.1705)
 -->
<!-- Title: G Pages: 1 -->
<svg width="1754pt" height="220pt"
 viewBox="0.00 0.00 1754.00 220.00" xmlns="http://www.w3.org/2000/svg" xmlns:xlink="http://www.w3.org/1999/xlink">
<g id="graph0" class="graph" transform="scale(1 1) rotate(0) translate(4 216)">
<title>G</title>
<polygon fill="#fffafa" stroke="none" points="-4,4 -4,-216 1750.48,-216 1750.48,4 -4,4"/>
<!-- 0 -->
<g id="node1" class="node">
<title>0</title>
<path fill="#cd5c5c" stroke="#000000" d="M12,-73C12,-73 119.77,-73 119.77,-73 125.77,-73 131.77,-79 131.77,-85 131.77,-85 131.77,-127 131.77,-127 131.77,-133 125.77,-139 119.77,-139 119.77,-139 12,-139 12,-139 6,-139 0,-133 0,-127 0,-127 0,-85 0,-85 0,-79 6,-73 12,-73"/>
<text xml:space="preserve" text-anchor="middle" x="65.89" y="-123.8" font-family="Times,serif" font-size="14.00">phys idx = 0</text>
<polyline fill="none" stroke="#000000" points="0,-117 131.77,-117"/>
<text xml:space="preserve" text-anchor="middle" x="65.89" y="-101.8" font-family="Times,serif" font-size="14.00">elem = &#45;6666.00</text>
<polyline fill="none" stroke="#000000" points="0,-95 131.77,-95"/>
<text xml:space="preserve" text-anchor="middle" x="34.89" y="-79.8" font-family="Times,serif" font-size="14.00">prev = 10</text>
<polyline fill="none" stroke="#000000" points="69.77,-73 69.77,-95"/>
<text xml:space="preserve" text-anchor="middle" x="100.77" y="-79.8" font-family="Times,serif" font-size="14.00">next = 1</text>
</g>
<!-- 1 -->
<g id="node2" class="node">
<title>1</title>
<path fill="#98fb98" stroke="#000000" d="M179.77,-73C179.77,-73 280.54,-73 280.54,-73 286.54,-73 292.54,-79 292.54,-85 292.54,-85 292.54,-127 292.54,-127 292.54,-133 286.54,-139 280.54,-139 280.54,-139 179.77,-139 179.77,-139 173.77,-139 167.77,-133 167.77,-127 167.77,-127 167.77,-85 167.77,-85 167.77,-79 173.77,-73 179.77,-73"/>
<text xml:space="preserve" text-anchor="middle" x="230.16" y="-123.8" font-family="Times,serif" font-size="14.00">phys idx = 1</text>
<polyline fill="none" stroke="#000000" points="167.77,-117 292.54,-117"/>
<text xml:space="preserve" text-anchor="middle" x="230.16" y="-101.8" font-family="Times,serif" font-size="14.00">elem = 11.00</text>
<polyline fill="none" stroke="#000000" points="167.77,-95 292.54,-95"/>
<text xml:space="preserve" text-anchor="middle" x="199.16" y="-79.8" font-family="Times,serif" font-size="14.00">prev = 0</text>
<polyline fill="none" stroke="#000000" points="230.54,-73 230.54,-95"/>
<text xml:space="preserve" text-anchor="middle" x="261.54" y="-79.8" font-family="Times,serif" font-size="14.00">next = 2</text>
</g>
<!-- 0&#45;&gt;1 -->
<!-- 0&#45;&gt;1 -->
<g id="edge11" class="edge">
<title>0&#45;&gt;1</title>
<path fill="none" stroke="#6a7075" d="M142.24,-94.83C142.24,-94.83 157.28,-94.83 157.28,-94.83"/>
<polygon fill="#6a7075" stroke="#6a7075" points="142.24,-91.86 133.74,-94.83 142.24,-97.81 142.24,-91.86"/>
<polygon fill="#6a7075" stroke="#6a7075" points="157.28,-97.81 165.78,-94.83 157.28,-91.86 157.28,-97.81"/>
</g>
<!-- 2 -->
<g id="node3" class="node">
<title>2</title>
<path fill="#98fb98" stroke="#000000" d="M340.54,-73C340.54,-73 441.31,-73 441.31,-73 447.31,-73 453.31,-79 453.31,-85 453.31,-85 453.31,-127 453.31,-127 453.31,-133 447.31,-139 441.31,-139 441.31,-139 340.54,-139 340.54,-139 334.54,-139 328.54,-133 328.54,-127 328.54,-127 328.54,-85 328.54,-85 328.54,-79 334.54,-73 340.54,-73"/>
<text xml:space="preserve" text-anchor="middle" x="390.93" y="-123.8" font-family="Times,serif" font-size="14.00">phys idx = 2</text>
<polyline fill="none" stroke="#000000" points="328.54,-117 453.31,-117"/>
<text xml:space="preserve" text-anchor="middle" x="390.93" y="-101.8" font-family="Times,serif" font-size="14.00">elem = 20.00</text>
<polyline fill="none" stroke="#000000" points="328.54,-95 453.31,-95"/>
<text xml:space="preserve" text-anchor="middle" x="359.93" y="-79.8" font-family="Times,serif" font-size="14.00">prev = 1</text>
<polyline fill="none" stroke="#000000" points="391.31,-73 391.31,-95"/>
<text xml:space="preserve" text-anchor="middle" x="422.31" y="-79.8" font-family="Times,serif" font-size="14.00">next = 3</text>
</g>
<!-- 1&#45;&gt;2 -->
<!-- 1&#45;&gt;2 -->
<g id="edge12" class="edge">
<title>1&#45;&gt;2</title>
<path fill="none" stroke="#6a7075" d="M302.79,-117.17C302.79,-117.17 318.2,-117.17 318.2,-117.17"/>
<polygon fill="#6a7075" stroke="#6a7075" points="302.79,-114.19 294.29,-117.17 302.79,-120.14 302.79,-114.19"/>
<polygon fill="#6a7075" stroke="#6a7075" points="318.2,-120.14 326.7,-117.17 318.2,-114.19 318.2,-120.14"/>
</g>
<!-- 3 -->
<g id="node4" class="node">
<title>3</title>
<path fill="#98fb98" stroke="#000000" d="M501.31,-73C501.31,-73 602.08,-73 602.08,-73 608.08,-73 614.08,-79 614.08,-85 614.08,-85 614.08,-127 614.08,-127 614.08,-133 608.08,-139 602.08,-139 602.08,-139 501.31,-139 501.31,-139 495.31,-139 489.31,-133 489.31,-127 489.31,-127 489.31,-85 489.31,-85 489.31,-79 495.31,-73 501.31,-73"/>
<text xml:space="preserve" text-anchor="middle" x="551.7" y="-123.8" font-family="Times,serif" font-size="14.00">phys idx = 3</text>
<polyline fill="none" stroke="#000000" points="489.31,-117 614.08,-117"/>
<text xml:space="preserve" text-anchor="middle" x="551.7" y="-101.8" font-family="Times,serif" font-size="14.00">elem = 30.00</text>
<polyline fill="none" stroke="#000000" points="489.31,-95 614.08,-95"/>
<text xml:space="preserve" text-anchor="middle" x="520.7" y="-79.8" font-family="Times,serif" font-size="14.00">prev = 2</text>
<polyline fill="none" stroke="#000000" points="552.08,-73 552.08,-95"/>
<text xml:space="preserve" text-anchor="middle" x="583.08" y="-79.8" font-family="Times,serif" font-size="14.00">next = 9</text>
</g>
<!-- 2&#45;&gt;3 -->
<!-- 2&#45;&gt;3 -->
<g id="edge13" class="edge">
<title>2&#45;&gt;3</title>
<path fill="none" stroke="#6a7075" d="M463.56,-117.17C463.56,-117.17 478.97,-117.17 478.97,-117.17"/>
<polygon fill="#6a7075" stroke="#6a7075" points="463.56,-114.19 455.06,-117.17 463.56,-120.14 463.56,-114.19"/>
<polygon fill="#6a7075" stroke="#6a7075" points="478.97,-120.14 487.47,-117.17 478.97,-114.19 478.97,-120.14"/>
</g>
<!-- 4 -->
<g id="node5" class="node">
<title>4</title>
<path fill="#98fb98" stroke="#000000" d="M662.08,-73C662.08,-73 762.85,-73 762.85,-73 768.85,-73 774.85,-79 774.85,-85 774.85,-85 774.85,-127 774.85,-127 774.85,-133 768.85,-139 762.85,-139 762.85,-139 662.08,-139 662.08,-139 656.08,-139 650.08,-133 650.08,-127 650.08,-127 650.08,-85 650.08,-85 650.08,-79 656.08,-73 662.08,-73"/>
<text xml:space="preserve" text-anchor="middle" x="712.47" y="-123.8" font-family="Times,serif" font-size="14.00">phys idx = 4</text>
<polyline fill="none" stroke="#000000" points="650.08,-117 774.85,-117"/>
<text xml:space="preserve" text-anchor="middle" x="712.47" y="-101.8" font-family="Times,serif" font-size="14.00">elem = 40.00</text>
<polyline fill="none" stroke="#000000" points="650.08,-95 774.85,-95"/>
<text xml:space="preserve" text-anchor="middle" x="681.47" y="-79.8" font-family="Times,serif" font-size="14.00">prev = 8</text>
<polyline fill="none" stroke="#000000" points="712.85,-73 712.85,-95"/>
<text xml:space="preserve" text-anchor="middle" x="743.85" y="-79.8" font-family="Times,serif" font-size="14.00">next = 5</text>
</g>
<!-- 3&#45;&gt;4 -->
<!-- 9 -->
<g id="node10" class="node">
<title>9</title>
<path fill="#98fb98" stroke="#000000" d="M1472.93,-73C1472.93,-73 1573.71,-73 1573.71,-73 1579.71,-73 1585.71,-79 1585.71,-85 1585.71,-85 1585.71,-127 1585.71,-127 1585.71,-133 1579.71,-139 1573.71,-139 1573.71,-139 1472.93,-139 1472.93,-139 1466.93,-139 1460.93,-133 1460.93,-127 1460.93,-127 1460.93,-85 1460.93,-85 1460.93,-79 1466.93,-73 1472.93,-73"/>
<text xml:space="preserve" text-anchor="middle" x="1523.32" y="-123.8" font-family="Times,serif" font-size="14.00">phys idx = 9</text>
<polyline fill="none" stroke="#000000" points="1460.93,-117 1585.71,-117"/>
<text xml:space="preserve" text-anchor="middle" x="1523.32" y="-101.8" font-family="Times,serif" font-size="14.00">elem = 32.00</text>
<polyline fill="none" stroke="#000000" points="1460.93,-95 1585.71,-95"/>
<text xml:space="preserve" text-anchor="middle" x="1492.32" y="-79.8" font-family="Times,serif" font-size="14.00">prev = 3</text>
<polyline fill="none" stroke="#000000" points="1523.71,-73 1523.71,-95"/>
<text xml:space="preserve" text-anchor="middle" x="1554.71" y="-79.8" font-family="Times,serif" font-size="14.00">next = 7</text>
</g>
<!-- 3&#45;&gt;9 -->
<g id="edge14" class="edge">
<title>3&#45;&gt;9</title>
<path fill="none" stroke="#6a7075" d="M551.48,-62.63C551.48,-62.63 551.48,-54.25 551.48,-54.25 551.48,-54.25 1502.48,-54.25 1502.48,-54.25 1502.48,-54.25 1502.48,-62.63 1502.48,-62.63"/>
<polygon fill="#6a7075" stroke="#6a7075" points="548.5,-62.63 551.48,-71.13 554.45,-62.63 548.5,-62.63"/>
<polygon fill="#6a7075" stroke="#6a7075" points="1499.5,-62.63 1502.48,-71.13 1505.45,-62.63 1499.5,-62.63"/>
</g>
<!-- 5 -->
<g id="node6" class="node">
<title>5</title>
<path fill="#98fb98" stroke="#000000" d="M822.85,-73C822.85,-73 923.62,-73 923.62,-73 929.62,-73 935.62,-79 935.62,-85 935.62,-85 935.62,-127 935.62,-127 935.62,-133 929.62,-139 923.62,-139 923.62,-139 822.85,-139 822.85,-139 816.85,-139 810.85,-133 810.85,-127 810.85,-127 810.85,-85 810.85,-85 810.85,-79 816.85,-73 822.85,-73"/>
<text xml:space="preserve" text-anchor="middle" x="873.24" y="-123.8" font-family="Times,serif" font-size="14.00">phys idx = 5</text>
<polyline fill="none" stroke="#000000" points="810.85,-117 935.62,-117"/>
<text xml:space="preserve" text-anchor="middle" x="873.24" y="-101.8" font-family="Times,serif" font-size="14.00">elem = 50.00</text>
<polyline fill="none" stroke="#000000" points="810.85,-95 935.62,-95"/>
<text xml:space="preserve" text-anchor="middle" x="842.24" y="-79.8" font-family="Times,serif" font-size="14.00">prev = 4</text>
<polyline fill="none" stroke="#000000" points="873.62,-73 873.62,-95"/>
<text xml:space="preserve" text-anchor="middle" x="904.62" y="-79.8" font-family="Times,serif" font-size="14.00">next = 6</text>
</g>
<!-- 4&#45;&gt;5 -->
<!-- 4&#45;&gt;5 -->
<g id="edge15" class="edge">
<title>4&#45;&gt;5</title>
<path fill="none" stroke="#6a7075" d="M785.1,-117.17C785.1,-117.17 800.51,-117.17 800.51,-117.17"/>
<polygon fill="#6a7075" stroke="#6a7075" points="785.1,-114.19 776.6,-117.17 785.1,-120.14 785.1,-114.19"/>
<polygon fill="#6a7075" stroke="#6a7075" points="800.51,-120.14 809.01,-117.17 800.51,-114.19 800.51,-120.14"/>
</g>
<!-- 6 -->
<g id="node7" class="node">
<title>6</title>
<path fill="#98fb98" stroke="#000000" d="M983.62,-73C983.62,-73 1091.39,-73 1091.39,-73 1097.39,-73 1103.39,-79 1103.39,-85 1103.39,-85 1103.39,-127 1103.39,-127 1103.39,-133 1097.39,-139 1091.39,-139 1091.39,-139 983.62,-139 983.62,-139 977.62,-139 971.62,-133 971.62,-127 971.62,-127 971.62,-85 971.62,-85 971.62,-79 977.62,-73 983.62,-73"/>
<text xml:space="preserve" text-anchor="middle" x="1037.51" y="-123.8" font-family="Times,serif" font-size="14.00">phys idx = 6</text>
<polyline fill="none" stroke="#000000" points="971.62,-117 1103.39,-117"/>
<text xml:space="preserve" text-anchor="middle" x="1037.51" y="-101.8" font-family="Times,serif" font-size="14.00">elem = 66.00</text>
<polyline fill="none" stroke="#000000" points="971.62,-95 1103.39,-95"/>
<text xml:space="preserve" text-anchor="middle" x="1003.01" y="-79.8" font-family="Times,serif" font-size="14.00">prev = 5</text>
<polyline fill="none" stroke="#000000" points="1034.39,-73 1034.39,-95"/>
<text xml:space="preserve" text-anchor="middle" x="1068.89" y="-79.8" font-family="Times,serif" font-size="14.00">next = 10</text>
</g>
<!-- 5&#45;&gt;6 -->
<!-- 5&#45;&gt;6 -->
<g id="edge16" class="edge">
<title>5&#45;&gt;6</title>
<path fill="none" stroke="#6a7075" d="M945.82,-117.17C945.82,-117.17 961.27,-117.17 961.27,-117.17"/>
<polygon fill="#6a7075" stroke="#6a7075" points="945.82,-114.19 937.32,-117.17 945.82,-120.14 945.82,-114.19"/>
<polygon fill="#6a7075" stroke="#6a7075" points="961.27,-120.14 969.77,-117.17 961.27,-114.19 961.27,-120.14"/>
</g>
<!-- 7 -->
<g id="node8" class="node">
<title>7</title>
<path fill="#98fb98" stroke="#000000" d="M1151.39,-73C1151.39,-73 1252.16,-73 1252.16,-73 1258.16,-73 1264.16,-79 1264.16,-85 1264.16,-85 1264.16,-127 1264.16,-127 1264.16,-133 1258.16,-139 1252.16,-139 1252.16,-139 1151.39,-139 1151.39,-139 1145.39,-139 1139.39,-133 1139.39,-127 1139.39,-127 1139.39,-85 1139.39,-85 1139.39,-79 1145.39,-73 1151.39,-73"/>
<text xml:space="preserve" text-anchor="middle" x="1201.78" y="-123.8" font-family="Times,serif" font-size="14.00">phys idx = 7</text>
<polyline fill="none" stroke="#000000" points="1139.39,-117 1264.16,-117"/>
<text xml:space="preserve" text-anchor="middle" x="1201.78" y="-101.8" font-family="Times,serif" font-size="14.00">elem = 35.00</text>
<polyline fill="none" stroke="#000000" points="1139.39,-95 1264.16,-95"/>
<text xml:space="preserve" text-anchor="middle" x="1170.78" y="-79.8" font-family="Times,serif" font-size="14.00">prev = 9</text>
<polyline fill="none" stroke="#000000" points="1202.17,-73 1202.17,-95"/>
<text xml:space="preserve" text-anchor="middle" x="1233.16" y="-79.8" font-family="Times,serif" font-size="14.00">next = 8</text>
</g>
<!-- 6&#45;&gt;7 -->
<!-- 10 -->
<g id="node11" class="node">
<title>10</title>
<path fill="#98fb98" stroke="#000000" d="M1633.71,-73C1633.71,-73 1734.48,-73 1734.48,-73 1740.48,-73 1746.48,-79 1746.48,-85 1746.48,-85 1746.48,-127 1746.48,-127 1746.48,-133 1740.48,-139 1734.48,-139 1734.48,-139 1633.71,-139 1633.71,-139 1627.71,-139 1621.71,-133 1621.71,-127 1621.71,-127 1621.71,-85 1621.71,-85 1621.71,-79 1627.71,-73 1633.71,-73"/>
<text xml:space="preserve" text-anchor="middle" x="1684.09" y="-123.8" font-family="Times,serif" font-size="14.00">phys idx = 10</text>
<polyline fill="none" stroke="#000000" points="1621.71,-117 1746.48,-117"/>
<text xml:space="preserve" text-anchor="middle" x="1684.09" y="-101.8" font-family="Times,serif" font-size="14.00">elem = 70.00</text>
<polyline fill="none" stroke="#000000" points="1621.71,-95 1746.48,-95"/>
<text xml:space="preserve" text-anchor="middle" x="1653.09" y="-79.8" font-family="Times,serif" font-size="14.00">prev = 6</text>
<polyline fill="none" stroke="#000000" points="1684.48,-73 1684.48,-95"/>
<text xml:space="preserve" text-anchor="middle" x="1715.48" y="-79.8" font-family="Times,serif" font-size="14.00">next = 0</text>
</g>
<!-- 6&#45;&gt;10 -->
<g id="edge17" class="edge">
<title>6&#45;&gt;10</title>
<path fill="none" stroke="#6a7075" d="M1037.48,-149.32C1037.48,-149.32 1037.48,-163.83 1037.48,-163.83 1037.48,-163.83 1639.48,-163.83 1639.48,-163.83 1639.48,-163.83 1639.48,-149.32 1639.48,-149.32"/>
<polygon fill="#6a7075" stroke="#6a7075" points="1040.45,-149.32 1037.48,-140.82 1034.5,-149.32 1040.45,-149.32"/>
<polygon fill="#6a7075" stroke="#6a7075" points="1642.45,-149.32 1639.48,-140.82 1636.5,-149.32 1642.45,-149.32"/>
</g>
<!-- 8 -->
<g id="node9" class="node">
<title>8</title>
<path fill="#98fb98" stroke="#000000" d="M1312.16,-73C1312.16,-73 1412.93,-73 1412.93,-73 1418.93,-73 1424.93,-79 1424.93,-85 1424.93,-85 1424.93,-127 1424.93,-127 1424.93,-133 1418.93,-139 1412.93,-139 1412.93,-139 1312.16,-139 1312.16,-139 1306.16,-139 1300.16,-133 1300.16,-127 1300.16,-127 1300.16,-85 1300.16,-85 1300.16,-79 1306.16,-73 1312.16,-73"/>
<text xml:space="preserve" text-anchor="middle" x="1362.55" y="-123.8" font-family="Times,serif" font-size="14.00">phys idx = 8</text>
<polyline fill="none" stroke="#000000" points="1300.16,-117 1424.93,-117"/>
<text xml:space="preserve" text-anchor="middle" x="1362.55" y="-101.8" font-family="Times,serif" font-size="14.00">elem = 36.00</text>
<polyline fill="none" stroke="#000000" points="1300.16,-95 1424.93,-95"/>
<text xml:space="preserve" text-anchor="middle" x="1331.55" y="-79.8" font-family="Times,serif" font-size="14.00">prev = 7</text>
<polyline fill="none" stroke="#000000" points="1362.94,-73 1362.94,-95"/>
<text xml:space="preserve" text-anchor="middle" x="1393.94" y="-79.8" font-family="Times,serif" font-size="14.00">next = 4</text>
</g>
<!-- 7&#45;&gt;8 -->
<!-- 7&#45;&gt;8 -->
<g id="edge18" class="edge">
<title>7&#45;&gt;8</title>
<path fill="none" stroke="#6a7075" d="M1274.41,-117.17C1274.41,-117.17 1289.82,-117.17 1289.82,-117.17"/>
<polygon fill="#6a7075" stroke="#6a7075" points="1274.41,-114.19 1265.91,-117.17 1274.41,-120.14 1274.41,-114.19"/>
<polygon fill="#6a7075" stroke="#6a7075" points="1289.82,-120.14 1298.32,-117.17 1289.82,-114.19 1289.82,-120.14"/>
</g>
<!-- 8&#45;&gt;4 -->
<g id="edge19" class="edge">
<title>8&#45;&gt;4</title>
<path fill="none" stroke="#6a7075" d="M1362.48,-149.2C1362.48,-149.2 1362.48,-151.67 1362.48,-151.67 1362.48,-151.67 712.48,-151.67 712.48,-151.67 712.48,-151.67 712.48,-149.2 712.48,-149.2"/>
<polygon fill="#6a7075" stroke="#6a7075" points="1365.45,-149.2 1362.48,-140.7 1359.5,-149.2 1365.45,-149.2"/>
<polygon fill="#6a7075" stroke="#6a7075" points="715.45,-149.2 712.48,-140.7 709.5,-149.2 715.45,-149.2"/>
</g>
<!-- 8&#45;&gt;9 -->
<!-- 9&#45;&gt;7 -->
<g id="edge20" class="edge">
<title>9&#45;&gt;7</title>
<path fill="none" stroke="#6a7075" d="M1544.48,-64.32C1544.48,-64.32 1544.48,-63.38 1544.48,-63.38 1544.48,-63.38 1201.48,-63.38 1201.48,-63.38 1201.48,-63.38 1201.48,-64.32 1201.48,-64.32"/>
<polygon fill="#6a7075" stroke="#6a7075" points="1541.5,-62.82 1544.48,-71.32 1547.45,-62.82 1541.5,-62.82"/>
<polygon fill="#6a7075" stroke="#6a7075" points="1198.5,-62.82 1201.48,-71.32 1204.45,-62.82 1198.5,-62.82"/>
</g>
<!-- 9&#45;&gt;10 -->
<!-- 10&#45;&gt;0 -->
<g id="edge21" class="edge">
<title>10&#45;&gt;0</title>
<path fill="none" stroke="#6a7075" d="M1684.48,-62.7C1684.48,-62.7 1684.48,-45.12 1684.48,-45.12 1684.48,-45.12 112.48,-45.12 112.48,-45.12 112.48,-45.12 112.48,-62.7 112.48,-62.7"/>
<polygon fill="#6a7075" stroke="#6a7075" points="1681.5,-62.7 1684.48,-71.2 1687.45,-62.7 1681.5,-62.7"/>
<polygon fill="#6a7075" stroke="#6a7075" points="109.5,-62.7 112.48,-71.2 115.45,-62.7 109.5,-62.7"/>
</g>
<!-- head_label -->
<g id="node12" class="node">
<title>head_label</title>
<polygon fill="#879eac" stroke="#fff4cc" points="257.16,-212 203.16,-212 203.16,-176 257.16,-176 257.16,-212"/>
<text xml:space="preserve" text-anchor="middle" x="230.16" y="-190.4" font-family="Times,serif" font-size="12.00" fill="#fff4cc">HEAD</text>
</g>
<!-- head_label&#45;&gt;1 -->
<g id="edge22" class="edge">
<title>head_label&#45;&gt;1</title>
<path fill="none" stroke="#fff4cc" d="M230.48,-175.77C230.48,-175.77 230.48,-149.16 230.48,-149.16"/>
<polygon fill="#fff4cc" stroke="#fff4cc" points="233.45,-149.16 230.48,-140.66 227.5,-149.16 233.45,-149.16"/>
</g>
<!-- tail_label -->
<g id="node13" class="node">
<title>tail_label</title>
<polygon fill="#879eac" stroke="#fff4cc" points="1711.09,-212 1657.09,-212 1657.09,-176 1711.09,-176 1711.09,-212"/>
<text xml:space="preserve" text-anchor="middle" x="1684.09" y="-190.4" font-family="Times,serif" font-size="12.00" fill="#fff4cc">TAIL</text>
</g>
<!-- tail_label&#45;&gt;10 -->
<g id="edge23" class="edge">
<title>tail_label&#45;&gt;10</title>
<path fill="none" stroke="#fff4cc" d="M1684.48,-175.77C1684.48,-175.77 1684.48,-149.16 1684.48,-149.16"/>
<polygon fill="#fff4cc" stroke="#fff4cc" points="1687.45,-149.16 1684.48,-140.66 1681.5,-149.16 1687.45,-149.16"/>
</g>
<!-- free_label -->
<g id="node14" class="node">
<title>free_label</title>
<polygon fill="#879eac" stroke="#fff4cc" points="92.89,-36 38.89,-36 38.89,0 92.89,0 92.89,-36"/>
<text xml:space="preserve" text-anchor="middle" x="65.89" y="-14.4" font-family="Times,serif" font-size="12.00" fill="#fff4cc">FREE</text>
</g>
<!-- free_label&#45;&gt;0 -->
<g id="edge24" class="edge">
<title>free_label&#45;&gt;0</title>
<path fill="none" stroke="#fff4cc" d="M65.48,-36.23C65.48,-36.23 65.48,-62.84 65.48,-62.84"/>
<polygon fill="#fff4cc" stroke="#fff4cc" points="62.5,-62.84 65.48,-71.34 68.45,-62.84 62.5,-62.84"/>
</g>
</g>
</svg>
