<?xml version="1.0" encoding="UTF-8" standalone="no"?>
<!DOCTYPE svg PUBLIC "-//W3C//DTD SVG 1.1//EN"
 "http://www.w3.org/Graphics/SVG/1.1/DTD/svg11.dtd">
<!-- Generated by graphviz version 14.0.2 (20251019.1705)
 -->
<!-- Title: G Pages: 1 -->
<svg width="785pt" height="320pt"
 viewBox="0.00 0.00 785.00 320.00" xmlns="http://www.w3.org/2000/svg" xmlns:xlink="http://www.w3.org/1999/xlink">
<g id="graph0" class="graph" transform="scale(1 1) rotate(0) translate(4 315.5)">
<title>G</title>
<polygon fill="#fffafa" stroke="none" points="-4,4 -4,-315.5 781.18,-315.5 781.18,4 -4,4"/>
<!-- 0 -->
<g id="node1" class="node">
<title>0</title>
<path fill="#cd5c5c" stroke="#000000" d="M12,-221C12,-221 112.77,-221 112.77,-221 118.77,-221 124.77,-227 124.77,-233 124.77,-233 124.77,-275 124.77,-275 124.77,-281 118.77,-287 112.77,-287 112.77,-287 12,-287 12,-287 6,-287 0,-281 0,-275 0,-275 0,-233 0,-233 0,-227 6,-221 12,-221"/>
<text xml:space="preserve" text-anchor="middle" x="62.39" y="-271.8" font-family="Times,serif" font-size="14.00">phys idx = 0</text>
<polyline fill="none" stroke="#000000" points="0,-265 124.77,-265"/>
<text xml:space="preserve" text-anchor="middle" x="62.39" y="-249.8" font-family="Times,serif" font-size="14.00">elem = &#45;6666.00</text>
<polyline fill="none" stroke="#000000" points="0,-243 124.77,-243"/>
<text xml:space="preserve" text-anchor="middle" x="31.39" y="-227.8" font-family="Times,serif" font-size="14.00">prev = 2</text>
<polyline fill="none" stroke="#000000" points="62.77,-221 62.77,-243"/>
<text xml:space="preserve" text-anchor="middle" x="93.77" y="-227.8" font-family="Times,serif" font-size="14.00">next = 1</text>
</g>
<!-- 1 -->
<g id="node2" class="node">
<title>1</title>
<path fill="#98fb98" stroke="#000000" d="M172.77,-221C172.77,-221 273.54,-221 273.54,-221 279.54,-221 285.54,-227 285.54,-233 285.54,-233 285.54,-275 285.54,-275 285.54,-281 279.54,-287 273.54,-287 273.54,-287 172.77,-287 172.77,-287 166.77,-287 160.77,-281 160.77,-275 160.77,-275 160.77,-233 160.77,-233 160.77,-227 166.77,-221 172.77,-221"/>
<text xml:space="preserve" text-anchor="middle" x="223.16" y="-271.8" font-family="Times,serif" font-size="14.00">phys idx = 1</text>
<polyline fill="none" stroke="#000000" points="160.77,-265 285.54,-265"/>
<text xml:space="preserve" text-anchor="middle" x="223.16" y="-249.8" font-family="Times,serif" font-size="14.00">elem = 10.00</text>
<polyline fill="none" stroke="#000000" points="160.77,-243 285.54,-243"/>
<text xml:space="preserve" text-anchor="middle" x="192.16" y="-227.8" font-family="Times,serif" font-size="14.00">prev = 0</text>
<polyline fill="none" stroke="#000000" points="223.54,-221 223.54,-243"/>
<text xml:space="preserve" text-anchor="middle" x="254.54" y="-227.8" font-family="Times,serif" font-size="14.00">next = 2</text>
</g>
<!-- 0&#45;&gt;1 -->
<!-- 0&#45;&gt;1 -->
<g id="edge5" class="edge">
<title>0&#45;&gt;1</title>
<path fill="none" stroke="#6a7075" d="M135.02,-242.83C135.02,-242.83 150.43,-242.83 150.43,-242.83"/>
<polygon fill="#6a7075" stroke="#6a7075" points="135.02,-239.86 126.52,-242.83 135.02,-245.81 135.02,-239.86"/>
<polygon fill="#6a7075" stroke="#6a7075" points="150.43,-245.81 158.93,-242.83 150.43,-239.86 150.43,-245.81"/>
</g>
<!-- 2 -->
<g id="node3" class="node">
<title>2</title>
<path fill="#98fb98" stroke="#000000" d="M333.54,-221C333.54,-221 434.31,-221 434.31,-221 440.31,-221 446.31,-227 446.31,-233 446.31,-233 446.31,-275 446.31,-275 446.31,-281 440.31,-287 434.31,-287 434.31,-287 333.54,-287 333.54,-287 327.54,-287 321.54,-281 321.54,-275 321.54,-275 321.54,-233 321.54,-233 321.54,-227 327.54,-221 333.54,-221"/>
<text xml:space="preserve" text-anchor="middle" x="383.93" y="-271.8" font-family="Times,serif" font-size="14.00">phys idx = 2</text>
<polyline fill="none" stroke="#000000" points="321.54,-265 446.31,-265"/>
<text xml:space="preserve" text-anchor="middle" x="383.93" y="-249.8" font-family="Times,serif" font-size="14.00">elem = 20.00</text>
<polyline fill="none" stroke="#000000" points="321.54,-243 446.31,-243"/>
<text xml:space="preserve" text-anchor="middle" x="352.93" y="-227.8" font-family="Times,serif" font-size="14.00">prev = 1</text>
<polyline fill="none" stroke="#000000" points="384.31,-221 384.31,-243"/>
<text xml:space="preserve" text-anchor="middle" x="415.31" y="-227.8" font-family="Times,serif" font-size="14.00">next = 0</text>
</g>
<!-- 1&#45;&gt;2 -->
<!-- 1&#45;&gt;2 -->
<g id="edge6" class="edge">
<title>1&#45;&gt;2</title>
<path fill="none" stroke="#6a7075" d="M295.79,-265.17C295.79,-265.17 311.2,-265.17 311.2,-265.17"/>
<polygon fill="#6a7075" stroke="#6a7075" points="295.79,-262.19 287.29,-265.17 295.79,-268.14 295.79,-262.19"/>
<polygon fill="#6a7075" stroke="#6a7075" points="311.2,-268.14 319.7,-265.17 311.2,-262.19 311.2,-268.14"/>
</g>
<!-- 2&#45;&gt;0 -->
<g id="edge7" class="edge">
<title>2&#45;&gt;0</title>
<path fill="none" stroke="#6a7075" d="M384.18,-297.08C384.18,-297.08 384.18,-299.5 384.18,-299.5 384.18,-299.5 83.18,-299.5 83.18,-299.5 83.18,-299.5 83.18,-297.08 83.18,-297.08"/>
<polygon fill="#6a7075" stroke="#6a7075" points="387.15,-297.08 384.18,-288.58 381.2,-297.08 387.15,-297.08"/>
<polygon fill="#6a7075" stroke="#6a7075" points="86.15,-297.08 83.18,-288.58 80.2,-297.08 86.15,-297.08"/>
</g>
<!-- 3 -->
<g id="node4" class="node">
<title>3</title>
<path fill="#82898f" stroke="#000000" d="M494.31,-221C494.31,-221 599.74,-221 599.74,-221 605.74,-221 611.74,-227 611.74,-233 611.74,-233 611.74,-275 611.74,-275 611.74,-281 605.74,-287 599.74,-287 599.74,-287 494.31,-287 494.31,-287 488.31,-287 482.31,-281 482.31,-275 482.31,-275 482.31,-233 482.31,-233 482.31,-227 488.31,-221 494.31,-221"/>
<text xml:space="preserve" text-anchor="middle" x="547.03" y="-271.8" font-family="Times,serif" font-size="14.00">phys idx = 3</text>
<polyline fill="none" stroke="#000000" points="482.31,-265 611.74,-265"/>
<text xml:space="preserve" text-anchor="middle" x="547.03" y="-249.8" font-family="Times,serif" font-size="14.00">elem = &#45;6666.00</text>
<polyline fill="none" stroke="#000000" points="482.31,-243 611.74,-243"/>
<text xml:space="preserve" text-anchor="middle" x="516.03" y="-227.8" font-family="Times,serif" font-size="14.00">prev = &#45;1</text>
<polyline fill="none" stroke="#000000" points="549.75,-221 549.75,-243"/>
<text xml:space="preserve" text-anchor="middle" x="580.74" y="-227.8" font-family="Times,serif" font-size="14.00">next = 4</text>
</g>
<!-- 2&#45;&gt;3 -->
<!-- 4 -->
<g id="node5" class="node">
<title>4</title>
<path fill="#82898f" stroke="#000000" d="M659.74,-221C659.74,-221 765.18,-221 765.18,-221 771.18,-221 777.18,-227 777.18,-233 777.18,-233 777.18,-275 777.18,-275 777.18,-281 771.18,-287 765.18,-287 765.18,-287 659.74,-287 659.74,-287 653.74,-287 647.74,-281 647.74,-275 647.74,-275 647.74,-233 647.74,-233 647.74,-227 653.74,-221 659.74,-221"/>
<text xml:space="preserve" text-anchor="middle" x="712.46" y="-271.8" font-family="Times,serif" font-size="14.00">phys idx = 4</text>
<polyline fill="none" stroke="#000000" points="647.74,-265 777.18,-265"/>
<text xml:space="preserve" text-anchor="middle" x="712.46" y="-249.8" font-family="Times,serif" font-size="14.00">elem = &#45;6666.00</text>
<polyline fill="none" stroke="#000000" points="647.74,-243 777.18,-243"/>
<text xml:space="preserve" text-anchor="middle" x="681.46" y="-227.8" font-family="Times,serif" font-size="14.00">prev = &#45;1</text>
<polyline fill="none" stroke="#000000" points="715.18,-221 715.18,-243"/>
<text xml:space="preserve" text-anchor="middle" x="746.18" y="-227.8" font-family="Times,serif" font-size="14.00">next = 0</text>
</g>
<!-- 3&#45;&gt;4 -->
<!-- 3&#45;&gt;4 -->
<g id="edge8" class="edge">
<title>3&#45;&gt;4</title>
<path fill="none" stroke="#44944a" d="M611.94,-265.17C611.94,-265.17 637.45,-265.17 637.45,-265.17"/>
<polygon fill="#44944a" stroke="#44944a" points="637.45,-268.14 645.95,-265.17 637.45,-262.19 637.45,-268.14"/>
</g>
<!-- 4&#45;&gt;0 -->
<g id="edge9" class="edge">
<title>4&#45;&gt;0</title>
<path fill="none" stroke="#44944a" d="M712.18,-287.45C712.18,-300.1 712.18,-311.5 712.18,-311.5 712.18,-311.5 41.18,-311.5 41.18,-311.5 41.18,-311.5 41.18,-297.46 41.18,-297.46"/>
<polygon fill="#44944a" stroke="#44944a" points="44.15,-297.46 41.18,-288.96 38.2,-297.46 44.15,-297.46"/>
</g>
<!-- head_label -->
<g id="node6" class="node">
<title>head_label</title>
<polygon fill="#879eac" stroke="#fff4cc" points="250.16,-36 196.16,-36 196.16,0 250.16,0 250.16,-36"/>
<text xml:space="preserve" text-anchor="middle" x="223.16" y="-14.4" font-family="Times,serif" font-size="12.00" fill="#fff4cc">HEAD</text>
</g>
<!-- head_label&#45;&gt;1 -->
<g id="edge10" class="edge">
<title>head_label&#45;&gt;1</title>
<path fill="none" stroke="#fff4cc" d="M223.18,-36.13C223.18,-36.13 223.18,-210.58 223.18,-210.58"/>
<polygon fill="#fff4cc" stroke="#fff4cc" points="220.2,-210.58 223.18,-219.08 226.15,-210.58 220.2,-210.58"/>
</g>
<!-- tail_label -->
<g id="node7" class="node">
<title>tail_label</title>
<polygon fill="#879eac" stroke="#fff4cc" points="410.93,-54 356.93,-54 356.93,-18 410.93,-18 410.93,-54"/>
<text xml:space="preserve" text-anchor="middle" x="383.93" y="-32.4" font-family="Times,serif" font-size="12.00" fill="#fff4cc">TAIL</text>
</g>
<!-- tail_label&#45;&gt;2 -->
<g id="edge11" class="edge">
<title>tail_label&#45;&gt;2</title>
<path fill="none" stroke="#fff4cc" d="M384.18,-54.21C384.18,-54.21 384.18,-210.58 384.18,-210.58"/>
<polygon fill="#fff4cc" stroke="#fff4cc" points="381.2,-210.58 384.18,-219.08 387.15,-210.58 381.2,-210.58"/>
</g>
<!-- free_label -->
<g id="node8" class="node">
<title>free_label</title>
<polygon fill="#879eac" stroke="#fff4cc" points="574.03,-91 520.03,-91 520.03,-55 574.03,-55 574.03,-91"/>
<text xml:space="preserve" text-anchor="middle" x="547.03" y="-69.4" font-family="Times,serif" font-size="12.00" fill="#fff4cc">FREE</text>
</g>
<!-- free_label&#45;&gt;3 -->
<g id="edge12" class="edge">
<title>free_label&#45;&gt;3</title>
<path fill="none" stroke="#fff4cc" d="M547.18,-91.35C547.18,-91.35 547.18,-210.59 547.18,-210.59"/>
<polygon fill="#fff4cc" stroke="#fff4cc" points="544.2,-210.59 547.18,-219.09 550.15,-210.59 544.2,-210.59"/>
</g>
</g>
</svg>
