<?xml version="1.0" encoding="UTF-8" standalone="no"?>
<!DOCTYPE svg PUBLIC "-//W3C//DTD SVG 1.1//EN"
 "http://www.w3.org/Graphics/SVG/1.1/DTD/svg11.dtd">
<!-- Generated by graphviz version 14.0.2 (20251019.1705)
 -->
<!-- Title: G Pages: 1 -->
<svg width="1701pt" height="117pt"
 viewBox="0.00 0.00 1701.00 117.00" xmlns="http://www.w3.org/2000/svg" xmlns:xlink="http://www.w3.org/1999/xlink">
<g id="graph0" class="graph" transform="scale(1 1) rotate(0) translate(4 113)">
<title>G</title>
<polygon fill="#1e2a36" stroke="none" points="-4,4 -4,-113 1697.01,-113 1697.01,4 -4,4"/>
<!-- info -->
<g id="node1" class="node">
<title>info</title>
<polygon fill="#4a5257" stroke="#fff4cc" stroke-width="2" points="0,-18.5 0,-84.5 64.32,-84.5 64.32,-18.5 0,-18.5"/>
<text xml:space="preserve" text-anchor="middle" x="32.16" y="-69.3" font-family="Times,serif" font-size="14.00">head = 2</text>
<polyline fill="none" stroke="#fff4cc" stroke-width="2" points="0,-62.5 64.32,-62.5"/>
<text xml:space="preserve" text-anchor="middle" x="32.16" y="-47.3" font-family="Times,serif" font-size="14.00">tail = 5</text>
<polyline fill="none" stroke="#fff4cc" stroke-width="2" points="0,-40.5 64.32,-40.5"/>
<text xml:space="preserve" text-anchor="middle" x="32.16" y="-25.3" font-family="Times,serif" font-size="14.00">free = 1</text>
</g>
<!-- 2 -->
<g id="node2" class="node">
<title>2</title>
<polygon fill="#82898f" stroke="#ffffff" stroke-width="2" points="100.32,-18.5 100.32,-84.5 225.09,-84.5 225.09,-18.5 100.32,-18.5"/>
<text xml:space="preserve" text-anchor="middle" x="162.71" y="-69.3" font-family="Times,serif" font-size="14.00">phys idx = 2</text>
<polyline fill="none" stroke="#ffffff" stroke-width="2" points="100.32,-62.5 225.09,-62.5"/>
<text xml:space="preserve" text-anchor="middle" x="162.71" y="-47.3" font-family="Times,serif" font-size="14.00">elem = 20.00</text>
<polyline fill="none" stroke="#ffffff" stroke-width="2" points="100.32,-40.5 225.09,-40.5"/>
<text xml:space="preserve" text-anchor="middle" x="131.71" y="-25.3" font-family="Times,serif" font-size="14.00">prev = 0</text>
<polyline fill="none" stroke="#ffffff" stroke-width="2" points="163.09,-18.5 163.09,-40.5"/>
<text xml:space="preserve" text-anchor="middle" x="194.09" y="-25.3" font-family="Times,serif" font-size="14.00">next = 3</text>
</g>
<!-- info&#45;&gt;2 -->
<!-- 3 -->
<g id="node3" class="node">
<title>3</title>
<polygon fill="#82898f" stroke="#ffffff" stroke-width="2" points="261.09,-18.5 261.09,-84.5 385.86,-84.5 385.86,-18.5 261.09,-18.5"/>
<text xml:space="preserve" text-anchor="middle" x="323.48" y="-69.3" font-family="Times,serif" font-size="14.00">phys idx = 3</text>
<polyline fill="none" stroke="#ffffff" stroke-width="2" points="261.09,-62.5 385.86,-62.5"/>
<text xml:space="preserve" text-anchor="middle" x="323.48" y="-47.3" font-family="Times,serif" font-size="14.00">elem = 30.00</text>
<polyline fill="none" stroke="#ffffff" stroke-width="2" points="261.09,-40.5 385.86,-40.5"/>
<text xml:space="preserve" text-anchor="middle" x="292.48" y="-25.3" font-family="Times,serif" font-size="14.00">prev = 2</text>
<polyline fill="none" stroke="#ffffff" stroke-width="2" points="323.87,-18.5 323.87,-40.5"/>
<text xml:space="preserve" text-anchor="middle" x="354.86" y="-25.3" font-family="Times,serif" font-size="14.00">next = 9</text>
</g>
<!-- 2&#45;&gt;3 -->
<!-- 2&#45;&gt;3 -->
<g id="edge11" class="edge">
<title>2&#45;&gt;3</title>
<path fill="none" stroke="#d4a798" d="M225.79,-62.67C225.79,-62.67 250.3,-62.67 250.3,-62.67"/>
<polygon fill="#d4a798" stroke="#d4a798" points="250.3,-65.64 258.8,-62.67 250.3,-59.69 250.3,-65.64"/>
</g>
<!-- 4 -->
<g id="node4" class="node">
<title>4</title>
<polygon fill="#82898f" stroke="#ffffff" stroke-width="2" points="421.86,-18.5 421.86,-84.5 546.63,-84.5 546.63,-18.5 421.86,-18.5"/>
<text xml:space="preserve" text-anchor="middle" x="484.25" y="-69.3" font-family="Times,serif" font-size="14.00">phys idx = 4</text>
<polyline fill="none" stroke="#ffffff" stroke-width="2" points="421.86,-62.5 546.63,-62.5"/>
<text xml:space="preserve" text-anchor="middle" x="484.25" y="-47.3" font-family="Times,serif" font-size="14.00">elem = 40.00</text>
<polyline fill="none" stroke="#ffffff" stroke-width="2" points="421.86,-40.5 546.63,-40.5"/>
<text xml:space="preserve" text-anchor="middle" x="453.25" y="-25.3" font-family="Times,serif" font-size="14.00">prev = 8</text>
<polyline fill="none" stroke="#ffffff" stroke-width="2" points="484.64,-18.5 484.64,-40.5"/>
<text xml:space="preserve" text-anchor="middle" x="515.64" y="-25.3" font-family="Times,serif" font-size="14.00">next = 5</text>
</g>
<!-- 3&#45;&gt;4 -->
<!-- 9 -->
<g id="node8" class="node">
<title>9</title>
<polygon fill="#82898f" stroke="#ffffff" stroke-width="2" points="1064.95,-18.5 1064.95,-84.5 1189.72,-84.5 1189.72,-18.5 1064.95,-18.5"/>
<text xml:space="preserve" text-anchor="middle" x="1127.33" y="-69.3" font-family="Times,serif" font-size="14.00">phys idx = 9</text>
<polyline fill="none" stroke="#ffffff" stroke-width="2" points="1064.95,-62.5 1189.72,-62.5"/>
<text xml:space="preserve" text-anchor="middle" x="1127.33" y="-47.3" font-family="Times,serif" font-size="14.00">elem = 32.00</text>
<polyline fill="none" stroke="#ffffff" stroke-width="2" points="1064.95,-40.5 1189.72,-40.5"/>
<text xml:space="preserve" text-anchor="middle" x="1096.33" y="-25.3" font-family="Times,serif" font-size="14.00">prev = 3</text>
<polyline fill="none" stroke="#ffffff" stroke-width="2" points="1127.72,-18.5 1127.72,-40.5"/>
<text xml:space="preserve" text-anchor="middle" x="1158.72" y="-25.3" font-family="Times,serif" font-size="14.00">next = 7</text>
</g>
<!-- 3&#45;&gt;9 -->
<g id="edge12" class="edge">
<title>3&#45;&gt;9</title>
<path fill="none" stroke="#d4a798" d="M323.01,-85.28C323.01,-97.8 323.01,-109 323.01,-109 323.01,-109 1127.01,-109 1127.01,-109 1127.01,-109 1127.01,-95.29 1127.01,-95.29"/>
<polygon fill="#d4a798" stroke="#d4a798" points="1129.99,-95.29 1127.01,-86.79 1124.04,-95.29 1129.99,-95.29"/>
</g>
<!-- 5 -->
<g id="node5" class="node">
<title>5</title>
<polygon fill="#82898f" stroke="#ffffff" stroke-width="2" points="582.63,-18.5 582.63,-84.5 707.41,-84.5 707.41,-18.5 582.63,-18.5"/>
<text xml:space="preserve" text-anchor="middle" x="645.02" y="-69.3" font-family="Times,serif" font-size="14.00">phys idx = 5</text>
<polyline fill="none" stroke="#ffffff" stroke-width="2" points="582.63,-62.5 707.41,-62.5"/>
<text xml:space="preserve" text-anchor="middle" x="645.02" y="-47.3" font-family="Times,serif" font-size="14.00">elem = 50.00</text>
<polyline fill="none" stroke="#ffffff" stroke-width="2" points="582.63,-40.5 707.41,-40.5"/>
<text xml:space="preserve" text-anchor="middle" x="614.02" y="-25.3" font-family="Times,serif" font-size="14.00">prev = 4</text>
<polyline fill="none" stroke="#ffffff" stroke-width="2" points="645.41,-18.5 645.41,-40.5"/>
<text xml:space="preserve" text-anchor="middle" x="676.41" y="-25.3" font-family="Times,serif" font-size="14.00">next = 0</text>
</g>
<!-- 4&#45;&gt;5 -->
<!-- 4&#45;&gt;5 -->
<g id="edge13" class="edge">
<title>4&#45;&gt;5</title>
<path fill="none" stroke="#d4a798" d="M547.33,-62.67C547.33,-62.67 571.85,-62.67 571.85,-62.67"/>
<polygon fill="#d4a798" stroke="#d4a798" points="571.85,-65.64 580.35,-62.67 571.85,-59.69 571.85,-65.64"/>
</g>
<!-- 7 -->
<g id="node6" class="node">
<title>7</title>
<polygon fill="#82898f" stroke="#ffffff" stroke-width="2" points="743.41,-18.5 743.41,-84.5 868.18,-84.5 868.18,-18.5 743.41,-18.5"/>
<text xml:space="preserve" text-anchor="middle" x="805.79" y="-69.3" font-family="Times,serif" font-size="14.00">phys idx = 7</text>
<polyline fill="none" stroke="#ffffff" stroke-width="2" points="743.41,-62.5 868.18,-62.5"/>
<text xml:space="preserve" text-anchor="middle" x="805.79" y="-47.3" font-family="Times,serif" font-size="14.00">elem = 35.00</text>
<polyline fill="none" stroke="#ffffff" stroke-width="2" points="743.41,-40.5 868.18,-40.5"/>
<text xml:space="preserve" text-anchor="middle" x="774.79" y="-25.3" font-family="Times,serif" font-size="14.00">prev = 9</text>
<polyline fill="none" stroke="#ffffff" stroke-width="2" points="806.18,-18.5 806.18,-40.5"/>
<text xml:space="preserve" text-anchor="middle" x="837.18" y="-25.3" font-family="Times,serif" font-size="14.00">next = 8</text>
</g>
<!-- 5&#45;&gt;7 -->
<!-- 8 -->
<g id="node7" class="node">
<title>8</title>
<polygon fill="#82898f" stroke="#ffffff" stroke-width="2" points="904.18,-18.5 904.18,-84.5 1028.95,-84.5 1028.95,-18.5 904.18,-18.5"/>
<text xml:space="preserve" text-anchor="middle" x="966.56" y="-69.3" font-family="Times,serif" font-size="14.00">phys idx = 8</text>
<polyline fill="none" stroke="#ffffff" stroke-width="2" points="904.18,-62.5 1028.95,-62.5"/>
<text xml:space="preserve" text-anchor="middle" x="966.56" y="-47.3" font-family="Times,serif" font-size="14.00">elem = 36.00</text>
<polyline fill="none" stroke="#ffffff" stroke-width="2" points="904.18,-40.5 1028.95,-40.5"/>
<text xml:space="preserve" text-anchor="middle" x="935.56" y="-25.3" font-family="Times,serif" font-size="14.00">prev = 7</text>
<polyline fill="none" stroke="#ffffff" stroke-width="2" points="966.95,-18.5 966.95,-40.5"/>
<text xml:space="preserve" text-anchor="middle" x="997.95" y="-25.3" font-family="Times,serif" font-size="14.00">next = 4</text>
</g>
<!-- 7&#45;&gt;8 -->
<!-- 7&#45;&gt;8 -->
<g id="edge14" class="edge">
<title>7&#45;&gt;8</title>
<path fill="none" stroke="#d4a798" d="M868.87,-62.67C868.87,-62.67 893.39,-62.67 893.39,-62.67"/>
<polygon fill="#d4a798" stroke="#d4a798" points="893.39,-65.64 901.89,-62.67 893.39,-59.69 893.39,-65.64"/>
</g>
<!-- 8&#45;&gt;4 -->
<g id="edge15" class="edge">
<title>8&#45;&gt;4</title>
<path fill="none" stroke="#d4a798" d="M967.01,-85.05C967.01,-91.87 967.01,-97 967.01,-97 967.01,-97 484.01,-97 484.01,-97 484.01,-97 484.01,-95.06 484.01,-95.06"/>
<polygon fill="#d4a798" stroke="#d4a798" points="486.99,-95.06 484.01,-86.56 481.04,-95.06 486.99,-95.06"/>
</g>
<!-- 8&#45;&gt;9 -->
<!-- 9&#45;&gt;7 -->
<g id="edge16" class="edge">
<title>9&#45;&gt;7</title>
<path fill="none" stroke="#d4a798" d="M1127.01,-17.72C1127.01,-8.02 1127.01,0 1127.01,0 1127.01,0 806.01,0 806.01,0 806.01,0 806.01,-7.71 806.01,-7.71"/>
<polygon fill="#d4a798" stroke="#d4a798" points="803.04,-7.71 806.01,-16.21 808.99,-7.71 803.04,-7.71"/>
</g>
<!-- 1 -->
<g id="node9" class="node">
<title>1</title>
<polygon fill="#5c646b" stroke="#ffe766" stroke-width="2" points="1225.72,-18.5 1225.72,-84.5 1355.15,-84.5 1355.15,-18.5 1225.72,-18.5"/>
<text xml:space="preserve" text-anchor="middle" x="1290.43" y="-69.3" font-family="Times,serif" font-size="14.00">phys idx = 1</text>
<polyline fill="none" stroke="#ffe766" stroke-width="2" points="1225.72,-62.5 1355.15,-62.5"/>
<text xml:space="preserve" text-anchor="middle" x="1290.43" y="-47.3" font-family="Times,serif" font-size="14.00">elem = PZN</text>
<polyline fill="none" stroke="#ffe766" stroke-width="2" points="1225.72,-40.5 1355.15,-40.5"/>
<text xml:space="preserve" text-anchor="middle" x="1259.43" y="-25.3" font-family="Times,serif" font-size="14.00">prev = &#45;1</text>
<polyline fill="none" stroke="#ffe766" stroke-width="2" points="1293.15,-18.5 1293.15,-40.5"/>
<text xml:space="preserve" text-anchor="middle" x="1324.15" y="-25.3" font-family="Times,serif" font-size="14.00">next = 6</text>
</g>
<!-- 9&#45;&gt;1 -->
<!-- 6 -->
<g id="node10" class="node">
<title>6</title>
<polygon fill="#5c646b" stroke="#ffe766" stroke-width="2" points="1391.15,-18.5 1391.15,-84.5 1527.58,-84.5 1527.58,-18.5 1391.15,-18.5"/>
<text xml:space="preserve" text-anchor="middle" x="1459.37" y="-69.3" font-family="Times,serif" font-size="14.00">phys idx = 6</text>
<polyline fill="none" stroke="#ffe766" stroke-width="2" points="1391.15,-62.5 1527.58,-62.5"/>
<text xml:space="preserve" text-anchor="middle" x="1459.37" y="-47.3" font-family="Times,serif" font-size="14.00">elem = PZN</text>
<polyline fill="none" stroke="#ffe766" stroke-width="2" points="1391.15,-40.5 1527.58,-40.5"/>
<text xml:space="preserve" text-anchor="middle" x="1424.87" y="-25.3" font-family="Times,serif" font-size="14.00">prev = &#45;1</text>
<polyline fill="none" stroke="#ffe766" stroke-width="2" points="1458.58,-18.5 1458.58,-40.5"/>
<text xml:space="preserve" text-anchor="middle" x="1493.08" y="-25.3" font-family="Times,serif" font-size="14.00">next = 10</text>
</g>
<!-- 1&#45;&gt;6 -->
<!-- 10 -->
<g id="node11" class="node">
<title>10</title>
<polygon fill="#5c646b" stroke="#ffe766" stroke-width="2" points="1563.58,-18.5 1563.58,-84.5 1693.01,-84.5 1693.01,-18.5 1563.58,-18.5"/>
<text xml:space="preserve" text-anchor="middle" x="1628.3" y="-69.3" font-family="Times,serif" font-size="14.00">phys idx = 10</text>
<polyline fill="none" stroke="#ffe766" stroke-width="2" points="1563.58,-62.5 1693.01,-62.5"/>
<text xml:space="preserve" text-anchor="middle" x="1628.3" y="-47.3" font-family="Times,serif" font-size="14.00">elem = PZN</text>
<polyline fill="none" stroke="#ffe766" stroke-width="2" points="1563.58,-40.5 1693.01,-40.5"/>
<text xml:space="preserve" text-anchor="middle" x="1597.3" y="-25.3" font-family="Times,serif" font-size="14.00">prev = &#45;1</text>
<polyline fill="none" stroke="#ffe766" stroke-width="2" points="1631.02,-18.5 1631.02,-40.5"/>
<text xml:space="preserve" text-anchor="middle" x="1662.02" y="-25.3" font-family="Times,serif" font-size="14.00">next = 0</text>
</g>
<!-- 6&#45;&gt;10 -->
</g>
</svg>
