<?xml version="1.0" encoding="UTF-8" standalone="no"?>
<!DOCTYPE svg PUBLIC "-//W3C//DTD SVG 1.1//EN"
 "http://www.w3.org/Graphics/SVG/1.1/DTD/svg11.dtd">
<!-- Generated by graphviz version 14.0.2 (20251019.1705)
 -->
<!-- Title: G Pages: 1 -->
<svg width="790pt" height="220pt"
 viewBox="0.00 0.00 790.00 220.00" xmlns="http://www.w3.org/2000/svg" xmlns:xlink="http://www.w3.org/1999/xlink">
<g id="graph0" class="graph" transform="scale(1 1) rotate(0) translate(4 215.5)">
<title>G</title>
<polygon fill="#fffafa" stroke="none" points="-4,4 -4,-215.5 785.84,-215.5 785.84,4 -4,4"/>
<!-- 0 -->
<g id="node1" class="node">
<title>0</title>
<path fill="#cd5c5c" stroke="#000000" d="M12,-145C12,-145 112.77,-145 112.77,-145 118.77,-145 124.77,-151 124.77,-157 124.77,-157 124.77,-199 124.77,-199 124.77,-205 118.77,-211 112.77,-211 112.77,-211 12,-211 12,-211 6,-211 0,-205 0,-199 0,-199 0,-157 0,-157 0,-151 6,-145 12,-145"/>
<text xml:space="preserve" text-anchor="middle" x="62.39" y="-195.8" font-family="Times,serif" font-size="14.00">phys idx = 0</text>
<polyline fill="none" stroke="#000000" points="0,-189 124.77,-189"/>
<text xml:space="preserve" text-anchor="middle" x="62.39" y="-173.8" font-family="Times,serif" font-size="14.00">elem = &#45;6666.00</text>
<polyline fill="none" stroke="#000000" points="0,-167 124.77,-167"/>
<text xml:space="preserve" text-anchor="middle" x="31.39" y="-151.8" font-family="Times,serif" font-size="14.00">prev = 1</text>
<polyline fill="none" stroke="#000000" points="62.77,-145 62.77,-167"/>
<text xml:space="preserve" text-anchor="middle" x="93.77" y="-151.8" font-family="Times,serif" font-size="14.00">next = 1</text>
</g>
<!-- 1 -->
<g id="node2" class="node">
<title>1</title>
<path fill="#98fb98" stroke="#000000" d="M172.77,-145C172.77,-145 273.54,-145 273.54,-145 279.54,-145 285.54,-151 285.54,-157 285.54,-157 285.54,-199 285.54,-199 285.54,-205 279.54,-211 273.54,-211 273.54,-211 172.77,-211 172.77,-211 166.77,-211 160.77,-205 160.77,-199 160.77,-199 160.77,-157 160.77,-157 160.77,-151 166.77,-145 172.77,-145"/>
<text xml:space="preserve" text-anchor="middle" x="223.16" y="-195.8" font-family="Times,serif" font-size="14.00">phys idx = 1</text>
<polyline fill="none" stroke="#000000" points="160.77,-189 285.54,-189"/>
<text xml:space="preserve" text-anchor="middle" x="223.16" y="-173.8" font-family="Times,serif" font-size="14.00">elem = 11.00</text>
<polyline fill="none" stroke="#000000" points="160.77,-167 285.54,-167"/>
<text xml:space="preserve" text-anchor="middle" x="192.16" y="-151.8" font-family="Times,serif" font-size="14.00">prev = 0</text>
<polyline fill="none" stroke="#000000" points="223.54,-145 223.54,-167"/>
<text xml:space="preserve" text-anchor="middle" x="254.54" y="-151.8" font-family="Times,serif" font-size="14.00">next = 0</text>
</g>
<!-- 0&#45;&gt;1 -->
<!-- 0&#45;&gt;1 -->
<g id="edge5" class="edge">
<title>0&#45;&gt;1</title>
<path fill="none" stroke="#6a7075" d="M135.02,-189.17C135.02,-189.17 150.43,-189.17 150.43,-189.17"/>
<polygon fill="#6a7075" stroke="#6a7075" points="135.02,-186.19 126.52,-189.17 135.02,-192.14 135.02,-186.19"/>
<polygon fill="#6a7075" stroke="#6a7075" points="150.43,-192.14 158.93,-189.17 150.43,-186.19 150.43,-192.14"/>
</g>
<!-- 2 -->
<g id="node3" class="node">
<title>2</title>
<path fill="#82898f" stroke="#000000" d="M333.54,-145C333.54,-145 438.97,-145 438.97,-145 444.97,-145 450.97,-151 450.97,-157 450.97,-157 450.97,-199 450.97,-199 450.97,-205 444.97,-211 438.97,-211 438.97,-211 333.54,-211 333.54,-211 327.54,-211 321.54,-205 321.54,-199 321.54,-199 321.54,-157 321.54,-157 321.54,-151 327.54,-145 333.54,-145"/>
<text xml:space="preserve" text-anchor="middle" x="386.26" y="-195.8" font-family="Times,serif" font-size="14.00">phys idx = 2</text>
<polyline fill="none" stroke="#000000" points="321.54,-189 450.97,-189"/>
<text xml:space="preserve" text-anchor="middle" x="386.26" y="-173.8" font-family="Times,serif" font-size="14.00">elem = &#45;6666.00</text>
<polyline fill="none" stroke="#000000" points="321.54,-167 450.97,-167"/>
<text xml:space="preserve" text-anchor="middle" x="355.26" y="-151.8" font-family="Times,serif" font-size="14.00">prev = &#45;1</text>
<polyline fill="none" stroke="#000000" points="388.97,-145 388.97,-167"/>
<text xml:space="preserve" text-anchor="middle" x="419.97" y="-151.8" font-family="Times,serif" font-size="14.00">next = 3</text>
</g>
<!-- 1&#45;&gt;2 -->
<!-- 3 -->
<g id="node4" class="node">
<title>3</title>
<path fill="#82898f" stroke="#000000" d="M498.97,-145C498.97,-145 604.41,-145 604.41,-145 610.41,-145 616.41,-151 616.41,-157 616.41,-157 616.41,-199 616.41,-199 616.41,-205 610.41,-211 604.41,-211 604.41,-211 498.97,-211 498.97,-211 492.97,-211 486.97,-205 486.97,-199 486.97,-199 486.97,-157 486.97,-157 486.97,-151 492.97,-145 498.97,-145"/>
<text xml:space="preserve" text-anchor="middle" x="551.69" y="-195.8" font-family="Times,serif" font-size="14.00">phys idx = 3</text>
<polyline fill="none" stroke="#000000" points="486.97,-189 616.41,-189"/>
<text xml:space="preserve" text-anchor="middle" x="551.69" y="-173.8" font-family="Times,serif" font-size="14.00">elem = &#45;6666.00</text>
<polyline fill="none" stroke="#000000" points="486.97,-167 616.41,-167"/>
<text xml:space="preserve" text-anchor="middle" x="520.69" y="-151.8" font-family="Times,serif" font-size="14.00">prev = &#45;1</text>
<polyline fill="none" stroke="#000000" points="554.41,-145 554.41,-167"/>
<text xml:space="preserve" text-anchor="middle" x="585.41" y="-151.8" font-family="Times,serif" font-size="14.00">next = 4</text>
</g>
<!-- 2&#45;&gt;3 -->
<!-- 4 -->
<g id="node5" class="node">
<title>4</title>
<path fill="#82898f" stroke="#000000" d="M664.41,-145C664.41,-145 769.84,-145 769.84,-145 775.84,-145 781.84,-151 781.84,-157 781.84,-157 781.84,-199 781.84,-199 781.84,-205 775.84,-211 769.84,-211 769.84,-211 664.41,-211 664.41,-211 658.41,-211 652.41,-205 652.41,-199 652.41,-199 652.41,-157 652.41,-157 652.41,-151 658.41,-145 664.41,-145"/>
<text xml:space="preserve" text-anchor="middle" x="717.12" y="-195.8" font-family="Times,serif" font-size="14.00">phys idx = 4</text>
<polyline fill="none" stroke="#000000" points="652.41,-189 781.84,-189"/>
<text xml:space="preserve" text-anchor="middle" x="717.12" y="-173.8" font-family="Times,serif" font-size="14.00">elem = &#45;6666.00</text>
<polyline fill="none" stroke="#000000" points="652.41,-167 781.84,-167"/>
<text xml:space="preserve" text-anchor="middle" x="686.12" y="-151.8" font-family="Times,serif" font-size="14.00">prev = &#45;1</text>
<polyline fill="none" stroke="#000000" points="719.84,-145 719.84,-167"/>
<text xml:space="preserve" text-anchor="middle" x="750.84" y="-151.8" font-family="Times,serif" font-size="14.00">next = 0</text>
</g>
<!-- 3&#45;&gt;4 -->
<!-- head_label -->
<g id="node6" class="node">
<title>head_label</title>
<polygon fill="#879eac" stroke="#fff4cc" points="250.16,-108 196.16,-108 196.16,-72 250.16,-72 250.16,-108"/>
<text xml:space="preserve" text-anchor="middle" x="223.16" y="-86.4" font-family="Times,serif" font-size="12.00" fill="#fff4cc">HEAD</text>
</g>
<!-- head_label&#45;&gt;1 -->
<g id="edge6" class="edge">
<title>head_label&#45;&gt;1</title>
<path fill="none" stroke="#fff4cc" d="M222.84,-108.23C222.84,-108.23 222.84,-134.84 222.84,-134.84"/>
<polygon fill="#fff4cc" stroke="#fff4cc" points="219.86,-134.84 222.84,-143.34 225.81,-134.84 219.86,-134.84"/>
</g>
<!-- tail_label -->
<g id="node7" class="node">
<title>tail_label</title>
<polygon fill="#879eac" stroke="#fff4cc" points="250.16,-36 196.16,-36 196.16,0 250.16,0 250.16,-36"/>
<text xml:space="preserve" text-anchor="middle" x="223.16" y="-14.4" font-family="Times,serif" font-size="12.00" fill="#fff4cc">TAIL</text>
</g>
<!-- tail_label&#45;&gt;1 -->
<g id="edge7" class="edge">
<title>tail_label&#45;&gt;1</title>
<path fill="none" stroke="#fff4cc" d="M195.85,-18C186.73,-18 178.84,-18 178.84,-18 178.84,-18 178.84,-134.83 178.84,-134.83"/>
<polygon fill="#fff4cc" stroke="#fff4cc" points="175.86,-134.83 178.84,-143.33 181.81,-134.83 175.86,-134.83"/>
</g>
<!-- free_label -->
<g id="node8" class="node">
<title>free_label</title>
<polygon fill="#879eac" stroke="#fff4cc" points="413.26,-108 359.26,-108 359.26,-72 413.26,-72 413.26,-108"/>
<text xml:space="preserve" text-anchor="middle" x="386.26" y="-86.4" font-family="Times,serif" font-size="12.00" fill="#fff4cc">FREE</text>
</g>
<!-- free_label&#45;&gt;2 -->
<g id="edge8" class="edge">
<title>free_label&#45;&gt;2</title>
<path fill="none" stroke="#fff4cc" d="M385.84,-108.23C385.84,-108.23 385.84,-134.84 385.84,-134.84"/>
<polygon fill="#fff4cc" stroke="#fff4cc" points="382.86,-134.84 385.84,-143.34 388.81,-134.84 382.86,-134.84"/>
</g>
</g>
</svg>
