<?xml version="1.0" encoding="UTF-8" standalone="no"?>
<!DOCTYPE svg PUBLIC "-//W3C//DTD SVG 1.1//EN"
 "http://www.w3.org/Graphics/SVG/1.1/DTD/svg11.dtd">
<!-- Generated by graphviz version 14.0.2 (20251019.1705)
 -->
<!-- Title: G Pages: 1 -->
<svg width="1766pt" height="320pt"
 viewBox="0.00 0.00 1766.00 320.00" xmlns="http://www.w3.org/2000/svg" xmlns:xlink="http://www.w3.org/1999/xlink">
<g id="graph0" class="graph" transform="scale(1 1) rotate(0) translate(4 315.5)">
<title>G</title>
<polygon fill="#fffafa" stroke="none" points="-4,4 -4,-315.5 1762.12,-315.5 1762.12,4 -4,4"/>
<!-- 0 -->
<g id="node1" class="node">
<title>0</title>
<path fill="#cd5c5c" stroke="#000000" d="M12,-221C12,-221 112.77,-221 112.77,-221 118.77,-221 124.77,-227 124.77,-233 124.77,-233 124.77,-275 124.77,-275 124.77,-281 118.77,-287 112.77,-287 112.77,-287 12,-287 12,-287 6,-287 0,-281 0,-275 0,-275 0,-233 0,-233 0,-227 6,-221 12,-221"/>
<text xml:space="preserve" text-anchor="middle" x="62.39" y="-271.8" font-family="Times,serif" font-size="14.00">phys idx = 0</text>
<polyline fill="none" stroke="#000000" points="0,-265 124.77,-265"/>
<text xml:space="preserve" text-anchor="middle" x="62.39" y="-249.8" font-family="Times,serif" font-size="14.00">elem = &#45;6666.00</text>
<polyline fill="none" stroke="#000000" points="0,-243 124.77,-243"/>
<text xml:space="preserve" text-anchor="middle" x="31.39" y="-227.8" font-family="Times,serif" font-size="14.00">prev = 6</text>
<polyline fill="none" stroke="#000000" points="62.77,-221 62.77,-243"/>
<text xml:space="preserve" text-anchor="middle" x="93.77" y="-227.8" font-family="Times,serif" font-size="14.00">next = 1</text>
</g>
<!-- 1 -->
<g id="node2" class="node">
<title>1</title>
<path fill="#98fb98" stroke="#000000" d="M172.77,-221C172.77,-221 273.54,-221 273.54,-221 279.54,-221 285.54,-227 285.54,-233 285.54,-233 285.54,-275 285.54,-275 285.54,-281 279.54,-287 273.54,-287 273.54,-287 172.77,-287 172.77,-287 166.77,-287 160.77,-281 160.77,-275 160.77,-275 160.77,-233 160.77,-233 160.77,-227 166.77,-221 172.77,-221"/>
<text xml:space="preserve" text-anchor="middle" x="223.16" y="-271.8" font-family="Times,serif" font-size="14.00">phys idx = 1</text>
<polyline fill="none" stroke="#000000" points="160.77,-265 285.54,-265"/>
<text xml:space="preserve" text-anchor="middle" x="223.16" y="-249.8" font-family="Times,serif" font-size="14.00">elem = 10.00</text>
<polyline fill="none" stroke="#000000" points="160.77,-243 285.54,-243"/>
<text xml:space="preserve" text-anchor="middle" x="192.16" y="-227.8" font-family="Times,serif" font-size="14.00">prev = 0</text>
<polyline fill="none" stroke="#000000" points="223.54,-221 223.54,-243"/>
<text xml:space="preserve" text-anchor="middle" x="254.54" y="-227.8" font-family="Times,serif" font-size="14.00">next = 2</text>
</g>
<!-- 0&#45;&gt;1 -->
<!-- 0&#45;&gt;1 -->
<g id="edge11" class="edge">
<title>0&#45;&gt;1</title>
<path fill="none" stroke="#6a7075" d="M135.02,-242.83C135.02,-242.83 150.43,-242.83 150.43,-242.83"/>
<polygon fill="#6a7075" stroke="#6a7075" points="135.02,-239.86 126.52,-242.83 135.02,-245.81 135.02,-239.86"/>
<polygon fill="#6a7075" stroke="#6a7075" points="150.43,-245.81 158.93,-242.83 150.43,-239.86 150.43,-245.81"/>
</g>
<!-- 2 -->
<g id="node3" class="node">
<title>2</title>
<path fill="#98fb98" stroke="#000000" d="M333.54,-221C333.54,-221 434.31,-221 434.31,-221 440.31,-221 446.31,-227 446.31,-233 446.31,-233 446.31,-275 446.31,-275 446.31,-281 440.31,-287 434.31,-287 434.31,-287 333.54,-287 333.54,-287 327.54,-287 321.54,-281 321.54,-275 321.54,-275 321.54,-233 321.54,-233 321.54,-227 327.54,-221 333.54,-221"/>
<text xml:space="preserve" text-anchor="middle" x="383.93" y="-271.8" font-family="Times,serif" font-size="14.00">phys idx = 2</text>
<polyline fill="none" stroke="#000000" points="321.54,-265 446.31,-265"/>
<text xml:space="preserve" text-anchor="middle" x="383.93" y="-249.8" font-family="Times,serif" font-size="14.00">elem = 20.00</text>
<polyline fill="none" stroke="#000000" points="321.54,-243 446.31,-243"/>
<text xml:space="preserve" text-anchor="middle" x="352.93" y="-227.8" font-family="Times,serif" font-size="14.00">prev = 1</text>
<polyline fill="none" stroke="#000000" points="384.31,-221 384.31,-243"/>
<text xml:space="preserve" text-anchor="middle" x="415.31" y="-227.8" font-family="Times,serif" font-size="14.00">next = 3</text>
</g>
<!-- 1&#45;&gt;2 -->
<!-- 1&#45;&gt;2 -->
<g id="edge12" class="edge">
<title>1&#45;&gt;2</title>
<path fill="none" stroke="#6a7075" d="M295.79,-265.17C295.79,-265.17 311.2,-265.17 311.2,-265.17"/>
<polygon fill="#6a7075" stroke="#6a7075" points="295.79,-262.19 287.29,-265.17 295.79,-268.14 295.79,-262.19"/>
<polygon fill="#6a7075" stroke="#6a7075" points="311.2,-268.14 319.7,-265.17 311.2,-262.19 311.2,-268.14"/>
</g>
<!-- 3 -->
<g id="node4" class="node">
<title>3</title>
<path fill="#98fb98" stroke="#000000" d="M494.31,-221C494.31,-221 595.08,-221 595.08,-221 601.08,-221 607.08,-227 607.08,-233 607.08,-233 607.08,-275 607.08,-275 607.08,-281 601.08,-287 595.08,-287 595.08,-287 494.31,-287 494.31,-287 488.31,-287 482.31,-281 482.31,-275 482.31,-275 482.31,-233 482.31,-233 482.31,-227 488.31,-221 494.31,-221"/>
<text xml:space="preserve" text-anchor="middle" x="544.7" y="-271.8" font-family="Times,serif" font-size="14.00">phys idx = 3</text>
<polyline fill="none" stroke="#000000" points="482.31,-265 607.08,-265"/>
<text xml:space="preserve" text-anchor="middle" x="544.7" y="-249.8" font-family="Times,serif" font-size="14.00">elem = 30.00</text>
<polyline fill="none" stroke="#000000" points="482.31,-243 607.08,-243"/>
<text xml:space="preserve" text-anchor="middle" x="513.7" y="-227.8" font-family="Times,serif" font-size="14.00">prev = 2</text>
<polyline fill="none" stroke="#000000" points="545.08,-221 545.08,-243"/>
<text xml:space="preserve" text-anchor="middle" x="576.08" y="-227.8" font-family="Times,serif" font-size="14.00">next = 4</text>
</g>
<!-- 2&#45;&gt;3 -->
<!-- 2&#45;&gt;3 -->
<g id="edge13" class="edge">
<title>2&#45;&gt;3</title>
<path fill="none" stroke="#6a7075" d="M456.56,-265.17C456.56,-265.17 471.97,-265.17 471.97,-265.17"/>
<polygon fill="#6a7075" stroke="#6a7075" points="456.56,-262.19 448.06,-265.17 456.56,-268.14 456.56,-262.19"/>
<polygon fill="#6a7075" stroke="#6a7075" points="471.97,-268.14 480.47,-265.17 471.97,-262.19 471.97,-268.14"/>
</g>
<!-- 4 -->
<g id="node5" class="node">
<title>4</title>
<path fill="#98fb98" stroke="#000000" d="M655.08,-221C655.08,-221 755.85,-221 755.85,-221 761.85,-221 767.85,-227 767.85,-233 767.85,-233 767.85,-275 767.85,-275 767.85,-281 761.85,-287 755.85,-287 755.85,-287 655.08,-287 655.08,-287 649.08,-287 643.08,-281 643.08,-275 643.08,-275 643.08,-233 643.08,-233 643.08,-227 649.08,-221 655.08,-221"/>
<text xml:space="preserve" text-anchor="middle" x="705.47" y="-271.8" font-family="Times,serif" font-size="14.00">phys idx = 4</text>
<polyline fill="none" stroke="#000000" points="643.08,-265 767.85,-265"/>
<text xml:space="preserve" text-anchor="middle" x="705.47" y="-249.8" font-family="Times,serif" font-size="14.00">elem = 40.00</text>
<polyline fill="none" stroke="#000000" points="643.08,-243 767.85,-243"/>
<text xml:space="preserve" text-anchor="middle" x="674.47" y="-227.8" font-family="Times,serif" font-size="14.00">prev = 3</text>
<polyline fill="none" stroke="#000000" points="705.85,-221 705.85,-243"/>
<text xml:space="preserve" text-anchor="middle" x="736.85" y="-227.8" font-family="Times,serif" font-size="14.00">next = 5</text>
</g>
<!-- 3&#45;&gt;4 -->
<!-- 3&#45;&gt;4 -->
<g id="edge14" class="edge">
<title>3&#45;&gt;4</title>
<path fill="none" stroke="#6a7075" d="M617.33,-265.17C617.33,-265.17 632.74,-265.17 632.74,-265.17"/>
<polygon fill="#6a7075" stroke="#6a7075" points="617.33,-262.19 608.83,-265.17 617.33,-268.14 617.33,-262.19"/>
<polygon fill="#6a7075" stroke="#6a7075" points="632.74,-268.14 641.24,-265.17 632.74,-262.19 632.74,-268.14"/>
</g>
<!-- 5 -->
<g id="node6" class="node">
<title>5</title>
<path fill="#98fb98" stroke="#000000" d="M815.85,-221C815.85,-221 916.62,-221 916.62,-221 922.62,-221 928.62,-227 928.62,-233 928.62,-233 928.62,-275 928.62,-275 928.62,-281 922.62,-287 916.62,-287 916.62,-287 815.85,-287 815.85,-287 809.85,-287 803.85,-281 803.85,-275 803.85,-275 803.85,-233 803.85,-233 803.85,-227 809.85,-221 815.85,-221"/>
<text xml:space="preserve" text-anchor="middle" x="866.24" y="-271.8" font-family="Times,serif" font-size="14.00">phys idx = 5</text>
<polyline fill="none" stroke="#000000" points="803.85,-265 928.62,-265"/>
<text xml:space="preserve" text-anchor="middle" x="866.24" y="-249.8" font-family="Times,serif" font-size="14.00">elem = 50.00</text>
<polyline fill="none" stroke="#000000" points="803.85,-243 928.62,-243"/>
<text xml:space="preserve" text-anchor="middle" x="835.24" y="-227.8" font-family="Times,serif" font-size="14.00">prev = 4</text>
<polyline fill="none" stroke="#000000" points="866.62,-221 866.62,-243"/>
<text xml:space="preserve" text-anchor="middle" x="897.62" y="-227.8" font-family="Times,serif" font-size="14.00">next = 6</text>
</g>
<!-- 4&#45;&gt;5 -->
<!-- 4&#45;&gt;5 -->
<g id="edge15" class="edge">
<title>4&#45;&gt;5</title>
<path fill="none" stroke="#6a7075" d="M778.1,-265.17C778.1,-265.17 793.51,-265.17 793.51,-265.17"/>
<polygon fill="#6a7075" stroke="#6a7075" points="778.1,-262.19 769.6,-265.17 778.1,-268.14 778.1,-262.19"/>
<polygon fill="#6a7075" stroke="#6a7075" points="793.51,-268.14 802.01,-265.17 793.51,-262.19 793.51,-268.14"/>
</g>
<!-- 6 -->
<g id="node7" class="node">
<title>6</title>
<path fill="#98fb98" stroke="#000000" d="M976.62,-221C976.62,-221 1077.39,-221 1077.39,-221 1083.39,-221 1089.39,-227 1089.39,-233 1089.39,-233 1089.39,-275 1089.39,-275 1089.39,-281 1083.39,-287 1077.39,-287 1077.39,-287 976.62,-287 976.62,-287 970.62,-287 964.62,-281 964.62,-275 964.62,-275 964.62,-233 964.62,-233 964.62,-227 970.62,-221 976.62,-221"/>
<text xml:space="preserve" text-anchor="middle" x="1027.01" y="-271.8" font-family="Times,serif" font-size="14.00">phys idx = 6</text>
<polyline fill="none" stroke="#000000" points="964.62,-265 1089.39,-265"/>
<text xml:space="preserve" text-anchor="middle" x="1027.01" y="-249.8" font-family="Times,serif" font-size="14.00">elem = 60.00</text>
<polyline fill="none" stroke="#000000" points="964.62,-243 1089.39,-243"/>
<text xml:space="preserve" text-anchor="middle" x="996.01" y="-227.8" font-family="Times,serif" font-size="14.00">prev = 5</text>
<polyline fill="none" stroke="#000000" points="1027.39,-221 1027.39,-243"/>
<text xml:space="preserve" text-anchor="middle" x="1058.39" y="-227.8" font-family="Times,serif" font-size="14.00">next = 0</text>
</g>
<!-- 5&#45;&gt;6 -->
<!-- 5&#45;&gt;6 -->
<g id="edge16" class="edge">
<title>5&#45;&gt;6</title>
<path fill="none" stroke="#6a7075" d="M938.87,-242.83C938.87,-242.83 954.28,-242.83 954.28,-242.83"/>
<polygon fill="#6a7075" stroke="#6a7075" points="938.87,-239.86 930.37,-242.83 938.87,-245.81 938.87,-239.86"/>
<polygon fill="#6a7075" stroke="#6a7075" points="954.28,-245.81 962.78,-242.83 954.28,-239.86 954.28,-245.81"/>
</g>
<!-- 6&#45;&gt;0 -->
<g id="edge17" class="edge">
<title>6&#45;&gt;0</title>
<path fill="none" stroke="#6a7075" d="M1027.12,-297.08C1027.12,-297.08 1027.12,-299.5 1027.12,-299.5 1027.12,-299.5 83.12,-299.5 83.12,-299.5 83.12,-299.5 83.12,-297.08 83.12,-297.08"/>
<polygon fill="#6a7075" stroke="#6a7075" points="1030.1,-297.08 1027.12,-288.58 1024.15,-297.08 1030.1,-297.08"/>
<polygon fill="#6a7075" stroke="#6a7075" points="86.1,-297.08 83.12,-288.58 80.15,-297.08 86.1,-297.08"/>
</g>
<!-- 7 -->
<g id="node8" class="node">
<title>7</title>
<path fill="#82898f" stroke="#000000" d="M1137.39,-221C1137.39,-221 1242.83,-221 1242.83,-221 1248.83,-221 1254.83,-227 1254.83,-233 1254.83,-233 1254.83,-275 1254.83,-275 1254.83,-281 1248.83,-287 1242.83,-287 1242.83,-287 1137.39,-287 1137.39,-287 1131.39,-287 1125.39,-281 1125.39,-275 1125.39,-275 1125.39,-233 1125.39,-233 1125.39,-227 1131.39,-221 1137.39,-221"/>
<text xml:space="preserve" text-anchor="middle" x="1190.11" y="-271.8" font-family="Times,serif" font-size="14.00">phys idx = 7</text>
<polyline fill="none" stroke="#000000" points="1125.39,-265 1254.83,-265"/>
<text xml:space="preserve" text-anchor="middle" x="1190.11" y="-249.8" font-family="Times,serif" font-size="14.00">elem = &#45;6666.00</text>
<polyline fill="none" stroke="#000000" points="1125.39,-243 1254.83,-243"/>
<text xml:space="preserve" text-anchor="middle" x="1159.11" y="-227.8" font-family="Times,serif" font-size="14.00">prev = &#45;1</text>
<polyline fill="none" stroke="#000000" points="1192.83,-221 1192.83,-243"/>
<text xml:space="preserve" text-anchor="middle" x="1223.83" y="-227.8" font-family="Times,serif" font-size="14.00">next = 8</text>
</g>
<!-- 6&#45;&gt;7 -->
<!-- 8 -->
<g id="node9" class="node">
<title>8</title>
<path fill="#82898f" stroke="#000000" d="M1302.83,-221C1302.83,-221 1408.26,-221 1408.26,-221 1414.26,-221 1420.26,-227 1420.26,-233 1420.26,-233 1420.26,-275 1420.26,-275 1420.26,-281 1414.26,-287 1408.26,-287 1408.26,-287 1302.83,-287 1302.83,-287 1296.83,-287 1290.83,-281 1290.83,-275 1290.83,-275 1290.83,-233 1290.83,-233 1290.83,-227 1296.83,-221 1302.83,-221"/>
<text xml:space="preserve" text-anchor="middle" x="1355.54" y="-271.8" font-family="Times,serif" font-size="14.00">phys idx = 8</text>
<polyline fill="none" stroke="#000000" points="1290.83,-265 1420.26,-265"/>
<text xml:space="preserve" text-anchor="middle" x="1355.54" y="-249.8" font-family="Times,serif" font-size="14.00">elem = &#45;6666.00</text>
<polyline fill="none" stroke="#000000" points="1290.83,-243 1420.26,-243"/>
<text xml:space="preserve" text-anchor="middle" x="1324.54" y="-227.8" font-family="Times,serif" font-size="14.00">prev = &#45;1</text>
<polyline fill="none" stroke="#000000" points="1358.26,-221 1358.26,-243"/>
<text xml:space="preserve" text-anchor="middle" x="1389.26" y="-227.8" font-family="Times,serif" font-size="14.00">next = 9</text>
</g>
<!-- 7&#45;&gt;8 -->
<!-- 7&#45;&gt;8 -->
<g id="edge18" class="edge">
<title>7&#45;&gt;8</title>
<path fill="none" stroke="#44944a" d="M1255.02,-242.83C1255.02,-242.83 1280.54,-242.83 1280.54,-242.83"/>
<polygon fill="#44944a" stroke="#44944a" points="1280.54,-245.81 1289.04,-242.83 1280.54,-239.86 1280.54,-245.81"/>
</g>
<!-- 9 -->
<g id="node10" class="node">
<title>9</title>
<path fill="#82898f" stroke="#000000" d="M1468.26,-221C1468.26,-221 1580.69,-221 1580.69,-221 1586.69,-221 1592.69,-227 1592.69,-233 1592.69,-233 1592.69,-275 1592.69,-275 1592.69,-281 1586.69,-287 1580.69,-287 1580.69,-287 1468.26,-287 1468.26,-287 1462.26,-287 1456.26,-281 1456.26,-275 1456.26,-275 1456.26,-233 1456.26,-233 1456.26,-227 1462.26,-221 1468.26,-221"/>
<text xml:space="preserve" text-anchor="middle" x="1524.48" y="-271.8" font-family="Times,serif" font-size="14.00">phys idx = 9</text>
<polyline fill="none" stroke="#000000" points="1456.26,-265 1592.69,-265"/>
<text xml:space="preserve" text-anchor="middle" x="1524.48" y="-249.8" font-family="Times,serif" font-size="14.00">elem = &#45;6666.00</text>
<polyline fill="none" stroke="#000000" points="1456.26,-243 1592.69,-243"/>
<text xml:space="preserve" text-anchor="middle" x="1489.98" y="-227.8" font-family="Times,serif" font-size="14.00">prev = &#45;1</text>
<polyline fill="none" stroke="#000000" points="1523.69,-221 1523.69,-243"/>
<text xml:space="preserve" text-anchor="middle" x="1558.19" y="-227.8" font-family="Times,serif" font-size="14.00">next = 10</text>
</g>
<!-- 8&#45;&gt;9 -->
<!-- 8&#45;&gt;9 -->
<g id="edge19" class="edge">
<title>8&#45;&gt;9</title>
<path fill="none" stroke="#44944a" d="M1420.37,-265.17C1420.37,-265.17 1445.88,-265.17 1445.88,-265.17"/>
<polygon fill="#44944a" stroke="#44944a" points="1445.88,-268.14 1454.38,-265.17 1445.88,-262.19 1445.88,-268.14"/>
</g>
<!-- 10 -->
<g id="node11" class="node">
<title>10</title>
<path fill="#82898f" stroke="#000000" d="M1640.69,-221C1640.69,-221 1746.12,-221 1746.12,-221 1752.12,-221 1758.12,-227 1758.12,-233 1758.12,-233 1758.12,-275 1758.12,-275 1758.12,-281 1752.12,-287 1746.12,-287 1746.12,-287 1640.69,-287 1640.69,-287 1634.69,-287 1628.69,-281 1628.69,-275 1628.69,-275 1628.69,-233 1628.69,-233 1628.69,-227 1634.69,-221 1640.69,-221"/>
<text xml:space="preserve" text-anchor="middle" x="1693.41" y="-271.8" font-family="Times,serif" font-size="14.00">phys idx = 10</text>
<polyline fill="none" stroke="#000000" points="1628.69,-265 1758.12,-265"/>
<text xml:space="preserve" text-anchor="middle" x="1693.41" y="-249.8" font-family="Times,serif" font-size="14.00">elem = &#45;6666.00</text>
<polyline fill="none" stroke="#000000" points="1628.69,-243 1758.12,-243"/>
<text xml:space="preserve" text-anchor="middle" x="1662.41" y="-227.8" font-family="Times,serif" font-size="14.00">prev = &#45;1</text>
<polyline fill="none" stroke="#000000" points="1696.12,-221 1696.12,-243"/>
<text xml:space="preserve" text-anchor="middle" x="1727.12" y="-227.8" font-family="Times,serif" font-size="14.00">next = 0</text>
</g>
<!-- 9&#45;&gt;10 -->
<!-- 9&#45;&gt;10 -->
<g id="edge20" class="edge">
<title>9&#45;&gt;10</title>
<path fill="none" stroke="#44944a" d="M1593.19,-242.83C1593.19,-242.83 1618.29,-242.83 1618.29,-242.83"/>
<polygon fill="#44944a" stroke="#44944a" points="1618.29,-245.81 1626.79,-242.83 1618.29,-239.86 1618.29,-245.81"/>
</g>
<!-- 10&#45;&gt;0 -->
<g id="edge21" class="edge">
<title>10&#45;&gt;0</title>
<path fill="none" stroke="#44944a" d="M1693.12,-287.45C1693.12,-300.1 1693.12,-311.5 1693.12,-311.5 1693.12,-311.5 41.12,-311.5 41.12,-311.5 41.12,-311.5 41.12,-297.46 41.12,-297.46"/>
<polygon fill="#44944a" stroke="#44944a" points="44.1,-297.46 41.12,-288.96 38.15,-297.46 44.1,-297.46"/>
</g>
<!-- head_label -->
<g id="node12" class="node">
<title>head_label</title>
<polygon fill="#879eac" stroke="#fff4cc" points="250.16,-36 196.16,-36 196.16,0 250.16,0 250.16,-36"/>
<text xml:space="preserve" text-anchor="middle" x="223.16" y="-14.4" font-family="Times,serif" font-size="12.00" fill="#fff4cc">HEAD</text>
</g>
<!-- head_label&#45;&gt;1 -->
<g id="edge22" class="edge">
<title>head_label&#45;&gt;1</title>
<path fill="none" stroke="#fff4cc" d="M223.12,-36.13C223.12,-36.13 223.12,-210.58 223.12,-210.58"/>
<polygon fill="#fff4cc" stroke="#fff4cc" points="220.15,-210.58 223.12,-219.08 226.1,-210.58 220.15,-210.58"/>
</g>
<!-- tail_label -->
<g id="node13" class="node">
<title>tail_label</title>
<polygon fill="#879eac" stroke="#fff4cc" points="1054.01,-73 1000.01,-73 1000.01,-37 1054.01,-37 1054.01,-73"/>
<text xml:space="preserve" text-anchor="middle" x="1027.01" y="-51.4" font-family="Times,serif" font-size="12.00" fill="#fff4cc">TAIL</text>
</g>
<!-- tail_label&#45;&gt;6 -->
<g id="edge23" class="edge">
<title>tail_label&#45;&gt;6</title>
<path fill="none" stroke="#fff4cc" d="M1027.12,-73.36C1027.12,-73.36 1027.12,-210.57 1027.12,-210.57"/>
<polygon fill="#fff4cc" stroke="#fff4cc" points="1024.15,-210.57 1027.12,-219.07 1030.1,-210.57 1024.15,-210.57"/>
</g>
<!-- free_label -->
<g id="node14" class="node">
<title>free_label</title>
<polygon fill="#879eac" stroke="#fff4cc" points="1217.11,-110 1163.11,-110 1163.11,-74 1217.11,-74 1217.11,-110"/>
<text xml:space="preserve" text-anchor="middle" x="1190.11" y="-88.4" font-family="Times,serif" font-size="12.00" fill="#fff4cc">FREE</text>
</g>
<!-- free_label&#45;&gt;7 -->
<g id="edge24" class="edge">
<title>free_label&#45;&gt;7</title>
<path fill="none" stroke="#fff4cc" d="M1190.12,-110.27C1190.12,-110.27 1190.12,-210.62 1190.12,-210.62"/>
<polygon fill="#fff4cc" stroke="#fff4cc" points="1187.15,-210.62 1190.12,-219.12 1193.1,-210.62 1187.15,-210.62"/>
</g>
</g>
</svg>
