<?xml version="1.0" encoding="UTF-8" standalone="no"?>
<!DOCTYPE svg PUBLIC "-//W3C//DTD SVG 1.1//EN"
 "http://www.w3.org/Graphics/SVG/1.1/DTD/svg11.dtd">
<!-- Generated by graphviz version 14.0.2 (20251019.1705)
 -->
<!-- Title: G Pages: 1 -->
<svg width="1701pt" height="99pt"
 viewBox="0.00 0.00 1701.00 99.00" xmlns="http://www.w3.org/2000/svg" xmlns:xlink="http://www.w3.org/1999/xlink">
<g id="graph0" class="graph" transform="scale(1 1) rotate(0) translate(4 95)">
<title>G</title>
<polygon fill="#1e2a36" stroke="none" points="-4,4 -4,-95 1697.01,-95 1697.01,4 -4,4"/>
<!-- info -->
<g id="node1" class="node">
<title>info</title>
<polygon fill="#4a5257" stroke="#fff4cc" stroke-width="2" points="0,-0.5 0,-66.5 64.32,-66.5 64.32,-0.5 0,-0.5"/>
<text xml:space="preserve" text-anchor="middle" x="32.16" y="-51.3" font-family="Times,serif" font-size="14.00">head = 1</text>
<polyline fill="none" stroke="#fff4cc" stroke-width="2" points="0,-44.5 64.32,-44.5"/>
<text xml:space="preserve" text-anchor="middle" x="32.16" y="-29.3" font-family="Times,serif" font-size="14.00">tail = 6</text>
<polyline fill="none" stroke="#fff4cc" stroke-width="2" points="0,-22.5 64.32,-22.5"/>
<text xml:space="preserve" text-anchor="middle" x="32.16" y="-7.3" font-family="Times,serif" font-size="14.00">free = 8</text>
</g>
<!-- 1 -->
<g id="node2" class="node">
<title>1</title>
<polygon fill="#82898f" stroke="#ffffff" stroke-width="2" points="100.32,-0.5 100.32,-66.5 225.09,-66.5 225.09,-0.5 100.32,-0.5"/>
<text xml:space="preserve" text-anchor="middle" x="162.71" y="-51.3" font-family="Times,serif" font-size="14.00">phys idx = 1</text>
<polyline fill="none" stroke="#ffffff" stroke-width="2" points="100.32,-44.5 225.09,-44.5"/>
<text xml:space="preserve" text-anchor="middle" x="162.71" y="-29.3" font-family="Times,serif" font-size="14.00">elem = 10.00</text>
<polyline fill="none" stroke="#ffffff" stroke-width="2" points="100.32,-22.5 225.09,-22.5"/>
<text xml:space="preserve" text-anchor="middle" x="131.71" y="-7.3" font-family="Times,serif" font-size="14.00">prev = 0</text>
<polyline fill="none" stroke="#ffffff" stroke-width="2" points="163.09,-0.5 163.09,-22.5"/>
<text xml:space="preserve" text-anchor="middle" x="194.09" y="-7.3" font-family="Times,serif" font-size="14.00">next = 2</text>
</g>
<!-- info&#45;&gt;1 -->
<!-- 2 -->
<g id="node3" class="node">
<title>2</title>
<polygon fill="#82898f" stroke="#ffffff" stroke-width="2" points="261.09,-0.5 261.09,-66.5 385.86,-66.5 385.86,-0.5 261.09,-0.5"/>
<text xml:space="preserve" text-anchor="middle" x="323.48" y="-51.3" font-family="Times,serif" font-size="14.00">phys idx = 2</text>
<polyline fill="none" stroke="#ffffff" stroke-width="2" points="261.09,-44.5 385.86,-44.5"/>
<text xml:space="preserve" text-anchor="middle" x="323.48" y="-29.3" font-family="Times,serif" font-size="14.00">elem = 20.00</text>
<polyline fill="none" stroke="#ffffff" stroke-width="2" points="261.09,-22.5 385.86,-22.5"/>
<text xml:space="preserve" text-anchor="middle" x="292.48" y="-7.3" font-family="Times,serif" font-size="14.00">prev = 1</text>
<polyline fill="none" stroke="#ffffff" stroke-width="2" points="323.87,-0.5 323.87,-22.5"/>
<text xml:space="preserve" text-anchor="middle" x="354.86" y="-7.3" font-family="Times,serif" font-size="14.00">next = 3</text>
</g>
<!-- 1&#45;&gt;2 -->
<!-- 1&#45;&gt;2 -->
<g id="edge11" class="edge">
<title>1&#45;&gt;2</title>
<path fill="none" stroke="#d4a798" d="M225.79,-44.67C225.79,-44.67 250.3,-44.67 250.3,-44.67"/>
<polygon fill="#d4a798" stroke="#d4a798" points="250.3,-47.64 258.8,-44.67 250.3,-41.69 250.3,-47.64"/>
</g>
<!-- 3 -->
<g id="node4" class="node">
<title>3</title>
<polygon fill="#82898f" stroke="#ffffff" stroke-width="2" points="421.86,-0.5 421.86,-66.5 546.63,-66.5 546.63,-0.5 421.86,-0.5"/>
<text xml:space="preserve" text-anchor="middle" x="484.25" y="-51.3" font-family="Times,serif" font-size="14.00">phys idx = 3</text>
<polyline fill="none" stroke="#ffffff" stroke-width="2" points="421.86,-44.5 546.63,-44.5"/>
<text xml:space="preserve" text-anchor="middle" x="484.25" y="-29.3" font-family="Times,serif" font-size="14.00">elem = 30.00</text>
<polyline fill="none" stroke="#ffffff" stroke-width="2" points="421.86,-22.5 546.63,-22.5"/>
<text xml:space="preserve" text-anchor="middle" x="453.25" y="-7.3" font-family="Times,serif" font-size="14.00">prev = 2</text>
<polyline fill="none" stroke="#ffffff" stroke-width="2" points="484.64,-0.5 484.64,-22.5"/>
<text xml:space="preserve" text-anchor="middle" x="515.64" y="-7.3" font-family="Times,serif" font-size="14.00">next = 7</text>
</g>
<!-- 2&#45;&gt;3 -->
<!-- 2&#45;&gt;3 -->
<g id="edge12" class="edge">
<title>2&#45;&gt;3</title>
<path fill="none" stroke="#d4a798" d="M386.56,-44.67C386.56,-44.67 411.07,-44.67 411.07,-44.67"/>
<polygon fill="#d4a798" stroke="#d4a798" points="411.07,-47.64 419.57,-44.67 411.07,-41.69 411.07,-47.64"/>
</g>
<!-- 4 -->
<g id="node5" class="node">
<title>4</title>
<polygon fill="#82898f" stroke="#ffffff" stroke-width="2" points="582.63,-0.5 582.63,-66.5 707.41,-66.5 707.41,-0.5 582.63,-0.5"/>
<text xml:space="preserve" text-anchor="middle" x="645.02" y="-51.3" font-family="Times,serif" font-size="14.00">phys idx = 4</text>
<polyline fill="none" stroke="#ffffff" stroke-width="2" points="582.63,-44.5 707.41,-44.5"/>
<text xml:space="preserve" text-anchor="middle" x="645.02" y="-29.3" font-family="Times,serif" font-size="14.00">elem = 40.00</text>
<polyline fill="none" stroke="#ffffff" stroke-width="2" points="582.63,-22.5 707.41,-22.5"/>
<text xml:space="preserve" text-anchor="middle" x="614.02" y="-7.3" font-family="Times,serif" font-size="14.00">prev = 7</text>
<polyline fill="none" stroke="#ffffff" stroke-width="2" points="645.41,-0.5 645.41,-22.5"/>
<text xml:space="preserve" text-anchor="middle" x="676.41" y="-7.3" font-family="Times,serif" font-size="14.00">next = 5</text>
</g>
<!-- 3&#45;&gt;4 -->
<!-- 7 -->
<g id="node8" class="node">
<title>7</title>
<polygon fill="#82898f" stroke="#ffffff" stroke-width="2" points="1064.95,-0.5 1064.95,-66.5 1189.72,-66.5 1189.72,-0.5 1064.95,-0.5"/>
<text xml:space="preserve" text-anchor="middle" x="1127.33" y="-51.3" font-family="Times,serif" font-size="14.00">phys idx = 7</text>
<polyline fill="none" stroke="#ffffff" stroke-width="2" points="1064.95,-44.5 1189.72,-44.5"/>
<text xml:space="preserve" text-anchor="middle" x="1127.33" y="-29.3" font-family="Times,serif" font-size="14.00">elem = 35.00</text>
<polyline fill="none" stroke="#ffffff" stroke-width="2" points="1064.95,-22.5 1189.72,-22.5"/>
<text xml:space="preserve" text-anchor="middle" x="1096.33" y="-7.3" font-family="Times,serif" font-size="14.00">prev = 3</text>
<polyline fill="none" stroke="#ffffff" stroke-width="2" points="1127.72,-0.5 1127.72,-22.5"/>
<text xml:space="preserve" text-anchor="middle" x="1158.72" y="-7.3" font-family="Times,serif" font-size="14.00">next = 4</text>
</g>
<!-- 3&#45;&gt;7 -->
<g id="edge13" class="edge">
<title>3&#45;&gt;7</title>
<path fill="none" stroke="#d4a798" d="M484.01,-67.28C484.01,-79.8 484.01,-91 484.01,-91 484.01,-91 1107.01,-91 1107.01,-91 1107.01,-91 1107.01,-77.29 1107.01,-77.29"/>
<polygon fill="#d4a798" stroke="#d4a798" points="1109.99,-77.29 1107.01,-68.79 1104.04,-77.29 1109.99,-77.29"/>
</g>
<!-- 5 -->
<g id="node6" class="node">
<title>5</title>
<polygon fill="#82898f" stroke="#ffffff" stroke-width="2" points="743.41,-0.5 743.41,-66.5 868.18,-66.5 868.18,-0.5 743.41,-0.5"/>
<text xml:space="preserve" text-anchor="middle" x="805.79" y="-51.3" font-family="Times,serif" font-size="14.00">phys idx = 5</text>
<polyline fill="none" stroke="#ffffff" stroke-width="2" points="743.41,-44.5 868.18,-44.5"/>
<text xml:space="preserve" text-anchor="middle" x="805.79" y="-29.3" font-family="Times,serif" font-size="14.00">elem = 50.00</text>
<polyline fill="none" stroke="#ffffff" stroke-width="2" points="743.41,-22.5 868.18,-22.5"/>
<text xml:space="preserve" text-anchor="middle" x="774.79" y="-7.3" font-family="Times,serif" font-size="14.00">prev = 4</text>
<polyline fill="none" stroke="#ffffff" stroke-width="2" points="806.18,-0.5 806.18,-22.5"/>
<text xml:space="preserve" text-anchor="middle" x="837.18" y="-7.3" font-family="Times,serif" font-size="14.00">next = 6</text>
</g>
<!-- 4&#45;&gt;5 -->
<!-- 4&#45;&gt;5 -->
<g id="edge14" class="edge">
<title>4&#45;&gt;5</title>
<path fill="none" stroke="#d4a798" d="M708.1,-44.67C708.1,-44.67 732.62,-44.67 732.62,-44.67"/>
<polygon fill="#d4a798" stroke="#d4a798" points="732.62,-47.64 741.12,-44.67 732.62,-41.69 732.62,-47.64"/>
</g>
<!-- 6 -->
<g id="node7" class="node">
<title>6</title>
<polygon fill="#82898f" stroke="#ffffff" stroke-width="2" points="904.18,-0.5 904.18,-66.5 1028.95,-66.5 1028.95,-0.5 904.18,-0.5"/>
<text xml:space="preserve" text-anchor="middle" x="966.56" y="-51.3" font-family="Times,serif" font-size="14.00">phys idx = 6</text>
<polyline fill="none" stroke="#ffffff" stroke-width="2" points="904.18,-44.5 1028.95,-44.5"/>
<text xml:space="preserve" text-anchor="middle" x="966.56" y="-29.3" font-family="Times,serif" font-size="14.00">elem = 60.00</text>
<polyline fill="none" stroke="#ffffff" stroke-width="2" points="904.18,-22.5 1028.95,-22.5"/>
<text xml:space="preserve" text-anchor="middle" x="935.56" y="-7.3" font-family="Times,serif" font-size="14.00">prev = 5</text>
<polyline fill="none" stroke="#ffffff" stroke-width="2" points="966.95,-0.5 966.95,-22.5"/>
<text xml:space="preserve" text-anchor="middle" x="997.95" y="-7.3" font-family="Times,serif" font-size="14.00">next = 0</text>
</g>
<!-- 5&#45;&gt;6 -->
<!-- 5&#45;&gt;6 -->
<g id="edge15" class="edge">
<title>5&#45;&gt;6</title>
<path fill="none" stroke="#d4a798" d="M868.87,-44.67C868.87,-44.67 893.39,-44.67 893.39,-44.67"/>
<polygon fill="#d4a798" stroke="#d4a798" points="893.39,-47.64 901.89,-44.67 893.39,-41.69 893.39,-47.64"/>
</g>
<!-- 6&#45;&gt;7 -->
<!-- 7&#45;&gt;4 -->
<g id="edge16" class="edge">
<title>7&#45;&gt;4</title>
<path fill="none" stroke="#d4a798" d="M1148.01,-67.05C1148.01,-73.87 1148.01,-79 1148.01,-79 1148.01,-79 645.01,-79 645.01,-79 645.01,-79 645.01,-77.06 645.01,-77.06"/>
<polygon fill="#d4a798" stroke="#d4a798" points="647.99,-77.06 645.01,-68.56 642.04,-77.06 647.99,-77.06"/>
</g>
<!-- 8 -->
<g id="node9" class="node">
<title>8</title>
<polygon fill="#5c646b" stroke="#ffe766" stroke-width="2" points="1225.72,-0.5 1225.72,-66.5 1355.15,-66.5 1355.15,-0.5 1225.72,-0.5"/>
<text xml:space="preserve" text-anchor="middle" x="1290.43" y="-51.3" font-family="Times,serif" font-size="14.00">phys idx = 8</text>
<polyline fill="none" stroke="#ffe766" stroke-width="2" points="1225.72,-44.5 1355.15,-44.5"/>
<text xml:space="preserve" text-anchor="middle" x="1290.43" y="-29.3" font-family="Times,serif" font-size="14.00">elem = PZN</text>
<polyline fill="none" stroke="#ffe766" stroke-width="2" points="1225.72,-22.5 1355.15,-22.5"/>
<text xml:space="preserve" text-anchor="middle" x="1259.43" y="-7.3" font-family="Times,serif" font-size="14.00">prev = &#45;1</text>
<polyline fill="none" stroke="#ffe766" stroke-width="2" points="1293.15,-0.5 1293.15,-22.5"/>
<text xml:space="preserve" text-anchor="middle" x="1324.15" y="-7.3" font-family="Times,serif" font-size="14.00">next = 9</text>
</g>
<!-- 7&#45;&gt;8 -->
<!-- 9 -->
<g id="node10" class="node">
<title>9</title>
<polygon fill="#5c646b" stroke="#ffe766" stroke-width="2" points="1391.15,-0.5 1391.15,-66.5 1527.58,-66.5 1527.58,-0.5 1391.15,-0.5"/>
<text xml:space="preserve" text-anchor="middle" x="1459.37" y="-51.3" font-family="Times,serif" font-size="14.00">phys idx = 9</text>
<polyline fill="none" stroke="#ffe766" stroke-width="2" points="1391.15,-44.5 1527.58,-44.5"/>
<text xml:space="preserve" text-anchor="middle" x="1459.37" y="-29.3" font-family="Times,serif" font-size="14.00">elem = PZN</text>
<polyline fill="none" stroke="#ffe766" stroke-width="2" points="1391.15,-22.5 1527.58,-22.5"/>
<text xml:space="preserve" text-anchor="middle" x="1424.87" y="-7.3" font-family="Times,serif" font-size="14.00">prev = &#45;1</text>
<polyline fill="none" stroke="#ffe766" stroke-width="2" points="1458.58,-0.5 1458.58,-22.5"/>
<text xml:space="preserve" text-anchor="middle" x="1493.08" y="-7.3" font-family="Times,serif" font-size="14.00">next = 10</text>
</g>
<!-- 8&#45;&gt;9 -->
<!-- 10 -->
<g id="node11" class="node">
<title>10</title>
<polygon fill="#5c646b" stroke="#ffe766" stroke-width="2" points="1563.58,-0.5 1563.58,-66.5 1693.01,-66.5 1693.01,-0.5 1563.58,-0.5"/>
<text xml:space="preserve" text-anchor="middle" x="1628.3" y="-51.3" font-family="Times,serif" font-size="14.00">phys idx = 10</text>
<polyline fill="none" stroke="#ffe766" stroke-width="2" points="1563.58,-44.5 1693.01,-44.5"/>
<text xml:space="preserve" text-anchor="middle" x="1628.3" y="-29.3" font-family="Times,serif" font-size="14.00">elem = PZN</text>
<polyline fill="none" stroke="#ffe766" stroke-width="2" points="1563.58,-22.5 1693.01,-22.5"/>
<text xml:space="preserve" text-anchor="middle" x="1597.3" y="-7.3" font-family="Times,serif" font-size="14.00">prev = &#45;1</text>
<polyline fill="none" stroke="#ffe766" stroke-width="2" points="1631.02,-0.5 1631.02,-22.5"/>
<text xml:space="preserve" text-anchor="middle" x="1662.02" y="-7.3" font-family="Times,serif" font-size="14.00">next = 0</text>
</g>
<!-- 9&#45;&gt;10 -->
</g>
</svg>
