<?xml version="1.0" encoding="UTF-8" standalone="no"?>
<!DOCTYPE svg PUBLIC "-//W3C//DTD SVG 1.1//EN"
 "http://www.w3.org/Graphics/SVG/1.1/DTD/svg11.dtd">
<!-- Generated by graphviz version 14.0.2 (20251019.1705)
 -->
<!-- Title: G Pages: 1 -->
<svg width="1764pt" height="175pt"
 viewBox="0.00 0.00 1764.00 175.00" xmlns="http://www.w3.org/2000/svg" xmlns:xlink="http://www.w3.org/1999/xlink">
<g id="graph0" class="graph" transform="scale(1 1) rotate(0) translate(4 170.5)">
<title>G</title>
<polygon fill="#fffafa" stroke="none" points="-4,4 -4,-170.5 1759.8,-170.5 1759.8,4 -4,4"/>
<!-- 0 -->
<g id="node1" class="node">
<title>0</title>
<path fill="#cd5c5c" stroke="#000000" d="M12,-27.5C12,-27.5 119.77,-27.5 119.77,-27.5 125.77,-27.5 131.77,-33.5 131.77,-39.5 131.77,-39.5 131.77,-81.5 131.77,-81.5 131.77,-87.5 125.77,-93.5 119.77,-93.5 119.77,-93.5 12,-93.5 12,-93.5 6,-93.5 0,-87.5 0,-81.5 0,-81.5 0,-39.5 0,-39.5 0,-33.5 6,-27.5 12,-27.5"/>
<text xml:space="preserve" text-anchor="middle" x="65.89" y="-78.3" font-family="Times,serif" font-size="14.00">phys idx = 0</text>
<polyline fill="none" stroke="#000000" points="0,-71.5 131.77,-71.5"/>
<text xml:space="preserve" text-anchor="middle" x="65.89" y="-56.3" font-family="Times,serif" font-size="14.00">elem = &#45;6666.00</text>
<polyline fill="none" stroke="#000000" points="0,-49.5 131.77,-49.5"/>
<text xml:space="preserve" text-anchor="middle" x="34.89" y="-34.3" font-family="Times,serif" font-size="14.00">prev = 10</text>
<polyline fill="none" stroke="#000000" points="69.77,-27.5 69.77,-49.5"/>
<text xml:space="preserve" text-anchor="middle" x="100.77" y="-34.3" font-family="Times,serif" font-size="14.00">next = 1</text>
</g>
<!-- 1 -->
<g id="node2" class="node">
<title>1</title>
<path fill="#98fb98" stroke="#000000" d="M179.77,-27.5C179.77,-27.5 280.54,-27.5 280.54,-27.5 286.54,-27.5 292.54,-33.5 292.54,-39.5 292.54,-39.5 292.54,-81.5 292.54,-81.5 292.54,-87.5 286.54,-93.5 280.54,-93.5 280.54,-93.5 179.77,-93.5 179.77,-93.5 173.77,-93.5 167.77,-87.5 167.77,-81.5 167.77,-81.5 167.77,-39.5 167.77,-39.5 167.77,-33.5 173.77,-27.5 179.77,-27.5"/>
<text xml:space="preserve" text-anchor="middle" x="230.16" y="-78.3" font-family="Times,serif" font-size="14.00">phys idx = 1</text>
<polyline fill="none" stroke="#000000" points="167.77,-71.5 292.54,-71.5"/>
<text xml:space="preserve" text-anchor="middle" x="230.16" y="-56.3" font-family="Times,serif" font-size="14.00">elem = 11.00</text>
<polyline fill="none" stroke="#000000" points="167.77,-49.5 292.54,-49.5"/>
<text xml:space="preserve" text-anchor="middle" x="199.16" y="-34.3" font-family="Times,serif" font-size="14.00">prev = 0</text>
<polyline fill="none" stroke="#000000" points="230.54,-27.5 230.54,-49.5"/>
<text xml:space="preserve" text-anchor="middle" x="261.54" y="-34.3" font-family="Times,serif" font-size="14.00">next = 2</text>
</g>
<!-- 0&#45;&gt;1 -->
<!-- 0&#45;&gt;1 -->
<g id="edge11" class="edge">
<title>0&#45;&gt;1</title>
<path fill="none" stroke="#6a7075" d="M142.24,-71.67C142.24,-71.67 157.28,-71.67 157.28,-71.67"/>
<polygon fill="#6a7075" stroke="#6a7075" points="142.24,-68.69 133.74,-71.67 142.24,-74.64 142.24,-68.69"/>
<polygon fill="#6a7075" stroke="#6a7075" points="157.28,-74.64 165.78,-71.67 157.28,-68.69 157.28,-74.64"/>
</g>
<!-- 2 -->
<g id="node3" class="node">
<title>2</title>
<path fill="#98fb98" stroke="#000000" d="M340.54,-27.5C340.54,-27.5 441.31,-27.5 441.31,-27.5 447.31,-27.5 453.31,-33.5 453.31,-39.5 453.31,-39.5 453.31,-81.5 453.31,-81.5 453.31,-87.5 447.31,-93.5 441.31,-93.5 441.31,-93.5 340.54,-93.5 340.54,-93.5 334.54,-93.5 328.54,-87.5 328.54,-81.5 328.54,-81.5 328.54,-39.5 328.54,-39.5 328.54,-33.5 334.54,-27.5 340.54,-27.5"/>
<text xml:space="preserve" text-anchor="middle" x="390.93" y="-78.3" font-family="Times,serif" font-size="14.00">phys idx = 2</text>
<polyline fill="none" stroke="#000000" points="328.54,-71.5 453.31,-71.5"/>
<text xml:space="preserve" text-anchor="middle" x="390.93" y="-56.3" font-family="Times,serif" font-size="14.00">elem = 20.00</text>
<polyline fill="none" stroke="#000000" points="328.54,-49.5 453.31,-49.5"/>
<text xml:space="preserve" text-anchor="middle" x="359.93" y="-34.3" font-family="Times,serif" font-size="14.00">prev = 1</text>
<polyline fill="none" stroke="#000000" points="391.31,-27.5 391.31,-49.5"/>
<text xml:space="preserve" text-anchor="middle" x="422.31" y="-34.3" font-family="Times,serif" font-size="14.00">next = 3</text>
</g>
<!-- 1&#45;&gt;2 -->
<!-- 1&#45;&gt;2 -->
<g id="edge12" class="edge">
<title>1&#45;&gt;2</title>
<path fill="none" stroke="#6a7075" d="M302.79,-71.67C302.79,-71.67 318.2,-71.67 318.2,-71.67"/>
<polygon fill="#6a7075" stroke="#6a7075" points="302.79,-68.69 294.29,-71.67 302.79,-74.64 302.79,-68.69"/>
<polygon fill="#6a7075" stroke="#6a7075" points="318.2,-74.64 326.7,-71.67 318.2,-68.69 318.2,-74.64"/>
</g>
<!-- 3 -->
<g id="node4" class="node">
<title>3</title>
<path fill="#98fb98" stroke="#000000" d="M501.31,-27.5C501.31,-27.5 602.08,-27.5 602.08,-27.5 608.08,-27.5 614.08,-33.5 614.08,-39.5 614.08,-39.5 614.08,-81.5 614.08,-81.5 614.08,-87.5 608.08,-93.5 602.08,-93.5 602.08,-93.5 501.31,-93.5 501.31,-93.5 495.31,-93.5 489.31,-87.5 489.31,-81.5 489.31,-81.5 489.31,-39.5 489.31,-39.5 489.31,-33.5 495.31,-27.5 501.31,-27.5"/>
<text xml:space="preserve" text-anchor="middle" x="551.7" y="-78.3" font-family="Times,serif" font-size="14.00">phys idx = 3</text>
<polyline fill="none" stroke="#000000" points="489.31,-71.5 614.08,-71.5"/>
<text xml:space="preserve" text-anchor="middle" x="551.7" y="-56.3" font-family="Times,serif" font-size="14.00">elem = 30.00</text>
<polyline fill="none" stroke="#000000" points="489.31,-49.5 614.08,-49.5"/>
<text xml:space="preserve" text-anchor="middle" x="520.7" y="-34.3" font-family="Times,serif" font-size="14.00">prev = 2</text>
<polyline fill="none" stroke="#000000" points="552.08,-27.5 552.08,-49.5"/>
<text xml:space="preserve" text-anchor="middle" x="583.08" y="-34.3" font-family="Times,serif" font-size="14.00">next = 9</text>
</g>
<!-- 2&#45;&gt;3 -->
<!-- 2&#45;&gt;3 -->
<g id="edge13" class="edge">
<title>2&#45;&gt;3</title>
<path fill="none" stroke="#6a7075" d="M463.56,-49.33C463.56,-49.33 478.97,-49.33 478.97,-49.33"/>
<polygon fill="#6a7075" stroke="#6a7075" points="463.56,-46.36 455.06,-49.33 463.56,-52.31 463.56,-46.36"/>
<polygon fill="#6a7075" stroke="#6a7075" points="478.97,-52.31 487.47,-49.33 478.97,-46.36 478.97,-52.31"/>
</g>
<!-- 5 -->
<g id="node5" class="node">
<title>5</title>
<path fill="#98fb98" stroke="#000000" d="M662.08,-27.5C662.08,-27.5 762.85,-27.5 762.85,-27.5 768.85,-27.5 774.85,-33.5 774.85,-39.5 774.85,-39.5 774.85,-81.5 774.85,-81.5 774.85,-87.5 768.85,-93.5 762.85,-93.5 762.85,-93.5 662.08,-93.5 662.08,-93.5 656.08,-93.5 650.08,-87.5 650.08,-81.5 650.08,-81.5 650.08,-39.5 650.08,-39.5 650.08,-33.5 656.08,-27.5 662.08,-27.5"/>
<text xml:space="preserve" text-anchor="middle" x="712.47" y="-78.3" font-family="Times,serif" font-size="14.00">phys idx = 5</text>
<polyline fill="none" stroke="#000000" points="650.08,-71.5 774.85,-71.5"/>
<text xml:space="preserve" text-anchor="middle" x="712.47" y="-56.3" font-family="Times,serif" font-size="14.00">elem = 50.00</text>
<polyline fill="none" stroke="#000000" points="650.08,-49.5 774.85,-49.5"/>
<text xml:space="preserve" text-anchor="middle" x="681.47" y="-34.3" font-family="Times,serif" font-size="14.00">prev = 8</text>
<polyline fill="none" stroke="#000000" points="712.85,-27.5 712.85,-49.5"/>
<text xml:space="preserve" text-anchor="middle" x="743.85" y="-34.3" font-family="Times,serif" font-size="14.00">next = 6</text>
</g>
<!-- 3&#45;&gt;5 -->
<!-- 9 -->
<g id="node8" class="node">
<title>9</title>
<path fill="#98fb98" stroke="#000000" d="M1151.39,-27.5C1151.39,-27.5 1252.16,-27.5 1252.16,-27.5 1258.16,-27.5 1264.16,-33.5 1264.16,-39.5 1264.16,-39.5 1264.16,-81.5 1264.16,-81.5 1264.16,-87.5 1258.16,-93.5 1252.16,-93.5 1252.16,-93.5 1151.39,-93.5 1151.39,-93.5 1145.39,-93.5 1139.39,-87.5 1139.39,-81.5 1139.39,-81.5 1139.39,-39.5 1139.39,-39.5 1139.39,-33.5 1145.39,-27.5 1151.39,-27.5"/>
<text xml:space="preserve" text-anchor="middle" x="1201.78" y="-78.3" font-family="Times,serif" font-size="14.00">phys idx = 9</text>
<polyline fill="none" stroke="#000000" points="1139.39,-71.5 1264.16,-71.5"/>
<text xml:space="preserve" text-anchor="middle" x="1201.78" y="-56.3" font-family="Times,serif" font-size="14.00">elem = 32.00</text>
<polyline fill="none" stroke="#000000" points="1139.39,-49.5 1264.16,-49.5"/>
<text xml:space="preserve" text-anchor="middle" x="1170.78" y="-34.3" font-family="Times,serif" font-size="14.00">prev = 3</text>
<polyline fill="none" stroke="#000000" points="1202.17,-27.5 1202.17,-49.5"/>
<text xml:space="preserve" text-anchor="middle" x="1233.16" y="-34.3" font-family="Times,serif" font-size="14.00">next = 8</text>
</g>
<!-- 3&#45;&gt;9 -->
<g id="edge14" class="edge">
<title>3&#45;&gt;9</title>
<path fill="none" stroke="#6a7075" d="M551.8,-17C551.8,-17 551.8,-9 551.8,-9 551.8,-9 1201.8,-9 1201.8,-9 1201.8,-9 1201.8,-17 1201.8,-17"/>
<polygon fill="#6a7075" stroke="#6a7075" points="548.82,-17 551.8,-25.5 554.77,-17 548.82,-17"/>
<polygon fill="#6a7075" stroke="#6a7075" points="1198.82,-17 1201.8,-25.5 1204.77,-17 1198.82,-17"/>
</g>
<!-- 6 -->
<g id="node6" class="node">
<title>6</title>
<path fill="#98fb98" stroke="#000000" d="M822.85,-27.5C822.85,-27.5 930.62,-27.5 930.62,-27.5 936.62,-27.5 942.62,-33.5 942.62,-39.5 942.62,-39.5 942.62,-81.5 942.62,-81.5 942.62,-87.5 936.62,-93.5 930.62,-93.5 930.62,-93.5 822.85,-93.5 822.85,-93.5 816.85,-93.5 810.85,-87.5 810.85,-81.5 810.85,-81.5 810.85,-39.5 810.85,-39.5 810.85,-33.5 816.85,-27.5 822.85,-27.5"/>
<text xml:space="preserve" text-anchor="middle" x="876.74" y="-78.3" font-family="Times,serif" font-size="14.00">phys idx = 6</text>
<polyline fill="none" stroke="#000000" points="810.85,-71.5 942.62,-71.5"/>
<text xml:space="preserve" text-anchor="middle" x="876.74" y="-56.3" font-family="Times,serif" font-size="14.00">elem = 66.00</text>
<polyline fill="none" stroke="#000000" points="810.85,-49.5 942.62,-49.5"/>
<text xml:space="preserve" text-anchor="middle" x="842.24" y="-34.3" font-family="Times,serif" font-size="14.00">prev = 5</text>
<polyline fill="none" stroke="#000000" points="873.62,-27.5 873.62,-49.5"/>
<text xml:space="preserve" text-anchor="middle" x="908.12" y="-34.3" font-family="Times,serif" font-size="14.00">next = 10</text>
</g>
<!-- 5&#45;&gt;6 -->
<!-- 5&#45;&gt;6 -->
<g id="edge16" class="edge">
<title>5&#45;&gt;6</title>
<path fill="none" stroke="#6a7075" d="M785.05,-71.67C785.05,-71.67 800.5,-71.67 800.5,-71.67"/>
<polygon fill="#6a7075" stroke="#6a7075" points="785.05,-68.69 776.55,-71.67 785.05,-74.64 785.05,-68.69"/>
<polygon fill="#6a7075" stroke="#6a7075" points="800.5,-74.64 809,-71.67 800.5,-68.69 800.5,-74.64"/>
</g>
<!-- 8 -->
<g id="node7" class="node">
<title>8</title>
<path fill="#98fb98" stroke="#000000" d="M990.62,-27.5C990.62,-27.5 1091.39,-27.5 1091.39,-27.5 1097.39,-27.5 1103.39,-33.5 1103.39,-39.5 1103.39,-39.5 1103.39,-81.5 1103.39,-81.5 1103.39,-87.5 1097.39,-93.5 1091.39,-93.5 1091.39,-93.5 990.62,-93.5 990.62,-93.5 984.62,-93.5 978.62,-87.5 978.62,-81.5 978.62,-81.5 978.62,-39.5 978.62,-39.5 978.62,-33.5 984.62,-27.5 990.62,-27.5"/>
<text xml:space="preserve" text-anchor="middle" x="1041.01" y="-78.3" font-family="Times,serif" font-size="14.00">phys idx = 8</text>
<polyline fill="none" stroke="#000000" points="978.62,-71.5 1103.39,-71.5"/>
<text xml:space="preserve" text-anchor="middle" x="1041.01" y="-56.3" font-family="Times,serif" font-size="14.00">elem = 36.00</text>
<polyline fill="none" stroke="#000000" points="978.62,-49.5 1103.39,-49.5"/>
<text xml:space="preserve" text-anchor="middle" x="1010.01" y="-34.3" font-family="Times,serif" font-size="14.00">prev = 9</text>
<polyline fill="none" stroke="#000000" points="1041.39,-27.5 1041.39,-49.5"/>
<text xml:space="preserve" text-anchor="middle" x="1072.39" y="-34.3" font-family="Times,serif" font-size="14.00">next = 5</text>
</g>
<!-- 6&#45;&gt;8 -->
<!-- 10 -->
<g id="node9" class="node">
<title>10</title>
<path fill="#98fb98" stroke="#000000" d="M1312.16,-27.5C1312.16,-27.5 1412.93,-27.5 1412.93,-27.5 1418.93,-27.5 1424.93,-33.5 1424.93,-39.5 1424.93,-39.5 1424.93,-81.5 1424.93,-81.5 1424.93,-87.5 1418.93,-93.5 1412.93,-93.5 1412.93,-93.5 1312.16,-93.5 1312.16,-93.5 1306.16,-93.5 1300.16,-87.5 1300.16,-81.5 1300.16,-81.5 1300.16,-39.5 1300.16,-39.5 1300.16,-33.5 1306.16,-27.5 1312.16,-27.5"/>
<text xml:space="preserve" text-anchor="middle" x="1362.55" y="-78.3" font-family="Times,serif" font-size="14.00">phys idx = 10</text>
<polyline fill="none" stroke="#000000" points="1300.16,-71.5 1424.93,-71.5"/>
<text xml:space="preserve" text-anchor="middle" x="1362.55" y="-56.3" font-family="Times,serif" font-size="14.00">elem = 70.00</text>
<polyline fill="none" stroke="#000000" points="1300.16,-49.5 1424.93,-49.5"/>
<text xml:space="preserve" text-anchor="middle" x="1331.55" y="-34.3" font-family="Times,serif" font-size="14.00">prev = 6</text>
<polyline fill="none" stroke="#000000" points="1362.94,-27.5 1362.94,-49.5"/>
<text xml:space="preserve" text-anchor="middle" x="1393.94" y="-34.3" font-family="Times,serif" font-size="14.00">next = 0</text>
</g>
<!-- 6&#45;&gt;10 -->
<g id="edge17" class="edge">
<title>6&#45;&gt;10</title>
<path fill="none" stroke="#6a7075" d="M876.8,-103.7C876.8,-103.7 876.8,-106.17 876.8,-106.17 876.8,-106.17 1323.8,-106.17 1323.8,-106.17 1323.8,-106.17 1323.8,-103.7 1323.8,-103.7"/>
<polygon fill="#6a7075" stroke="#6a7075" points="879.77,-103.7 876.8,-95.2 873.82,-103.7 879.77,-103.7"/>
<polygon fill="#6a7075" stroke="#6a7075" points="1326.77,-103.7 1323.8,-95.2 1320.82,-103.7 1326.77,-103.7"/>
</g>
<!-- 8&#45;&gt;5 -->
<g id="edge19" class="edge">
<title>8&#45;&gt;5</title>
<path fill="none" stroke="#6a7075" d="M1040.8,-18.9C1040.8,-18.9 1040.8,-18 1040.8,-18 1040.8,-18 712.8,-18 712.8,-18 712.8,-18 712.8,-18.9 712.8,-18.9"/>
<polygon fill="#6a7075" stroke="#6a7075" points="1037.82,-17 1040.8,-25.5 1043.77,-17 1037.82,-17"/>
<polygon fill="#6a7075" stroke="#6a7075" points="709.82,-17 712.8,-25.5 715.77,-17 709.82,-17"/>
</g>
<!-- 8&#45;&gt;9 -->
<!-- 9&#45;&gt;8 -->
<g id="edge20" class="edge">
<title>9&#45;&gt;8</title>
<path fill="none" stroke="#6a7075" d="M1129.15,-49.33C1129.15,-49.33 1113.73,-49.33 1113.73,-49.33"/>
<polygon fill="#6a7075" stroke="#6a7075" points="1129.15,-52.31 1137.65,-49.33 1129.15,-46.36 1129.15,-52.31"/>
<polygon fill="#6a7075" stroke="#6a7075" points="1113.73,-46.36 1105.23,-49.33 1113.73,-52.31 1113.73,-46.36"/>
</g>
<!-- 9&#45;&gt;10 -->
<!-- 10&#45;&gt;0 -->
<g id="edge21" class="edge">
<title>10&#45;&gt;0</title>
<path fill="none" stroke="#6a7075" d="M1311.8,-103.82C1311.8,-103.82 1311.8,-118.33 1311.8,-118.33 1311.8,-118.33 65.8,-118.33 65.8,-118.33 65.8,-118.33 65.8,-103.82 65.8,-103.82"/>
<polygon fill="#6a7075" stroke="#6a7075" points="1314.77,-103.82 1311.8,-95.32 1308.82,-103.82 1314.77,-103.82"/>
<polygon fill="#6a7075" stroke="#6a7075" points="68.77,-103.82 65.8,-95.32 62.82,-103.82 68.77,-103.82"/>
</g>
<!-- 4 -->
<g id="node10" class="node">
<title>4</title>
<path fill="#82898f" stroke="#000000" d="M1472.93,-27.5C1472.93,-27.5 1578.37,-27.5 1578.37,-27.5 1584.37,-27.5 1590.37,-33.5 1590.37,-39.5 1590.37,-39.5 1590.37,-81.5 1590.37,-81.5 1590.37,-87.5 1584.37,-93.5 1578.37,-93.5 1578.37,-93.5 1472.93,-93.5 1472.93,-93.5 1466.93,-93.5 1460.93,-87.5 1460.93,-81.5 1460.93,-81.5 1460.93,-39.5 1460.93,-39.5 1460.93,-33.5 1466.93,-27.5 1472.93,-27.5"/>
<text xml:space="preserve" text-anchor="middle" x="1525.65" y="-78.3" font-family="Times,serif" font-size="14.00">phys idx = 4</text>
<polyline fill="none" stroke="#000000" points="1460.93,-71.5 1590.37,-71.5"/>
<text xml:space="preserve" text-anchor="middle" x="1525.65" y="-56.3" font-family="Times,serif" font-size="14.00">elem = &#45;6666.00</text>
<polyline fill="none" stroke="#000000" points="1460.93,-49.5 1590.37,-49.5"/>
<text xml:space="preserve" text-anchor="middle" x="1494.65" y="-34.3" font-family="Times,serif" font-size="14.00">prev = &#45;1</text>
<polyline fill="none" stroke="#000000" points="1528.37,-27.5 1528.37,-49.5"/>
<text xml:space="preserve" text-anchor="middle" x="1559.37" y="-34.3" font-family="Times,serif" font-size="14.00">next = 0</text>
</g>
<!-- 10&#45;&gt;4 -->
<!-- 4&#45;&gt;0 -->
<g id="edge15" class="edge">
<title>4&#45;&gt;0</title>
<path fill="none" stroke="#44944a" d="M1525.8,-27.06C1525.8,-13.07 1525.8,0 1525.8,0 1525.8,0 65.8,0 65.8,0 65.8,0 65.8,-17.05 65.8,-17.05"/>
<polygon fill="#44944a" stroke="#44944a" points="62.82,-17.05 65.8,-25.55 68.77,-17.05 62.82,-17.05"/>
</g>
<!-- 7 -->
<g id="node11" class="node">
<title>7</title>
<path fill="#82898f" stroke="#000000" d="M1638.37,-27.5C1638.37,-27.5 1743.8,-27.5 1743.8,-27.5 1749.8,-27.5 1755.8,-33.5 1755.8,-39.5 1755.8,-39.5 1755.8,-81.5 1755.8,-81.5 1755.8,-87.5 1749.8,-93.5 1743.8,-93.5 1743.8,-93.5 1638.37,-93.5 1638.37,-93.5 1632.37,-93.5 1626.37,-87.5 1626.37,-81.5 1626.37,-81.5 1626.37,-39.5 1626.37,-39.5 1626.37,-33.5 1632.37,-27.5 1638.37,-27.5"/>
<text xml:space="preserve" text-anchor="middle" x="1691.08" y="-78.3" font-family="Times,serif" font-size="14.00">phys idx = 7</text>
<polyline fill="none" stroke="#000000" points="1626.37,-71.5 1755.8,-71.5"/>
<text xml:space="preserve" text-anchor="middle" x="1691.08" y="-56.3" font-family="Times,serif" font-size="14.00">elem = &#45;6666.00</text>
<polyline fill="none" stroke="#000000" points="1626.37,-49.5 1755.8,-49.5"/>
<text xml:space="preserve" text-anchor="middle" x="1660.08" y="-34.3" font-family="Times,serif" font-size="14.00">prev = &#45;1</text>
<polyline fill="none" stroke="#000000" points="1693.8,-27.5 1693.8,-49.5"/>
<text xml:space="preserve" text-anchor="middle" x="1724.8" y="-34.3" font-family="Times,serif" font-size="14.00">next = 4</text>
</g>
<!-- 4&#45;&gt;7 -->
<!-- 7&#45;&gt;4 -->
<g id="edge18" class="edge">
<title>7&#45;&gt;4</title>
<path fill="none" stroke="#44944a" d="M1626.17,-71.67C1626.17,-71.67 1600.66,-71.67 1600.66,-71.67"/>
<polygon fill="#44944a" stroke="#44944a" points="1600.66,-68.69 1592.16,-71.67 1600.66,-74.64 1600.66,-68.69"/>
</g>
<!-- head_label -->
<g id="node12" class="node">
<title>head_label</title>
<polygon fill="#879eac" stroke="#fff4cc" points="257.16,-166.5 203.16,-166.5 203.16,-130.5 257.16,-130.5 257.16,-166.5"/>
<text xml:space="preserve" text-anchor="middle" x="230.16" y="-144.9" font-family="Times,serif" font-size="12.00" fill="#fff4cc">HEAD</text>
</g>
<!-- head_label&#45;&gt;1 -->
<g id="edge22" class="edge">
<title>head_label&#45;&gt;1</title>
<path fill="none" stroke="#fff4cc" d="M229.8,-130.27C229.8,-130.27 229.8,-103.66 229.8,-103.66"/>
<polygon fill="#fff4cc" stroke="#fff4cc" points="232.77,-103.66 229.8,-95.16 226.82,-103.66 232.77,-103.66"/>
</g>
<!-- tail_label -->
<g id="node13" class="node">
<title>tail_label</title>
<polygon fill="#879eac" stroke="#fff4cc" points="1389.55,-166.5 1335.55,-166.5 1335.55,-130.5 1389.55,-130.5 1389.55,-166.5"/>
<text xml:space="preserve" text-anchor="middle" x="1362.55" y="-144.9" font-family="Times,serif" font-size="12.00" fill="#fff4cc">TAIL</text>
</g>
<!-- tail_label&#45;&gt;10 -->
<g id="edge23" class="edge">
<title>tail_label&#45;&gt;10</title>
<path fill="none" stroke="#fff4cc" d="M1362.8,-130.27C1362.8,-130.27 1362.8,-103.66 1362.8,-103.66"/>
<polygon fill="#fff4cc" stroke="#fff4cc" points="1365.77,-103.66 1362.8,-95.16 1359.82,-103.66 1365.77,-103.66"/>
</g>
<!-- free_label -->
<g id="node14" class="node">
<title>free_label</title>
<polygon fill="#879eac" stroke="#fff4cc" points="1718.08,-166.5 1664.08,-166.5 1664.08,-130.5 1718.08,-130.5 1718.08,-166.5"/>
<text xml:space="preserve" text-anchor="middle" x="1691.08" y="-144.9" font-family="Times,serif" font-size="12.00" fill="#fff4cc">FREE</text>
</g>
<!-- free_label&#45;&gt;7 -->
<g id="edge24" class="edge">
<title>free_label&#45;&gt;7</title>
<path fill="none" stroke="#fff4cc" d="M1690.8,-130.27C1690.8,-130.27 1690.8,-103.66 1690.8,-103.66"/>
<polygon fill="#fff4cc" stroke="#fff4cc" points="1693.77,-103.66 1690.8,-95.16 1687.82,-103.66 1693.77,-103.66"/>
</g>
</g>
</svg>
