<?xml version="1.0" encoding="UTF-8" standalone="no"?>
<!DOCTYPE svg PUBLIC "-//W3C//DTD SVG 1.1//EN"
 "http://www.w3.org/Graphics/SVG/1.1/DTD/svg11.dtd">
<!-- Generated by graphviz version 14.0.2 (20251019.1705)
 -->
<!-- Title: G Pages: 1 -->
<svg width="869pt" height="250pt"
 viewBox="0.00 0.00 869.00 250.00" xmlns="http://www.w3.org/2000/svg" xmlns:xlink="http://www.w3.org/1999/xlink">
<g id="graph0" class="graph" transform="scale(1 1) rotate(0) translate(4 245.91)">
<title>G</title>
<polygon fill="#fffafa" stroke="none" points="-4,4 -4,-245.91 864.51,-245.91 864.51,4 -4,4"/>
<!-- 0 -->
<g id="node1" class="node">
<title>0</title>
<path fill="#cd5c5c" stroke="#000000" d="M12,-106.5C12,-106.5 112.77,-106.5 112.77,-106.5 118.77,-106.5 124.77,-112.5 124.77,-118.5 124.77,-118.5 124.77,-160.5 124.77,-160.5 124.77,-166.5 118.77,-172.5 112.77,-172.5 112.77,-172.5 12,-172.5 12,-172.5 6,-172.5 0,-166.5 0,-160.5 0,-160.5 0,-118.5 0,-118.5 0,-112.5 6,-106.5 12,-106.5"/>
<text xml:space="preserve" text-anchor="middle" x="62.39" y="-157.3" font-family="Times,serif" font-size="14.00">phys idx = 0</text>
<polyline fill="none" stroke="#000000" points="0,-150.5 124.77,-150.5"/>
<text xml:space="preserve" text-anchor="middle" x="62.39" y="-135.3" font-family="Times,serif" font-size="14.00">elem = &#45;6666.00</text>
<polyline fill="none" stroke="#000000" points="0,-128.5 124.77,-128.5"/>
<text xml:space="preserve" text-anchor="middle" x="31.39" y="-113.3" font-family="Times,serif" font-size="14.00">prev = 3</text>
<polyline fill="none" stroke="#000000" points="62.77,-106.5 62.77,-128.5"/>
<text xml:space="preserve" text-anchor="middle" x="93.77" y="-113.3" font-family="Times,serif" font-size="14.00">next = 1</text>
</g>
<!-- 1 -->
<g id="node2" class="node">
<title>1</title>
<path fill="#98fb98" stroke="#000000" d="M194.77,-106.5C194.77,-106.5 295.54,-106.5 295.54,-106.5 301.54,-106.5 307.54,-112.5 307.54,-118.5 307.54,-118.5 307.54,-160.5 307.54,-160.5 307.54,-166.5 301.54,-172.5 295.54,-172.5 295.54,-172.5 194.77,-172.5 194.77,-172.5 188.77,-172.5 182.77,-166.5 182.77,-160.5 182.77,-160.5 182.77,-118.5 182.77,-118.5 182.77,-112.5 188.77,-106.5 194.77,-106.5"/>
<text xml:space="preserve" text-anchor="middle" x="245.16" y="-157.3" font-family="Times,serif" font-size="14.00">phys idx = 1</text>
<polyline fill="none" stroke="#000000" points="182.77,-150.5 307.54,-150.5"/>
<text xml:space="preserve" text-anchor="middle" x="245.16" y="-135.3" font-family="Times,serif" font-size="14.00">elem = 11.00</text>
<polyline fill="none" stroke="#000000" points="182.77,-128.5 307.54,-128.5"/>
<text xml:space="preserve" text-anchor="middle" x="214.16" y="-113.3" font-family="Times,serif" font-size="14.00">prev = 0</text>
<polyline fill="none" stroke="#000000" points="245.54,-106.5 245.54,-128.5"/>
<text xml:space="preserve" text-anchor="middle" x="276.54" y="-113.3" font-family="Times,serif" font-size="14.00">next = 2</text>
</g>
<!-- 0&#45;&gt;1 -->
<!-- 0&#45;&gt;1 -->
<g id="edge10" class="edge">
<title>0&#45;&gt;1</title>
<path fill="none" stroke="#000000" d="M134.78,-147.59C147.21,-147.8 160.14,-147.8 172.57,-147.59"/>
<polygon fill="#000000" stroke="#000000" points="135.17,-144.62 126.6,-147.4 135.04,-150.57 135.17,-144.62"/>
<polygon fill="#000000" stroke="#000000" points="172.48,-150.57 180.91,-147.4 172.34,-144.62 172.48,-150.57"/>
</g>
<!-- 2 -->
<g id="node3" class="node">
<title>2</title>
<path fill="#98fb98" stroke="#000000" d="M377.54,-106.5C377.54,-106.5 478.31,-106.5 478.31,-106.5 484.31,-106.5 490.31,-112.5 490.31,-118.5 490.31,-118.5 490.31,-160.5 490.31,-160.5 490.31,-166.5 484.31,-172.5 478.31,-172.5 478.31,-172.5 377.54,-172.5 377.54,-172.5 371.54,-172.5 365.54,-166.5 365.54,-160.5 365.54,-160.5 365.54,-118.5 365.54,-118.5 365.54,-112.5 371.54,-106.5 377.54,-106.5"/>
<text xml:space="preserve" text-anchor="middle" x="427.93" y="-157.3" font-family="Times,serif" font-size="14.00">phys idx = 2</text>
<polyline fill="none" stroke="#000000" points="365.54,-150.5 490.31,-150.5"/>
<text xml:space="preserve" text-anchor="middle" x="427.93" y="-135.3" font-family="Times,serif" font-size="14.00">elem = 21.00</text>
<polyline fill="none" stroke="#000000" points="365.54,-128.5 490.31,-128.5"/>
<text xml:space="preserve" text-anchor="middle" x="396.93" y="-113.3" font-family="Times,serif" font-size="14.00">prev = 1</text>
<polyline fill="none" stroke="#000000" points="428.31,-106.5 428.31,-128.5"/>
<text xml:space="preserve" text-anchor="middle" x="459.31" y="-113.3" font-family="Times,serif" font-size="14.00">next = 3</text>
</g>
<!-- 1&#45;&gt;2 -->
<!-- 1&#45;&gt;2 -->
<g id="edge11" class="edge">
<title>1&#45;&gt;2</title>
<path fill="none" stroke="#000000" d="M317.55,-147.59C329.98,-147.8 342.91,-147.8 355.35,-147.59"/>
<polygon fill="#000000" stroke="#000000" points="317.94,-144.62 309.37,-147.4 317.81,-150.57 317.94,-144.62"/>
<polygon fill="#000000" stroke="#000000" points="355.25,-150.57 363.68,-147.4 355.11,-144.62 355.25,-150.57"/>
</g>
<!-- 3 -->
<g id="node4" class="node">
<title>3</title>
<path fill="#98fb98" stroke="#000000" d="M560.31,-106.5C560.31,-106.5 661.08,-106.5 661.08,-106.5 667.08,-106.5 673.08,-112.5 673.08,-118.5 673.08,-118.5 673.08,-160.5 673.08,-160.5 673.08,-166.5 667.08,-172.5 661.08,-172.5 661.08,-172.5 560.31,-172.5 560.31,-172.5 554.31,-172.5 548.31,-166.5 548.31,-160.5 548.31,-160.5 548.31,-118.5 548.31,-118.5 548.31,-112.5 554.31,-106.5 560.31,-106.5"/>
<text xml:space="preserve" text-anchor="middle" x="610.7" y="-157.3" font-family="Times,serif" font-size="14.00">phys idx = 3</text>
<polyline fill="none" stroke="#000000" points="548.31,-150.5 673.08,-150.5"/>
<text xml:space="preserve" text-anchor="middle" x="610.7" y="-135.3" font-family="Times,serif" font-size="14.00">elem = 31.00</text>
<polyline fill="none" stroke="#000000" points="548.31,-128.5 673.08,-128.5"/>
<text xml:space="preserve" text-anchor="middle" x="579.7" y="-113.3" font-family="Times,serif" font-size="14.00">prev = 2</text>
<polyline fill="none" stroke="#000000" points="611.08,-106.5 611.08,-128.5"/>
<text xml:space="preserve" text-anchor="middle" x="642.08" y="-113.3" font-family="Times,serif" font-size="14.00">next = 0</text>
</g>
<!-- 2&#45;&gt;3 -->
<!-- 2&#45;&gt;3 -->
<g id="edge12" class="edge">
<title>2&#45;&gt;3</title>
<path fill="none" stroke="#000000" d="M500.32,-147.59C512.75,-147.8 525.68,-147.8 538.12,-147.59"/>
<polygon fill="#000000" stroke="#000000" points="500.71,-144.62 492.14,-147.4 500.58,-150.57 500.71,-144.62"/>
<polygon fill="#000000" stroke="#000000" points="538.02,-150.57 546.45,-147.4 537.89,-144.62 538.02,-150.57"/>
</g>
<!-- 3&#45;&gt;0 -->
<g id="edge13" class="edge">
<title>3&#45;&gt;0</title>
<path fill="none" stroke="#000000" d="M538.91,-170.94C523.21,-176.56 506.43,-181.56 490.31,-184.5 355.84,-209 317.24,-209 182.77,-184.5 166.65,-181.56 149.88,-176.56 134.17,-170.94"/>
<polygon fill="#000000" stroke="#000000" points="539.66,-173.84 546.6,-168.1 537.59,-168.26 539.66,-173.84"/>
<polygon fill="#000000" stroke="#000000" points="135.49,-168.26 126.48,-168.1 133.42,-173.84 135.49,-168.26"/>
</g>
<!-- 4 -->
<g id="node5" class="node">
<title>4</title>
<path fill="#82898f" stroke="#000000" d="M743.08,-106.5C743.08,-106.5 848.51,-106.5 848.51,-106.5 854.51,-106.5 860.51,-112.5 860.51,-118.5 860.51,-118.5 860.51,-160.5 860.51,-160.5 860.51,-166.5 854.51,-172.5 848.51,-172.5 848.51,-172.5 743.08,-172.5 743.08,-172.5 737.08,-172.5 731.08,-166.5 731.08,-160.5 731.08,-160.5 731.08,-118.5 731.08,-118.5 731.08,-112.5 737.08,-106.5 743.08,-106.5"/>
<text xml:space="preserve" text-anchor="middle" x="795.8" y="-157.3" font-family="Times,serif" font-size="14.00">phys idx = 4</text>
<polyline fill="none" stroke="#000000" points="731.08,-150.5 860.51,-150.5"/>
<text xml:space="preserve" text-anchor="middle" x="795.8" y="-135.3" font-family="Times,serif" font-size="14.00">elem = &#45;6666.00</text>
<polyline fill="none" stroke="#000000" points="731.08,-128.5 860.51,-128.5"/>
<text xml:space="preserve" text-anchor="middle" x="764.8" y="-113.3" font-family="Times,serif" font-size="14.00">prev = &#45;1</text>
<polyline fill="none" stroke="#000000" points="798.52,-106.5 798.52,-128.5"/>
<text xml:space="preserve" text-anchor="middle" x="829.52" y="-113.3" font-family="Times,serif" font-size="14.00">next = 0</text>
</g>
<!-- 3&#45;&gt;4 -->
<!-- 4&#45;&gt;0 -->
<g id="edge14" class="edge">
<title>4&#45;&gt;0</title>
<path fill="none" stroke="#ff8c00" d="M730.86,-166.04C712.46,-172.88 692.19,-179.67 673.08,-184.5 461.52,-238.01 393.19,-268.34 182.77,-210.5 158.97,-203.96 135.11,-191.29 115.05,-178.45"/>
<polygon fill="#ff8c00" stroke="#ff8c00" points="116.69,-175.97 107.96,-173.78 113.42,-180.94 116.69,-175.97"/>
</g>
<!-- head_label -->
<g id="node6" class="node">
<title>head_label</title>
<path fill="#20b2aa" stroke="#000000" d="M47.39,-0.5C47.39,-0.5 77.39,-0.5 77.39,-0.5 83.39,-0.5 89.39,-6.5 89.39,-12.5 89.39,-12.5 89.39,-24.5 89.39,-24.5 89.39,-30.5 83.39,-36.5 77.39,-36.5 77.39,-36.5 47.39,-36.5 47.39,-36.5 41.39,-36.5 35.39,-30.5 35.39,-24.5 35.39,-24.5 35.39,-12.5 35.39,-12.5 35.39,-6.5 41.39,-0.5 47.39,-0.5"/>
<text xml:space="preserve" text-anchor="middle" x="62.39" y="-14.9" font-family="Times,serif" font-size="12.00" fill="#000000">HEAD</text>
</g>
<!-- head_label&#45;&gt;1 -->
<g id="edge3" class="edge">
<title>head_label&#45;&gt;1</title>
<path fill="none" stroke="#20b2aa" d="M89.67,-36.09C114.86,-52.95 153.72,-78.97 186.17,-100.69"/>
<polygon fill="#20b2aa" stroke="#20b2aa" points="184.29,-103.01 193.01,-105.27 187.6,-98.07 184.29,-103.01"/>
</g>
<!-- tail_label -->
<g id="node7" class="node">
<title>tail_label</title>
<path fill="#20b2aa" stroke="#000000" d="M230.16,-0.5C230.16,-0.5 260.16,-0.5 260.16,-0.5 266.16,-0.5 272.16,-6.5 272.16,-12.5 272.16,-12.5 272.16,-24.5 272.16,-24.5 272.16,-30.5 266.16,-36.5 260.16,-36.5 260.16,-36.5 230.16,-36.5 230.16,-36.5 224.16,-36.5 218.16,-30.5 218.16,-24.5 218.16,-24.5 218.16,-12.5 218.16,-12.5 218.16,-6.5 224.16,-0.5 230.16,-0.5"/>
<text xml:space="preserve" text-anchor="middle" x="245.16" y="-14.9" font-family="Times,serif" font-size="12.00" fill="#000000">TAIL</text>
</g>
<!-- head_label&#45;&gt;tail_label -->
<!-- tail_label&#45;&gt;3 -->
<g id="edge4" class="edge">
<title>tail_label&#45;&gt;3</title>
<path fill="none" stroke="#20b2aa" d="M272.31,-26.3C317.13,-39.77 411.45,-68.55 490.31,-95.5 506.04,-100.87 522.83,-106.89 538.71,-112.71"/>
<polygon fill="#20b2aa" stroke="#20b2aa" points="537.51,-115.43 546.51,-115.58 539.56,-109.85 537.51,-115.43"/>
</g>
<!-- free_label -->
<g id="node8" class="node">
<title>free_label</title>
<path fill="#20b2aa" stroke="#000000" d="M412.93,-0.5C412.93,-0.5 442.93,-0.5 442.93,-0.5 448.93,-0.5 454.93,-6.5 454.93,-12.5 454.93,-12.5 454.93,-24.5 454.93,-24.5 454.93,-30.5 448.93,-36.5 442.93,-36.5 442.93,-36.5 412.93,-36.5 412.93,-36.5 406.93,-36.5 400.93,-30.5 400.93,-24.5 400.93,-24.5 400.93,-12.5 400.93,-12.5 400.93,-6.5 406.93,-0.5 412.93,-0.5"/>
<text xml:space="preserve" text-anchor="middle" x="427.93" y="-14.9" font-family="Times,serif" font-size="12.00" fill="#000000">FREE</text>
</g>
<!-- tail_label&#45;&gt;free_label -->
<!-- free_label&#45;&gt;4 -->
<g id="edge5" class="edge">
<title>free_label&#45;&gt;4</title>
<path fill="none" stroke="#20b2aa" d="M455.42,-26.46C500.36,-40.06 594.35,-68.87 673.08,-95.5 688.83,-100.83 705.64,-106.75 721.58,-112.48"/>
<polygon fill="#20b2aa" stroke="#20b2aa" points="720.43,-115.22 729.43,-115.31 722.45,-109.63 720.43,-115.22"/>
</g>
</g>
</svg>
