<?xml version="1.0" encoding="UTF-8" standalone="no"?>
<!DOCTYPE svg PUBLIC "-//W3C//DTD SVG 1.1//EN"
 "http://www.w3.org/Graphics/SVG/1.1/DTD/svg11.dtd">
<!-- Generated by graphviz version 14.0.2 (20251019.1705)
 -->
<!-- Title: G Pages: 1 -->
<svg width="1796pt" height="343pt"
 viewBox="0.00 0.00 1796.00 343.00" xmlns="http://www.w3.org/2000/svg" xmlns:xlink="http://www.w3.org/1999/xlink">
<g id="graph0" class="graph" transform="scale(1 1) rotate(0) translate(4 338.78)">
<title>G</title>
<polygon fill="#fffafa" stroke="none" points="-4,4 -4,-338.78 1792.35,-338.78 1792.35,4 -4,4"/>
<!-- 0 -->
<g id="node1" class="node">
<title>0</title>
<path fill="#cd5c5c" stroke="#000000" d="M12,-140C12,-140 112.77,-140 112.77,-140 118.77,-140 124.77,-146 124.77,-152 124.77,-152 124.77,-194 124.77,-194 124.77,-200 118.77,-206 112.77,-206 112.77,-206 12,-206 12,-206 6,-206 0,-200 0,-194 0,-194 0,-152 0,-152 0,-146 6,-140 12,-140"/>
<text xml:space="preserve" text-anchor="middle" x="62.39" y="-190.8" font-family="Times,serif" font-size="14.00">phys idx = 0</text>
<polyline fill="none" stroke="#000000" points="0,-184 124.77,-184"/>
<text xml:space="preserve" text-anchor="middle" x="62.39" y="-168.8" font-family="Times,serif" font-size="14.00">elem = &#45;6666.00</text>
<polyline fill="none" stroke="#000000" points="0,-162 124.77,-162"/>
<text xml:space="preserve" text-anchor="middle" x="31.39" y="-146.8" font-family="Times,serif" font-size="14.00">prev = 5</text>
<polyline fill="none" stroke="#000000" points="62.77,-140 62.77,-162"/>
<text xml:space="preserve" text-anchor="middle" x="93.77" y="-146.8" font-family="Times,serif" font-size="14.00">next = 9</text>
</g>
<!-- 1 -->
<g id="node2" class="node">
<title>1</title>
<path fill="#82898f" stroke="#000000" d="M194.77,-140C194.77,-140 300.2,-140 300.2,-140 306.2,-140 312.2,-146 312.2,-152 312.2,-152 312.2,-194 312.2,-194 312.2,-200 306.2,-206 300.2,-206 300.2,-206 194.77,-206 194.77,-206 188.77,-206 182.77,-200 182.77,-194 182.77,-194 182.77,-152 182.77,-152 182.77,-146 188.77,-140 194.77,-140"/>
<text xml:space="preserve" text-anchor="middle" x="247.49" y="-190.8" font-family="Times,serif" font-size="14.00">phys idx = 1</text>
<polyline fill="none" stroke="#000000" points="182.77,-184 312.2,-184"/>
<text xml:space="preserve" text-anchor="middle" x="247.49" y="-168.8" font-family="Times,serif" font-size="14.00">elem = &#45;6666.00</text>
<polyline fill="none" stroke="#000000" points="182.77,-162 312.2,-162"/>
<text xml:space="preserve" text-anchor="middle" x="216.49" y="-146.8" font-family="Times,serif" font-size="14.00">prev = &#45;1</text>
<polyline fill="none" stroke="#000000" points="250.2,-140 250.2,-162"/>
<text xml:space="preserve" text-anchor="middle" x="281.2" y="-146.8" font-family="Times,serif" font-size="14.00">next = 6</text>
</g>
<!-- 0&#45;&gt;1 -->
<!-- 9 -->
<g id="node10" class="node">
<title>9</title>
<path fill="#98fb98" stroke="#000000" d="M1675.58,-140C1675.58,-140 1776.35,-140 1776.35,-140 1782.35,-140 1788.35,-146 1788.35,-152 1788.35,-152 1788.35,-194 1788.35,-194 1788.35,-200 1782.35,-206 1776.35,-206 1776.35,-206 1675.58,-206 1675.58,-206 1669.58,-206 1663.58,-200 1663.58,-194 1663.58,-194 1663.58,-152 1663.58,-152 1663.58,-146 1669.58,-140 1675.58,-140"/>
<text xml:space="preserve" text-anchor="middle" x="1725.97" y="-190.8" font-family="Times,serif" font-size="14.00">phys idx = 9</text>
<polyline fill="none" stroke="#000000" points="1663.58,-184 1788.35,-184"/>
<text xml:space="preserve" text-anchor="middle" x="1725.97" y="-168.8" font-family="Times,serif" font-size="14.00">elem = 32.00</text>
<polyline fill="none" stroke="#000000" points="1663.58,-162 1788.35,-162"/>
<text xml:space="preserve" text-anchor="middle" x="1694.97" y="-146.8" font-family="Times,serif" font-size="14.00">prev = 0</text>
<polyline fill="none" stroke="#000000" points="1726.35,-140 1726.35,-162"/>
<text xml:space="preserve" text-anchor="middle" x="1757.35" y="-146.8" font-family="Times,serif" font-size="14.00">next = 7</text>
</g>
<!-- 0&#45;&gt;9 -->
<g id="edge15" class="edge">
<title>0&#45;&gt;9</title>
<path fill="none" stroke="#000000" d="M99.58,-213.03C121.42,-234.4 151.1,-258.93 182.77,-272 337.41,-335.82 390.61,-296.65 557.64,-306 1023.61,-332.07 1159.81,-377.19 1605.58,-239 1626.57,-232.49 1648.03,-222.03 1666.86,-211.34"/>
<polygon fill="#000000" stroke="#000000" points="101.95,-211.19 93.84,-207.29 97.75,-215.4 101.95,-211.19"/>
<polygon fill="#000000" stroke="#000000" points="1668.15,-214.03 1674.01,-207.18 1665.16,-208.88 1668.15,-214.03"/>
</g>
<!-- 2 -->
<g id="node3" class="node">
<title>2</title>
<path fill="#82898f" stroke="#000000" d="M382.2,-140C382.2,-140 487.64,-140 487.64,-140 493.64,-140 499.64,-146 499.64,-152 499.64,-152 499.64,-194 499.64,-194 499.64,-200 493.64,-206 487.64,-206 487.64,-206 382.2,-206 382.2,-206 376.2,-206 370.2,-200 370.2,-194 370.2,-194 370.2,-152 370.2,-152 370.2,-146 376.2,-140 382.2,-140"/>
<text xml:space="preserve" text-anchor="middle" x="434.92" y="-190.8" font-family="Times,serif" font-size="14.00">phys idx = 2</text>
<polyline fill="none" stroke="#000000" points="370.2,-184 499.64,-184"/>
<text xml:space="preserve" text-anchor="middle" x="434.92" y="-168.8" font-family="Times,serif" font-size="14.00">elem = &#45;6666.00</text>
<polyline fill="none" stroke="#000000" points="370.2,-162 499.64,-162"/>
<text xml:space="preserve" text-anchor="middle" x="403.92" y="-146.8" font-family="Times,serif" font-size="14.00">prev = &#45;1</text>
<polyline fill="none" stroke="#000000" points="437.64,-140 437.64,-162"/>
<text xml:space="preserve" text-anchor="middle" x="468.64" y="-146.8" font-family="Times,serif" font-size="14.00">next = 1</text>
</g>
<!-- 1&#45;&gt;2 -->
<!-- 6 -->
<g id="node7" class="node">
<title>6</title>
<path fill="#82898f" stroke="#000000" d="M1122.61,-140C1122.61,-140 1228.04,-140 1228.04,-140 1234.04,-140 1240.04,-146 1240.04,-152 1240.04,-152 1240.04,-194 1240.04,-194 1240.04,-200 1234.04,-206 1228.04,-206 1228.04,-206 1122.61,-206 1122.61,-206 1116.61,-206 1110.61,-200 1110.61,-194 1110.61,-194 1110.61,-152 1110.61,-152 1110.61,-146 1116.61,-140 1122.61,-140"/>
<text xml:space="preserve" text-anchor="middle" x="1175.33" y="-190.8" font-family="Times,serif" font-size="14.00">phys idx = 6</text>
<polyline fill="none" stroke="#000000" points="1110.61,-184 1240.04,-184"/>
<text xml:space="preserve" text-anchor="middle" x="1175.33" y="-168.8" font-family="Times,serif" font-size="14.00">elem = &#45;6666.00</text>
<polyline fill="none" stroke="#000000" points="1110.61,-162 1240.04,-162"/>
<text xml:space="preserve" text-anchor="middle" x="1144.33" y="-146.8" font-family="Times,serif" font-size="14.00">prev = &#45;1</text>
<polyline fill="none" stroke="#000000" points="1178.04,-140 1178.04,-162"/>
<text xml:space="preserve" text-anchor="middle" x="1209.04" y="-146.8" font-family="Times,serif" font-size="14.00">next = 0</text>
</g>
<!-- 1&#45;&gt;6 -->
<g id="edge16" class="edge">
<title>1&#45;&gt;6</title>
<path fill="none" stroke="#ff8c00" d="M312.68,-201.54C330.9,-208.32 351.02,-214.57 370.2,-218 668.75,-271.42 754.06,-271.42 1052.61,-218 1068.65,-215.13 1085.33,-210.29 1101.02,-204.83"/>
<polygon fill="#ff8c00" stroke="#ff8c00" points="1101.72,-207.74 1108.71,-202.06 1099.71,-202.14 1101.72,-207.74"/>
</g>
<!-- 2&#45;&gt;1 -->
<g id="edge17" class="edge">
<title>2&#45;&gt;1</title>
<path fill="none" stroke="#ff8c00" d="M369.84,-180.89C354.5,-181.29 337.99,-181.36 322.25,-181.09"/>
<polygon fill="#ff8c00" stroke="#ff8c00" points="322.64,-178.13 314.08,-180.92 322.51,-184.08 322.64,-178.13"/>
</g>
<!-- 3 -->
<g id="node4" class="node">
<title>3</title>
<path fill="#82898f" stroke="#000000" d="M569.64,-140C569.64,-140 675.07,-140 675.07,-140 681.07,-140 687.07,-146 687.07,-152 687.07,-152 687.07,-194 687.07,-194 687.07,-200 681.07,-206 675.07,-206 675.07,-206 569.64,-206 569.64,-206 563.64,-206 557.64,-200 557.64,-194 557.64,-194 557.64,-152 557.64,-152 557.64,-146 563.64,-140 569.64,-140"/>
<text xml:space="preserve" text-anchor="middle" x="622.35" y="-190.8" font-family="Times,serif" font-size="14.00">phys idx = 3</text>
<polyline fill="none" stroke="#000000" points="557.64,-184 687.07,-184"/>
<text xml:space="preserve" text-anchor="middle" x="622.35" y="-168.8" font-family="Times,serif" font-size="14.00">elem = &#45;6666.00</text>
<polyline fill="none" stroke="#000000" points="557.64,-162 687.07,-162"/>
<text xml:space="preserve" text-anchor="middle" x="591.35" y="-146.8" font-family="Times,serif" font-size="14.00">prev = &#45;1</text>
<polyline fill="none" stroke="#000000" points="625.07,-140 625.07,-162"/>
<text xml:space="preserve" text-anchor="middle" x="656.07" y="-146.8" font-family="Times,serif" font-size="14.00">next = 2</text>
</g>
<!-- 2&#45;&gt;3 -->
<!-- 3&#45;&gt;2 -->
<g id="edge18" class="edge">
<title>3&#45;&gt;2</title>
<path fill="none" stroke="#ff8c00" d="M557.27,-180.89C541.93,-181.29 525.42,-181.36 509.68,-181.09"/>
<polygon fill="#ff8c00" stroke="#ff8c00" points="510.07,-178.13 501.51,-180.92 509.94,-184.08 510.07,-178.13"/>
</g>
<!-- 4 -->
<g id="node5" class="node">
<title>4</title>
<path fill="#98fb98" stroke="#000000" d="M757.07,-140C757.07,-140 857.84,-140 857.84,-140 863.84,-140 869.84,-146 869.84,-152 869.84,-152 869.84,-194 869.84,-194 869.84,-200 863.84,-206 857.84,-206 857.84,-206 757.07,-206 757.07,-206 751.07,-206 745.07,-200 745.07,-194 745.07,-194 745.07,-152 745.07,-152 745.07,-146 751.07,-140 757.07,-140"/>
<text xml:space="preserve" text-anchor="middle" x="807.45" y="-190.8" font-family="Times,serif" font-size="14.00">phys idx = 4</text>
<polyline fill="none" stroke="#000000" points="745.07,-184 869.84,-184"/>
<text xml:space="preserve" text-anchor="middle" x="807.45" y="-168.8" font-family="Times,serif" font-size="14.00">elem = 41.00</text>
<polyline fill="none" stroke="#000000" points="745.07,-162 869.84,-162"/>
<text xml:space="preserve" text-anchor="middle" x="776.45" y="-146.8" font-family="Times,serif" font-size="14.00">prev = 8</text>
<polyline fill="none" stroke="#000000" points="807.84,-140 807.84,-162"/>
<text xml:space="preserve" text-anchor="middle" x="838.84" y="-146.8" font-family="Times,serif" font-size="14.00">next = 5</text>
</g>
<!-- 3&#45;&gt;4 -->
<!-- 5 -->
<g id="node6" class="node">
<title>5</title>
<path fill="#98fb98" stroke="#000000" d="M939.84,-140C939.84,-140 1040.61,-140 1040.61,-140 1046.61,-140 1052.61,-146 1052.61,-152 1052.61,-152 1052.61,-194 1052.61,-194 1052.61,-200 1046.61,-206 1040.61,-206 1040.61,-206 939.84,-206 939.84,-206 933.84,-206 927.84,-200 927.84,-194 927.84,-194 927.84,-152 927.84,-152 927.84,-146 933.84,-140 939.84,-140"/>
<text xml:space="preserve" text-anchor="middle" x="990.22" y="-190.8" font-family="Times,serif" font-size="14.00">phys idx = 5</text>
<polyline fill="none" stroke="#000000" points="927.84,-184 1052.61,-184"/>
<text xml:space="preserve" text-anchor="middle" x="990.22" y="-168.8" font-family="Times,serif" font-size="14.00">elem = 51.00</text>
<polyline fill="none" stroke="#000000" points="927.84,-162 1052.61,-162"/>
<text xml:space="preserve" text-anchor="middle" x="959.22" y="-146.8" font-family="Times,serif" font-size="14.00">prev = 4</text>
<polyline fill="none" stroke="#000000" points="990.61,-140 990.61,-162"/>
<text xml:space="preserve" text-anchor="middle" x="1021.61" y="-146.8" font-family="Times,serif" font-size="14.00">next = 0</text>
</g>
<!-- 4&#45;&gt;5 -->
<!-- 4&#45;&gt;5 -->
<g id="edge19" class="edge">
<title>4&#45;&gt;5</title>
<path fill="none" stroke="#000000" d="M879.85,-181.09C892.28,-181.3 905.21,-181.3 917.64,-181.09"/>
<polygon fill="#000000" stroke="#000000" points="880.24,-178.12 871.67,-180.9 880.1,-184.07 880.24,-178.12"/>
<polygon fill="#000000" stroke="#000000" points="917.55,-184.07 925.98,-180.9 917.41,-178.12 917.55,-184.07"/>
</g>
<!-- 5&#45;&gt;0 -->
<g id="edge20" class="edge">
<title>5&#45;&gt;0</title>
<path fill="none" stroke="#000000" d="M918.26,-203.56C902.57,-209.23 885.84,-214.48 869.84,-218 652.65,-265.8 592.02,-260.89 370.2,-245 286.26,-238.98 264.28,-238.97 182.77,-218 166.81,-213.89 150.04,-208.37 134.29,-202.61"/>
<polygon fill="#000000" stroke="#000000" points="919.01,-206.45 925.95,-200.7 916.94,-200.87 919.01,-206.45"/>
<polygon fill="#000000" stroke="#000000" points="135.56,-199.91 126.56,-199.72 133.48,-205.48 135.56,-199.91"/>
</g>
<!-- 5&#45;&gt;6 -->
<!-- 6&#45;&gt;0 -->
<g id="edge21" class="edge">
<title>6&#45;&gt;0</title>
<path fill="none" stroke="#ff8c00" d="M1129.34,-206.47C1107.35,-220.97 1079.81,-236.55 1052.61,-245 762.84,-335.03 673.02,-285.35 370.2,-266 286.6,-260.66 262.09,-272.95 182.77,-246 159.42,-238.07 135.82,-224.95 115.84,-212"/>
<polygon fill="#ff8c00" stroke="#ff8c00" points="117.5,-209.53 108.77,-207.32 114.21,-214.49 117.5,-209.53"/>
</g>
<!-- 7 -->
<g id="node8" class="node">
<title>7</title>
<path fill="#98fb98" stroke="#000000" d="M1310.04,-140C1310.04,-140 1410.81,-140 1410.81,-140 1416.81,-140 1422.81,-146 1422.81,-152 1422.81,-152 1422.81,-194 1422.81,-194 1422.81,-200 1416.81,-206 1410.81,-206 1410.81,-206 1310.04,-206 1310.04,-206 1304.04,-206 1298.04,-200 1298.04,-194 1298.04,-194 1298.04,-152 1298.04,-152 1298.04,-146 1304.04,-140 1310.04,-140"/>
<text xml:space="preserve" text-anchor="middle" x="1360.43" y="-190.8" font-family="Times,serif" font-size="14.00">phys idx = 7</text>
<polyline fill="none" stroke="#000000" points="1298.04,-184 1422.81,-184"/>
<text xml:space="preserve" text-anchor="middle" x="1360.43" y="-168.8" font-family="Times,serif" font-size="14.00">elem = 35.00</text>
<polyline fill="none" stroke="#000000" points="1298.04,-162 1422.81,-162"/>
<text xml:space="preserve" text-anchor="middle" x="1329.43" y="-146.8" font-family="Times,serif" font-size="14.00">prev = 9</text>
<polyline fill="none" stroke="#000000" points="1360.81,-140 1360.81,-162"/>
<text xml:space="preserve" text-anchor="middle" x="1391.81" y="-146.8" font-family="Times,serif" font-size="14.00">next = 8</text>
</g>
<!-- 6&#45;&gt;7 -->
<!-- 8 -->
<g id="node9" class="node">
<title>8</title>
<path fill="#98fb98" stroke="#000000" d="M1492.81,-140C1492.81,-140 1593.58,-140 1593.58,-140 1599.58,-140 1605.58,-146 1605.58,-152 1605.58,-152 1605.58,-194 1605.58,-194 1605.58,-200 1599.58,-206 1593.58,-206 1593.58,-206 1492.81,-206 1492.81,-206 1486.81,-206 1480.81,-200 1480.81,-194 1480.81,-194 1480.81,-152 1480.81,-152 1480.81,-146 1486.81,-140 1492.81,-140"/>
<text xml:space="preserve" text-anchor="middle" x="1543.2" y="-190.8" font-family="Times,serif" font-size="14.00">phys idx = 8</text>
<polyline fill="none" stroke="#000000" points="1480.81,-184 1605.58,-184"/>
<text xml:space="preserve" text-anchor="middle" x="1543.2" y="-168.8" font-family="Times,serif" font-size="14.00">elem = 36.00</text>
<polyline fill="none" stroke="#000000" points="1480.81,-162 1605.58,-162"/>
<text xml:space="preserve" text-anchor="middle" x="1512.2" y="-146.8" font-family="Times,serif" font-size="14.00">prev = 7</text>
<polyline fill="none" stroke="#000000" points="1543.58,-140 1543.58,-162"/>
<text xml:space="preserve" text-anchor="middle" x="1574.58" y="-146.8" font-family="Times,serif" font-size="14.00">next = 4</text>
</g>
<!-- 7&#45;&gt;8 -->
<!-- 7&#45;&gt;8 -->
<g id="edge22" class="edge">
<title>7&#45;&gt;8</title>
<path fill="none" stroke="#000000" d="M1432.82,-181.09C1445.25,-181.3 1458.18,-181.3 1470.62,-181.09"/>
<polygon fill="#000000" stroke="#000000" points="1433.21,-178.12 1424.65,-180.9 1433.08,-184.07 1433.21,-178.12"/>
<polygon fill="#000000" stroke="#000000" points="1470.52,-184.07 1478.95,-180.9 1470.39,-178.12 1470.52,-184.07"/>
</g>
<!-- 8&#45;&gt;4 -->
<g id="edge23" class="edge">
<title>8&#45;&gt;4</title>
<path fill="none" stroke="#000000" d="M1471.36,-142.25C1455.66,-136.76 1438.9,-131.87 1422.81,-129 1206.24,-90.36 1144.41,-90.36 927.84,-129 911.75,-131.87 894.99,-136.76 879.29,-142.25"/>
<polygon fill="#000000" stroke="#000000" points="1470.04,-144.94 1479.04,-145.03 1472.06,-139.34 1470.04,-144.94"/>
<polygon fill="#000000" stroke="#000000" points="878.59,-139.34 871.61,-145.03 880.61,-144.94 878.59,-139.34"/>
</g>
<!-- 8&#45;&gt;9 -->
<!-- 9&#45;&gt;7 -->
<g id="edge24" class="edge">
<title>9&#45;&gt;7</title>
<path fill="none" stroke="#000000" d="M1654.18,-204.44C1638.48,-210.06 1621.7,-215.06 1605.58,-218 1551.03,-227.94 1535.37,-227.94 1480.81,-218 1464.69,-215.06 1447.92,-210.06 1432.21,-204.44"/>
<polygon fill="#000000" stroke="#000000" points="1654.93,-207.34 1661.87,-201.6 1652.87,-201.76 1654.93,-207.34"/>
<polygon fill="#000000" stroke="#000000" points="1433.53,-201.76 1424.52,-201.6 1431.46,-207.34 1433.53,-201.76"/>
</g>
<!-- head_label -->
<g id="node11" class="node">
<title>head_label</title>
<path fill="#20b2aa" stroke="#000000" d="M47.39,-81C47.39,-81 77.39,-81 77.39,-81 83.39,-81 89.39,-87 89.39,-93 89.39,-93 89.39,-105 89.39,-105 89.39,-111 83.39,-117 77.39,-117 77.39,-117 47.39,-117 47.39,-117 41.39,-117 35.39,-111 35.39,-105 35.39,-105 35.39,-93 35.39,-93 35.39,-87 41.39,-81 47.39,-81"/>
<text xml:space="preserve" text-anchor="middle" x="62.39" y="-95.4" font-family="Times,serif" font-size="12.00" fill="#000000">HEAD</text>
</g>
<!-- head_label&#45;&gt;9 -->
<g id="edge3" class="edge">
<title>head_label&#45;&gt;9</title>
<path fill="none" stroke="#20b2aa" d="M89.7,-86.86C149.5,-60.42 300.75,0 433.92,0 433.92,0 433.92,0 1361.43,0 1485.01,0 1611.3,-82.53 1677.61,-133.58"/>
<polygon fill="#20b2aa" stroke="#20b2aa" points="1675.67,-135.84 1684.2,-138.71 1679.32,-131.14 1675.67,-135.84"/>
</g>
<!-- tail_label -->
<g id="node12" class="node">
<title>tail_label</title>
<path fill="#20b2aa" stroke="#000000" d="M232.49,-81C232.49,-81 262.49,-81 262.49,-81 268.49,-81 274.49,-87 274.49,-93 274.49,-93 274.49,-105 274.49,-105 274.49,-111 268.49,-117 262.49,-117 262.49,-117 232.49,-117 232.49,-117 226.49,-117 220.49,-111 220.49,-105 220.49,-105 220.49,-93 220.49,-93 220.49,-87 226.49,-81 232.49,-81"/>
<text xml:space="preserve" text-anchor="middle" x="247.49" y="-95.4" font-family="Times,serif" font-size="12.00" fill="#000000">TAIL</text>
</g>
<!-- head_label&#45;&gt;tail_label -->
<!-- tail_label&#45;&gt;5 -->
<g id="edge4" class="edge">
<title>tail_label&#45;&gt;5</title>
<path fill="none" stroke="#20b2aa" d="M274.76,-90.85C299.2,-83.73 336.76,-73.93 370.2,-70 592.28,-43.91 653.5,-72.47 869.84,-129 885.74,-133.15 902.48,-138.61 918.23,-144.26"/>
<polygon fill="#20b2aa" stroke="#20b2aa" points="916.95,-146.96 925.96,-147.08 918.99,-141.37 916.95,-146.96"/>
</g>
<!-- free_label -->
<g id="node13" class="node">
<title>free_label</title>
<path fill="#20b2aa" stroke="#000000" d="M419.92,-81C419.92,-81 449.92,-81 449.92,-81 455.92,-81 461.92,-87 461.92,-93 461.92,-93 461.92,-105 461.92,-105 461.92,-111 455.92,-117 449.92,-117 449.92,-117 419.92,-117 419.92,-117 413.92,-117 407.92,-111 407.92,-105 407.92,-105 407.92,-93 407.92,-93 407.92,-87 413.92,-81 419.92,-81"/>
<text xml:space="preserve" text-anchor="middle" x="434.92" y="-95.4" font-family="Times,serif" font-size="12.00" fill="#000000">FREE</text>
</g>
<!-- tail_label&#45;&gt;free_label -->
<!-- free_label&#45;&gt;3 -->
<g id="edge5" class="edge">
<title>free_label&#45;&gt;3</title>
<path fill="none" stroke="#20b2aa" d="M462.09,-109.45C484.54,-118.4 517.98,-131.75 548.43,-143.9"/>
<polygon fill="#20b2aa" stroke="#20b2aa" points="546.94,-146.51 555.94,-146.9 549.15,-140.98 546.94,-146.51"/>
</g>
</g>
</svg>
