<?xml version="1.0" encoding="UTF-8" standalone="no"?>
<!DOCTYPE svg PUBLIC "-//W3C//DTD SVG 1.1//EN"
 "http://www.w3.org/Graphics/SVG/1.1/DTD/svg11.dtd">
<!-- Generated by graphviz version 14.0.2 (20251019.1705)
 -->
<!-- Title: G Pages: 1 -->
<svg width="990pt" height="221pt"
 viewBox="0.00 0.00 990.00 221.00" xmlns="http://www.w3.org/2000/svg" xmlns:xlink="http://www.w3.org/1999/xlink">
<g id="graph0" class="graph" transform="scale(1 1) rotate(0) translate(4 216.52)">
<title>G</title>
<polygon fill="#fffafa" stroke="none" points="-4,4 -4,-216.52 985.84,-216.52 985.84,4 -4,4"/>
<!-- 0 -->
<g id="node1" class="node">
<title>0</title>
<path fill="#cd5c5c" stroke="#000000" d="M124,-40.02C124,-40.02 224.77,-40.02 224.77,-40.02 230.77,-40.02 236.77,-46.02 236.77,-52.02 236.77,-52.02 236.77,-94.02 236.77,-94.02 236.77,-100.02 230.77,-106.02 224.77,-106.02 224.77,-106.02 124,-106.02 124,-106.02 118,-106.02 112,-100.02 112,-94.02 112,-94.02 112,-52.02 112,-52.02 112,-46.02 118,-40.02 124,-40.02"/>
<text xml:space="preserve" text-anchor="middle" x="174.39" y="-90.82" font-family="Times,serif" font-size="14.00">phys idx = 0</text>
<polyline fill="none" stroke="#000000" points="112,-84.02 236.77,-84.02"/>
<text xml:space="preserve" text-anchor="middle" x="174.39" y="-68.82" font-family="Times,serif" font-size="14.00">elem = &#45;6666.00</text>
<polyline fill="none" stroke="#000000" points="112,-62.02 236.77,-62.02"/>
<text xml:space="preserve" text-anchor="middle" x="143.39" y="-46.82" font-family="Times,serif" font-size="14.00">prev = 1</text>
<polyline fill="none" stroke="#000000" points="174.77,-40.02 174.77,-62.02"/>
<text xml:space="preserve" text-anchor="middle" x="205.77" y="-46.82" font-family="Times,serif" font-size="14.00">next = 1</text>
</g>
<!-- 1 -->
<g id="node2" class="node">
<title>1</title>
<path fill="#98fb98" stroke="#000000" d="M306.77,-40.02C306.77,-40.02 407.54,-40.02 407.54,-40.02 413.54,-40.02 419.54,-46.02 419.54,-52.02 419.54,-52.02 419.54,-94.02 419.54,-94.02 419.54,-100.02 413.54,-106.02 407.54,-106.02 407.54,-106.02 306.77,-106.02 306.77,-106.02 300.77,-106.02 294.77,-100.02 294.77,-94.02 294.77,-94.02 294.77,-52.02 294.77,-52.02 294.77,-46.02 300.77,-40.02 306.77,-40.02"/>
<text xml:space="preserve" text-anchor="middle" x="357.16" y="-90.82" font-family="Times,serif" font-size="14.00">phys idx = 1</text>
<polyline fill="none" stroke="#000000" points="294.77,-84.02 419.54,-84.02"/>
<text xml:space="preserve" text-anchor="middle" x="357.16" y="-68.82" font-family="Times,serif" font-size="14.00">elem = 10.00</text>
<polyline fill="none" stroke="#000000" points="294.77,-62.02 419.54,-62.02"/>
<text xml:space="preserve" text-anchor="middle" x="326.16" y="-46.82" font-family="Times,serif" font-size="14.00">prev = 0</text>
<polyline fill="none" stroke="#000000" points="357.54,-40.02 357.54,-62.02"/>
<text xml:space="preserve" text-anchor="middle" x="388.54" y="-46.82" font-family="Times,serif" font-size="14.00">next = 0</text>
</g>
<!-- 0&#45;&gt;1 -->
<!-- 0&#45;&gt;1 -->
<g id="edge10" class="edge">
<title>0&#45;&gt;1</title>
<path fill="none" stroke="#000000" d="M246.78,-81.1C259.21,-81.32 272.14,-81.32 284.57,-81.11"/>
<polygon fill="#000000" stroke="#000000" points="247.17,-78.14 238.6,-80.92 247.04,-84.09 247.17,-78.14"/>
<polygon fill="#000000" stroke="#000000" points="284.48,-84.08 292.91,-80.92 284.34,-78.14 284.48,-84.08"/>
</g>
<!-- 2 -->
<g id="node3" class="node">
<title>2</title>
<path fill="#82898f" stroke="#000000" d="M489.54,-40.02C489.54,-40.02 594.97,-40.02 594.97,-40.02 600.97,-40.02 606.97,-46.02 606.97,-52.02 606.97,-52.02 606.97,-94.02 606.97,-94.02 606.97,-100.02 600.97,-106.02 594.97,-106.02 594.97,-106.02 489.54,-106.02 489.54,-106.02 483.54,-106.02 477.54,-100.02 477.54,-94.02 477.54,-94.02 477.54,-52.02 477.54,-52.02 477.54,-46.02 483.54,-40.02 489.54,-40.02"/>
<text xml:space="preserve" text-anchor="middle" x="542.26" y="-90.82" font-family="Times,serif" font-size="14.00">phys idx = 2</text>
<polyline fill="none" stroke="#000000" points="477.54,-84.02 606.97,-84.02"/>
<text xml:space="preserve" text-anchor="middle" x="542.26" y="-68.82" font-family="Times,serif" font-size="14.00">elem = &#45;6666.00</text>
<polyline fill="none" stroke="#000000" points="477.54,-62.02 606.97,-62.02"/>
<text xml:space="preserve" text-anchor="middle" x="511.26" y="-46.82" font-family="Times,serif" font-size="14.00">prev = &#45;1</text>
<polyline fill="none" stroke="#000000" points="544.97,-40.02 544.97,-62.02"/>
<text xml:space="preserve" text-anchor="middle" x="575.97" y="-46.82" font-family="Times,serif" font-size="14.00">next = 3</text>
</g>
<!-- 1&#45;&gt;2 -->
<!-- 3 -->
<g id="node4" class="node">
<title>3</title>
<path fill="#82898f" stroke="#000000" d="M676.97,-40.02C676.97,-40.02 782.41,-40.02 782.41,-40.02 788.41,-40.02 794.41,-46.02 794.41,-52.02 794.41,-52.02 794.41,-94.02 794.41,-94.02 794.41,-100.02 788.41,-106.02 782.41,-106.02 782.41,-106.02 676.97,-106.02 676.97,-106.02 670.97,-106.02 664.97,-100.02 664.97,-94.02 664.97,-94.02 664.97,-52.02 664.97,-52.02 664.97,-46.02 670.97,-40.02 676.97,-40.02"/>
<text xml:space="preserve" text-anchor="middle" x="729.69" y="-90.82" font-family="Times,serif" font-size="14.00">phys idx = 3</text>
<polyline fill="none" stroke="#000000" points="664.97,-84.02 794.41,-84.02"/>
<text xml:space="preserve" text-anchor="middle" x="729.69" y="-68.82" font-family="Times,serif" font-size="14.00">elem = &#45;6666.00</text>
<polyline fill="none" stroke="#000000" points="664.97,-62.02 794.41,-62.02"/>
<text xml:space="preserve" text-anchor="middle" x="698.69" y="-46.82" font-family="Times,serif" font-size="14.00">prev = &#45;1</text>
<polyline fill="none" stroke="#000000" points="732.41,-40.02 732.41,-62.02"/>
<text xml:space="preserve" text-anchor="middle" x="763.41" y="-46.82" font-family="Times,serif" font-size="14.00">next = 4</text>
</g>
<!-- 2&#45;&gt;3 -->
<!-- 2&#45;&gt;3 -->
<g id="edge11" class="edge">
<title>2&#45;&gt;3</title>
<path fill="none" stroke="#ff8c00" d="M607.33,-80.91C622.68,-81.31 639.18,-81.37 654.93,-81.11"/>
<polygon fill="#ff8c00" stroke="#ff8c00" points="654.66,-84.09 663.1,-80.94 654.54,-78.15 654.66,-84.09"/>
</g>
<!-- 4 -->
<g id="node5" class="node">
<title>4</title>
<path fill="#82898f" stroke="#000000" d="M864.41,-40.02C864.41,-40.02 969.84,-40.02 969.84,-40.02 975.84,-40.02 981.84,-46.02 981.84,-52.02 981.84,-52.02 981.84,-94.02 981.84,-94.02 981.84,-100.02 975.84,-106.02 969.84,-106.02 969.84,-106.02 864.41,-106.02 864.41,-106.02 858.41,-106.02 852.41,-100.02 852.41,-94.02 852.41,-94.02 852.41,-52.02 852.41,-52.02 852.41,-46.02 858.41,-40.02 864.41,-40.02"/>
<text xml:space="preserve" text-anchor="middle" x="917.12" y="-90.82" font-family="Times,serif" font-size="14.00">phys idx = 4</text>
<polyline fill="none" stroke="#000000" points="852.41,-84.02 981.84,-84.02"/>
<text xml:space="preserve" text-anchor="middle" x="917.12" y="-68.82" font-family="Times,serif" font-size="14.00">elem = &#45;6666.00</text>
<polyline fill="none" stroke="#000000" points="852.41,-62.02 981.84,-62.02"/>
<text xml:space="preserve" text-anchor="middle" x="886.12" y="-46.82" font-family="Times,serif" font-size="14.00">prev = &#45;1</text>
<polyline fill="none" stroke="#000000" points="919.84,-40.02 919.84,-62.02"/>
<text xml:space="preserve" text-anchor="middle" x="950.84" y="-46.82" font-family="Times,serif" font-size="14.00">next = 0</text>
</g>
<!-- 3&#45;&gt;4 -->
<!-- 3&#45;&gt;4 -->
<g id="edge12" class="edge">
<title>3&#45;&gt;4</title>
<path fill="none" stroke="#ff8c00" d="M794.76,-80.91C810.11,-81.31 826.61,-81.37 842.36,-81.11"/>
<polygon fill="#ff8c00" stroke="#ff8c00" points="842.1,-84.09 850.53,-80.94 841.97,-78.15 842.1,-84.09"/>
</g>
<!-- 4&#45;&gt;0 -->
<g id="edge13" class="edge">
<title>4&#45;&gt;0</title>
<path fill="none" stroke="#ff8c00" d="M852.2,-45.22C833.89,-38.55 813.66,-32.39 794.41,-29.02 575.68,9.3 513.38,9.98 294.77,-29.02 278.68,-31.89 261.92,-36.77 246.22,-42.27"/>
<polygon fill="#ff8c00" stroke="#ff8c00" points="245.52,-39.36 238.54,-45.05 247.54,-44.96 245.52,-39.36"/>
</g>
<!-- head_label -->
<g id="node6" class="node">
<title>head_label</title>
<path fill="#20b2aa" stroke="#000000" d="M12,-176.02C12,-176.02 42,-176.02 42,-176.02 48,-176.02 54,-182.02 54,-188.02 54,-188.02 54,-200.02 54,-200.02 54,-206.02 48,-212.02 42,-212.02 42,-212.02 12,-212.02 12,-212.02 6,-212.02 0,-206.02 0,-200.02 0,-200.02 0,-188.02 0,-188.02 0,-182.02 6,-176.02 12,-176.02"/>
<text xml:space="preserve" text-anchor="middle" x="27" y="-190.42" font-family="Times,serif" font-size="12.00" fill="#000000">HEAD</text>
</g>
<!-- head_label&#45;&gt;1 -->
<g id="edge3" class="edge">
<title>head_label&#45;&gt;1</title>
<path fill="none" stroke="#20b2aa" d="M54.4,-184.52C94.05,-170.22 171.3,-142.27 236.77,-118.02 252.48,-112.2 269.34,-105.89 285.28,-99.88"/>
<polygon fill="#20b2aa" stroke="#20b2aa" points="286.23,-102.71 293.13,-96.92 284.13,-97.14 286.23,-102.71"/>
</g>
<!-- tail_label -->
<g id="node7" class="node">
<title>tail_label</title>
<path fill="#20b2aa" stroke="#000000" d="M159.39,-176.02C159.39,-176.02 189.39,-176.02 189.39,-176.02 195.39,-176.02 201.39,-182.02 201.39,-188.02 201.39,-188.02 201.39,-200.02 201.39,-200.02 201.39,-206.02 195.39,-212.02 189.39,-212.02 189.39,-212.02 159.39,-212.02 159.39,-212.02 153.39,-212.02 147.39,-206.02 147.39,-200.02 147.39,-200.02 147.39,-188.02 147.39,-188.02 147.39,-182.02 153.39,-176.02 159.39,-176.02"/>
<text xml:space="preserve" text-anchor="middle" x="174.39" y="-190.42" font-family="Times,serif" font-size="12.00" fill="#000000">TAIL</text>
</g>
<!-- head_label&#45;&gt;tail_label -->
<!-- tail_label&#45;&gt;1 -->
<g id="edge4" class="edge">
<title>tail_label&#45;&gt;1</title>
<path fill="none" stroke="#20b2aa" d="M201.68,-179.28C212.66,-172.95 225.47,-165.34 236.77,-158.02 258.93,-143.67 282.73,-127 303.2,-112.24"/>
<polygon fill="#20b2aa" stroke="#20b2aa" points="304.8,-114.75 309.94,-107.36 301.32,-109.93 304.8,-114.75"/>
</g>
<!-- free_label -->
<g id="node8" class="node">
<title>free_label</title>
<path fill="#20b2aa" stroke="#000000" d="M342.16,-176.02C342.16,-176.02 372.16,-176.02 372.16,-176.02 378.16,-176.02 384.16,-182.02 384.16,-188.02 384.16,-188.02 384.16,-200.02 384.16,-200.02 384.16,-206.02 378.16,-212.02 372.16,-212.02 372.16,-212.02 342.16,-212.02 342.16,-212.02 336.16,-212.02 330.16,-206.02 330.16,-200.02 330.16,-200.02 330.16,-188.02 330.16,-188.02 330.16,-182.02 336.16,-176.02 342.16,-176.02"/>
<text xml:space="preserve" text-anchor="middle" x="357.16" y="-190.42" font-family="Times,serif" font-size="12.00" fill="#000000">FREE</text>
</g>
<!-- tail_label&#45;&gt;free_label -->
<!-- free_label&#45;&gt;2 -->
<g id="edge5" class="edge">
<title>free_label&#45;&gt;2</title>
<path fill="none" stroke="#20b2aa" d="M384.39,-176.68C409.91,-159.81 449.57,-133.61 482.63,-111.76"/>
<polygon fill="#20b2aa" stroke="#20b2aa" points="484.16,-114.31 489.61,-107.15 480.88,-109.35 484.16,-114.31"/>
</g>
</g>
</svg>
