<?xml version="1.0" encoding="UTF-8" standalone="no"?>
<!DOCTYPE svg PUBLIC "-//W3C//DTD SVG 1.1//EN"
 "http://www.w3.org/Graphics/SVG/1.1/DTD/svg11.dtd">
<!-- Generated by graphviz version 14.0.2 (20251019.1705)
 -->
<!-- Title: G Pages: 1 -->
<svg width="1778pt" height="460pt"
 viewBox="0.00 0.00 1778.00 460.00" xmlns="http://www.w3.org/2000/svg" xmlns:xlink="http://www.w3.org/1999/xlink">
<g id="graph0" class="graph" transform="scale(1 1) rotate(0) translate(4 456)">
<title>G</title>
<polygon fill="#fffafa" stroke="none" points="-4,4 -4,-456 1773.8,-456 1773.8,4 -4,4"/>
<!-- 0 -->
<g id="node1" class="node">
<title>0</title>
<path fill="#cd5c5c" stroke="#000000" d="M12,-73C12,-73 119.77,-73 119.77,-73 125.77,-73 131.77,-79 131.77,-85 131.77,-85 131.77,-127 131.77,-127 131.77,-133 125.77,-139 119.77,-139 119.77,-139 12,-139 12,-139 6,-139 0,-133 0,-127 0,-127 0,-85 0,-85 0,-79 6,-73 12,-73"/>
<text xml:space="preserve" text-anchor="middle" x="65.89" y="-123.8" font-family="Times,serif" font-size="14.00">phys idx = 0</text>
<polyline fill="none" stroke="#000000" points="0,-117 131.77,-117"/>
<text xml:space="preserve" text-anchor="middle" x="65.89" y="-101.8" font-family="Times,serif" font-size="14.00">elem = &#45;6666.00</text>
<polyline fill="none" stroke="#000000" points="0,-95 131.77,-95"/>
<text xml:space="preserve" text-anchor="middle" x="34.89" y="-79.8" font-family="Times,serif" font-size="14.00">prev = 10</text>
<polyline fill="none" stroke="#000000" points="69.77,-73 69.77,-95"/>
<text xml:space="preserve" text-anchor="middle" x="100.77" y="-79.8" font-family="Times,serif" font-size="14.00">next = 1</text>
</g>
<!-- 1 -->
<g id="node2" class="node">
<title>1</title>
<path fill="#98fb98" stroke="#000000" d="M179.77,-73C179.77,-73 280.54,-73 280.54,-73 286.54,-73 292.54,-79 292.54,-85 292.54,-85 292.54,-127 292.54,-127 292.54,-133 286.54,-139 280.54,-139 280.54,-139 179.77,-139 179.77,-139 173.77,-139 167.77,-133 167.77,-127 167.77,-127 167.77,-85 167.77,-85 167.77,-79 173.77,-73 179.77,-73"/>
<text xml:space="preserve" text-anchor="middle" x="230.16" y="-123.8" font-family="Times,serif" font-size="14.00">phys idx = 1</text>
<polyline fill="none" stroke="#000000" points="167.77,-117 292.54,-117"/>
<text xml:space="preserve" text-anchor="middle" x="230.16" y="-101.8" font-family="Times,serif" font-size="14.00">elem = 11.00</text>
<polyline fill="none" stroke="#000000" points="167.77,-95 292.54,-95"/>
<text xml:space="preserve" text-anchor="middle" x="199.16" y="-79.8" font-family="Times,serif" font-size="14.00">prev = 0</text>
<polyline fill="none" stroke="#000000" points="230.54,-73 230.54,-95"/>
<text xml:space="preserve" text-anchor="middle" x="261.54" y="-79.8" font-family="Times,serif" font-size="14.00">next = 2</text>
</g>
<!-- 0&#45;&gt;1 -->
<!-- 0&#45;&gt;1 -->
<g id="edge11" class="edge">
<title>0&#45;&gt;1</title>
<path fill="none" stroke="#6a7075" d="M142.24,-117.17C142.24,-117.17 157.28,-117.17 157.28,-117.17"/>
<polygon fill="#6a7075" stroke="#6a7075" points="142.24,-114.19 133.74,-117.17 142.24,-120.14 142.24,-114.19"/>
<polygon fill="#6a7075" stroke="#6a7075" points="157.28,-120.14 165.78,-117.17 157.28,-114.19 157.28,-120.14"/>
</g>
<!-- 2 -->
<g id="node3" class="node">
<title>2</title>
<path fill="#98fb98" stroke="#000000" d="M340.54,-73C340.54,-73 441.31,-73 441.31,-73 447.31,-73 453.31,-79 453.31,-85 453.31,-85 453.31,-127 453.31,-127 453.31,-133 447.31,-139 441.31,-139 441.31,-139 340.54,-139 340.54,-139 334.54,-139 328.54,-133 328.54,-127 328.54,-127 328.54,-85 328.54,-85 328.54,-79 334.54,-73 340.54,-73"/>
<text xml:space="preserve" text-anchor="middle" x="390.93" y="-123.8" font-family="Times,serif" font-size="14.00">phys idx = 2</text>
<polyline fill="none" stroke="#000000" points="328.54,-117 453.31,-117"/>
<text xml:space="preserve" text-anchor="middle" x="390.93" y="-101.8" font-family="Times,serif" font-size="14.00">elem = 21.00</text>
<polyline fill="none" stroke="#000000" points="328.54,-95 453.31,-95"/>
<text xml:space="preserve" text-anchor="middle" x="359.93" y="-79.8" font-family="Times,serif" font-size="14.00">prev = 1</text>
<polyline fill="none" stroke="#000000" points="391.31,-73 391.31,-95"/>
<text xml:space="preserve" text-anchor="middle" x="422.31" y="-79.8" font-family="Times,serif" font-size="14.00">next = 3</text>
</g>
<!-- 1&#45;&gt;2 -->
<!-- 1&#45;&gt;2 -->
<g id="edge12" class="edge">
<title>1&#45;&gt;2</title>
<path fill="none" stroke="#6a7075" d="M302.79,-117.17C302.79,-117.17 318.2,-117.17 318.2,-117.17"/>
<polygon fill="#6a7075" stroke="#6a7075" points="302.79,-114.19 294.29,-117.17 302.79,-120.14 302.79,-114.19"/>
<polygon fill="#6a7075" stroke="#6a7075" points="318.2,-120.14 326.7,-117.17 318.2,-114.19 318.2,-120.14"/>
</g>
<!-- 3 -->
<g id="node4" class="node">
<title>3</title>
<path fill="#98fb98" stroke="#000000" d="M501.31,-73C501.31,-73 602.08,-73 602.08,-73 608.08,-73 614.08,-79 614.08,-85 614.08,-85 614.08,-127 614.08,-127 614.08,-133 608.08,-139 602.08,-139 602.08,-139 501.31,-139 501.31,-139 495.31,-139 489.31,-133 489.31,-127 489.31,-127 489.31,-85 489.31,-85 489.31,-79 495.31,-73 501.31,-73"/>
<text xml:space="preserve" text-anchor="middle" x="551.7" y="-123.8" font-family="Times,serif" font-size="14.00">phys idx = 3</text>
<polyline fill="none" stroke="#000000" points="489.31,-117 614.08,-117"/>
<text xml:space="preserve" text-anchor="middle" x="551.7" y="-101.8" font-family="Times,serif" font-size="14.00">elem = 31.00</text>
<polyline fill="none" stroke="#000000" points="489.31,-95 614.08,-95"/>
<text xml:space="preserve" text-anchor="middle" x="520.7" y="-79.8" font-family="Times,serif" font-size="14.00">prev = 2</text>
<polyline fill="none" stroke="#000000" points="552.08,-73 552.08,-95"/>
<text xml:space="preserve" text-anchor="middle" x="583.08" y="-79.8" font-family="Times,serif" font-size="14.00">next = 9</text>
</g>
<!-- 2&#45;&gt;3 -->
<!-- 2&#45;&gt;3 -->
<g id="edge13" class="edge">
<title>2&#45;&gt;3</title>
<path fill="none" stroke="#6a7075" d="M463.56,-117.17C463.56,-117.17 478.97,-117.17 478.97,-117.17"/>
<polygon fill="#6a7075" stroke="#6a7075" points="463.56,-114.19 455.06,-117.17 463.56,-120.14 463.56,-114.19"/>
<polygon fill="#6a7075" stroke="#6a7075" points="478.97,-120.14 487.47,-117.17 478.97,-114.19 478.97,-120.14"/>
</g>
<!-- 5 -->
<g id="node5" class="node">
<title>5</title>
<path fill="#bb0d12" stroke="#45322e" stroke-width="2" d="M662.08,-73C662.08,-73 776.85,-73 776.85,-73 782.85,-73 788.85,-79 788.85,-85 788.85,-85 788.85,-127 788.85,-127 788.85,-133 782.85,-139 776.85,-139 776.85,-139 662.08,-139 662.08,-139 656.08,-139 650.08,-133 650.08,-127 650.08,-127 650.08,-85 650.08,-85 650.08,-79 656.08,-73 662.08,-73"/>
<text xml:space="preserve" text-anchor="middle" x="719.47" y="-123.8" font-family="Times,serif" font-size="14.00">phys idx = 5</text>
<polyline fill="none" stroke="#45322e" stroke-width="2" points="650.08,-117 788.85,-117"/>
<text xml:space="preserve" text-anchor="middle" x="719.47" y="-101.8" font-family="Times,serif" font-size="14.00">elem = 51.00</text>
<polyline fill="none" stroke="#45322e" stroke-width="2" points="650.08,-95 788.85,-95"/>
<text xml:space="preserve" text-anchor="middle" x="684.97" y="-79.8" font-family="Times,serif" font-size="14.00">prev = 75</text>
<polyline fill="none" stroke="#45322e" stroke-width="2" points="719.85,-73 719.85,-95"/>
<text xml:space="preserve" text-anchor="middle" x="754.35" y="-79.8" font-family="Times,serif" font-size="14.00">next = 57</text>
</g>
<!-- 3&#45;&gt;5 -->
<!-- 9 -->
<g id="node10" class="node">
<title>9</title>
<path fill="#98fb98" stroke="#000000" d="M1165.39,-73C1165.39,-73 1266.16,-73 1266.16,-73 1272.16,-73 1278.16,-79 1278.16,-85 1278.16,-85 1278.16,-127 1278.16,-127 1278.16,-133 1272.16,-139 1266.16,-139 1266.16,-139 1165.39,-139 1165.39,-139 1159.39,-139 1153.39,-133 1153.39,-127 1153.39,-127 1153.39,-85 1153.39,-85 1153.39,-79 1159.39,-73 1165.39,-73"/>
<text xml:space="preserve" text-anchor="middle" x="1215.78" y="-123.8" font-family="Times,serif" font-size="14.00">phys idx = 9</text>
<polyline fill="none" stroke="#000000" points="1153.39,-117 1278.16,-117"/>
<text xml:space="preserve" text-anchor="middle" x="1215.78" y="-101.8" font-family="Times,serif" font-size="14.00">elem = 32.00</text>
<polyline fill="none" stroke="#000000" points="1153.39,-95 1278.16,-95"/>
<text xml:space="preserve" text-anchor="middle" x="1184.78" y="-79.8" font-family="Times,serif" font-size="14.00">prev = 3</text>
<polyline fill="none" stroke="#000000" points="1216.17,-73 1216.17,-95"/>
<text xml:space="preserve" text-anchor="middle" x="1247.16" y="-79.8" font-family="Times,serif" font-size="14.00">next = 8</text>
</g>
<!-- 3&#45;&gt;9 -->
<g id="edge14" class="edge">
<title>3&#45;&gt;9</title>
<path fill="none" stroke="#6a7075" d="M551.8,-149.3C551.8,-149.3 551.8,-166.88 551.8,-166.88 551.8,-166.88 1215.8,-166.88 1215.8,-166.88 1215.8,-166.88 1215.8,-149.3 1215.8,-149.3"/>
<polygon fill="#6a7075" stroke="#6a7075" points="554.77,-149.3 551.8,-140.8 548.82,-149.3 554.77,-149.3"/>
<polygon fill="#6a7075" stroke="#6a7075" points="1218.77,-149.3 1215.8,-140.8 1212.82,-149.3 1218.77,-149.3"/>
</g>
<!-- 57 -->
<g id="node7" class="node">
<title>57</title>
<polygon fill="#bb0d12" stroke="#000000" stroke-width="2" points="1082.01,-262.54 1082.01,-277.46 1066.19,-288 1043.82,-288 1028.01,-277.46 1028.01,-262.54 1043.82,-252 1066.19,-252 1082.01,-262.54"/>
<text xml:space="preserve" text-anchor="middle" x="1055.01" y="-265.8" font-family="Times,serif" font-size="14.00">57</text>
</g>
<!-- 5&#45;&gt;57 -->
<g id="edge17" class="edge">
<title>5&#45;&gt;57</title>
<path fill="none" stroke="#0000ff" stroke-width="2" d="M696.8,-139.98C696.8,-188.02 696.8,-270 696.8,-270 696.8,-270 1014.17,-270 1014.17,-270"/>
<polygon fill="#0000ff" stroke="#0000ff" stroke-width="2" points="1014.17,-273.5 1024.17,-270 1014.17,-266.5 1014.17,-273.5"/>
</g>
<!-- 6 -->
<g id="node8" class="node">
<title>6</title>
<path fill="#bb0d12" stroke="#45322e" stroke-width="2" d="M836.85,-73C836.85,-73 944.62,-73 944.62,-73 950.62,-73 956.62,-79 956.62,-85 956.62,-85 956.62,-127 956.62,-127 956.62,-133 950.62,-139 944.62,-139 944.62,-139 836.85,-139 836.85,-139 830.85,-139 824.85,-133 824.85,-127 824.85,-127 824.85,-85 824.85,-85 824.85,-79 830.85,-73 836.85,-73"/>
<text xml:space="preserve" text-anchor="middle" x="890.74" y="-123.8" font-family="Times,serif" font-size="14.00">phys idx = 6</text>
<polyline fill="none" stroke="#45322e" stroke-width="2" points="824.85,-117 956.62,-117"/>
<text xml:space="preserve" text-anchor="middle" x="890.74" y="-101.8" font-family="Times,serif" font-size="14.00">elem = 66.00</text>
<polyline fill="none" stroke="#45322e" stroke-width="2" points="824.85,-95 956.62,-95"/>
<text xml:space="preserve" text-anchor="middle" x="856.24" y="-79.8" font-family="Times,serif" font-size="14.00">prev = 5</text>
<polyline fill="none" stroke="#45322e" stroke-width="2" points="887.62,-73 887.62,-95"/>
<text xml:space="preserve" text-anchor="middle" x="922.12" y="-79.8" font-family="Times,serif" font-size="14.00">next = 10</text>
</g>
<!-- 5&#45;&gt;6 -->
<!-- 5&#45;&gt;6 -->
<g id="edge18" class="edge">
<title>5&#45;&gt;6</title>
<path fill="none" stroke="#ff4f00" stroke-width="1.5" d="M801.89,-94.83C801.89,-94.83 824,-94.83 824,-94.83"/>
<polygon fill="#ff4f00" stroke="#ff4f00" stroke-width="1.5" points="801.89,-91.33 791.89,-94.83 801.89,-98.33 801.89,-91.33"/>
</g>
<!-- 75 -->
<g id="node6" class="node">
<title>75</title>
<polygon fill="#bb0d12" stroke="#000000" stroke-width="2" points="92.89,-10.54 92.89,-25.46 77.07,-36 54.7,-36 38.89,-25.46 38.89,-10.54 54.7,0 77.07,0 92.89,-10.54"/>
<text xml:space="preserve" text-anchor="middle" x="65.89" y="-13.8" font-family="Times,serif" font-size="14.00">75</text>
</g>
<!-- 75&#45;&gt;5 -->
<g id="edge16" class="edge">
<title>75&#45;&gt;5</title>
<path fill="none" stroke="#ff4f00" stroke-width="2" d="M93.57,-18C218.03,-18 719.8,-18 719.8,-18 719.8,-18 719.8,-57.2 719.8,-57.2"/>
<polygon fill="#ff4f00" stroke="#ff4f00" stroke-width="2" points="715.6,-57.2 719.8,-69.2 724,-57.2 715.6,-57.2"/>
</g>
<!-- 8 -->
<g id="node9" class="node">
<title>8</title>
<path fill="#bb0d12" stroke="#45322e" stroke-width="2" d="M1004.62,-73C1004.62,-73 1105.39,-73 1105.39,-73 1111.39,-73 1117.39,-79 1117.39,-85 1117.39,-85 1117.39,-127 1117.39,-127 1117.39,-133 1111.39,-139 1105.39,-139 1105.39,-139 1004.62,-139 1004.62,-139 998.62,-139 992.62,-133 992.62,-127 992.62,-127 992.62,-85 992.62,-85 992.62,-79 998.62,-73 1004.62,-73"/>
<text xml:space="preserve" text-anchor="middle" x="1055.01" y="-123.8" font-family="Times,serif" font-size="14.00">phys idx = 8</text>
<polyline fill="none" stroke="#45322e" stroke-width="2" points="992.62,-117 1117.39,-117"/>
<text xml:space="preserve" text-anchor="middle" x="1055.01" y="-101.8" font-family="Times,serif" font-size="14.00">elem = 36.00</text>
<polyline fill="none" stroke="#45322e" stroke-width="2" points="992.62,-95 1117.39,-95"/>
<text xml:space="preserve" text-anchor="middle" x="1024.01" y="-79.8" font-family="Times,serif" font-size="14.00">prev = 9</text>
<polyline fill="none" stroke="#45322e" stroke-width="2" points="1055.39,-73 1055.39,-95"/>
<text xml:space="preserve" text-anchor="middle" x="1086.39" y="-79.8" font-family="Times,serif" font-size="14.00">next = 5</text>
</g>
<!-- 6&#45;&gt;8 -->
<!-- 10 -->
<g id="node11" class="node">
<title>10</title>
<path fill="#98fb98" stroke="#000000" d="M1326.16,-73C1326.16,-73 1426.93,-73 1426.93,-73 1432.93,-73 1438.93,-79 1438.93,-85 1438.93,-85 1438.93,-127 1438.93,-127 1438.93,-133 1432.93,-139 1426.93,-139 1426.93,-139 1326.16,-139 1326.16,-139 1320.16,-139 1314.16,-133 1314.16,-127 1314.16,-127 1314.16,-85 1314.16,-85 1314.16,-79 1320.16,-73 1326.16,-73"/>
<text xml:space="preserve" text-anchor="middle" x="1376.55" y="-123.8" font-family="Times,serif" font-size="14.00">phys idx = 10</text>
<polyline fill="none" stroke="#000000" points="1314.16,-117 1438.93,-117"/>
<text xml:space="preserve" text-anchor="middle" x="1376.55" y="-101.8" font-family="Times,serif" font-size="14.00">elem = 70.00</text>
<polyline fill="none" stroke="#000000" points="1314.16,-95 1438.93,-95"/>
<text xml:space="preserve" text-anchor="middle" x="1345.55" y="-79.8" font-family="Times,serif" font-size="14.00">prev = 6</text>
<polyline fill="none" stroke="#000000" points="1376.94,-73 1376.94,-95"/>
<text xml:space="preserve" text-anchor="middle" x="1407.94" y="-79.8" font-family="Times,serif" font-size="14.00">next = 0</text>
</g>
<!-- 6&#45;&gt;10 -->
<g id="edge19" class="edge">
<title>6&#45;&gt;10</title>
<path fill="none" stroke="#6a7075" d="M890.8,-147.76C890.8,-147.76 890.8,-148.62 890.8,-148.62 890.8,-148.62 1331.8,-148.62 1331.8,-148.62 1331.8,-148.62 1331.8,-147.68 1331.8,-147.68"/>
<polygon fill="#6a7075" stroke="#6a7075" points="893.77,-150.01 890.8,-141.51 887.82,-150.01 893.77,-150.01"/>
<polygon fill="#6a7075" stroke="#6a7075" points="1334.77,-149.18 1331.8,-140.68 1328.82,-149.18 1334.77,-149.18"/>
</g>
<!-- 8&#45;&gt;5 -->
<g id="edge21" class="edge">
<title>8&#45;&gt;5</title>
<path fill="none" stroke="#0000ff" stroke-width="1.5" d="M1010.8,-139.94C1010.8,-149.69 1010.8,-157.75 1010.8,-157.75 1010.8,-157.75 742.8,-157.75 742.8,-157.75 742.8,-157.75 742.8,-152.21 742.8,-152.21"/>
<polygon fill="#0000ff" stroke="#0000ff" stroke-width="1.5" points="746.3,-152.21 742.8,-142.21 739.3,-152.21 746.3,-152.21"/>
</g>
<!-- 8&#45;&gt;9 -->
<!-- 9&#45;&gt;8 -->
<g id="edge22" class="edge">
<title>9&#45;&gt;8</title>
<path fill="none" stroke="#6a7075" d="M1143.15,-117.17C1143.15,-117.17 1128.26,-117.17 1128.26,-117.17"/>
<polygon fill="#6a7075" stroke="#6a7075" points="1143.15,-120.14 1151.65,-117.17 1143.15,-114.19 1143.15,-120.14"/>
<polygon fill="#6a7075" stroke="#6a7075" points="1128.26,-114.19 1119.76,-117.17 1128.26,-120.14 1128.26,-114.19"/>
</g>
<!-- 9&#45;&gt;10 -->
<!-- 10&#45;&gt;0 -->
<g id="edge23" class="edge">
<title>10&#45;&gt;0</title>
<path fill="none" stroke="#6a7075" d="M1376.8,-62.8C1376.8,-62.8 1376.8,-60.33 1376.8,-60.33 1376.8,-60.33 118.8,-60.33 118.8,-60.33 118.8,-60.33 118.8,-62.8 118.8,-62.8"/>
<polygon fill="#6a7075" stroke="#6a7075" points="1373.82,-62.8 1376.8,-71.3 1379.77,-62.8 1373.82,-62.8"/>
<polygon fill="#6a7075" stroke="#6a7075" points="115.82,-62.8 118.8,-71.3 121.77,-62.8 115.82,-62.8"/>
</g>
<!-- 4 -->
<g id="node12" class="node">
<title>4</title>
<path fill="#82898f" stroke="#000000" d="M1486.93,-73C1486.93,-73 1592.37,-73 1592.37,-73 1598.37,-73 1604.37,-79 1604.37,-85 1604.37,-85 1604.37,-127 1604.37,-127 1604.37,-133 1598.37,-139 1592.37,-139 1592.37,-139 1486.93,-139 1486.93,-139 1480.93,-139 1474.93,-133 1474.93,-127 1474.93,-127 1474.93,-85 1474.93,-85 1474.93,-79 1480.93,-73 1486.93,-73"/>
<text xml:space="preserve" text-anchor="middle" x="1539.65" y="-123.8" font-family="Times,serif" font-size="14.00">phys idx = 4</text>
<polyline fill="none" stroke="#000000" points="1474.93,-117 1604.37,-117"/>
<text xml:space="preserve" text-anchor="middle" x="1539.65" y="-101.8" font-family="Times,serif" font-size="14.00">elem = &#45;6666.00</text>
<polyline fill="none" stroke="#000000" points="1474.93,-95 1604.37,-95"/>
<text xml:space="preserve" text-anchor="middle" x="1508.65" y="-79.8" font-family="Times,serif" font-size="14.00">prev = &#45;1</text>
<polyline fill="none" stroke="#000000" points="1542.37,-73 1542.37,-95"/>
<text xml:space="preserve" text-anchor="middle" x="1573.37" y="-79.8" font-family="Times,serif" font-size="14.00">next = 0</text>
</g>
<!-- 10&#45;&gt;4 -->
<!-- 4&#45;&gt;0 -->
<g id="edge15" class="edge">
<title>4&#45;&gt;0</title>
<path fill="none" stroke="#44944a" d="M1539.8,-72.69C1539.8,-59.84 1539.8,-48.17 1539.8,-48.17 1539.8,-48.17 105.8,-48.17 105.8,-48.17 105.8,-48.17 105.8,-62.68 105.8,-62.68"/>
<polygon fill="#44944a" stroke="#44944a" points="102.82,-62.68 105.8,-71.18 108.77,-62.68 102.82,-62.68"/>
</g>
<!-- 7 -->
<g id="node13" class="node">
<title>7</title>
<path fill="#82898f" stroke="#000000" d="M1652.37,-73C1652.37,-73 1757.8,-73 1757.8,-73 1763.8,-73 1769.8,-79 1769.8,-85 1769.8,-85 1769.8,-127 1769.8,-127 1769.8,-133 1763.8,-139 1757.8,-139 1757.8,-139 1652.37,-139 1652.37,-139 1646.37,-139 1640.37,-133 1640.37,-127 1640.37,-127 1640.37,-85 1640.37,-85 1640.37,-79 1646.37,-73 1652.37,-73"/>
<text xml:space="preserve" text-anchor="middle" x="1705.08" y="-123.8" font-family="Times,serif" font-size="14.00">phys idx = 7</text>
<polyline fill="none" stroke="#000000" points="1640.37,-117 1769.8,-117"/>
<text xml:space="preserve" text-anchor="middle" x="1705.08" y="-101.8" font-family="Times,serif" font-size="14.00">elem = &#45;6666.00</text>
<polyline fill="none" stroke="#000000" points="1640.37,-95 1769.8,-95"/>
<text xml:space="preserve" text-anchor="middle" x="1674.08" y="-79.8" font-family="Times,serif" font-size="14.00">prev = &#45;1</text>
<polyline fill="none" stroke="#000000" points="1707.8,-73 1707.8,-95"/>
<text xml:space="preserve" text-anchor="middle" x="1738.8" y="-79.8" font-family="Times,serif" font-size="14.00">next = 4</text>
</g>
<!-- 4&#45;&gt;7 -->
<!-- 7&#45;&gt;4 -->
<g id="edge20" class="edge">
<title>7&#45;&gt;4</title>
<path fill="none" stroke="#44944a" d="M1640.17,-117.17C1640.17,-117.17 1614.66,-117.17 1614.66,-117.17"/>
<polygon fill="#44944a" stroke="#44944a" points="1614.66,-114.19 1606.16,-117.17 1614.66,-120.14 1614.66,-114.19"/>
</g>
<!-- head_label -->
<g id="node14" class="node">
<title>head_label</title>
<polygon fill="#879eac" stroke="#fff4cc" points="257.16,-452 203.16,-452 203.16,-416 257.16,-416 257.16,-452"/>
<text xml:space="preserve" text-anchor="middle" x="230.16" y="-430.4" font-family="Times,serif" font-size="12.00" fill="#fff4cc">HEAD</text>
</g>
<!-- head_label&#45;&gt;1 -->
<g id="edge24" class="edge">
<title>head_label&#45;&gt;1</title>
<path fill="none" stroke="#fff4cc" d="M229.8,-415.9C229.8,-415.9 229.8,-149.38 229.8,-149.38"/>
<polygon fill="#fff4cc" stroke="#fff4cc" points="232.77,-149.38 229.8,-140.88 226.82,-149.38 232.77,-149.38"/>
</g>
<!-- tail_label -->
<g id="node15" class="node">
<title>tail_label</title>
<polygon fill="#879eac" stroke="#fff4cc" points="1403.55,-213 1349.55,-213 1349.55,-177 1403.55,-177 1403.55,-213"/>
<text xml:space="preserve" text-anchor="middle" x="1376.55" y="-191.4" font-family="Times,serif" font-size="12.00" fill="#fff4cc">TAIL</text>
</g>
<!-- tail_label&#45;&gt;10 -->
<g id="edge25" class="edge">
<title>tail_label&#45;&gt;10</title>
<path fill="none" stroke="#fff4cc" d="M1376.8,-176.56C1376.8,-176.56 1376.8,-149.18 1376.8,-149.18"/>
<polygon fill="#fff4cc" stroke="#fff4cc" points="1379.77,-149.18 1376.8,-140.68 1373.82,-149.18 1379.77,-149.18"/>
</g>
<!-- free_label -->
<g id="node16" class="node">
<title>free_label</title>
<polygon fill="#879eac" stroke="#fff4cc" points="1732.08,-212 1678.08,-212 1678.08,-176 1732.08,-176 1732.08,-212"/>
<text xml:space="preserve" text-anchor="middle" x="1705.08" y="-190.4" font-family="Times,serif" font-size="12.00" fill="#fff4cc">FREE</text>
</g>
<!-- free_label&#45;&gt;7 -->
<g id="edge26" class="edge">
<title>free_label&#45;&gt;7</title>
<path fill="none" stroke="#fff4cc" d="M1704.8,-175.77C1704.8,-175.77 1704.8,-149.16 1704.8,-149.16"/>
<polygon fill="#fff4cc" stroke="#fff4cc" points="1707.77,-149.16 1704.8,-140.66 1701.82,-149.16 1707.77,-149.16"/>
</g>
</g>
</svg>
