<?xml version="1.0" encoding="UTF-8" standalone="no"?>
<!DOCTYPE svg PUBLIC "-//W3C//DTD SVG 1.1//EN"
 "http://www.w3.org/Graphics/SVG/1.1/DTD/svg11.dtd">
<!-- Generated by graphviz version 14.0.2 (20251019.1705)
 -->
<!-- Title: G Pages: 1 -->
<svg width="1761pt" height="148pt"
 viewBox="0.00 0.00 1761.00 148.00" xmlns="http://www.w3.org/2000/svg" xmlns:xlink="http://www.w3.org/1999/xlink">
<g id="graph0" class="graph" transform="scale(1 1) rotate(0) translate(4 143.5)">
<title>G</title>
<polygon fill="#fffafa" stroke="none" points="-4,4 -4,-143.5 1757.46,-143.5 1757.46,4 -4,4"/>
<!-- 0 -->
<g id="node1" class="node">
<title>0</title>
<path fill="#cd5c5c" stroke="#000000" d="M12,-0.5C12,-0.5 112.77,-0.5 112.77,-0.5 118.77,-0.5 124.77,-6.5 124.77,-12.5 124.77,-12.5 124.77,-54.5 124.77,-54.5 124.77,-60.5 118.77,-66.5 112.77,-66.5 112.77,-66.5 12,-66.5 12,-66.5 6,-66.5 0,-60.5 0,-54.5 0,-54.5 0,-12.5 0,-12.5 0,-6.5 6,-0.5 12,-0.5"/>
<text xml:space="preserve" text-anchor="middle" x="62.39" y="-51.3" font-family="Times,serif" font-size="14.00">phys idx = 0</text>
<polyline fill="none" stroke="#000000" points="0,-44.5 124.77,-44.5"/>
<text xml:space="preserve" text-anchor="middle" x="62.39" y="-29.3" font-family="Times,serif" font-size="14.00">elem = &#45;6666.00</text>
<polyline fill="none" stroke="#000000" points="0,-22.5 124.77,-22.5"/>
<text xml:space="preserve" text-anchor="middle" x="31.39" y="-7.3" font-family="Times,serif" font-size="14.00">prev = 6</text>
<polyline fill="none" stroke="#000000" points="62.77,-0.5 62.77,-22.5"/>
<text xml:space="preserve" text-anchor="middle" x="93.77" y="-7.3" font-family="Times,serif" font-size="14.00">next = 1</text>
</g>
<!-- 1 -->
<g id="node2" class="node">
<title>1</title>
<path fill="#98fb98" stroke="#000000" d="M172.77,-0.5C172.77,-0.5 273.54,-0.5 273.54,-0.5 279.54,-0.5 285.54,-6.5 285.54,-12.5 285.54,-12.5 285.54,-54.5 285.54,-54.5 285.54,-60.5 279.54,-66.5 273.54,-66.5 273.54,-66.5 172.77,-66.5 172.77,-66.5 166.77,-66.5 160.77,-60.5 160.77,-54.5 160.77,-54.5 160.77,-12.5 160.77,-12.5 160.77,-6.5 166.77,-0.5 172.77,-0.5"/>
<text xml:space="preserve" text-anchor="middle" x="223.16" y="-51.3" font-family="Times,serif" font-size="14.00">phys idx = 1</text>
<polyline fill="none" stroke="#000000" points="160.77,-44.5 285.54,-44.5"/>
<text xml:space="preserve" text-anchor="middle" x="223.16" y="-29.3" font-family="Times,serif" font-size="14.00">elem = 11.00</text>
<polyline fill="none" stroke="#000000" points="160.77,-22.5 285.54,-22.5"/>
<text xml:space="preserve" text-anchor="middle" x="192.16" y="-7.3" font-family="Times,serif" font-size="14.00">prev = 0</text>
<polyline fill="none" stroke="#000000" points="223.54,-0.5 223.54,-22.5"/>
<text xml:space="preserve" text-anchor="middle" x="254.54" y="-7.3" font-family="Times,serif" font-size="14.00">next = 2</text>
</g>
<!-- 0&#45;&gt;1 -->
<!-- 0&#45;&gt;1 -->
<g id="edge11" class="edge">
<title>0&#45;&gt;1</title>
<path fill="none" stroke="#6a7075" d="M135.02,-44.67C135.02,-44.67 150.43,-44.67 150.43,-44.67"/>
<polygon fill="#6a7075" stroke="#6a7075" points="135.02,-41.69 126.52,-44.67 135.02,-47.64 135.02,-41.69"/>
<polygon fill="#6a7075" stroke="#6a7075" points="150.43,-47.64 158.93,-44.67 150.43,-41.69 150.43,-47.64"/>
</g>
<!-- 2 -->
<g id="node3" class="node">
<title>2</title>
<path fill="#98fb98" stroke="#000000" d="M333.54,-0.5C333.54,-0.5 434.31,-0.5 434.31,-0.5 440.31,-0.5 446.31,-6.5 446.31,-12.5 446.31,-12.5 446.31,-54.5 446.31,-54.5 446.31,-60.5 440.31,-66.5 434.31,-66.5 434.31,-66.5 333.54,-66.5 333.54,-66.5 327.54,-66.5 321.54,-60.5 321.54,-54.5 321.54,-54.5 321.54,-12.5 321.54,-12.5 321.54,-6.5 327.54,-0.5 333.54,-0.5"/>
<text xml:space="preserve" text-anchor="middle" x="383.93" y="-51.3" font-family="Times,serif" font-size="14.00">phys idx = 2</text>
<polyline fill="none" stroke="#000000" points="321.54,-44.5 446.31,-44.5"/>
<text xml:space="preserve" text-anchor="middle" x="383.93" y="-29.3" font-family="Times,serif" font-size="14.00">elem = 21.00</text>
<polyline fill="none" stroke="#000000" points="321.54,-22.5 446.31,-22.5"/>
<text xml:space="preserve" text-anchor="middle" x="352.93" y="-7.3" font-family="Times,serif" font-size="14.00">prev = 1</text>
<polyline fill="none" stroke="#000000" points="384.31,-0.5 384.31,-22.5"/>
<text xml:space="preserve" text-anchor="middle" x="415.31" y="-7.3" font-family="Times,serif" font-size="14.00">next = 3</text>
</g>
<!-- 1&#45;&gt;2 -->
<!-- 1&#45;&gt;2 -->
<g id="edge12" class="edge">
<title>1&#45;&gt;2</title>
<path fill="none" stroke="#6a7075" d="M295.79,-22.33C295.79,-22.33 311.2,-22.33 311.2,-22.33"/>
<polygon fill="#6a7075" stroke="#6a7075" points="295.79,-19.36 287.29,-22.33 295.79,-25.31 295.79,-19.36"/>
<polygon fill="#6a7075" stroke="#6a7075" points="311.2,-25.31 319.7,-22.33 311.2,-19.36 311.2,-25.31"/>
</g>
<!-- 3 -->
<g id="node4" class="node">
<title>3</title>
<path fill="#98fb98" stroke="#000000" d="M494.31,-0.5C494.31,-0.5 595.08,-0.5 595.08,-0.5 601.08,-0.5 607.08,-6.5 607.08,-12.5 607.08,-12.5 607.08,-54.5 607.08,-54.5 607.08,-60.5 601.08,-66.5 595.08,-66.5 595.08,-66.5 494.31,-66.5 494.31,-66.5 488.31,-66.5 482.31,-60.5 482.31,-54.5 482.31,-54.5 482.31,-12.5 482.31,-12.5 482.31,-6.5 488.31,-0.5 494.31,-0.5"/>
<text xml:space="preserve" text-anchor="middle" x="544.7" y="-51.3" font-family="Times,serif" font-size="14.00">phys idx = 3</text>
<polyline fill="none" stroke="#000000" points="482.31,-44.5 607.08,-44.5"/>
<text xml:space="preserve" text-anchor="middle" x="544.7" y="-29.3" font-family="Times,serif" font-size="14.00">elem = 31.00</text>
<polyline fill="none" stroke="#000000" points="482.31,-22.5 607.08,-22.5"/>
<text xml:space="preserve" text-anchor="middle" x="513.7" y="-7.3" font-family="Times,serif" font-size="14.00">prev = 2</text>
<polyline fill="none" stroke="#000000" points="545.08,-0.5 545.08,-22.5"/>
<text xml:space="preserve" text-anchor="middle" x="576.08" y="-7.3" font-family="Times,serif" font-size="14.00">next = 7</text>
</g>
<!-- 2&#45;&gt;3 -->
<!-- 2&#45;&gt;3 -->
<g id="edge13" class="edge">
<title>2&#45;&gt;3</title>
<path fill="none" stroke="#6a7075" d="M456.56,-44.67C456.56,-44.67 471.97,-44.67 471.97,-44.67"/>
<polygon fill="#6a7075" stroke="#6a7075" points="456.56,-41.69 448.06,-44.67 456.56,-47.64 456.56,-41.69"/>
<polygon fill="#6a7075" stroke="#6a7075" points="471.97,-47.64 480.47,-44.67 471.97,-41.69 471.97,-47.64"/>
</g>
<!-- 4 -->
<g id="node5" class="node">
<title>4</title>
<path fill="#98fb98" stroke="#000000" d="M655.08,-0.5C655.08,-0.5 755.85,-0.5 755.85,-0.5 761.85,-0.5 767.85,-6.5 767.85,-12.5 767.85,-12.5 767.85,-54.5 767.85,-54.5 767.85,-60.5 761.85,-66.5 755.85,-66.5 755.85,-66.5 655.08,-66.5 655.08,-66.5 649.08,-66.5 643.08,-60.5 643.08,-54.5 643.08,-54.5 643.08,-12.5 643.08,-12.5 643.08,-6.5 649.08,-0.5 655.08,-0.5"/>
<text xml:space="preserve" text-anchor="middle" x="705.47" y="-51.3" font-family="Times,serif" font-size="14.00">phys idx = 4</text>
<polyline fill="none" stroke="#000000" points="643.08,-44.5 767.85,-44.5"/>
<text xml:space="preserve" text-anchor="middle" x="705.47" y="-29.3" font-family="Times,serif" font-size="14.00">elem = 41.00</text>
<polyline fill="none" stroke="#000000" points="643.08,-22.5 767.85,-22.5"/>
<text xml:space="preserve" text-anchor="middle" x="674.47" y="-7.3" font-family="Times,serif" font-size="14.00">prev = 7</text>
<polyline fill="none" stroke="#000000" points="705.85,-0.5 705.85,-22.5"/>
<text xml:space="preserve" text-anchor="middle" x="736.85" y="-7.3" font-family="Times,serif" font-size="14.00">next = 5</text>
</g>
<!-- 3&#45;&gt;4 -->
<!-- 7 -->
<g id="node8" class="node">
<title>7</title>
<path fill="#98fb98" stroke="#000000" d="M1137.39,-0.5C1137.39,-0.5 1238.16,-0.5 1238.16,-0.5 1244.16,-0.5 1250.16,-6.5 1250.16,-12.5 1250.16,-12.5 1250.16,-54.5 1250.16,-54.5 1250.16,-60.5 1244.16,-66.5 1238.16,-66.5 1238.16,-66.5 1137.39,-66.5 1137.39,-66.5 1131.39,-66.5 1125.39,-60.5 1125.39,-54.5 1125.39,-54.5 1125.39,-12.5 1125.39,-12.5 1125.39,-6.5 1131.39,-0.5 1137.39,-0.5"/>
<text xml:space="preserve" text-anchor="middle" x="1187.78" y="-51.3" font-family="Times,serif" font-size="14.00">phys idx = 7</text>
<polyline fill="none" stroke="#000000" points="1125.39,-44.5 1250.16,-44.5"/>
<text xml:space="preserve" text-anchor="middle" x="1187.78" y="-29.3" font-family="Times,serif" font-size="14.00">elem = 35.00</text>
<polyline fill="none" stroke="#000000" points="1125.39,-22.5 1250.16,-22.5"/>
<text xml:space="preserve" text-anchor="middle" x="1156.78" y="-7.3" font-family="Times,serif" font-size="14.00">prev = 3</text>
<polyline fill="none" stroke="#000000" points="1188.17,-0.5 1188.17,-22.5"/>
<text xml:space="preserve" text-anchor="middle" x="1219.16" y="-7.3" font-family="Times,serif" font-size="14.00">next = 4</text>
</g>
<!-- 3&#45;&gt;7 -->
<g id="edge14" class="edge">
<title>3&#45;&gt;7</title>
<path fill="none" stroke="#6a7075" d="M544.46,-76.7C544.46,-76.7 544.46,-88.9 544.46,-88.9 544.46,-88.9 1167.46,-88.9 1167.46,-88.9 1167.46,-88.9 1167.46,-76.7 1167.46,-76.7"/>
<polygon fill="#6a7075" stroke="#6a7075" points="547.44,-76.7 544.46,-68.2 541.49,-76.7 547.44,-76.7"/>
<polygon fill="#6a7075" stroke="#6a7075" points="1170.44,-76.7 1167.46,-68.2 1164.49,-76.7 1170.44,-76.7"/>
</g>
<!-- 5 -->
<g id="node6" class="node">
<title>5</title>
<path fill="#98fb98" stroke="#000000" d="M815.85,-0.5C815.85,-0.5 916.62,-0.5 916.62,-0.5 922.62,-0.5 928.62,-6.5 928.62,-12.5 928.62,-12.5 928.62,-54.5 928.62,-54.5 928.62,-60.5 922.62,-66.5 916.62,-66.5 916.62,-66.5 815.85,-66.5 815.85,-66.5 809.85,-66.5 803.85,-60.5 803.85,-54.5 803.85,-54.5 803.85,-12.5 803.85,-12.5 803.85,-6.5 809.85,-0.5 815.85,-0.5"/>
<text xml:space="preserve" text-anchor="middle" x="866.24" y="-51.3" font-family="Times,serif" font-size="14.00">phys idx = 5</text>
<polyline fill="none" stroke="#000000" points="803.85,-44.5 928.62,-44.5"/>
<text xml:space="preserve" text-anchor="middle" x="866.24" y="-29.3" font-family="Times,serif" font-size="14.00">elem = 51.00</text>
<polyline fill="none" stroke="#000000" points="803.85,-22.5 928.62,-22.5"/>
<text xml:space="preserve" text-anchor="middle" x="835.24" y="-7.3" font-family="Times,serif" font-size="14.00">prev = 4</text>
<polyline fill="none" stroke="#000000" points="866.62,-0.5 866.62,-22.5"/>
<text xml:space="preserve" text-anchor="middle" x="897.62" y="-7.3" font-family="Times,serif" font-size="14.00">next = 6</text>
</g>
<!-- 4&#45;&gt;5 -->
<!-- 4&#45;&gt;5 -->
<g id="edge15" class="edge">
<title>4&#45;&gt;5</title>
<path fill="none" stroke="#6a7075" d="M778.1,-44.67C778.1,-44.67 793.51,-44.67 793.51,-44.67"/>
<polygon fill="#6a7075" stroke="#6a7075" points="778.1,-41.69 769.6,-44.67 778.1,-47.64 778.1,-41.69"/>
<polygon fill="#6a7075" stroke="#6a7075" points="793.51,-47.64 802.01,-44.67 793.51,-41.69 793.51,-47.64"/>
</g>
<!-- 6 -->
<g id="node7" class="node">
<title>6</title>
<path fill="#98fb98" stroke="#000000" d="M976.62,-0.5C976.62,-0.5 1077.39,-0.5 1077.39,-0.5 1083.39,-0.5 1089.39,-6.5 1089.39,-12.5 1089.39,-12.5 1089.39,-54.5 1089.39,-54.5 1089.39,-60.5 1083.39,-66.5 1077.39,-66.5 1077.39,-66.5 976.62,-66.5 976.62,-66.5 970.62,-66.5 964.62,-60.5 964.62,-54.5 964.62,-54.5 964.62,-12.5 964.62,-12.5 964.62,-6.5 970.62,-0.5 976.62,-0.5"/>
<text xml:space="preserve" text-anchor="middle" x="1027.01" y="-51.3" font-family="Times,serif" font-size="14.00">phys idx = 6</text>
<polyline fill="none" stroke="#000000" points="964.62,-44.5 1089.39,-44.5"/>
<text xml:space="preserve" text-anchor="middle" x="1027.01" y="-29.3" font-family="Times,serif" font-size="14.00">elem = 61.00</text>
<polyline fill="none" stroke="#000000" points="964.62,-22.5 1089.39,-22.5"/>
<text xml:space="preserve" text-anchor="middle" x="996.01" y="-7.3" font-family="Times,serif" font-size="14.00">prev = 5</text>
<polyline fill="none" stroke="#000000" points="1027.39,-0.5 1027.39,-22.5"/>
<text xml:space="preserve" text-anchor="middle" x="1058.39" y="-7.3" font-family="Times,serif" font-size="14.00">next = 0</text>
</g>
<!-- 5&#45;&gt;6 -->
<!-- 5&#45;&gt;6 -->
<g id="edge16" class="edge">
<title>5&#45;&gt;6</title>
<path fill="none" stroke="#6a7075" d="M938.87,-44.67C938.87,-44.67 954.28,-44.67 954.28,-44.67"/>
<polygon fill="#6a7075" stroke="#6a7075" points="938.87,-41.69 930.37,-44.67 938.87,-47.64 938.87,-41.69"/>
<polygon fill="#6a7075" stroke="#6a7075" points="954.28,-47.64 962.78,-44.67 954.28,-41.69 954.28,-47.64"/>
</g>
<!-- 6&#45;&gt;0 -->
<g id="edge17" class="edge">
<title>6&#45;&gt;0</title>
<path fill="none" stroke="#6a7075" d="M982.46,-73.55C982.46,-73.55 982.46,-74.3 982.46,-74.3 982.46,-74.3 83.46,-74.3 83.46,-74.3 83.46,-74.3 83.46,-73.55 83.46,-73.55"/>
<polygon fill="#6a7075" stroke="#6a7075" points="985.44,-76.83 982.46,-68.33 979.49,-76.83 985.44,-76.83"/>
<polygon fill="#6a7075" stroke="#6a7075" points="86.44,-76.83 83.46,-68.33 80.49,-76.83 86.44,-76.83"/>
</g>
<!-- 6&#45;&gt;7 -->
<!-- 7&#45;&gt;4 -->
<g id="edge18" class="edge">
<title>7&#45;&gt;4</title>
<path fill="none" stroke="#6a7075" d="M1208.46,-76.92C1208.46,-76.92 1208.46,-81.6 1208.46,-81.6 1208.46,-81.6 705.46,-81.6 705.46,-81.6 705.46,-81.6 705.46,-76.92 705.46,-76.92"/>
<polygon fill="#6a7075" stroke="#6a7075" points="1211.44,-76.92 1208.46,-68.42 1205.49,-76.92 1211.44,-76.92"/>
<polygon fill="#6a7075" stroke="#6a7075" points="708.44,-76.92 705.46,-68.42 702.49,-76.92 708.44,-76.92"/>
</g>
<!-- 8 -->
<g id="node9" class="node">
<title>8</title>
<path fill="#82898f" stroke="#000000" d="M1298.16,-0.5C1298.16,-0.5 1403.6,-0.5 1403.6,-0.5 1409.6,-0.5 1415.6,-6.5 1415.6,-12.5 1415.6,-12.5 1415.6,-54.5 1415.6,-54.5 1415.6,-60.5 1409.6,-66.5 1403.6,-66.5 1403.6,-66.5 1298.16,-66.5 1298.16,-66.5 1292.16,-66.5 1286.16,-60.5 1286.16,-54.5 1286.16,-54.5 1286.16,-12.5 1286.16,-12.5 1286.16,-6.5 1292.16,-0.5 1298.16,-0.5"/>
<text xml:space="preserve" text-anchor="middle" x="1350.88" y="-51.3" font-family="Times,serif" font-size="14.00">phys idx = 8</text>
<polyline fill="none" stroke="#000000" points="1286.16,-44.5 1415.6,-44.5"/>
<text xml:space="preserve" text-anchor="middle" x="1350.88" y="-29.3" font-family="Times,serif" font-size="14.00">elem = &#45;6666.00</text>
<polyline fill="none" stroke="#000000" points="1286.16,-22.5 1415.6,-22.5"/>
<text xml:space="preserve" text-anchor="middle" x="1319.88" y="-7.3" font-family="Times,serif" font-size="14.00">prev = &#45;1</text>
<polyline fill="none" stroke="#000000" points="1353.6,-0.5 1353.6,-22.5"/>
<text xml:space="preserve" text-anchor="middle" x="1384.6" y="-7.3" font-family="Times,serif" font-size="14.00">next = 9</text>
</g>
<!-- 7&#45;&gt;8 -->
<!-- 9 -->
<g id="node10" class="node">
<title>9</title>
<path fill="#82898f" stroke="#000000" d="M1463.6,-0.5C1463.6,-0.5 1576.03,-0.5 1576.03,-0.5 1582.03,-0.5 1588.03,-6.5 1588.03,-12.5 1588.03,-12.5 1588.03,-54.5 1588.03,-54.5 1588.03,-60.5 1582.03,-66.5 1576.03,-66.5 1576.03,-66.5 1463.6,-66.5 1463.6,-66.5 1457.6,-66.5 1451.6,-60.5 1451.6,-54.5 1451.6,-54.5 1451.6,-12.5 1451.6,-12.5 1451.6,-6.5 1457.6,-0.5 1463.6,-0.5"/>
<text xml:space="preserve" text-anchor="middle" x="1519.81" y="-51.3" font-family="Times,serif" font-size="14.00">phys idx = 9</text>
<polyline fill="none" stroke="#000000" points="1451.6,-44.5 1588.03,-44.5"/>
<text xml:space="preserve" text-anchor="middle" x="1519.81" y="-29.3" font-family="Times,serif" font-size="14.00">elem = &#45;6666.00</text>
<polyline fill="none" stroke="#000000" points="1451.6,-22.5 1588.03,-22.5"/>
<text xml:space="preserve" text-anchor="middle" x="1485.31" y="-7.3" font-family="Times,serif" font-size="14.00">prev = &#45;1</text>
<polyline fill="none" stroke="#000000" points="1519.03,-0.5 1519.03,-22.5"/>
<text xml:space="preserve" text-anchor="middle" x="1553.53" y="-7.3" font-family="Times,serif" font-size="14.00">next = 10</text>
</g>
<!-- 8&#45;&gt;9 -->
<!-- 8&#45;&gt;9 -->
<g id="edge19" class="edge">
<title>8&#45;&gt;9</title>
<path fill="none" stroke="#44944a" d="M1415.71,-44.67C1415.71,-44.67 1441.22,-44.67 1441.22,-44.67"/>
<polygon fill="#44944a" stroke="#44944a" points="1441.22,-47.64 1449.72,-44.67 1441.22,-41.69 1441.22,-47.64"/>
</g>
<!-- 10 -->
<g id="node11" class="node">
<title>10</title>
<path fill="#82898f" stroke="#000000" d="M1636.03,-0.5C1636.03,-0.5 1741.46,-0.5 1741.46,-0.5 1747.46,-0.5 1753.46,-6.5 1753.46,-12.5 1753.46,-12.5 1753.46,-54.5 1753.46,-54.5 1753.46,-60.5 1747.46,-66.5 1741.46,-66.5 1741.46,-66.5 1636.03,-66.5 1636.03,-66.5 1630.03,-66.5 1624.03,-60.5 1624.03,-54.5 1624.03,-54.5 1624.03,-12.5 1624.03,-12.5 1624.03,-6.5 1630.03,-0.5 1636.03,-0.5"/>
<text xml:space="preserve" text-anchor="middle" x="1688.75" y="-51.3" font-family="Times,serif" font-size="14.00">phys idx = 10</text>
<polyline fill="none" stroke="#000000" points="1624.03,-44.5 1753.46,-44.5"/>
<text xml:space="preserve" text-anchor="middle" x="1688.75" y="-29.3" font-family="Times,serif" font-size="14.00">elem = &#45;6666.00</text>
<polyline fill="none" stroke="#000000" points="1624.03,-22.5 1753.46,-22.5"/>
<text xml:space="preserve" text-anchor="middle" x="1657.75" y="-7.3" font-family="Times,serif" font-size="14.00">prev = &#45;1</text>
<polyline fill="none" stroke="#000000" points="1691.46,-0.5 1691.46,-22.5"/>
<text xml:space="preserve" text-anchor="middle" x="1722.46" y="-7.3" font-family="Times,serif" font-size="14.00">next = 0</text>
</g>
<!-- 9&#45;&gt;10 -->
<!-- 9&#45;&gt;10 -->
<g id="edge20" class="edge">
<title>9&#45;&gt;10</title>
<path fill="none" stroke="#44944a" d="M1588.52,-44.67C1588.52,-44.67 1613.63,-44.67 1613.63,-44.67"/>
<polygon fill="#44944a" stroke="#44944a" points="1613.63,-47.64 1622.13,-44.67 1613.63,-41.69 1613.63,-47.64"/>
</g>
<!-- 10&#45;&gt;0 -->
<g id="edge21" class="edge">
<title>10&#45;&gt;0</title>
<path fill="none" stroke="#44944a" d="M1688.46,-66.69C1688.46,-81.73 1688.46,-96.2 1688.46,-96.2 1688.46,-96.2 41.46,-96.2 41.46,-96.2 41.46,-96.2 41.46,-76.7 41.46,-76.7"/>
<polygon fill="#44944a" stroke="#44944a" points="44.44,-76.7 41.46,-68.2 38.49,-76.7 44.44,-76.7"/>
</g>
<!-- head_label -->
<g id="node12" class="node">
<title>head_label</title>
<polygon fill="#879eac" stroke="#fff4cc" points="250.16,-139.5 196.16,-139.5 196.16,-103.5 250.16,-103.5 250.16,-139.5"/>
<text xml:space="preserve" text-anchor="middle" x="223.16" y="-117.9" font-family="Times,serif" font-size="12.00" fill="#fff4cc">HEAD</text>
</g>
<!-- head_label&#45;&gt;1 -->
<g id="edge22" class="edge">
<title>head_label&#45;&gt;1</title>
<path fill="none" stroke="#fff4cc" d="M223.46,-103.27C223.46,-103.27 223.46,-76.66 223.46,-76.66"/>
<polygon fill="#fff4cc" stroke="#fff4cc" points="226.44,-76.66 223.46,-68.16 220.49,-76.66 226.44,-76.66"/>
</g>
<!-- tail_label -->
<g id="node13" class="node">
<title>tail_label</title>
<polygon fill="#879eac" stroke="#fff4cc" points="1054.01,-139.5 1000.01,-139.5 1000.01,-103.5 1054.01,-103.5 1054.01,-139.5"/>
<text xml:space="preserve" text-anchor="middle" x="1027.01" y="-117.9" font-family="Times,serif" font-size="12.00" fill="#fff4cc">TAIL</text>
</g>
<!-- tail_label&#45;&gt;6 -->
<g id="edge23" class="edge">
<title>tail_label&#45;&gt;6</title>
<path fill="none" stroke="#fff4cc" d="M1027.46,-103.27C1027.46,-103.27 1027.46,-76.66 1027.46,-76.66"/>
<polygon fill="#fff4cc" stroke="#fff4cc" points="1030.44,-76.66 1027.46,-68.16 1024.49,-76.66 1030.44,-76.66"/>
</g>
<!-- free_label -->
<g id="node14" class="node">
<title>free_label</title>
<polygon fill="#879eac" stroke="#fff4cc" points="1377.88,-139.5 1323.88,-139.5 1323.88,-103.5 1377.88,-103.5 1377.88,-139.5"/>
<text xml:space="preserve" text-anchor="middle" x="1350.88" y="-117.9" font-family="Times,serif" font-size="12.00" fill="#fff4cc">FREE</text>
</g>
<!-- free_label&#45;&gt;8 -->
<g id="edge24" class="edge">
<title>free_label&#45;&gt;8</title>
<path fill="none" stroke="#fff4cc" d="M1350.46,-103.27C1350.46,-103.27 1350.46,-76.66 1350.46,-76.66"/>
<polygon fill="#fff4cc" stroke="#fff4cc" points="1353.44,-76.66 1350.46,-68.16 1347.49,-76.66 1353.44,-76.66"/>
</g>
</g>
</svg>
