<?xml version="1.0" encoding="UTF-8" standalone="no"?>
<!DOCTYPE svg PUBLIC "-//W3C//DTD SVG 1.1//EN"
 "http://www.w3.org/Graphics/SVG/1.1/DTD/svg11.dtd">
<!-- Generated by graphviz version 14.0.2 (20251019.1705)
 -->
<!-- Title: G Pages: 1 -->
<svg width="776pt" height="222pt"
 viewBox="0.00 0.00 776.00 222.00" xmlns="http://www.w3.org/2000/svg" xmlns:xlink="http://www.w3.org/1999/xlink">
<g id="graph0" class="graph" transform="scale(1 1) rotate(0) translate(4 217.5)">
<title>G</title>
<polygon fill="#fffafa" stroke="none" points="-4,4 -4,-217.5 771.85,-217.5 771.85,4 -4,4"/>
<!-- 0 -->
<g id="node1" class="node">
<title>0</title>
<path fill="#cd5c5c" stroke="#000000" d="M12,-147C12,-147 112.77,-147 112.77,-147 118.77,-147 124.77,-153 124.77,-159 124.77,-159 124.77,-201 124.77,-201 124.77,-207 118.77,-213 112.77,-213 112.77,-213 12,-213 12,-213 6,-213 0,-207 0,-201 0,-201 0,-159 0,-159 0,-153 6,-147 12,-147"/>
<text xml:space="preserve" text-anchor="middle" x="62.39" y="-197.8" font-family="Times,serif" font-size="14.00">phys idx = 0</text>
<polyline fill="none" stroke="#000000" points="0,-191 124.77,-191"/>
<text xml:space="preserve" text-anchor="middle" x="62.39" y="-175.8" font-family="Times,serif" font-size="14.00">elem = &#45;6666.00</text>
<polyline fill="none" stroke="#000000" points="0,-169 124.77,-169"/>
<text xml:space="preserve" text-anchor="middle" x="31.39" y="-153.8" font-family="Times,serif" font-size="14.00">prev = 4</text>
<polyline fill="none" stroke="#000000" points="62.77,-147 62.77,-169"/>
<text xml:space="preserve" text-anchor="middle" x="93.77" y="-153.8" font-family="Times,serif" font-size="14.00">next = 1</text>
</g>
<!-- 1 -->
<g id="node2" class="node">
<title>1</title>
<path fill="#98fb98" stroke="#000000" d="M172.77,-147C172.77,-147 273.54,-147 273.54,-147 279.54,-147 285.54,-153 285.54,-159 285.54,-159 285.54,-201 285.54,-201 285.54,-207 279.54,-213 273.54,-213 273.54,-213 172.77,-213 172.77,-213 166.77,-213 160.77,-207 160.77,-201 160.77,-201 160.77,-159 160.77,-159 160.77,-153 166.77,-147 172.77,-147"/>
<text xml:space="preserve" text-anchor="middle" x="223.16" y="-197.8" font-family="Times,serif" font-size="14.00">phys idx = 1</text>
<polyline fill="none" stroke="#000000" points="160.77,-191 285.54,-191"/>
<text xml:space="preserve" text-anchor="middle" x="223.16" y="-175.8" font-family="Times,serif" font-size="14.00">elem = 11.00</text>
<polyline fill="none" stroke="#000000" points="160.77,-169 285.54,-169"/>
<text xml:space="preserve" text-anchor="middle" x="192.16" y="-153.8" font-family="Times,serif" font-size="14.00">prev = 0</text>
<polyline fill="none" stroke="#000000" points="223.54,-147 223.54,-169"/>
<text xml:space="preserve" text-anchor="middle" x="254.54" y="-153.8" font-family="Times,serif" font-size="14.00">next = 2</text>
</g>
<!-- 0&#45;&gt;1 -->
<!-- 0&#45;&gt;1 -->
<g id="edge5" class="edge">
<title>0&#45;&gt;1</title>
<path fill="none" stroke="#6a7075" d="M135.02,-191.17C135.02,-191.17 150.43,-191.17 150.43,-191.17"/>
<polygon fill="#6a7075" stroke="#6a7075" points="135.02,-188.19 126.52,-191.17 135.02,-194.14 135.02,-188.19"/>
<polygon fill="#6a7075" stroke="#6a7075" points="150.43,-194.14 158.93,-191.17 150.43,-188.19 150.43,-194.14"/>
</g>
<!-- 2 -->
<g id="node3" class="node">
<title>2</title>
<path fill="#98fb98" stroke="#000000" d="M333.54,-147C333.54,-147 434.31,-147 434.31,-147 440.31,-147 446.31,-153 446.31,-159 446.31,-159 446.31,-201 446.31,-201 446.31,-207 440.31,-213 434.31,-213 434.31,-213 333.54,-213 333.54,-213 327.54,-213 321.54,-207 321.54,-201 321.54,-201 321.54,-159 321.54,-159 321.54,-153 327.54,-147 333.54,-147"/>
<text xml:space="preserve" text-anchor="middle" x="383.93" y="-197.8" font-family="Times,serif" font-size="14.00">phys idx = 2</text>
<polyline fill="none" stroke="#000000" points="321.54,-191 446.31,-191"/>
<text xml:space="preserve" text-anchor="middle" x="383.93" y="-175.8" font-family="Times,serif" font-size="14.00">elem = 21.00</text>
<polyline fill="none" stroke="#000000" points="321.54,-169 446.31,-169"/>
<text xml:space="preserve" text-anchor="middle" x="352.93" y="-153.8" font-family="Times,serif" font-size="14.00">prev = 1</text>
<polyline fill="none" stroke="#000000" points="384.31,-147 384.31,-169"/>
<text xml:space="preserve" text-anchor="middle" x="415.31" y="-153.8" font-family="Times,serif" font-size="14.00">next = 3</text>
</g>
<!-- 1&#45;&gt;2 -->
<!-- 1&#45;&gt;2 -->
<g id="edge6" class="edge">
<title>1&#45;&gt;2</title>
<path fill="none" stroke="#6a7075" d="M295.79,-191.17C295.79,-191.17 311.2,-191.17 311.2,-191.17"/>
<polygon fill="#6a7075" stroke="#6a7075" points="295.79,-188.19 287.29,-191.17 295.79,-194.14 295.79,-188.19"/>
<polygon fill="#6a7075" stroke="#6a7075" points="311.2,-194.14 319.7,-191.17 311.2,-188.19 311.2,-194.14"/>
</g>
<!-- 3 -->
<g id="node4" class="node">
<title>3</title>
<path fill="#98fb98" stroke="#000000" d="M494.31,-147C494.31,-147 595.08,-147 595.08,-147 601.08,-147 607.08,-153 607.08,-159 607.08,-159 607.08,-201 607.08,-201 607.08,-207 601.08,-213 595.08,-213 595.08,-213 494.31,-213 494.31,-213 488.31,-213 482.31,-207 482.31,-201 482.31,-201 482.31,-159 482.31,-159 482.31,-153 488.31,-147 494.31,-147"/>
<text xml:space="preserve" text-anchor="middle" x="544.7" y="-197.8" font-family="Times,serif" font-size="14.00">phys idx = 3</text>
<polyline fill="none" stroke="#000000" points="482.31,-191 607.08,-191"/>
<text xml:space="preserve" text-anchor="middle" x="544.7" y="-175.8" font-family="Times,serif" font-size="14.00">elem = 31.00</text>
<polyline fill="none" stroke="#000000" points="482.31,-169 607.08,-169"/>
<text xml:space="preserve" text-anchor="middle" x="513.7" y="-153.8" font-family="Times,serif" font-size="14.00">prev = 2</text>
<polyline fill="none" stroke="#000000" points="545.08,-147 545.08,-169"/>
<text xml:space="preserve" text-anchor="middle" x="576.08" y="-153.8" font-family="Times,serif" font-size="14.00">next = 4</text>
</g>
<!-- 2&#45;&gt;3 -->
<!-- 2&#45;&gt;3 -->
<g id="edge7" class="edge">
<title>2&#45;&gt;3</title>
<path fill="none" stroke="#6a7075" d="M456.56,-191.17C456.56,-191.17 471.97,-191.17 471.97,-191.17"/>
<polygon fill="#6a7075" stroke="#6a7075" points="456.56,-188.19 448.06,-191.17 456.56,-194.14 456.56,-188.19"/>
<polygon fill="#6a7075" stroke="#6a7075" points="471.97,-194.14 480.47,-191.17 471.97,-188.19 471.97,-194.14"/>
</g>
<!-- 4 -->
<g id="node5" class="node">
<title>4</title>
<path fill="#98fb98" stroke="#000000" d="M655.08,-147C655.08,-147 755.85,-147 755.85,-147 761.85,-147 767.85,-153 767.85,-159 767.85,-159 767.85,-201 767.85,-201 767.85,-207 761.85,-213 755.85,-213 755.85,-213 655.08,-213 655.08,-213 649.08,-213 643.08,-207 643.08,-201 643.08,-201 643.08,-159 643.08,-159 643.08,-153 649.08,-147 655.08,-147"/>
<text xml:space="preserve" text-anchor="middle" x="705.47" y="-197.8" font-family="Times,serif" font-size="14.00">phys idx = 4</text>
<polyline fill="none" stroke="#000000" points="643.08,-191 767.85,-191"/>
<text xml:space="preserve" text-anchor="middle" x="705.47" y="-175.8" font-family="Times,serif" font-size="14.00">elem = 41.00</text>
<polyline fill="none" stroke="#000000" points="643.08,-169 767.85,-169"/>
<text xml:space="preserve" text-anchor="middle" x="674.47" y="-153.8" font-family="Times,serif" font-size="14.00">prev = 3</text>
<polyline fill="none" stroke="#000000" points="705.85,-147 705.85,-169"/>
<text xml:space="preserve" text-anchor="middle" x="736.85" y="-153.8" font-family="Times,serif" font-size="14.00">next = 0</text>
</g>
<!-- 3&#45;&gt;4 -->
<!-- 3&#45;&gt;4 -->
<g id="edge8" class="edge">
<title>3&#45;&gt;4</title>
<path fill="none" stroke="#6a7075" d="M617.33,-168.83C617.33,-168.83 632.74,-168.83 632.74,-168.83"/>
<polygon fill="#6a7075" stroke="#6a7075" points="617.33,-165.86 608.83,-168.83 617.33,-171.81 617.33,-165.86"/>
<polygon fill="#6a7075" stroke="#6a7075" points="632.74,-171.81 641.24,-168.83 632.74,-165.86 632.74,-171.81"/>
</g>
<!-- 4&#45;&gt;0 -->
<g id="edge9" class="edge">
<title>4&#45;&gt;0</title>
<path fill="none" stroke="#6a7075" d="M660.85,-136.63C660.85,-136.63 660.85,-128.25 660.85,-128.25 660.85,-128.25 106.85,-128.25 106.85,-128.25 106.85,-128.25 106.85,-136.63 106.85,-136.63"/>
<polygon fill="#6a7075" stroke="#6a7075" points="657.88,-136.63 660.85,-145.13 663.83,-136.63 657.88,-136.63"/>
<polygon fill="#6a7075" stroke="#6a7075" points="103.88,-136.63 106.85,-145.13 109.83,-136.63 103.88,-136.63"/>
</g>
<!-- head_label -->
<g id="node6" class="node">
<title>head_label</title>
<polygon fill="#879eac" stroke="#fff4cc" points="250.16,-36 196.16,-36 196.16,0 250.16,0 250.16,-36"/>
<text xml:space="preserve" text-anchor="middle" x="223.16" y="-14.4" font-family="Times,serif" font-size="12.00" fill="#fff4cc">HEAD</text>
</g>
<!-- head_label&#45;&gt;1 -->
<g id="edge10" class="edge">
<title>head_label&#45;&gt;1</title>
<path fill="none" stroke="#fff4cc" d="M222.85,-36.27C222.85,-36.27 222.85,-136.62 222.85,-136.62"/>
<polygon fill="#fff4cc" stroke="#fff4cc" points="219.88,-136.62 222.85,-145.12 225.83,-136.62 219.88,-136.62"/>
</g>
<!-- tail_label -->
<g id="node7" class="node">
<title>tail_label</title>
<polygon fill="#879eac" stroke="#fff4cc" points="732.47,-110 678.47,-110 678.47,-74 732.47,-74 732.47,-110"/>
<text xml:space="preserve" text-anchor="middle" x="705.47" y="-88.4" font-family="Times,serif" font-size="12.00" fill="#fff4cc">TAIL</text>
</g>
<!-- tail_label&#45;&gt;4 -->
<g id="edge11" class="edge">
<title>tail_label&#45;&gt;4</title>
<path fill="none" stroke="#fff4cc" d="M705.85,-110.23C705.85,-110.23 705.85,-136.84 705.85,-136.84"/>
<polygon fill="#fff4cc" stroke="#fff4cc" points="702.88,-136.84 705.85,-145.34 708.83,-136.84 702.88,-136.84"/>
</g>
<!-- free_label -->
<g id="node8" class="node">
<title>free_label</title>
<polygon fill="#879eac" stroke="#fff4cc" points="89.39,-110 35.39,-110 35.39,-74 89.39,-74 89.39,-110"/>
<text xml:space="preserve" text-anchor="middle" x="62.39" y="-88.4" font-family="Times,serif" font-size="12.00" fill="#fff4cc">FREE</text>
</g>
<!-- free_label&#45;&gt;0 -->
<g id="edge12" class="edge">
<title>free_label&#45;&gt;0</title>
<path fill="none" stroke="#fff4cc" d="M62.85,-110.23C62.85,-110.23 62.85,-136.84 62.85,-136.84"/>
<polygon fill="#fff4cc" stroke="#fff4cc" points="59.88,-136.84 62.85,-145.34 65.83,-136.84 59.88,-136.84"/>
</g>
</g>
</svg>
