<?xml version="1.0" encoding="UTF-8" standalone="no"?>
<!DOCTYPE svg PUBLIC "-//W3C//DTD SVG 1.1//EN"
 "http://www.w3.org/Graphics/SVG/1.1/DTD/svg11.dtd">
<!-- Generated by graphviz version 14.0.2 (20251019.1705)
 -->
<!-- Title: G Pages: 1 -->
<svg width="1766pt" height="240pt"
 viewBox="0.00 0.00 1766.00 240.00" xmlns="http://www.w3.org/2000/svg" xmlns:xlink="http://www.w3.org/1999/xlink">
<g id="graph0" class="graph" transform="scale(1 1) rotate(0) translate(4 235.5)">
<title>G</title>
<polygon fill="#fffafa" stroke="none" points="-4,4 -4,-235.5 1762.12,-235.5 1762.12,4 -4,4"/>
<!-- 0 -->
<g id="node1" class="node">
<title>0</title>
<path fill="#cd5c5c" stroke="#000000" d="M12,-18.5C12,-18.5 112.77,-18.5 112.77,-18.5 118.77,-18.5 124.77,-24.5 124.77,-30.5 124.77,-30.5 124.77,-72.5 124.77,-72.5 124.77,-78.5 118.77,-84.5 112.77,-84.5 112.77,-84.5 12,-84.5 12,-84.5 6,-84.5 0,-78.5 0,-72.5 0,-72.5 0,-30.5 0,-30.5 0,-24.5 6,-18.5 12,-18.5"/>
<text xml:space="preserve" text-anchor="middle" x="62.39" y="-69.3" font-family="Times,serif" font-size="14.00">phys idx = 0</text>
<polyline fill="none" stroke="#000000" points="0,-62.5 124.77,-62.5"/>
<text xml:space="preserve" text-anchor="middle" x="62.39" y="-47.3" font-family="Times,serif" font-size="14.00">elem = &#45;6666.00</text>
<polyline fill="none" stroke="#000000" points="0,-40.5 124.77,-40.5"/>
<text xml:space="preserve" text-anchor="middle" x="31.39" y="-25.3" font-family="Times,serif" font-size="14.00">prev = 5</text>
<polyline fill="none" stroke="#000000" points="62.77,-18.5 62.77,-40.5"/>
<text xml:space="preserve" text-anchor="middle" x="93.77" y="-25.3" font-family="Times,serif" font-size="14.00">next = 3</text>
</g>
<!-- 3 -->
<g id="node2" class="node">
<title>3</title>
<path fill="#98fb98" stroke="#000000" d="M172.77,-18.5C172.77,-18.5 273.54,-18.5 273.54,-18.5 279.54,-18.5 285.54,-24.5 285.54,-30.5 285.54,-30.5 285.54,-72.5 285.54,-72.5 285.54,-78.5 279.54,-84.5 273.54,-84.5 273.54,-84.5 172.77,-84.5 172.77,-84.5 166.77,-84.5 160.77,-78.5 160.77,-72.5 160.77,-72.5 160.77,-30.5 160.77,-30.5 160.77,-24.5 166.77,-18.5 172.77,-18.5"/>
<text xml:space="preserve" text-anchor="middle" x="223.16" y="-69.3" font-family="Times,serif" font-size="14.00">phys idx = 3</text>
<polyline fill="none" stroke="#000000" points="160.77,-62.5 285.54,-62.5"/>
<text xml:space="preserve" text-anchor="middle" x="223.16" y="-47.3" font-family="Times,serif" font-size="14.00">elem = 31.00</text>
<polyline fill="none" stroke="#000000" points="160.77,-40.5 285.54,-40.5"/>
<text xml:space="preserve" text-anchor="middle" x="192.16" y="-25.3" font-family="Times,serif" font-size="14.00">prev = 0</text>
<polyline fill="none" stroke="#000000" points="223.54,-18.5 223.54,-40.5"/>
<text xml:space="preserve" text-anchor="middle" x="254.54" y="-25.3" font-family="Times,serif" font-size="14.00">next = 9</text>
</g>
<!-- 0&#45;&gt;3 -->
<!-- 0&#45;&gt;3 -->
<g id="edge11" class="edge">
<title>0&#45;&gt;3</title>
<path fill="none" stroke="#6a7075" d="M135.02,-62.67C135.02,-62.67 150.43,-62.67 150.43,-62.67"/>
<polygon fill="#6a7075" stroke="#6a7075" points="135.02,-59.69 126.52,-62.67 135.02,-65.64 135.02,-59.69"/>
<polygon fill="#6a7075" stroke="#6a7075" points="150.43,-65.64 158.93,-62.67 150.43,-59.69 150.43,-65.64"/>
</g>
<!-- 4 -->
<g id="node3" class="node">
<title>4</title>
<path fill="#98fb98" stroke="#000000" d="M333.54,-18.5C333.54,-18.5 434.31,-18.5 434.31,-18.5 440.31,-18.5 446.31,-24.5 446.31,-30.5 446.31,-30.5 446.31,-72.5 446.31,-72.5 446.31,-78.5 440.31,-84.5 434.31,-84.5 434.31,-84.5 333.54,-84.5 333.54,-84.5 327.54,-84.5 321.54,-78.5 321.54,-72.5 321.54,-72.5 321.54,-30.5 321.54,-30.5 321.54,-24.5 327.54,-18.5 333.54,-18.5"/>
<text xml:space="preserve" text-anchor="middle" x="383.93" y="-69.3" font-family="Times,serif" font-size="14.00">phys idx = 4</text>
<polyline fill="none" stroke="#000000" points="321.54,-62.5 446.31,-62.5"/>
<text xml:space="preserve" text-anchor="middle" x="383.93" y="-47.3" font-family="Times,serif" font-size="14.00">elem = 41.00</text>
<polyline fill="none" stroke="#000000" points="321.54,-40.5 446.31,-40.5"/>
<text xml:space="preserve" text-anchor="middle" x="352.93" y="-25.3" font-family="Times,serif" font-size="14.00">prev = 8</text>
<polyline fill="none" stroke="#000000" points="384.31,-18.5 384.31,-40.5"/>
<text xml:space="preserve" text-anchor="middle" x="415.31" y="-25.3" font-family="Times,serif" font-size="14.00">next = 5</text>
</g>
<!-- 3&#45;&gt;4 -->
<!-- 9 -->
<g id="node7" class="node">
<title>9</title>
<path fill="#98fb98" stroke="#000000" d="M976.62,-18.5C976.62,-18.5 1077.39,-18.5 1077.39,-18.5 1083.39,-18.5 1089.39,-24.5 1089.39,-30.5 1089.39,-30.5 1089.39,-72.5 1089.39,-72.5 1089.39,-78.5 1083.39,-84.5 1077.39,-84.5 1077.39,-84.5 976.62,-84.5 976.62,-84.5 970.62,-84.5 964.62,-78.5 964.62,-72.5 964.62,-72.5 964.62,-30.5 964.62,-30.5 964.62,-24.5 970.62,-18.5 976.62,-18.5"/>
<text xml:space="preserve" text-anchor="middle" x="1027.01" y="-69.3" font-family="Times,serif" font-size="14.00">phys idx = 9</text>
<polyline fill="none" stroke="#000000" points="964.62,-62.5 1089.39,-62.5"/>
<text xml:space="preserve" text-anchor="middle" x="1027.01" y="-47.3" font-family="Times,serif" font-size="14.00">elem = 32.00</text>
<polyline fill="none" stroke="#000000" points="964.62,-40.5 1089.39,-40.5"/>
<text xml:space="preserve" text-anchor="middle" x="996.01" y="-25.3" font-family="Times,serif" font-size="14.00">prev = 3</text>
<polyline fill="none" stroke="#000000" points="1027.39,-18.5 1027.39,-40.5"/>
<text xml:space="preserve" text-anchor="middle" x="1058.39" y="-25.3" font-family="Times,serif" font-size="14.00">next = 7</text>
</g>
<!-- 3&#45;&gt;9 -->
<g id="edge14" class="edge">
<title>3&#45;&gt;9</title>
<path fill="none" stroke="#6a7075" d="M268.12,-94.87C268.12,-94.87 268.12,-103.25 268.12,-103.25 268.12,-103.25 1027.12,-103.25 1027.12,-103.25 1027.12,-103.25 1027.12,-94.87 1027.12,-94.87"/>
<polygon fill="#6a7075" stroke="#6a7075" points="271.1,-94.87 268.12,-86.37 265.15,-94.87 271.1,-94.87"/>
<polygon fill="#6a7075" stroke="#6a7075" points="1030.1,-94.87 1027.12,-86.37 1024.15,-94.87 1030.1,-94.87"/>
</g>
<!-- 5 -->
<g id="node4" class="node">
<title>5</title>
<path fill="#98fb98" stroke="#000000" d="M494.31,-18.5C494.31,-18.5 595.08,-18.5 595.08,-18.5 601.08,-18.5 607.08,-24.5 607.08,-30.5 607.08,-30.5 607.08,-72.5 607.08,-72.5 607.08,-78.5 601.08,-84.5 595.08,-84.5 595.08,-84.5 494.31,-84.5 494.31,-84.5 488.31,-84.5 482.31,-78.5 482.31,-72.5 482.31,-72.5 482.31,-30.5 482.31,-30.5 482.31,-24.5 488.31,-18.5 494.31,-18.5"/>
<text xml:space="preserve" text-anchor="middle" x="544.7" y="-69.3" font-family="Times,serif" font-size="14.00">phys idx = 5</text>
<polyline fill="none" stroke="#000000" points="482.31,-62.5 607.08,-62.5"/>
<text xml:space="preserve" text-anchor="middle" x="544.7" y="-47.3" font-family="Times,serif" font-size="14.00">elem = 51.00</text>
<polyline fill="none" stroke="#000000" points="482.31,-40.5 607.08,-40.5"/>
<text xml:space="preserve" text-anchor="middle" x="513.7" y="-25.3" font-family="Times,serif" font-size="14.00">prev = 4</text>
<polyline fill="none" stroke="#000000" points="545.08,-18.5 545.08,-40.5"/>
<text xml:space="preserve" text-anchor="middle" x="576.08" y="-25.3" font-family="Times,serif" font-size="14.00">next = 0</text>
</g>
<!-- 4&#45;&gt;5 -->
<!-- 4&#45;&gt;5 -->
<g id="edge15" class="edge">
<title>4&#45;&gt;5</title>
<path fill="none" stroke="#6a7075" d="M456.56,-62.67C456.56,-62.67 471.97,-62.67 471.97,-62.67"/>
<polygon fill="#6a7075" stroke="#6a7075" points="456.56,-59.69 448.06,-62.67 456.56,-65.64 456.56,-59.69"/>
<polygon fill="#6a7075" stroke="#6a7075" points="471.97,-65.64 480.47,-62.67 471.97,-59.69 471.97,-65.64"/>
</g>
<!-- 5&#45;&gt;0 -->
<g id="edge16" class="edge">
<title>5&#45;&gt;0</title>
<path fill="none" stroke="#6a7075" d="M500.12,-90.46C500.12,-90.46 500.12,-91.08 500.12,-91.08 500.12,-91.08 83.12,-91.08 83.12,-91.08 83.12,-91.08 83.12,-90.46 83.12,-90.46"/>
<polygon fill="#6a7075" stroke="#6a7075" points="503.1,-94.91 500.12,-86.41 497.15,-94.91 503.1,-94.91"/>
<polygon fill="#6a7075" stroke="#6a7075" points="86.1,-94.91 83.12,-86.41 80.15,-94.91 86.1,-94.91"/>
</g>
<!-- 7 -->
<g id="node5" class="node">
<title>7</title>
<path fill="#98fb98" stroke="#000000" d="M655.08,-18.5C655.08,-18.5 755.85,-18.5 755.85,-18.5 761.85,-18.5 767.85,-24.5 767.85,-30.5 767.85,-30.5 767.85,-72.5 767.85,-72.5 767.85,-78.5 761.85,-84.5 755.85,-84.5 755.85,-84.5 655.08,-84.5 655.08,-84.5 649.08,-84.5 643.08,-78.5 643.08,-72.5 643.08,-72.5 643.08,-30.5 643.08,-30.5 643.08,-24.5 649.08,-18.5 655.08,-18.5"/>
<text xml:space="preserve" text-anchor="middle" x="705.47" y="-69.3" font-family="Times,serif" font-size="14.00">phys idx = 7</text>
<polyline fill="none" stroke="#000000" points="643.08,-62.5 767.85,-62.5"/>
<text xml:space="preserve" text-anchor="middle" x="705.47" y="-47.3" font-family="Times,serif" font-size="14.00">elem = 35.00</text>
<polyline fill="none" stroke="#000000" points="643.08,-40.5 767.85,-40.5"/>
<text xml:space="preserve" text-anchor="middle" x="674.47" y="-25.3" font-family="Times,serif" font-size="14.00">prev = 9</text>
<polyline fill="none" stroke="#000000" points="705.85,-18.5 705.85,-40.5"/>
<text xml:space="preserve" text-anchor="middle" x="736.85" y="-25.3" font-family="Times,serif" font-size="14.00">next = 8</text>
</g>
<!-- 5&#45;&gt;7 -->
<!-- 8 -->
<g id="node6" class="node">
<title>8</title>
<path fill="#98fb98" stroke="#000000" d="M815.85,-18.5C815.85,-18.5 916.62,-18.5 916.62,-18.5 922.62,-18.5 928.62,-24.5 928.62,-30.5 928.62,-30.5 928.62,-72.5 928.62,-72.5 928.62,-78.5 922.62,-84.5 916.62,-84.5 916.62,-84.5 815.85,-84.5 815.85,-84.5 809.85,-84.5 803.85,-78.5 803.85,-72.5 803.85,-72.5 803.85,-30.5 803.85,-30.5 803.85,-24.5 809.85,-18.5 815.85,-18.5"/>
<text xml:space="preserve" text-anchor="middle" x="866.24" y="-69.3" font-family="Times,serif" font-size="14.00">phys idx = 8</text>
<polyline fill="none" stroke="#000000" points="803.85,-62.5 928.62,-62.5"/>
<text xml:space="preserve" text-anchor="middle" x="866.24" y="-47.3" font-family="Times,serif" font-size="14.00">elem = 36.00</text>
<polyline fill="none" stroke="#000000" points="803.85,-40.5 928.62,-40.5"/>
<text xml:space="preserve" text-anchor="middle" x="835.24" y="-25.3" font-family="Times,serif" font-size="14.00">prev = 7</text>
<polyline fill="none" stroke="#000000" points="866.62,-18.5 866.62,-40.5"/>
<text xml:space="preserve" text-anchor="middle" x="897.62" y="-25.3" font-family="Times,serif" font-size="14.00">next = 4</text>
</g>
<!-- 7&#45;&gt;8 -->
<!-- 7&#45;&gt;8 -->
<g id="edge18" class="edge">
<title>7&#45;&gt;8</title>
<path fill="none" stroke="#6a7075" d="M778.1,-62.67C778.1,-62.67 793.51,-62.67 793.51,-62.67"/>
<polygon fill="#6a7075" stroke="#6a7075" points="778.1,-59.69 769.6,-62.67 778.1,-65.64 778.1,-59.69"/>
<polygon fill="#6a7075" stroke="#6a7075" points="793.51,-65.64 802.01,-62.67 793.51,-59.69 793.51,-65.64"/>
</g>
<!-- 8&#45;&gt;4 -->
<g id="edge19" class="edge">
<title>8&#45;&gt;4</title>
<path fill="none" stroke="#6a7075" d="M866.12,-94.7C866.12,-94.7 866.12,-97.17 866.12,-97.17 866.12,-97.17 384.12,-97.17 384.12,-97.17 384.12,-97.17 384.12,-94.7 384.12,-94.7"/>
<polygon fill="#6a7075" stroke="#6a7075" points="869.1,-94.7 866.12,-86.2 863.15,-94.7 869.1,-94.7"/>
<polygon fill="#6a7075" stroke="#6a7075" points="387.1,-94.7 384.12,-86.2 381.15,-94.7 387.1,-94.7"/>
</g>
<!-- 8&#45;&gt;9 -->
<!-- 9&#45;&gt;7 -->
<g id="edge20" class="edge">
<title>9&#45;&gt;7</title>
<path fill="none" stroke="#6a7075" d="M1027.12,-8C1027.12,-8 1027.12,0 1027.12,0 1027.12,0 705.12,0 705.12,0 705.12,0 705.12,-8 705.12,-8"/>
<polygon fill="#6a7075" stroke="#6a7075" points="1024.15,-8 1027.12,-16.5 1030.1,-8 1024.15,-8"/>
<polygon fill="#6a7075" stroke="#6a7075" points="702.15,-8 705.12,-16.5 708.1,-8 702.15,-8"/>
</g>
<!-- 1 -->
<g id="node8" class="node">
<title>1</title>
<path fill="#82898f" stroke="#000000" d="M1137.39,-18.5C1137.39,-18.5 1242.83,-18.5 1242.83,-18.5 1248.83,-18.5 1254.83,-24.5 1254.83,-30.5 1254.83,-30.5 1254.83,-72.5 1254.83,-72.5 1254.83,-78.5 1248.83,-84.5 1242.83,-84.5 1242.83,-84.5 1137.39,-84.5 1137.39,-84.5 1131.39,-84.5 1125.39,-78.5 1125.39,-72.5 1125.39,-72.5 1125.39,-30.5 1125.39,-30.5 1125.39,-24.5 1131.39,-18.5 1137.39,-18.5"/>
<text xml:space="preserve" text-anchor="middle" x="1190.11" y="-69.3" font-family="Times,serif" font-size="14.00">phys idx = 1</text>
<polyline fill="none" stroke="#000000" points="1125.39,-62.5 1254.83,-62.5"/>
<text xml:space="preserve" text-anchor="middle" x="1190.11" y="-47.3" font-family="Times,serif" font-size="14.00">elem = &#45;6666.00</text>
<polyline fill="none" stroke="#000000" points="1125.39,-40.5 1254.83,-40.5"/>
<text xml:space="preserve" text-anchor="middle" x="1159.11" y="-25.3" font-family="Times,serif" font-size="14.00">prev = &#45;1</text>
<polyline fill="none" stroke="#000000" points="1192.83,-18.5 1192.83,-40.5"/>
<text xml:space="preserve" text-anchor="middle" x="1223.83" y="-25.3" font-family="Times,serif" font-size="14.00">next = 6</text>
</g>
<!-- 9&#45;&gt;1 -->
<!-- 2 -->
<g id="node9" class="node">
<title>2</title>
<path fill="#82898f" stroke="#000000" d="M1302.83,-18.5C1302.83,-18.5 1408.26,-18.5 1408.26,-18.5 1414.26,-18.5 1420.26,-24.5 1420.26,-30.5 1420.26,-30.5 1420.26,-72.5 1420.26,-72.5 1420.26,-78.5 1414.26,-84.5 1408.26,-84.5 1408.26,-84.5 1302.83,-84.5 1302.83,-84.5 1296.83,-84.5 1290.83,-78.5 1290.83,-72.5 1290.83,-72.5 1290.83,-30.5 1290.83,-30.5 1290.83,-24.5 1296.83,-18.5 1302.83,-18.5"/>
<text xml:space="preserve" text-anchor="middle" x="1355.54" y="-69.3" font-family="Times,serif" font-size="14.00">phys idx = 2</text>
<polyline fill="none" stroke="#000000" points="1290.83,-62.5 1420.26,-62.5"/>
<text xml:space="preserve" text-anchor="middle" x="1355.54" y="-47.3" font-family="Times,serif" font-size="14.00">elem = &#45;6666.00</text>
<polyline fill="none" stroke="#000000" points="1290.83,-40.5 1420.26,-40.5"/>
<text xml:space="preserve" text-anchor="middle" x="1324.54" y="-25.3" font-family="Times,serif" font-size="14.00">prev = &#45;1</text>
<polyline fill="none" stroke="#000000" points="1358.26,-18.5 1358.26,-40.5"/>
<text xml:space="preserve" text-anchor="middle" x="1389.26" y="-25.3" font-family="Times,serif" font-size="14.00">next = 1</text>
</g>
<!-- 1&#45;&gt;2 -->
<!-- 6 -->
<g id="node10" class="node">
<title>6</title>
<path fill="#82898f" stroke="#000000" d="M1468.26,-18.5C1468.26,-18.5 1580.69,-18.5 1580.69,-18.5 1586.69,-18.5 1592.69,-24.5 1592.69,-30.5 1592.69,-30.5 1592.69,-72.5 1592.69,-72.5 1592.69,-78.5 1586.69,-84.5 1580.69,-84.5 1580.69,-84.5 1468.26,-84.5 1468.26,-84.5 1462.26,-84.5 1456.26,-78.5 1456.26,-72.5 1456.26,-72.5 1456.26,-30.5 1456.26,-30.5 1456.26,-24.5 1462.26,-18.5 1468.26,-18.5"/>
<text xml:space="preserve" text-anchor="middle" x="1524.48" y="-69.3" font-family="Times,serif" font-size="14.00">phys idx = 6</text>
<polyline fill="none" stroke="#000000" points="1456.26,-62.5 1592.69,-62.5"/>
<text xml:space="preserve" text-anchor="middle" x="1524.48" y="-47.3" font-family="Times,serif" font-size="14.00">elem = &#45;6666.00</text>
<polyline fill="none" stroke="#000000" points="1456.26,-40.5 1592.69,-40.5"/>
<text xml:space="preserve" text-anchor="middle" x="1489.98" y="-25.3" font-family="Times,serif" font-size="14.00">prev = &#45;1</text>
<polyline fill="none" stroke="#000000" points="1523.69,-18.5 1523.69,-40.5"/>
<text xml:space="preserve" text-anchor="middle" x="1558.19" y="-25.3" font-family="Times,serif" font-size="14.00">next = 10</text>
</g>
<!-- 1&#45;&gt;6 -->
<g id="edge12" class="edge">
<title>1&#45;&gt;6</title>
<path fill="none" stroke="#44944a" d="M1190.12,-84.81C1190.12,-97.66 1190.12,-109.33 1190.12,-109.33 1190.12,-109.33 1524.12,-109.33 1524.12,-109.33 1524.12,-109.33 1524.12,-94.82 1524.12,-94.82"/>
<polygon fill="#44944a" stroke="#44944a" points="1527.1,-94.82 1524.12,-86.32 1521.15,-94.82 1527.1,-94.82"/>
</g>
<!-- 2&#45;&gt;1 -->
<g id="edge13" class="edge">
<title>2&#45;&gt;1</title>
<path fill="none" stroke="#44944a" d="M1290.63,-62.67C1290.63,-62.67 1265.12,-62.67 1265.12,-62.67"/>
<polygon fill="#44944a" stroke="#44944a" points="1265.12,-59.69 1256.62,-62.67 1265.12,-65.64 1265.12,-59.69"/>
</g>
<!-- 2&#45;&gt;6 -->
<!-- 10 -->
<g id="node11" class="node">
<title>10</title>
<path fill="#82898f" stroke="#000000" d="M1640.69,-18.5C1640.69,-18.5 1746.12,-18.5 1746.12,-18.5 1752.12,-18.5 1758.12,-24.5 1758.12,-30.5 1758.12,-30.5 1758.12,-72.5 1758.12,-72.5 1758.12,-78.5 1752.12,-84.5 1746.12,-84.5 1746.12,-84.5 1640.69,-84.5 1640.69,-84.5 1634.69,-84.5 1628.69,-78.5 1628.69,-72.5 1628.69,-72.5 1628.69,-30.5 1628.69,-30.5 1628.69,-24.5 1634.69,-18.5 1640.69,-18.5"/>
<text xml:space="preserve" text-anchor="middle" x="1693.41" y="-69.3" font-family="Times,serif" font-size="14.00">phys idx = 10</text>
<polyline fill="none" stroke="#000000" points="1628.69,-62.5 1758.12,-62.5"/>
<text xml:space="preserve" text-anchor="middle" x="1693.41" y="-47.3" font-family="Times,serif" font-size="14.00">elem = &#45;6666.00</text>
<polyline fill="none" stroke="#000000" points="1628.69,-40.5 1758.12,-40.5"/>
<text xml:space="preserve" text-anchor="middle" x="1662.41" y="-25.3" font-family="Times,serif" font-size="14.00">prev = &#45;1</text>
<polyline fill="none" stroke="#000000" points="1696.12,-18.5 1696.12,-40.5"/>
<text xml:space="preserve" text-anchor="middle" x="1727.12" y="-25.3" font-family="Times,serif" font-size="14.00">next = 0</text>
</g>
<!-- 6&#45;&gt;10 -->
<!-- 6&#45;&gt;10 -->
<g id="edge17" class="edge">
<title>6&#45;&gt;10</title>
<path fill="none" stroke="#44944a" d="M1593.19,-62.67C1593.19,-62.67 1618.29,-62.67 1618.29,-62.67"/>
<polygon fill="#44944a" stroke="#44944a" points="1618.29,-65.64 1626.79,-62.67 1618.29,-59.69 1618.29,-65.64"/>
</g>
<!-- 10&#45;&gt;0 -->
<g id="edge21" class="edge">
<title>10&#45;&gt;0</title>
<path fill="none" stroke="#44944a" d="M1693.12,-84.96C1693.12,-100.42 1693.12,-115.42 1693.12,-115.42 1693.12,-115.42 41.12,-115.42 41.12,-115.42 41.12,-115.42 41.12,-94.97 41.12,-94.97"/>
<polygon fill="#44944a" stroke="#44944a" points="44.1,-94.97 41.12,-86.47 38.15,-94.97 44.1,-94.97"/>
</g>
<!-- head_label -->
<g id="node12" class="node">
<title>head_label</title>
<polygon fill="#879eac" stroke="#fff4cc" points="250.16,-157.5 196.16,-157.5 196.16,-121.5 250.16,-121.5 250.16,-157.5"/>
<text xml:space="preserve" text-anchor="middle" x="223.16" y="-135.9" font-family="Times,serif" font-size="12.00" fill="#fff4cc">HEAD</text>
</g>
<!-- head_label&#45;&gt;3 -->
<g id="edge22" class="edge">
<title>head_label&#45;&gt;3</title>
<path fill="none" stroke="#fff4cc" d="M223.12,-121.27C223.12,-121.27 223.12,-94.66 223.12,-94.66"/>
<polygon fill="#fff4cc" stroke="#fff4cc" points="226.1,-94.66 223.12,-86.16 220.15,-94.66 226.1,-94.66"/>
</g>
<!-- tail_label -->
<g id="node13" class="node">
<title>tail_label</title>
<polygon fill="#879eac" stroke="#fff4cc" points="571.7,-157.5 517.7,-157.5 517.7,-121.5 571.7,-121.5 571.7,-157.5"/>
<text xml:space="preserve" text-anchor="middle" x="544.7" y="-135.9" font-family="Times,serif" font-size="12.00" fill="#fff4cc">TAIL</text>
</g>
<!-- tail_label&#45;&gt;5 -->
<g id="edge23" class="edge">
<title>tail_label&#45;&gt;5</title>
<path fill="none" stroke="#fff4cc" d="M545.12,-121.27C545.12,-121.27 545.12,-94.66 545.12,-94.66"/>
<polygon fill="#fff4cc" stroke="#fff4cc" points="548.1,-94.66 545.12,-86.16 542.15,-94.66 548.1,-94.66"/>
</g>
<!-- free_label -->
<g id="node14" class="node">
<title>free_label</title>
<polygon fill="#879eac" stroke="#fff4cc" points="1382.54,-231.5 1328.54,-231.5 1328.54,-195.5 1382.54,-195.5 1382.54,-231.5"/>
<text xml:space="preserve" text-anchor="middle" x="1355.54" y="-209.9" font-family="Times,serif" font-size="12.00" fill="#fff4cc">FREE</text>
</g>
<!-- free_label&#45;&gt;2 -->
<g id="edge24" class="edge">
<title>free_label&#45;&gt;2</title>
<path fill="none" stroke="#fff4cc" d="M1355.12,-195.23C1355.12,-195.23 1355.12,-94.88 1355.12,-94.88"/>
<polygon fill="#fff4cc" stroke="#fff4cc" points="1358.1,-94.88 1355.12,-86.38 1352.15,-94.88 1358.1,-94.88"/>
</g>
</g>
</svg>
