<?xml version="1.0" encoding="UTF-8" standalone="no"?>
<!DOCTYPE svg PUBLIC "-//W3C//DTD SVG 1.1//EN"
 "http://www.w3.org/Graphics/SVG/1.1/DTD/svg11.dtd">
<!-- Generated by graphviz version 14.0.2 (20251019.1705)
 -->
<!-- Title: G Pages: 1 -->
<svg width="1759pt" height="283pt"
 viewBox="0.00 0.00 1759.00 283.00" xmlns="http://www.w3.org/2000/svg" xmlns:xlink="http://www.w3.org/1999/xlink">
<g id="graph0" class="graph" transform="scale(1 1) rotate(0) translate(4 278.5)">
<title>G</title>
<polygon fill="#fffafa" stroke="none" points="-4,4 -4,-278.5 1755.14,-278.5 1755.14,4 -4,4"/>
<!-- 0 -->
<g id="node1" class="node">
<title>0</title>
<path fill="#cd5c5c" stroke="#000000" d="M12,-24.5C12,-24.5 119.77,-24.5 119.77,-24.5 125.77,-24.5 131.77,-30.5 131.77,-36.5 131.77,-36.5 131.77,-78.5 131.77,-78.5 131.77,-84.5 125.77,-90.5 119.77,-90.5 119.77,-90.5 12,-90.5 12,-90.5 6,-90.5 0,-84.5 0,-78.5 0,-78.5 0,-36.5 0,-36.5 0,-30.5 6,-24.5 12,-24.5"/>
<text xml:space="preserve" text-anchor="middle" x="65.89" y="-75.3" font-family="Times,serif" font-size="14.00">phys idx = 0</text>
<polyline fill="none" stroke="#000000" points="0,-68.5 131.77,-68.5"/>
<text xml:space="preserve" text-anchor="middle" x="65.89" y="-53.3" font-family="Times,serif" font-size="14.00">elem = &#45;6666.00</text>
<polyline fill="none" stroke="#000000" points="0,-46.5 131.77,-46.5"/>
<text xml:space="preserve" text-anchor="middle" x="34.89" y="-31.3" font-family="Times,serif" font-size="14.00">prev = 10</text>
<polyline fill="none" stroke="#000000" points="69.77,-24.5 69.77,-46.5"/>
<text xml:space="preserve" text-anchor="middle" x="100.77" y="-31.3" font-family="Times,serif" font-size="14.00">next = 1</text>
</g>
<!-- 1 -->
<g id="node2" class="node">
<title>1</title>
<path fill="#98fb98" stroke="#000000" d="M179.77,-24.5C179.77,-24.5 280.54,-24.5 280.54,-24.5 286.54,-24.5 292.54,-30.5 292.54,-36.5 292.54,-36.5 292.54,-78.5 292.54,-78.5 292.54,-84.5 286.54,-90.5 280.54,-90.5 280.54,-90.5 179.77,-90.5 179.77,-90.5 173.77,-90.5 167.77,-84.5 167.77,-78.5 167.77,-78.5 167.77,-36.5 167.77,-36.5 167.77,-30.5 173.77,-24.5 179.77,-24.5"/>
<text xml:space="preserve" text-anchor="middle" x="230.16" y="-75.3" font-family="Times,serif" font-size="14.00">phys idx = 1</text>
<polyline fill="none" stroke="#000000" points="167.77,-68.5 292.54,-68.5"/>
<text xml:space="preserve" text-anchor="middle" x="230.16" y="-53.3" font-family="Times,serif" font-size="14.00">elem = 11.00</text>
<polyline fill="none" stroke="#000000" points="167.77,-46.5 292.54,-46.5"/>
<text xml:space="preserve" text-anchor="middle" x="199.16" y="-31.3" font-family="Times,serif" font-size="14.00">prev = 0</text>
<polyline fill="none" stroke="#000000" points="230.54,-24.5 230.54,-46.5"/>
<text xml:space="preserve" text-anchor="middle" x="261.54" y="-31.3" font-family="Times,serif" font-size="14.00">next = 2</text>
</g>
<!-- 0&#45;&gt;1 -->
<!-- 0&#45;&gt;1 -->
<g id="edge11" class="edge">
<title>0&#45;&gt;1</title>
<path fill="none" stroke="#6a7075" d="M142.24,-68.67C142.24,-68.67 157.28,-68.67 157.28,-68.67"/>
<polygon fill="#6a7075" stroke="#6a7075" points="142.24,-65.69 133.74,-68.67 142.24,-71.64 142.24,-65.69"/>
<polygon fill="#6a7075" stroke="#6a7075" points="157.28,-71.64 165.78,-68.67 157.28,-65.69 157.28,-71.64"/>
</g>
<!-- 2 -->
<g id="node3" class="node">
<title>2</title>
<path fill="#98fb98" stroke="#000000" d="M340.54,-24.5C340.54,-24.5 441.31,-24.5 441.31,-24.5 447.31,-24.5 453.31,-30.5 453.31,-36.5 453.31,-36.5 453.31,-78.5 453.31,-78.5 453.31,-84.5 447.31,-90.5 441.31,-90.5 441.31,-90.5 340.54,-90.5 340.54,-90.5 334.54,-90.5 328.54,-84.5 328.54,-78.5 328.54,-78.5 328.54,-36.5 328.54,-36.5 328.54,-30.5 334.54,-24.5 340.54,-24.5"/>
<text xml:space="preserve" text-anchor="middle" x="390.93" y="-75.3" font-family="Times,serif" font-size="14.00">phys idx = 2</text>
<polyline fill="none" stroke="#000000" points="328.54,-68.5 453.31,-68.5"/>
<text xml:space="preserve" text-anchor="middle" x="390.93" y="-53.3" font-family="Times,serif" font-size="14.00">elem = 21.00</text>
<polyline fill="none" stroke="#000000" points="328.54,-46.5 453.31,-46.5"/>
<text xml:space="preserve" text-anchor="middle" x="359.93" y="-31.3" font-family="Times,serif" font-size="14.00">prev = 1</text>
<polyline fill="none" stroke="#000000" points="391.31,-24.5 391.31,-46.5"/>
<text xml:space="preserve" text-anchor="middle" x="422.31" y="-31.3" font-family="Times,serif" font-size="14.00">next = 3</text>
</g>
<!-- 1&#45;&gt;2 -->
<!-- 1&#45;&gt;2 -->
<g id="edge12" class="edge">
<title>1&#45;&gt;2</title>
<path fill="none" stroke="#6a7075" d="M302.79,-46.33C302.79,-46.33 318.2,-46.33 318.2,-46.33"/>
<polygon fill="#6a7075" stroke="#6a7075" points="302.79,-43.36 294.29,-46.33 302.79,-49.31 302.79,-43.36"/>
<polygon fill="#6a7075" stroke="#6a7075" points="318.2,-49.31 326.7,-46.33 318.2,-43.36 318.2,-49.31"/>
</g>
<!-- 3 -->
<g id="node4" class="node">
<title>3</title>
<path fill="#98fb98" stroke="#000000" d="M501.31,-24.5C501.31,-24.5 602.08,-24.5 602.08,-24.5 608.08,-24.5 614.08,-30.5 614.08,-36.5 614.08,-36.5 614.08,-78.5 614.08,-78.5 614.08,-84.5 608.08,-90.5 602.08,-90.5 602.08,-90.5 501.31,-90.5 501.31,-90.5 495.31,-90.5 489.31,-84.5 489.31,-78.5 489.31,-78.5 489.31,-36.5 489.31,-36.5 489.31,-30.5 495.31,-24.5 501.31,-24.5"/>
<text xml:space="preserve" text-anchor="middle" x="551.7" y="-75.3" font-family="Times,serif" font-size="14.00">phys idx = 3</text>
<polyline fill="none" stroke="#000000" points="489.31,-68.5 614.08,-68.5"/>
<text xml:space="preserve" text-anchor="middle" x="551.7" y="-53.3" font-family="Times,serif" font-size="14.00">elem = 31.00</text>
<polyline fill="none" stroke="#000000" points="489.31,-46.5 614.08,-46.5"/>
<text xml:space="preserve" text-anchor="middle" x="520.7" y="-31.3" font-family="Times,serif" font-size="14.00">prev = 2</text>
<polyline fill="none" stroke="#000000" points="552.08,-24.5 552.08,-46.5"/>
<text xml:space="preserve" text-anchor="middle" x="583.08" y="-31.3" font-family="Times,serif" font-size="14.00">next = 9</text>
</g>
<!-- 2&#45;&gt;3 -->
<!-- 2&#45;&gt;3 -->
<g id="edge13" class="edge">
<title>2&#45;&gt;3</title>
<path fill="none" stroke="#6a7075" d="M463.56,-68.67C463.56,-68.67 478.97,-68.67 478.97,-68.67"/>
<polygon fill="#6a7075" stroke="#6a7075" points="463.56,-65.69 455.06,-68.67 463.56,-71.64 463.56,-65.69"/>
<polygon fill="#6a7075" stroke="#6a7075" points="478.97,-71.64 487.47,-68.67 478.97,-65.69 478.97,-71.64"/>
</g>
<!-- 5 -->
<g id="node5" class="node">
<title>5</title>
<path fill="#98fb98" stroke="#000000" d="M662.08,-24.5C662.08,-24.5 762.85,-24.5 762.85,-24.5 768.85,-24.5 774.85,-30.5 774.85,-36.5 774.85,-36.5 774.85,-78.5 774.85,-78.5 774.85,-84.5 768.85,-90.5 762.85,-90.5 762.85,-90.5 662.08,-90.5 662.08,-90.5 656.08,-90.5 650.08,-84.5 650.08,-78.5 650.08,-78.5 650.08,-36.5 650.08,-36.5 650.08,-30.5 656.08,-24.5 662.08,-24.5"/>
<text xml:space="preserve" text-anchor="middle" x="712.47" y="-75.3" font-family="Times,serif" font-size="14.00">phys idx = 5</text>
<polyline fill="none" stroke="#000000" points="650.08,-68.5 774.85,-68.5"/>
<text xml:space="preserve" text-anchor="middle" x="712.47" y="-53.3" font-family="Times,serif" font-size="14.00">elem = 51.00</text>
<polyline fill="none" stroke="#000000" points="650.08,-46.5 774.85,-46.5"/>
<text xml:space="preserve" text-anchor="middle" x="681.47" y="-31.3" font-family="Times,serif" font-size="14.00">prev = 8</text>
<polyline fill="none" stroke="#000000" points="712.85,-24.5 712.85,-46.5"/>
<text xml:space="preserve" text-anchor="middle" x="743.85" y="-31.3" font-family="Times,serif" font-size="14.00">next = 6</text>
</g>
<!-- 3&#45;&gt;5 -->
<!-- 9 -->
<g id="node9" class="node">
<title>9</title>
<path fill="#98fb98" stroke="#000000" d="M1312.16,-24.5C1312.16,-24.5 1412.93,-24.5 1412.93,-24.5 1418.93,-24.5 1424.93,-30.5 1424.93,-36.5 1424.93,-36.5 1424.93,-78.5 1424.93,-78.5 1424.93,-84.5 1418.93,-90.5 1412.93,-90.5 1412.93,-90.5 1312.16,-90.5 1312.16,-90.5 1306.16,-90.5 1300.16,-84.5 1300.16,-78.5 1300.16,-78.5 1300.16,-36.5 1300.16,-36.5 1300.16,-30.5 1306.16,-24.5 1312.16,-24.5"/>
<text xml:space="preserve" text-anchor="middle" x="1362.55" y="-75.3" font-family="Times,serif" font-size="14.00">phys idx = 9</text>
<polyline fill="none" stroke="#000000" points="1300.16,-68.5 1424.93,-68.5"/>
<text xml:space="preserve" text-anchor="middle" x="1362.55" y="-53.3" font-family="Times,serif" font-size="14.00">elem = 32.00</text>
<polyline fill="none" stroke="#000000" points="1300.16,-46.5 1424.93,-46.5"/>
<text xml:space="preserve" text-anchor="middle" x="1331.55" y="-31.3" font-family="Times,serif" font-size="14.00">prev = 3</text>
<polyline fill="none" stroke="#000000" points="1362.94,-24.5 1362.94,-46.5"/>
<text xml:space="preserve" text-anchor="middle" x="1393.94" y="-31.3" font-family="Times,serif" font-size="14.00">next = 7</text>
</g>
<!-- 3&#45;&gt;9 -->
<g id="edge14" class="edge">
<title>3&#45;&gt;9</title>
<path fill="none" stroke="#6a7075" d="M552.14,-14.04C552.14,-14.04 552.14,0 552.14,0 552.14,0 1362.14,0 1362.14,0 1362.14,0 1362.14,-14.04 1362.14,-14.04"/>
<polygon fill="#6a7075" stroke="#6a7075" points="549.16,-14.04 552.14,-22.54 555.11,-14.04 549.16,-14.04"/>
<polygon fill="#6a7075" stroke="#6a7075" points="1359.16,-14.04 1362.14,-22.54 1365.11,-14.04 1359.16,-14.04"/>
</g>
<!-- 6 -->
<g id="node6" class="node">
<title>6</title>
<path fill="#98fb98" stroke="#000000" d="M822.85,-24.5C822.85,-24.5 930.62,-24.5 930.62,-24.5 936.62,-24.5 942.62,-30.5 942.62,-36.5 942.62,-36.5 942.62,-78.5 942.62,-78.5 942.62,-84.5 936.62,-90.5 930.62,-90.5 930.62,-90.5 822.85,-90.5 822.85,-90.5 816.85,-90.5 810.85,-84.5 810.85,-78.5 810.85,-78.5 810.85,-36.5 810.85,-36.5 810.85,-30.5 816.85,-24.5 822.85,-24.5"/>
<text xml:space="preserve" text-anchor="middle" x="876.74" y="-75.3" font-family="Times,serif" font-size="14.00">phys idx = 6</text>
<polyline fill="none" stroke="#000000" points="810.85,-68.5 942.62,-68.5"/>
<text xml:space="preserve" text-anchor="middle" x="876.74" y="-53.3" font-family="Times,serif" font-size="14.00">elem = 66.00</text>
<polyline fill="none" stroke="#000000" points="810.85,-46.5 942.62,-46.5"/>
<text xml:space="preserve" text-anchor="middle" x="842.24" y="-31.3" font-family="Times,serif" font-size="14.00">prev = 5</text>
<polyline fill="none" stroke="#000000" points="873.62,-24.5 873.62,-46.5"/>
<text xml:space="preserve" text-anchor="middle" x="908.12" y="-31.3" font-family="Times,serif" font-size="14.00">next = 10</text>
</g>
<!-- 5&#45;&gt;6 -->
<!-- 5&#45;&gt;6 -->
<g id="edge16" class="edge">
<title>5&#45;&gt;6</title>
<path fill="none" stroke="#6a7075" d="M785.05,-68.67C785.05,-68.67 800.5,-68.67 800.5,-68.67"/>
<polygon fill="#6a7075" stroke="#6a7075" points="785.05,-65.69 776.55,-68.67 785.05,-71.64 785.05,-65.69"/>
<polygon fill="#6a7075" stroke="#6a7075" points="800.5,-71.64 809,-68.67 800.5,-65.69 800.5,-71.64"/>
</g>
<!-- 7 -->
<g id="node7" class="node">
<title>7</title>
<path fill="#98fb98" stroke="#000000" d="M990.62,-24.5C990.62,-24.5 1091.39,-24.5 1091.39,-24.5 1097.39,-24.5 1103.39,-30.5 1103.39,-36.5 1103.39,-36.5 1103.39,-78.5 1103.39,-78.5 1103.39,-84.5 1097.39,-90.5 1091.39,-90.5 1091.39,-90.5 990.62,-90.5 990.62,-90.5 984.62,-90.5 978.62,-84.5 978.62,-78.5 978.62,-78.5 978.62,-36.5 978.62,-36.5 978.62,-30.5 984.62,-24.5 990.62,-24.5"/>
<text xml:space="preserve" text-anchor="middle" x="1041.01" y="-75.3" font-family="Times,serif" font-size="14.00">phys idx = 7</text>
<polyline fill="none" stroke="#000000" points="978.62,-68.5 1103.39,-68.5"/>
<text xml:space="preserve" text-anchor="middle" x="1041.01" y="-53.3" font-family="Times,serif" font-size="14.00">elem = 35.00</text>
<polyline fill="none" stroke="#000000" points="978.62,-46.5 1103.39,-46.5"/>
<text xml:space="preserve" text-anchor="middle" x="1010.01" y="-31.3" font-family="Times,serif" font-size="14.00">prev = 9</text>
<polyline fill="none" stroke="#000000" points="1041.39,-24.5 1041.39,-46.5"/>
<text xml:space="preserve" text-anchor="middle" x="1072.39" y="-31.3" font-family="Times,serif" font-size="14.00">next = 8</text>
</g>
<!-- 6&#45;&gt;7 -->
<!-- 10 -->
<g id="node10" class="node">
<title>10</title>
<path fill="#98fb98" stroke="#000000" d="M1472.93,-24.5C1472.93,-24.5 1573.71,-24.5 1573.71,-24.5 1579.71,-24.5 1585.71,-30.5 1585.71,-36.5 1585.71,-36.5 1585.71,-78.5 1585.71,-78.5 1585.71,-84.5 1579.71,-90.5 1573.71,-90.5 1573.71,-90.5 1472.93,-90.5 1472.93,-90.5 1466.93,-90.5 1460.93,-84.5 1460.93,-78.5 1460.93,-78.5 1460.93,-36.5 1460.93,-36.5 1460.93,-30.5 1466.93,-24.5 1472.93,-24.5"/>
<text xml:space="preserve" text-anchor="middle" x="1523.32" y="-75.3" font-family="Times,serif" font-size="14.00">phys idx = 10</text>
<polyline fill="none" stroke="#000000" points="1460.93,-68.5 1585.71,-68.5"/>
<text xml:space="preserve" text-anchor="middle" x="1523.32" y="-53.3" font-family="Times,serif" font-size="14.00">elem = 70.00</text>
<polyline fill="none" stroke="#000000" points="1460.93,-46.5 1585.71,-46.5"/>
<text xml:space="preserve" text-anchor="middle" x="1492.32" y="-31.3" font-family="Times,serif" font-size="14.00">prev = 6</text>
<polyline fill="none" stroke="#000000" points="1523.71,-24.5 1523.71,-46.5"/>
<text xml:space="preserve" text-anchor="middle" x="1554.71" y="-31.3" font-family="Times,serif" font-size="14.00">next = 0</text>
</g>
<!-- 6&#45;&gt;10 -->
<g id="edge17" class="edge">
<title>6&#45;&gt;10</title>
<path fill="none" stroke="#6a7075" d="M877.14,-100.92C877.14,-100.92 877.14,-105.6 877.14,-105.6 877.14,-105.6 1484.14,-105.6 1484.14,-105.6 1484.14,-105.6 1484.14,-100.92 1484.14,-100.92"/>
<polygon fill="#6a7075" stroke="#6a7075" points="880.11,-100.92 877.14,-92.42 874.16,-100.92 880.11,-100.92"/>
<polygon fill="#6a7075" stroke="#6a7075" points="1487.11,-100.92 1484.14,-92.42 1481.16,-100.92 1487.11,-100.92"/>
</g>
<!-- 8 -->
<g id="node8" class="node">
<title>8</title>
<path fill="#98fb98" stroke="#000000" d="M1151.39,-24.5C1151.39,-24.5 1252.16,-24.5 1252.16,-24.5 1258.16,-24.5 1264.16,-30.5 1264.16,-36.5 1264.16,-36.5 1264.16,-78.5 1264.16,-78.5 1264.16,-84.5 1258.16,-90.5 1252.16,-90.5 1252.16,-90.5 1151.39,-90.5 1151.39,-90.5 1145.39,-90.5 1139.39,-84.5 1139.39,-78.5 1139.39,-78.5 1139.39,-36.5 1139.39,-36.5 1139.39,-30.5 1145.39,-24.5 1151.39,-24.5"/>
<text xml:space="preserve" text-anchor="middle" x="1201.78" y="-75.3" font-family="Times,serif" font-size="14.00">phys idx = 8</text>
<polyline fill="none" stroke="#000000" points="1139.39,-68.5 1264.16,-68.5"/>
<text xml:space="preserve" text-anchor="middle" x="1201.78" y="-53.3" font-family="Times,serif" font-size="14.00">elem = 36.00</text>
<polyline fill="none" stroke="#000000" points="1139.39,-46.5 1264.16,-46.5"/>
<text xml:space="preserve" text-anchor="middle" x="1170.78" y="-31.3" font-family="Times,serif" font-size="14.00">prev = 7</text>
<polyline fill="none" stroke="#000000" points="1202.17,-24.5 1202.17,-46.5"/>
<text xml:space="preserve" text-anchor="middle" x="1233.16" y="-31.3" font-family="Times,serif" font-size="14.00">next = 5</text>
</g>
<!-- 7&#45;&gt;8 -->
<!-- 7&#45;&gt;8 -->
<g id="edge18" class="edge">
<title>7&#45;&gt;8</title>
<path fill="none" stroke="#6a7075" d="M1113.64,-68.67C1113.64,-68.67 1129.05,-68.67 1129.05,-68.67"/>
<polygon fill="#6a7075" stroke="#6a7075" points="1113.64,-65.69 1105.14,-68.67 1113.64,-71.64 1113.64,-65.69"/>
<polygon fill="#6a7075" stroke="#6a7075" points="1129.05,-71.64 1137.55,-68.67 1129.05,-65.69 1129.05,-71.64"/>
</g>
<!-- 8&#45;&gt;5 -->
<g id="edge19" class="edge">
<title>8&#45;&gt;5</title>
<path fill="none" stroke="#6a7075" d="M1202.14,-14.42C1202.14,-14.42 1202.14,-12 1202.14,-12 1202.14,-12 712.14,-12 712.14,-12 712.14,-12 712.14,-14.42 712.14,-14.42"/>
<polygon fill="#6a7075" stroke="#6a7075" points="1199.16,-14.42 1202.14,-22.92 1205.11,-14.42 1199.16,-14.42"/>
<polygon fill="#6a7075" stroke="#6a7075" points="709.16,-14.42 712.14,-22.92 715.11,-14.42 709.16,-14.42"/>
</g>
<!-- 8&#45;&gt;9 -->
<!-- 9&#45;&gt;7 -->
<g id="edge20" class="edge">
<title>9&#45;&gt;7</title>
<path fill="none" stroke="#6a7075" d="M1362.14,-97.55C1362.14,-97.55 1362.14,-98.3 1362.14,-98.3 1362.14,-98.3 1041.14,-98.3 1041.14,-98.3 1041.14,-98.3 1041.14,-97.55 1041.14,-97.55"/>
<polygon fill="#6a7075" stroke="#6a7075" points="1365.11,-100.83 1362.14,-92.33 1359.16,-100.83 1365.11,-100.83"/>
<polygon fill="#6a7075" stroke="#6a7075" points="1044.11,-100.83 1041.14,-92.33 1038.16,-100.83 1044.11,-100.83"/>
</g>
<!-- 9&#45;&gt;10 -->
<!-- 10&#45;&gt;0 -->
<g id="edge21" class="edge">
<title>10&#45;&gt;0</title>
<path fill="none" stroke="#6a7075" d="M1473.14,-100.7C1473.14,-100.7 1473.14,-112.9 1473.14,-112.9 1473.14,-112.9 88.14,-112.9 88.14,-112.9 88.14,-112.9 88.14,-100.7 88.14,-100.7"/>
<polygon fill="#6a7075" stroke="#6a7075" points="1476.11,-100.7 1473.14,-92.2 1470.16,-100.7 1476.11,-100.7"/>
<polygon fill="#6a7075" stroke="#6a7075" points="91.11,-100.7 88.14,-92.2 85.16,-100.7 91.11,-100.7"/>
</g>
<!-- 4 -->
<g id="node11" class="node">
<title>4</title>
<path fill="#82898f" stroke="#000000" d="M1633.71,-24.5C1633.71,-24.5 1739.14,-24.5 1739.14,-24.5 1745.14,-24.5 1751.14,-30.5 1751.14,-36.5 1751.14,-36.5 1751.14,-78.5 1751.14,-78.5 1751.14,-84.5 1745.14,-90.5 1739.14,-90.5 1739.14,-90.5 1633.71,-90.5 1633.71,-90.5 1627.71,-90.5 1621.71,-84.5 1621.71,-78.5 1621.71,-78.5 1621.71,-36.5 1621.71,-36.5 1621.71,-30.5 1627.71,-24.5 1633.71,-24.5"/>
<text xml:space="preserve" text-anchor="middle" x="1686.42" y="-75.3" font-family="Times,serif" font-size="14.00">phys idx = 4</text>
<polyline fill="none" stroke="#000000" points="1621.71,-68.5 1751.14,-68.5"/>
<text xml:space="preserve" text-anchor="middle" x="1686.42" y="-53.3" font-family="Times,serif" font-size="14.00">elem = &#45;6666.00</text>
<polyline fill="none" stroke="#000000" points="1621.71,-46.5 1751.14,-46.5"/>
<text xml:space="preserve" text-anchor="middle" x="1655.42" y="-31.3" font-family="Times,serif" font-size="14.00">prev = &#45;1</text>
<polyline fill="none" stroke="#000000" points="1689.14,-24.5 1689.14,-46.5"/>
<text xml:space="preserve" text-anchor="middle" x="1720.14" y="-31.3" font-family="Times,serif" font-size="14.00">next = 0</text>
</g>
<!-- 10&#45;&gt;4 -->
<!-- 4&#45;&gt;0 -->
<g id="edge15" class="edge">
<title>4&#45;&gt;0</title>
<path fill="none" stroke="#44944a" d="M1640.14,-90.69C1640.14,-105.73 1640.14,-120.2 1640.14,-120.2 1640.14,-120.2 44.14,-120.2 44.14,-120.2 44.14,-120.2 44.14,-100.7 44.14,-100.7"/>
<polygon fill="#44944a" stroke="#44944a" points="47.11,-100.7 44.14,-92.2 41.16,-100.7 47.11,-100.7"/>
</g>
<!-- head_label -->
<g id="node12" class="node">
<title>head_label</title>
<polygon fill="#879eac" stroke="#fff4cc" points="257.16,-163.5 203.16,-163.5 203.16,-127.5 257.16,-127.5 257.16,-163.5"/>
<text xml:space="preserve" text-anchor="middle" x="230.16" y="-141.9" font-family="Times,serif" font-size="12.00" fill="#fff4cc">HEAD</text>
</g>
<!-- head_label&#45;&gt;1 -->
<g id="edge22" class="edge">
<title>head_label&#45;&gt;1</title>
<path fill="none" stroke="#fff4cc" d="M230.14,-127.27C230.14,-127.27 230.14,-100.66 230.14,-100.66"/>
<polygon fill="#fff4cc" stroke="#fff4cc" points="233.11,-100.66 230.14,-92.16 227.16,-100.66 233.11,-100.66"/>
</g>
<!-- tail_label -->
<g id="node13" class="node">
<title>tail_label</title>
<polygon fill="#879eac" stroke="#fff4cc" points="1550.32,-274.5 1496.32,-274.5 1496.32,-238.5 1550.32,-238.5 1550.32,-274.5"/>
<text xml:space="preserve" text-anchor="middle" x="1523.32" y="-252.9" font-family="Times,serif" font-size="12.00" fill="#fff4cc">TAIL</text>
</g>
<!-- tail_label&#45;&gt;10 -->
<g id="edge23" class="edge">
<title>tail_label&#45;&gt;10</title>
<path fill="none" stroke="#fff4cc" d="M1523.14,-238.14C1523.14,-238.14 1523.14,-100.93 1523.14,-100.93"/>
<polygon fill="#fff4cc" stroke="#fff4cc" points="1526.11,-100.93 1523.14,-92.43 1520.16,-100.93 1526.11,-100.93"/>
</g>
<!-- free_label -->
<g id="node14" class="node">
<title>free_label</title>
<polygon fill="#879eac" stroke="#fff4cc" points="1713.42,-163.5 1659.42,-163.5 1659.42,-127.5 1713.42,-127.5 1713.42,-163.5"/>
<text xml:space="preserve" text-anchor="middle" x="1686.42" y="-141.9" font-family="Times,serif" font-size="12.00" fill="#fff4cc">FREE</text>
</g>
<!-- free_label&#45;&gt;4 -->
<g id="edge24" class="edge">
<title>free_label&#45;&gt;4</title>
<path fill="none" stroke="#fff4cc" d="M1686.14,-127.27C1686.14,-127.27 1686.14,-100.66 1686.14,-100.66"/>
<polygon fill="#fff4cc" stroke="#fff4cc" points="1689.11,-100.66 1686.14,-92.16 1683.16,-100.66 1689.11,-100.66"/>
</g>
</g>
</svg>
