<?xml version="1.0" encoding="UTF-8" standalone="no"?>
<!DOCTYPE svg PUBLIC "-//W3C//DTD SVG 1.1//EN"
 "http://www.w3.org/Graphics/SVG/1.1/DTD/svg11.dtd">
<!-- Generated by graphviz version 14.0.2 (20251019.1705)
 -->
<!-- Title: G Pages: 1 -->
<svg width="3740pt" height="419pt"
 viewBox="0.00 0.00 3740.00 419.00" xmlns="http://www.w3.org/2000/svg" xmlns:xlink="http://www.w3.org/1999/xlink">
<g id="graph0" class="graph" transform="scale(1 1) rotate(0) translate(4 414.95)">
<title>G</title>
<polygon fill="#fffafa" stroke="none" points="-4,4 -4,-414.95 3736.18,-414.95 3736.18,4 -4,4"/>
<!-- 0 -->
<g id="node1" class="node">
<title>0</title>
<path fill="#cd5c5c" stroke="#000000" d="M12,-125.95C12,-125.95 119.77,-125.95 119.77,-125.95 125.77,-125.95 131.77,-131.95 131.77,-137.95 131.77,-137.95 131.77,-179.95 131.77,-179.95 131.77,-185.95 125.77,-191.95 119.77,-191.95 119.77,-191.95 12,-191.95 12,-191.95 6,-191.95 0,-185.95 0,-179.95 0,-179.95 0,-137.95 0,-137.95 0,-131.95 6,-125.95 12,-125.95"/>
<text xml:space="preserve" text-anchor="middle" x="65.89" y="-176.75" font-family="Times,serif" font-size="14.00">phys idx = 0</text>
<polyline fill="none" stroke="#000000" points="0,-169.95 131.77,-169.95"/>
<text xml:space="preserve" text-anchor="middle" x="65.89" y="-154.75" font-family="Times,serif" font-size="14.00">elem = &#45;6666.00</text>
<polyline fill="none" stroke="#000000" points="0,-147.95 131.77,-147.95"/>
<text xml:space="preserve" text-anchor="middle" x="34.89" y="-132.75" font-family="Times,serif" font-size="14.00">prev = 10</text>
<polyline fill="none" stroke="#000000" points="69.77,-125.95 69.77,-147.95"/>
<text xml:space="preserve" text-anchor="middle" x="100.77" y="-132.75" font-family="Times,serif" font-size="14.00">next = 1</text>
</g>
<!-- 1 -->
<g id="node2" class="node">
<title>1</title>
<path fill="#98fb98" stroke="#000000" d="M201.77,-125.95C201.77,-125.95 302.54,-125.95 302.54,-125.95 308.54,-125.95 314.54,-131.95 314.54,-137.95 314.54,-137.95 314.54,-179.95 314.54,-179.95 314.54,-185.95 308.54,-191.95 302.54,-191.95 302.54,-191.95 201.77,-191.95 201.77,-191.95 195.77,-191.95 189.77,-185.95 189.77,-179.95 189.77,-179.95 189.77,-137.95 189.77,-137.95 189.77,-131.95 195.77,-125.95 201.77,-125.95"/>
<text xml:space="preserve" text-anchor="middle" x="252.16" y="-176.75" font-family="Times,serif" font-size="14.00">phys idx = 1</text>
<polyline fill="none" stroke="#000000" points="189.77,-169.95 314.54,-169.95"/>
<text xml:space="preserve" text-anchor="middle" x="252.16" y="-154.75" font-family="Times,serif" font-size="14.00">elem = 11.00</text>
<polyline fill="none" stroke="#000000" points="189.77,-147.95 314.54,-147.95"/>
<text xml:space="preserve" text-anchor="middle" x="221.16" y="-132.75" font-family="Times,serif" font-size="14.00">prev = 0</text>
<polyline fill="none" stroke="#000000" points="252.54,-125.95 252.54,-147.95"/>
<text xml:space="preserve" text-anchor="middle" x="283.54" y="-132.75" font-family="Times,serif" font-size="14.00">next = 2</text>
</g>
<!-- 0&#45;&gt;1 -->
<!-- 0&#45;&gt;1 -->
<g id="edge25" class="edge">
<title>0&#45;&gt;1</title>
<path fill="none" stroke="#000000" d="M141.85,-167.07C154.32,-167.26 167.23,-167.24 179.61,-167.01"/>
<polygon fill="#000000" stroke="#000000" points="142.18,-164.1 133.62,-166.91 142.06,-170.05 142.18,-164.1"/>
<polygon fill="#000000" stroke="#000000" points="179.47,-169.99 187.9,-166.82 179.33,-164.04 179.47,-169.99"/>
</g>
<!-- 2 -->
<g id="node3" class="node">
<title>2</title>
<path fill="#98fb98" stroke="#000000" d="M384.54,-125.95C384.54,-125.95 485.31,-125.95 485.31,-125.95 491.31,-125.95 497.31,-131.95 497.31,-137.95 497.31,-137.95 497.31,-179.95 497.31,-179.95 497.31,-185.95 491.31,-191.95 485.31,-191.95 485.31,-191.95 384.54,-191.95 384.54,-191.95 378.54,-191.95 372.54,-185.95 372.54,-179.95 372.54,-179.95 372.54,-137.95 372.54,-137.95 372.54,-131.95 378.54,-125.95 384.54,-125.95"/>
<text xml:space="preserve" text-anchor="middle" x="434.93" y="-176.75" font-family="Times,serif" font-size="14.00">phys idx = 2</text>
<polyline fill="none" stroke="#000000" points="372.54,-169.95 497.31,-169.95"/>
<text xml:space="preserve" text-anchor="middle" x="434.93" y="-154.75" font-family="Times,serif" font-size="14.00">elem = 21.00</text>
<polyline fill="none" stroke="#000000" points="372.54,-147.95 497.31,-147.95"/>
<text xml:space="preserve" text-anchor="middle" x="403.93" y="-132.75" font-family="Times,serif" font-size="14.00">prev = 1</text>
<polyline fill="none" stroke="#000000" points="435.31,-125.95 435.31,-147.95"/>
<text xml:space="preserve" text-anchor="middle" x="466.31" y="-132.75" font-family="Times,serif" font-size="14.00">next = 3</text>
</g>
<!-- 1&#45;&gt;2 -->
<!-- 1&#45;&gt;2 -->
<g id="edge26" class="edge">
<title>1&#45;&gt;2</title>
<path fill="none" stroke="#000000" d="M324.55,-167.04C336.98,-167.25 349.91,-167.25 362.35,-167.04"/>
<polygon fill="#000000" stroke="#000000" points="324.94,-164.07 316.37,-166.85 324.81,-170.02 324.94,-164.07"/>
<polygon fill="#000000" stroke="#000000" points="362.25,-170.02 370.68,-166.85 362.11,-164.07 362.25,-170.02"/>
</g>
<!-- 3 -->
<g id="node4" class="node">
<title>3</title>
<path fill="#98fb98" stroke="#000000" d="M567.31,-125.95C567.31,-125.95 668.08,-125.95 668.08,-125.95 674.08,-125.95 680.08,-131.95 680.08,-137.95 680.08,-137.95 680.08,-179.95 680.08,-179.95 680.08,-185.95 674.08,-191.95 668.08,-191.95 668.08,-191.95 567.31,-191.95 567.31,-191.95 561.31,-191.95 555.31,-185.95 555.31,-179.95 555.31,-179.95 555.31,-137.95 555.31,-137.95 555.31,-131.95 561.31,-125.95 567.31,-125.95"/>
<text xml:space="preserve" text-anchor="middle" x="617.7" y="-176.75" font-family="Times,serif" font-size="14.00">phys idx = 3</text>
<polyline fill="none" stroke="#000000" points="555.31,-169.95 680.08,-169.95"/>
<text xml:space="preserve" text-anchor="middle" x="617.7" y="-154.75" font-family="Times,serif" font-size="14.00">elem = 31.00</text>
<polyline fill="none" stroke="#000000" points="555.31,-147.95 680.08,-147.95"/>
<text xml:space="preserve" text-anchor="middle" x="586.7" y="-132.75" font-family="Times,serif" font-size="14.00">prev = 2</text>
<polyline fill="none" stroke="#000000" points="618.08,-125.95 618.08,-147.95"/>
<text xml:space="preserve" text-anchor="middle" x="649.08" y="-132.75" font-family="Times,serif" font-size="14.00">next = 9</text>
</g>
<!-- 2&#45;&gt;3 -->
<!-- 2&#45;&gt;3 -->
<g id="edge27" class="edge">
<title>2&#45;&gt;3</title>
<path fill="none" stroke="#000000" d="M507.32,-167.04C519.75,-167.25 532.68,-167.25 545.12,-167.04"/>
<polygon fill="#000000" stroke="#000000" points="507.71,-164.07 499.14,-166.85 507.58,-170.02 507.71,-164.07"/>
<polygon fill="#000000" stroke="#000000" points="545.02,-170.02 553.45,-166.85 544.89,-164.07 545.02,-170.02"/>
</g>
<!-- 4 -->
<g id="node5" class="node">
<title>4</title>
<path fill="#82898f" stroke="#000000" d="M750.08,-125.95C750.08,-125.95 862,-125.95 862,-125.95 868,-125.95 874,-131.95 874,-137.95 874,-137.95 874,-179.95 874,-179.95 874,-185.95 868,-191.95 862,-191.95 862,-191.95 750.08,-191.95 750.08,-191.95 744.08,-191.95 738.08,-185.95 738.08,-179.95 738.08,-179.95 738.08,-137.95 738.08,-137.95 738.08,-131.95 744.08,-125.95 750.08,-125.95"/>
<text xml:space="preserve" text-anchor="middle" x="806.04" y="-176.75" font-family="Times,serif" font-size="14.00">phys idx = 4</text>
<polyline fill="none" stroke="#000000" points="738.08,-169.95 874,-169.95"/>
<text xml:space="preserve" text-anchor="middle" x="806.04" y="-154.75" font-family="Times,serif" font-size="14.00">elem = &#45;6666.00</text>
<polyline fill="none" stroke="#000000" points="738.08,-147.95 874,-147.95"/>
<text xml:space="preserve" text-anchor="middle" x="771.8" y="-132.75" font-family="Times,serif" font-size="14.00">prev = &#45;1</text>
<polyline fill="none" stroke="#000000" points="805.52,-125.95 805.52,-147.95"/>
<text xml:space="preserve" text-anchor="middle" x="839.76" y="-132.75" font-family="Times,serif" font-size="14.00">next = 11</text>
</g>
<!-- 3&#45;&gt;4 -->
<!-- 9 -->
<g id="node11" class="node">
<title>9</title>
<path fill="#98fb98" stroke="#000000" d="M1693.75,-125.95C1693.75,-125.95 1794.52,-125.95 1794.52,-125.95 1800.52,-125.95 1806.52,-131.95 1806.52,-137.95 1806.52,-137.95 1806.52,-179.95 1806.52,-179.95 1806.52,-185.95 1800.52,-191.95 1794.52,-191.95 1794.52,-191.95 1693.75,-191.95 1693.75,-191.95 1687.75,-191.95 1681.75,-185.95 1681.75,-179.95 1681.75,-179.95 1681.75,-137.95 1681.75,-137.95 1681.75,-131.95 1687.75,-125.95 1693.75,-125.95"/>
<text xml:space="preserve" text-anchor="middle" x="1744.13" y="-176.75" font-family="Times,serif" font-size="14.00">phys idx = 9</text>
<polyline fill="none" stroke="#000000" points="1681.75,-169.95 1806.52,-169.95"/>
<text xml:space="preserve" text-anchor="middle" x="1744.13" y="-154.75" font-family="Times,serif" font-size="14.00">elem = 32.00</text>
<polyline fill="none" stroke="#000000" points="1681.75,-147.95 1806.52,-147.95"/>
<text xml:space="preserve" text-anchor="middle" x="1713.13" y="-132.75" font-family="Times,serif" font-size="14.00">prev = 3</text>
<polyline fill="none" stroke="#000000" points="1744.52,-125.95 1744.52,-147.95"/>
<text xml:space="preserve" text-anchor="middle" x="1775.52" y="-132.75" font-family="Times,serif" font-size="14.00">next = 8</text>
</g>
<!-- 3&#45;&gt;9 -->
<g id="edge28" class="edge">
<title>3&#45;&gt;9</title>
<path fill="none" stroke="#000000" d="M689.65,-188.38C705.4,-194.16 722.15,-199.73 738.08,-203.95 961.08,-263.05 1023.62,-283.77 1253.54,-264.95 1419.74,-251.35 1462.68,-247.12 1623.75,-203.95 1639.66,-199.68 1656.41,-194.1 1672.16,-188.32"/>
<polygon fill="#000000" stroke="#000000" points="690.92,-185.68 681.92,-185.5 688.84,-191.26 690.92,-185.68"/>
<polygon fill="#000000" stroke="#000000" points="1672.97,-191.19 1679.89,-185.43 1670.89,-185.62 1672.97,-191.19"/>
</g>
<!-- 5 -->
<g id="node7" class="node">
<title>5</title>
<path fill="#98fb98" stroke="#000000" d="M944,-125.95C944,-125.95 1051.77,-125.95 1051.77,-125.95 1057.77,-125.95 1063.77,-131.95 1063.77,-137.95 1063.77,-137.95 1063.77,-179.95 1063.77,-179.95 1063.77,-185.95 1057.77,-191.95 1051.77,-191.95 1051.77,-191.95 944,-191.95 944,-191.95 938,-191.95 932,-185.95 932,-179.95 932,-179.95 932,-137.95 932,-137.95 932,-131.95 938,-125.95 944,-125.95"/>
<text xml:space="preserve" text-anchor="middle" x="997.89" y="-176.75" font-family="Times,serif" font-size="14.00">phys idx = 5</text>
<polyline fill="none" stroke="#000000" points="932,-169.95 1063.77,-169.95"/>
<text xml:space="preserve" text-anchor="middle" x="997.89" y="-154.75" font-family="Times,serif" font-size="14.00">elem = 51.00</text>
<polyline fill="none" stroke="#000000" points="932,-147.95 1063.77,-147.95"/>
<text xml:space="preserve" text-anchor="middle" x="963.39" y="-132.75" font-family="Times,serif" font-size="14.00">prev = 8</text>
<polyline fill="none" stroke="#000000" points="994.77,-125.95 994.77,-147.95"/>
<text xml:space="preserve" text-anchor="middle" x="1029.27" y="-132.75" font-family="Times,serif" font-size="14.00">next = 57</text>
</g>
<!-- 4&#45;&gt;5 -->
<!-- 11 -->
<g id="node13" class="node">
<title>11</title>
<path fill="#82898f" stroke="#000000" d="M2059.29,-125.95C2059.29,-125.95 2171.72,-125.95 2171.72,-125.95 2177.72,-125.95 2183.72,-131.95 2183.72,-137.95 2183.72,-137.95 2183.72,-179.95 2183.72,-179.95 2183.72,-185.95 2177.72,-191.95 2171.72,-191.95 2171.72,-191.95 2059.29,-191.95 2059.29,-191.95 2053.29,-191.95 2047.29,-185.95 2047.29,-179.95 2047.29,-179.95 2047.29,-137.95 2047.29,-137.95 2047.29,-131.95 2053.29,-125.95 2059.29,-125.95"/>
<text xml:space="preserve" text-anchor="middle" x="2115.5" y="-176.75" font-family="Times,serif" font-size="14.00">phys idx = 11</text>
<polyline fill="none" stroke="#000000" points="2047.29,-169.95 2183.72,-169.95"/>
<text xml:space="preserve" text-anchor="middle" x="2115.5" y="-154.75" font-family="Times,serif" font-size="14.00">elem = &#45;6666.00</text>
<polyline fill="none" stroke="#000000" points="2047.29,-147.95 2183.72,-147.95"/>
<text xml:space="preserve" text-anchor="middle" x="2081" y="-132.75" font-family="Times,serif" font-size="14.00">prev = &#45;1</text>
<polyline fill="none" stroke="#000000" points="2114.72,-125.95 2114.72,-147.95"/>
<text xml:space="preserve" text-anchor="middle" x="2149.22" y="-132.75" font-family="Times,serif" font-size="14.00">next = 12</text>
</g>
<!-- 4&#45;&gt;11 -->
<g id="edge29" class="edge">
<title>4&#45;&gt;11</title>
<path fill="none" stroke="#ff8c00" d="M874.32,-132.17C892.78,-125.68 912.95,-119.35 932,-114.95 1014.73,-95.84 1037.02,-98.07 1121.77,-92.95 1506.76,-69.69 1610.54,-42.14 1989.29,-114.95 2005.27,-118.02 2021.97,-122.75 2037.77,-127.98"/>
<polygon fill="#ff8c00" stroke="#ff8c00" points="2036.51,-130.7 2045.52,-130.63 2038.43,-125.07 2036.51,-130.7"/>
</g>
<!-- 57 -->
<g id="node6" class="node">
<title>57</title>
<polygon fill="#bb0d12" stroke="#000000" stroke-width="2" points="92.89,-77.49 92.89,-92.41 77.07,-102.95 54.7,-102.95 38.89,-92.41 38.89,-77.49 54.7,-66.95 77.07,-66.95 92.89,-77.49"/>
<text xml:space="preserve" text-anchor="middle" x="65.89" y="-80.75" font-family="Times,serif" font-size="14.00">57</text>
</g>
<!-- 5&#45;&gt;57 -->
<g id="edge30" class="edge">
<title>5&#45;&gt;57</title>
<path fill="none" stroke="#ff4f00" stroke-width="2" d="M945.8,-192.34C836.98,-258.99 575.66,-395.1 372.54,-309.95 338.63,-295.73 345.36,-271.01 314.54,-250.95 264.88,-218.62 235.97,-241.06 189.77,-203.95 152.96,-174.38 167.48,-145.84 131.77,-114.95 123.92,-108.16 114.27,-102.6 104.83,-98.2"/>
<polygon fill="#ff4f00" stroke="#ff4f00" stroke-width="2" points="106.51,-95.1 95.93,-94.41 103.77,-101.55 106.51,-95.1"/>
</g>
<!-- 6 -->
<g id="node8" class="node">
<title>6</title>
<path fill="#98fb98" stroke="#000000" d="M1133.77,-125.95C1133.77,-125.95 1241.54,-125.95 1241.54,-125.95 1247.54,-125.95 1253.54,-131.95 1253.54,-137.95 1253.54,-137.95 1253.54,-179.95 1253.54,-179.95 1253.54,-185.95 1247.54,-191.95 1241.54,-191.95 1241.54,-191.95 1133.77,-191.95 1133.77,-191.95 1127.77,-191.95 1121.77,-185.95 1121.77,-179.95 1121.77,-179.95 1121.77,-137.95 1121.77,-137.95 1121.77,-131.95 1127.77,-125.95 1133.77,-125.95"/>
<text xml:space="preserve" text-anchor="middle" x="1187.66" y="-176.75" font-family="Times,serif" font-size="14.00">phys idx = 6</text>
<polyline fill="none" stroke="#000000" points="1121.77,-169.95 1253.54,-169.95"/>
<text xml:space="preserve" text-anchor="middle" x="1187.66" y="-154.75" font-family="Times,serif" font-size="14.00">elem = 66.00</text>
<polyline fill="none" stroke="#000000" points="1121.77,-147.95 1253.54,-147.95"/>
<text xml:space="preserve" text-anchor="middle" x="1153.16" y="-132.75" font-family="Times,serif" font-size="14.00">prev = 5</text>
<polyline fill="none" stroke="#000000" points="1184.54,-125.95 1184.54,-147.95"/>
<text xml:space="preserve" text-anchor="middle" x="1219.04" y="-132.75" font-family="Times,serif" font-size="14.00">next = 10</text>
</g>
<!-- 5&#45;&gt;6 -->
<!-- 5&#45;&gt;6 -->
<g id="edge32" class="edge">
<title>5&#45;&gt;6</title>
<path fill="none" stroke="#ff4f00" stroke-width="2" d="M1076.85,-167.09C1091.63,-167.29 1106.96,-167.21 1121.31,-166.85"/>
<polygon fill="#ff4f00" stroke="#ff4f00" stroke-width="2" points="1077.13,-163.6 1067.06,-166.9 1076.99,-170.6 1077.13,-163.6"/>
</g>
<!-- 7 -->
<g id="node9" class="node">
<title>7</title>
<path fill="#82898f" stroke="#000000" d="M1323.54,-125.95C1323.54,-125.95 1428.98,-125.95 1428.98,-125.95 1434.98,-125.95 1440.98,-131.95 1440.98,-137.95 1440.98,-137.95 1440.98,-179.95 1440.98,-179.95 1440.98,-185.95 1434.98,-191.95 1428.98,-191.95 1428.98,-191.95 1323.54,-191.95 1323.54,-191.95 1317.54,-191.95 1311.54,-185.95 1311.54,-179.95 1311.54,-179.95 1311.54,-137.95 1311.54,-137.95 1311.54,-131.95 1317.54,-125.95 1323.54,-125.95"/>
<text xml:space="preserve" text-anchor="middle" x="1376.26" y="-176.75" font-family="Times,serif" font-size="14.00">phys idx = 7</text>
<polyline fill="none" stroke="#000000" points="1311.54,-169.95 1440.98,-169.95"/>
<text xml:space="preserve" text-anchor="middle" x="1376.26" y="-154.75" font-family="Times,serif" font-size="14.00">elem = &#45;6666.00</text>
<polyline fill="none" stroke="#000000" points="1311.54,-147.95 1440.98,-147.95"/>
<text xml:space="preserve" text-anchor="middle" x="1345.26" y="-132.75" font-family="Times,serif" font-size="14.00">prev = &#45;1</text>
<polyline fill="none" stroke="#000000" points="1378.98,-125.95 1378.98,-147.95"/>
<text xml:space="preserve" text-anchor="middle" x="1409.98" y="-132.75" font-family="Times,serif" font-size="14.00">next = 4</text>
</g>
<!-- 6&#45;&gt;7 -->
<!-- 7&#45;&gt;4 -->
<g id="edge33" class="edge">
<title>7&#45;&gt;4</title>
<path fill="none" stroke="#ff8c00" d="M1311.07,-187.49C1292.84,-194.27 1272.73,-200.52 1253.54,-203.95 1112.87,-229.12 1072.78,-228.53 932,-203.95 915.96,-201.15 899.25,-196.47 883.47,-191.16"/>
<polygon fill="#ff8c00" stroke="#ff8c00" points="884.74,-188.45 875.73,-188.46 882.78,-194.07 884.74,-188.45"/>
</g>
<!-- 8 -->
<g id="node10" class="node">
<title>8</title>
<path fill="#98fb98" stroke="#000000" d="M1510.98,-125.95C1510.98,-125.95 1611.75,-125.95 1611.75,-125.95 1617.75,-125.95 1623.75,-131.95 1623.75,-137.95 1623.75,-137.95 1623.75,-179.95 1623.75,-179.95 1623.75,-185.95 1617.75,-191.95 1611.75,-191.95 1611.75,-191.95 1510.98,-191.95 1510.98,-191.95 1504.98,-191.95 1498.98,-185.95 1498.98,-179.95 1498.98,-179.95 1498.98,-137.95 1498.98,-137.95 1498.98,-131.95 1504.98,-125.95 1510.98,-125.95"/>
<text xml:space="preserve" text-anchor="middle" x="1561.36" y="-176.75" font-family="Times,serif" font-size="14.00">phys idx = 8</text>
<polyline fill="none" stroke="#000000" points="1498.98,-169.95 1623.75,-169.95"/>
<text xml:space="preserve" text-anchor="middle" x="1561.36" y="-154.75" font-family="Times,serif" font-size="14.00">elem = 36.00</text>
<polyline fill="none" stroke="#000000" points="1498.98,-147.95 1623.75,-147.95"/>
<text xml:space="preserve" text-anchor="middle" x="1530.36" y="-132.75" font-family="Times,serif" font-size="14.00">prev = 9</text>
<polyline fill="none" stroke="#000000" points="1561.75,-125.95 1561.75,-147.95"/>
<text xml:space="preserve" text-anchor="middle" x="1592.75" y="-132.75" font-family="Times,serif" font-size="14.00">next = 5</text>
</g>
<!-- 7&#45;&gt;8 -->
<!-- 8&#45;&gt;5 -->
<g id="edge31" class="edge">
<title>8&#45;&gt;5</title>
<path fill="none" stroke="#0000ff" stroke-width="2" d="M1498.63,-131.5C1480.43,-124.7 1460.22,-118.38 1440.98,-114.95 1301.31,-90.03 1261.55,-90.68 1121.77,-114.95 1106.77,-117.55 1091.18,-121.82 1076.34,-126.7"/>
<polygon fill="#0000ff" stroke="#0000ff" stroke-width="2" points="1075.26,-123.37 1066.95,-129.94 1077.54,-129.99 1075.26,-123.37"/>
</g>
<!-- 8&#45;&gt;9 -->
<!-- 9&#45;&gt;8 -->
<g id="edge34" class="edge">
<title>9&#45;&gt;8</title>
<path fill="none" stroke="#000000" d="M1671.55,-167.04C1659.11,-167.25 1646.18,-167.25 1633.75,-167.04"/>
<polygon fill="#000000" stroke="#000000" points="1671.45,-170.02 1679.88,-166.85 1671.32,-164.07 1671.45,-170.02"/>
<polygon fill="#000000" stroke="#000000" points="1634.14,-164.07 1625.58,-166.85 1634.01,-170.02 1634.14,-164.07"/>
</g>
<!-- 10 -->
<g id="node12" class="node">
<title>10</title>
<path fill="#98fb98" stroke="#000000" d="M1876.52,-125.95C1876.52,-125.95 1977.29,-125.95 1977.29,-125.95 1983.29,-125.95 1989.29,-131.95 1989.29,-137.95 1989.29,-137.95 1989.29,-179.95 1989.29,-179.95 1989.29,-185.95 1983.29,-191.95 1977.29,-191.95 1977.29,-191.95 1876.52,-191.95 1876.52,-191.95 1870.52,-191.95 1864.52,-185.95 1864.52,-179.95 1864.52,-179.95 1864.52,-137.95 1864.52,-137.95 1864.52,-131.95 1870.52,-125.95 1876.52,-125.95"/>
<text xml:space="preserve" text-anchor="middle" x="1926.9" y="-176.75" font-family="Times,serif" font-size="14.00">phys idx = 10</text>
<polyline fill="none" stroke="#000000" points="1864.52,-169.95 1989.29,-169.95"/>
<text xml:space="preserve" text-anchor="middle" x="1926.9" y="-154.75" font-family="Times,serif" font-size="14.00">elem = 70.00</text>
<polyline fill="none" stroke="#000000" points="1864.52,-147.95 1989.29,-147.95"/>
<text xml:space="preserve" text-anchor="middle" x="1895.9" y="-132.75" font-family="Times,serif" font-size="14.00">prev = 6</text>
<polyline fill="none" stroke="#000000" points="1927.29,-125.95 1927.29,-147.95"/>
<text xml:space="preserve" text-anchor="middle" x="1958.29" y="-132.75" font-family="Times,serif" font-size="14.00">next = 0</text>
</g>
<!-- 9&#45;&gt;10 -->
<!-- 10&#45;&gt;0 -->
<g id="edge35" class="edge">
<title>10&#45;&gt;0</title>
<path fill="none" stroke="#000000" d="M1854.91,-128.97C1839.22,-123.43 1822.51,-118.33 1806.52,-114.95 1565.57,-64.06 1499.68,-87.73 1253.54,-79.95 780.74,-65 654.24,-25.29 189.77,-114.95 173.77,-118.04 157.07,-122.86 141.32,-128.2"/>
<polygon fill="#000000" stroke="#000000" points="1853.59,-131.66 1862.6,-131.76 1855.62,-126.06 1853.59,-131.66"/>
<polygon fill="#000000" stroke="#000000" points="140.64,-125.29 133.6,-130.9 142.6,-130.9 140.64,-125.29"/>
</g>
<!-- 10&#45;&gt;11 -->
<!-- 12 -->
<g id="node14" class="node">
<title>12</title>
<path fill="#82898f" stroke="#000000" d="M2253.72,-125.95C2253.72,-125.95 2366.15,-125.95 2366.15,-125.95 2372.15,-125.95 2378.15,-131.95 2378.15,-137.95 2378.15,-137.95 2378.15,-179.95 2378.15,-179.95 2378.15,-185.95 2372.15,-191.95 2366.15,-191.95 2366.15,-191.95 2253.72,-191.95 2253.72,-191.95 2247.72,-191.95 2241.72,-185.95 2241.72,-179.95 2241.72,-179.95 2241.72,-137.95 2241.72,-137.95 2241.72,-131.95 2247.72,-125.95 2253.72,-125.95"/>
<text xml:space="preserve" text-anchor="middle" x="2309.94" y="-176.75" font-family="Times,serif" font-size="14.00">phys idx = 12</text>
<polyline fill="none" stroke="#000000" points="2241.72,-169.95 2378.15,-169.95"/>
<text xml:space="preserve" text-anchor="middle" x="2309.94" y="-154.75" font-family="Times,serif" font-size="14.00">elem = &#45;6666.00</text>
<polyline fill="none" stroke="#000000" points="2241.72,-147.95 2378.15,-147.95"/>
<text xml:space="preserve" text-anchor="middle" x="2275.44" y="-132.75" font-family="Times,serif" font-size="14.00">prev = &#45;1</text>
<polyline fill="none" stroke="#000000" points="2309.15,-125.95 2309.15,-147.95"/>
<text xml:space="preserve" text-anchor="middle" x="2343.65" y="-132.75" font-family="Times,serif" font-size="14.00">next = 13</text>
</g>
<!-- 11&#45;&gt;12 -->
<!-- 11&#45;&gt;12 -->
<g id="edge36" class="edge">
<title>11&#45;&gt;12</title>
<path fill="none" stroke="#ff8c00" d="M2184.08,-166.87C2199.5,-167.24 2216.01,-167.3 2231.8,-167.05"/>
<polygon fill="#ff8c00" stroke="#ff8c00" points="2231.57,-170.03 2240.01,-166.89 2231.45,-164.09 2231.57,-170.03"/>
</g>
<!-- 13 -->
<g id="node15" class="node">
<title>13</title>
<path fill="#82898f" stroke="#000000" d="M2448.15,-125.95C2448.15,-125.95 2560.58,-125.95 2560.58,-125.95 2566.58,-125.95 2572.58,-131.95 2572.58,-137.95 2572.58,-137.95 2572.58,-179.95 2572.58,-179.95 2572.58,-185.95 2566.58,-191.95 2560.58,-191.95 2560.58,-191.95 2448.15,-191.95 2448.15,-191.95 2442.15,-191.95 2436.15,-185.95 2436.15,-179.95 2436.15,-179.95 2436.15,-137.95 2436.15,-137.95 2436.15,-131.95 2442.15,-125.95 2448.15,-125.95"/>
<text xml:space="preserve" text-anchor="middle" x="2504.37" y="-176.75" font-family="Times,serif" font-size="14.00">phys idx = 13</text>
<polyline fill="none" stroke="#000000" points="2436.15,-169.95 2572.58,-169.95"/>
<text xml:space="preserve" text-anchor="middle" x="2504.37" y="-154.75" font-family="Times,serif" font-size="14.00">elem = &#45;6666.00</text>
<polyline fill="none" stroke="#000000" points="2436.15,-147.95 2572.58,-147.95"/>
<text xml:space="preserve" text-anchor="middle" x="2469.87" y="-132.75" font-family="Times,serif" font-size="14.00">prev = &#45;1</text>
<polyline fill="none" stroke="#000000" points="2503.59,-125.95 2503.59,-147.95"/>
<text xml:space="preserve" text-anchor="middle" x="2538.09" y="-132.75" font-family="Times,serif" font-size="14.00">next = 14</text>
</g>
<!-- 12&#45;&gt;13 -->
<!-- 12&#45;&gt;13 -->
<g id="edge37" class="edge">
<title>12&#45;&gt;13</title>
<path fill="none" stroke="#ff8c00" d="M2378.51,-166.87C2393.94,-167.24 2410.44,-167.3 2426.23,-167.05"/>
<polygon fill="#ff8c00" stroke="#ff8c00" points="2426,-170.03 2434.44,-166.89 2425.89,-164.09 2426,-170.03"/>
</g>
<!-- 14 -->
<g id="node16" class="node">
<title>14</title>
<path fill="#82898f" stroke="#000000" d="M2642.58,-125.95C2642.58,-125.95 2755.02,-125.95 2755.02,-125.95 2761.02,-125.95 2767.02,-131.95 2767.02,-137.95 2767.02,-137.95 2767.02,-179.95 2767.02,-179.95 2767.02,-185.95 2761.02,-191.95 2755.02,-191.95 2755.02,-191.95 2642.58,-191.95 2642.58,-191.95 2636.58,-191.95 2630.58,-185.95 2630.58,-179.95 2630.58,-179.95 2630.58,-137.95 2630.58,-137.95 2630.58,-131.95 2636.58,-125.95 2642.58,-125.95"/>
<text xml:space="preserve" text-anchor="middle" x="2698.8" y="-176.75" font-family="Times,serif" font-size="14.00">phys idx = 14</text>
<polyline fill="none" stroke="#000000" points="2630.58,-169.95 2767.02,-169.95"/>
<text xml:space="preserve" text-anchor="middle" x="2698.8" y="-154.75" font-family="Times,serif" font-size="14.00">elem = &#45;6666.00</text>
<polyline fill="none" stroke="#000000" points="2630.58,-147.95 2767.02,-147.95"/>
<text xml:space="preserve" text-anchor="middle" x="2664.3" y="-132.75" font-family="Times,serif" font-size="14.00">prev = &#45;1</text>
<polyline fill="none" stroke="#000000" points="2698.02,-125.95 2698.02,-147.95"/>
<text xml:space="preserve" text-anchor="middle" x="2732.52" y="-132.75" font-family="Times,serif" font-size="14.00">next = 15</text>
</g>
<!-- 13&#45;&gt;14 -->
<!-- 13&#45;&gt;14 -->
<g id="edge38" class="edge">
<title>13&#45;&gt;14</title>
<path fill="none" stroke="#ff8c00" d="M2572.94,-166.87C2588.37,-167.24 2604.87,-167.3 2620.67,-167.05"/>
<polygon fill="#ff8c00" stroke="#ff8c00" points="2620.44,-170.03 2628.88,-166.89 2620.32,-164.09 2620.44,-170.03"/>
</g>
<!-- 15 -->
<g id="node17" class="node">
<title>15</title>
<path fill="#82898f" stroke="#000000" d="M2837.02,-125.95C2837.02,-125.95 2949.45,-125.95 2949.45,-125.95 2955.45,-125.95 2961.45,-131.95 2961.45,-137.95 2961.45,-137.95 2961.45,-179.95 2961.45,-179.95 2961.45,-185.95 2955.45,-191.95 2949.45,-191.95 2949.45,-191.95 2837.02,-191.95 2837.02,-191.95 2831.02,-191.95 2825.02,-185.95 2825.02,-179.95 2825.02,-179.95 2825.02,-137.95 2825.02,-137.95 2825.02,-131.95 2831.02,-125.95 2837.02,-125.95"/>
<text xml:space="preserve" text-anchor="middle" x="2893.23" y="-176.75" font-family="Times,serif" font-size="14.00">phys idx = 15</text>
<polyline fill="none" stroke="#000000" points="2825.02,-169.95 2961.45,-169.95"/>
<text xml:space="preserve" text-anchor="middle" x="2893.23" y="-154.75" font-family="Times,serif" font-size="14.00">elem = &#45;6666.00</text>
<polyline fill="none" stroke="#000000" points="2825.02,-147.95 2961.45,-147.95"/>
<text xml:space="preserve" text-anchor="middle" x="2858.73" y="-132.75" font-family="Times,serif" font-size="14.00">prev = &#45;1</text>
<polyline fill="none" stroke="#000000" points="2892.45,-125.95 2892.45,-147.95"/>
<text xml:space="preserve" text-anchor="middle" x="2926.95" y="-132.75" font-family="Times,serif" font-size="14.00">next = 16</text>
</g>
<!-- 14&#45;&gt;15 -->
<!-- 14&#45;&gt;15 -->
<g id="edge39" class="edge">
<title>14&#45;&gt;15</title>
<path fill="none" stroke="#ff8c00" d="M2767.38,-166.87C2782.8,-167.24 2799.31,-167.3 2815.1,-167.05"/>
<polygon fill="#ff8c00" stroke="#ff8c00" points="2814.87,-170.03 2823.31,-166.89 2814.75,-164.09 2814.87,-170.03"/>
</g>
<!-- 16 -->
<g id="node18" class="node">
<title>16</title>
<path fill="#82898f" stroke="#000000" d="M3031.45,-125.95C3031.45,-125.95 3143.88,-125.95 3143.88,-125.95 3149.88,-125.95 3155.88,-131.95 3155.88,-137.95 3155.88,-137.95 3155.88,-179.95 3155.88,-179.95 3155.88,-185.95 3149.88,-191.95 3143.88,-191.95 3143.88,-191.95 3031.45,-191.95 3031.45,-191.95 3025.45,-191.95 3019.45,-185.95 3019.45,-179.95 3019.45,-179.95 3019.45,-137.95 3019.45,-137.95 3019.45,-131.95 3025.45,-125.95 3031.45,-125.95"/>
<text xml:space="preserve" text-anchor="middle" x="3087.67" y="-176.75" font-family="Times,serif" font-size="14.00">phys idx = 16</text>
<polyline fill="none" stroke="#000000" points="3019.45,-169.95 3155.88,-169.95"/>
<text xml:space="preserve" text-anchor="middle" x="3087.67" y="-154.75" font-family="Times,serif" font-size="14.00">elem = &#45;6666.00</text>
<polyline fill="none" stroke="#000000" points="3019.45,-147.95 3155.88,-147.95"/>
<text xml:space="preserve" text-anchor="middle" x="3053.17" y="-132.75" font-family="Times,serif" font-size="14.00">prev = &#45;1</text>
<polyline fill="none" stroke="#000000" points="3086.88,-125.95 3086.88,-147.95"/>
<text xml:space="preserve" text-anchor="middle" x="3121.38" y="-132.75" font-family="Times,serif" font-size="14.00">next = 17</text>
</g>
<!-- 15&#45;&gt;16 -->
<!-- 15&#45;&gt;16 -->
<g id="edge40" class="edge">
<title>15&#45;&gt;16</title>
<path fill="none" stroke="#ff8c00" d="M2961.81,-166.87C2977.23,-167.24 2993.74,-167.3 3009.53,-167.05"/>
<polygon fill="#ff8c00" stroke="#ff8c00" points="3009.3,-170.03 3017.74,-166.89 3009.18,-164.09 3009.3,-170.03"/>
</g>
<!-- 17 -->
<g id="node19" class="node">
<title>17</title>
<path fill="#82898f" stroke="#000000" d="M3225.88,-125.95C3225.88,-125.95 3338.32,-125.95 3338.32,-125.95 3344.32,-125.95 3350.32,-131.95 3350.32,-137.95 3350.32,-137.95 3350.32,-179.95 3350.32,-179.95 3350.32,-185.95 3344.32,-191.95 3338.32,-191.95 3338.32,-191.95 3225.88,-191.95 3225.88,-191.95 3219.88,-191.95 3213.88,-185.95 3213.88,-179.95 3213.88,-179.95 3213.88,-137.95 3213.88,-137.95 3213.88,-131.95 3219.88,-125.95 3225.88,-125.95"/>
<text xml:space="preserve" text-anchor="middle" x="3282.1" y="-176.75" font-family="Times,serif" font-size="14.00">phys idx = 17</text>
<polyline fill="none" stroke="#000000" points="3213.88,-169.95 3350.32,-169.95"/>
<text xml:space="preserve" text-anchor="middle" x="3282.1" y="-154.75" font-family="Times,serif" font-size="14.00">elem = &#45;6666.00</text>
<polyline fill="none" stroke="#000000" points="3213.88,-147.95 3350.32,-147.95"/>
<text xml:space="preserve" text-anchor="middle" x="3247.6" y="-132.75" font-family="Times,serif" font-size="14.00">prev = &#45;1</text>
<polyline fill="none" stroke="#000000" points="3281.32,-125.95 3281.32,-147.95"/>
<text xml:space="preserve" text-anchor="middle" x="3315.82" y="-132.75" font-family="Times,serif" font-size="14.00">next = 18</text>
</g>
<!-- 16&#45;&gt;17 -->
<!-- 16&#45;&gt;17 -->
<g id="edge41" class="edge">
<title>16&#45;&gt;17</title>
<path fill="none" stroke="#ff8c00" d="M3156.24,-166.87C3171.67,-167.24 3188.17,-167.3 3203.96,-167.05"/>
<polygon fill="#ff8c00" stroke="#ff8c00" points="3203.73,-170.03 3212.17,-166.89 3203.62,-164.09 3203.73,-170.03"/>
</g>
<!-- 18 -->
<g id="node20" class="node">
<title>18</title>
<path fill="#82898f" stroke="#000000" d="M3420.32,-125.95C3420.32,-125.95 3532.75,-125.95 3532.75,-125.95 3538.75,-125.95 3544.75,-131.95 3544.75,-137.95 3544.75,-137.95 3544.75,-179.95 3544.75,-179.95 3544.75,-185.95 3538.75,-191.95 3532.75,-191.95 3532.75,-191.95 3420.32,-191.95 3420.32,-191.95 3414.32,-191.95 3408.32,-185.95 3408.32,-179.95 3408.32,-179.95 3408.32,-137.95 3408.32,-137.95 3408.32,-131.95 3414.32,-125.95 3420.32,-125.95"/>
<text xml:space="preserve" text-anchor="middle" x="3476.53" y="-176.75" font-family="Times,serif" font-size="14.00">phys idx = 18</text>
<polyline fill="none" stroke="#000000" points="3408.32,-169.95 3544.75,-169.95"/>
<text xml:space="preserve" text-anchor="middle" x="3476.53" y="-154.75" font-family="Times,serif" font-size="14.00">elem = &#45;6666.00</text>
<polyline fill="none" stroke="#000000" points="3408.32,-147.95 3544.75,-147.95"/>
<text xml:space="preserve" text-anchor="middle" x="3442.03" y="-132.75" font-family="Times,serif" font-size="14.00">prev = &#45;1</text>
<polyline fill="none" stroke="#000000" points="3475.75,-125.95 3475.75,-147.95"/>
<text xml:space="preserve" text-anchor="middle" x="3510.25" y="-132.75" font-family="Times,serif" font-size="14.00">next = 19</text>
</g>
<!-- 17&#45;&gt;18 -->
<!-- 17&#45;&gt;18 -->
<g id="edge42" class="edge">
<title>17&#45;&gt;18</title>
<path fill="none" stroke="#ff8c00" d="M3350.67,-166.87C3366.1,-167.24 3382.6,-167.3 3398.4,-167.05"/>
<polygon fill="#ff8c00" stroke="#ff8c00" points="3398.17,-170.03 3406.61,-166.89 3398.05,-164.09 3398.17,-170.03"/>
</g>
<!-- 19 -->
<g id="node21" class="node">
<title>19</title>
<path fill="#82898f" stroke="#000000" d="M3614.75,-125.95C3614.75,-125.95 3720.18,-125.95 3720.18,-125.95 3726.18,-125.95 3732.18,-131.95 3732.18,-137.95 3732.18,-137.95 3732.18,-179.95 3732.18,-179.95 3732.18,-185.95 3726.18,-191.95 3720.18,-191.95 3720.18,-191.95 3614.75,-191.95 3614.75,-191.95 3608.75,-191.95 3602.75,-185.95 3602.75,-179.95 3602.75,-179.95 3602.75,-137.95 3602.75,-137.95 3602.75,-131.95 3608.75,-125.95 3614.75,-125.95"/>
<text xml:space="preserve" text-anchor="middle" x="3667.46" y="-176.75" font-family="Times,serif" font-size="14.00">phys idx = 19</text>
<polyline fill="none" stroke="#000000" points="3602.75,-169.95 3732.18,-169.95"/>
<text xml:space="preserve" text-anchor="middle" x="3667.46" y="-154.75" font-family="Times,serif" font-size="14.00">elem = &#45;6666.00</text>
<polyline fill="none" stroke="#000000" points="3602.75,-147.95 3732.18,-147.95"/>
<text xml:space="preserve" text-anchor="middle" x="3636.46" y="-132.75" font-family="Times,serif" font-size="14.00">prev = &#45;1</text>
<polyline fill="none" stroke="#000000" points="3670.18,-125.95 3670.18,-147.95"/>
<text xml:space="preserve" text-anchor="middle" x="3701.18" y="-132.75" font-family="Times,serif" font-size="14.00">next = 0</text>
</g>
<!-- 18&#45;&gt;19 -->
<!-- 18&#45;&gt;19 -->
<g id="edge43" class="edge">
<title>18&#45;&gt;19</title>
<path fill="none" stroke="#ff8c00" d="M3545.21,-166.9C3560.64,-167.25 3577.11,-167.3 3592.78,-167.02"/>
<polygon fill="#ff8c00" stroke="#ff8c00" points="3592.47,-170 3600.9,-166.84 3592.34,-164.05 3592.47,-170"/>
</g>
<!-- 19&#45;&gt;0 -->
<g id="edge44" class="edge">
<title>19&#45;&gt;0</title>
<path fill="none" stroke="#ff8c00" d="M3602.48,-131.5C3584.16,-124.84 3563.95,-118.59 3544.75,-114.95 2378.18,106.07 2061.29,-61.86 874,-52.95 569.51,-50.66 478.11,9.93 189.77,-87.95 166.7,-95.78 143.12,-108.15 122.87,-120.39"/>
<polygon fill="#ff8c00" stroke="#ff8c00" points="121.36,-117.83 115.69,-124.82 124.48,-122.89 121.36,-117.83"/>
</g>
<!-- head_label -->
<g id="node22" class="node">
<title>head_label</title>
<path fill="#20b2aa" stroke="#000000" d="M50.89,-261.95C50.89,-261.95 80.89,-261.95 80.89,-261.95 86.89,-261.95 92.89,-267.95 92.89,-273.95 92.89,-273.95 92.89,-285.95 92.89,-285.95 92.89,-291.95 86.89,-297.95 80.89,-297.95 80.89,-297.95 50.89,-297.95 50.89,-297.95 44.89,-297.95 38.89,-291.95 38.89,-285.95 38.89,-285.95 38.89,-273.95 38.89,-273.95 38.89,-267.95 44.89,-261.95 50.89,-261.95"/>
<text xml:space="preserve" text-anchor="middle" x="65.89" y="-276.35" font-family="Times,serif" font-size="12.00" fill="#000000">HEAD</text>
</g>
<!-- head_label&#45;&gt;1 -->
<g id="edge3" class="edge">
<title>head_label&#45;&gt;1</title>
<path fill="none" stroke="#20b2aa" d="M93.29,-262.61C118.97,-245.75 158.89,-219.54 192.15,-197.69"/>
<polygon fill="#20b2aa" stroke="#20b2aa" points="193.72,-200.23 199.19,-193.07 190.45,-195.25 193.72,-200.23"/>
</g>
<!-- tail_label -->
<g id="node23" class="node">
<title>tail_label</title>
<path fill="#20b2aa" stroke="#000000" d="M237.16,-261.95C237.16,-261.95 267.16,-261.95 267.16,-261.95 273.16,-261.95 279.16,-267.95 279.16,-273.95 279.16,-273.95 279.16,-285.95 279.16,-285.95 279.16,-291.95 273.16,-297.95 267.16,-297.95 267.16,-297.95 237.16,-297.95 237.16,-297.95 231.16,-297.95 225.16,-291.95 225.16,-285.95 225.16,-285.95 225.16,-273.95 225.16,-273.95 225.16,-267.95 231.16,-261.95 237.16,-261.95"/>
<text xml:space="preserve" text-anchor="middle" x="252.16" y="-276.35" font-family="Times,serif" font-size="12.00" fill="#000000">TAIL</text>
</g>
<!-- head_label&#45;&gt;tail_label -->
<!-- tail_label&#45;&gt;10 -->
<g id="edge4" class="edge">
<title>tail_label&#45;&gt;10</title>
<path fill="none" stroke="#20b2aa" d="M279.34,-296.54C337.57,-331.79 483.19,-410.95 616.7,-410.95 616.7,-410.95 616.7,-410.95 1562.36,-410.95 1708.7,-410.95 1838.61,-271.32 1895.47,-199.94"/>
<polygon fill="#20b2aa" stroke="#20b2aa" points="1897.53,-202.12 1900.45,-193.6 1892.86,-198.44 1897.53,-202.12"/>
</g>
<!-- free_label -->
<g id="node24" class="node">
<title>free_label</title>
<path fill="#20b2aa" stroke="#000000" d="M419.93,-261.95C419.93,-261.95 449.93,-261.95 449.93,-261.95 455.93,-261.95 461.93,-267.95 461.93,-273.95 461.93,-273.95 461.93,-285.95 461.93,-285.95 461.93,-291.95 455.93,-297.95 449.93,-297.95 449.93,-297.95 419.93,-297.95 419.93,-297.95 413.93,-297.95 407.93,-291.95 407.93,-285.95 407.93,-285.95 407.93,-273.95 407.93,-273.95 407.93,-267.95 413.93,-261.95 419.93,-261.95"/>
<text xml:space="preserve" text-anchor="middle" x="434.93" y="-276.35" font-family="Times,serif" font-size="12.00" fill="#000000">FREE</text>
</g>
<!-- tail_label&#45;&gt;free_label -->
<!-- free_label&#45;&gt;7 -->
<g id="edge5" class="edge">
<title>free_label&#45;&gt;7</title>
<path fill="none" stroke="#20b2aa" d="M462.33,-279.11C522.9,-277.24 676.53,-272.95 805.04,-272.95 805.04,-272.95 805.04,-272.95 998.89,-272.95 1113.67,-272.95 1145.63,-269.06 1253.54,-229.95 1275.98,-221.82 1299,-209.57 1318.89,-197.53"/>
<polygon fill="#20b2aa" stroke="#20b2aa" points="1320.25,-200.18 1325.92,-193.19 1317.13,-195.12 1320.25,-200.18"/>
</g>
</g>
</svg>
