<?xml version="1.0" encoding="UTF-8" standalone="no"?>
<!DOCTYPE svg PUBLIC "-//W3C//DTD SVG 1.1//EN"
 "http://www.w3.org/Graphics/SVG/1.1/DTD/svg11.dtd">
<!-- Generated by graphviz version 14.0.2 (20251019.1705)
 -->
<!-- Title: G Pages: 1 -->
<svg width="873pt" height="180pt"
 viewBox="0.00 0.00 873.00 180.00" xmlns="http://www.w3.org/2000/svg" xmlns:xlink="http://www.w3.org/1999/xlink">
<g id="graph0" class="graph" transform="scale(1 1) rotate(0) translate(4 175.87)">
<title>G</title>
<polygon fill="#fffafa" stroke="none" points="-4,4 -4,-175.87 869.18,-175.87 869.18,4 -4,4"/>
<!-- 0 -->
<g id="node1" class="node">
<title>0</title>
<path fill="#cd5c5c" stroke="#000000" d="M12,-59.5C12,-59.5 112.77,-59.5 112.77,-59.5 118.77,-59.5 124.77,-65.5 124.77,-71.5 124.77,-71.5 124.77,-113.5 124.77,-113.5 124.77,-119.5 118.77,-125.5 112.77,-125.5 112.77,-125.5 12,-125.5 12,-125.5 6,-125.5 0,-119.5 0,-113.5 0,-113.5 0,-71.5 0,-71.5 0,-65.5 6,-59.5 12,-59.5"/>
<text xml:space="preserve" text-anchor="middle" x="62.39" y="-110.3" font-family="Times,serif" font-size="14.00">phys idx = 0</text>
<polyline fill="none" stroke="#000000" points="0,-103.5 124.77,-103.5"/>
<text xml:space="preserve" text-anchor="middle" x="62.39" y="-88.3" font-family="Times,serif" font-size="14.00">elem = &#45;6666.00</text>
<polyline fill="none" stroke="#000000" points="0,-81.5 124.77,-81.5"/>
<text xml:space="preserve" text-anchor="middle" x="31.39" y="-66.3" font-family="Times,serif" font-size="14.00">prev = 2</text>
<polyline fill="none" stroke="#000000" points="62.77,-59.5 62.77,-81.5"/>
<text xml:space="preserve" text-anchor="middle" x="93.77" y="-66.3" font-family="Times,serif" font-size="14.00">next = 1</text>
</g>
<!-- 1 -->
<g id="node2" class="node">
<title>1</title>
<path fill="#98fb98" stroke="#000000" d="M194.77,-59.5C194.77,-59.5 295.54,-59.5 295.54,-59.5 301.54,-59.5 307.54,-65.5 307.54,-71.5 307.54,-71.5 307.54,-113.5 307.54,-113.5 307.54,-119.5 301.54,-125.5 295.54,-125.5 295.54,-125.5 194.77,-125.5 194.77,-125.5 188.77,-125.5 182.77,-119.5 182.77,-113.5 182.77,-113.5 182.77,-71.5 182.77,-71.5 182.77,-65.5 188.77,-59.5 194.77,-59.5"/>
<text xml:space="preserve" text-anchor="middle" x="245.16" y="-110.3" font-family="Times,serif" font-size="14.00">phys idx = 1</text>
<polyline fill="none" stroke="#000000" points="182.77,-103.5 307.54,-103.5"/>
<text xml:space="preserve" text-anchor="middle" x="245.16" y="-88.3" font-family="Times,serif" font-size="14.00">elem = 11.00</text>
<polyline fill="none" stroke="#000000" points="182.77,-81.5 307.54,-81.5"/>
<text xml:space="preserve" text-anchor="middle" x="214.16" y="-66.3" font-family="Times,serif" font-size="14.00">prev = 0</text>
<polyline fill="none" stroke="#000000" points="245.54,-59.5 245.54,-81.5"/>
<text xml:space="preserve" text-anchor="middle" x="276.54" y="-66.3" font-family="Times,serif" font-size="14.00">next = 2</text>
</g>
<!-- 0&#45;&gt;1 -->
<!-- 0&#45;&gt;1 -->
<g id="edge10" class="edge">
<title>0&#45;&gt;1</title>
<path fill="none" stroke="#000000" d="M134.78,-100.59C147.21,-100.8 160.14,-100.8 172.57,-100.59"/>
<polygon fill="#000000" stroke="#000000" points="135.17,-97.62 126.6,-100.4 135.04,-103.57 135.17,-97.62"/>
<polygon fill="#000000" stroke="#000000" points="172.48,-103.57 180.91,-100.4 172.34,-97.62 172.48,-103.57"/>
</g>
<!-- 2 -->
<g id="node3" class="node">
<title>2</title>
<path fill="#98fb98" stroke="#000000" d="M377.54,-59.5C377.54,-59.5 478.31,-59.5 478.31,-59.5 484.31,-59.5 490.31,-65.5 490.31,-71.5 490.31,-71.5 490.31,-113.5 490.31,-113.5 490.31,-119.5 484.31,-125.5 478.31,-125.5 478.31,-125.5 377.54,-125.5 377.54,-125.5 371.54,-125.5 365.54,-119.5 365.54,-113.5 365.54,-113.5 365.54,-71.5 365.54,-71.5 365.54,-65.5 371.54,-59.5 377.54,-59.5"/>
<text xml:space="preserve" text-anchor="middle" x="427.93" y="-110.3" font-family="Times,serif" font-size="14.00">phys idx = 2</text>
<polyline fill="none" stroke="#000000" points="365.54,-103.5 490.31,-103.5"/>
<text xml:space="preserve" text-anchor="middle" x="427.93" y="-88.3" font-family="Times,serif" font-size="14.00">elem = 21.00</text>
<polyline fill="none" stroke="#000000" points="365.54,-81.5 490.31,-81.5"/>
<text xml:space="preserve" text-anchor="middle" x="396.93" y="-66.3" font-family="Times,serif" font-size="14.00">prev = 1</text>
<polyline fill="none" stroke="#000000" points="428.31,-59.5 428.31,-81.5"/>
<text xml:space="preserve" text-anchor="middle" x="459.31" y="-66.3" font-family="Times,serif" font-size="14.00">next = 0</text>
</g>
<!-- 1&#45;&gt;2 -->
<!-- 1&#45;&gt;2 -->
<g id="edge11" class="edge">
<title>1&#45;&gt;2</title>
<path fill="none" stroke="#000000" d="M317.55,-100.59C329.98,-100.8 342.91,-100.8 355.35,-100.59"/>
<polygon fill="#000000" stroke="#000000" points="317.94,-97.62 309.37,-100.4 317.81,-103.57 317.94,-97.62"/>
<polygon fill="#000000" stroke="#000000" points="355.25,-103.57 363.68,-100.4 355.11,-97.62 355.25,-103.57"/>
</g>
<!-- 2&#45;&gt;0 -->
<g id="edge12" class="edge">
<title>2&#45;&gt;0</title>
<path fill="none" stroke="#000000" d="M356.14,-123.94C340.44,-129.56 323.66,-134.56 307.54,-137.5 252.99,-147.44 237.33,-147.44 182.77,-137.5 166.65,-134.56 149.88,-129.56 134.17,-123.94"/>
<polygon fill="#000000" stroke="#000000" points="356.89,-126.84 363.83,-121.1 354.82,-121.26 356.89,-126.84"/>
<polygon fill="#000000" stroke="#000000" points="135.49,-121.26 126.48,-121.1 133.42,-126.84 135.49,-121.26"/>
</g>
<!-- 3 -->
<g id="node4" class="node">
<title>3</title>
<path fill="#82898f" stroke="#000000" d="M560.31,-59.5C560.31,-59.5 665.74,-59.5 665.74,-59.5 671.74,-59.5 677.74,-65.5 677.74,-71.5 677.74,-71.5 677.74,-113.5 677.74,-113.5 677.74,-119.5 671.74,-125.5 665.74,-125.5 665.74,-125.5 560.31,-125.5 560.31,-125.5 554.31,-125.5 548.31,-119.5 548.31,-113.5 548.31,-113.5 548.31,-71.5 548.31,-71.5 548.31,-65.5 554.31,-59.5 560.31,-59.5"/>
<text xml:space="preserve" text-anchor="middle" x="613.03" y="-110.3" font-family="Times,serif" font-size="14.00">phys idx = 3</text>
<polyline fill="none" stroke="#000000" points="548.31,-103.5 677.74,-103.5"/>
<text xml:space="preserve" text-anchor="middle" x="613.03" y="-88.3" font-family="Times,serif" font-size="14.00">elem = &#45;6666.00</text>
<polyline fill="none" stroke="#000000" points="548.31,-81.5 677.74,-81.5"/>
<text xml:space="preserve" text-anchor="middle" x="582.03" y="-66.3" font-family="Times,serif" font-size="14.00">prev = &#45;1</text>
<polyline fill="none" stroke="#000000" points="615.75,-59.5 615.75,-81.5"/>
<text xml:space="preserve" text-anchor="middle" x="646.74" y="-66.3" font-family="Times,serif" font-size="14.00">next = 4</text>
</g>
<!-- 2&#45;&gt;3 -->
<!-- 4 -->
<g id="node5" class="node">
<title>4</title>
<path fill="#82898f" stroke="#000000" d="M747.74,-59.5C747.74,-59.5 853.18,-59.5 853.18,-59.5 859.18,-59.5 865.18,-65.5 865.18,-71.5 865.18,-71.5 865.18,-113.5 865.18,-113.5 865.18,-119.5 859.18,-125.5 853.18,-125.5 853.18,-125.5 747.74,-125.5 747.74,-125.5 741.74,-125.5 735.74,-119.5 735.74,-113.5 735.74,-113.5 735.74,-71.5 735.74,-71.5 735.74,-65.5 741.74,-59.5 747.74,-59.5"/>
<text xml:space="preserve" text-anchor="middle" x="800.46" y="-110.3" font-family="Times,serif" font-size="14.00">phys idx = 4</text>
<polyline fill="none" stroke="#000000" points="735.74,-103.5 865.18,-103.5"/>
<text xml:space="preserve" text-anchor="middle" x="800.46" y="-88.3" font-family="Times,serif" font-size="14.00">elem = &#45;6666.00</text>
<polyline fill="none" stroke="#000000" points="735.74,-81.5 865.18,-81.5"/>
<text xml:space="preserve" text-anchor="middle" x="769.46" y="-66.3" font-family="Times,serif" font-size="14.00">prev = &#45;1</text>
<polyline fill="none" stroke="#000000" points="803.18,-59.5 803.18,-81.5"/>
<text xml:space="preserve" text-anchor="middle" x="834.18" y="-66.3" font-family="Times,serif" font-size="14.00">next = 0</text>
</g>
<!-- 3&#45;&gt;4 -->
<!-- 3&#45;&gt;4 -->
<g id="edge13" class="edge">
<title>3&#45;&gt;4</title>
<path fill="none" stroke="#ff8c00" d="M678.1,-100.39C693.45,-100.79 709.95,-100.86 725.7,-100.59"/>
<polygon fill="#ff8c00" stroke="#ff8c00" points="725.43,-103.58 733.87,-100.42 725.31,-97.63 725.43,-103.58"/>
</g>
<!-- 4&#45;&gt;0 -->
<g id="edge14" class="edge">
<title>4&#45;&gt;0</title>
<path fill="none" stroke="#ff8c00" d="M735.45,-120.21C717.14,-127.02 696.93,-133.5 677.74,-137.5 503.75,-173.75 270.66,-181.18 182.77,-158.5 160.7,-152.8 138.34,-142.06 119.04,-130.87"/>
<polygon fill="#ff8c00" stroke="#ff8c00" points="120.81,-128.46 111.99,-126.66 117.76,-133.57 120.81,-128.46"/>
</g>
<!-- head_label -->
<g id="node6" class="node">
<title>head_label</title>
<path fill="#20b2aa" stroke="#000000" d="M47.39,-0.5C47.39,-0.5 77.39,-0.5 77.39,-0.5 83.39,-0.5 89.39,-6.5 89.39,-12.5 89.39,-12.5 89.39,-24.5 89.39,-24.5 89.39,-30.5 83.39,-36.5 77.39,-36.5 77.39,-36.5 47.39,-36.5 47.39,-36.5 41.39,-36.5 35.39,-30.5 35.39,-24.5 35.39,-24.5 35.39,-12.5 35.39,-12.5 35.39,-6.5 41.39,-0.5 47.39,-0.5"/>
<text xml:space="preserve" text-anchor="middle" x="62.39" y="-14.9" font-family="Times,serif" font-size="12.00" fill="#000000">HEAD</text>
</g>
<!-- head_label&#45;&gt;1 -->
<g id="edge3" class="edge">
<title>head_label&#45;&gt;1</title>
<path fill="none" stroke="#20b2aa" d="M89.67,-29.26C111.59,-38.23 143.87,-51.45 173.26,-63.48"/>
<polygon fill="#20b2aa" stroke="#20b2aa" points="171.89,-66.13 180.88,-66.6 174.14,-60.62 171.89,-66.13"/>
</g>
<!-- tail_label -->
<g id="node7" class="node">
<title>tail_label</title>
<path fill="#20b2aa" stroke="#000000" d="M230.16,-0.5C230.16,-0.5 260.16,-0.5 260.16,-0.5 266.16,-0.5 272.16,-6.5 272.16,-12.5 272.16,-12.5 272.16,-24.5 272.16,-24.5 272.16,-30.5 266.16,-36.5 260.16,-36.5 260.16,-36.5 230.16,-36.5 230.16,-36.5 224.16,-36.5 218.16,-30.5 218.16,-24.5 218.16,-24.5 218.16,-12.5 218.16,-12.5 218.16,-6.5 224.16,-0.5 230.16,-0.5"/>
<text xml:space="preserve" text-anchor="middle" x="245.16" y="-14.9" font-family="Times,serif" font-size="12.00" fill="#000000">TAIL</text>
</g>
<!-- head_label&#45;&gt;tail_label -->
<!-- tail_label&#45;&gt;2 -->
<g id="edge4" class="edge">
<title>tail_label&#45;&gt;2</title>
<path fill="none" stroke="#20b2aa" d="M272.44,-29.26C294.36,-38.23 326.64,-51.45 356.04,-63.48"/>
<polygon fill="#20b2aa" stroke="#20b2aa" points="354.66,-66.13 363.65,-66.6 356.91,-60.62 354.66,-66.13"/>
</g>
<!-- free_label -->
<g id="node8" class="node">
<title>free_label</title>
<path fill="#20b2aa" stroke="#000000" d="M412.93,-0.5C412.93,-0.5 442.93,-0.5 442.93,-0.5 448.93,-0.5 454.93,-6.5 454.93,-12.5 454.93,-12.5 454.93,-24.5 454.93,-24.5 454.93,-30.5 448.93,-36.5 442.93,-36.5 442.93,-36.5 412.93,-36.5 412.93,-36.5 406.93,-36.5 400.93,-30.5 400.93,-24.5 400.93,-24.5 400.93,-12.5 400.93,-12.5 400.93,-6.5 406.93,-0.5 412.93,-0.5"/>
<text xml:space="preserve" text-anchor="middle" x="427.93" y="-14.9" font-family="Times,serif" font-size="12.00" fill="#000000">FREE</text>
</g>
<!-- tail_label&#45;&gt;free_label -->
<!-- free_label&#45;&gt;3 -->
<g id="edge5" class="edge">
<title>free_label&#45;&gt;3</title>
<path fill="none" stroke="#20b2aa" d="M455.16,-29.1C477.03,-37.94 509.26,-50.97 538.84,-62.92"/>
<polygon fill="#20b2aa" stroke="#20b2aa" points="537.52,-65.6 546.51,-66.02 539.75,-60.08 537.52,-65.6"/>
</g>
</g>
</svg>
