<?xml version="1.0" encoding="UTF-8" standalone="no"?>
<!DOCTYPE svg PUBLIC "-//W3C//DTD SVG 1.1//EN"
 "http://www.w3.org/Graphics/SVG/1.1/DTD/svg11.dtd">
<!-- Generated by graphviz version 14.0.2 (20251019.1705)
 -->
<!-- Title: G Pages: 1 -->
<svg width="3729pt" height="341pt"
 viewBox="0.00 0.00 3729.00 341.00" xmlns="http://www.w3.org/2000/svg" xmlns:xlink="http://www.w3.org/1999/xlink">
<g id="graph0" class="graph" transform="scale(1 1) rotate(0) translate(4 337.14)">
<title>G</title>
<polygon fill="#fffafa" stroke="none" points="-4,4 -4,-337.14 3724.52,-337.14 3724.52,4 -4,4"/>
<!-- 0 -->
<g id="node1" class="node">
<title>0</title>
<path fill="#cd5c5c" stroke="#000000" d="M12,-140.14C12,-140.14 119.77,-140.14 119.77,-140.14 125.77,-140.14 131.77,-146.14 131.77,-152.14 131.77,-152.14 131.77,-194.14 131.77,-194.14 131.77,-200.14 125.77,-206.14 119.77,-206.14 119.77,-206.14 12,-206.14 12,-206.14 6,-206.14 0,-200.14 0,-194.14 0,-194.14 0,-152.14 0,-152.14 0,-146.14 6,-140.14 12,-140.14"/>
<text xml:space="preserve" text-anchor="middle" x="65.89" y="-190.94" font-family="Times,serif" font-size="14.00">phys idx = 0</text>
<polyline fill="none" stroke="#000000" points="0,-184.14 131.77,-184.14"/>
<text xml:space="preserve" text-anchor="middle" x="65.89" y="-168.94" font-family="Times,serif" font-size="14.00">elem = &#45;6666.00</text>
<polyline fill="none" stroke="#000000" points="0,-162.14 131.77,-162.14"/>
<text xml:space="preserve" text-anchor="middle" x="34.89" y="-146.94" font-family="Times,serif" font-size="14.00">prev = 10</text>
<polyline fill="none" stroke="#000000" points="69.77,-140.14 69.77,-162.14"/>
<text xml:space="preserve" text-anchor="middle" x="100.77" y="-146.94" font-family="Times,serif" font-size="14.00">next = 1</text>
</g>
<!-- 1 -->
<g id="node2" class="node">
<title>1</title>
<path fill="#98fb98" stroke="#000000" d="M201.77,-140.14C201.77,-140.14 302.54,-140.14 302.54,-140.14 308.54,-140.14 314.54,-146.14 314.54,-152.14 314.54,-152.14 314.54,-194.14 314.54,-194.14 314.54,-200.14 308.54,-206.14 302.54,-206.14 302.54,-206.14 201.77,-206.14 201.77,-206.14 195.77,-206.14 189.77,-200.14 189.77,-194.14 189.77,-194.14 189.77,-152.14 189.77,-152.14 189.77,-146.14 195.77,-140.14 201.77,-140.14"/>
<text xml:space="preserve" text-anchor="middle" x="252.16" y="-190.94" font-family="Times,serif" font-size="14.00">phys idx = 1</text>
<polyline fill="none" stroke="#000000" points="189.77,-184.14 314.54,-184.14"/>
<text xml:space="preserve" text-anchor="middle" x="252.16" y="-168.94" font-family="Times,serif" font-size="14.00">elem = 11.00</text>
<polyline fill="none" stroke="#000000" points="189.77,-162.14 314.54,-162.14"/>
<text xml:space="preserve" text-anchor="middle" x="221.16" y="-146.94" font-family="Times,serif" font-size="14.00">prev = 0</text>
<polyline fill="none" stroke="#000000" points="252.54,-140.14 252.54,-162.14"/>
<text xml:space="preserve" text-anchor="middle" x="283.54" y="-146.94" font-family="Times,serif" font-size="14.00">next = 2</text>
</g>
<!-- 0&#45;&gt;1 -->
<!-- 0&#45;&gt;1 -->
<g id="edge25" class="edge">
<title>0&#45;&gt;1</title>
<path fill="none" stroke="#000000" d="M141.85,-181.27C154.32,-181.46 167.23,-181.44 179.61,-181.21"/>
<polygon fill="#000000" stroke="#000000" points="142.18,-178.3 133.62,-181.1 142.06,-184.25 142.18,-178.3"/>
<polygon fill="#000000" stroke="#000000" points="179.47,-184.19 187.9,-181.02 179.33,-178.24 179.47,-184.19"/>
</g>
<!-- 2 -->
<g id="node3" class="node">
<title>2</title>
<path fill="#98fb98" stroke="#000000" d="M384.54,-140.14C384.54,-140.14 485.31,-140.14 485.31,-140.14 491.31,-140.14 497.31,-146.14 497.31,-152.14 497.31,-152.14 497.31,-194.14 497.31,-194.14 497.31,-200.14 491.31,-206.14 485.31,-206.14 485.31,-206.14 384.54,-206.14 384.54,-206.14 378.54,-206.14 372.54,-200.14 372.54,-194.14 372.54,-194.14 372.54,-152.14 372.54,-152.14 372.54,-146.14 378.54,-140.14 384.54,-140.14"/>
<text xml:space="preserve" text-anchor="middle" x="434.93" y="-190.94" font-family="Times,serif" font-size="14.00">phys idx = 2</text>
<polyline fill="none" stroke="#000000" points="372.54,-184.14 497.31,-184.14"/>
<text xml:space="preserve" text-anchor="middle" x="434.93" y="-168.94" font-family="Times,serif" font-size="14.00">elem = 20.00</text>
<polyline fill="none" stroke="#000000" points="372.54,-162.14 497.31,-162.14"/>
<text xml:space="preserve" text-anchor="middle" x="403.93" y="-146.94" font-family="Times,serif" font-size="14.00">prev = 1</text>
<polyline fill="none" stroke="#000000" points="435.31,-140.14 435.31,-162.14"/>
<text xml:space="preserve" text-anchor="middle" x="466.31" y="-146.94" font-family="Times,serif" font-size="14.00">next = 3</text>
</g>
<!-- 1&#45;&gt;2 -->
<!-- 1&#45;&gt;2 -->
<g id="edge26" class="edge">
<title>1&#45;&gt;2</title>
<path fill="none" stroke="#000000" d="M324.55,-181.23C336.98,-181.45 349.91,-181.45 362.35,-181.23"/>
<polygon fill="#000000" stroke="#000000" points="324.94,-178.26 316.37,-181.05 324.81,-184.21 324.94,-178.26"/>
<polygon fill="#000000" stroke="#000000" points="362.25,-184.21 370.68,-181.05 362.11,-178.26 362.25,-184.21"/>
</g>
<!-- 3 -->
<g id="node4" class="node">
<title>3</title>
<path fill="#98fb98" stroke="#000000" d="M567.31,-140.14C567.31,-140.14 668.08,-140.14 668.08,-140.14 674.08,-140.14 680.08,-146.14 680.08,-152.14 680.08,-152.14 680.08,-194.14 680.08,-194.14 680.08,-200.14 674.08,-206.14 668.08,-206.14 668.08,-206.14 567.31,-206.14 567.31,-206.14 561.31,-206.14 555.31,-200.14 555.31,-194.14 555.31,-194.14 555.31,-152.14 555.31,-152.14 555.31,-146.14 561.31,-140.14 567.31,-140.14"/>
<text xml:space="preserve" text-anchor="middle" x="617.7" y="-190.94" font-family="Times,serif" font-size="14.00">phys idx = 3</text>
<polyline fill="none" stroke="#000000" points="555.31,-184.14 680.08,-184.14"/>
<text xml:space="preserve" text-anchor="middle" x="617.7" y="-168.94" font-family="Times,serif" font-size="14.00">elem = 30.00</text>
<polyline fill="none" stroke="#000000" points="555.31,-162.14 680.08,-162.14"/>
<text xml:space="preserve" text-anchor="middle" x="586.7" y="-146.94" font-family="Times,serif" font-size="14.00">prev = 2</text>
<polyline fill="none" stroke="#000000" points="618.08,-140.14 618.08,-162.14"/>
<text xml:space="preserve" text-anchor="middle" x="649.08" y="-146.94" font-family="Times,serif" font-size="14.00">next = 9</text>
</g>
<!-- 2&#45;&gt;3 -->
<!-- 2&#45;&gt;3 -->
<g id="edge27" class="edge">
<title>2&#45;&gt;3</title>
<path fill="none" stroke="#000000" d="M507.32,-181.23C519.75,-181.45 532.68,-181.45 545.12,-181.23"/>
<polygon fill="#000000" stroke="#000000" points="507.71,-178.26 499.14,-181.05 507.58,-184.21 507.71,-178.26"/>
<polygon fill="#000000" stroke="#000000" points="545.02,-184.21 553.45,-181.05 544.89,-178.26 545.02,-184.21"/>
</g>
<!-- 4 -->
<g id="node5" class="node">
<title>4</title>
<path fill="#82898f" stroke="#000000" d="M750.08,-140.14C750.08,-140.14 862,-140.14 862,-140.14 868,-140.14 874,-146.14 874,-152.14 874,-152.14 874,-194.14 874,-194.14 874,-200.14 868,-206.14 862,-206.14 862,-206.14 750.08,-206.14 750.08,-206.14 744.08,-206.14 738.08,-200.14 738.08,-194.14 738.08,-194.14 738.08,-152.14 738.08,-152.14 738.08,-146.14 744.08,-140.14 750.08,-140.14"/>
<text xml:space="preserve" text-anchor="middle" x="806.04" y="-190.94" font-family="Times,serif" font-size="14.00">phys idx = 4</text>
<polyline fill="none" stroke="#000000" points="738.08,-184.14 874,-184.14"/>
<text xml:space="preserve" text-anchor="middle" x="806.04" y="-168.94" font-family="Times,serif" font-size="14.00">elem = &#45;6666.00</text>
<polyline fill="none" stroke="#000000" points="738.08,-162.14 874,-162.14"/>
<text xml:space="preserve" text-anchor="middle" x="771.8" y="-146.94" font-family="Times,serif" font-size="14.00">prev = &#45;1</text>
<polyline fill="none" stroke="#000000" points="805.52,-140.14 805.52,-162.14"/>
<text xml:space="preserve" text-anchor="middle" x="839.76" y="-146.94" font-family="Times,serif" font-size="14.00">next = 11</text>
</g>
<!-- 3&#45;&gt;4 -->
<!-- 9 -->
<g id="node10" class="node">
<title>9</title>
<path fill="#98fb98" stroke="#000000" d="M1682.08,-140.14C1682.08,-140.14 1782.85,-140.14 1782.85,-140.14 1788.85,-140.14 1794.85,-146.14 1794.85,-152.14 1794.85,-152.14 1794.85,-194.14 1794.85,-194.14 1794.85,-200.14 1788.85,-206.14 1782.85,-206.14 1782.85,-206.14 1682.08,-206.14 1682.08,-206.14 1676.08,-206.14 1670.08,-200.14 1670.08,-194.14 1670.08,-194.14 1670.08,-152.14 1670.08,-152.14 1670.08,-146.14 1676.08,-140.14 1682.08,-140.14"/>
<text xml:space="preserve" text-anchor="middle" x="1732.47" y="-190.94" font-family="Times,serif" font-size="14.00">phys idx = 9</text>
<polyline fill="none" stroke="#000000" points="1670.08,-184.14 1794.85,-184.14"/>
<text xml:space="preserve" text-anchor="middle" x="1732.47" y="-168.94" font-family="Times,serif" font-size="14.00">elem = 32.00</text>
<polyline fill="none" stroke="#000000" points="1670.08,-162.14 1794.85,-162.14"/>
<text xml:space="preserve" text-anchor="middle" x="1701.47" y="-146.94" font-family="Times,serif" font-size="14.00">prev = 3</text>
<polyline fill="none" stroke="#000000" points="1732.86,-140.14 1732.86,-162.14"/>
<text xml:space="preserve" text-anchor="middle" x="1763.85" y="-146.94" font-family="Times,serif" font-size="14.00">next = 7</text>
</g>
<!-- 3&#45;&gt;9 -->
<g id="edge28" class="edge">
<title>3&#45;&gt;9</title>
<path fill="none" stroke="#000000" d="M689.32,-140.91C751.66,-114.4 845.78,-79.01 932,-65.14 1231.75,-16.96 1316.94,-58.03 1612.08,-129.14 1628.06,-132.99 1644.83,-138.32 1660.59,-143.95"/>
<polygon fill="#000000" stroke="#000000" points="688.39,-138.08 681.75,-144.16 690.73,-143.55 688.39,-138.08"/>
<polygon fill="#000000" stroke="#000000" points="1659.31,-146.65 1668.32,-146.76 1661.35,-141.06 1659.31,-146.65"/>
</g>
<!-- 5 -->
<g id="node6" class="node">
<title>5</title>
<path fill="#98fb98" stroke="#000000" d="M944,-140.14C944,-140.14 1044.77,-140.14 1044.77,-140.14 1050.77,-140.14 1056.77,-146.14 1056.77,-152.14 1056.77,-152.14 1056.77,-194.14 1056.77,-194.14 1056.77,-200.14 1050.77,-206.14 1044.77,-206.14 1044.77,-206.14 944,-206.14 944,-206.14 938,-206.14 932,-200.14 932,-194.14 932,-194.14 932,-152.14 932,-152.14 932,-146.14 938,-140.14 944,-140.14"/>
<text xml:space="preserve" text-anchor="middle" x="994.39" y="-190.94" font-family="Times,serif" font-size="14.00">phys idx = 5</text>
<polyline fill="none" stroke="#000000" points="932,-184.14 1056.77,-184.14"/>
<text xml:space="preserve" text-anchor="middle" x="994.39" y="-168.94" font-family="Times,serif" font-size="14.00">elem = 50.00</text>
<polyline fill="none" stroke="#000000" points="932,-162.14 1056.77,-162.14"/>
<text xml:space="preserve" text-anchor="middle" x="963.39" y="-146.94" font-family="Times,serif" font-size="14.00">prev = 8</text>
<polyline fill="none" stroke="#000000" points="994.77,-140.14 994.77,-162.14"/>
<text xml:space="preserve" text-anchor="middle" x="1025.77" y="-146.94" font-family="Times,serif" font-size="14.00">next = 6</text>
</g>
<!-- 4&#45;&gt;5 -->
<!-- 11 -->
<g id="node12" class="node">
<title>11</title>
<path fill="#82898f" stroke="#000000" d="M2047.62,-140.14C2047.62,-140.14 2160.06,-140.14 2160.06,-140.14 2166.06,-140.14 2172.06,-146.14 2172.06,-152.14 2172.06,-152.14 2172.06,-194.14 2172.06,-194.14 2172.06,-200.14 2166.06,-206.14 2160.06,-206.14 2160.06,-206.14 2047.62,-206.14 2047.62,-206.14 2041.62,-206.14 2035.62,-200.14 2035.62,-194.14 2035.62,-194.14 2035.62,-152.14 2035.62,-152.14 2035.62,-146.14 2041.62,-140.14 2047.62,-140.14"/>
<text xml:space="preserve" text-anchor="middle" x="2103.84" y="-190.94" font-family="Times,serif" font-size="14.00">phys idx = 11</text>
<polyline fill="none" stroke="#000000" points="2035.62,-184.14 2172.06,-184.14"/>
<text xml:space="preserve" text-anchor="middle" x="2103.84" y="-168.94" font-family="Times,serif" font-size="14.00">elem = &#45;6666.00</text>
<polyline fill="none" stroke="#000000" points="2035.62,-162.14 2172.06,-162.14"/>
<text xml:space="preserve" text-anchor="middle" x="2069.34" y="-146.94" font-family="Times,serif" font-size="14.00">prev = &#45;1</text>
<polyline fill="none" stroke="#000000" points="2103.06,-140.14 2103.06,-162.14"/>
<text xml:space="preserve" text-anchor="middle" x="2137.56" y="-146.94" font-family="Times,serif" font-size="14.00">next = 12</text>
</g>
<!-- 4&#45;&gt;11 -->
<g id="edge29" class="edge">
<title>4&#45;&gt;11</title>
<path fill="none" stroke="#ff8c00" d="M874.35,-146.49C892.81,-140 912.98,-133.64 932,-129.14 1011.68,-110.33 1033.06,-111.27 1114.77,-106.14 1497.65,-82.15 1600.83,-57.07 1977.62,-129.14 1993.61,-132.2 2010.31,-136.92 2026.11,-142.16"/>
<polygon fill="#ff8c00" stroke="#ff8c00" points="2024.86,-144.87 2033.86,-144.8 2026.78,-139.24 2024.86,-144.87"/>
</g>
<!-- 6 -->
<g id="node7" class="node">
<title>6</title>
<path fill="#98fb98" stroke="#000000" d="M1126.77,-140.14C1126.77,-140.14 1234.54,-140.14 1234.54,-140.14 1240.54,-140.14 1246.54,-146.14 1246.54,-152.14 1246.54,-152.14 1246.54,-194.14 1246.54,-194.14 1246.54,-200.14 1240.54,-206.14 1234.54,-206.14 1234.54,-206.14 1126.77,-206.14 1126.77,-206.14 1120.77,-206.14 1114.77,-200.14 1114.77,-194.14 1114.77,-194.14 1114.77,-152.14 1114.77,-152.14 1114.77,-146.14 1120.77,-140.14 1126.77,-140.14"/>
<text xml:space="preserve" text-anchor="middle" x="1180.66" y="-190.94" font-family="Times,serif" font-size="14.00">phys idx = 6</text>
<polyline fill="none" stroke="#000000" points="1114.77,-184.14 1246.54,-184.14"/>
<text xml:space="preserve" text-anchor="middle" x="1180.66" y="-168.94" font-family="Times,serif" font-size="14.00">elem = 66.00</text>
<polyline fill="none" stroke="#000000" points="1114.77,-162.14 1246.54,-162.14"/>
<text xml:space="preserve" text-anchor="middle" x="1146.16" y="-146.94" font-family="Times,serif" font-size="14.00">prev = 5</text>
<polyline fill="none" stroke="#000000" points="1177.54,-140.14 1177.54,-162.14"/>
<text xml:space="preserve" text-anchor="middle" x="1212.04" y="-146.94" font-family="Times,serif" font-size="14.00">next = 10</text>
</g>
<!-- 5&#45;&gt;6 -->
<!-- 5&#45;&gt;6 -->
<g id="edge30" class="edge">
<title>5&#45;&gt;6</title>
<path fill="none" stroke="#000000" d="M1066.89,-181.21C1079.26,-181.44 1092.14,-181.46 1104.6,-181.27"/>
<polygon fill="#000000" stroke="#000000" points="1067.34,-178.24 1058.77,-181.02 1067.2,-184.19 1067.34,-178.24"/>
<polygon fill="#000000" stroke="#000000" points="1104.53,-184.24 1112.97,-181.1 1104.41,-178.3 1104.53,-184.24"/>
</g>
<!-- 7 -->
<g id="node8" class="node">
<title>7</title>
<path fill="#98fb98" stroke="#000000" d="M1316.54,-140.14C1316.54,-140.14 1417.31,-140.14 1417.31,-140.14 1423.31,-140.14 1429.31,-146.14 1429.31,-152.14 1429.31,-152.14 1429.31,-194.14 1429.31,-194.14 1429.31,-200.14 1423.31,-206.14 1417.31,-206.14 1417.31,-206.14 1316.54,-206.14 1316.54,-206.14 1310.54,-206.14 1304.54,-200.14 1304.54,-194.14 1304.54,-194.14 1304.54,-152.14 1304.54,-152.14 1304.54,-146.14 1310.54,-140.14 1316.54,-140.14"/>
<text xml:space="preserve" text-anchor="middle" x="1366.93" y="-190.94" font-family="Times,serif" font-size="14.00">phys idx = 7</text>
<polyline fill="none" stroke="#000000" points="1304.54,-184.14 1429.31,-184.14"/>
<text xml:space="preserve" text-anchor="middle" x="1366.93" y="-168.94" font-family="Times,serif" font-size="14.00">elem = 35.00</text>
<polyline fill="none" stroke="#000000" points="1304.54,-162.14 1429.31,-162.14"/>
<text xml:space="preserve" text-anchor="middle" x="1335.93" y="-146.94" font-family="Times,serif" font-size="14.00">prev = 9</text>
<polyline fill="none" stroke="#000000" points="1367.31,-140.14 1367.31,-162.14"/>
<text xml:space="preserve" text-anchor="middle" x="1398.31" y="-146.94" font-family="Times,serif" font-size="14.00">next = 8</text>
</g>
<!-- 6&#45;&gt;7 -->
<!-- 10 -->
<g id="node11" class="node">
<title>10</title>
<path fill="#98fb98" stroke="#000000" d="M1864.85,-140.14C1864.85,-140.14 1965.62,-140.14 1965.62,-140.14 1971.62,-140.14 1977.62,-146.14 1977.62,-152.14 1977.62,-152.14 1977.62,-194.14 1977.62,-194.14 1977.62,-200.14 1971.62,-206.14 1965.62,-206.14 1965.62,-206.14 1864.85,-206.14 1864.85,-206.14 1858.85,-206.14 1852.85,-200.14 1852.85,-194.14 1852.85,-194.14 1852.85,-152.14 1852.85,-152.14 1852.85,-146.14 1858.85,-140.14 1864.85,-140.14"/>
<text xml:space="preserve" text-anchor="middle" x="1915.24" y="-190.94" font-family="Times,serif" font-size="14.00">phys idx = 10</text>
<polyline fill="none" stroke="#000000" points="1852.85,-184.14 1977.62,-184.14"/>
<text xml:space="preserve" text-anchor="middle" x="1915.24" y="-168.94" font-family="Times,serif" font-size="14.00">elem = 70.00</text>
<polyline fill="none" stroke="#000000" points="1852.85,-162.14 1977.62,-162.14"/>
<text xml:space="preserve" text-anchor="middle" x="1884.24" y="-146.94" font-family="Times,serif" font-size="14.00">prev = 6</text>
<polyline fill="none" stroke="#000000" points="1915.63,-140.14 1915.63,-162.14"/>
<text xml:space="preserve" text-anchor="middle" x="1946.63" y="-146.94" font-family="Times,serif" font-size="14.00">next = 0</text>
</g>
<!-- 6&#45;&gt;10 -->
<g id="edge31" class="edge">
<title>6&#45;&gt;10</title>
<path fill="none" stroke="#000000" d="M1255.98,-203.55C1271.8,-209.12 1288.56,-214.36 1304.54,-218.14 1516.59,-268.4 1583.05,-269.4 1794.85,-218.14 1810.87,-214.27 1827.66,-208.85 1843.42,-203.1"/>
<polygon fill="#000000" stroke="#000000" points="1257.21,-200.83 1248.21,-200.76 1255.2,-206.43 1257.21,-200.83"/>
<polygon fill="#000000" stroke="#000000" points="1844.23,-205.98 1851.15,-200.22 1842.15,-200.4 1844.23,-205.98"/>
</g>
<!-- 8 -->
<g id="node9" class="node">
<title>8</title>
<path fill="#98fb98" stroke="#000000" d="M1499.31,-140.14C1499.31,-140.14 1600.08,-140.14 1600.08,-140.14 1606.08,-140.14 1612.08,-146.14 1612.08,-152.14 1612.08,-152.14 1612.08,-194.14 1612.08,-194.14 1612.08,-200.14 1606.08,-206.14 1600.08,-206.14 1600.08,-206.14 1499.31,-206.14 1499.31,-206.14 1493.31,-206.14 1487.31,-200.14 1487.31,-194.14 1487.31,-194.14 1487.31,-152.14 1487.31,-152.14 1487.31,-146.14 1493.31,-140.14 1499.31,-140.14"/>
<text xml:space="preserve" text-anchor="middle" x="1549.7" y="-190.94" font-family="Times,serif" font-size="14.00">phys idx = 8</text>
<polyline fill="none" stroke="#000000" points="1487.31,-184.14 1612.08,-184.14"/>
<text xml:space="preserve" text-anchor="middle" x="1549.7" y="-168.94" font-family="Times,serif" font-size="14.00">elem = 36.00</text>
<polyline fill="none" stroke="#000000" points="1487.31,-162.14 1612.08,-162.14"/>
<text xml:space="preserve" text-anchor="middle" x="1518.7" y="-146.94" font-family="Times,serif" font-size="14.00">prev = 7</text>
<polyline fill="none" stroke="#000000" points="1550.08,-140.14 1550.08,-162.14"/>
<text xml:space="preserve" text-anchor="middle" x="1581.08" y="-146.94" font-family="Times,serif" font-size="14.00">next = 5</text>
</g>
<!-- 7&#45;&gt;8 -->
<!-- 7&#45;&gt;8 -->
<g id="edge32" class="edge">
<title>7&#45;&gt;8</title>
<path fill="none" stroke="#000000" d="M1439.32,-181.23C1451.75,-181.45 1464.68,-181.45 1477.12,-181.23"/>
<polygon fill="#000000" stroke="#000000" points="1439.71,-178.26 1431.15,-181.05 1439.58,-184.21 1439.71,-178.26"/>
<polygon fill="#000000" stroke="#000000" points="1477.02,-184.21 1485.45,-181.05 1476.89,-178.26 1477.02,-184.21"/>
</g>
<!-- 8&#45;&gt;5 -->
<g id="edge33" class="edge">
<title>8&#45;&gt;5</title>
<path fill="none" stroke="#000000" d="M1477.86,-142.4C1462.16,-136.9 1445.4,-132.02 1429.31,-129.14 1291.69,-104.59 1252.4,-104.59 1114.77,-129.14 1098.68,-132.02 1081.92,-136.9 1066.23,-142.4"/>
<polygon fill="#000000" stroke="#000000" points="1476.54,-145.08 1485.55,-145.18 1478.57,-139.49 1476.54,-145.08"/>
<polygon fill="#000000" stroke="#000000" points="1065.52,-139.49 1058.54,-145.18 1067.55,-145.08 1065.52,-139.49"/>
</g>
<!-- 8&#45;&gt;9 -->
<!-- 9&#45;&gt;7 -->
<g id="edge34" class="edge">
<title>9&#45;&gt;7</title>
<path fill="none" stroke="#000000" d="M1660.68,-204.59C1644.98,-210.21 1628.21,-215.21 1612.08,-218.14 1557.53,-228.09 1541.87,-228.09 1487.31,-218.14 1471.19,-215.21 1454.42,-210.21 1438.72,-204.59"/>
<polygon fill="#000000" stroke="#000000" points="1661.43,-207.48 1668.37,-201.74 1659.37,-201.9 1661.43,-207.48"/>
<polygon fill="#000000" stroke="#000000" points="1440.03,-201.9 1431.03,-201.74 1437.96,-207.48 1440.03,-201.9"/>
</g>
<!-- 9&#45;&gt;10 -->
<!-- 10&#45;&gt;0 -->
<g id="edge35" class="edge">
<title>10&#45;&gt;0</title>
<path fill="none" stroke="#000000" d="M1843.35,-145.09C1827.53,-139.38 1810.74,-133.72 1794.85,-129.14 1635.31,-83.2 1593.73,-75.2 1429.31,-52.14 882.69,24.5 727.34,-3.88 189.77,-129.14 173.81,-132.86 157.07,-137.99 141.25,-143.44"/>
<polygon fill="#000000" stroke="#000000" points="1842.11,-147.81 1851.12,-147.94 1844.16,-142.22 1842.11,-147.81"/>
<polygon fill="#000000" stroke="#000000" points="140.51,-140.54 133.48,-146.17 142.49,-146.15 140.51,-140.54"/>
</g>
<!-- 10&#45;&gt;11 -->
<!-- 12 -->
<g id="node13" class="node">
<title>12</title>
<path fill="#82898f" stroke="#000000" d="M2242.06,-140.14C2242.06,-140.14 2354.49,-140.14 2354.49,-140.14 2360.49,-140.14 2366.49,-146.14 2366.49,-152.14 2366.49,-152.14 2366.49,-194.14 2366.49,-194.14 2366.49,-200.14 2360.49,-206.14 2354.49,-206.14 2354.49,-206.14 2242.06,-206.14 2242.06,-206.14 2236.06,-206.14 2230.06,-200.14 2230.06,-194.14 2230.06,-194.14 2230.06,-152.14 2230.06,-152.14 2230.06,-146.14 2236.06,-140.14 2242.06,-140.14"/>
<text xml:space="preserve" text-anchor="middle" x="2298.27" y="-190.94" font-family="Times,serif" font-size="14.00">phys idx = 12</text>
<polyline fill="none" stroke="#000000" points="2230.06,-184.14 2366.49,-184.14"/>
<text xml:space="preserve" text-anchor="middle" x="2298.27" y="-168.94" font-family="Times,serif" font-size="14.00">elem = &#45;6666.00</text>
<polyline fill="none" stroke="#000000" points="2230.06,-162.14 2366.49,-162.14"/>
<text xml:space="preserve" text-anchor="middle" x="2263.77" y="-146.94" font-family="Times,serif" font-size="14.00">prev = &#45;1</text>
<polyline fill="none" stroke="#000000" points="2297.49,-140.14 2297.49,-162.14"/>
<text xml:space="preserve" text-anchor="middle" x="2331.99" y="-146.94" font-family="Times,serif" font-size="14.00">next = 13</text>
</g>
<!-- 11&#45;&gt;12 -->
<!-- 11&#45;&gt;12 -->
<g id="edge36" class="edge">
<title>11&#45;&gt;12</title>
<path fill="none" stroke="#ff8c00" d="M2172.42,-181.06C2187.84,-181.43 2204.35,-181.49 2220.14,-181.25"/>
<polygon fill="#ff8c00" stroke="#ff8c00" points="2219.91,-184.23 2228.35,-181.09 2219.79,-178.28 2219.91,-184.23"/>
</g>
<!-- 13 -->
<g id="node14" class="node">
<title>13</title>
<path fill="#82898f" stroke="#000000" d="M2436.49,-140.14C2436.49,-140.14 2548.92,-140.14 2548.92,-140.14 2554.92,-140.14 2560.92,-146.14 2560.92,-152.14 2560.92,-152.14 2560.92,-194.14 2560.92,-194.14 2560.92,-200.14 2554.92,-206.14 2548.92,-206.14 2548.92,-206.14 2436.49,-206.14 2436.49,-206.14 2430.49,-206.14 2424.49,-200.14 2424.49,-194.14 2424.49,-194.14 2424.49,-152.14 2424.49,-152.14 2424.49,-146.14 2430.49,-140.14 2436.49,-140.14"/>
<text xml:space="preserve" text-anchor="middle" x="2492.71" y="-190.94" font-family="Times,serif" font-size="14.00">phys idx = 13</text>
<polyline fill="none" stroke="#000000" points="2424.49,-184.14 2560.92,-184.14"/>
<text xml:space="preserve" text-anchor="middle" x="2492.71" y="-168.94" font-family="Times,serif" font-size="14.00">elem = &#45;6666.00</text>
<polyline fill="none" stroke="#000000" points="2424.49,-162.14 2560.92,-162.14"/>
<text xml:space="preserve" text-anchor="middle" x="2458.21" y="-146.94" font-family="Times,serif" font-size="14.00">prev = &#45;1</text>
<polyline fill="none" stroke="#000000" points="2491.92,-140.14 2491.92,-162.14"/>
<text xml:space="preserve" text-anchor="middle" x="2526.42" y="-146.94" font-family="Times,serif" font-size="14.00">next = 14</text>
</g>
<!-- 12&#45;&gt;13 -->
<!-- 12&#45;&gt;13 -->
<g id="edge37" class="edge">
<title>12&#45;&gt;13</title>
<path fill="none" stroke="#ff8c00" d="M2366.85,-181.06C2382.27,-181.43 2398.78,-181.49 2414.57,-181.25"/>
<polygon fill="#ff8c00" stroke="#ff8c00" points="2414.34,-184.23 2422.78,-181.09 2414.22,-178.28 2414.34,-184.23"/>
</g>
<!-- 14 -->
<g id="node15" class="node">
<title>14</title>
<path fill="#82898f" stroke="#000000" d="M2630.92,-140.14C2630.92,-140.14 2743.36,-140.14 2743.36,-140.14 2749.36,-140.14 2755.36,-146.14 2755.36,-152.14 2755.36,-152.14 2755.36,-194.14 2755.36,-194.14 2755.36,-200.14 2749.36,-206.14 2743.36,-206.14 2743.36,-206.14 2630.92,-206.14 2630.92,-206.14 2624.92,-206.14 2618.92,-200.14 2618.92,-194.14 2618.92,-194.14 2618.92,-152.14 2618.92,-152.14 2618.92,-146.14 2624.92,-140.14 2630.92,-140.14"/>
<text xml:space="preserve" text-anchor="middle" x="2687.14" y="-190.94" font-family="Times,serif" font-size="14.00">phys idx = 14</text>
<polyline fill="none" stroke="#000000" points="2618.92,-184.14 2755.36,-184.14"/>
<text xml:space="preserve" text-anchor="middle" x="2687.14" y="-168.94" font-family="Times,serif" font-size="14.00">elem = &#45;6666.00</text>
<polyline fill="none" stroke="#000000" points="2618.92,-162.14 2755.36,-162.14"/>
<text xml:space="preserve" text-anchor="middle" x="2652.64" y="-146.94" font-family="Times,serif" font-size="14.00">prev = &#45;1</text>
<polyline fill="none" stroke="#000000" points="2686.36,-140.14 2686.36,-162.14"/>
<text xml:space="preserve" text-anchor="middle" x="2720.86" y="-146.94" font-family="Times,serif" font-size="14.00">next = 15</text>
</g>
<!-- 13&#45;&gt;14 -->
<!-- 13&#45;&gt;14 -->
<g id="edge38" class="edge">
<title>13&#45;&gt;14</title>
<path fill="none" stroke="#ff8c00" d="M2561.28,-181.06C2576.71,-181.43 2593.21,-181.49 2609,-181.25"/>
<polygon fill="#ff8c00" stroke="#ff8c00" points="2608.77,-184.23 2617.21,-181.09 2608.66,-178.28 2608.77,-184.23"/>
</g>
<!-- 15 -->
<g id="node16" class="node">
<title>15</title>
<path fill="#82898f" stroke="#000000" d="M2825.36,-140.14C2825.36,-140.14 2937.79,-140.14 2937.79,-140.14 2943.79,-140.14 2949.79,-146.14 2949.79,-152.14 2949.79,-152.14 2949.79,-194.14 2949.79,-194.14 2949.79,-200.14 2943.79,-206.14 2937.79,-206.14 2937.79,-206.14 2825.36,-206.14 2825.36,-206.14 2819.36,-206.14 2813.36,-200.14 2813.36,-194.14 2813.36,-194.14 2813.36,-152.14 2813.36,-152.14 2813.36,-146.14 2819.36,-140.14 2825.36,-140.14"/>
<text xml:space="preserve" text-anchor="middle" x="2881.57" y="-190.94" font-family="Times,serif" font-size="14.00">phys idx = 15</text>
<polyline fill="none" stroke="#000000" points="2813.36,-184.14 2949.79,-184.14"/>
<text xml:space="preserve" text-anchor="middle" x="2881.57" y="-168.94" font-family="Times,serif" font-size="14.00">elem = &#45;6666.00</text>
<polyline fill="none" stroke="#000000" points="2813.36,-162.14 2949.79,-162.14"/>
<text xml:space="preserve" text-anchor="middle" x="2847.07" y="-146.94" font-family="Times,serif" font-size="14.00">prev = &#45;1</text>
<polyline fill="none" stroke="#000000" points="2880.79,-140.14 2880.79,-162.14"/>
<text xml:space="preserve" text-anchor="middle" x="2915.29" y="-146.94" font-family="Times,serif" font-size="14.00">next = 16</text>
</g>
<!-- 14&#45;&gt;15 -->
<!-- 14&#45;&gt;15 -->
<g id="edge39" class="edge">
<title>14&#45;&gt;15</title>
<path fill="none" stroke="#ff8c00" d="M2755.71,-181.06C2771.14,-181.43 2787.64,-181.49 2803.44,-181.25"/>
<polygon fill="#ff8c00" stroke="#ff8c00" points="2803.21,-184.23 2811.65,-181.09 2803.09,-178.28 2803.21,-184.23"/>
</g>
<!-- 16 -->
<g id="node17" class="node">
<title>16</title>
<path fill="#82898f" stroke="#000000" d="M3019.79,-140.14C3019.79,-140.14 3132.22,-140.14 3132.22,-140.14 3138.22,-140.14 3144.22,-146.14 3144.22,-152.14 3144.22,-152.14 3144.22,-194.14 3144.22,-194.14 3144.22,-200.14 3138.22,-206.14 3132.22,-206.14 3132.22,-206.14 3019.79,-206.14 3019.79,-206.14 3013.79,-206.14 3007.79,-200.14 3007.79,-194.14 3007.79,-194.14 3007.79,-152.14 3007.79,-152.14 3007.79,-146.14 3013.79,-140.14 3019.79,-140.14"/>
<text xml:space="preserve" text-anchor="middle" x="3076" y="-190.94" font-family="Times,serif" font-size="14.00">phys idx = 16</text>
<polyline fill="none" stroke="#000000" points="3007.79,-184.14 3144.22,-184.14"/>
<text xml:space="preserve" text-anchor="middle" x="3076" y="-168.94" font-family="Times,serif" font-size="14.00">elem = &#45;6666.00</text>
<polyline fill="none" stroke="#000000" points="3007.79,-162.14 3144.22,-162.14"/>
<text xml:space="preserve" text-anchor="middle" x="3041.5" y="-146.94" font-family="Times,serif" font-size="14.00">prev = &#45;1</text>
<polyline fill="none" stroke="#000000" points="3075.22,-140.14 3075.22,-162.14"/>
<text xml:space="preserve" text-anchor="middle" x="3109.72" y="-146.94" font-family="Times,serif" font-size="14.00">next = 17</text>
</g>
<!-- 15&#45;&gt;16 -->
<!-- 15&#45;&gt;16 -->
<g id="edge40" class="edge">
<title>15&#45;&gt;16</title>
<path fill="none" stroke="#ff8c00" d="M2950.15,-181.06C2965.57,-181.43 2982.08,-181.49 2997.87,-181.25"/>
<polygon fill="#ff8c00" stroke="#ff8c00" points="2997.64,-184.23 3006.08,-181.09 2997.52,-178.28 2997.64,-184.23"/>
</g>
<!-- 17 -->
<g id="node18" class="node">
<title>17</title>
<path fill="#82898f" stroke="#000000" d="M3214.22,-140.14C3214.22,-140.14 3326.65,-140.14 3326.65,-140.14 3332.65,-140.14 3338.65,-146.14 3338.65,-152.14 3338.65,-152.14 3338.65,-194.14 3338.65,-194.14 3338.65,-200.14 3332.65,-206.14 3326.65,-206.14 3326.65,-206.14 3214.22,-206.14 3214.22,-206.14 3208.22,-206.14 3202.22,-200.14 3202.22,-194.14 3202.22,-194.14 3202.22,-152.14 3202.22,-152.14 3202.22,-146.14 3208.22,-140.14 3214.22,-140.14"/>
<text xml:space="preserve" text-anchor="middle" x="3270.44" y="-190.94" font-family="Times,serif" font-size="14.00">phys idx = 17</text>
<polyline fill="none" stroke="#000000" points="3202.22,-184.14 3338.65,-184.14"/>
<text xml:space="preserve" text-anchor="middle" x="3270.44" y="-168.94" font-family="Times,serif" font-size="14.00">elem = &#45;6666.00</text>
<polyline fill="none" stroke="#000000" points="3202.22,-162.14 3338.65,-162.14"/>
<text xml:space="preserve" text-anchor="middle" x="3235.94" y="-146.94" font-family="Times,serif" font-size="14.00">prev = &#45;1</text>
<polyline fill="none" stroke="#000000" points="3269.65,-140.14 3269.65,-162.14"/>
<text xml:space="preserve" text-anchor="middle" x="3304.15" y="-146.94" font-family="Times,serif" font-size="14.00">next = 18</text>
</g>
<!-- 16&#45;&gt;17 -->
<!-- 16&#45;&gt;17 -->
<g id="edge41" class="edge">
<title>16&#45;&gt;17</title>
<path fill="none" stroke="#ff8c00" d="M3144.58,-181.06C3160,-181.43 3176.51,-181.49 3192.3,-181.25"/>
<polygon fill="#ff8c00" stroke="#ff8c00" points="3192.07,-184.23 3200.51,-181.09 3191.96,-178.28 3192.07,-184.23"/>
</g>
<!-- 18 -->
<g id="node19" class="node">
<title>18</title>
<path fill="#82898f" stroke="#000000" d="M3408.65,-140.14C3408.65,-140.14 3521.09,-140.14 3521.09,-140.14 3527.09,-140.14 3533.09,-146.14 3533.09,-152.14 3533.09,-152.14 3533.09,-194.14 3533.09,-194.14 3533.09,-200.14 3527.09,-206.14 3521.09,-206.14 3521.09,-206.14 3408.65,-206.14 3408.65,-206.14 3402.65,-206.14 3396.65,-200.14 3396.65,-194.14 3396.65,-194.14 3396.65,-152.14 3396.65,-152.14 3396.65,-146.14 3402.65,-140.14 3408.65,-140.14"/>
<text xml:space="preserve" text-anchor="middle" x="3464.87" y="-190.94" font-family="Times,serif" font-size="14.00">phys idx = 18</text>
<polyline fill="none" stroke="#000000" points="3396.65,-184.14 3533.09,-184.14"/>
<text xml:space="preserve" text-anchor="middle" x="3464.87" y="-168.94" font-family="Times,serif" font-size="14.00">elem = &#45;6666.00</text>
<polyline fill="none" stroke="#000000" points="3396.65,-162.14 3533.09,-162.14"/>
<text xml:space="preserve" text-anchor="middle" x="3430.37" y="-146.94" font-family="Times,serif" font-size="14.00">prev = &#45;1</text>
<polyline fill="none" stroke="#000000" points="3464.09,-140.14 3464.09,-162.14"/>
<text xml:space="preserve" text-anchor="middle" x="3498.59" y="-146.94" font-family="Times,serif" font-size="14.00">next = 19</text>
</g>
<!-- 17&#45;&gt;18 -->
<!-- 17&#45;&gt;18 -->
<g id="edge42" class="edge">
<title>17&#45;&gt;18</title>
<path fill="none" stroke="#ff8c00" d="M3339.01,-181.06C3354.44,-181.43 3370.94,-181.49 3386.73,-181.25"/>
<polygon fill="#ff8c00" stroke="#ff8c00" points="3386.51,-184.23 3394.95,-181.09 3386.39,-178.28 3386.51,-184.23"/>
</g>
<!-- 19 -->
<g id="node20" class="node">
<title>19</title>
<path fill="#82898f" stroke="#000000" d="M3603.09,-140.14C3603.09,-140.14 3708.52,-140.14 3708.52,-140.14 3714.52,-140.14 3720.52,-146.14 3720.52,-152.14 3720.52,-152.14 3720.52,-194.14 3720.52,-194.14 3720.52,-200.14 3714.52,-206.14 3708.52,-206.14 3708.52,-206.14 3603.09,-206.14 3603.09,-206.14 3597.09,-206.14 3591.09,-200.14 3591.09,-194.14 3591.09,-194.14 3591.09,-152.14 3591.09,-152.14 3591.09,-146.14 3597.09,-140.14 3603.09,-140.14"/>
<text xml:space="preserve" text-anchor="middle" x="3655.8" y="-190.94" font-family="Times,serif" font-size="14.00">phys idx = 19</text>
<polyline fill="none" stroke="#000000" points="3591.09,-184.14 3720.52,-184.14"/>
<text xml:space="preserve" text-anchor="middle" x="3655.8" y="-168.94" font-family="Times,serif" font-size="14.00">elem = &#45;6666.00</text>
<polyline fill="none" stroke="#000000" points="3591.09,-162.14 3720.52,-162.14"/>
<text xml:space="preserve" text-anchor="middle" x="3624.8" y="-146.94" font-family="Times,serif" font-size="14.00">prev = &#45;1</text>
<polyline fill="none" stroke="#000000" points="3658.52,-140.14 3658.52,-162.14"/>
<text xml:space="preserve" text-anchor="middle" x="3689.52" y="-146.94" font-family="Times,serif" font-size="14.00">next = 0</text>
</g>
<!-- 18&#45;&gt;19 -->
<!-- 18&#45;&gt;19 -->
<g id="edge43" class="edge">
<title>18&#45;&gt;19</title>
<path fill="none" stroke="#ff8c00" d="M3533.54,-181.09C3548.98,-181.45 3565.45,-181.49 3581.12,-181.21"/>
<polygon fill="#ff8c00" stroke="#ff8c00" points="3580.81,-184.2 3589.24,-181.04 3580.68,-178.25 3580.81,-184.2"/>
</g>
<!-- 19&#45;&gt;0 -->
<g id="edge44" class="edge">
<title>19&#45;&gt;0</title>
<path fill="none" stroke="#ff8c00" d="M3590.76,-145.99C3572.44,-139.33 3552.25,-133.01 3533.09,-129.14 2535.6,72.02 2263.13,-56.9 1246.54,-12.14 1020.76,-2.2 963.78,5.53 738.08,-6.14 491.53,-18.89 418.31,-1.76 189.77,-95.14 165.2,-105.19 140.1,-120.12 119.04,-134.24"/>
<polygon fill="#ff8c00" stroke="#ff8c00" points="117.48,-131.71 112.13,-138.96 120.83,-136.62 117.48,-131.71"/>
</g>
<!-- head_label -->
<g id="node21" class="node">
<title>head_label</title>
<path fill="#20b2aa" stroke="#000000" d="M50.89,-229.14C50.89,-229.14 80.89,-229.14 80.89,-229.14 86.89,-229.14 92.89,-235.14 92.89,-241.14 92.89,-241.14 92.89,-253.14 92.89,-253.14 92.89,-259.14 86.89,-265.14 80.89,-265.14 80.89,-265.14 50.89,-265.14 50.89,-265.14 44.89,-265.14 38.89,-259.14 38.89,-253.14 38.89,-253.14 38.89,-241.14 38.89,-241.14 38.89,-235.14 44.89,-229.14 50.89,-229.14"/>
<text xml:space="preserve" text-anchor="middle" x="65.89" y="-243.54" font-family="Times,serif" font-size="12.00" fill="#000000">HEAD</text>
</g>
<!-- head_label&#45;&gt;1 -->
<g id="edge3" class="edge">
<title>head_label&#45;&gt;1</title>
<path fill="none" stroke="#20b2aa" d="M93.29,-236.54C116.02,-227.41 149.9,-213.81 180.45,-201.54"/>
<polygon fill="#20b2aa" stroke="#20b2aa" points="181.2,-204.44 187.98,-198.52 178.98,-198.92 181.2,-204.44"/>
</g>
<!-- tail_label -->
<g id="node22" class="node">
<title>tail_label</title>
<path fill="#20b2aa" stroke="#000000" d="M237.16,-229.14C237.16,-229.14 267.16,-229.14 267.16,-229.14 273.16,-229.14 279.16,-235.14 279.16,-241.14 279.16,-241.14 279.16,-253.14 279.16,-253.14 279.16,-259.14 273.16,-265.14 267.16,-265.14 267.16,-265.14 237.16,-265.14 237.16,-265.14 231.16,-265.14 225.16,-259.14 225.16,-253.14 225.16,-253.14 225.16,-241.14 225.16,-241.14 225.16,-235.14 231.16,-229.14 237.16,-229.14"/>
<text xml:space="preserve" text-anchor="middle" x="252.16" y="-243.54" font-family="Times,serif" font-size="12.00" fill="#000000">TAIL</text>
</g>
<!-- head_label&#45;&gt;tail_label -->
<!-- tail_label&#45;&gt;10 -->
<g id="edge4" class="edge">
<title>tail_label&#45;&gt;10</title>
<path fill="none" stroke="#20b2aa" d="M279.56,-257.86C338.8,-280.92 487.31,-333.14 616.7,-333.14 616.7,-333.14 616.7,-333.14 1550.7,-333.14 1670.47,-333.14 1795.07,-259.49 1862.81,-212.13"/>
<polygon fill="#20b2aa" stroke="#20b2aa" points="1864.32,-214.7 1869.54,-207.37 1860.89,-209.84 1864.32,-214.7"/>
</g>
<!-- free_label -->
<g id="node23" class="node">
<title>free_label</title>
<path fill="#20b2aa" stroke="#000000" d="M419.93,-229.14C419.93,-229.14 449.93,-229.14 449.93,-229.14 455.93,-229.14 461.93,-235.14 461.93,-241.14 461.93,-241.14 461.93,-253.14 461.93,-253.14 461.93,-259.14 455.93,-265.14 449.93,-265.14 449.93,-265.14 419.93,-265.14 419.93,-265.14 413.93,-265.14 407.93,-259.14 407.93,-253.14 407.93,-253.14 407.93,-241.14 407.93,-241.14 407.93,-235.14 413.93,-229.14 419.93,-229.14"/>
<text xml:space="preserve" text-anchor="middle" x="434.93" y="-243.54" font-family="Times,serif" font-size="12.00" fill="#000000">FREE</text>
</g>
<!-- tail_label&#45;&gt;free_label -->
<!-- free_label&#45;&gt;4 -->
<g id="edge5" class="edge">
<title>free_label&#45;&gt;4</title>
<path fill="none" stroke="#20b2aa" d="M462.28,-245.98C507.42,-243.55 602.19,-236.54 680.08,-218.14 696.03,-214.38 712.75,-209.24 728.58,-203.77"/>
<polygon fill="#20b2aa" stroke="#20b2aa" points="729.34,-206.66 736.37,-201.03 727.36,-201.05 729.34,-206.66"/>
</g>
</g>
</svg>
