<?xml version="1.0" encoding="UTF-8" standalone="no"?>
<!DOCTYPE svg PUBLIC "-//W3C//DTD SVG 1.1//EN"
 "http://www.w3.org/Graphics/SVG/1.1/DTD/svg11.dtd">
<!-- Generated by graphviz version 14.0.2 (20251019.1705)
 -->
<!-- Title: G Pages: 1 -->
<svg width="1904pt" height="381pt"
 viewBox="0.00 0.00 1904.00 381.00" xmlns="http://www.w3.org/2000/svg" xmlns:xlink="http://www.w3.org/1999/xlink">
<g id="graph0" class="graph" transform="scale(1 1) rotate(0) translate(4 376.77)">
<title>G</title>
<polygon fill="#fffafa" stroke="none" points="-4,4 -4,-376.77 1899.69,-376.77 1899.69,4 -4,4"/>
<!-- 0 -->
<g id="node1" class="node">
<title>0</title>
<path fill="#cd5c5c" stroke="#000000" d="M124,-105.25C124,-105.25 224.77,-105.25 224.77,-105.25 230.77,-105.25 236.77,-111.25 236.77,-117.25 236.77,-117.25 236.77,-159.25 236.77,-159.25 236.77,-165.25 230.77,-171.25 224.77,-171.25 224.77,-171.25 124,-171.25 124,-171.25 118,-171.25 112,-165.25 112,-159.25 112,-159.25 112,-117.25 112,-117.25 112,-111.25 118,-105.25 124,-105.25"/>
<text xml:space="preserve" text-anchor="middle" x="174.39" y="-156.05" font-family="Times,serif" font-size="14.00">phys idx = 0</text>
<polyline fill="none" stroke="#000000" points="112,-149.25 236.77,-149.25"/>
<text xml:space="preserve" text-anchor="middle" x="174.39" y="-134.05" font-family="Times,serif" font-size="14.00">elem = &#45;6666.00</text>
<polyline fill="none" stroke="#000000" points="112,-127.25 236.77,-127.25"/>
<text xml:space="preserve" text-anchor="middle" x="143.39" y="-112.05" font-family="Times,serif" font-size="14.00">prev = 5</text>
<polyline fill="none" stroke="#000000" points="174.77,-105.25 174.77,-127.25"/>
<text xml:space="preserve" text-anchor="middle" x="205.77" y="-112.05" font-family="Times,serif" font-size="14.00">next = 3</text>
</g>
<!-- 1 -->
<g id="node2" class="node">
<title>1</title>
<path fill="#82898f" stroke="#000000" d="M306.77,-105.25C306.77,-105.25 412.2,-105.25 412.2,-105.25 418.2,-105.25 424.2,-111.25 424.2,-117.25 424.2,-117.25 424.2,-159.25 424.2,-159.25 424.2,-165.25 418.2,-171.25 412.2,-171.25 412.2,-171.25 306.77,-171.25 306.77,-171.25 300.77,-171.25 294.77,-165.25 294.77,-159.25 294.77,-159.25 294.77,-117.25 294.77,-117.25 294.77,-111.25 300.77,-105.25 306.77,-105.25"/>
<text xml:space="preserve" text-anchor="middle" x="359.49" y="-156.05" font-family="Times,serif" font-size="14.00">phys idx = 1</text>
<polyline fill="none" stroke="#000000" points="294.77,-149.25 424.2,-149.25"/>
<text xml:space="preserve" text-anchor="middle" x="359.49" y="-134.05" font-family="Times,serif" font-size="14.00">elem = &#45;6666.00</text>
<polyline fill="none" stroke="#000000" points="294.77,-127.25 424.2,-127.25"/>
<text xml:space="preserve" text-anchor="middle" x="328.49" y="-112.05" font-family="Times,serif" font-size="14.00">prev = &#45;1</text>
<polyline fill="none" stroke="#000000" points="362.2,-105.25 362.2,-127.25"/>
<text xml:space="preserve" text-anchor="middle" x="393.2" y="-112.05" font-family="Times,serif" font-size="14.00">next = 6</text>
</g>
<!-- 0&#45;&gt;1 -->
<!-- 3 -->
<g id="node4" class="node">
<title>3</title>
<path fill="#98fb98" stroke="#000000" d="M681.64,-105.25C681.64,-105.25 782.41,-105.25 782.41,-105.25 788.41,-105.25 794.41,-111.25 794.41,-117.25 794.41,-117.25 794.41,-159.25 794.41,-159.25 794.41,-165.25 788.41,-171.25 782.41,-171.25 782.41,-171.25 681.64,-171.25 681.64,-171.25 675.64,-171.25 669.64,-165.25 669.64,-159.25 669.64,-159.25 669.64,-117.25 669.64,-117.25 669.64,-111.25 675.64,-105.25 681.64,-105.25"/>
<text xml:space="preserve" text-anchor="middle" x="732.02" y="-156.05" font-family="Times,serif" font-size="14.00">phys idx = 3</text>
<polyline fill="none" stroke="#000000" points="669.64,-149.25 794.41,-149.25"/>
<text xml:space="preserve" text-anchor="middle" x="732.02" y="-134.05" font-family="Times,serif" font-size="14.00">elem = 31.00</text>
<polyline fill="none" stroke="#000000" points="669.64,-127.25 794.41,-127.25"/>
<text xml:space="preserve" text-anchor="middle" x="701.02" y="-112.05" font-family="Times,serif" font-size="14.00">prev = 0</text>
<polyline fill="none" stroke="#000000" points="732.41,-105.25 732.41,-127.25"/>
<text xml:space="preserve" text-anchor="middle" x="763.41" y="-112.05" font-family="Times,serif" font-size="14.00">next = 9</text>
</g>
<!-- 0&#45;&gt;3 -->
<g id="edge15" class="edge">
<title>0&#45;&gt;3</title>
<path fill="none" stroke="#000000" d="M246.17,-169.7C261.88,-175.32 278.65,-180.32 294.77,-183.25 433.32,-208.5 473.09,-208.5 611.64,-183.25 627.76,-180.32 644.53,-175.32 660.23,-169.7"/>
<polygon fill="#000000" stroke="#000000" points="247.49,-167.01 238.48,-166.85 245.42,-172.59 247.49,-167.01"/>
<polygon fill="#000000" stroke="#000000" points="660.98,-172.59 667.92,-166.85 658.92,-167.01 660.98,-172.59"/>
</g>
<!-- 2 -->
<g id="node3" class="node">
<title>2</title>
<path fill="#82898f" stroke="#000000" d="M494.2,-105.25C494.2,-105.25 599.64,-105.25 599.64,-105.25 605.64,-105.25 611.64,-111.25 611.64,-117.25 611.64,-117.25 611.64,-159.25 611.64,-159.25 611.64,-165.25 605.64,-171.25 599.64,-171.25 599.64,-171.25 494.2,-171.25 494.2,-171.25 488.2,-171.25 482.2,-165.25 482.2,-159.25 482.2,-159.25 482.2,-117.25 482.2,-117.25 482.2,-111.25 488.2,-105.25 494.2,-105.25"/>
<text xml:space="preserve" text-anchor="middle" x="546.92" y="-156.05" font-family="Times,serif" font-size="14.00">phys idx = 2</text>
<polyline fill="none" stroke="#000000" points="482.2,-149.25 611.64,-149.25"/>
<text xml:space="preserve" text-anchor="middle" x="546.92" y="-134.05" font-family="Times,serif" font-size="14.00">elem = &#45;6666.00</text>
<polyline fill="none" stroke="#000000" points="482.2,-127.25 611.64,-127.25"/>
<text xml:space="preserve" text-anchor="middle" x="515.92" y="-112.05" font-family="Times,serif" font-size="14.00">prev = &#45;1</text>
<polyline fill="none" stroke="#000000" points="549.64,-105.25 549.64,-127.25"/>
<text xml:space="preserve" text-anchor="middle" x="580.64" y="-112.05" font-family="Times,serif" font-size="14.00">next = 1</text>
</g>
<!-- 1&#45;&gt;2 -->
<!-- 6 -->
<g id="node7" class="node">
<title>6</title>
<path fill="#82898f" stroke="#000000" d="M1229.95,-105.25C1229.95,-105.25 1335.38,-105.25 1335.38,-105.25 1341.38,-105.25 1347.38,-111.25 1347.38,-117.25 1347.38,-117.25 1347.38,-159.25 1347.38,-159.25 1347.38,-165.25 1341.38,-171.25 1335.38,-171.25 1335.38,-171.25 1229.95,-171.25 1229.95,-171.25 1223.95,-171.25 1217.95,-165.25 1217.95,-159.25 1217.95,-159.25 1217.95,-117.25 1217.95,-117.25 1217.95,-111.25 1223.95,-105.25 1229.95,-105.25"/>
<text xml:space="preserve" text-anchor="middle" x="1282.66" y="-156.05" font-family="Times,serif" font-size="14.00">phys idx = 6</text>
<polyline fill="none" stroke="#000000" points="1217.95,-149.25 1347.38,-149.25"/>
<text xml:space="preserve" text-anchor="middle" x="1282.66" y="-134.05" font-family="Times,serif" font-size="14.00">elem = &#45;6666.00</text>
<polyline fill="none" stroke="#000000" points="1217.95,-127.25 1347.38,-127.25"/>
<text xml:space="preserve" text-anchor="middle" x="1251.66" y="-112.05" font-family="Times,serif" font-size="14.00">prev = &#45;1</text>
<polyline fill="none" stroke="#000000" points="1285.38,-105.25 1285.38,-127.25"/>
<text xml:space="preserve" text-anchor="middle" x="1316.38" y="-112.05" font-family="Times,serif" font-size="14.00">next = 0</text>
</g>
<!-- 1&#45;&gt;6 -->
<g id="edge16" class="edge">
<title>1&#45;&gt;6</title>
<path fill="none" stroke="#ff8c00" d="M424.68,-166.8C442.9,-173.57 463.02,-179.82 482.2,-183.25 698.75,-222 783.76,-288.07 977.18,-183.25 1018.69,-160.76 993.67,-116.75 1035.18,-94.25 1088.63,-65.29 1157.24,-81.1 1208.5,-101.41"/>
<polygon fill="#ff8c00" stroke="#ff8c00" points="1207.14,-104.07 1216.13,-104.54 1209.39,-98.57 1207.14,-104.07"/>
</g>
<!-- 2&#45;&gt;1 -->
<g id="edge17" class="edge">
<title>2&#45;&gt;1</title>
<path fill="none" stroke="#ff8c00" d="M481.84,-146.14C466.5,-146.54 449.99,-146.61 434.25,-146.35"/>
<polygon fill="#ff8c00" stroke="#ff8c00" points="434.64,-143.38 426.08,-146.18 434.51,-149.33 434.64,-143.38"/>
</g>
<!-- 2&#45;&gt;3 -->
<!-- 4 -->
<g id="node5" class="node">
<title>4</title>
<path fill="#98fb98" stroke="#000000" d="M864.41,-105.25C864.41,-105.25 965.18,-105.25 965.18,-105.25 971.18,-105.25 977.18,-111.25 977.18,-117.25 977.18,-117.25 977.18,-159.25 977.18,-159.25 977.18,-165.25 971.18,-171.25 965.18,-171.25 965.18,-171.25 864.41,-171.25 864.41,-171.25 858.41,-171.25 852.41,-165.25 852.41,-159.25 852.41,-159.25 852.41,-117.25 852.41,-117.25 852.41,-111.25 858.41,-105.25 864.41,-105.25"/>
<text xml:space="preserve" text-anchor="middle" x="914.79" y="-156.05" font-family="Times,serif" font-size="14.00">phys idx = 4</text>
<polyline fill="none" stroke="#000000" points="852.41,-149.25 977.18,-149.25"/>
<text xml:space="preserve" text-anchor="middle" x="914.79" y="-134.05" font-family="Times,serif" font-size="14.00">elem = 41.00</text>
<polyline fill="none" stroke="#000000" points="852.41,-127.25 977.18,-127.25"/>
<text xml:space="preserve" text-anchor="middle" x="883.79" y="-112.05" font-family="Times,serif" font-size="14.00">prev = 8</text>
<polyline fill="none" stroke="#000000" points="915.18,-105.25 915.18,-127.25"/>
<text xml:space="preserve" text-anchor="middle" x="946.18" y="-112.05" font-family="Times,serif" font-size="14.00">next = 5</text>
</g>
<!-- 3&#45;&gt;4 -->
<!-- 9 -->
<g id="node10" class="node">
<title>9</title>
<path fill="#98fb98" stroke="#000000" d="M1782.92,-105.25C1782.92,-105.25 1883.69,-105.25 1883.69,-105.25 1889.69,-105.25 1895.69,-111.25 1895.69,-117.25 1895.69,-117.25 1895.69,-159.25 1895.69,-159.25 1895.69,-165.25 1889.69,-171.25 1883.69,-171.25 1883.69,-171.25 1782.92,-171.25 1782.92,-171.25 1776.92,-171.25 1770.92,-165.25 1770.92,-159.25 1770.92,-159.25 1770.92,-117.25 1770.92,-117.25 1770.92,-111.25 1776.92,-105.25 1782.92,-105.25"/>
<text xml:space="preserve" text-anchor="middle" x="1833.31" y="-156.05" font-family="Times,serif" font-size="14.00">phys idx = 9</text>
<polyline fill="none" stroke="#000000" points="1770.92,-149.25 1895.69,-149.25"/>
<text xml:space="preserve" text-anchor="middle" x="1833.31" y="-134.05" font-family="Times,serif" font-size="14.00">elem = 32.00</text>
<polyline fill="none" stroke="#000000" points="1770.92,-127.25 1895.69,-127.25"/>
<text xml:space="preserve" text-anchor="middle" x="1802.31" y="-112.05" font-family="Times,serif" font-size="14.00">prev = 3</text>
<polyline fill="none" stroke="#000000" points="1833.69,-105.25 1833.69,-127.25"/>
<text xml:space="preserve" text-anchor="middle" x="1864.69" y="-112.05" font-family="Times,serif" font-size="14.00">next = 7</text>
</g>
<!-- 3&#45;&gt;9 -->
<g id="edge18" class="edge">
<title>3&#45;&gt;9</title>
<path fill="none" stroke="#000000" d="M803.87,-103.92C863.87,-76.85 952.98,-41.23 1035.18,-26.25 1333.01,28.01 1423.01,-7.08 1712.92,-94.25 1728.75,-99.01 1745.52,-104.75 1761.33,-110.48"/>
<polygon fill="#000000" stroke="#000000" points="802.75,-101.17 796.24,-107.4 805.21,-106.58 802.75,-101.17"/>
<polygon fill="#000000" stroke="#000000" points="1760.09,-113.2 1769.1,-113.33 1762.14,-107.61 1760.09,-113.2"/>
</g>
<!-- 5 -->
<g id="node6" class="node">
<title>5</title>
<path fill="#98fb98" stroke="#000000" d="M1047.18,-105.25C1047.18,-105.25 1147.95,-105.25 1147.95,-105.25 1153.95,-105.25 1159.95,-111.25 1159.95,-117.25 1159.95,-117.25 1159.95,-159.25 1159.95,-159.25 1159.95,-165.25 1153.95,-171.25 1147.95,-171.25 1147.95,-171.25 1047.18,-171.25 1047.18,-171.25 1041.18,-171.25 1035.18,-165.25 1035.18,-159.25 1035.18,-159.25 1035.18,-117.25 1035.18,-117.25 1035.18,-111.25 1041.18,-105.25 1047.18,-105.25"/>
<text xml:space="preserve" text-anchor="middle" x="1097.56" y="-156.05" font-family="Times,serif" font-size="14.00">phys idx = 5</text>
<polyline fill="none" stroke="#000000" points="1035.18,-149.25 1159.95,-149.25"/>
<text xml:space="preserve" text-anchor="middle" x="1097.56" y="-134.05" font-family="Times,serif" font-size="14.00">elem = 51.00</text>
<polyline fill="none" stroke="#000000" points="1035.18,-127.25 1159.95,-127.25"/>
<text xml:space="preserve" text-anchor="middle" x="1066.56" y="-112.05" font-family="Times,serif" font-size="14.00">prev = 4</text>
<polyline fill="none" stroke="#000000" points="1097.95,-105.25 1097.95,-127.25"/>
<text xml:space="preserve" text-anchor="middle" x="1128.95" y="-112.05" font-family="Times,serif" font-size="14.00">next = 0</text>
</g>
<!-- 4&#45;&gt;5 -->
<!-- 4&#45;&gt;5 -->
<g id="edge19" class="edge">
<title>4&#45;&gt;5</title>
<path fill="none" stroke="#000000" d="M987.18,-146.34C999.61,-146.56 1012.55,-146.56 1024.98,-146.34"/>
<polygon fill="#000000" stroke="#000000" points="987.57,-143.37 979.01,-146.16 987.44,-149.32 987.57,-143.37"/>
<polygon fill="#000000" stroke="#000000" points="1024.88,-149.32 1033.31,-146.16 1024.75,-143.37 1024.88,-149.32"/>
</g>
<!-- 5&#45;&gt;0 -->
<g id="edge20" class="edge">
<title>5&#45;&gt;0</title>
<path fill="none" stroke="#000000" d="M1081.72,-180.47C1064.16,-223.22 1030.38,-286.96 977.18,-315.25 880.06,-366.89 588.58,-343.25 482.2,-315.25 382.52,-289.02 281.84,-221.26 224.2,-177.6"/>
<polygon fill="#000000" stroke="#000000" points="1084.39,-181.82 1084.77,-172.82 1078.86,-179.62 1084.39,-181.82"/>
<polygon fill="#000000" stroke="#000000" points="226.12,-175.32 217.56,-172.52 222.51,-180.05 226.12,-175.32"/>
</g>
<!-- 5&#45;&gt;6 -->
<!-- 6&#45;&gt;0 -->
<g id="edge21" class="edge">
<title>6&#45;&gt;0</title>
<path fill="none" stroke="#ff8c00" d="M1246.7,-171.39C1193.38,-219.6 1086.39,-307.55 977.18,-346.25 900.35,-373.48 875.84,-357.92 794.41,-361.25 569.49,-370.47 480.65,-405.22 294.77,-278.25 256.51,-252.12 223.28,-210.66 201.67,-179.63"/>
<polygon fill="#ff8c00" stroke="#ff8c00" points="204.27,-178.16 197.01,-172.83 199.36,-181.52 204.27,-178.16"/>
</g>
<!-- 7 -->
<g id="node8" class="node">
<title>7</title>
<path fill="#98fb98" stroke="#000000" d="M1417.38,-105.25C1417.38,-105.25 1518.15,-105.25 1518.15,-105.25 1524.15,-105.25 1530.15,-111.25 1530.15,-117.25 1530.15,-117.25 1530.15,-159.25 1530.15,-159.25 1530.15,-165.25 1524.15,-171.25 1518.15,-171.25 1518.15,-171.25 1417.38,-171.25 1417.38,-171.25 1411.38,-171.25 1405.38,-165.25 1405.38,-159.25 1405.38,-159.25 1405.38,-117.25 1405.38,-117.25 1405.38,-111.25 1411.38,-105.25 1417.38,-105.25"/>
<text xml:space="preserve" text-anchor="middle" x="1467.77" y="-156.05" font-family="Times,serif" font-size="14.00">phys idx = 7</text>
<polyline fill="none" stroke="#000000" points="1405.38,-149.25 1530.15,-149.25"/>
<text xml:space="preserve" text-anchor="middle" x="1467.77" y="-134.05" font-family="Times,serif" font-size="14.00">elem = 35.00</text>
<polyline fill="none" stroke="#000000" points="1405.38,-127.25 1530.15,-127.25"/>
<text xml:space="preserve" text-anchor="middle" x="1436.77" y="-112.05" font-family="Times,serif" font-size="14.00">prev = 9</text>
<polyline fill="none" stroke="#000000" points="1468.15,-105.25 1468.15,-127.25"/>
<text xml:space="preserve" text-anchor="middle" x="1499.15" y="-112.05" font-family="Times,serif" font-size="14.00">next = 8</text>
</g>
<!-- 6&#45;&gt;7 -->
<!-- 8 -->
<g id="node9" class="node">
<title>8</title>
<path fill="#98fb98" stroke="#000000" d="M1600.15,-105.25C1600.15,-105.25 1700.92,-105.25 1700.92,-105.25 1706.92,-105.25 1712.92,-111.25 1712.92,-117.25 1712.92,-117.25 1712.92,-159.25 1712.92,-159.25 1712.92,-165.25 1706.92,-171.25 1700.92,-171.25 1700.92,-171.25 1600.15,-171.25 1600.15,-171.25 1594.15,-171.25 1588.15,-165.25 1588.15,-159.25 1588.15,-159.25 1588.15,-117.25 1588.15,-117.25 1588.15,-111.25 1594.15,-105.25 1600.15,-105.25"/>
<text xml:space="preserve" text-anchor="middle" x="1650.54" y="-156.05" font-family="Times,serif" font-size="14.00">phys idx = 8</text>
<polyline fill="none" stroke="#000000" points="1588.15,-149.25 1712.92,-149.25"/>
<text xml:space="preserve" text-anchor="middle" x="1650.54" y="-134.05" font-family="Times,serif" font-size="14.00">elem = 36.00</text>
<polyline fill="none" stroke="#000000" points="1588.15,-127.25 1712.92,-127.25"/>
<text xml:space="preserve" text-anchor="middle" x="1619.54" y="-112.05" font-family="Times,serif" font-size="14.00">prev = 7</text>
<polyline fill="none" stroke="#000000" points="1650.92,-105.25 1650.92,-127.25"/>
<text xml:space="preserve" text-anchor="middle" x="1681.92" y="-112.05" font-family="Times,serif" font-size="14.00">next = 4</text>
</g>
<!-- 7&#45;&gt;8 -->
<!-- 7&#45;&gt;8 -->
<g id="edge22" class="edge">
<title>7&#45;&gt;8</title>
<path fill="none" stroke="#000000" d="M1540.16,-146.34C1552.59,-146.56 1565.52,-146.56 1577.95,-146.34"/>
<polygon fill="#000000" stroke="#000000" points="1540.55,-143.37 1531.98,-146.16 1540.41,-149.32 1540.55,-143.37"/>
<polygon fill="#000000" stroke="#000000" points="1577.86,-149.32 1586.29,-146.16 1577.72,-143.37 1577.86,-149.32"/>
</g>
<!-- 8&#45;&gt;4 -->
<g id="edge23" class="edge">
<title>8&#45;&gt;4</title>
<path fill="none" stroke="#000000" d="M1578.66,-108.61C1462.48,-64.37 1225.41,7.55 1035.18,-53.25 1006.68,-62.36 979.18,-81.03 957.77,-98.56"/>
<polygon fill="#000000" stroke="#000000" points="1577.42,-111.32 1586.42,-111.6 1579.56,-105.77 1577.42,-111.32"/>
<polygon fill="#000000" stroke="#000000" points="955.92,-96.22 951.33,-103.97 959.75,-100.78 955.92,-96.22"/>
</g>
<!-- 8&#45;&gt;9 -->
<!-- 9&#45;&gt;7 -->
<g id="edge24" class="edge">
<title>9&#45;&gt;7</title>
<path fill="none" stroke="#000000" d="M1761.52,-169.7C1745.82,-175.32 1729.04,-180.32 1712.92,-183.25 1658.37,-193.19 1642.71,-193.19 1588.15,-183.25 1572.03,-180.32 1555.26,-175.32 1539.55,-169.7"/>
<polygon fill="#000000" stroke="#000000" points="1762.27,-172.59 1769.21,-166.85 1760.2,-167.01 1762.27,-172.59"/>
<polygon fill="#000000" stroke="#000000" points="1540.87,-167.01 1531.86,-166.85 1538.8,-172.59 1540.87,-167.01"/>
</g>
<!-- head_label -->
<g id="node11" class="node">
<title>head_label</title>
<path fill="#20b2aa" stroke="#000000" d="M12,-46.25C12,-46.25 42,-46.25 42,-46.25 48,-46.25 54,-52.25 54,-58.25 54,-58.25 54,-70.25 54,-70.25 54,-76.25 48,-82.25 42,-82.25 42,-82.25 12,-82.25 12,-82.25 6,-82.25 0,-76.25 0,-70.25 0,-70.25 0,-58.25 0,-58.25 0,-52.25 6,-46.25 12,-46.25"/>
<text xml:space="preserve" text-anchor="middle" x="27" y="-60.65" font-family="Times,serif" font-size="12.00" fill="#000000">HEAD</text>
</g>
<!-- head_label&#45;&gt;3 -->
<g id="edge3" class="edge">
<title>head_label&#45;&gt;3</title>
<path fill="none" stroke="#20b2aa" d="M54.23,-52.26C70.48,-45.49 92.01,-37.72 112,-34.25 248.72,-10.57 287.11,-12.85 424.2,-34.25 507.72,-47.3 598.92,-80.87 659.99,-106.37"/>
<polygon fill="#20b2aa" stroke="#20b2aa" points="658.77,-109.08 667.76,-109.64 661.08,-103.6 658.77,-109.08"/>
</g>
<!-- tail_label -->
<g id="node12" class="node">
<title>tail_label</title>
<path fill="#20b2aa" stroke="#000000" d="M159.39,-46.25C159.39,-46.25 189.39,-46.25 189.39,-46.25 195.39,-46.25 201.39,-52.25 201.39,-58.25 201.39,-58.25 201.39,-70.25 201.39,-70.25 201.39,-76.25 195.39,-82.25 189.39,-82.25 189.39,-82.25 159.39,-82.25 159.39,-82.25 153.39,-82.25 147.39,-76.25 147.39,-70.25 147.39,-70.25 147.39,-58.25 147.39,-58.25 147.39,-52.25 153.39,-46.25 159.39,-46.25"/>
<text xml:space="preserve" text-anchor="middle" x="174.39" y="-60.65" font-family="Times,serif" font-size="12.00" fill="#000000">TAIL</text>
</g>
<!-- head_label&#45;&gt;tail_label -->
<!-- tail_label&#45;&gt;5 -->
<g id="edge4" class="edge">
<title>tail_label&#45;&gt;5</title>
<path fill="none" stroke="#20b2aa" d="M201.74,-73.44C213.36,-78.37 226.64,-85.3 236.77,-94.25 272.14,-125.52 259.01,-152.43 294.77,-183.25 387.77,-263.4 423.15,-298.25 545.92,-298.25 545.92,-298.25 545.92,-298.25 733.02,-298.25 846.41,-298.25 875.54,-274.52 977.18,-224.25 1002.56,-211.7 1028.34,-193.9 1049.42,-177.74"/>
<polygon fill="#20b2aa" stroke="#20b2aa" points="1051.18,-180.14 1056.06,-172.58 1047.52,-175.45 1051.18,-180.14"/>
</g>
<!-- free_label -->
<g id="node13" class="node">
<title>free_label</title>
<path fill="#20b2aa" stroke="#000000" d="M344.49,-46.25C344.49,-46.25 374.49,-46.25 374.49,-46.25 380.49,-46.25 386.49,-52.25 386.49,-58.25 386.49,-58.25 386.49,-70.25 386.49,-70.25 386.49,-76.25 380.49,-82.25 374.49,-82.25 374.49,-82.25 344.49,-82.25 344.49,-82.25 338.49,-82.25 332.49,-76.25 332.49,-70.25 332.49,-70.25 332.49,-58.25 332.49,-58.25 332.49,-52.25 338.49,-46.25 344.49,-46.25"/>
<text xml:space="preserve" text-anchor="middle" x="359.49" y="-60.65" font-family="Times,serif" font-size="12.00" fill="#000000">FREE</text>
</g>
<!-- tail_label&#45;&gt;free_label -->
<!-- free_label&#45;&gt;2 -->
<g id="edge5" class="edge">
<title>free_label&#45;&gt;2</title>
<path fill="none" stroke="#20b2aa" d="M386.66,-74.7C409.1,-83.66 442.54,-97 472.99,-109.15"/>
<polygon fill="#20b2aa" stroke="#20b2aa" points="471.51,-111.76 480.5,-112.15 473.71,-106.24 471.51,-111.76"/>
</g>
</g>
</svg>
