<?xml version="1.0" encoding="UTF-8" standalone="no"?>
<!DOCTYPE svg PUBLIC "-//W3C//DTD SVG 1.1//EN"
 "http://www.w3.org/Graphics/SVG/1.1/DTD/svg11.dtd">
<!-- Generated by graphviz version 14.0.2 (20251019.1705)
 -->
<!-- Title: G Pages: 1 -->
<svg width="1771pt" height="400pt"
 viewBox="0.00 0.00 1771.00 400.00" xmlns="http://www.w3.org/2000/svg" xmlns:xlink="http://www.w3.org/1999/xlink">
<g id="graph0" class="graph" transform="scale(1 1) rotate(0) translate(4 396.36)">
<title>G</title>
<polygon fill="#fffafa" stroke="none" points="-4,4 -4,-396.36 1766.79,-396.36 1766.79,4 -4,4"/>
<!-- 0 -->
<g id="node1" class="node">
<title>0</title>
<path fill="#cd5c5c" stroke="#000000" d="M12,-295C12,-295 112.77,-295 112.77,-295 118.77,-295 124.77,-301 124.77,-307 124.77,-307 124.77,-349 124.77,-349 124.77,-355 118.77,-361 112.77,-361 112.77,-361 12,-361 12,-361 6,-361 0,-355 0,-349 0,-349 0,-307 0,-307 0,-301 6,-295 12,-295"/>
<text xml:space="preserve" text-anchor="middle" x="62.39" y="-345.8" font-family="Times,serif" font-size="14.00">phys idx = 0</text>
<polyline fill="none" stroke="#000000" points="0,-339 124.77,-339"/>
<text xml:space="preserve" text-anchor="middle" x="62.39" y="-323.8" font-family="Times,serif" font-size="14.00">elem = &#45;6666.00</text>
<polyline fill="none" stroke="#000000" points="0,-317 124.77,-317"/>
<text xml:space="preserve" text-anchor="middle" x="31.39" y="-301.8" font-family="Times,serif" font-size="14.00">prev = 5</text>
<polyline fill="none" stroke="#000000" points="62.77,-295 62.77,-317"/>
<text xml:space="preserve" text-anchor="middle" x="93.77" y="-301.8" font-family="Times,serif" font-size="14.00">next = 9</text>
</g>
<!-- 4 -->
<g id="node2" class="node">
<title>4</title>
<path fill="#98fb98" stroke="#000000" d="M172.77,-295C172.77,-295 273.54,-295 273.54,-295 279.54,-295 285.54,-301 285.54,-307 285.54,-307 285.54,-349 285.54,-349 285.54,-355 279.54,-361 273.54,-361 273.54,-361 172.77,-361 172.77,-361 166.77,-361 160.77,-355 160.77,-349 160.77,-349 160.77,-307 160.77,-307 160.77,-301 166.77,-295 172.77,-295"/>
<text xml:space="preserve" text-anchor="middle" x="223.16" y="-345.8" font-family="Times,serif" font-size="14.00">phys idx = 4</text>
<polyline fill="none" stroke="#000000" points="160.77,-339 285.54,-339"/>
<text xml:space="preserve" text-anchor="middle" x="223.16" y="-323.8" font-family="Times,serif" font-size="14.00">elem = 41.00</text>
<polyline fill="none" stroke="#000000" points="160.77,-317 285.54,-317"/>
<text xml:space="preserve" text-anchor="middle" x="192.16" y="-301.8" font-family="Times,serif" font-size="14.00">prev = 8</text>
<polyline fill="none" stroke="#000000" points="223.54,-295 223.54,-317"/>
<text xml:space="preserve" text-anchor="middle" x="254.54" y="-301.8" font-family="Times,serif" font-size="14.00">next = 5</text>
</g>
<!-- 0&#45;&gt;4 -->
<!-- 9 -->
<g id="node6" class="node">
<title>9</title>
<path fill="#98fb98" stroke="#000000" d="M815.85,-295C815.85,-295 916.62,-295 916.62,-295 922.62,-295 928.62,-301 928.62,-307 928.62,-307 928.62,-349 928.62,-349 928.62,-355 922.62,-361 916.62,-361 916.62,-361 815.85,-361 815.85,-361 809.85,-361 803.85,-355 803.85,-349 803.85,-349 803.85,-307 803.85,-307 803.85,-301 809.85,-295 815.85,-295"/>
<text xml:space="preserve" text-anchor="middle" x="866.24" y="-345.8" font-family="Times,serif" font-size="14.00">phys idx = 9</text>
<polyline fill="none" stroke="#000000" points="803.85,-339 928.62,-339"/>
<text xml:space="preserve" text-anchor="middle" x="866.24" y="-323.8" font-family="Times,serif" font-size="14.00">elem = 32.00</text>
<polyline fill="none" stroke="#000000" points="803.85,-317 928.62,-317"/>
<text xml:space="preserve" text-anchor="middle" x="835.24" y="-301.8" font-family="Times,serif" font-size="14.00">prev = 0</text>
<polyline fill="none" stroke="#000000" points="866.62,-295 866.62,-317"/>
<text xml:space="preserve" text-anchor="middle" x="897.62" y="-301.8" font-family="Times,serif" font-size="14.00">next = 7</text>
</g>
<!-- 0&#45;&gt;9 -->
<g id="edge11" class="edge">
<title>0&#45;&gt;9</title>
<path fill="none" stroke="#6a7075" d="M62.79,-371.43C62.79,-371.43 62.79,-387.21 62.79,-387.21 62.79,-387.21 845.79,-387.21 845.79,-387.21 845.79,-387.21 845.79,-371.43 845.79,-371.43"/>
<polygon fill="#6a7075" stroke="#6a7075" points="65.76,-371.43 62.79,-362.93 59.81,-371.43 65.76,-371.43"/>
<polygon fill="#6a7075" stroke="#6a7075" points="848.76,-371.43 845.79,-362.93 842.81,-371.43 848.76,-371.43"/>
</g>
<!-- 5 -->
<g id="node3" class="node">
<title>5</title>
<path fill="#98fb98" stroke="#000000" d="M333.54,-295C333.54,-295 434.31,-295 434.31,-295 440.31,-295 446.31,-301 446.31,-307 446.31,-307 446.31,-349 446.31,-349 446.31,-355 440.31,-361 434.31,-361 434.31,-361 333.54,-361 333.54,-361 327.54,-361 321.54,-355 321.54,-349 321.54,-349 321.54,-307 321.54,-307 321.54,-301 327.54,-295 333.54,-295"/>
<text xml:space="preserve" text-anchor="middle" x="383.93" y="-345.8" font-family="Times,serif" font-size="14.00">phys idx = 5</text>
<polyline fill="none" stroke="#000000" points="321.54,-339 446.31,-339"/>
<text xml:space="preserve" text-anchor="middle" x="383.93" y="-323.8" font-family="Times,serif" font-size="14.00">elem = 51.00</text>
<polyline fill="none" stroke="#000000" points="321.54,-317 446.31,-317"/>
<text xml:space="preserve" text-anchor="middle" x="352.93" y="-301.8" font-family="Times,serif" font-size="14.00">prev = 4</text>
<polyline fill="none" stroke="#000000" points="384.31,-295 384.31,-317"/>
<text xml:space="preserve" text-anchor="middle" x="415.31" y="-301.8" font-family="Times,serif" font-size="14.00">next = 0</text>
</g>
<!-- 4&#45;&gt;5 -->
<!-- 4&#45;&gt;5 -->
<g id="edge15" class="edge">
<title>4&#45;&gt;5</title>
<path fill="none" stroke="#6a7075" d="M295.79,-339.17C295.79,-339.17 311.2,-339.17 311.2,-339.17"/>
<polygon fill="#6a7075" stroke="#6a7075" points="295.79,-336.19 287.29,-339.17 295.79,-342.14 295.79,-336.19"/>
<polygon fill="#6a7075" stroke="#6a7075" points="311.2,-342.14 319.7,-339.17 311.2,-336.19 311.2,-342.14"/>
</g>
<!-- 5&#45;&gt;0 -->
<g id="edge16" class="edge">
<title>5&#45;&gt;0</title>
<path fill="none" stroke="#6a7075" d="M383.79,-371.33C383.79,-371.33 383.79,-382.07 383.79,-382.07 383.79,-382.07 93.79,-382.07 93.79,-382.07 93.79,-382.07 93.79,-371.33 93.79,-371.33"/>
<polygon fill="#6a7075" stroke="#6a7075" points="386.76,-371.33 383.79,-362.83 380.81,-371.33 386.76,-371.33"/>
<polygon fill="#6a7075" stroke="#6a7075" points="96.76,-371.33 93.79,-362.83 90.81,-371.33 96.76,-371.33"/>
</g>
<!-- 7 -->
<g id="node4" class="node">
<title>7</title>
<path fill="#98fb98" stroke="#000000" d="M494.31,-295C494.31,-295 595.08,-295 595.08,-295 601.08,-295 607.08,-301 607.08,-307 607.08,-307 607.08,-349 607.08,-349 607.08,-355 601.08,-361 595.08,-361 595.08,-361 494.31,-361 494.31,-361 488.31,-361 482.31,-355 482.31,-349 482.31,-349 482.31,-307 482.31,-307 482.31,-301 488.31,-295 494.31,-295"/>
<text xml:space="preserve" text-anchor="middle" x="544.7" y="-345.8" font-family="Times,serif" font-size="14.00">phys idx = 7</text>
<polyline fill="none" stroke="#000000" points="482.31,-339 607.08,-339"/>
<text xml:space="preserve" text-anchor="middle" x="544.7" y="-323.8" font-family="Times,serif" font-size="14.00">elem = 35.00</text>
<polyline fill="none" stroke="#000000" points="482.31,-317 607.08,-317"/>
<text xml:space="preserve" text-anchor="middle" x="513.7" y="-301.8" font-family="Times,serif" font-size="14.00">prev = 9</text>
<polyline fill="none" stroke="#000000" points="545.08,-295 545.08,-317"/>
<text xml:space="preserve" text-anchor="middle" x="576.08" y="-301.8" font-family="Times,serif" font-size="14.00">next = 8</text>
</g>
<!-- 5&#45;&gt;7 -->
<!-- 8 -->
<g id="node5" class="node">
<title>8</title>
<path fill="#98fb98" stroke="#000000" d="M655.08,-295C655.08,-295 755.85,-295 755.85,-295 761.85,-295 767.85,-301 767.85,-307 767.85,-307 767.85,-349 767.85,-349 767.85,-355 761.85,-361 755.85,-361 755.85,-361 655.08,-361 655.08,-361 649.08,-361 643.08,-355 643.08,-349 643.08,-349 643.08,-307 643.08,-307 643.08,-301 649.08,-295 655.08,-295"/>
<text xml:space="preserve" text-anchor="middle" x="705.47" y="-345.8" font-family="Times,serif" font-size="14.00">phys idx = 8</text>
<polyline fill="none" stroke="#000000" points="643.08,-339 767.85,-339"/>
<text xml:space="preserve" text-anchor="middle" x="705.47" y="-323.8" font-family="Times,serif" font-size="14.00">elem = 36.00</text>
<polyline fill="none" stroke="#000000" points="643.08,-317 767.85,-317"/>
<text xml:space="preserve" text-anchor="middle" x="674.47" y="-301.8" font-family="Times,serif" font-size="14.00">prev = 7</text>
<polyline fill="none" stroke="#000000" points="705.85,-295 705.85,-317"/>
<text xml:space="preserve" text-anchor="middle" x="736.85" y="-301.8" font-family="Times,serif" font-size="14.00">next = 4</text>
</g>
<!-- 7&#45;&gt;8 -->
<!-- 7&#45;&gt;8 -->
<g id="edge18" class="edge">
<title>7&#45;&gt;8</title>
<path fill="none" stroke="#6a7075" d="M617.33,-316.83C617.33,-316.83 632.74,-316.83 632.74,-316.83"/>
<polygon fill="#6a7075" stroke="#6a7075" points="617.33,-313.86 608.83,-316.83 617.33,-319.81 617.33,-313.86"/>
<polygon fill="#6a7075" stroke="#6a7075" points="632.74,-319.81 641.24,-316.83 632.74,-313.86 632.74,-319.81"/>
</g>
<!-- 8&#45;&gt;4 -->
<g id="edge19" class="edge">
<title>8&#45;&gt;4</title>
<path fill="none" stroke="#6a7075" d="M705.79,-370.73C705.79,-370.73 705.79,-371.79 705.79,-371.79 705.79,-371.79 222.79,-371.79 222.79,-371.79 222.79,-371.79 222.79,-370.73 222.79,-370.73"/>
<polygon fill="#6a7075" stroke="#6a7075" points="708.76,-371.2 705.79,-362.7 702.81,-371.2 708.76,-371.2"/>
<polygon fill="#6a7075" stroke="#6a7075" points="225.76,-371.2 222.79,-362.7 219.81,-371.2 225.76,-371.2"/>
</g>
<!-- 8&#45;&gt;9 -->
<!-- 9&#45;&gt;7 -->
<g id="edge20" class="edge">
<title>9&#45;&gt;7</title>
<path fill="none" stroke="#6a7075" d="M886.79,-371.46C886.79,-371.46 886.79,-376.93 886.79,-376.93 886.79,-376.93 544.79,-376.93 544.79,-376.93 544.79,-376.93 544.79,-371.46 544.79,-371.46"/>
<polygon fill="#6a7075" stroke="#6a7075" points="889.76,-371.46 886.79,-362.96 883.81,-371.46 889.76,-371.46"/>
<polygon fill="#6a7075" stroke="#6a7075" points="547.76,-371.46 544.79,-362.96 541.81,-371.46 547.76,-371.46"/>
</g>
<!-- 1 -->
<g id="node7" class="node">
<title>1</title>
<path fill="#82898f" stroke="#000000" d="M976.62,-295C976.62,-295 1082.06,-295 1082.06,-295 1088.06,-295 1094.06,-301 1094.06,-307 1094.06,-307 1094.06,-349 1094.06,-349 1094.06,-355 1088.06,-361 1082.06,-361 1082.06,-361 976.62,-361 976.62,-361 970.62,-361 964.62,-355 964.62,-349 964.62,-349 964.62,-307 964.62,-307 964.62,-301 970.62,-295 976.62,-295"/>
<text xml:space="preserve" text-anchor="middle" x="1029.34" y="-345.8" font-family="Times,serif" font-size="14.00">phys idx = 1</text>
<polyline fill="none" stroke="#000000" points="964.62,-339 1094.06,-339"/>
<text xml:space="preserve" text-anchor="middle" x="1029.34" y="-323.8" font-family="Times,serif" font-size="14.00">elem = &#45;6666.00</text>
<polyline fill="none" stroke="#000000" points="964.62,-317 1094.06,-317"/>
<text xml:space="preserve" text-anchor="middle" x="998.34" y="-301.8" font-family="Times,serif" font-size="14.00">prev = &#45;1</text>
<polyline fill="none" stroke="#000000" points="1032.06,-295 1032.06,-317"/>
<text xml:space="preserve" text-anchor="middle" x="1063.06" y="-301.8" font-family="Times,serif" font-size="14.00">next = 6</text>
</g>
<!-- 9&#45;&gt;1 -->
<!-- 2 -->
<g id="node8" class="node">
<title>2</title>
<path fill="#82898f" stroke="#000000" d="M1142.06,-295C1142.06,-295 1247.49,-295 1247.49,-295 1253.49,-295 1259.49,-301 1259.49,-307 1259.49,-307 1259.49,-349 1259.49,-349 1259.49,-355 1253.49,-361 1247.49,-361 1247.49,-361 1142.06,-361 1142.06,-361 1136.06,-361 1130.06,-355 1130.06,-349 1130.06,-349 1130.06,-307 1130.06,-307 1130.06,-301 1136.06,-295 1142.06,-295"/>
<text xml:space="preserve" text-anchor="middle" x="1194.77" y="-345.8" font-family="Times,serif" font-size="14.00">phys idx = 2</text>
<polyline fill="none" stroke="#000000" points="1130.06,-339 1259.49,-339"/>
<text xml:space="preserve" text-anchor="middle" x="1194.77" y="-323.8" font-family="Times,serif" font-size="14.00">elem = &#45;6666.00</text>
<polyline fill="none" stroke="#000000" points="1130.06,-317 1259.49,-317"/>
<text xml:space="preserve" text-anchor="middle" x="1163.77" y="-301.8" font-family="Times,serif" font-size="14.00">prev = &#45;1</text>
<polyline fill="none" stroke="#000000" points="1197.49,-295 1197.49,-317"/>
<text xml:space="preserve" text-anchor="middle" x="1228.49" y="-301.8" font-family="Times,serif" font-size="14.00">next = 1</text>
</g>
<!-- 1&#45;&gt;2 -->
<!-- 6 -->
<g id="node10" class="node">
<title>6</title>
<path fill="#82898f" stroke="#000000" d="M1472.92,-295C1472.92,-295 1585.35,-295 1585.35,-295 1591.35,-295 1597.35,-301 1597.35,-307 1597.35,-307 1597.35,-349 1597.35,-349 1597.35,-355 1591.35,-361 1585.35,-361 1585.35,-361 1472.92,-361 1472.92,-361 1466.92,-361 1460.92,-355 1460.92,-349 1460.92,-349 1460.92,-307 1460.92,-307 1460.92,-301 1466.92,-295 1472.92,-295"/>
<text xml:space="preserve" text-anchor="middle" x="1529.14" y="-345.8" font-family="Times,serif" font-size="14.00">phys idx = 6</text>
<polyline fill="none" stroke="#000000" points="1460.92,-339 1597.35,-339"/>
<text xml:space="preserve" text-anchor="middle" x="1529.14" y="-323.8" font-family="Times,serif" font-size="14.00">elem = &#45;6666.00</text>
<polyline fill="none" stroke="#000000" points="1460.92,-317 1597.35,-317"/>
<text xml:space="preserve" text-anchor="middle" x="1494.64" y="-301.8" font-family="Times,serif" font-size="14.00">prev = &#45;1</text>
<polyline fill="none" stroke="#000000" points="1528.35,-295 1528.35,-317"/>
<text xml:space="preserve" text-anchor="middle" x="1562.85" y="-301.8" font-family="Times,serif" font-size="14.00">next = 10</text>
</g>
<!-- 1&#45;&gt;6 -->
<g id="edge12" class="edge">
<title>1&#45;&gt;6</title>
<path fill="none" stroke="#44944a" d="M1029.79,-361.27C1029.79,-364.52 1029.79,-366.64 1029.79,-366.64 1029.79,-366.64 1528.79,-366.64 1528.79,-366.64 1528.79,-366.64 1528.79,-366.11 1528.79,-366.11"/>
<polygon fill="#44944a" stroke="#44944a" points="1531.76,-371.28 1528.79,-362.78 1525.81,-371.28 1531.76,-371.28"/>
</g>
<!-- 2&#45;&gt;1 -->
<g id="edge13" class="edge">
<title>2&#45;&gt;1</title>
<path fill="none" stroke="#44944a" d="M1129.86,-339.17C1129.86,-339.17 1104.35,-339.17 1104.35,-339.17"/>
<polygon fill="#44944a" stroke="#44944a" points="1104.35,-336.19 1095.85,-339.17 1104.35,-342.14 1104.35,-336.19"/>
</g>
<!-- 3 -->
<g id="node9" class="node">
<title>3</title>
<path fill="#82898f" stroke="#000000" d="M1307.49,-295C1307.49,-295 1412.92,-295 1412.92,-295 1418.92,-295 1424.92,-301 1424.92,-307 1424.92,-307 1424.92,-349 1424.92,-349 1424.92,-355 1418.92,-361 1412.92,-361 1412.92,-361 1307.49,-361 1307.49,-361 1301.49,-361 1295.49,-355 1295.49,-349 1295.49,-349 1295.49,-307 1295.49,-307 1295.49,-301 1301.49,-295 1307.49,-295"/>
<text xml:space="preserve" text-anchor="middle" x="1360.2" y="-345.8" font-family="Times,serif" font-size="14.00">phys idx = 3</text>
<polyline fill="none" stroke="#000000" points="1295.49,-339 1424.92,-339"/>
<text xml:space="preserve" text-anchor="middle" x="1360.2" y="-323.8" font-family="Times,serif" font-size="14.00">elem = &#45;6666.00</text>
<polyline fill="none" stroke="#000000" points="1295.49,-317 1424.92,-317"/>
<text xml:space="preserve" text-anchor="middle" x="1329.21" y="-301.8" font-family="Times,serif" font-size="14.00">prev = &#45;1</text>
<polyline fill="none" stroke="#000000" points="1362.92,-295 1362.92,-317"/>
<text xml:space="preserve" text-anchor="middle" x="1393.92" y="-301.8" font-family="Times,serif" font-size="14.00">next = 2</text>
</g>
<!-- 2&#45;&gt;3 -->
<!-- 3&#45;&gt;2 -->
<g id="edge14" class="edge">
<title>3&#45;&gt;2</title>
<path fill="none" stroke="#44944a" d="M1295.3,-339.17C1295.3,-339.17 1269.78,-339.17 1269.78,-339.17"/>
<polygon fill="#44944a" stroke="#44944a" points="1269.78,-336.19 1261.28,-339.17 1269.78,-342.14 1269.78,-336.19"/>
</g>
<!-- 3&#45;&gt;6 -->
<!-- 10 -->
<g id="node11" class="node">
<title>10</title>
<path fill="#82898f" stroke="#000000" d="M1645.35,-295C1645.35,-295 1750.79,-295 1750.79,-295 1756.79,-295 1762.79,-301 1762.79,-307 1762.79,-307 1762.79,-349 1762.79,-349 1762.79,-355 1756.79,-361 1750.79,-361 1750.79,-361 1645.35,-361 1645.35,-361 1639.35,-361 1633.35,-355 1633.35,-349 1633.35,-349 1633.35,-307 1633.35,-307 1633.35,-301 1639.35,-295 1645.35,-295"/>
<text xml:space="preserve" text-anchor="middle" x="1698.07" y="-345.8" font-family="Times,serif" font-size="14.00">phys idx = 10</text>
<polyline fill="none" stroke="#000000" points="1633.35,-339 1762.79,-339"/>
<text xml:space="preserve" text-anchor="middle" x="1698.07" y="-323.8" font-family="Times,serif" font-size="14.00">elem = &#45;6666.00</text>
<polyline fill="none" stroke="#000000" points="1633.35,-317 1762.79,-317"/>
<text xml:space="preserve" text-anchor="middle" x="1667.07" y="-301.8" font-family="Times,serif" font-size="14.00">prev = &#45;1</text>
<polyline fill="none" stroke="#000000" points="1700.79,-295 1700.79,-317"/>
<text xml:space="preserve" text-anchor="middle" x="1731.79" y="-301.8" font-family="Times,serif" font-size="14.00">next = 0</text>
</g>
<!-- 6&#45;&gt;10 -->
<!-- 6&#45;&gt;10 -->
<g id="edge17" class="edge">
<title>6&#45;&gt;10</title>
<path fill="none" stroke="#44944a" d="M1597.85,-339.17C1597.85,-339.17 1622.95,-339.17 1622.95,-339.17"/>
<polygon fill="#44944a" stroke="#44944a" points="1622.95,-342.14 1631.45,-339.17 1622.95,-336.19 1622.95,-342.14"/>
</g>
<!-- 10&#45;&gt;0 -->
<g id="edge21" class="edge">
<title>10&#45;&gt;0</title>
<path fill="none" stroke="#44944a" d="M1697.79,-361.31C1697.79,-377.01 1697.79,-392.36 1697.79,-392.36 1697.79,-392.36 30.79,-392.36 30.79,-392.36 30.79,-392.36 30.79,-371.32 30.79,-371.32"/>
<polygon fill="#44944a" stroke="#44944a" points="33.76,-371.32 30.79,-362.82 27.81,-371.32 33.76,-371.32"/>
</g>
<!-- head_label -->
<g id="node12" class="node">
<title>head_label</title>
<polygon fill="#879eac" stroke="#fff4cc" points="893.24,-147 839.24,-147 839.24,-111 893.24,-111 893.24,-147"/>
<text xml:space="preserve" text-anchor="middle" x="866.24" y="-125.4" font-family="Times,serif" font-size="12.00" fill="#fff4cc">HEAD</text>
</g>
<!-- head_label&#45;&gt;9 -->
<g id="edge22" class="edge">
<title>head_label&#45;&gt;9</title>
<path fill="none" stroke="#fff4cc" d="M865.79,-147.36C865.79,-147.36 865.79,-284.57 865.79,-284.57"/>
<polygon fill="#fff4cc" stroke="#fff4cc" points="862.81,-284.57 865.79,-293.07 868.76,-284.57 862.81,-284.57"/>
</g>
<!-- tail_label -->
<g id="node13" class="node">
<title>tail_label</title>
<polygon fill="#879eac" stroke="#fff4cc" points="410.93,-36 356.93,-36 356.93,0 410.93,0 410.93,-36"/>
<text xml:space="preserve" text-anchor="middle" x="383.93" y="-14.4" font-family="Times,serif" font-size="12.00" fill="#fff4cc">TAIL</text>
</g>
<!-- tail_label&#45;&gt;5 -->
<g id="edge23" class="edge">
<title>tail_label&#45;&gt;5</title>
<path fill="none" stroke="#fff4cc" d="M383.79,-36.46C383.79,-36.46 383.79,-284.62 383.79,-284.62"/>
<polygon fill="#fff4cc" stroke="#fff4cc" points="380.81,-284.62 383.79,-293.12 386.76,-284.62 380.81,-284.62"/>
</g>
<!-- free_label -->
<g id="node14" class="node">
<title>free_label</title>
<polygon fill="#879eac" stroke="#fff4cc" points="1387.2,-110 1333.2,-110 1333.2,-74 1387.2,-74 1387.2,-110"/>
<text xml:space="preserve" text-anchor="middle" x="1360.2" y="-88.4" font-family="Times,serif" font-size="12.00" fill="#fff4cc">FREE</text>
</g>
<!-- free_label&#45;&gt;3 -->
<g id="edge24" class="edge">
<title>free_label&#45;&gt;3</title>
<path fill="none" stroke="#fff4cc" d="M1359.79,-110.13C1359.79,-110.13 1359.79,-284.58 1359.79,-284.58"/>
<polygon fill="#fff4cc" stroke="#fff4cc" points="1356.81,-284.58 1359.79,-293.08 1362.76,-284.58 1356.81,-284.58"/>
</g>
</g>
</svg>
