<?xml version="1.0" encoding="UTF-8" standalone="no"?>
<!DOCTYPE svg PUBLIC "-//W3C//DTD SVG 1.1//EN"
 "http://www.w3.org/Graphics/SVG/1.1/DTD/svg11.dtd">
<!-- Generated by graphviz version 14.0.2 (20251019.1705)
 -->
<!-- Title: G Pages: 1 -->
<svg width="1792pt" height="262pt"
 viewBox="0.00 0.00 1792.00 262.00" xmlns="http://www.w3.org/2000/svg" xmlns:xlink="http://www.w3.org/1999/xlink">
<g id="graph0" class="graph" transform="scale(1 1) rotate(0) translate(4 258.07)">
<title>G</title>
<polygon fill="#fffafa" stroke="none" points="-4,4 -4,-258.07 1787.69,-258.07 1787.69,4 -4,4"/>
<!-- 0 -->
<g id="node1" class="node">
<title>0</title>
<path fill="#cd5c5c" stroke="#000000" d="M12,-106.5C12,-106.5 112.77,-106.5 112.77,-106.5 118.77,-106.5 124.77,-112.5 124.77,-118.5 124.77,-118.5 124.77,-160.5 124.77,-160.5 124.77,-166.5 118.77,-172.5 112.77,-172.5 112.77,-172.5 12,-172.5 12,-172.5 6,-172.5 0,-166.5 0,-160.5 0,-160.5 0,-118.5 0,-118.5 0,-112.5 6,-106.5 12,-106.5"/>
<text xml:space="preserve" text-anchor="middle" x="62.39" y="-157.3" font-family="Times,serif" font-size="14.00">phys idx = 0</text>
<polyline fill="none" stroke="#000000" points="0,-150.5 124.77,-150.5"/>
<text xml:space="preserve" text-anchor="middle" x="62.39" y="-135.3" font-family="Times,serif" font-size="14.00">elem = &#45;6666.00</text>
<polyline fill="none" stroke="#000000" points="0,-128.5 124.77,-128.5"/>
<text xml:space="preserve" text-anchor="middle" x="31.39" y="-113.3" font-family="Times,serif" font-size="14.00">prev = 6</text>
<polyline fill="none" stroke="#000000" points="62.77,-106.5 62.77,-128.5"/>
<text xml:space="preserve" text-anchor="middle" x="93.77" y="-113.3" font-family="Times,serif" font-size="14.00">next = 1</text>
</g>
<!-- 1 -->
<g id="node2" class="node">
<title>1</title>
<path fill="#98fb98" stroke="#000000" d="M194.77,-106.5C194.77,-106.5 295.54,-106.5 295.54,-106.5 301.54,-106.5 307.54,-112.5 307.54,-118.5 307.54,-118.5 307.54,-160.5 307.54,-160.5 307.54,-166.5 301.54,-172.5 295.54,-172.5 295.54,-172.5 194.77,-172.5 194.77,-172.5 188.77,-172.5 182.77,-166.5 182.77,-160.5 182.77,-160.5 182.77,-118.5 182.77,-118.5 182.77,-112.5 188.77,-106.5 194.77,-106.5"/>
<text xml:space="preserve" text-anchor="middle" x="245.16" y="-157.3" font-family="Times,serif" font-size="14.00">phys idx = 1</text>
<polyline fill="none" stroke="#000000" points="182.77,-150.5 307.54,-150.5"/>
<text xml:space="preserve" text-anchor="middle" x="245.16" y="-135.3" font-family="Times,serif" font-size="14.00">elem = 11.00</text>
<polyline fill="none" stroke="#000000" points="182.77,-128.5 307.54,-128.5"/>
<text xml:space="preserve" text-anchor="middle" x="214.16" y="-113.3" font-family="Times,serif" font-size="14.00">prev = 0</text>
<polyline fill="none" stroke="#000000" points="245.54,-106.5 245.54,-128.5"/>
<text xml:space="preserve" text-anchor="middle" x="276.54" y="-113.3" font-family="Times,serif" font-size="14.00">next = 2</text>
</g>
<!-- 0&#45;&gt;1 -->
<!-- 0&#45;&gt;1 -->
<g id="edge15" class="edge">
<title>0&#45;&gt;1</title>
<path fill="none" stroke="#000000" d="M134.78,-147.59C147.21,-147.8 160.14,-147.8 172.57,-147.59"/>
<polygon fill="#000000" stroke="#000000" points="135.17,-144.62 126.6,-147.4 135.04,-150.57 135.17,-144.62"/>
<polygon fill="#000000" stroke="#000000" points="172.48,-150.57 180.91,-147.4 172.34,-144.62 172.48,-150.57"/>
</g>
<!-- 2 -->
<g id="node3" class="node">
<title>2</title>
<path fill="#98fb98" stroke="#000000" d="M377.54,-106.5C377.54,-106.5 478.31,-106.5 478.31,-106.5 484.31,-106.5 490.31,-112.5 490.31,-118.5 490.31,-118.5 490.31,-160.5 490.31,-160.5 490.31,-166.5 484.31,-172.5 478.31,-172.5 478.31,-172.5 377.54,-172.5 377.54,-172.5 371.54,-172.5 365.54,-166.5 365.54,-160.5 365.54,-160.5 365.54,-118.5 365.54,-118.5 365.54,-112.5 371.54,-106.5 377.54,-106.5"/>
<text xml:space="preserve" text-anchor="middle" x="427.93" y="-157.3" font-family="Times,serif" font-size="14.00">phys idx = 2</text>
<polyline fill="none" stroke="#000000" points="365.54,-150.5 490.31,-150.5"/>
<text xml:space="preserve" text-anchor="middle" x="427.93" y="-135.3" font-family="Times,serif" font-size="14.00">elem = 21.00</text>
<polyline fill="none" stroke="#000000" points="365.54,-128.5 490.31,-128.5"/>
<text xml:space="preserve" text-anchor="middle" x="396.93" y="-113.3" font-family="Times,serif" font-size="14.00">prev = 1</text>
<polyline fill="none" stroke="#000000" points="428.31,-106.5 428.31,-128.5"/>
<text xml:space="preserve" text-anchor="middle" x="459.31" y="-113.3" font-family="Times,serif" font-size="14.00">next = 3</text>
</g>
<!-- 1&#45;&gt;2 -->
<!-- 1&#45;&gt;2 -->
<g id="edge16" class="edge">
<title>1&#45;&gt;2</title>
<path fill="none" stroke="#000000" d="M317.55,-147.59C329.98,-147.8 342.91,-147.8 355.35,-147.59"/>
<polygon fill="#000000" stroke="#000000" points="317.94,-144.62 309.37,-147.4 317.81,-150.57 317.94,-144.62"/>
<polygon fill="#000000" stroke="#000000" points="355.25,-150.57 363.68,-147.4 355.11,-144.62 355.25,-150.57"/>
</g>
<!-- 3 -->
<g id="node4" class="node">
<title>3</title>
<path fill="#98fb98" stroke="#000000" d="M560.31,-106.5C560.31,-106.5 661.08,-106.5 661.08,-106.5 667.08,-106.5 673.08,-112.5 673.08,-118.5 673.08,-118.5 673.08,-160.5 673.08,-160.5 673.08,-166.5 667.08,-172.5 661.08,-172.5 661.08,-172.5 560.31,-172.5 560.31,-172.5 554.31,-172.5 548.31,-166.5 548.31,-160.5 548.31,-160.5 548.31,-118.5 548.31,-118.5 548.31,-112.5 554.31,-106.5 560.31,-106.5"/>
<text xml:space="preserve" text-anchor="middle" x="610.7" y="-157.3" font-family="Times,serif" font-size="14.00">phys idx = 3</text>
<polyline fill="none" stroke="#000000" points="548.31,-150.5 673.08,-150.5"/>
<text xml:space="preserve" text-anchor="middle" x="610.7" y="-135.3" font-family="Times,serif" font-size="14.00">elem = 31.00</text>
<polyline fill="none" stroke="#000000" points="548.31,-128.5 673.08,-128.5"/>
<text xml:space="preserve" text-anchor="middle" x="579.7" y="-113.3" font-family="Times,serif" font-size="14.00">prev = 2</text>
<polyline fill="none" stroke="#000000" points="611.08,-106.5 611.08,-128.5"/>
<text xml:space="preserve" text-anchor="middle" x="642.08" y="-113.3" font-family="Times,serif" font-size="14.00">next = 4</text>
</g>
<!-- 2&#45;&gt;3 -->
<!-- 2&#45;&gt;3 -->
<g id="edge17" class="edge">
<title>2&#45;&gt;3</title>
<path fill="none" stroke="#000000" d="M500.32,-147.59C512.75,-147.8 525.68,-147.8 538.12,-147.59"/>
<polygon fill="#000000" stroke="#000000" points="500.71,-144.62 492.14,-147.4 500.58,-150.57 500.71,-144.62"/>
<polygon fill="#000000" stroke="#000000" points="538.02,-150.57 546.45,-147.4 537.89,-144.62 538.02,-150.57"/>
</g>
<!-- 4 -->
<g id="node5" class="node">
<title>4</title>
<path fill="#98fb98" stroke="#000000" d="M743.08,-106.5C743.08,-106.5 843.85,-106.5 843.85,-106.5 849.85,-106.5 855.85,-112.5 855.85,-118.5 855.85,-118.5 855.85,-160.5 855.85,-160.5 855.85,-166.5 849.85,-172.5 843.85,-172.5 843.85,-172.5 743.08,-172.5 743.08,-172.5 737.08,-172.5 731.08,-166.5 731.08,-160.5 731.08,-160.5 731.08,-118.5 731.08,-118.5 731.08,-112.5 737.08,-106.5 743.08,-106.5"/>
<text xml:space="preserve" text-anchor="middle" x="793.47" y="-157.3" font-family="Times,serif" font-size="14.00">phys idx = 4</text>
<polyline fill="none" stroke="#000000" points="731.08,-150.5 855.85,-150.5"/>
<text xml:space="preserve" text-anchor="middle" x="793.47" y="-135.3" font-family="Times,serif" font-size="14.00">elem = 41.00</text>
<polyline fill="none" stroke="#000000" points="731.08,-128.5 855.85,-128.5"/>
<text xml:space="preserve" text-anchor="middle" x="762.47" y="-113.3" font-family="Times,serif" font-size="14.00">prev = 3</text>
<polyline fill="none" stroke="#000000" points="793.85,-106.5 793.85,-128.5"/>
<text xml:space="preserve" text-anchor="middle" x="824.85" y="-113.3" font-family="Times,serif" font-size="14.00">next = 5</text>
</g>
<!-- 3&#45;&gt;4 -->
<!-- 3&#45;&gt;4 -->
<g id="edge18" class="edge">
<title>3&#45;&gt;4</title>
<path fill="none" stroke="#000000" d="M683.09,-147.59C695.52,-147.8 708.45,-147.8 720.89,-147.59"/>
<polygon fill="#000000" stroke="#000000" points="683.48,-144.62 674.92,-147.4 683.35,-150.57 683.48,-144.62"/>
<polygon fill="#000000" stroke="#000000" points="720.79,-150.57 729.22,-147.4 720.66,-144.62 720.79,-150.57"/>
</g>
<!-- 5 -->
<g id="node6" class="node">
<title>5</title>
<path fill="#98fb98" stroke="#000000" d="M925.85,-106.5C925.85,-106.5 1026.62,-106.5 1026.62,-106.5 1032.62,-106.5 1038.62,-112.5 1038.62,-118.5 1038.62,-118.5 1038.62,-160.5 1038.62,-160.5 1038.62,-166.5 1032.62,-172.5 1026.62,-172.5 1026.62,-172.5 925.85,-172.5 925.85,-172.5 919.85,-172.5 913.85,-166.5 913.85,-160.5 913.85,-160.5 913.85,-118.5 913.85,-118.5 913.85,-112.5 919.85,-106.5 925.85,-106.5"/>
<text xml:space="preserve" text-anchor="middle" x="976.24" y="-157.3" font-family="Times,serif" font-size="14.00">phys idx = 5</text>
<polyline fill="none" stroke="#000000" points="913.85,-150.5 1038.62,-150.5"/>
<text xml:space="preserve" text-anchor="middle" x="976.24" y="-135.3" font-family="Times,serif" font-size="14.00">elem = 51.00</text>
<polyline fill="none" stroke="#000000" points="913.85,-128.5 1038.62,-128.5"/>
<text xml:space="preserve" text-anchor="middle" x="945.24" y="-113.3" font-family="Times,serif" font-size="14.00">prev = 4</text>
<polyline fill="none" stroke="#000000" points="976.62,-106.5 976.62,-128.5"/>
<text xml:space="preserve" text-anchor="middle" x="1007.62" y="-113.3" font-family="Times,serif" font-size="14.00">next = 6</text>
</g>
<!-- 4&#45;&gt;5 -->
<!-- 4&#45;&gt;5 -->
<g id="edge19" class="edge">
<title>4&#45;&gt;5</title>
<path fill="none" stroke="#000000" d="M865.86,-147.59C878.29,-147.8 891.22,-147.8 903.66,-147.59"/>
<polygon fill="#000000" stroke="#000000" points="866.25,-144.62 857.69,-147.4 866.12,-150.57 866.25,-144.62"/>
<polygon fill="#000000" stroke="#000000" points="903.56,-150.57 911.99,-147.4 903.43,-144.62 903.56,-150.57"/>
</g>
<!-- 6 -->
<g id="node7" class="node">
<title>6</title>
<path fill="#98fb98" stroke="#000000" d="M1108.62,-106.5C1108.62,-106.5 1209.39,-106.5 1209.39,-106.5 1215.39,-106.5 1221.39,-112.5 1221.39,-118.5 1221.39,-118.5 1221.39,-160.5 1221.39,-160.5 1221.39,-166.5 1215.39,-172.5 1209.39,-172.5 1209.39,-172.5 1108.62,-172.5 1108.62,-172.5 1102.62,-172.5 1096.62,-166.5 1096.62,-160.5 1096.62,-160.5 1096.62,-118.5 1096.62,-118.5 1096.62,-112.5 1102.62,-106.5 1108.62,-106.5"/>
<text xml:space="preserve" text-anchor="middle" x="1159.01" y="-157.3" font-family="Times,serif" font-size="14.00">phys idx = 6</text>
<polyline fill="none" stroke="#000000" points="1096.62,-150.5 1221.39,-150.5"/>
<text xml:space="preserve" text-anchor="middle" x="1159.01" y="-135.3" font-family="Times,serif" font-size="14.00">elem = 61.00</text>
<polyline fill="none" stroke="#000000" points="1096.62,-128.5 1221.39,-128.5"/>
<text xml:space="preserve" text-anchor="middle" x="1128.01" y="-113.3" font-family="Times,serif" font-size="14.00">prev = 5</text>
<polyline fill="none" stroke="#000000" points="1159.39,-106.5 1159.39,-128.5"/>
<text xml:space="preserve" text-anchor="middle" x="1190.39" y="-113.3" font-family="Times,serif" font-size="14.00">next = 0</text>
</g>
<!-- 5&#45;&gt;6 -->
<!-- 5&#45;&gt;6 -->
<g id="edge20" class="edge">
<title>5&#45;&gt;6</title>
<path fill="none" stroke="#000000" d="M1048.63,-147.59C1061.06,-147.8 1073.99,-147.8 1086.43,-147.59"/>
<polygon fill="#000000" stroke="#000000" points="1049.02,-144.62 1040.46,-147.4 1048.89,-150.57 1049.02,-144.62"/>
<polygon fill="#000000" stroke="#000000" points="1086.33,-150.57 1094.76,-147.4 1086.2,-144.62 1086.33,-150.57"/>
</g>
<!-- 6&#45;&gt;0 -->
<g id="edge21" class="edge">
<title>6&#45;&gt;0</title>
<path fill="none" stroke="#000000" d="M1087.25,-169.7C1071.49,-175.43 1054.68,-180.79 1038.62,-184.5 932.43,-209.05 903.46,-207.5 794.47,-207.5 426.93,-207.5 426.93,-207.5 426.93,-207.5 317.93,-207.5 288.96,-209.05 182.77,-184.5 166.71,-180.79 149.91,-175.43 134.14,-169.7"/>
<polygon fill="#000000" stroke="#000000" points="1088.05,-172.58 1094.98,-166.82 1085.98,-167 1088.05,-172.58"/>
<polygon fill="#000000" stroke="#000000" points="135.42,-167 126.41,-166.82 133.34,-172.58 135.42,-167"/>
</g>
<!-- 7 -->
<g id="node8" class="node">
<title>7</title>
<path fill="#82898f" stroke="#000000" d="M1291.39,-106.5C1291.39,-106.5 1396.83,-106.5 1396.83,-106.5 1402.83,-106.5 1408.83,-112.5 1408.83,-118.5 1408.83,-118.5 1408.83,-160.5 1408.83,-160.5 1408.83,-166.5 1402.83,-172.5 1396.83,-172.5 1396.83,-172.5 1291.39,-172.5 1291.39,-172.5 1285.39,-172.5 1279.39,-166.5 1279.39,-160.5 1279.39,-160.5 1279.39,-118.5 1279.39,-118.5 1279.39,-112.5 1285.39,-106.5 1291.39,-106.5"/>
<text xml:space="preserve" text-anchor="middle" x="1344.11" y="-157.3" font-family="Times,serif" font-size="14.00">phys idx = 7</text>
<polyline fill="none" stroke="#000000" points="1279.39,-150.5 1408.83,-150.5"/>
<text xml:space="preserve" text-anchor="middle" x="1344.11" y="-135.3" font-family="Times,serif" font-size="14.00">elem = &#45;6666.00</text>
<polyline fill="none" stroke="#000000" points="1279.39,-128.5 1408.83,-128.5"/>
<text xml:space="preserve" text-anchor="middle" x="1313.11" y="-113.3" font-family="Times,serif" font-size="14.00">prev = &#45;1</text>
<polyline fill="none" stroke="#000000" points="1346.83,-106.5 1346.83,-128.5"/>
<text xml:space="preserve" text-anchor="middle" x="1377.83" y="-113.3" font-family="Times,serif" font-size="14.00">next = 8</text>
</g>
<!-- 6&#45;&gt;7 -->
<!-- 8 -->
<g id="node9" class="node">
<title>8</title>
<path fill="#82898f" stroke="#000000" d="M1478.83,-106.5C1478.83,-106.5 1584.26,-106.5 1584.26,-106.5 1590.26,-106.5 1596.26,-112.5 1596.26,-118.5 1596.26,-118.5 1596.26,-160.5 1596.26,-160.5 1596.26,-166.5 1590.26,-172.5 1584.26,-172.5 1584.26,-172.5 1478.83,-172.5 1478.83,-172.5 1472.83,-172.5 1466.83,-166.5 1466.83,-160.5 1466.83,-160.5 1466.83,-118.5 1466.83,-118.5 1466.83,-112.5 1472.83,-106.5 1478.83,-106.5"/>
<text xml:space="preserve" text-anchor="middle" x="1531.54" y="-157.3" font-family="Times,serif" font-size="14.00">phys idx = 8</text>
<polyline fill="none" stroke="#000000" points="1466.83,-150.5 1596.26,-150.5"/>
<text xml:space="preserve" text-anchor="middle" x="1531.54" y="-135.3" font-family="Times,serif" font-size="14.00">elem = &#45;6666.00</text>
<polyline fill="none" stroke="#000000" points="1466.83,-128.5 1596.26,-128.5"/>
<text xml:space="preserve" text-anchor="middle" x="1500.54" y="-113.3" font-family="Times,serif" font-size="14.00">prev = &#45;1</text>
<polyline fill="none" stroke="#000000" points="1534.26,-106.5 1534.26,-128.5"/>
<text xml:space="preserve" text-anchor="middle" x="1565.26" y="-113.3" font-family="Times,serif" font-size="14.00">next = 9</text>
</g>
<!-- 7&#45;&gt;8 -->
<!-- 7&#45;&gt;8 -->
<g id="edge22" class="edge">
<title>7&#45;&gt;8</title>
<path fill="none" stroke="#ff8c00" d="M1409.18,-147.39C1424.53,-147.79 1441.03,-147.86 1456.78,-147.59"/>
<polygon fill="#ff8c00" stroke="#ff8c00" points="1456.52,-150.58 1464.95,-147.42 1456.39,-144.63 1456.52,-150.58"/>
</g>
<!-- 9 -->
<g id="node10" class="node">
<title>9</title>
<path fill="#82898f" stroke="#000000" d="M1666.26,-106.5C1666.26,-106.5 1771.69,-106.5 1771.69,-106.5 1777.69,-106.5 1783.69,-112.5 1783.69,-118.5 1783.69,-118.5 1783.69,-160.5 1783.69,-160.5 1783.69,-166.5 1777.69,-172.5 1771.69,-172.5 1771.69,-172.5 1666.26,-172.5 1666.26,-172.5 1660.26,-172.5 1654.26,-166.5 1654.26,-160.5 1654.26,-160.5 1654.26,-118.5 1654.26,-118.5 1654.26,-112.5 1660.26,-106.5 1666.26,-106.5"/>
<text xml:space="preserve" text-anchor="middle" x="1718.98" y="-157.3" font-family="Times,serif" font-size="14.00">phys idx = 9</text>
<polyline fill="none" stroke="#000000" points="1654.26,-150.5 1783.69,-150.5"/>
<text xml:space="preserve" text-anchor="middle" x="1718.98" y="-135.3" font-family="Times,serif" font-size="14.00">elem = &#45;6666.00</text>
<polyline fill="none" stroke="#000000" points="1654.26,-128.5 1783.69,-128.5"/>
<text xml:space="preserve" text-anchor="middle" x="1687.98" y="-113.3" font-family="Times,serif" font-size="14.00">prev = &#45;1</text>
<polyline fill="none" stroke="#000000" points="1721.69,-106.5 1721.69,-128.5"/>
<text xml:space="preserve" text-anchor="middle" x="1752.69" y="-113.3" font-family="Times,serif" font-size="14.00">next = 0</text>
</g>
<!-- 8&#45;&gt;9 -->
<!-- 8&#45;&gt;9 -->
<g id="edge23" class="edge">
<title>8&#45;&gt;9</title>
<path fill="none" stroke="#ff8c00" d="M1596.62,-147.39C1611.96,-147.79 1628.47,-147.86 1644.21,-147.59"/>
<polygon fill="#ff8c00" stroke="#ff8c00" points="1643.95,-150.58 1652.38,-147.42 1643.82,-144.63 1643.95,-150.58"/>
</g>
<!-- 9&#45;&gt;0 -->
<g id="edge24" class="edge">
<title>9&#45;&gt;0</title>
<path fill="none" stroke="#ff8c00" d="M1653.88,-166.85C1635.57,-173.66 1615.39,-180.22 1596.26,-184.5 1247.21,-262.55 1152.14,-253.5 794.47,-253.5 426.93,-253.5 426.93,-253.5 426.93,-253.5 316.82,-253.5 285.95,-249.93 182.77,-211.5 160.34,-203.15 137.43,-190.51 117.75,-178.14"/>
<polygon fill="#ff8c00" stroke="#ff8c00" points="119.57,-175.76 110.8,-173.68 116.35,-180.77 119.57,-175.76"/>
</g>
<!-- head_label -->
<g id="node11" class="node">
<title>head_label</title>
<path fill="#20b2aa" stroke="#000000" d="M47.39,-0.5C47.39,-0.5 77.39,-0.5 77.39,-0.5 83.39,-0.5 89.39,-6.5 89.39,-12.5 89.39,-12.5 89.39,-24.5 89.39,-24.5 89.39,-30.5 83.39,-36.5 77.39,-36.5 77.39,-36.5 47.39,-36.5 47.39,-36.5 41.39,-36.5 35.39,-30.5 35.39,-24.5 35.39,-24.5 35.39,-12.5 35.39,-12.5 35.39,-6.5 41.39,-0.5 47.39,-0.5"/>
<text xml:space="preserve" text-anchor="middle" x="62.39" y="-14.9" font-family="Times,serif" font-size="12.00" fill="#000000">HEAD</text>
</g>
<!-- head_label&#45;&gt;1 -->
<g id="edge3" class="edge">
<title>head_label&#45;&gt;1</title>
<path fill="none" stroke="#20b2aa" d="M89.67,-36.09C114.86,-52.95 153.72,-78.97 186.17,-100.69"/>
<polygon fill="#20b2aa" stroke="#20b2aa" points="184.29,-103.01 193.01,-105.27 187.6,-98.07 184.29,-103.01"/>
</g>
<!-- tail_label -->
<g id="node12" class="node">
<title>tail_label</title>
<path fill="#20b2aa" stroke="#000000" d="M230.16,-0.5C230.16,-0.5 260.16,-0.5 260.16,-0.5 266.16,-0.5 272.16,-6.5 272.16,-12.5 272.16,-12.5 272.16,-24.5 272.16,-24.5 272.16,-30.5 266.16,-36.5 260.16,-36.5 260.16,-36.5 230.16,-36.5 230.16,-36.5 224.16,-36.5 218.16,-30.5 218.16,-24.5 218.16,-24.5 218.16,-12.5 218.16,-12.5 218.16,-6.5 224.16,-0.5 230.16,-0.5"/>
<text xml:space="preserve" text-anchor="middle" x="245.16" y="-14.9" font-family="Times,serif" font-size="12.00" fill="#000000">TAIL</text>
</g>
<!-- head_label&#45;&gt;tail_label -->
<!-- tail_label&#45;&gt;6 -->
<g id="edge4" class="edge">
<title>tail_label&#45;&gt;6</title>
<path fill="none" stroke="#20b2aa" d="M272.49,-26.02C296.53,-32.63 333.16,-42 365.54,-47.5 473.04,-65.75 500.66,-71.5 609.7,-71.5 609.7,-71.5 609.7,-71.5 794.47,-71.5 903.5,-71.5 932.35,-71.12 1038.62,-95.5 1054.64,-99.18 1071.43,-104.43 1087.19,-110.04"/>
<polygon fill="#20b2aa" stroke="#20b2aa" points="1085.91,-112.74 1094.92,-112.85 1087.95,-107.15 1085.91,-112.74"/>
</g>
<!-- free_label -->
<g id="node13" class="node">
<title>free_label</title>
<path fill="#20b2aa" stroke="#000000" d="M412.93,-0.5C412.93,-0.5 442.93,-0.5 442.93,-0.5 448.93,-0.5 454.93,-6.5 454.93,-12.5 454.93,-12.5 454.93,-24.5 454.93,-24.5 454.93,-30.5 448.93,-36.5 442.93,-36.5 442.93,-36.5 412.93,-36.5 412.93,-36.5 406.93,-36.5 400.93,-30.5 400.93,-24.5 400.93,-24.5 400.93,-12.5 400.93,-12.5 400.93,-6.5 406.93,-0.5 412.93,-0.5"/>
<text xml:space="preserve" text-anchor="middle" x="427.93" y="-14.9" font-family="Times,serif" font-size="12.00" fill="#000000">FREE</text>
</g>
<!-- tail_label&#45;&gt;free_label -->
<!-- free_label&#45;&gt;7 -->
<g id="edge5" class="edge">
<title>free_label&#45;&gt;7</title>
<path fill="none" stroke="#20b2aa" d="M455.38,-18.99C515.35,-20.06 666.23,-22.5 792.47,-22.5 792.47,-22.5 792.47,-22.5 977.24,-22.5 1083.46,-22.5 1199.13,-67.79 1271.38,-102.01"/>
<polygon fill="#20b2aa" stroke="#20b2aa" points="1269.65,-104.49 1278.6,-105.48 1272.22,-99.12 1269.65,-104.49"/>
</g>
</g>
</svg>
