<?xml version="1.0" encoding="UTF-8" standalone="no"?>
<!DOCTYPE svg PUBLIC "-//W3C//DTD SVG 1.1//EN"
 "http://www.w3.org/Graphics/SVG/1.1/DTD/svg11.dtd">
<!-- Generated by graphviz version 14.0.2 (20251019.1705)
 -->
<!-- Title: G Pages: 1 -->
<svg width="1787pt" height="269pt"
 viewBox="0.00 0.00 1787.00 269.00" xmlns="http://www.w3.org/2000/svg" xmlns:xlink="http://www.w3.org/1999/xlink">
<g id="graph0" class="graph" transform="scale(1 1) rotate(0) translate(4 264.57)">
<title>G</title>
<polygon fill="#fffafa" stroke="none" points="-4,4 -4,-264.57 1783.03,-264.57 1783.03,4 -4,4"/>
<!-- 0 -->
<g id="node1" class="node">
<title>0</title>
<path fill="#cd5c5c" stroke="#000000" d="M12,-106.5C12,-106.5 112.77,-106.5 112.77,-106.5 118.77,-106.5 124.77,-112.5 124.77,-118.5 124.77,-118.5 124.77,-160.5 124.77,-160.5 124.77,-166.5 118.77,-172.5 112.77,-172.5 112.77,-172.5 12,-172.5 12,-172.5 6,-172.5 0,-166.5 0,-160.5 0,-160.5 0,-118.5 0,-118.5 0,-112.5 6,-106.5 12,-106.5"/>
<text xml:space="preserve" text-anchor="middle" x="62.39" y="-157.3" font-family="Times,serif" font-size="14.00">phys idx = 0</text>
<polyline fill="none" stroke="#000000" points="0,-150.5 124.77,-150.5"/>
<text xml:space="preserve" text-anchor="middle" x="62.39" y="-135.3" font-family="Times,serif" font-size="14.00">elem = &#45;6666.00</text>
<polyline fill="none" stroke="#000000" points="0,-128.5 124.77,-128.5"/>
<text xml:space="preserve" text-anchor="middle" x="31.39" y="-113.3" font-family="Times,serif" font-size="14.00">prev = 6</text>
<polyline fill="none" stroke="#000000" points="62.77,-106.5 62.77,-128.5"/>
<text xml:space="preserve" text-anchor="middle" x="93.77" y="-113.3" font-family="Times,serif" font-size="14.00">next = 1</text>
</g>
<!-- 1 -->
<g id="node2" class="node">
<title>1</title>
<path fill="#98fb98" stroke="#000000" d="M194.77,-106.5C194.77,-106.5 295.54,-106.5 295.54,-106.5 301.54,-106.5 307.54,-112.5 307.54,-118.5 307.54,-118.5 307.54,-160.5 307.54,-160.5 307.54,-166.5 301.54,-172.5 295.54,-172.5 295.54,-172.5 194.77,-172.5 194.77,-172.5 188.77,-172.5 182.77,-166.5 182.77,-160.5 182.77,-160.5 182.77,-118.5 182.77,-118.5 182.77,-112.5 188.77,-106.5 194.77,-106.5"/>
<text xml:space="preserve" text-anchor="middle" x="245.16" y="-157.3" font-family="Times,serif" font-size="14.00">phys idx = 1</text>
<polyline fill="none" stroke="#000000" points="182.77,-150.5 307.54,-150.5"/>
<text xml:space="preserve" text-anchor="middle" x="245.16" y="-135.3" font-family="Times,serif" font-size="14.00">elem = 11.00</text>
<polyline fill="none" stroke="#000000" points="182.77,-128.5 307.54,-128.5"/>
<text xml:space="preserve" text-anchor="middle" x="214.16" y="-113.3" font-family="Times,serif" font-size="14.00">prev = 0</text>
<polyline fill="none" stroke="#000000" points="245.54,-106.5 245.54,-128.5"/>
<text xml:space="preserve" text-anchor="middle" x="276.54" y="-113.3" font-family="Times,serif" font-size="14.00">next = 2</text>
</g>
<!-- 0&#45;&gt;1 -->
<!-- 0&#45;&gt;1 -->
<g id="edge15" class="edge">
<title>0&#45;&gt;1</title>
<path fill="none" stroke="#000000" d="M134.78,-147.59C147.21,-147.8 160.14,-147.8 172.57,-147.59"/>
<polygon fill="#000000" stroke="#000000" points="135.17,-144.62 126.6,-147.4 135.04,-150.57 135.17,-144.62"/>
<polygon fill="#000000" stroke="#000000" points="172.48,-150.57 180.91,-147.4 172.34,-144.62 172.48,-150.57"/>
</g>
<!-- 2 -->
<g id="node3" class="node">
<title>2</title>
<path fill="#98fb98" stroke="#000000" d="M377.54,-106.5C377.54,-106.5 478.31,-106.5 478.31,-106.5 484.31,-106.5 490.31,-112.5 490.31,-118.5 490.31,-118.5 490.31,-160.5 490.31,-160.5 490.31,-166.5 484.31,-172.5 478.31,-172.5 478.31,-172.5 377.54,-172.5 377.54,-172.5 371.54,-172.5 365.54,-166.5 365.54,-160.5 365.54,-160.5 365.54,-118.5 365.54,-118.5 365.54,-112.5 371.54,-106.5 377.54,-106.5"/>
<text xml:space="preserve" text-anchor="middle" x="427.93" y="-157.3" font-family="Times,serif" font-size="14.00">phys idx = 2</text>
<polyline fill="none" stroke="#000000" points="365.54,-150.5 490.31,-150.5"/>
<text xml:space="preserve" text-anchor="middle" x="427.93" y="-135.3" font-family="Times,serif" font-size="14.00">elem = 21.00</text>
<polyline fill="none" stroke="#000000" points="365.54,-128.5 490.31,-128.5"/>
<text xml:space="preserve" text-anchor="middle" x="396.93" y="-113.3" font-family="Times,serif" font-size="14.00">prev = 1</text>
<polyline fill="none" stroke="#000000" points="428.31,-106.5 428.31,-128.5"/>
<text xml:space="preserve" text-anchor="middle" x="459.31" y="-113.3" font-family="Times,serif" font-size="14.00">next = 3</text>
</g>
<!-- 1&#45;&gt;2 -->
<!-- 1&#45;&gt;2 -->
<g id="edge16" class="edge">
<title>1&#45;&gt;2</title>
<path fill="none" stroke="#000000" d="M317.55,-147.59C329.98,-147.8 342.91,-147.8 355.35,-147.59"/>
<polygon fill="#000000" stroke="#000000" points="317.94,-144.62 309.37,-147.4 317.81,-150.57 317.94,-144.62"/>
<polygon fill="#000000" stroke="#000000" points="355.25,-150.57 363.68,-147.4 355.11,-144.62 355.25,-150.57"/>
</g>
<!-- 3 -->
<g id="node4" class="node">
<title>3</title>
<path fill="#98fb98" stroke="#000000" d="M560.31,-106.5C560.31,-106.5 661.08,-106.5 661.08,-106.5 667.08,-106.5 673.08,-112.5 673.08,-118.5 673.08,-118.5 673.08,-160.5 673.08,-160.5 673.08,-166.5 667.08,-172.5 661.08,-172.5 661.08,-172.5 560.31,-172.5 560.31,-172.5 554.31,-172.5 548.31,-166.5 548.31,-160.5 548.31,-160.5 548.31,-118.5 548.31,-118.5 548.31,-112.5 554.31,-106.5 560.31,-106.5"/>
<text xml:space="preserve" text-anchor="middle" x="610.7" y="-157.3" font-family="Times,serif" font-size="14.00">phys idx = 3</text>
<polyline fill="none" stroke="#000000" points="548.31,-150.5 673.08,-150.5"/>
<text xml:space="preserve" text-anchor="middle" x="610.7" y="-135.3" font-family="Times,serif" font-size="14.00">elem = 31.00</text>
<polyline fill="none" stroke="#000000" points="548.31,-128.5 673.08,-128.5"/>
<text xml:space="preserve" text-anchor="middle" x="579.7" y="-113.3" font-family="Times,serif" font-size="14.00">prev = 2</text>
<polyline fill="none" stroke="#000000" points="611.08,-106.5 611.08,-128.5"/>
<text xml:space="preserve" text-anchor="middle" x="642.08" y="-113.3" font-family="Times,serif" font-size="14.00">next = 7</text>
</g>
<!-- 2&#45;&gt;3 -->
<!-- 2&#45;&gt;3 -->
<g id="edge17" class="edge">
<title>2&#45;&gt;3</title>
<path fill="none" stroke="#000000" d="M500.32,-147.59C512.75,-147.8 525.68,-147.8 538.12,-147.59"/>
<polygon fill="#000000" stroke="#000000" points="500.71,-144.62 492.14,-147.4 500.58,-150.57 500.71,-144.62"/>
<polygon fill="#000000" stroke="#000000" points="538.02,-150.57 546.45,-147.4 537.89,-144.62 538.02,-150.57"/>
</g>
<!-- 4 -->
<g id="node5" class="node">
<title>4</title>
<path fill="#98fb98" stroke="#000000" d="M743.08,-106.5C743.08,-106.5 843.85,-106.5 843.85,-106.5 849.85,-106.5 855.85,-112.5 855.85,-118.5 855.85,-118.5 855.85,-160.5 855.85,-160.5 855.85,-166.5 849.85,-172.5 843.85,-172.5 843.85,-172.5 743.08,-172.5 743.08,-172.5 737.08,-172.5 731.08,-166.5 731.08,-160.5 731.08,-160.5 731.08,-118.5 731.08,-118.5 731.08,-112.5 737.08,-106.5 743.08,-106.5"/>
<text xml:space="preserve" text-anchor="middle" x="793.47" y="-157.3" font-family="Times,serif" font-size="14.00">phys idx = 4</text>
<polyline fill="none" stroke="#000000" points="731.08,-150.5 855.85,-150.5"/>
<text xml:space="preserve" text-anchor="middle" x="793.47" y="-135.3" font-family="Times,serif" font-size="14.00">elem = 41.00</text>
<polyline fill="none" stroke="#000000" points="731.08,-128.5 855.85,-128.5"/>
<text xml:space="preserve" text-anchor="middle" x="762.47" y="-113.3" font-family="Times,serif" font-size="14.00">prev = 7</text>
<polyline fill="none" stroke="#000000" points="793.85,-106.5 793.85,-128.5"/>
<text xml:space="preserve" text-anchor="middle" x="824.85" y="-113.3" font-family="Times,serif" font-size="14.00">next = 5</text>
</g>
<!-- 3&#45;&gt;4 -->
<!-- 7 -->
<g id="node8" class="node">
<title>7</title>
<path fill="#98fb98" stroke="#000000" d="M1291.39,-106.5C1291.39,-106.5 1392.16,-106.5 1392.16,-106.5 1398.16,-106.5 1404.16,-112.5 1404.16,-118.5 1404.16,-118.5 1404.16,-160.5 1404.16,-160.5 1404.16,-166.5 1398.16,-172.5 1392.16,-172.5 1392.16,-172.5 1291.39,-172.5 1291.39,-172.5 1285.39,-172.5 1279.39,-166.5 1279.39,-160.5 1279.39,-160.5 1279.39,-118.5 1279.39,-118.5 1279.39,-112.5 1285.39,-106.5 1291.39,-106.5"/>
<text xml:space="preserve" text-anchor="middle" x="1341.78" y="-157.3" font-family="Times,serif" font-size="14.00">phys idx = 7</text>
<polyline fill="none" stroke="#000000" points="1279.39,-150.5 1404.16,-150.5"/>
<text xml:space="preserve" text-anchor="middle" x="1341.78" y="-135.3" font-family="Times,serif" font-size="14.00">elem = 35.00</text>
<polyline fill="none" stroke="#000000" points="1279.39,-128.5 1404.16,-128.5"/>
<text xml:space="preserve" text-anchor="middle" x="1310.78" y="-113.3" font-family="Times,serif" font-size="14.00">prev = 3</text>
<polyline fill="none" stroke="#000000" points="1342.17,-106.5 1342.17,-128.5"/>
<text xml:space="preserve" text-anchor="middle" x="1373.16" y="-113.3" font-family="Times,serif" font-size="14.00">next = 4</text>
</g>
<!-- 3&#45;&gt;7 -->
<g id="edge18" class="edge">
<title>3&#45;&gt;7</title>
<path fill="none" stroke="#000000" d="M682.59,-169.13C698.35,-174.89 715.12,-180.41 731.08,-184.5 942.47,-238.68 1010.98,-268.34 1221.39,-210.5 1245.2,-203.96 1269.06,-191.29 1289.12,-178.45"/>
<polygon fill="#000000" stroke="#000000" points="683.87,-166.43 674.86,-166.25 681.79,-172.01 683.87,-166.43"/>
<polygon fill="#000000" stroke="#000000" points="1290.74,-180.94 1296.21,-173.78 1287.47,-175.97 1290.74,-180.94"/>
</g>
<!-- 5 -->
<g id="node6" class="node">
<title>5</title>
<path fill="#98fb98" stroke="#000000" d="M925.85,-106.5C925.85,-106.5 1026.62,-106.5 1026.62,-106.5 1032.62,-106.5 1038.62,-112.5 1038.62,-118.5 1038.62,-118.5 1038.62,-160.5 1038.62,-160.5 1038.62,-166.5 1032.62,-172.5 1026.62,-172.5 1026.62,-172.5 925.85,-172.5 925.85,-172.5 919.85,-172.5 913.85,-166.5 913.85,-160.5 913.85,-160.5 913.85,-118.5 913.85,-118.5 913.85,-112.5 919.85,-106.5 925.85,-106.5"/>
<text xml:space="preserve" text-anchor="middle" x="976.24" y="-157.3" font-family="Times,serif" font-size="14.00">phys idx = 5</text>
<polyline fill="none" stroke="#000000" points="913.85,-150.5 1038.62,-150.5"/>
<text xml:space="preserve" text-anchor="middle" x="976.24" y="-135.3" font-family="Times,serif" font-size="14.00">elem = 51.00</text>
<polyline fill="none" stroke="#000000" points="913.85,-128.5 1038.62,-128.5"/>
<text xml:space="preserve" text-anchor="middle" x="945.24" y="-113.3" font-family="Times,serif" font-size="14.00">prev = 4</text>
<polyline fill="none" stroke="#000000" points="976.62,-106.5 976.62,-128.5"/>
<text xml:space="preserve" text-anchor="middle" x="1007.62" y="-113.3" font-family="Times,serif" font-size="14.00">next = 6</text>
</g>
<!-- 4&#45;&gt;5 -->
<!-- 4&#45;&gt;5 -->
<g id="edge19" class="edge">
<title>4&#45;&gt;5</title>
<path fill="none" stroke="#000000" d="M865.86,-147.59C878.29,-147.8 891.22,-147.8 903.66,-147.59"/>
<polygon fill="#000000" stroke="#000000" points="866.25,-144.62 857.69,-147.4 866.12,-150.57 866.25,-144.62"/>
<polygon fill="#000000" stroke="#000000" points="903.56,-150.57 911.99,-147.4 903.43,-144.62 903.56,-150.57"/>
</g>
<!-- 6 -->
<g id="node7" class="node">
<title>6</title>
<path fill="#98fb98" stroke="#000000" d="M1108.62,-106.5C1108.62,-106.5 1209.39,-106.5 1209.39,-106.5 1215.39,-106.5 1221.39,-112.5 1221.39,-118.5 1221.39,-118.5 1221.39,-160.5 1221.39,-160.5 1221.39,-166.5 1215.39,-172.5 1209.39,-172.5 1209.39,-172.5 1108.62,-172.5 1108.62,-172.5 1102.62,-172.5 1096.62,-166.5 1096.62,-160.5 1096.62,-160.5 1096.62,-118.5 1096.62,-118.5 1096.62,-112.5 1102.62,-106.5 1108.62,-106.5"/>
<text xml:space="preserve" text-anchor="middle" x="1159.01" y="-157.3" font-family="Times,serif" font-size="14.00">phys idx = 6</text>
<polyline fill="none" stroke="#000000" points="1096.62,-150.5 1221.39,-150.5"/>
<text xml:space="preserve" text-anchor="middle" x="1159.01" y="-135.3" font-family="Times,serif" font-size="14.00">elem = 61.00</text>
<polyline fill="none" stroke="#000000" points="1096.62,-128.5 1221.39,-128.5"/>
<text xml:space="preserve" text-anchor="middle" x="1128.01" y="-113.3" font-family="Times,serif" font-size="14.00">prev = 5</text>
<polyline fill="none" stroke="#000000" points="1159.39,-106.5 1159.39,-128.5"/>
<text xml:space="preserve" text-anchor="middle" x="1190.39" y="-113.3" font-family="Times,serif" font-size="14.00">next = 0</text>
</g>
<!-- 5&#45;&gt;6 -->
<!-- 5&#45;&gt;6 -->
<g id="edge20" class="edge">
<title>5&#45;&gt;6</title>
<path fill="none" stroke="#000000" d="M1048.63,-147.59C1061.06,-147.8 1073.99,-147.8 1086.43,-147.59"/>
<polygon fill="#000000" stroke="#000000" points="1049.02,-144.62 1040.46,-147.4 1048.89,-150.57 1049.02,-144.62"/>
<polygon fill="#000000" stroke="#000000" points="1086.33,-150.57 1094.76,-147.4 1086.2,-144.62 1086.33,-150.57"/>
</g>
<!-- 6&#45;&gt;0 -->
<g id="edge21" class="edge">
<title>6&#45;&gt;0</title>
<path fill="none" stroke="#000000" d="M1087.22,-170.94C1071.52,-176.56 1054.74,-181.56 1038.62,-184.5 664.41,-252.69 556.99,-252.69 182.77,-184.5 166.65,-181.56 149.88,-176.56 134.17,-170.94"/>
<polygon fill="#000000" stroke="#000000" points="1087.97,-173.84 1094.91,-168.1 1085.91,-168.26 1087.97,-173.84"/>
<polygon fill="#000000" stroke="#000000" points="135.49,-168.26 126.48,-168.1 133.42,-173.84 135.49,-168.26"/>
</g>
<!-- 6&#45;&gt;7 -->
<!-- 7&#45;&gt;4 -->
<g id="edge22" class="edge">
<title>7&#45;&gt;4</title>
<path fill="none" stroke="#000000" d="M1269.99,-170.94C1254.29,-176.56 1237.51,-181.56 1221.39,-184.5 1086.92,-209 1048.32,-209 913.85,-184.5 897.73,-181.56 880.96,-176.56 865.25,-170.94"/>
<polygon fill="#000000" stroke="#000000" points="1270.74,-173.84 1277.68,-168.1 1268.68,-168.26 1270.74,-173.84"/>
<polygon fill="#000000" stroke="#000000" points="866.57,-168.26 857.57,-168.1 864.5,-173.84 866.57,-168.26"/>
</g>
<!-- 8 -->
<g id="node9" class="node">
<title>8</title>
<path fill="#82898f" stroke="#000000" d="M1474.16,-106.5C1474.16,-106.5 1579.6,-106.5 1579.6,-106.5 1585.6,-106.5 1591.6,-112.5 1591.6,-118.5 1591.6,-118.5 1591.6,-160.5 1591.6,-160.5 1591.6,-166.5 1585.6,-172.5 1579.6,-172.5 1579.6,-172.5 1474.16,-172.5 1474.16,-172.5 1468.16,-172.5 1462.16,-166.5 1462.16,-160.5 1462.16,-160.5 1462.16,-118.5 1462.16,-118.5 1462.16,-112.5 1468.16,-106.5 1474.16,-106.5"/>
<text xml:space="preserve" text-anchor="middle" x="1526.88" y="-157.3" font-family="Times,serif" font-size="14.00">phys idx = 8</text>
<polyline fill="none" stroke="#000000" points="1462.16,-150.5 1591.6,-150.5"/>
<text xml:space="preserve" text-anchor="middle" x="1526.88" y="-135.3" font-family="Times,serif" font-size="14.00">elem = &#45;6666.00</text>
<polyline fill="none" stroke="#000000" points="1462.16,-128.5 1591.6,-128.5"/>
<text xml:space="preserve" text-anchor="middle" x="1495.88" y="-113.3" font-family="Times,serif" font-size="14.00">prev = &#45;1</text>
<polyline fill="none" stroke="#000000" points="1529.6,-106.5 1529.6,-128.5"/>
<text xml:space="preserve" text-anchor="middle" x="1560.6" y="-113.3" font-family="Times,serif" font-size="14.00">next = 9</text>
</g>
<!-- 7&#45;&gt;8 -->
<!-- 9 -->
<g id="node10" class="node">
<title>9</title>
<path fill="#82898f" stroke="#000000" d="M1661.6,-106.5C1661.6,-106.5 1767.03,-106.5 1767.03,-106.5 1773.03,-106.5 1779.03,-112.5 1779.03,-118.5 1779.03,-118.5 1779.03,-160.5 1779.03,-160.5 1779.03,-166.5 1773.03,-172.5 1767.03,-172.5 1767.03,-172.5 1661.6,-172.5 1661.6,-172.5 1655.6,-172.5 1649.6,-166.5 1649.6,-160.5 1649.6,-160.5 1649.6,-118.5 1649.6,-118.5 1649.6,-112.5 1655.6,-106.5 1661.6,-106.5"/>
<text xml:space="preserve" text-anchor="middle" x="1714.31" y="-157.3" font-family="Times,serif" font-size="14.00">phys idx = 9</text>
<polyline fill="none" stroke="#000000" points="1649.6,-150.5 1779.03,-150.5"/>
<text xml:space="preserve" text-anchor="middle" x="1714.31" y="-135.3" font-family="Times,serif" font-size="14.00">elem = &#45;6666.00</text>
<polyline fill="none" stroke="#000000" points="1649.6,-128.5 1779.03,-128.5"/>
<text xml:space="preserve" text-anchor="middle" x="1683.31" y="-113.3" font-family="Times,serif" font-size="14.00">prev = &#45;1</text>
<polyline fill="none" stroke="#000000" points="1717.03,-106.5 1717.03,-128.5"/>
<text xml:space="preserve" text-anchor="middle" x="1748.03" y="-113.3" font-family="Times,serif" font-size="14.00">next = 0</text>
</g>
<!-- 8&#45;&gt;9 -->
<!-- 8&#45;&gt;9 -->
<g id="edge23" class="edge">
<title>8&#45;&gt;9</title>
<path fill="none" stroke="#ff8c00" d="M1591.96,-147.39C1607.3,-147.79 1623.8,-147.86 1639.55,-147.59"/>
<polygon fill="#ff8c00" stroke="#ff8c00" points="1639.29,-150.58 1647.72,-147.42 1639.16,-144.63 1639.29,-150.58"/>
</g>
<!-- 9&#45;&gt;0 -->
<g id="edge24" class="edge">
<title>9&#45;&gt;0</title>
<path fill="none" stroke="#ff8c00" d="M1649.35,-165.93C1630.95,-172.77 1610.69,-179.58 1591.6,-184.5 1430.45,-226.01 1387.33,-228.02 1221.39,-240.5 842.08,-269.03 744.9,-265.39 365.54,-237.5 283.71,-231.48 260.07,-239.02 182.77,-211.5 160.03,-203.4 136.88,-190.68 117.1,-178.18"/>
<polygon fill="#ff8c00" stroke="#ff8c00" points="118.86,-175.77 110.11,-173.66 115.64,-180.77 118.86,-175.77"/>
</g>
<!-- head_label -->
<g id="node11" class="node">
<title>head_label</title>
<path fill="#20b2aa" stroke="#000000" d="M47.39,-0.5C47.39,-0.5 77.39,-0.5 77.39,-0.5 83.39,-0.5 89.39,-6.5 89.39,-12.5 89.39,-12.5 89.39,-24.5 89.39,-24.5 89.39,-30.5 83.39,-36.5 77.39,-36.5 77.39,-36.5 47.39,-36.5 47.39,-36.5 41.39,-36.5 35.39,-30.5 35.39,-24.5 35.39,-24.5 35.39,-12.5 35.39,-12.5 35.39,-6.5 41.39,-0.5 47.39,-0.5"/>
<text xml:space="preserve" text-anchor="middle" x="62.39" y="-14.9" font-family="Times,serif" font-size="12.00" fill="#000000">HEAD</text>
</g>
<!-- head_label&#45;&gt;1 -->
<g id="edge3" class="edge">
<title>head_label&#45;&gt;1</title>
<path fill="none" stroke="#20b2aa" d="M89.67,-36.09C114.86,-52.95 153.72,-78.97 186.17,-100.69"/>
<polygon fill="#20b2aa" stroke="#20b2aa" points="184.29,-103.01 193.01,-105.27 187.6,-98.07 184.29,-103.01"/>
</g>
<!-- tail_label -->
<g id="node12" class="node">
<title>tail_label</title>
<path fill="#20b2aa" stroke="#000000" d="M230.16,-0.5C230.16,-0.5 260.16,-0.5 260.16,-0.5 266.16,-0.5 272.16,-6.5 272.16,-12.5 272.16,-12.5 272.16,-24.5 272.16,-24.5 272.16,-30.5 266.16,-36.5 260.16,-36.5 260.16,-36.5 230.16,-36.5 230.16,-36.5 224.16,-36.5 218.16,-30.5 218.16,-24.5 218.16,-24.5 218.16,-12.5 218.16,-12.5 218.16,-6.5 224.16,-0.5 230.16,-0.5"/>
<text xml:space="preserve" text-anchor="middle" x="245.16" y="-14.9" font-family="Times,serif" font-size="12.00" fill="#000000">TAIL</text>
</g>
<!-- head_label&#45;&gt;tail_label -->
<!-- tail_label&#45;&gt;6 -->
<g id="edge4" class="edge">
<title>tail_label&#45;&gt;6</title>
<path fill="none" stroke="#20b2aa" d="M272.49,-26.02C296.53,-32.63 333.16,-42 365.54,-47.5 473.04,-65.75 500.66,-71.5 609.7,-71.5 609.7,-71.5 609.7,-71.5 794.47,-71.5 903.5,-71.5 932.35,-71.12 1038.62,-95.5 1054.64,-99.18 1071.43,-104.43 1087.19,-110.04"/>
<polygon fill="#20b2aa" stroke="#20b2aa" points="1085.91,-112.74 1094.92,-112.85 1087.95,-107.15 1085.91,-112.74"/>
</g>
<!-- free_label -->
<g id="node13" class="node">
<title>free_label</title>
<path fill="#20b2aa" stroke="#000000" d="M412.93,-0.5C412.93,-0.5 442.93,-0.5 442.93,-0.5 448.93,-0.5 454.93,-6.5 454.93,-12.5 454.93,-12.5 454.93,-24.5 454.93,-24.5 454.93,-30.5 448.93,-36.5 442.93,-36.5 442.93,-36.5 412.93,-36.5 412.93,-36.5 406.93,-36.5 400.93,-30.5 400.93,-24.5 400.93,-24.5 400.93,-12.5 400.93,-12.5 400.93,-6.5 406.93,-0.5 412.93,-0.5"/>
<text xml:space="preserve" text-anchor="middle" x="427.93" y="-14.9" font-family="Times,serif" font-size="12.00" fill="#000000">FREE</text>
</g>
<!-- tail_label&#45;&gt;free_label -->
<!-- free_label&#45;&gt;8 -->
<g id="edge5" class="edge">
<title>free_label&#45;&gt;8</title>
<path fill="none" stroke="#20b2aa" d="M455.38,-18.99C515.35,-20.06 666.23,-22.5 792.47,-22.5 792.47,-22.5 792.47,-22.5 1160.01,-22.5 1266.23,-22.5 1381.9,-67.79 1454.15,-102.01"/>
<polygon fill="#20b2aa" stroke="#20b2aa" points="1452.42,-104.49 1461.37,-105.48 1454.99,-99.12 1452.42,-104.49"/>
</g>
</g>
</svg>
