<?xml version="1.0" encoding="UTF-8" standalone="no"?>
<!DOCTYPE svg PUBLIC "-//W3C//DTD SVG 1.1//EN"
 "http://www.w3.org/Graphics/SVG/1.1/DTD/svg11.dtd">
<!-- Generated by graphviz version 14.0.2 (20251019.1705)
 -->
<!-- Title: G Pages: 1 -->
<svg width="1782pt" height="262pt"
 viewBox="0.00 0.00 1782.00 262.00" xmlns="http://www.w3.org/2000/svg" xmlns:xlink="http://www.w3.org/1999/xlink">
<g id="graph0" class="graph" transform="scale(1 1) rotate(0) translate(4 257.5)">
<title>G</title>
<polygon fill="#fffafa" stroke="none" points="-4,4 -4,-257.5 1778.37,-257.5 1778.37,4 -4,4"/>
<!-- 0 -->
<g id="node1" class="node">
<title>0</title>
<path fill="#cd5c5c" stroke="#000000" d="M12,-106.5C12,-106.5 112.77,-106.5 112.77,-106.5 118.77,-106.5 124.77,-112.5 124.77,-118.5 124.77,-118.5 124.77,-160.5 124.77,-160.5 124.77,-166.5 118.77,-172.5 112.77,-172.5 112.77,-172.5 12,-172.5 12,-172.5 6,-172.5 0,-166.5 0,-160.5 0,-160.5 0,-118.5 0,-118.5 0,-112.5 6,-106.5 12,-106.5"/>
<text xml:space="preserve" text-anchor="middle" x="62.39" y="-157.3" font-family="Times,serif" font-size="14.00">phys idx = 0</text>
<polyline fill="none" stroke="#000000" points="0,-150.5 124.77,-150.5"/>
<text xml:space="preserve" text-anchor="middle" x="62.39" y="-135.3" font-family="Times,serif" font-size="14.00">elem = &#45;6666.00</text>
<polyline fill="none" stroke="#000000" points="0,-128.5 124.77,-128.5"/>
<text xml:space="preserve" text-anchor="middle" x="31.39" y="-113.3" font-family="Times,serif" font-size="14.00">prev = 5</text>
<polyline fill="none" stroke="#000000" points="62.77,-106.5 62.77,-128.5"/>
<text xml:space="preserve" text-anchor="middle" x="93.77" y="-113.3" font-family="Times,serif" font-size="14.00">next = 1</text>
</g>
<!-- 1 -->
<g id="node2" class="node">
<title>1</title>
<path fill="#98fb98" stroke="#000000" d="M194.77,-106.5C194.77,-106.5 295.54,-106.5 295.54,-106.5 301.54,-106.5 307.54,-112.5 307.54,-118.5 307.54,-118.5 307.54,-160.5 307.54,-160.5 307.54,-166.5 301.54,-172.5 295.54,-172.5 295.54,-172.5 194.77,-172.5 194.77,-172.5 188.77,-172.5 182.77,-166.5 182.77,-160.5 182.77,-160.5 182.77,-118.5 182.77,-118.5 182.77,-112.5 188.77,-106.5 194.77,-106.5"/>
<text xml:space="preserve" text-anchor="middle" x="245.16" y="-157.3" font-family="Times,serif" font-size="14.00">phys idx = 1</text>
<polyline fill="none" stroke="#000000" points="182.77,-150.5 307.54,-150.5"/>
<text xml:space="preserve" text-anchor="middle" x="245.16" y="-135.3" font-family="Times,serif" font-size="14.00">elem = 11.00</text>
<polyline fill="none" stroke="#000000" points="182.77,-128.5 307.54,-128.5"/>
<text xml:space="preserve" text-anchor="middle" x="214.16" y="-113.3" font-family="Times,serif" font-size="14.00">prev = 0</text>
<polyline fill="none" stroke="#000000" points="245.54,-106.5 245.54,-128.5"/>
<text xml:space="preserve" text-anchor="middle" x="276.54" y="-113.3" font-family="Times,serif" font-size="14.00">next = 2</text>
</g>
<!-- 0&#45;&gt;1 -->
<!-- 0&#45;&gt;1 -->
<g id="edge15" class="edge">
<title>0&#45;&gt;1</title>
<path fill="none" stroke="#000000" d="M134.78,-147.59C147.21,-147.8 160.14,-147.8 172.57,-147.59"/>
<polygon fill="#000000" stroke="#000000" points="135.17,-144.62 126.6,-147.4 135.04,-150.57 135.17,-144.62"/>
<polygon fill="#000000" stroke="#000000" points="172.48,-150.57 180.91,-147.4 172.34,-144.62 172.48,-150.57"/>
</g>
<!-- 2 -->
<g id="node3" class="node">
<title>2</title>
<path fill="#98fb98" stroke="#000000" d="M377.54,-106.5C377.54,-106.5 478.31,-106.5 478.31,-106.5 484.31,-106.5 490.31,-112.5 490.31,-118.5 490.31,-118.5 490.31,-160.5 490.31,-160.5 490.31,-166.5 484.31,-172.5 478.31,-172.5 478.31,-172.5 377.54,-172.5 377.54,-172.5 371.54,-172.5 365.54,-166.5 365.54,-160.5 365.54,-160.5 365.54,-118.5 365.54,-118.5 365.54,-112.5 371.54,-106.5 377.54,-106.5"/>
<text xml:space="preserve" text-anchor="middle" x="427.93" y="-157.3" font-family="Times,serif" font-size="14.00">phys idx = 2</text>
<polyline fill="none" stroke="#000000" points="365.54,-150.5 490.31,-150.5"/>
<text xml:space="preserve" text-anchor="middle" x="427.93" y="-135.3" font-family="Times,serif" font-size="14.00">elem = 20.00</text>
<polyline fill="none" stroke="#000000" points="365.54,-128.5 490.31,-128.5"/>
<text xml:space="preserve" text-anchor="middle" x="396.93" y="-113.3" font-family="Times,serif" font-size="14.00">prev = 1</text>
<polyline fill="none" stroke="#000000" points="428.31,-106.5 428.31,-128.5"/>
<text xml:space="preserve" text-anchor="middle" x="459.31" y="-113.3" font-family="Times,serif" font-size="14.00">next = 3</text>
</g>
<!-- 1&#45;&gt;2 -->
<!-- 1&#45;&gt;2 -->
<g id="edge16" class="edge">
<title>1&#45;&gt;2</title>
<path fill="none" stroke="#000000" d="M317.55,-147.59C329.98,-147.8 342.91,-147.8 355.35,-147.59"/>
<polygon fill="#000000" stroke="#000000" points="317.94,-144.62 309.37,-147.4 317.81,-150.57 317.94,-144.62"/>
<polygon fill="#000000" stroke="#000000" points="355.25,-150.57 363.68,-147.4 355.11,-144.62 355.25,-150.57"/>
</g>
<!-- 3 -->
<g id="node4" class="node">
<title>3</title>
<path fill="#98fb98" stroke="#000000" d="M560.31,-106.5C560.31,-106.5 661.08,-106.5 661.08,-106.5 667.08,-106.5 673.08,-112.5 673.08,-118.5 673.08,-118.5 673.08,-160.5 673.08,-160.5 673.08,-166.5 667.08,-172.5 661.08,-172.5 661.08,-172.5 560.31,-172.5 560.31,-172.5 554.31,-172.5 548.31,-166.5 548.31,-160.5 548.31,-160.5 548.31,-118.5 548.31,-118.5 548.31,-112.5 554.31,-106.5 560.31,-106.5"/>
<text xml:space="preserve" text-anchor="middle" x="610.7" y="-157.3" font-family="Times,serif" font-size="14.00">phys idx = 3</text>
<polyline fill="none" stroke="#000000" points="548.31,-150.5 673.08,-150.5"/>
<text xml:space="preserve" text-anchor="middle" x="610.7" y="-135.3" font-family="Times,serif" font-size="14.00">elem = 30.00</text>
<polyline fill="none" stroke="#000000" points="548.31,-128.5 673.08,-128.5"/>
<text xml:space="preserve" text-anchor="middle" x="579.7" y="-113.3" font-family="Times,serif" font-size="14.00">prev = 2</text>
<polyline fill="none" stroke="#000000" points="611.08,-106.5 611.08,-128.5"/>
<text xml:space="preserve" text-anchor="middle" x="642.08" y="-113.3" font-family="Times,serif" font-size="14.00">next = 9</text>
</g>
<!-- 2&#45;&gt;3 -->
<!-- 2&#45;&gt;3 -->
<g id="edge17" class="edge">
<title>2&#45;&gt;3</title>
<path fill="none" stroke="#000000" d="M500.32,-147.59C512.75,-147.8 525.68,-147.8 538.12,-147.59"/>
<polygon fill="#000000" stroke="#000000" points="500.71,-144.62 492.14,-147.4 500.58,-150.57 500.71,-144.62"/>
<polygon fill="#000000" stroke="#000000" points="538.02,-150.57 546.45,-147.4 537.89,-144.62 538.02,-150.57"/>
</g>
<!-- 4 -->
<g id="node5" class="node">
<title>4</title>
<path fill="#98fb98" stroke="#000000" d="M743.08,-106.5C743.08,-106.5 843.85,-106.5 843.85,-106.5 849.85,-106.5 855.85,-112.5 855.85,-118.5 855.85,-118.5 855.85,-160.5 855.85,-160.5 855.85,-166.5 849.85,-172.5 843.85,-172.5 843.85,-172.5 743.08,-172.5 743.08,-172.5 737.08,-172.5 731.08,-166.5 731.08,-160.5 731.08,-160.5 731.08,-118.5 731.08,-118.5 731.08,-112.5 737.08,-106.5 743.08,-106.5"/>
<text xml:space="preserve" text-anchor="middle" x="793.47" y="-157.3" font-family="Times,serif" font-size="14.00">phys idx = 4</text>
<polyline fill="none" stroke="#000000" points="731.08,-150.5 855.85,-150.5"/>
<text xml:space="preserve" text-anchor="middle" x="793.47" y="-135.3" font-family="Times,serif" font-size="14.00">elem = 40.00</text>
<polyline fill="none" stroke="#000000" points="731.08,-128.5 855.85,-128.5"/>
<text xml:space="preserve" text-anchor="middle" x="762.47" y="-113.3" font-family="Times,serif" font-size="14.00">prev = 8</text>
<polyline fill="none" stroke="#000000" points="793.85,-106.5 793.85,-128.5"/>
<text xml:space="preserve" text-anchor="middle" x="824.85" y="-113.3" font-family="Times,serif" font-size="14.00">next = 5</text>
</g>
<!-- 3&#45;&gt;4 -->
<!-- 9 -->
<g id="node10" class="node">
<title>9</title>
<path fill="#98fb98" stroke="#000000" d="M1661.6,-106.5C1661.6,-106.5 1762.37,-106.5 1762.37,-106.5 1768.37,-106.5 1774.37,-112.5 1774.37,-118.5 1774.37,-118.5 1774.37,-160.5 1774.37,-160.5 1774.37,-166.5 1768.37,-172.5 1762.37,-172.5 1762.37,-172.5 1661.6,-172.5 1661.6,-172.5 1655.6,-172.5 1649.6,-166.5 1649.6,-160.5 1649.6,-160.5 1649.6,-118.5 1649.6,-118.5 1649.6,-112.5 1655.6,-106.5 1661.6,-106.5"/>
<text xml:space="preserve" text-anchor="middle" x="1711.98" y="-157.3" font-family="Times,serif" font-size="14.00">phys idx = 9</text>
<polyline fill="none" stroke="#000000" points="1649.6,-150.5 1774.37,-150.5"/>
<text xml:space="preserve" text-anchor="middle" x="1711.98" y="-135.3" font-family="Times,serif" font-size="14.00">elem = 32.00</text>
<polyline fill="none" stroke="#000000" points="1649.6,-128.5 1774.37,-128.5"/>
<text xml:space="preserve" text-anchor="middle" x="1680.98" y="-113.3" font-family="Times,serif" font-size="14.00">prev = 3</text>
<polyline fill="none" stroke="#000000" points="1712.37,-106.5 1712.37,-128.5"/>
<text xml:space="preserve" text-anchor="middle" x="1743.37" y="-113.3" font-family="Times,serif" font-size="14.00">next = 7</text>
</g>
<!-- 3&#45;&gt;9 -->
<g id="edge18" class="edge">
<title>3&#45;&gt;9</title>
<path fill="none" stroke="#000000" d="M682.6,-110.43C698.36,-104.8 715.13,-99.44 731.08,-95.5 810.63,-75.88 832.27,-79.08 913.85,-71.5 1213.97,-43.63 1298.96,-23.32 1591.6,-95.5 1607.55,-99.44 1624.32,-104.8 1640.07,-110.43"/>
<polygon fill="#000000" stroke="#000000" points="681.85,-107.54 674.88,-113.25 683.89,-113.13 681.85,-107.54"/>
<polygon fill="#000000" stroke="#000000" points="1638.79,-113.13 1647.8,-113.25 1640.83,-107.54 1638.79,-113.13"/>
</g>
<!-- 5 -->
<g id="node6" class="node">
<title>5</title>
<path fill="#98fb98" stroke="#000000" d="M925.85,-106.5C925.85,-106.5 1026.62,-106.5 1026.62,-106.5 1032.62,-106.5 1038.62,-112.5 1038.62,-118.5 1038.62,-118.5 1038.62,-160.5 1038.62,-160.5 1038.62,-166.5 1032.62,-172.5 1026.62,-172.5 1026.62,-172.5 925.85,-172.5 925.85,-172.5 919.85,-172.5 913.85,-166.5 913.85,-160.5 913.85,-160.5 913.85,-118.5 913.85,-118.5 913.85,-112.5 919.85,-106.5 925.85,-106.5"/>
<text xml:space="preserve" text-anchor="middle" x="976.24" y="-157.3" font-family="Times,serif" font-size="14.00">phys idx = 5</text>
<polyline fill="none" stroke="#000000" points="913.85,-150.5 1038.62,-150.5"/>
<text xml:space="preserve" text-anchor="middle" x="976.24" y="-135.3" font-family="Times,serif" font-size="14.00">elem = 50.00</text>
<polyline fill="none" stroke="#000000" points="913.85,-128.5 1038.62,-128.5"/>
<text xml:space="preserve" text-anchor="middle" x="945.24" y="-113.3" font-family="Times,serif" font-size="14.00">prev = 4</text>
<polyline fill="none" stroke="#000000" points="976.62,-106.5 976.62,-128.5"/>
<text xml:space="preserve" text-anchor="middle" x="1007.62" y="-113.3" font-family="Times,serif" font-size="14.00">next = 0</text>
</g>
<!-- 4&#45;&gt;5 -->
<!-- 4&#45;&gt;5 -->
<g id="edge19" class="edge">
<title>4&#45;&gt;5</title>
<path fill="none" stroke="#000000" d="M865.86,-147.59C878.29,-147.8 891.22,-147.8 903.66,-147.59"/>
<polygon fill="#000000" stroke="#000000" points="866.25,-144.62 857.69,-147.4 866.12,-150.57 866.25,-144.62"/>
<polygon fill="#000000" stroke="#000000" points="903.56,-150.57 911.99,-147.4 903.43,-144.62 903.56,-150.57"/>
</g>
<!-- 5&#45;&gt;0 -->
<g id="edge20" class="edge">
<title>5&#45;&gt;0</title>
<path fill="none" stroke="#000000" d="M904.48,-169.7C888.72,-175.43 871.91,-180.79 855.85,-184.5 749.66,-209.05 720.69,-207.5 611.7,-207.5 426.93,-207.5 426.93,-207.5 426.93,-207.5 317.93,-207.5 288.96,-209.05 182.77,-184.5 166.71,-180.79 149.91,-175.43 134.14,-169.7"/>
<polygon fill="#000000" stroke="#000000" points="905.28,-172.58 912.21,-166.82 903.21,-167 905.28,-172.58"/>
<polygon fill="#000000" stroke="#000000" points="135.42,-167 126.41,-166.82 133.34,-172.58 135.42,-167"/>
</g>
<!-- 6 -->
<g id="node7" class="node">
<title>6</title>
<path fill="#82898f" stroke="#000000" d="M1108.62,-106.5C1108.62,-106.5 1214.06,-106.5 1214.06,-106.5 1220.06,-106.5 1226.06,-112.5 1226.06,-118.5 1226.06,-118.5 1226.06,-160.5 1226.06,-160.5 1226.06,-166.5 1220.06,-172.5 1214.06,-172.5 1214.06,-172.5 1108.62,-172.5 1108.62,-172.5 1102.62,-172.5 1096.62,-166.5 1096.62,-160.5 1096.62,-160.5 1096.62,-118.5 1096.62,-118.5 1096.62,-112.5 1102.62,-106.5 1108.62,-106.5"/>
<text xml:space="preserve" text-anchor="middle" x="1161.34" y="-157.3" font-family="Times,serif" font-size="14.00">phys idx = 6</text>
<polyline fill="none" stroke="#000000" points="1096.62,-150.5 1226.06,-150.5"/>
<text xml:space="preserve" text-anchor="middle" x="1161.34" y="-135.3" font-family="Times,serif" font-size="14.00">elem = &#45;6666.00</text>
<polyline fill="none" stroke="#000000" points="1096.62,-128.5 1226.06,-128.5"/>
<text xml:space="preserve" text-anchor="middle" x="1130.34" y="-113.3" font-family="Times,serif" font-size="14.00">prev = &#45;1</text>
<polyline fill="none" stroke="#000000" points="1164.06,-106.5 1164.06,-128.5"/>
<text xml:space="preserve" text-anchor="middle" x="1195.06" y="-113.3" font-family="Times,serif" font-size="14.00">next = 0</text>
</g>
<!-- 5&#45;&gt;6 -->
<!-- 6&#45;&gt;0 -->
<g id="edge21" class="edge">
<title>6&#45;&gt;0</title>
<path fill="none" stroke="#ff8c00" d="M1096.34,-165.81C1077.94,-172.64 1057.69,-179.49 1038.62,-184.5 852.74,-233.39 803.9,-253.5 611.7,-253.5 426.93,-253.5 426.93,-253.5 426.93,-253.5 316.82,-253.5 285.95,-249.93 182.77,-211.5 160.34,-203.15 137.43,-190.51 117.75,-178.14"/>
<polygon fill="#ff8c00" stroke="#ff8c00" points="119.57,-175.76 110.8,-173.68 116.35,-180.77 119.57,-175.76"/>
</g>
<!-- 7 -->
<g id="node8" class="node">
<title>7</title>
<path fill="#98fb98" stroke="#000000" d="M1296.06,-106.5C1296.06,-106.5 1396.83,-106.5 1396.83,-106.5 1402.83,-106.5 1408.83,-112.5 1408.83,-118.5 1408.83,-118.5 1408.83,-160.5 1408.83,-160.5 1408.83,-166.5 1402.83,-172.5 1396.83,-172.5 1396.83,-172.5 1296.06,-172.5 1296.06,-172.5 1290.06,-172.5 1284.06,-166.5 1284.06,-160.5 1284.06,-160.5 1284.06,-118.5 1284.06,-118.5 1284.06,-112.5 1290.06,-106.5 1296.06,-106.5"/>
<text xml:space="preserve" text-anchor="middle" x="1346.44" y="-157.3" font-family="Times,serif" font-size="14.00">phys idx = 7</text>
<polyline fill="none" stroke="#000000" points="1284.06,-150.5 1408.83,-150.5"/>
<text xml:space="preserve" text-anchor="middle" x="1346.44" y="-135.3" font-family="Times,serif" font-size="14.00">elem = 35.00</text>
<polyline fill="none" stroke="#000000" points="1284.06,-128.5 1408.83,-128.5"/>
<text xml:space="preserve" text-anchor="middle" x="1315.44" y="-113.3" font-family="Times,serif" font-size="14.00">prev = 9</text>
<polyline fill="none" stroke="#000000" points="1346.83,-106.5 1346.83,-128.5"/>
<text xml:space="preserve" text-anchor="middle" x="1377.83" y="-113.3" font-family="Times,serif" font-size="14.00">next = 8</text>
</g>
<!-- 6&#45;&gt;7 -->
<!-- 8 -->
<g id="node9" class="node">
<title>8</title>
<path fill="#98fb98" stroke="#000000" d="M1478.83,-106.5C1478.83,-106.5 1579.6,-106.5 1579.6,-106.5 1585.6,-106.5 1591.6,-112.5 1591.6,-118.5 1591.6,-118.5 1591.6,-160.5 1591.6,-160.5 1591.6,-166.5 1585.6,-172.5 1579.6,-172.5 1579.6,-172.5 1478.83,-172.5 1478.83,-172.5 1472.83,-172.5 1466.83,-166.5 1466.83,-160.5 1466.83,-160.5 1466.83,-118.5 1466.83,-118.5 1466.83,-112.5 1472.83,-106.5 1478.83,-106.5"/>
<text xml:space="preserve" text-anchor="middle" x="1529.21" y="-157.3" font-family="Times,serif" font-size="14.00">phys idx = 8</text>
<polyline fill="none" stroke="#000000" points="1466.83,-150.5 1591.6,-150.5"/>
<text xml:space="preserve" text-anchor="middle" x="1529.21" y="-135.3" font-family="Times,serif" font-size="14.00">elem = 36.00</text>
<polyline fill="none" stroke="#000000" points="1466.83,-128.5 1591.6,-128.5"/>
<text xml:space="preserve" text-anchor="middle" x="1498.21" y="-113.3" font-family="Times,serif" font-size="14.00">prev = 7</text>
<polyline fill="none" stroke="#000000" points="1529.6,-106.5 1529.6,-128.5"/>
<text xml:space="preserve" text-anchor="middle" x="1560.6" y="-113.3" font-family="Times,serif" font-size="14.00">next = 4</text>
</g>
<!-- 7&#45;&gt;8 -->
<!-- 7&#45;&gt;8 -->
<g id="edge22" class="edge">
<title>7&#45;&gt;8</title>
<path fill="none" stroke="#000000" d="M1418.83,-147.59C1431.26,-147.8 1444.19,-147.8 1456.63,-147.59"/>
<polygon fill="#000000" stroke="#000000" points="1419.22,-144.62 1410.66,-147.4 1419.09,-150.57 1419.22,-144.62"/>
<polygon fill="#000000" stroke="#000000" points="1456.53,-150.57 1464.96,-147.4 1456.4,-144.62 1456.53,-150.57"/>
</g>
<!-- 8&#45;&gt;4 -->
<g id="edge23" class="edge">
<title>8&#45;&gt;4</title>
<path fill="none" stroke="#000000" d="M1457.37,-108.75C1441.67,-103.26 1424.91,-98.37 1408.83,-95.5 1192.26,-56.86 1130.42,-56.86 913.85,-95.5 897.76,-98.37 881,-103.26 865.31,-108.75"/>
<polygon fill="#000000" stroke="#000000" points="1456.05,-111.44 1465.06,-111.53 1458.08,-105.84 1456.05,-111.44"/>
<polygon fill="#000000" stroke="#000000" points="864.6,-105.84 857.62,-111.53 866.63,-111.44 864.6,-105.84"/>
</g>
<!-- 8&#45;&gt;9 -->
<!-- 9&#45;&gt;7 -->
<g id="edge24" class="edge">
<title>9&#45;&gt;7</title>
<path fill="none" stroke="#000000" d="M1640.19,-170.94C1624.49,-176.56 1607.72,-181.56 1591.6,-184.5 1537.04,-194.44 1521.38,-194.44 1466.83,-184.5 1450.7,-181.56 1433.93,-176.56 1418.23,-170.94"/>
<polygon fill="#000000" stroke="#000000" points="1640.95,-173.84 1647.88,-168.1 1638.88,-168.26 1640.95,-173.84"/>
<polygon fill="#000000" stroke="#000000" points="1419.54,-168.26 1410.54,-168.1 1417.48,-173.84 1419.54,-168.26"/>
</g>
<!-- head_label -->
<g id="node11" class="node">
<title>head_label</title>
<path fill="#20b2aa" stroke="#000000" d="M47.39,-0.5C47.39,-0.5 77.39,-0.5 77.39,-0.5 83.39,-0.5 89.39,-6.5 89.39,-12.5 89.39,-12.5 89.39,-24.5 89.39,-24.5 89.39,-30.5 83.39,-36.5 77.39,-36.5 77.39,-36.5 47.39,-36.5 47.39,-36.5 41.39,-36.5 35.39,-30.5 35.39,-24.5 35.39,-24.5 35.39,-12.5 35.39,-12.5 35.39,-6.5 41.39,-0.5 47.39,-0.5"/>
<text xml:space="preserve" text-anchor="middle" x="62.39" y="-14.9" font-family="Times,serif" font-size="12.00" fill="#000000">HEAD</text>
</g>
<!-- head_label&#45;&gt;1 -->
<g id="edge3" class="edge">
<title>head_label&#45;&gt;1</title>
<path fill="none" stroke="#20b2aa" d="M89.67,-36.09C114.86,-52.95 153.72,-78.97 186.17,-100.69"/>
<polygon fill="#20b2aa" stroke="#20b2aa" points="184.29,-103.01 193.01,-105.27 187.6,-98.07 184.29,-103.01"/>
</g>
<!-- tail_label -->
<g id="node12" class="node">
<title>tail_label</title>
<path fill="#20b2aa" stroke="#000000" d="M230.16,-0.5C230.16,-0.5 260.16,-0.5 260.16,-0.5 266.16,-0.5 272.16,-6.5 272.16,-12.5 272.16,-12.5 272.16,-24.5 272.16,-24.5 272.16,-30.5 266.16,-36.5 260.16,-36.5 260.16,-36.5 230.16,-36.5 230.16,-36.5 224.16,-36.5 218.16,-30.5 218.16,-24.5 218.16,-24.5 218.16,-12.5 218.16,-12.5 218.16,-6.5 224.16,-0.5 230.16,-0.5"/>
<text xml:space="preserve" text-anchor="middle" x="245.16" y="-14.9" font-family="Times,serif" font-size="12.00" fill="#000000">TAIL</text>
</g>
<!-- head_label&#45;&gt;tail_label -->
<!-- tail_label&#45;&gt;5 -->
<g id="edge4" class="edge">
<title>tail_label&#45;&gt;5</title>
<path fill="none" stroke="#20b2aa" d="M272.49,-26.03C296.53,-32.63 333.16,-42.01 365.54,-47.5 581.42,-84.1 642.43,-46.58 855.85,-95.5 871.87,-99.17 888.66,-104.43 904.42,-110.03"/>
<polygon fill="#20b2aa" stroke="#20b2aa" points="903.15,-112.73 912.15,-112.85 905.18,-107.14 903.15,-112.73"/>
</g>
<!-- free_label -->
<g id="node13" class="node">
<title>free_label</title>
<path fill="#20b2aa" stroke="#000000" d="M412.93,-0.5C412.93,-0.5 442.93,-0.5 442.93,-0.5 448.93,-0.5 454.93,-6.5 454.93,-12.5 454.93,-12.5 454.93,-24.5 454.93,-24.5 454.93,-30.5 448.93,-36.5 442.93,-36.5 442.93,-36.5 412.93,-36.5 412.93,-36.5 406.93,-36.5 400.93,-30.5 400.93,-24.5 400.93,-24.5 400.93,-12.5 400.93,-12.5 400.93,-6.5 406.93,-0.5 412.93,-0.5"/>
<text xml:space="preserve" text-anchor="middle" x="427.93" y="-14.9" font-family="Times,serif" font-size="12.00" fill="#000000">FREE</text>
</g>
<!-- tail_label&#45;&gt;free_label -->
<!-- free_label&#45;&gt;6 -->
<g id="edge5" class="edge">
<title>free_label&#45;&gt;6</title>
<path fill="none" stroke="#20b2aa" d="M455.19,-19.55C540.57,-23.43 817.48,-39.79 1038.62,-95.5 1054.56,-99.51 1071.33,-104.83 1087.15,-110.37"/>
<polygon fill="#20b2aa" stroke="#20b2aa" points="1085.91,-113.08 1094.91,-113.14 1087.91,-107.48 1085.91,-113.08"/>
</g>
</g>
</svg>
