<?xml version="1.0" encoding="UTF-8" standalone="no"?>
<!DOCTYPE svg PUBLIC "-//W3C//DTD SVG 1.1//EN"
 "http://www.w3.org/Graphics/SVG/1.1/DTD/svg11.dtd">
<!-- Generated by graphviz version 14.0.2 (20251019.1705)
 -->
<!-- Title: G Pages: 1 -->
<svg width="3747pt" height="431pt"
 viewBox="0.00 0.00 3747.00 431.00" xmlns="http://www.w3.org/2000/svg" xmlns:xlink="http://www.w3.org/1999/xlink">
<g id="graph0" class="graph" transform="scale(1 1) rotate(0) translate(4 426.78)">
<title>G</title>
<polygon fill="#fffafa" stroke="none" points="-4,4 -4,-426.78 3743.18,-426.78 3743.18,4 -4,4"/>
<!-- 0 -->
<g id="node1" class="node">
<title>0</title>
<path fill="#cd5c5c" stroke="#000000" d="M12,-176C12,-176 119.77,-176 119.77,-176 125.77,-176 131.77,-182 131.77,-188 131.77,-188 131.77,-230 131.77,-230 131.77,-236 125.77,-242 119.77,-242 119.77,-242 12,-242 12,-242 6,-242 0,-236 0,-230 0,-230 0,-188 0,-188 0,-182 6,-176 12,-176"/>
<text xml:space="preserve" text-anchor="middle" x="65.89" y="-226.8" font-family="Times,serif" font-size="14.00">phys idx = 0</text>
<polyline fill="none" stroke="#000000" points="0,-220 131.77,-220"/>
<text xml:space="preserve" text-anchor="middle" x="65.89" y="-204.8" font-family="Times,serif" font-size="14.00">elem = &#45;6666.00</text>
<polyline fill="none" stroke="#000000" points="0,-198 131.77,-198"/>
<text xml:space="preserve" text-anchor="middle" x="34.89" y="-182.8" font-family="Times,serif" font-size="14.00">prev = 10</text>
<polyline fill="none" stroke="#000000" points="69.77,-176 69.77,-198"/>
<text xml:space="preserve" text-anchor="middle" x="100.77" y="-182.8" font-family="Times,serif" font-size="14.00">next = 1</text>
</g>
<!-- 1 -->
<g id="node2" class="node">
<title>1</title>
<path fill="#98fb98" stroke="#000000" d="M201.77,-176C201.77,-176 302.54,-176 302.54,-176 308.54,-176 314.54,-182 314.54,-188 314.54,-188 314.54,-230 314.54,-230 314.54,-236 308.54,-242 302.54,-242 302.54,-242 201.77,-242 201.77,-242 195.77,-242 189.77,-236 189.77,-230 189.77,-230 189.77,-188 189.77,-188 189.77,-182 195.77,-176 201.77,-176"/>
<text xml:space="preserve" text-anchor="middle" x="252.16" y="-226.8" font-family="Times,serif" font-size="14.00">phys idx = 1</text>
<polyline fill="none" stroke="#000000" points="189.77,-220 314.54,-220"/>
<text xml:space="preserve" text-anchor="middle" x="252.16" y="-204.8" font-family="Times,serif" font-size="14.00">elem = 11.00</text>
<polyline fill="none" stroke="#000000" points="189.77,-198 314.54,-198"/>
<text xml:space="preserve" text-anchor="middle" x="221.16" y="-182.8" font-family="Times,serif" font-size="14.00">prev = 0</text>
<polyline fill="none" stroke="#000000" points="252.54,-176 252.54,-198"/>
<text xml:space="preserve" text-anchor="middle" x="283.54" y="-182.8" font-family="Times,serif" font-size="14.00">next = 2</text>
</g>
<!-- 0&#45;&gt;1 -->
<!-- 0&#45;&gt;1 -->
<g id="edge25" class="edge">
<title>0&#45;&gt;1</title>
<path fill="none" stroke="#000000" d="M141.85,-217.12C154.32,-217.31 167.23,-217.29 179.61,-217.06"/>
<polygon fill="#000000" stroke="#000000" points="142.18,-214.15 133.62,-216.96 142.06,-220.1 142.18,-214.15"/>
<polygon fill="#000000" stroke="#000000" points="179.47,-220.04 187.9,-216.87 179.33,-214.09 179.47,-220.04"/>
</g>
<!-- 2 -->
<g id="node3" class="node">
<title>2</title>
<path fill="#98fb98" stroke="#000000" d="M384.54,-176C384.54,-176 485.31,-176 485.31,-176 491.31,-176 497.31,-182 497.31,-188 497.31,-188 497.31,-230 497.31,-230 497.31,-236 491.31,-242 485.31,-242 485.31,-242 384.54,-242 384.54,-242 378.54,-242 372.54,-236 372.54,-230 372.54,-230 372.54,-188 372.54,-188 372.54,-182 378.54,-176 384.54,-176"/>
<text xml:space="preserve" text-anchor="middle" x="434.93" y="-226.8" font-family="Times,serif" font-size="14.00">phys idx = 2</text>
<polyline fill="none" stroke="#000000" points="372.54,-220 497.31,-220"/>
<text xml:space="preserve" text-anchor="middle" x="434.93" y="-204.8" font-family="Times,serif" font-size="14.00">elem = 21.00</text>
<polyline fill="none" stroke="#000000" points="372.54,-198 497.31,-198"/>
<text xml:space="preserve" text-anchor="middle" x="403.93" y="-182.8" font-family="Times,serif" font-size="14.00">prev = 1</text>
<polyline fill="none" stroke="#000000" points="435.31,-176 435.31,-198"/>
<text xml:space="preserve" text-anchor="middle" x="466.31" y="-182.8" font-family="Times,serif" font-size="14.00">next = 3</text>
</g>
<!-- 1&#45;&gt;2 -->
<!-- 1&#45;&gt;2 -->
<g id="edge26" class="edge">
<title>1&#45;&gt;2</title>
<path fill="none" stroke="#000000" d="M324.55,-217.09C336.98,-217.3 349.91,-217.3 362.35,-217.09"/>
<polygon fill="#000000" stroke="#000000" points="324.94,-214.12 316.37,-216.9 324.81,-220.07 324.94,-214.12"/>
<polygon fill="#000000" stroke="#000000" points="362.25,-220.07 370.68,-216.9 362.11,-214.12 362.25,-220.07"/>
</g>
<!-- 3 -->
<g id="node4" class="node">
<title>3</title>
<path fill="#98fb98" stroke="#000000" d="M567.31,-176C567.31,-176 668.08,-176 668.08,-176 674.08,-176 680.08,-182 680.08,-188 680.08,-188 680.08,-230 680.08,-230 680.08,-236 674.08,-242 668.08,-242 668.08,-242 567.31,-242 567.31,-242 561.31,-242 555.31,-236 555.31,-230 555.31,-230 555.31,-188 555.31,-188 555.31,-182 561.31,-176 567.31,-176"/>
<text xml:space="preserve" text-anchor="middle" x="617.7" y="-226.8" font-family="Times,serif" font-size="14.00">phys idx = 3</text>
<polyline fill="none" stroke="#000000" points="555.31,-220 680.08,-220"/>
<text xml:space="preserve" text-anchor="middle" x="617.7" y="-204.8" font-family="Times,serif" font-size="14.00">elem = 31.00</text>
<polyline fill="none" stroke="#000000" points="555.31,-198 680.08,-198"/>
<text xml:space="preserve" text-anchor="middle" x="586.7" y="-182.8" font-family="Times,serif" font-size="14.00">prev = 2</text>
<polyline fill="none" stroke="#000000" points="618.08,-176 618.08,-198"/>
<text xml:space="preserve" text-anchor="middle" x="649.08" y="-182.8" font-family="Times,serif" font-size="14.00">next = 9</text>
</g>
<!-- 2&#45;&gt;3 -->
<!-- 2&#45;&gt;3 -->
<g id="edge27" class="edge">
<title>2&#45;&gt;3</title>
<path fill="none" stroke="#000000" d="M507.32,-217.09C519.75,-217.3 532.68,-217.3 545.12,-217.09"/>
<polygon fill="#000000" stroke="#000000" points="507.71,-214.12 499.14,-216.9 507.58,-220.07 507.71,-214.12"/>
<polygon fill="#000000" stroke="#000000" points="545.02,-220.07 553.45,-216.9 544.89,-214.12 545.02,-220.07"/>
</g>
<!-- 4 -->
<g id="node5" class="node">
<title>4</title>
<path fill="#82898f" stroke="#000000" d="M750.08,-176C750.08,-176 862,-176 862,-176 868,-176 874,-182 874,-188 874,-188 874,-230 874,-230 874,-236 868,-242 862,-242 862,-242 750.08,-242 750.08,-242 744.08,-242 738.08,-236 738.08,-230 738.08,-230 738.08,-188 738.08,-188 738.08,-182 744.08,-176 750.08,-176"/>
<text xml:space="preserve" text-anchor="middle" x="806.04" y="-226.8" font-family="Times,serif" font-size="14.00">phys idx = 4</text>
<polyline fill="none" stroke="#000000" points="738.08,-220 874,-220"/>
<text xml:space="preserve" text-anchor="middle" x="806.04" y="-204.8" font-family="Times,serif" font-size="14.00">elem = &#45;6666.00</text>
<polyline fill="none" stroke="#000000" points="738.08,-198 874,-198"/>
<text xml:space="preserve" text-anchor="middle" x="771.8" y="-182.8" font-family="Times,serif" font-size="14.00">prev = &#45;1</text>
<polyline fill="none" stroke="#000000" points="805.52,-176 805.52,-198"/>
<text xml:space="preserve" text-anchor="middle" x="839.76" y="-182.8" font-family="Times,serif" font-size="14.00">next = 11</text>
</g>
<!-- 3&#45;&gt;4 -->
<!-- 9 -->
<g id="node12" class="node">
<title>9</title>
<path fill="#98fb98" stroke="#000000" d="M1700.75,-176C1700.75,-176 1801.52,-176 1801.52,-176 1807.52,-176 1813.52,-182 1813.52,-188 1813.52,-188 1813.52,-230 1813.52,-230 1813.52,-236 1807.52,-242 1801.52,-242 1801.52,-242 1700.75,-242 1700.75,-242 1694.75,-242 1688.75,-236 1688.75,-230 1688.75,-230 1688.75,-188 1688.75,-188 1688.75,-182 1694.75,-176 1700.75,-176"/>
<text xml:space="preserve" text-anchor="middle" x="1751.13" y="-226.8" font-family="Times,serif" font-size="14.00">phys idx = 9</text>
<polyline fill="none" stroke="#000000" points="1688.75,-220 1813.52,-220"/>
<text xml:space="preserve" text-anchor="middle" x="1751.13" y="-204.8" font-family="Times,serif" font-size="14.00">elem = 32.00</text>
<polyline fill="none" stroke="#000000" points="1688.75,-198 1813.52,-198"/>
<text xml:space="preserve" text-anchor="middle" x="1720.13" y="-182.8" font-family="Times,serif" font-size="14.00">prev = 3</text>
<polyline fill="none" stroke="#000000" points="1751.52,-176 1751.52,-198"/>
<text xml:space="preserve" text-anchor="middle" x="1782.52" y="-182.8" font-family="Times,serif" font-size="14.00">next = 8</text>
</g>
<!-- 3&#45;&gt;9 -->
<g id="edge28" class="edge">
<title>3&#45;&gt;9</title>
<path fill="none" stroke="#000000" d="M689.57,-238.73C705.33,-244.49 722.1,-249.97 738.08,-254 822.4,-275.25 845.24,-274.21 932,-280 1242.08,-300.69 1327.15,-320.39 1630.75,-254 1646.75,-250.5 1663.48,-245.26 1679.17,-239.59"/>
<polygon fill="#000000" stroke="#000000" points="690.84,-236.03 681.84,-235.84 688.76,-241.6 690.84,-236.03"/>
<polygon fill="#000000" stroke="#000000" points="1679.93,-242.48 1686.86,-236.73 1677.86,-236.9 1679.93,-242.48"/>
</g>
<!-- 5 -->
<g id="node8" class="node">
<title>5</title>
<path fill="#98fb98" stroke="#000000" d="M944,-176C944,-176 1058.77,-176 1058.77,-176 1064.77,-176 1070.77,-182 1070.77,-188 1070.77,-188 1070.77,-230 1070.77,-230 1070.77,-236 1064.77,-242 1058.77,-242 1058.77,-242 944,-242 944,-242 938,-242 932,-236 932,-230 932,-230 932,-188 932,-188 932,-182 938,-176 944,-176"/>
<text xml:space="preserve" text-anchor="middle" x="1001.39" y="-226.8" font-family="Times,serif" font-size="14.00">phys idx = 5</text>
<polyline fill="none" stroke="#000000" points="932,-220 1070.77,-220"/>
<text xml:space="preserve" text-anchor="middle" x="1001.39" y="-204.8" font-family="Times,serif" font-size="14.00">elem = 51.00</text>
<polyline fill="none" stroke="#000000" points="932,-198 1070.77,-198"/>
<text xml:space="preserve" text-anchor="middle" x="966.89" y="-182.8" font-family="Times,serif" font-size="14.00">prev = 75</text>
<polyline fill="none" stroke="#000000" points="1001.77,-176 1001.77,-198"/>
<text xml:space="preserve" text-anchor="middle" x="1036.27" y="-182.8" font-family="Times,serif" font-size="14.00">next = 57</text>
</g>
<!-- 4&#45;&gt;5 -->
<!-- 11 -->
<g id="node14" class="node">
<title>11</title>
<path fill="#82898f" stroke="#000000" d="M2066.29,-176C2066.29,-176 2178.72,-176 2178.72,-176 2184.72,-176 2190.72,-182 2190.72,-188 2190.72,-188 2190.72,-230 2190.72,-230 2190.72,-236 2184.72,-242 2178.72,-242 2178.72,-242 2066.29,-242 2066.29,-242 2060.29,-242 2054.29,-236 2054.29,-230 2054.29,-230 2054.29,-188 2054.29,-188 2054.29,-182 2060.29,-176 2066.29,-176"/>
<text xml:space="preserve" text-anchor="middle" x="2122.5" y="-226.8" font-family="Times,serif" font-size="14.00">phys idx = 11</text>
<polyline fill="none" stroke="#000000" points="2054.29,-220 2190.72,-220"/>
<text xml:space="preserve" text-anchor="middle" x="2122.5" y="-204.8" font-family="Times,serif" font-size="14.00">elem = &#45;6666.00</text>
<polyline fill="none" stroke="#000000" points="2054.29,-198 2190.72,-198"/>
<text xml:space="preserve" text-anchor="middle" x="2088" y="-182.8" font-family="Times,serif" font-size="14.00">prev = &#45;1</text>
<polyline fill="none" stroke="#000000" points="2121.72,-176 2121.72,-198"/>
<text xml:space="preserve" text-anchor="middle" x="2156.22" y="-182.8" font-family="Times,serif" font-size="14.00">next = 12</text>
</g>
<!-- 4&#45;&gt;11 -->
<g id="edge29" class="edge">
<title>4&#45;&gt;11</title>
<path fill="none" stroke="#ff8c00" d="M852.61,-242.4C875.27,-256.99 903.8,-272.47 932,-280 1389.14,-402.08 1533.73,-353.6 1996.29,-254 2012.24,-250.57 2028.92,-245.6 2044.72,-240.21"/>
<polygon fill="#ff8c00" stroke="#ff8c00" points="2045.43,-243.11 2052.47,-237.5 2043.47,-237.5 2045.43,-243.11"/>
</g>
<!-- 75 -->
<g id="node6" class="node">
<title>75</title>
<polygon fill="#bb0d12" stroke="#000000" stroke-width="2" points="92.89,-68.54 92.89,-83.46 77.07,-94 54.7,-94 38.89,-83.46 38.89,-68.54 54.7,-58 77.07,-58 92.89,-68.54"/>
<text xml:space="preserve" text-anchor="middle" x="65.89" y="-71.8" font-family="Times,serif" font-size="14.00">75</text>
</g>
<!-- 75&#45;&gt;5 -->
<g id="edge30" class="edge">
<title>75&#45;&gt;5</title>
<path fill="none" stroke="#ff4f00" stroke-width="2" d="M93.68,-82.46C106.94,-86.97 122.13,-94.33 131.77,-106 200,-188.61 108.91,-269.7 189.77,-340 218.56,-365.03 840.34,-414.93 874,-397 930.28,-367.02 965.97,-299.61 984.57,-254.2"/>
<polygon fill="#ff4f00" stroke="#ff4f00" stroke-width="2" points="987.74,-255.71 988.15,-245.13 981.22,-253.14 987.74,-255.71"/>
</g>
<!-- 57 -->
<g id="node7" class="node">
<title>57</title>
<polygon fill="#bb0d12" stroke="#000000" stroke-width="2" points="92.89,-10.54 92.89,-25.46 77.07,-36 54.7,-36 38.89,-25.46 38.89,-10.54 54.7,0 77.07,0 92.89,-10.54"/>
<text xml:space="preserve" text-anchor="middle" x="65.89" y="-13.8" font-family="Times,serif" font-size="14.00">57</text>
</g>
<!-- 5&#45;&gt;57 -->
<g id="edge31" class="edge">
<title>5&#45;&gt;57</title>
<path fill="none" stroke="#0000ff" stroke-width="2" d="M931.53,-239.67C780.04,-301.97 413.55,-423.69 189.77,-254 113.64,-196.27 194.18,-119.34 131.77,-47 124.91,-39.05 115.45,-33.18 105.86,-28.89"/>
<polygon fill="#0000ff" stroke="#0000ff" stroke-width="2" points="107.26,-25.68 96.67,-25.35 104.75,-32.21 107.26,-25.68"/>
</g>
<!-- 6 -->
<g id="node9" class="node">
<title>6</title>
<path fill="#98fb98" stroke="#000000" d="M1140.77,-176C1140.77,-176 1248.54,-176 1248.54,-176 1254.54,-176 1260.54,-182 1260.54,-188 1260.54,-188 1260.54,-230 1260.54,-230 1260.54,-236 1254.54,-242 1248.54,-242 1248.54,-242 1140.77,-242 1140.77,-242 1134.77,-242 1128.77,-236 1128.77,-230 1128.77,-230 1128.77,-188 1128.77,-188 1128.77,-182 1134.77,-176 1140.77,-176"/>
<text xml:space="preserve" text-anchor="middle" x="1194.66" y="-226.8" font-family="Times,serif" font-size="14.00">phys idx = 6</text>
<polyline fill="none" stroke="#000000" points="1128.77,-220 1260.54,-220"/>
<text xml:space="preserve" text-anchor="middle" x="1194.66" y="-204.8" font-family="Times,serif" font-size="14.00">elem = 66.00</text>
<polyline fill="none" stroke="#000000" points="1128.77,-198 1260.54,-198"/>
<text xml:space="preserve" text-anchor="middle" x="1160.16" y="-182.8" font-family="Times,serif" font-size="14.00">prev = 5</text>
<polyline fill="none" stroke="#000000" points="1191.54,-176 1191.54,-198"/>
<text xml:space="preserve" text-anchor="middle" x="1226.04" y="-182.8" font-family="Times,serif" font-size="14.00">next = 10</text>
</g>
<!-- 5&#45;&gt;6 -->
<!-- 5&#45;&gt;6 -->
<g id="edge32" class="edge">
<title>5&#45;&gt;6</title>
<path fill="none" stroke="#ff4f00" stroke-width="2" d="M1084.03,-217.17C1098.83,-217.34 1114.1,-217.24 1128.36,-216.87"/>
<polygon fill="#ff4f00" stroke="#ff4f00" stroke-width="2" points="1084.25,-213.67 1074.2,-217.01 1084.14,-220.67 1084.25,-213.67"/>
</g>
<!-- 7 -->
<g id="node10" class="node">
<title>7</title>
<path fill="#82898f" stroke="#000000" d="M1330.54,-176C1330.54,-176 1435.98,-176 1435.98,-176 1441.98,-176 1447.98,-182 1447.98,-188 1447.98,-188 1447.98,-230 1447.98,-230 1447.98,-236 1441.98,-242 1435.98,-242 1435.98,-242 1330.54,-242 1330.54,-242 1324.54,-242 1318.54,-236 1318.54,-230 1318.54,-230 1318.54,-188 1318.54,-188 1318.54,-182 1324.54,-176 1330.54,-176"/>
<text xml:space="preserve" text-anchor="middle" x="1383.26" y="-226.8" font-family="Times,serif" font-size="14.00">phys idx = 7</text>
<polyline fill="none" stroke="#000000" points="1318.54,-220 1447.98,-220"/>
<text xml:space="preserve" text-anchor="middle" x="1383.26" y="-204.8" font-family="Times,serif" font-size="14.00">elem = &#45;6666.00</text>
<polyline fill="none" stroke="#000000" points="1318.54,-198 1447.98,-198"/>
<text xml:space="preserve" text-anchor="middle" x="1352.26" y="-182.8" font-family="Times,serif" font-size="14.00">prev = &#45;1</text>
<polyline fill="none" stroke="#000000" points="1385.98,-176 1385.98,-198"/>
<text xml:space="preserve" text-anchor="middle" x="1416.98" y="-182.8" font-family="Times,serif" font-size="14.00">next = 4</text>
</g>
<!-- 6&#45;&gt;7 -->
<!-- 7&#45;&gt;4 -->
<g id="edge33" class="edge">
<title>7&#45;&gt;4</title>
<path fill="none" stroke="#ff8c00" d="M1318.07,-237.54C1299.84,-244.32 1279.73,-250.57 1260.54,-254 1116.81,-279.72 1075.84,-279.11 932,-254 915.96,-251.2 899.25,-246.52 883.47,-241.21"/>
<polygon fill="#ff8c00" stroke="#ff8c00" points="884.74,-238.5 875.73,-238.51 882.78,-244.12 884.74,-238.5"/>
</g>
<!-- 8 -->
<g id="node11" class="node">
<title>8</title>
<path fill="#98fb98" stroke="#000000" d="M1517.98,-176C1517.98,-176 1618.75,-176 1618.75,-176 1624.75,-176 1630.75,-182 1630.75,-188 1630.75,-188 1630.75,-230 1630.75,-230 1630.75,-236 1624.75,-242 1618.75,-242 1618.75,-242 1517.98,-242 1517.98,-242 1511.98,-242 1505.98,-236 1505.98,-230 1505.98,-230 1505.98,-188 1505.98,-188 1505.98,-182 1511.98,-176 1517.98,-176"/>
<text xml:space="preserve" text-anchor="middle" x="1568.36" y="-226.8" font-family="Times,serif" font-size="14.00">phys idx = 8</text>
<polyline fill="none" stroke="#000000" points="1505.98,-220 1630.75,-220"/>
<text xml:space="preserve" text-anchor="middle" x="1568.36" y="-204.8" font-family="Times,serif" font-size="14.00">elem = 36.00</text>
<polyline fill="none" stroke="#000000" points="1505.98,-198 1630.75,-198"/>
<text xml:space="preserve" text-anchor="middle" x="1537.36" y="-182.8" font-family="Times,serif" font-size="14.00">prev = 9</text>
<polyline fill="none" stroke="#000000" points="1568.75,-176 1568.75,-198"/>
<text xml:space="preserve" text-anchor="middle" x="1599.75" y="-182.8" font-family="Times,serif" font-size="14.00">next = 5</text>
</g>
<!-- 7&#45;&gt;8 -->
<!-- 8&#45;&gt;5 -->
<g id="edge34" class="edge">
<title>8&#45;&gt;5</title>
<path fill="none" stroke="#0000ff" stroke-width="2" d="M1505.68,-237.07C1487.48,-244.02 1467.26,-250.49 1447.98,-254 1308.41,-279.43 1268.57,-278.15 1128.77,-254 1113.8,-251.41 1098.25,-247.22 1083.39,-242.42"/>
<polygon fill="#0000ff" stroke="#0000ff" stroke-width="2" points="1084.56,-239.12 1073.97,-239.22 1082.32,-245.75 1084.56,-239.12"/>
</g>
<!-- 8&#45;&gt;9 -->
<!-- 9&#45;&gt;8 -->
<g id="edge35" class="edge">
<title>9&#45;&gt;8</title>
<path fill="none" stroke="#000000" d="M1678.55,-217.09C1666.11,-217.3 1653.18,-217.3 1640.75,-217.09"/>
<polygon fill="#000000" stroke="#000000" points="1678.45,-220.07 1686.88,-216.9 1678.32,-214.12 1678.45,-220.07"/>
<polygon fill="#000000" stroke="#000000" points="1641.14,-214.12 1632.58,-216.9 1641.01,-220.07 1641.14,-214.12"/>
</g>
<!-- 10 -->
<g id="node13" class="node">
<title>10</title>
<path fill="#98fb98" stroke="#000000" d="M1883.52,-176C1883.52,-176 1984.29,-176 1984.29,-176 1990.29,-176 1996.29,-182 1996.29,-188 1996.29,-188 1996.29,-230 1996.29,-230 1996.29,-236 1990.29,-242 1984.29,-242 1984.29,-242 1883.52,-242 1883.52,-242 1877.52,-242 1871.52,-236 1871.52,-230 1871.52,-230 1871.52,-188 1871.52,-188 1871.52,-182 1877.52,-176 1883.52,-176"/>
<text xml:space="preserve" text-anchor="middle" x="1933.9" y="-226.8" font-family="Times,serif" font-size="14.00">phys idx = 10</text>
<polyline fill="none" stroke="#000000" points="1871.52,-220 1996.29,-220"/>
<text xml:space="preserve" text-anchor="middle" x="1933.9" y="-204.8" font-family="Times,serif" font-size="14.00">elem = 70.00</text>
<polyline fill="none" stroke="#000000" points="1871.52,-198 1996.29,-198"/>
<text xml:space="preserve" text-anchor="middle" x="1902.9" y="-182.8" font-family="Times,serif" font-size="14.00">prev = 6</text>
<polyline fill="none" stroke="#000000" points="1934.29,-176 1934.29,-198"/>
<text xml:space="preserve" text-anchor="middle" x="1965.29" y="-182.8" font-family="Times,serif" font-size="14.00">next = 0</text>
</g>
<!-- 9&#45;&gt;10 -->
<!-- 10&#45;&gt;0 -->
<g id="edge36" class="edge">
<title>10&#45;&gt;0</title>
<path fill="none" stroke="#000000" d="M1862.36,-240.37C1769.55,-279.71 1600.34,-344.79 1447.98,-368 892.88,-452.55 736.73,-380.93 189.77,-254 173.77,-250.29 157,-245.08 141.18,-239.52"/>
<polygon fill="#000000" stroke="#000000" points="1863.32,-243.19 1869.98,-237.13 1860.99,-237.72 1863.32,-243.19"/>
<polygon fill="#000000" stroke="#000000" points="142.41,-236.8 133.41,-236.73 140.4,-242.4 142.41,-236.8"/>
</g>
<!-- 10&#45;&gt;11 -->
<!-- 12 -->
<g id="node15" class="node">
<title>12</title>
<path fill="#82898f" stroke="#000000" d="M2260.72,-176C2260.72,-176 2373.15,-176 2373.15,-176 2379.15,-176 2385.15,-182 2385.15,-188 2385.15,-188 2385.15,-230 2385.15,-230 2385.15,-236 2379.15,-242 2373.15,-242 2373.15,-242 2260.72,-242 2260.72,-242 2254.72,-242 2248.72,-236 2248.72,-230 2248.72,-230 2248.72,-188 2248.72,-188 2248.72,-182 2254.72,-176 2260.72,-176"/>
<text xml:space="preserve" text-anchor="middle" x="2316.94" y="-226.8" font-family="Times,serif" font-size="14.00">phys idx = 12</text>
<polyline fill="none" stroke="#000000" points="2248.72,-220 2385.15,-220"/>
<text xml:space="preserve" text-anchor="middle" x="2316.94" y="-204.8" font-family="Times,serif" font-size="14.00">elem = &#45;6666.00</text>
<polyline fill="none" stroke="#000000" points="2248.72,-198 2385.15,-198"/>
<text xml:space="preserve" text-anchor="middle" x="2282.44" y="-182.8" font-family="Times,serif" font-size="14.00">prev = &#45;1</text>
<polyline fill="none" stroke="#000000" points="2316.15,-176 2316.15,-198"/>
<text xml:space="preserve" text-anchor="middle" x="2350.65" y="-182.8" font-family="Times,serif" font-size="14.00">next = 13</text>
</g>
<!-- 11&#45;&gt;12 -->
<!-- 11&#45;&gt;12 -->
<g id="edge37" class="edge">
<title>11&#45;&gt;12</title>
<path fill="none" stroke="#ff8c00" d="M2191.08,-216.92C2206.5,-217.29 2223.01,-217.35 2238.8,-217.1"/>
<polygon fill="#ff8c00" stroke="#ff8c00" points="2238.57,-220.08 2247.01,-216.94 2238.45,-214.14 2238.57,-220.08"/>
</g>
<!-- 13 -->
<g id="node16" class="node">
<title>13</title>
<path fill="#82898f" stroke="#000000" d="M2455.15,-176C2455.15,-176 2567.58,-176 2567.58,-176 2573.58,-176 2579.58,-182 2579.58,-188 2579.58,-188 2579.58,-230 2579.58,-230 2579.58,-236 2573.58,-242 2567.58,-242 2567.58,-242 2455.15,-242 2455.15,-242 2449.15,-242 2443.15,-236 2443.15,-230 2443.15,-230 2443.15,-188 2443.15,-188 2443.15,-182 2449.15,-176 2455.15,-176"/>
<text xml:space="preserve" text-anchor="middle" x="2511.37" y="-226.8" font-family="Times,serif" font-size="14.00">phys idx = 13</text>
<polyline fill="none" stroke="#000000" points="2443.15,-220 2579.58,-220"/>
<text xml:space="preserve" text-anchor="middle" x="2511.37" y="-204.8" font-family="Times,serif" font-size="14.00">elem = &#45;6666.00</text>
<polyline fill="none" stroke="#000000" points="2443.15,-198 2579.58,-198"/>
<text xml:space="preserve" text-anchor="middle" x="2476.87" y="-182.8" font-family="Times,serif" font-size="14.00">prev = &#45;1</text>
<polyline fill="none" stroke="#000000" points="2510.59,-176 2510.59,-198"/>
<text xml:space="preserve" text-anchor="middle" x="2545.09" y="-182.8" font-family="Times,serif" font-size="14.00">next = 14</text>
</g>
<!-- 12&#45;&gt;13 -->
<!-- 12&#45;&gt;13 -->
<g id="edge38" class="edge">
<title>12&#45;&gt;13</title>
<path fill="none" stroke="#ff8c00" d="M2385.51,-216.92C2400.94,-217.29 2417.44,-217.35 2433.23,-217.1"/>
<polygon fill="#ff8c00" stroke="#ff8c00" points="2433,-220.08 2441.44,-216.94 2432.89,-214.14 2433,-220.08"/>
</g>
<!-- 14 -->
<g id="node17" class="node">
<title>14</title>
<path fill="#82898f" stroke="#000000" d="M2649.58,-176C2649.58,-176 2762.02,-176 2762.02,-176 2768.02,-176 2774.02,-182 2774.02,-188 2774.02,-188 2774.02,-230 2774.02,-230 2774.02,-236 2768.02,-242 2762.02,-242 2762.02,-242 2649.58,-242 2649.58,-242 2643.58,-242 2637.58,-236 2637.58,-230 2637.58,-230 2637.58,-188 2637.58,-188 2637.58,-182 2643.58,-176 2649.58,-176"/>
<text xml:space="preserve" text-anchor="middle" x="2705.8" y="-226.8" font-family="Times,serif" font-size="14.00">phys idx = 14</text>
<polyline fill="none" stroke="#000000" points="2637.58,-220 2774.02,-220"/>
<text xml:space="preserve" text-anchor="middle" x="2705.8" y="-204.8" font-family="Times,serif" font-size="14.00">elem = &#45;6666.00</text>
<polyline fill="none" stroke="#000000" points="2637.58,-198 2774.02,-198"/>
<text xml:space="preserve" text-anchor="middle" x="2671.3" y="-182.8" font-family="Times,serif" font-size="14.00">prev = &#45;1</text>
<polyline fill="none" stroke="#000000" points="2705.02,-176 2705.02,-198"/>
<text xml:space="preserve" text-anchor="middle" x="2739.52" y="-182.8" font-family="Times,serif" font-size="14.00">next = 15</text>
</g>
<!-- 13&#45;&gt;14 -->
<!-- 13&#45;&gt;14 -->
<g id="edge39" class="edge">
<title>13&#45;&gt;14</title>
<path fill="none" stroke="#ff8c00" d="M2579.94,-216.92C2595.37,-217.29 2611.87,-217.35 2627.67,-217.1"/>
<polygon fill="#ff8c00" stroke="#ff8c00" points="2627.44,-220.08 2635.88,-216.94 2627.32,-214.14 2627.44,-220.08"/>
</g>
<!-- 15 -->
<g id="node18" class="node">
<title>15</title>
<path fill="#82898f" stroke="#000000" d="M2844.02,-176C2844.02,-176 2956.45,-176 2956.45,-176 2962.45,-176 2968.45,-182 2968.45,-188 2968.45,-188 2968.45,-230 2968.45,-230 2968.45,-236 2962.45,-242 2956.45,-242 2956.45,-242 2844.02,-242 2844.02,-242 2838.02,-242 2832.02,-236 2832.02,-230 2832.02,-230 2832.02,-188 2832.02,-188 2832.02,-182 2838.02,-176 2844.02,-176"/>
<text xml:space="preserve" text-anchor="middle" x="2900.23" y="-226.8" font-family="Times,serif" font-size="14.00">phys idx = 15</text>
<polyline fill="none" stroke="#000000" points="2832.02,-220 2968.45,-220"/>
<text xml:space="preserve" text-anchor="middle" x="2900.23" y="-204.8" font-family="Times,serif" font-size="14.00">elem = &#45;6666.00</text>
<polyline fill="none" stroke="#000000" points="2832.02,-198 2968.45,-198"/>
<text xml:space="preserve" text-anchor="middle" x="2865.73" y="-182.8" font-family="Times,serif" font-size="14.00">prev = &#45;1</text>
<polyline fill="none" stroke="#000000" points="2899.45,-176 2899.45,-198"/>
<text xml:space="preserve" text-anchor="middle" x="2933.95" y="-182.8" font-family="Times,serif" font-size="14.00">next = 16</text>
</g>
<!-- 14&#45;&gt;15 -->
<!-- 14&#45;&gt;15 -->
<g id="edge40" class="edge">
<title>14&#45;&gt;15</title>
<path fill="none" stroke="#ff8c00" d="M2774.38,-216.92C2789.8,-217.29 2806.31,-217.35 2822.1,-217.1"/>
<polygon fill="#ff8c00" stroke="#ff8c00" points="2821.87,-220.08 2830.31,-216.94 2821.75,-214.14 2821.87,-220.08"/>
</g>
<!-- 16 -->
<g id="node19" class="node">
<title>16</title>
<path fill="#82898f" stroke="#000000" d="M3038.45,-176C3038.45,-176 3150.88,-176 3150.88,-176 3156.88,-176 3162.88,-182 3162.88,-188 3162.88,-188 3162.88,-230 3162.88,-230 3162.88,-236 3156.88,-242 3150.88,-242 3150.88,-242 3038.45,-242 3038.45,-242 3032.45,-242 3026.45,-236 3026.45,-230 3026.45,-230 3026.45,-188 3026.45,-188 3026.45,-182 3032.45,-176 3038.45,-176"/>
<text xml:space="preserve" text-anchor="middle" x="3094.67" y="-226.8" font-family="Times,serif" font-size="14.00">phys idx = 16</text>
<polyline fill="none" stroke="#000000" points="3026.45,-220 3162.88,-220"/>
<text xml:space="preserve" text-anchor="middle" x="3094.67" y="-204.8" font-family="Times,serif" font-size="14.00">elem = &#45;6666.00</text>
<polyline fill="none" stroke="#000000" points="3026.45,-198 3162.88,-198"/>
<text xml:space="preserve" text-anchor="middle" x="3060.17" y="-182.8" font-family="Times,serif" font-size="14.00">prev = &#45;1</text>
<polyline fill="none" stroke="#000000" points="3093.88,-176 3093.88,-198"/>
<text xml:space="preserve" text-anchor="middle" x="3128.38" y="-182.8" font-family="Times,serif" font-size="14.00">next = 17</text>
</g>
<!-- 15&#45;&gt;16 -->
<!-- 15&#45;&gt;16 -->
<g id="edge41" class="edge">
<title>15&#45;&gt;16</title>
<path fill="none" stroke="#ff8c00" d="M2968.81,-216.92C2984.23,-217.29 3000.74,-217.35 3016.53,-217.1"/>
<polygon fill="#ff8c00" stroke="#ff8c00" points="3016.3,-220.08 3024.74,-216.94 3016.18,-214.14 3016.3,-220.08"/>
</g>
<!-- 17 -->
<g id="node20" class="node">
<title>17</title>
<path fill="#82898f" stroke="#000000" d="M3232.88,-176C3232.88,-176 3345.32,-176 3345.32,-176 3351.32,-176 3357.32,-182 3357.32,-188 3357.32,-188 3357.32,-230 3357.32,-230 3357.32,-236 3351.32,-242 3345.32,-242 3345.32,-242 3232.88,-242 3232.88,-242 3226.88,-242 3220.88,-236 3220.88,-230 3220.88,-230 3220.88,-188 3220.88,-188 3220.88,-182 3226.88,-176 3232.88,-176"/>
<text xml:space="preserve" text-anchor="middle" x="3289.1" y="-226.8" font-family="Times,serif" font-size="14.00">phys idx = 17</text>
<polyline fill="none" stroke="#000000" points="3220.88,-220 3357.32,-220"/>
<text xml:space="preserve" text-anchor="middle" x="3289.1" y="-204.8" font-family="Times,serif" font-size="14.00">elem = &#45;6666.00</text>
<polyline fill="none" stroke="#000000" points="3220.88,-198 3357.32,-198"/>
<text xml:space="preserve" text-anchor="middle" x="3254.6" y="-182.8" font-family="Times,serif" font-size="14.00">prev = &#45;1</text>
<polyline fill="none" stroke="#000000" points="3288.32,-176 3288.32,-198"/>
<text xml:space="preserve" text-anchor="middle" x="3322.82" y="-182.8" font-family="Times,serif" font-size="14.00">next = 18</text>
</g>
<!-- 16&#45;&gt;17 -->
<!-- 16&#45;&gt;17 -->
<g id="edge42" class="edge">
<title>16&#45;&gt;17</title>
<path fill="none" stroke="#ff8c00" d="M3163.24,-216.92C3178.67,-217.29 3195.17,-217.35 3210.96,-217.1"/>
<polygon fill="#ff8c00" stroke="#ff8c00" points="3210.73,-220.08 3219.17,-216.94 3210.62,-214.14 3210.73,-220.08"/>
</g>
<!-- 18 -->
<g id="node21" class="node">
<title>18</title>
<path fill="#82898f" stroke="#000000" d="M3427.32,-176C3427.32,-176 3539.75,-176 3539.75,-176 3545.75,-176 3551.75,-182 3551.75,-188 3551.75,-188 3551.75,-230 3551.75,-230 3551.75,-236 3545.75,-242 3539.75,-242 3539.75,-242 3427.32,-242 3427.32,-242 3421.32,-242 3415.32,-236 3415.32,-230 3415.32,-230 3415.32,-188 3415.32,-188 3415.32,-182 3421.32,-176 3427.32,-176"/>
<text xml:space="preserve" text-anchor="middle" x="3483.53" y="-226.8" font-family="Times,serif" font-size="14.00">phys idx = 18</text>
<polyline fill="none" stroke="#000000" points="3415.32,-220 3551.75,-220"/>
<text xml:space="preserve" text-anchor="middle" x="3483.53" y="-204.8" font-family="Times,serif" font-size="14.00">elem = &#45;6666.00</text>
<polyline fill="none" stroke="#000000" points="3415.32,-198 3551.75,-198"/>
<text xml:space="preserve" text-anchor="middle" x="3449.03" y="-182.8" font-family="Times,serif" font-size="14.00">prev = &#45;1</text>
<polyline fill="none" stroke="#000000" points="3482.75,-176 3482.75,-198"/>
<text xml:space="preserve" text-anchor="middle" x="3517.25" y="-182.8" font-family="Times,serif" font-size="14.00">next = 19</text>
</g>
<!-- 17&#45;&gt;18 -->
<!-- 17&#45;&gt;18 -->
<g id="edge43" class="edge">
<title>17&#45;&gt;18</title>
<path fill="none" stroke="#ff8c00" d="M3357.67,-216.92C3373.1,-217.29 3389.6,-217.35 3405.4,-217.1"/>
<polygon fill="#ff8c00" stroke="#ff8c00" points="3405.17,-220.08 3413.61,-216.94 3405.05,-214.14 3405.17,-220.08"/>
</g>
<!-- 19 -->
<g id="node22" class="node">
<title>19</title>
<path fill="#82898f" stroke="#000000" d="M3621.75,-176C3621.75,-176 3727.18,-176 3727.18,-176 3733.18,-176 3739.18,-182 3739.18,-188 3739.18,-188 3739.18,-230 3739.18,-230 3739.18,-236 3733.18,-242 3727.18,-242 3727.18,-242 3621.75,-242 3621.75,-242 3615.75,-242 3609.75,-236 3609.75,-230 3609.75,-230 3609.75,-188 3609.75,-188 3609.75,-182 3615.75,-176 3621.75,-176"/>
<text xml:space="preserve" text-anchor="middle" x="3674.46" y="-226.8" font-family="Times,serif" font-size="14.00">phys idx = 19</text>
<polyline fill="none" stroke="#000000" points="3609.75,-220 3739.18,-220"/>
<text xml:space="preserve" text-anchor="middle" x="3674.46" y="-204.8" font-family="Times,serif" font-size="14.00">elem = &#45;6666.00</text>
<polyline fill="none" stroke="#000000" points="3609.75,-198 3739.18,-198"/>
<text xml:space="preserve" text-anchor="middle" x="3643.46" y="-182.8" font-family="Times,serif" font-size="14.00">prev = &#45;1</text>
<polyline fill="none" stroke="#000000" points="3677.18,-176 3677.18,-198"/>
<text xml:space="preserve" text-anchor="middle" x="3708.18" y="-182.8" font-family="Times,serif" font-size="14.00">next = 0</text>
</g>
<!-- 18&#45;&gt;19 -->
<!-- 18&#45;&gt;19 -->
<g id="edge44" class="edge">
<title>18&#45;&gt;19</title>
<path fill="none" stroke="#ff8c00" d="M3552.21,-216.95C3567.64,-217.3 3584.11,-217.35 3599.78,-217.07"/>
<polygon fill="#ff8c00" stroke="#ff8c00" points="3599.47,-220.05 3607.9,-216.89 3599.34,-214.1 3599.47,-220.05"/>
</g>
<!-- 19&#45;&gt;0 -->
<g id="edge45" class="edge">
<title>19&#45;&gt;0</title>
<path fill="none" stroke="#ff8c00" d="M3609.37,-236.33C3591.06,-243.13 3570.87,-249.71 3551.75,-254 3437.85,-279.58 3406.84,-277 3290.1,-277 2315.94,-277 2315.94,-277 2315.94,-277 1842.94,-277 1732.42,-381.41 1260.54,-414 1114.85,-424.06 1078,-423.52 932,-420 683.14,-414 620.43,-415.89 372.54,-393 290.9,-385.46 260.74,-409.05 189.77,-368 142.94,-340.91 107.75,-288.3 87.29,-251.03"/>
<polygon fill="#ff8c00" stroke="#ff8c00" points="90.01,-249.8 83.37,-243.71 84.76,-252.61 90.01,-249.8"/>
</g>
<!-- head_label -->
<g id="node23" class="node">
<title>head_label</title>
<path fill="#20b2aa" stroke="#000000" d="M50.89,-117C50.89,-117 80.89,-117 80.89,-117 86.89,-117 92.89,-123 92.89,-129 92.89,-129 92.89,-141 92.89,-141 92.89,-147 86.89,-153 80.89,-153 80.89,-153 50.89,-153 50.89,-153 44.89,-153 38.89,-147 38.89,-141 38.89,-141 38.89,-129 38.89,-129 38.89,-123 44.89,-117 50.89,-117"/>
<text xml:space="preserve" text-anchor="middle" x="65.89" y="-131.4" font-family="Times,serif" font-size="12.00" fill="#000000">HEAD</text>
</g>
<!-- head_label&#45;&gt;1 -->
<g id="edge3" class="edge">
<title>head_label&#45;&gt;1</title>
<path fill="none" stroke="#20b2aa" d="M93.29,-145.6C116.02,-154.73 149.9,-168.34 180.45,-180.6"/>
<polygon fill="#20b2aa" stroke="#20b2aa" points="178.98,-183.22 187.98,-183.63 181.2,-177.7 178.98,-183.22"/>
</g>
<!-- tail_label -->
<g id="node24" class="node">
<title>tail_label</title>
<path fill="#20b2aa" stroke="#000000" d="M237.16,-117C237.16,-117 267.16,-117 267.16,-117 273.16,-117 279.16,-123 279.16,-129 279.16,-129 279.16,-141 279.16,-141 279.16,-147 273.16,-153 267.16,-153 267.16,-153 237.16,-153 237.16,-153 231.16,-153 225.16,-147 225.16,-141 225.16,-141 225.16,-129 225.16,-129 225.16,-123 231.16,-117 237.16,-117"/>
<text xml:space="preserve" text-anchor="middle" x="252.16" y="-131.4" font-family="Times,serif" font-size="12.00" fill="#000000">TAIL</text>
</g>
<!-- head_label&#45;&gt;tail_label -->
<!-- tail_label&#45;&gt;10 -->
<g id="edge4" class="edge">
<title>tail_label&#45;&gt;10</title>
<path fill="none" stroke="#20b2aa" d="M279.49,-127.48C303.53,-120.87 340.16,-111.5 372.54,-106 480.04,-87.75 507.66,-82 616.7,-82 616.7,-82 616.7,-82 1569.36,-82 1678.58,-82 1796.44,-133.71 1867.44,-171.14"/>
<polygon fill="#20b2aa" stroke="#20b2aa" points="1865.63,-173.55 1874.53,-174.92 1868.43,-168.3 1865.63,-173.55"/>
</g>
<!-- free_label -->
<g id="node25" class="node">
<title>free_label</title>
<path fill="#20b2aa" stroke="#000000" d="M419.93,-117C419.93,-117 449.93,-117 449.93,-117 455.93,-117 461.93,-123 461.93,-129 461.93,-129 461.93,-141 461.93,-141 461.93,-147 455.93,-153 449.93,-153 449.93,-153 419.93,-153 419.93,-153 413.93,-153 407.93,-147 407.93,-141 407.93,-141 407.93,-129 407.93,-129 407.93,-123 413.93,-117 419.93,-117"/>
<text xml:space="preserve" text-anchor="middle" x="434.93" y="-131.4" font-family="Times,serif" font-size="12.00" fill="#000000">FREE</text>
</g>
<!-- tail_label&#45;&gt;free_label -->
<!-- free_label&#45;&gt;7 -->
<g id="edge5" class="edge">
<title>free_label&#45;&gt;7</title>
<path fill="none" stroke="#20b2aa" d="M462.33,-135.36C522.91,-136.16 676.55,-138 805.04,-138 805.04,-138 805.04,-138 1002.39,-138 1117.75,-138 1148.1,-139.2 1260.54,-165 1276.47,-168.65 1293.17,-173.78 1308.92,-179.25"/>
<polygon fill="#20b2aa" stroke="#20b2aa" points="1307.64,-181.96 1316.65,-182 1309.63,-176.35 1307.64,-181.96"/>
</g>
</g>
</svg>
