<?xml version="1.0" encoding="UTF-8" standalone="no"?>
<!DOCTYPE svg PUBLIC "-//W3C//DTD SVG 1.1//EN"
 "http://www.w3.org/Graphics/SVG/1.1/DTD/svg11.dtd">
<!-- Generated by graphviz version 14.0.2 (20251019.1705)
 -->
<!-- Title: G Pages: 1 -->
<svg width="1931pt" height="272pt"
 viewBox="0.00 0.00 1931.00 272.00" xmlns="http://www.w3.org/2000/svg" xmlns:xlink="http://www.w3.org/1999/xlink">
<g id="graph0" class="graph" transform="scale(1 1) rotate(0) translate(4 268.15)">
<title>G</title>
<polygon fill="#fffafa" stroke="none" points="-4,4 -4,-268.15 1926.93,-268.15 1926.93,4 -4,4"/>
<!-- 0 -->
<g id="node1" class="node">
<title>0</title>
<path fill="#cd5c5c" stroke="#000000" d="M348,-71.15C348,-71.15 448.77,-71.15 448.77,-71.15 454.77,-71.15 460.77,-77.15 460.77,-83.15 460.77,-83.15 460.77,-125.15 460.77,-125.15 460.77,-131.15 454.77,-137.15 448.77,-137.15 448.77,-137.15 348,-137.15 348,-137.15 342,-137.15 336,-131.15 336,-125.15 336,-125.15 336,-83.15 336,-83.15 336,-77.15 342,-71.15 348,-71.15"/>
<text xml:space="preserve" text-anchor="middle" x="398.39" y="-121.95" font-family="Times,serif" font-size="14.00">phys idx = 0</text>
<polyline fill="none" stroke="#000000" points="336,-115.15 460.77,-115.15"/>
<text xml:space="preserve" text-anchor="middle" x="398.39" y="-99.95" font-family="Times,serif" font-size="14.00">elem = &#45;6666.00</text>
<polyline fill="none" stroke="#000000" points="336,-93.15 460.77,-93.15"/>
<text xml:space="preserve" text-anchor="middle" x="367.39" y="-77.95" font-family="Times,serif" font-size="14.00">prev = 8</text>
<polyline fill="none" stroke="#000000" points="398.77,-71.15 398.77,-93.15"/>
<text xml:space="preserve" text-anchor="middle" x="429.77" y="-77.95" font-family="Times,serif" font-size="14.00">next = 1</text>
</g>
<!-- 1 -->
<g id="node2" class="node">
<title>1</title>
<path fill="#98fb98" stroke="#000000" d="M530.77,-71.15C530.77,-71.15 631.54,-71.15 631.54,-71.15 637.54,-71.15 643.54,-77.15 643.54,-83.15 643.54,-83.15 643.54,-125.15 643.54,-125.15 643.54,-131.15 637.54,-137.15 631.54,-137.15 631.54,-137.15 530.77,-137.15 530.77,-137.15 524.77,-137.15 518.77,-131.15 518.77,-125.15 518.77,-125.15 518.77,-83.15 518.77,-83.15 518.77,-77.15 524.77,-71.15 530.77,-71.15"/>
<text xml:space="preserve" text-anchor="middle" x="581.16" y="-121.95" font-family="Times,serif" font-size="14.00">phys idx = 1</text>
<polyline fill="none" stroke="#000000" points="518.77,-115.15 643.54,-115.15"/>
<text xml:space="preserve" text-anchor="middle" x="581.16" y="-99.95" font-family="Times,serif" font-size="14.00">elem = 11.00</text>
<polyline fill="none" stroke="#000000" points="518.77,-93.15 643.54,-93.15"/>
<text xml:space="preserve" text-anchor="middle" x="550.16" y="-77.95" font-family="Times,serif" font-size="14.00">prev = 0</text>
<polyline fill="none" stroke="#000000" points="581.54,-71.15 581.54,-93.15"/>
<text xml:space="preserve" text-anchor="middle" x="612.54" y="-77.95" font-family="Times,serif" font-size="14.00">next = 2</text>
</g>
<!-- 0&#45;&gt;1 -->
<!-- 0&#45;&gt;1 -->
<g id="edge14" class="edge">
<title>0&#45;&gt;1</title>
<path fill="none" stroke="#000000" d="M470.78,-112.24C483.21,-112.46 496.14,-112.46 508.57,-112.24"/>
<polygon fill="#000000" stroke="#000000" points="471.17,-109.27 462.6,-112.06 471.04,-115.22 471.17,-109.27"/>
<polygon fill="#000000" stroke="#000000" points="508.48,-115.22 516.91,-112.06 508.34,-109.27 508.48,-115.22"/>
</g>
<!-- 2 -->
<g id="node3" class="node">
<title>2</title>
<path fill="#98fb98" stroke="#000000" d="M713.54,-71.15C713.54,-71.15 814.31,-71.15 814.31,-71.15 820.31,-71.15 826.31,-77.15 826.31,-83.15 826.31,-83.15 826.31,-125.15 826.31,-125.15 826.31,-131.15 820.31,-137.15 814.31,-137.15 814.31,-137.15 713.54,-137.15 713.54,-137.15 707.54,-137.15 701.54,-131.15 701.54,-125.15 701.54,-125.15 701.54,-83.15 701.54,-83.15 701.54,-77.15 707.54,-71.15 713.54,-71.15"/>
<text xml:space="preserve" text-anchor="middle" x="763.93" y="-121.95" font-family="Times,serif" font-size="14.00">phys idx = 2</text>
<polyline fill="none" stroke="#000000" points="701.54,-115.15 826.31,-115.15"/>
<text xml:space="preserve" text-anchor="middle" x="763.93" y="-99.95" font-family="Times,serif" font-size="14.00">elem = 20.00</text>
<polyline fill="none" stroke="#000000" points="701.54,-93.15 826.31,-93.15"/>
<text xml:space="preserve" text-anchor="middle" x="732.93" y="-77.95" font-family="Times,serif" font-size="14.00">prev = 1</text>
<polyline fill="none" stroke="#000000" points="764.31,-71.15 764.31,-93.15"/>
<text xml:space="preserve" text-anchor="middle" x="795.31" y="-77.95" font-family="Times,serif" font-size="14.00">next = 3</text>
</g>
<!-- 1&#45;&gt;2 -->
<!-- 1&#45;&gt;2 -->
<g id="edge15" class="edge">
<title>1&#45;&gt;2</title>
<path fill="none" stroke="#000000" d="M653.55,-112.24C665.98,-112.46 678.91,-112.46 691.35,-112.24"/>
<polygon fill="#000000" stroke="#000000" points="653.94,-109.27 645.37,-112.06 653.81,-115.22 653.94,-109.27"/>
<polygon fill="#000000" stroke="#000000" points="691.25,-115.22 699.68,-112.06 691.11,-109.27 691.25,-115.22"/>
</g>
<!-- 3 -->
<g id="node4" class="node">
<title>3</title>
<path fill="#98fb98" stroke="#000000" d="M896.31,-71.15C896.31,-71.15 997.08,-71.15 997.08,-71.15 1003.08,-71.15 1009.08,-77.15 1009.08,-83.15 1009.08,-83.15 1009.08,-125.15 1009.08,-125.15 1009.08,-131.15 1003.08,-137.15 997.08,-137.15 997.08,-137.15 896.31,-137.15 896.31,-137.15 890.31,-137.15 884.31,-131.15 884.31,-125.15 884.31,-125.15 884.31,-83.15 884.31,-83.15 884.31,-77.15 890.31,-71.15 896.31,-71.15"/>
<text xml:space="preserve" text-anchor="middle" x="946.7" y="-121.95" font-family="Times,serif" font-size="14.00">phys idx = 3</text>
<polyline fill="none" stroke="#000000" points="884.31,-115.15 1009.08,-115.15"/>
<text xml:space="preserve" text-anchor="middle" x="946.7" y="-99.95" font-family="Times,serif" font-size="14.00">elem = 30.00</text>
<polyline fill="none" stroke="#000000" points="884.31,-93.15 1009.08,-93.15"/>
<text xml:space="preserve" text-anchor="middle" x="915.7" y="-77.95" font-family="Times,serif" font-size="14.00">prev = 2</text>
<polyline fill="none" stroke="#000000" points="947.08,-71.15 947.08,-93.15"/>
<text xml:space="preserve" text-anchor="middle" x="978.08" y="-77.95" font-family="Times,serif" font-size="14.00">next = 4</text>
</g>
<!-- 2&#45;&gt;3 -->
<!-- 2&#45;&gt;3 -->
<g id="edge16" class="edge">
<title>2&#45;&gt;3</title>
<path fill="none" stroke="#000000" d="M836.32,-112.24C848.75,-112.46 861.68,-112.46 874.12,-112.24"/>
<polygon fill="#000000" stroke="#000000" points="836.71,-109.27 828.14,-112.06 836.58,-115.22 836.71,-109.27"/>
<polygon fill="#000000" stroke="#000000" points="874.02,-115.22 882.45,-112.06 873.89,-109.27 874.02,-115.22"/>
</g>
<!-- 4 -->
<g id="node5" class="node">
<title>4</title>
<path fill="#98fb98" stroke="#000000" d="M1079.08,-71.15C1079.08,-71.15 1179.85,-71.15 1179.85,-71.15 1185.85,-71.15 1191.85,-77.15 1191.85,-83.15 1191.85,-83.15 1191.85,-125.15 1191.85,-125.15 1191.85,-131.15 1185.85,-137.15 1179.85,-137.15 1179.85,-137.15 1079.08,-137.15 1079.08,-137.15 1073.08,-137.15 1067.08,-131.15 1067.08,-125.15 1067.08,-125.15 1067.08,-83.15 1067.08,-83.15 1067.08,-77.15 1073.08,-71.15 1079.08,-71.15"/>
<text xml:space="preserve" text-anchor="middle" x="1129.47" y="-121.95" font-family="Times,serif" font-size="14.00">phys idx = 4</text>
<polyline fill="none" stroke="#000000" points="1067.08,-115.15 1191.85,-115.15"/>
<text xml:space="preserve" text-anchor="middle" x="1129.47" y="-99.95" font-family="Times,serif" font-size="14.00">elem = 32.00</text>
<polyline fill="none" stroke="#000000" points="1067.08,-93.15 1191.85,-93.15"/>
<text xml:space="preserve" text-anchor="middle" x="1098.47" y="-77.95" font-family="Times,serif" font-size="14.00">prev = 3</text>
<polyline fill="none" stroke="#000000" points="1129.85,-71.15 1129.85,-93.15"/>
<text xml:space="preserve" text-anchor="middle" x="1160.85" y="-77.95" font-family="Times,serif" font-size="14.00">next = 5</text>
</g>
<!-- 3&#45;&gt;4 -->
<!-- 3&#45;&gt;4 -->
<g id="edge17" class="edge">
<title>3&#45;&gt;4</title>
<path fill="none" stroke="#000000" d="M1019.09,-112.24C1031.52,-112.46 1044.45,-112.46 1056.89,-112.24"/>
<polygon fill="#000000" stroke="#000000" points="1019.48,-109.27 1010.92,-112.06 1019.35,-115.22 1019.48,-109.27"/>
<polygon fill="#000000" stroke="#000000" points="1056.79,-115.22 1065.22,-112.06 1056.66,-109.27 1056.79,-115.22"/>
</g>
<!-- 5 -->
<g id="node7" class="node">
<title>5</title>
<path fill="#98fb98" stroke="#000000" d="M1261.85,-71.15C1261.85,-71.15 1362.62,-71.15 1362.62,-71.15 1368.62,-71.15 1374.62,-77.15 1374.62,-83.15 1374.62,-83.15 1374.62,-125.15 1374.62,-125.15 1374.62,-131.15 1368.62,-137.15 1362.62,-137.15 1362.62,-137.15 1261.85,-137.15 1261.85,-137.15 1255.85,-137.15 1249.85,-131.15 1249.85,-125.15 1249.85,-125.15 1249.85,-83.15 1249.85,-83.15 1249.85,-77.15 1255.85,-71.15 1261.85,-71.15"/>
<text xml:space="preserve" text-anchor="middle" x="1312.24" y="-121.95" font-family="Times,serif" font-size="14.00">phys idx = 5</text>
<polyline fill="none" stroke="#000000" points="1249.85,-115.15 1374.62,-115.15"/>
<text xml:space="preserve" text-anchor="middle" x="1312.24" y="-99.95" font-family="Times,serif" font-size="14.00">elem = 36.00</text>
<polyline fill="none" stroke="#000000" points="1249.85,-93.15 1374.62,-93.15"/>
<text xml:space="preserve" text-anchor="middle" x="1281.24" y="-77.95" font-family="Times,serif" font-size="14.00">prev = 9</text>
<polyline fill="none" stroke="#000000" points="1312.62,-71.15 1312.62,-93.15"/>
<text xml:space="preserve" text-anchor="middle" x="1343.62" y="-77.95" font-family="Times,serif" font-size="14.00">next = 3</text>
</g>
<!-- 4&#45;&gt;5 -->
<!-- 4&#45;&gt;5 -->
<g id="edge18" class="edge">
<title>4&#45;&gt;5</title>
<path fill="none" stroke="#0000ff" stroke-width="2" d="M1192.17,-112.02C1206.49,-112.42 1221.88,-112.5 1236.69,-112.29"/>
<polygon fill="#0000ff" stroke="#0000ff" stroke-width="2" points="1236.55,-115.79 1246.48,-112.09 1236.41,-108.8 1236.55,-115.79"/>
</g>
<!-- 9 -->
<g id="node6" class="node">
<title>9</title>
<polygon fill="#bb0d12" stroke="#000000" stroke-width="2" points="54,-10.7 54,-25.61 38.18,-36.15 15.82,-36.15 0,-25.61 0,-10.7 15.82,-0.15 38.18,-0.15 54,-10.7"/>
<text xml:space="preserve" text-anchor="middle" x="27" y="-13.95" font-family="Times,serif" font-size="14.00">9</text>
</g>
<!-- 9&#45;&gt;5 -->
<g id="edge19" class="edge">
<title>9&#45;&gt;5</title>
<path fill="none" stroke="#ff4f00" stroke-width="2" d="M54.59,-15.94C182.29,-5.99 744.82,30.46 1191.85,-59.15 1206.87,-62.16 1222.48,-66.83 1237.27,-72.04"/>
<polygon fill="#ff4f00" stroke="#ff4f00" stroke-width="2" points="1236.04,-75.31 1246.63,-75.47 1238.45,-68.74 1236.04,-75.31"/>
</g>
<!-- 5&#45;&gt;3 -->
<g id="edge20" class="edge">
<title>5&#45;&gt;3</title>
<path fill="none" stroke="#0000ff" stroke-width="2" d="M1249.56,-132.23C1231.36,-139.18 1211.14,-145.64 1191.85,-149.15 1137.3,-159.09 1121.64,-159.09 1067.08,-149.15 1052.02,-146.41 1036.38,-141.86 1021.58,-136.69"/>
<polygon fill="#0000ff" stroke="#0000ff" stroke-width="2" points="1022.81,-133.42 1012.22,-133.27 1020.41,-139.99 1022.81,-133.42"/>
</g>
<!-- 6 -->
<g id="node8" class="node">
<title>6</title>
<path fill="#98fb98" stroke="#000000" d="M1444.62,-71.15C1444.62,-71.15 1545.39,-71.15 1545.39,-71.15 1551.39,-71.15 1557.39,-77.15 1557.39,-83.15 1557.39,-83.15 1557.39,-125.15 1557.39,-125.15 1557.39,-131.15 1551.39,-137.15 1545.39,-137.15 1545.39,-137.15 1444.62,-137.15 1444.62,-137.15 1438.62,-137.15 1432.62,-131.15 1432.62,-125.15 1432.62,-125.15 1432.62,-83.15 1432.62,-83.15 1432.62,-77.15 1438.62,-71.15 1444.62,-71.15"/>
<text xml:space="preserve" text-anchor="middle" x="1495.01" y="-121.95" font-family="Times,serif" font-size="14.00">phys idx = 6</text>
<polyline fill="none" stroke="#000000" points="1432.62,-115.15 1557.39,-115.15"/>
<text xml:space="preserve" text-anchor="middle" x="1495.01" y="-99.95" font-family="Times,serif" font-size="14.00">elem = 50.00</text>
<polyline fill="none" stroke="#000000" points="1432.62,-93.15 1557.39,-93.15"/>
<text xml:space="preserve" text-anchor="middle" x="1464.01" y="-77.95" font-family="Times,serif" font-size="14.00">prev = 5</text>
<polyline fill="none" stroke="#000000" points="1495.39,-71.15 1495.39,-93.15"/>
<text xml:space="preserve" text-anchor="middle" x="1526.39" y="-77.95" font-family="Times,serif" font-size="14.00">next = 7</text>
</g>
<!-- 5&#45;&gt;6 -->
<!-- 5&#45;&gt;6 -->
<g id="edge21" class="edge">
<title>5&#45;&gt;6</title>
<path fill="none" stroke="#ff4f00" stroke-width="2" d="M1387.76,-112.29C1402.56,-112.5 1417.95,-112.42 1432.27,-112.02"/>
<polygon fill="#ff4f00" stroke="#ff4f00" stroke-width="2" points="1388.04,-108.79 1377.97,-112.09 1387.89,-115.79 1388.04,-108.79"/>
</g>
<!-- 7 -->
<g id="node9" class="node">
<title>7</title>
<path fill="#98fb98" stroke="#000000" d="M1627.39,-71.15C1627.39,-71.15 1728.16,-71.15 1728.16,-71.15 1734.16,-71.15 1740.16,-77.15 1740.16,-83.15 1740.16,-83.15 1740.16,-125.15 1740.16,-125.15 1740.16,-131.15 1734.16,-137.15 1728.16,-137.15 1728.16,-137.15 1627.39,-137.15 1627.39,-137.15 1621.39,-137.15 1615.39,-131.15 1615.39,-125.15 1615.39,-125.15 1615.39,-83.15 1615.39,-83.15 1615.39,-77.15 1621.39,-71.15 1627.39,-71.15"/>
<text xml:space="preserve" text-anchor="middle" x="1677.78" y="-121.95" font-family="Times,serif" font-size="14.00">phys idx = 7</text>
<polyline fill="none" stroke="#000000" points="1615.39,-115.15 1740.16,-115.15"/>
<text xml:space="preserve" text-anchor="middle" x="1677.78" y="-99.95" font-family="Times,serif" font-size="14.00">elem = 66.00</text>
<polyline fill="none" stroke="#000000" points="1615.39,-93.15 1740.16,-93.15"/>
<text xml:space="preserve" text-anchor="middle" x="1646.78" y="-77.95" font-family="Times,serif" font-size="14.00">prev = 6</text>
<polyline fill="none" stroke="#000000" points="1678.17,-71.15 1678.17,-93.15"/>
<text xml:space="preserve" text-anchor="middle" x="1709.16" y="-77.95" font-family="Times,serif" font-size="14.00">next = 8</text>
</g>
<!-- 6&#45;&gt;7 -->
<!-- 8 -->
<g id="node10" class="node">
<title>8</title>
<path fill="#98fb98" stroke="#000000" d="M1810.16,-71.15C1810.16,-71.15 1910.93,-71.15 1910.93,-71.15 1916.93,-71.15 1922.93,-77.15 1922.93,-83.15 1922.93,-83.15 1922.93,-125.15 1922.93,-125.15 1922.93,-131.15 1916.93,-137.15 1910.93,-137.15 1910.93,-137.15 1810.16,-137.15 1810.16,-137.15 1804.16,-137.15 1798.16,-131.15 1798.16,-125.15 1798.16,-125.15 1798.16,-83.15 1798.16,-83.15 1798.16,-77.15 1804.16,-71.15 1810.16,-71.15"/>
<text xml:space="preserve" text-anchor="middle" x="1860.55" y="-121.95" font-family="Times,serif" font-size="14.00">phys idx = 8</text>
<polyline fill="none" stroke="#000000" points="1798.16,-115.15 1922.93,-115.15"/>
<text xml:space="preserve" text-anchor="middle" x="1860.55" y="-99.95" font-family="Times,serif" font-size="14.00">elem = 70.00</text>
<polyline fill="none" stroke="#000000" points="1798.16,-93.15 1922.93,-93.15"/>
<text xml:space="preserve" text-anchor="middle" x="1829.55" y="-77.95" font-family="Times,serif" font-size="14.00">prev = 7</text>
<polyline fill="none" stroke="#000000" points="1860.94,-71.15 1860.94,-93.15"/>
<text xml:space="preserve" text-anchor="middle" x="1891.94" y="-77.95" font-family="Times,serif" font-size="14.00">next = 0</text>
</g>
<!-- 7&#45;&gt;8 -->
<!-- 7&#45;&gt;8 -->
<g id="edge22" class="edge">
<title>7&#45;&gt;8</title>
<path fill="none" stroke="#000000" d="M1750.17,-112.24C1762.6,-112.46 1775.53,-112.46 1787.97,-112.24"/>
<polygon fill="#000000" stroke="#000000" points="1750.56,-109.27 1742,-112.06 1750.43,-115.22 1750.56,-109.27"/>
<polygon fill="#000000" stroke="#000000" points="1787.87,-115.22 1796.3,-112.06 1787.74,-109.27 1787.87,-115.22"/>
</g>
<!-- 8&#45;&gt;0 -->
<g id="edge23" class="edge">
<title>8&#45;&gt;0</title>
<path fill="none" stroke="#000000" d="M1788.76,-135.6C1773.06,-141.22 1756.29,-146.22 1740.16,-149.15 1206.12,-246.46 1052.82,-246.46 518.77,-149.15 502.65,-146.22 485.88,-141.22 470.17,-135.6"/>
<polygon fill="#000000" stroke="#000000" points="1789.51,-138.49 1796.45,-132.75 1787.45,-132.91 1789.51,-138.49"/>
<polygon fill="#000000" stroke="#000000" points="471.49,-132.91 462.48,-132.75 469.42,-138.49 471.49,-132.91"/>
</g>
<!-- head_label -->
<g id="node11" class="node">
<title>head_label</title>
<path fill="#20b2aa" stroke="#000000" d="M12,-86.15C12,-86.15 42,-86.15 42,-86.15 48,-86.15 54,-92.15 54,-98.15 54,-98.15 54,-110.15 54,-110.15 54,-116.15 48,-122.15 42,-122.15 42,-122.15 12,-122.15 12,-122.15 6,-122.15 0,-116.15 0,-110.15 0,-110.15 0,-98.15 0,-98.15 0,-92.15 6,-86.15 12,-86.15"/>
<text xml:space="preserve" text-anchor="middle" x="27" y="-100.55" font-family="Times,serif" font-size="12.00" fill="#000000">HEAD</text>
</g>
<!-- head_label&#45;&gt;1 -->
<g id="edge3" class="edge">
<title>head_label&#45;&gt;1</title>
<path fill="none" stroke="#20b2aa" d="M54.32,-92.63C70.61,-86.04 92.14,-78.28 112,-74.15 263.91,-42.58 308.13,-31.34 460.77,-59.15 476.89,-62.09 493.67,-67.09 509.37,-72.71"/>
<polygon fill="#20b2aa" stroke="#20b2aa" points="508.05,-75.4 517.06,-75.56 510.12,-69.82 508.05,-75.4"/>
</g>
<!-- tail_label -->
<g id="node12" class="node">
<title>tail_label</title>
<path fill="#20b2aa" stroke="#000000" d="M124,-86.15C124,-86.15 154,-86.15 154,-86.15 160,-86.15 166,-92.15 166,-98.15 166,-98.15 166,-110.15 166,-110.15 166,-116.15 160,-122.15 154,-122.15 154,-122.15 124,-122.15 124,-122.15 118,-122.15 112,-116.15 112,-110.15 112,-110.15 112,-98.15 112,-98.15 112,-92.15 118,-86.15 124,-86.15"/>
<text xml:space="preserve" text-anchor="middle" x="139" y="-100.55" font-family="Times,serif" font-size="12.00" fill="#000000">TAIL</text>
</g>
<!-- head_label&#45;&gt;tail_label -->
<!-- tail_label&#45;&gt;8 -->
<g id="edge4" class="edge">
<title>tail_label&#45;&gt;8</title>
<path fill="none" stroke="#20b2aa" d="M155.34,-122.51C192.29,-164.53 291.1,-264.15 397.39,-264.15 397.39,-264.15 397.39,-264.15 1496.01,-264.15 1615.78,-264.15 1740.38,-190.5 1808.11,-143.14"/>
<polygon fill="#20b2aa" stroke="#20b2aa" points="1809.63,-145.71 1814.85,-138.37 1806.2,-140.85 1809.63,-145.71"/>
</g>
<!-- free_label -->
<g id="node13" class="node">
<title>free_label</title>
<path fill="#20b2aa" stroke="#000000" d="M236,-86.15C236,-86.15 266,-86.15 266,-86.15 272,-86.15 278,-92.15 278,-98.15 278,-98.15 278,-110.15 278,-110.15 278,-116.15 272,-122.15 266,-122.15 266,-122.15 236,-122.15 236,-122.15 230,-122.15 224,-116.15 224,-110.15 224,-110.15 224,-98.15 224,-98.15 224,-92.15 230,-86.15 236,-86.15"/>
<text xml:space="preserve" text-anchor="middle" x="251" y="-100.55" font-family="Times,serif" font-size="12.00" fill="#000000">FREE</text>
</g>
<!-- tail_label&#45;&gt;free_label -->
<!-- free_label&#45;&gt;0 -->
<g id="edge5" class="edge">
<title>free_label&#45;&gt;0</title>
<path fill="none" stroke="#20b2aa" d="M278.33,-104.15C291.74,-104.15 308.75,-104.15 325.7,-104.15"/>
<polygon fill="#20b2aa" stroke="#20b2aa" points="325.63,-107.13 334.13,-104.15 325.63,-101.18 325.63,-107.13"/>
</g>
</g>
</svg>
